<svg xmlns="http://www.w3.org/2000/svg" fill="none" viewBox="0 0 80 80" height="80" width="80">
<circle fill="black" r="40" cy="40" cx="40"></circle>
<path fill="white" d="M66.454 55.4098C68.055 58.5838 64.8529 62.9481 60.8503 60.5676C60.8503 60.5676 45.6405 50.6488 34.4333 46.2845L27.6289 58.9806C27.2287 60.1708 24.4269 62.1546 22.0253 60.5676C3.21318 49.8553 6.8155 28.8275 30.4307 35.969L40.0369 17.7185C42.0382 14.5445 46.0408 15.338 47.2416 17.7185L66.454 55.4098ZM26.8284 43.5073C11.6186 39.143 19.6238 49.4586 22.8258 51.4423L26.8284 43.5073ZM52.8452 46.2845L43.239 28.4307L38.0356 39.143C41.638 40.3333 49.6431 44.6975 52.8452 46.2845Z"></path>
</svg>
