<svg xmlns="http://www.w3.org/2000/svg" fill="none" viewBox="0 0 80 80" height="80" width="80">
<g clip-path="url(#clip0_3213_74)">
<path fill="#00BD82" d="M60.14 1.72C55.64 0.68 48.246 0 39.886 0C31.526 0 24.13 0.68 19.632 1.72C10.66 3.608 3.598 10.692 1.716 19.688C0.676 24.2 0 31.616 0 40C0 48.384 0.678 55.8 1.716 60.312C3.598 69.308 10.662 76.392 19.632 78.28C24.132 79.32 31.526 80 39.886 80C48.246 80 55.642 79.32 60.14 78.28C69.11 76.392 76.174 69.308 78.056 60.312C79.096 55.8 79.772 48.384 79.772 40C79.772 31.616 79.094 24.2 78.056 19.688C76.174 10.692 69.11 3.608 60.14 1.72Z"></path>
<path fill="white" d="M49.4697 61.41C49.0925 60.5086 48.5025 59.712 47.7501 59.0885C46.9977 58.465 46.1055 58.0332 45.1497 57.83C43.9817 57.56 42.0577 57.384 39.8857 57.384C37.7117 57.384 35.7877 57.56 34.6197 57.832C32.6797 58.24 31.0797 59.584 30.3177 61.372C30.0517 61.992 29.4177 62.37 28.7457 62.308C28.6023 62.2952 28.459 62.2819 28.3157 62.268C25.1877 61.954 22.7297 61.518 21.3017 61.01C20.7636 60.8095 20.3093 60.4327 20.013 59.9409C19.7166 59.4491 19.5956 58.8714 19.6697 58.302C19.9117 55.038 21.8897 47.394 24.8417 38.67C28.2177 28.696 31.7497 20.622 33.3417 19.048C33.7194 18.6526 34.1865 18.3536 34.7037 18.176C35.7497 17.822 37.6777 17.584 39.8837 17.584C42.0917 17.584 44.0197 17.822 45.0637 18.176L45.0817 18.182C45.5932 18.3599 46.0552 18.6567 46.4297 19.048C48.0217 20.622 51.5517 28.696 54.9277 38.668C57.8817 47.394 59.8577 55.038 60.1017 58.302C60.1017 58.328 60.1017 58.356 60.1057 58.384L60.1097 58.414C60.113 58.486 60.1156 58.558 60.1177 58.63C60.118 59.1473 59.9604 59.6524 59.6659 60.0777C59.3714 60.5031 58.9541 60.8283 58.4697 61.01C57.0417 61.518 54.5857 61.954 51.4617 62.266L50.9697 62.312C50.6565 62.3408 50.3422 62.2691 50.0725 62.1073C49.8028 61.9455 49.5916 61.6999 49.4697 61.41Z"></path>
</g>
<defs>
<clipPath id="clip0_3213_74">
<rect fill="white" height="80" width="80"></rect>
</clipPath>
</defs>
</svg>
