<svg xmlns="http://www.w3.org/2000/svg" fill="none" viewBox="0 0 81 80" height="80" width="81">
<g clip-path="url(#clip0_3329_991)">
<path fill="url(#paint0_linear_3329_991)" d="M80.1929 0H0.192871V80H80.1929V0Z"></path>
<path fill="white" d="M40.1927 55.3386C37.159 55.3386 34.1934 54.439 31.671 52.7536C29.1485 51.0682 27.1825 48.6726 26.0216 45.8698C24.8607 43.067 24.5569 39.983 25.1487 37.0075C25.7406 34.0321 27.2015 31.299 29.3466 29.1539C31.4918 27.0087 34.2248 25.5479 37.2003 24.956C40.1757 24.3642 43.2598 24.6679 46.0625 25.8289C48.8653 26.9898 51.2609 28.9558 52.9463 31.4783C54.6317 34.0007 55.5313 36.9663 55.5313 40C55.5257 44.0663 53.9078 47.9645 51.0325 50.8398C48.1572 53.7151 44.259 55.333 40.1927 55.3386V55.3386ZM40.1927 26.7946C37.5809 26.7946 35.0278 27.5691 32.8562 29.0201C30.6846 30.4712 28.992 32.5335 27.9925 34.9465C26.9931 37.3595 26.7315 40.0146 27.2411 42.5762C27.7506 45.1378 29.0083 47.4908 30.8551 49.3375C32.7019 51.1843 35.0549 52.442 37.6164 52.9516C40.178 53.4611 42.8332 53.1996 45.2461 52.2001C47.6591 51.2006 49.7215 49.5081 51.1725 47.3365C52.6235 45.1649 53.398 42.6117 53.398 40C53.3924 36.4994 51.9993 33.1439 49.524 30.6686C47.0488 28.1934 43.6932 26.8003 40.1927 26.7946V26.7946Z"></path>
<path fill="white" d="M20.5874 32.6293L18.5928 31.872C20.2732 27.4904 23.2394 23.7194 27.1019 21.0543C30.9645 18.3892 35.5427 16.9545 40.2354 16.9386C40.4464 16.9395 40.6524 17.0029 40.8273 17.1209C41.0022 17.2388 41.1382 17.406 41.2181 17.6012C41.298 17.7964 41.3183 18.011 41.2763 18.2177C41.2343 18.4244 41.1319 18.6141 40.9821 18.7626L37.4194 22.3253L35.9154 20.8106L37.5261 19.264C33.762 19.7633 30.2021 21.2683 27.2212 23.6203C24.2403 25.9724 21.9486 29.0846 20.5874 32.6293V32.6293Z"></path>
<path fill="white" d="M62.3047 41.152C62.1643 41.1528 62.0251 41.1259 61.8952 41.0728C61.7652 41.0197 61.647 40.9415 61.5473 40.8427L57.9953 37.3333L59.4993 35.8187L61.0567 37.3333C60.548 33.576 59.0378 30.0248 56.6844 27.0521C54.331 24.0793 51.221 21.7945 47.6807 20.4373L48.438 18.4427C52.8196 20.1231 56.5905 23.0893 59.2556 26.9519C61.9208 30.8144 63.3555 35.3926 63.3713 40.0853C63.3713 40.3682 63.259 40.6395 63.0589 40.8396C62.8589 41.0396 62.5876 41.152 62.3047 41.152V41.152Z"></path>
<path fill="white" d="M40.2351 63.2212C40.0254 63.2203 39.8207 63.1577 39.6464 63.0411C39.4721 62.9245 39.3361 62.7591 39.2552 62.5656C39.1744 62.3721 39.1524 62.1591 39.192 61.9532C39.2316 61.7473 39.331 61.5576 39.4778 61.4079L43.0404 57.8452L44.5444 59.3492L42.9871 60.9065C46.7497 60.4028 50.3075 58.8962 53.2877 56.5447C56.2679 54.1932 58.5607 51.0834 59.9258 47.5412L61.9204 48.2985C60.2344 52.684 57.2606 56.4566 53.3901 59.1201C49.5196 61.7836 44.9335 63.2133 40.2351 63.2212V63.2212Z"></path>
<path fill="white" d="M32.0217 61.728C27.6402 60.0476 23.8692 57.0814 21.2041 53.2189C18.539 49.3563 17.1043 44.7781 17.0884 40.0854C17.0872 39.8735 17.1491 39.6661 17.2662 39.4895C17.3833 39.313 17.5503 39.1753 17.746 39.094C17.9417 39.0128 18.1571 38.9917 18.3649 39.0333C18.5726 39.075 18.7632 39.1776 18.9124 39.328L22.4751 42.8907L20.9604 44.3947L19.3924 42.848C19.9049 46.6042 21.4179 50.1535 23.773 53.1242C26.1282 56.0949 29.2388 58.3776 32.7791 59.7334L32.0217 61.728Z"></path>
<path fill="white" d="M17.1734 39.6289L14.5 43.983L16.318 45.0992L18.9914 40.7451L17.1734 39.6289Z"></path>
<path fill="white" d="M64.0707 35.2613L61.3965 39.615L63.2143 40.7315L65.8885 36.3779L64.0707 35.2613Z"></path>
<path fill="white" d="M37.2371 13.5516L35.7651 15.0957L39.4633 18.6211L40.9353 17.077L37.2371 13.5516Z"></path>
<path fill="white" d="M40.9686 61.3843L39.4966 62.9284L43.1948 66.4538L44.6668 64.9097L40.9686 61.3843Z"></path>
<path fill="white" d="M40.1394 40.0105C39.1242 40.0127 38.1312 39.7135 37.286 39.1511C36.4409 38.5886 35.7816 37.788 35.3917 36.8507C35.0017 35.9134 34.8986 34.8814 35.0953 33.8855C35.2921 32.8895 35.7799 31.9743 36.497 31.2557C37.2141 30.5371 38.1283 30.0474 39.1238 29.8486C40.1194 29.6498 41.1515 29.7507 42.0897 30.1387C43.0278 30.5268 43.8297 31.1844 44.394 32.0283C44.9582 32.8723 45.2594 33.8647 45.2594 34.8799C45.2566 36.2379 44.7166 37.5397 43.7573 38.5009C42.798 39.4622 41.4974 40.0049 40.1394 40.0105V40.0105ZM40.1394 31.8932C39.5457 31.8911 38.9647 32.0654 38.4702 32.3939C37.9756 32.7224 37.5898 33.1905 37.3616 33.7386C37.1334 34.2867 37.0732 34.8903 37.1885 35.4727C37.3038 36.0551 37.5895 36.5901 38.0093 37.01C38.4291 37.4298 38.9642 37.7155 39.5466 37.8308C40.129 37.9461 40.7326 37.8858 41.2807 37.6577C41.8288 37.4295 42.2968 37.0437 42.6254 36.5491C42.9539 36.0546 43.1282 35.4736 43.126 34.8799C43.1232 34.0886 42.8077 33.3306 42.2482 32.7711C41.6887 32.2116 40.9306 31.896 40.1394 31.8932V31.8932Z"></path>
<path fill="white" d="M47.2753 47.648H33.0033C32.7204 47.648 32.4491 47.5356 32.249 47.3356C32.049 47.1355 31.9366 46.8642 31.9366 46.5813C31.9296 45.1313 32.2923 43.7035 32.9903 42.4325C33.6883 41.1616 34.6986 40.0894 35.926 39.3173C37.2053 38.5194 38.6849 38.1014 40.1926 38.112C42.4022 38.1513 44.5061 39.0647 46.0436 40.6521C47.581 42.2395 48.4267 44.3716 48.3953 46.5813C48.3955 46.726 48.3662 46.8692 48.3093 47.0022C48.2524 47.1352 48.169 47.2553 48.0643 47.3551C47.9595 47.4548 47.8355 47.5323 47.6999 47.5826C47.5642 47.633 47.4198 47.6552 47.2753 47.648ZM34.1553 45.5146H46.1233C45.9113 44.07 45.1936 42.7474 44.0977 41.7825C43.0019 40.8175 41.5992 40.2728 40.1393 40.2453C39.046 40.2475 37.9749 40.5541 37.046 41.1306C36.2815 41.6154 35.6286 42.2568 35.1303 43.0125C34.632 43.7682 34.2997 44.621 34.1553 45.5146V45.5146Z"></path>
</g>
<defs>
<linearGradient gradientUnits="userSpaceOnUse" y2="-16.5685" x2="96.7646" y1="96.5685" x1="-16.3725" id="paint0_linear_3329_991">
<stop stop-color="#055F4E"></stop>
<stop stop-color="#56C0A7" offset="1"></stop>
</linearGradient>
<clipPath id="clip0_3329_991">
<rect transform="translate(0.192871)" fill="white" height="80" width="80"></rect>
</clipPath>
</defs>
</svg>
