<svg xmlns="http://www.w3.org/2000/svg" fill="none" viewBox="0 0 64 80" height="80" width="64">
<path fill="#C6F300" d="M54.8569 33.948C51.4284 33.948 48.5972 36.7272 48.5972 40.2077C48.5972 43.6883 51.3764 46.4675 54.8569 46.4675C58.2855 46.4675 61.1167 43.6883 61.1167 40.2077C61.1167 36.7272 58.2855 33.948 54.8569 33.948Z"></path>
<path fill="black" d="M44.8312 48.3377L34.4936 53.9221C34.5715 54.3896 34.5975 54.9091 34.5975 55.4286C34.5975 60.9351 30.104 65.4286 24.5975 65.3766C19.091 65.3766 14.5975 60.8831 14.6494 55.3766C14.6494 49.8701 19.1429 45.3766 24.6494 45.4286C27.5845 45.4286 30.1559 46.6753 32.0001 48.7013L41.6624 43.5325L28.8052 24.0779C28.7014 24.0779 28.5975 24.0779 28.4936 24.0779C25.5325 24.0779 23.1169 21.6623 23.1169 18.7013C23.1169 15.7403 25.5325 13.3247 28.4936 13.3247C31.4546 13.3247 33.8702 15.7403 33.8702 18.7013C33.8702 19.7143 33.5585 20.6494 33.091 21.4545L40.5975 32.7792C44.5975 29.3766 47.1689 24.3117 47.1689 18.6753C47.1689 8.41558 38.8312 0.0519481 28.5715 0C18.3117 0 9.94809 8.33766 9.89614 18.5974C9.89614 24.026 12.2078 28.9351 15.9481 32.3636C6.67538 35.8701 0.0260198 44.8312 4.57428e-05 55.3506C-0.0259283 68.9091 11.013 79.974 24.5715 80C32.078 80 38.8572 76.6234 43.3767 71.2987L47.013 76.7792H63.6364L44.8312 48.3377Z"></path>
</svg>
