<svg xmlns="http://www.w3.org/2000/svg" fill="none" viewBox="0 0 50 80" height="80" width="50">
<g clip-path="url(#clip0_2780_40)">
<path fill="#231F20" d="M38.8354 44.2723C35.7227 44.2723 32.9321 45.6513 31.0211 47.8225L26.1244 44.356C26.6442 42.9248 26.9427 41.3881 26.9427 39.7796C26.9427 38.199 26.6546 36.6881 26.1519 35.2781L31.0377 31.8483C32.9484 34.0085 35.7317 35.38 38.8354 35.38C44.5806 35.38 49.2554 30.706 49.2554 24.96C49.2554 19.214 44.5806 14.54 38.8354 14.54C33.0902 14.54 28.4154 19.214 28.4154 24.96C28.4154 25.9885 28.5708 26.9802 28.8496 27.9194L23.9606 31.351C21.9183 28.8173 18.9777 27.0483 15.6273 26.5083V20.616C20.3473 19.6246 23.9036 15.431 23.9036 10.42C23.9036 4.67404 19.2288 0 13.4836 0C7.73844 0 3.06364 4.67404 3.06364 10.42C3.06364 15.3638 6.52787 19.5058 11.1534 20.5679V26.5367C4.84075 27.6448 0.0245972 33.154 0.0245972 39.7796C0.0245972 46.4375 4.88844 51.9669 11.2467 53.0373V59.34C6.57383 60.3671 3.06364 64.5344 3.06364 69.5119C3.06364 75.2579 7.73844 79.9319 13.4836 79.9319C19.2288 79.9319 23.9036 75.2579 23.9036 69.5119C23.9036 64.5344 20.3934 60.3671 15.7206 59.34V53.0371C18.9388 52.495 21.8503 50.8017 23.9129 48.2725L28.8423 51.7615C28.5686 52.6923 28.4154 53.6742 28.4154 54.6923C28.4154 60.4383 33.0902 65.1123 38.8354 65.1123C44.5806 65.1123 49.2554 60.4383 49.2554 54.6923C49.2554 48.9463 44.5806 44.2723 38.8354 44.2723ZM38.8354 19.9079C41.6213 19.9079 43.8873 22.1748 43.8873 24.96C43.8873 27.7452 41.6213 30.0119 38.8354 30.0119C36.0494 30.0119 33.7834 27.7452 33.7834 24.96C33.7834 22.1748 36.0494 19.9079 38.8354 19.9079ZM8.43152 10.42C8.43152 7.63481 10.6977 5.36808 13.4836 5.36808C16.2696 5.36808 18.5356 7.63481 18.5356 10.42C18.5356 13.2052 16.2696 15.4719 13.4836 15.4719C10.6977 15.4719 8.43152 13.2052 8.43152 10.42ZM18.5356 69.5119C18.5356 72.2971 16.2696 74.5638 13.4836 74.5638C10.6977 74.5638 8.43152 72.2971 8.43152 69.5119C8.43152 66.7267 10.6977 64.46 13.4836 64.46C16.2696 64.46 18.5356 66.7267 18.5356 69.5119ZM13.4833 46.8254C9.59767 46.8254 6.43671 43.665 6.43671 39.7796C6.43671 35.894 9.59767 32.7331 13.4833 32.7331C17.3686 32.7331 20.5296 35.894 20.5296 39.7796C20.5296 43.665 17.3686 46.8254 13.4833 46.8254ZM38.8354 59.7444C36.0494 59.7444 33.7834 57.4775 33.7834 54.6923C33.7834 51.9071 36.0494 49.6404 38.8354 49.6404C41.6213 49.6404 43.8873 51.9071 43.8873 54.6923C43.8873 57.4775 41.6213 59.7444 38.8354 59.7444Z"></path>
</g>
<defs>
<clipPath id="clip0_2780_40">
<rect fill="white" height="80" width="49.28"></rect>
</clipPath>
</defs>
</svg>
