<svg xmlns="http://www.w3.org/2000/svg" fill="none" viewBox="0 0 64 80" height="80" width="64">
<path fill="#5757F5" d="M28.0384 43.6796L50.4519 78.7617C50.7213 79.1636 51.0905 79.4887 51.5232 79.7051C51.956 79.9215 52.4375 80.0217 52.9207 79.9961H61.1065C61.4843 80.005 61.86 79.9371 62.2108 79.7966C62.5617 79.6561 62.8804 79.4459 63.1476 79.1786C63.4148 78.9114 63.6251 78.5927 63.7656 78.2419C63.9061 77.891 63.9739 77.5153 63.965 77.1375V2.88044C63.9696 2.28046 63.7853 1.69424 63.4382 1.20484C63.0911 0.715435 62.5988 0.34766 62.031 0.153617C61.4633 -0.0404265 60.8489 -0.0508992 60.2748 0.123682C59.7008 0.298264 59.1962 0.649047 58.8327 1.12634L28.0384 40.2364C27.7003 40.7469 27.5201 41.3457 27.5201 41.958C27.5201 42.5703 27.7003 43.1691 28.0384 43.6796ZM2.89622 79.9311H17.5787C17.951 79.9398 18.3213 79.8739 18.6677 79.7374C19.0142 79.6009 19.3299 79.3965 19.5962 79.1362C19.8625 78.8759 20.0741 78.565 20.2186 78.2218C20.363 77.8786 20.4374 77.5099 20.4373 77.1375V58.2971C20.4419 57.6972 20.2575 57.1109 19.9104 56.6215C19.5633 56.1321 19.071 55.7644 18.5033 55.5703C17.9355 55.3763 17.3211 55.3658 16.7471 55.5404C16.173 55.715 15.6685 56.0658 15.3049 56.543L0.687346 75.3834C0.376844 75.8073 0.189164 76.3085 0.14492 76.832C0.100676 77.3556 0.201581 77.8812 0.436551 78.3511C0.671521 78.8211 1.03146 79.2171 1.47684 79.4959C1.92222 79.7746 2.43581 79.9252 2.96118 79.9311H2.89622Z"></path>
</svg>
