<svg xmlns="http://www.w3.org/2000/svg" fill="none" viewBox="0 0 45 80" height="80" width="45">
<path fill="#FF6600" d="M43.1806 23.3128L24.0027 0.208989C23.6007 -0.193009 22.8928 0.00898993 22.8928 0.608986L24.5087 23.0108L10.5788 11.1589C10.1748 10.7589 9.46884 11.1589 9.57084 11.7629L15.1208 33.8628L1.69689 26.0268C1.19289 25.7268 0.586896 26.2268 0.788895 26.8308L24.3067 79.6705C24.5067 80.1725 25.3147 80.0705 25.4167 79.5705L30.5647 52.4466L43.6846 30.3468C44.3253 29.2624 44.6203 28.0085 44.5302 26.7521C44.4402 25.4958 43.9694 24.2968 43.1806 23.3148V23.3128Z"></path>
<path fill="#E74030" d="M24.4072 23.0109L10.3773 11.159C9.97333 10.759 9.26733 11.159 9.36933 11.763L14.9193 33.8629L25.5192 40.0908L24.4072 23.0129V23.0109Z"></path>
<path fill="#FAB418" d="M24.6086 67.9147C24.4086 68.5187 23.5986 68.4167 23.4986 67.8147L15.0187 33.8609L1.49474 25.925C0.990744 25.625 0.384748 26.125 0.586746 26.729L24.1046 79.5686C24.3046 80.0686 25.1126 79.9686 25.2146 79.4686L30.3626 52.3448L30.2626 52.4448L24.6086 67.9147Z"></path>
<path fill="#DE0732" d="M24.6085 67.9146L30.4625 52.4447L27.8385 56.7647C27.5365 57.2667 26.7285 57.0647 26.7285 56.4647L25.6185 40.0888L15.0186 33.8609L23.4985 67.8146C23.5985 68.4166 24.4065 68.5186 24.6085 67.9146Z"></path>
<path fill="#FF6600" d="M42.9788 23.3129L23.801 0.207049C23.499 -0.192949 22.793 0.107049 22.793 0.609046L24.407 23.0109L34.0969 31.3508C36.0149 32.9568 36.7209 35.6688 35.8129 38.0808L30.4629 52.1427V52.3427L43.5828 30.2428C44.8968 28.1349 44.5948 25.3229 42.9788 23.3129Z"></path>
<path fill="#DE0733" d="M28.3432 41.7967C30.5632 43.1027 31.6752 45.6147 31.2712 48.1247L30.4632 52.2447L35.8131 38.1808C36.7211 35.7688 36.0131 33.1568 34.0972 31.4488L24.4072 23.1129L25.6192 40.1887L28.3432 41.7967Z"></path>
<path fill="#CC1D46" d="M28.3426 41.7969L25.5166 40.0889L26.6266 56.4628C26.6266 57.0668 27.4346 57.2668 27.7386 56.7628L30.2606 52.4448L30.3606 52.1448L31.1686 48.0248C31.7746 45.6148 30.5646 43.1028 28.3426 41.7969Z"></path>
</svg>
