<svg xmlns="http://www.w3.org/2000/svg" fill="none" viewBox="0 0 124 80" height="80" width="124">
<g clip-path="url(#clip0_2997_241)">
<path fill="black" d="M30.7683 70.1873C31.3908 69.9329 31.9559 69.5558 32.4296 69.0785L91.6991 9.77725C92.6404 8.81215 93.1671 7.51744 93.1671 6.1694C93.1671 4.82134 92.6404 3.52665 91.6991 2.56155C91.2247 2.0833 90.6601 1.7037 90.0381 1.44466C89.4163 1.18562 88.7493 1.05225 88.0755 1.05225C87.4017 1.05225 86.7348 1.18562 86.1127 1.44466C85.491 1.7037 84.9264 2.0833 84.452 2.56155L28.7744 58.2075L9.64806 39.0811C9.17353 38.6028 8.60906 38.2233 7.98712 37.9643C7.36519 37.7053 6.69815 37.5718 6.02445 37.5718C5.35072 37.5718 4.68368 37.7053 4.06177 37.9643C3.43984 38.2233 2.87535 38.6028 2.40084 39.0811C1.91969 39.5509 1.53734 40.1119 1.27628 40.7315C1.01522 41.351 0.880737 42.0166 0.880737 42.6889C0.880737 43.3615 1.01522 44.027 1.27628 44.6466C1.53734 45.2662 1.91969 45.8271 2.40084 46.2969L25.2138 69.0785C25.6848 69.5504 26.2448 69.9247 26.8614 70.1788C27.4781 70.4331 28.139 70.5622 28.806 70.5593C29.4783 70.5683 30.1458 70.4419 30.7683 70.1873Z"></path>
<path fill="black" d="M73.7262 50.9967C74.5427 51.5363 75.5015 51.8198 76.48 51.8111C77.1338 51.8196 77.7821 51.6924 78.3842 51.4373C78.9862 51.1825 79.5287 50.8054 79.9776 50.33L116.34 13.9365C116.802 13.4821 117.169 12.9401 117.419 12.3421C117.67 11.7444 117.799 11.1027 117.799 10.4547C117.799 9.80653 117.67 9.16485 117.419 8.56708C117.169 7.9693 116.802 7.42739 116.34 6.97287C115.886 6.51558 115.346 6.15264 114.751 5.90496C114.156 5.65727 113.518 5.52979 112.874 5.52979C112.229 5.52979 111.591 5.65727 110.996 5.90496C110.401 6.15264 109.862 6.51558 109.408 6.97287L72.9823 43.3979C72.2862 44.0856 71.8108 44.9654 71.6175 45.9246C71.4242 46.8839 71.5217 47.8792 71.8971 48.7827C72.2728 49.6863 72.9096 50.4572 73.7262 50.9967Z"></path>
<path fill="black" d="M106.824 77.2078L121.129 62.9024C121.593 62.4501 121.963 61.9098 122.216 61.3131C122.469 60.7164 122.601 60.0754 122.604 59.4271C122.607 58.7791 122.481 58.1369 122.233 57.538C121.985 56.9391 121.621 56.3954 121.161 55.9388C120.704 55.4806 120.161 55.1169 119.564 54.8689C118.966 54.6208 118.326 54.4932 117.679 54.4932C117.032 54.4932 116.391 54.6208 115.794 54.8689C115.196 55.1169 114.654 55.4806 114.197 55.9388L99.8602 70.2128C98.9403 71.1444 98.4246 72.401 98.4246 73.7102C98.4246 75.0196 98.9403 76.276 99.8602 77.2078C100.31 77.6779 100.851 78.0516 101.449 78.3071C102.047 78.5627 102.691 78.6943 103.342 78.6943C103.993 78.6943 104.637 78.5627 105.235 78.3071C105.833 78.0516 106.374 77.6779 106.824 77.2078Z"></path>
<path fill="black" d="M93.4006 63.7532L121.129 36.0249C122.052 35.1013 122.571 33.8488 122.571 32.543C122.571 31.237 122.052 29.9845 121.129 29.0612C120.206 28.1377 118.953 27.619 117.647 27.619C116.341 27.619 115.089 28.1377 114.166 29.0612L86.4056 56.8526C85.4993 57.7722 84.9911 59.0116 84.9911 60.303C84.9911 61.5942 85.4993 62.8336 86.4056 63.7532C86.8608 64.2228 87.4037 64.5977 88.0039 64.8574C88.604 65.1169 89.2493 65.2555 89.9032 65.2657C90.5568 65.2555 91.2021 65.1169 91.8023 64.8574C92.4024 64.5977 92.9456 64.2228 93.4006 63.7532Z"></path>
</g>
<defs>
<clipPath id="clip0_2997_241">
<rect transform="translate(0.470215)" fill="white" height="80" width="122.857"></rect>
</clipPath>
</defs>
</svg>
