<svg xmlns="http://www.w3.org/2000/svg" fill="none" viewBox="0 0 95 80" height="80" width="95">
<g clip-path="url(#clip0_3329_1059)">
<path fill="#2378BC" d="M94.303 40.0267C93.0763 42.1067 91.843 44.16 90.6363 46.24C89.6363 47.94 88.6897 49.66 87.703 51.36C87.0097 52.5533 86.2897 53.72 85.5897 54.9067L82.963 59.36C81.543 61.8067 80.1363 64.2667 78.7097 66.7067C77.5297 68.7267 76.323 70.74 75.1497 72.76C73.8316 75.0073 72.5315 77.2652 71.2497 79.5333C71.0363 79.9067 70.803 79.9933 70.4097 79.9933C67.183 79.98 63.9563 79.9867 60.723 79.9867C48.8097 79.9867 36.8897 79.98 24.9763 80C24.3897 80 24.0963 79.8 23.8163 79.32C22.7297 77.4133 21.5963 75.5333 20.483 73.64L18.483 70.1733C17.4097 68.3067 16.3297 66.4533 15.243 64.5933L12.7297 60.2867C12.1297 59.26 11.543 58.22 10.9363 57.2C9.78965 55.2533 8.62298 53.3267 7.48965 51.38C6.48965 49.6533 5.52298 47.9133 4.52965 46.1867C3.84965 45.0133 3.13632 43.86 2.45632 42.6933C1.98965 41.8933 1.54298 41.0933 1.06298 40.2933C0.916318 40.06 0.969651 39.8733 1.08965 39.6733L3.06298 36.26L4.90965 33.14L7.06298 29.4733C7.88298 28.0733 8.72298 26.6867 9.52965 25.2867C10.3497 23.8867 11.1497 22.4867 11.963 21.08C12.9297 19.4133 13.8963 17.7467 14.8763 16.08L17.443 11.7333L20.043 7.26667C21.3363 5.03333 22.643 2.8 23.9097 0.546667C24.123 0.153333 24.3697 0 24.823 0C29.323 0.0133333 33.823 0.013334 38.323 0.013334H70.5097C70.843 -0.0199994 71.043 0.106666 71.203 0.4C71.803 1.48 72.423 2.54667 73.043 3.60667C73.603 4.56667 74.1763 5.51333 74.743 6.47333C75.5897 7.9 76.443 9.32667 77.2763 10.76C78.203 12.3333 79.1163 13.9133 80.0297 15.4933C80.903 17.0067 81.763 18.52 82.6497 20.0267C83.4763 21.44 84.3163 22.8533 85.1563 24.2667L87.8297 28.8333L91.2963 34.8667C91.8163 35.7733 92.363 36.6667 92.8963 37.5733L94.2963 40.0333H94.303V40.0267ZM24.1497 39.94V57.4267C24.1497 58.2467 24.2163 59.0533 24.503 59.8533C25.1497 61.7 26.4163 62.92 28.183 63.6933C29.0423 64.0173 29.9592 64.1603 30.8763 64.1133H64.243C65.483 64.1133 66.6697 63.96 67.7763 63.32C68.7323 62.8122 69.5379 62.0621 70.1124 61.1447C70.6869 60.2273 71.0102 59.175 71.0497 58.0933C71.0697 57.7867 71.063 57.4733 71.063 57.1667V29.48V25.8333C71.063 25.58 71.0097 25.3667 70.8163 25.18C70.283 24.6667 69.7763 24.1133 69.243 23.6067C67.9763 22.3667 66.6897 21.1533 65.4163 19.9133C64.8297 19.34 64.2563 18.7467 63.6697 18.1667C63.0697 17.5667 62.4563 16.9933 61.8697 16.38C61.727 16.2084 61.5473 16.0713 61.3441 15.9789C61.1409 15.8865 60.9195 15.8413 60.6963 15.8467C50.783 15.86 40.863 15.86 30.9497 15.86C29.5497 15.86 28.2297 16.14 27.0497 16.9133C26.0959 17.5172 25.323 18.3674 24.8125 19.3743C24.3021 20.3811 24.073 21.5071 24.1497 22.6333V39.94Z"></path>
<path fill="#FAFDFE" d="M24.1497 39.9335V22.6402C24.0718 21.5129 24.3002 20.3855 24.8107 19.3773C25.3213 18.3692 26.0949 17.5179 27.0497 16.9135C28.2297 16.1469 29.5497 15.8669 30.9497 15.8669C40.863 15.8669 50.783 15.8668 60.6963 15.8535C61.2163 15.8535 61.543 16.0469 61.8697 16.3869C62.4563 17.0002 63.0697 17.5802 63.6697 18.1735C64.2563 18.7535 64.8297 19.3468 65.4163 19.9202C66.683 21.1602 67.9697 22.3735 69.243 23.6135C69.7763 24.1268 70.2763 24.6735 70.8097 25.1868C71.0097 25.3735 71.063 25.5868 71.063 25.8402V57.1668C71.063 57.4735 71.063 57.7869 71.0497 58.1002C71.0115 59.183 70.6881 60.2366 70.1122 61.1544C69.5362 62.0721 68.7281 62.8216 67.7697 63.3268C66.6867 63.9026 65.468 64.1745 64.243 64.1135H30.8763C29.9592 64.1609 29.0422 64.0179 28.183 63.6935C27.3279 63.3585 26.5558 62.8416 25.9204 62.1785C25.2849 61.5155 24.8013 60.7221 24.503 59.8535C24.2492 59.0703 24.1298 58.2499 24.1497 57.4269V39.9402V39.9335ZM59.8163 19.2935H31.1563C30.823 19.2935 30.4897 19.2735 30.1563 19.3269C29.7344 19.372 29.3278 19.5102 28.9658 19.7316C28.6038 19.9529 28.2954 20.2519 28.063 20.6069C27.729 21.2008 27.5804 21.8811 27.6363 22.5602V57.4269C27.6363 57.7069 27.6297 58.0002 27.663 58.2868C27.7242 58.8429 27.9596 59.3654 28.3355 59.7797C28.7115 60.194 29.2088 60.4788 29.7563 60.5935C30.243 60.6868 30.743 60.7202 31.243 60.7202C41.9963 60.7268 52.743 60.7268 63.4897 60.7202C64.0297 60.7202 64.5697 60.6735 65.1097 60.6335C66.163 60.5535 66.8497 59.9669 67.3163 59.0602C67.5963 58.5269 67.583 57.9535 67.583 57.3735V37.2269V27.8935C67.583 27.6535 67.5497 27.4135 67.523 27.1135H59.8163V19.2935Z"></path>
<path fill="#2478BD" d="M59.8162 19.293V27.1196H67.5296C67.5496 27.4196 67.5829 27.653 67.5829 27.893V57.3796C67.5829 57.953 67.5962 58.533 67.3162 59.0663C66.8496 59.973 66.1696 60.5596 65.1162 60.6396C64.5696 60.673 64.0362 60.7263 63.4962 60.7263H31.2429C30.7496 60.7263 30.2429 60.693 29.7562 60.5996C29.2072 60.4855 28.7087 60.2 28.3325 59.7842C27.9562 59.3684 27.7218 58.8439 27.6629 58.2863C27.6362 58.0063 27.6362 57.713 27.6362 57.4263V22.5596C27.6362 21.8796 27.6762 21.2263 28.0696 20.613C28.3027 20.2586 28.6112 19.9602 28.9731 19.7389C29.335 19.5176 29.7412 19.379 30.1629 19.333C30.4962 19.2796 30.8296 19.2996 31.1629 19.2996L59.8162 19.293ZM37.1496 49.4596C37.2096 50.2596 37.2362 51.0596 37.3362 51.8596C37.4429 52.6863 37.6496 53.493 38.0496 54.2596C38.2893 54.7521 38.6376 55.1838 39.0683 55.5222C39.4991 55.8605 40.001 56.0967 40.5362 56.213C41.2496 56.373 41.9696 56.3796 42.7029 56.2996C43.5005 56.2508 44.2661 55.968 44.904 55.4867C45.5419 55.0053 46.0238 54.3466 46.2896 53.593C46.6229 52.7463 46.7896 51.8596 46.8896 50.9663C47.1362 48.833 47.0096 46.7463 46.2896 44.6996C46.1343 44.2618 45.8892 43.8613 45.57 43.5238C45.2509 43.1863 44.8647 42.9192 44.4362 42.7396C43.2318 42.2026 41.8716 42.129 40.6162 42.533C39.0762 42.9996 38.2162 44.093 37.7296 45.5063C37.327 46.7848 37.1312 48.1194 37.1496 49.4596ZM58.1029 30.533C58.0162 29.7396 57.9096 28.9463 57.8362 28.153C57.7672 26.998 57.3487 25.8913 56.6362 24.9796C56.3038 24.559 55.8671 24.2326 55.3696 24.033C54.5779 23.7096 53.7225 23.5728 52.8696 23.633C52.1951 23.6489 51.5334 23.821 50.9366 24.1356C50.3397 24.4502 49.8239 24.8988 49.4296 25.4463C48.7904 26.4123 48.4178 27.53 48.3496 28.6863C48.1362 30.673 48.1296 32.6663 48.6829 34.6196C48.9229 35.473 49.2829 36.233 50.0029 36.7796C51.3362 37.813 52.8829 37.873 54.4429 37.513C56.0296 37.153 56.9562 36.0463 57.4562 34.5463C57.8573 33.2474 58.0749 31.8921 58.1029 30.533ZM57.3162 56.0996C57.573 55.7052 57.686 55.2343 57.6362 54.7663C57.6029 54.233 57.4296 54.0596 56.9029 54.0463C56.5296 54.033 56.1496 54.0463 55.7762 54.0396C55.5096 54.033 55.2496 53.9996 54.9096 53.9796V42.5596C54.4296 42.513 54.0162 42.4396 53.6029 42.433C53.0198 42.4043 52.4435 42.5683 51.9629 42.8996C51.3962 43.3063 50.7829 43.653 50.1962 44.033C49.9296 44.1996 49.6696 44.3663 49.4362 44.5596C49.3162 44.653 49.2029 44.8196 49.1962 44.9596C49.1721 45.3481 49.1698 45.7376 49.1896 46.1263C49.1896 46.393 49.3696 46.4863 49.6162 46.453C49.8015 46.429 49.9817 46.3749 50.1496 46.293C50.6362 46.0263 51.1096 45.7263 51.5896 45.453C51.7429 45.3596 51.9229 45.3196 52.0962 45.253C52.2229 46.1863 52.1762 53.5396 52.0296 54.0463H51.4429C50.9029 54.0463 50.3629 54.033 49.8162 54.0463C49.3696 54.0663 49.2162 54.213 49.1896 54.6463C49.1762 54.873 49.1896 55.0996 49.1896 55.3263C49.1896 55.913 49.3696 56.1596 50.0429 56.153C52.2696 56.1196 54.5029 56.1396 56.7296 56.1396C56.9296 56.1396 57.1362 56.1196 57.3162 56.1063V56.0996ZM43.9029 35.3663V23.8663C43.2362 23.8863 42.6629 23.6863 42.0562 23.813C41.7896 23.8663 41.5029 23.893 41.2896 24.0263C40.3762 24.5863 39.4762 25.173 38.5962 25.7796C38.4279 25.894 38.3052 26.0639 38.2496 26.2596C38.1018 26.7975 38.1539 27.3706 38.3962 27.873C38.6429 27.793 38.8829 27.7396 39.0962 27.633C39.6296 27.3596 40.1429 27.053 40.6696 26.7663C40.8029 26.6996 40.9562 26.6663 41.1429 26.5996V34.8996C41.1362 35.313 41.0829 35.3663 40.6762 35.3796C40.2229 35.393 39.7629 35.3796 39.3029 35.3796C38.2896 35.3796 38.1696 35.4996 38.2229 36.533C38.2229 36.593 38.2229 36.653 38.2362 36.7196C38.3162 37.4196 38.3762 37.4796 39.0762 37.4796H46.0096C46.2562 37.4796 46.4296 37.3663 46.4562 37.133C46.5166 36.7897 46.5434 36.4414 46.5362 36.093C46.5029 35.493 46.3829 35.393 45.7696 35.3863H43.9029V35.3663Z"></path>
<path fill="#F9FCFE" d="M37.1429 49.4603C37.1696 48.1137 37.2762 46.7803 37.7229 45.507C38.2162 44.0937 39.0696 42.9937 40.6096 42.5337C41.9229 42.1337 43.2096 42.2003 44.4296 42.7403C45.2829 43.127 45.9629 43.7603 46.2896 44.7003C47.0029 46.747 47.1296 48.8337 46.8896 50.967C46.7896 51.867 46.6229 52.7537 46.2829 53.5937C46.0176 54.3463 45.5367 55.0043 44.9001 55.4856C44.2635 55.9669 43.4994 56.2502 42.7029 56.3003C41.9787 56.3926 41.2441 56.3633 40.5296 56.2137C39.9951 56.0953 39.4943 55.8575 39.0648 55.5181C38.6353 55.1786 38.2882 54.7464 38.0496 54.2537C37.6651 53.5043 37.4211 52.6909 37.3296 51.8537C37.2296 51.0603 37.1962 50.2537 37.1362 49.4537L37.1429 49.4603ZM44.2096 49.227C44.1162 48.2537 44.0496 47.247 43.8962 46.2537C43.8326 45.807 43.6635 45.3819 43.4029 45.0137C42.8762 44.3137 41.2962 44.227 40.7429 45.147C40.5711 45.447 40.4261 45.7615 40.3096 46.087C40.0896 46.6737 40.0696 47.287 40.0429 47.907C39.9629 49.4537 39.9229 50.987 40.2896 52.507C40.5562 53.647 41.0362 54.327 42.3896 54.167C42.6488 54.1524 42.8987 54.0653 43.1109 53.9156C43.323 53.7659 43.4889 53.5596 43.5896 53.3203C43.7472 52.9862 43.8572 52.6317 43.9162 52.267C44.0429 51.267 44.1162 50.267 44.2096 49.2337V49.227ZM58.1029 30.547C58.0771 31.9058 57.8617 33.2544 57.4629 34.5537C56.9629 36.0537 56.0362 37.1603 54.4429 37.527C52.8896 37.8803 51.3496 37.8203 50.0029 36.7937C49.3337 36.2387 48.8691 35.4762 48.6829 34.627C48.1915 32.6889 48.0806 30.674 48.3562 28.6937C48.4238 27.5373 48.7965 26.4194 49.4362 25.4537C49.8306 24.9062 50.3464 24.4576 50.9432 24.1429C51.5401 23.8283 52.2017 23.6563 52.8762 23.6403C53.7292 23.5813 54.5843 23.7181 55.3762 24.0403C55.8696 24.2403 56.2962 24.5537 56.6429 24.987C57.3896 25.9203 57.7496 26.987 57.8429 28.1603C57.9096 28.9603 58.0162 29.747 58.1096 30.5403L58.1029 30.547ZM51.0629 30.7537C51.0229 31.9337 51.0896 33.1737 51.4629 34.387C51.6429 34.9337 51.9696 35.367 52.5429 35.467C53.1829 35.587 53.8296 35.6003 54.3229 35.0337C54.7436 34.5215 54.9993 33.894 55.0562 33.2337C55.2841 31.5614 55.2841 29.8659 55.0562 28.1937C54.9932 27.6851 54.8492 27.19 54.6296 26.727C54.4629 26.407 54.1496 26.0403 53.8162 25.9403C52.8829 25.6403 51.8696 25.847 51.4696 27.0203C51.0696 28.207 51.0362 29.4403 51.0562 30.7537H51.0629Z"></path>
<path fill="#FAFCFE" d="M57.3232 56.1136C57.1499 56.1203 56.9432 56.147 56.7366 56.147C54.5099 56.147 52.2766 56.127 50.0499 56.1536C49.3832 56.167 49.1966 55.9136 49.1966 55.327C49.1966 55.1003 49.1832 54.8736 49.1966 54.647C49.2299 54.2203 49.3766 54.067 49.8299 54.0536C50.3632 54.0403 50.9099 54.0536 51.4499 54.0536H52.0366C52.1899 53.5536 52.2299 46.187 52.1032 45.2536C51.9232 45.3203 51.7499 45.367 51.5966 45.4536C51.1166 45.7336 50.6499 46.0336 50.1632 46.3003C49.9951 46.3803 49.8149 46.4321 49.6299 46.4536C49.3832 46.4936 49.2099 46.3936 49.1966 46.1336C49.1832 45.747 49.1699 45.3536 49.1966 44.9603C49.2099 44.8203 49.3299 44.6603 49.4432 44.5603C49.6832 44.3603 49.9432 44.2003 50.2032 44.0336C50.7899 43.6603 51.4032 43.3136 51.9766 42.9003C52.4564 42.5672 53.0333 42.403 53.6166 42.4336C54.0232 42.4403 54.4366 42.5136 54.9232 42.567V53.9936C55.2566 54.0136 55.5232 54.047 55.7899 54.0536C56.1566 54.0603 56.5366 54.0403 56.9099 54.0536C57.4366 54.0736 57.6032 54.247 57.6432 54.7736C57.6955 55.243 57.5849 55.7161 57.3299 56.1136H57.3232ZM43.9032 35.3803H45.7699C46.3832 35.387 46.5032 35.4803 46.5366 36.0936C46.5434 36.4398 46.5166 36.7859 46.4566 37.127C46.4232 37.3603 46.2566 37.4803 46.0099 37.4736H39.0766C38.3766 37.4736 38.3166 37.407 38.2366 36.7136C38.2273 36.6517 38.2206 36.5894 38.2166 36.527C38.1699 35.5003 38.2832 35.3803 39.3032 35.3803H40.6766C41.0766 35.3603 41.1366 35.3136 41.1432 34.8936V32.7336V26.6003C40.9566 26.667 40.8032 26.6936 40.6766 26.767C40.1432 27.047 39.6299 27.3536 39.0966 27.6336C38.8832 27.7403 38.6366 27.787 38.3966 27.867C38.1542 27.3646 38.1021 26.7914 38.2499 26.2536C38.3038 26.0589 38.4241 25.8891 38.5899 25.7736C39.4832 25.1736 40.3766 24.587 41.2899 24.0203C41.5032 23.887 41.7966 23.867 42.0566 23.8136C42.6566 23.6803 43.2366 23.8803 43.9032 23.867V35.3803Z"></path>
<path fill="#267ABE" d="M44.2097 49.227C44.1164 50.2603 44.0431 51.267 43.9164 52.2603C43.854 52.625 43.7418 52.9794 43.5831 53.3137C43.3697 53.827 42.9497 54.0937 42.3831 54.1603C41.0364 54.3203 40.5631 53.6403 40.2897 52.4937C39.9231 50.987 39.9564 49.447 40.0431 47.907C40.0697 47.287 40.0897 46.667 40.3097 46.087C40.427 45.7586 40.5742 45.4417 40.7497 45.1403C41.2964 44.2203 42.8831 44.307 43.4031 45.007C43.6628 45.3758 43.8318 45.8006 43.8964 46.247C44.0497 47.247 44.1164 48.247 44.2097 49.227ZM51.0631 30.7537C51.0364 29.4337 51.0631 28.207 51.4697 27.0203C51.8697 25.847 52.8831 25.6403 53.8231 25.9337C54.1497 26.0403 54.4631 26.4003 54.6231 26.7337C54.8443 27.1942 54.9906 27.687 55.0564 28.1937C55.2842 29.8659 55.2842 31.5614 55.0564 33.2337C55.0007 33.8943 54.7448 34.5222 54.3231 35.0337C53.8364 35.5937 53.1831 35.5803 52.5431 35.467C51.9697 35.3603 51.6431 34.9337 51.4764 34.387C51.1332 33.2082 50.9934 31.9795 51.0631 30.7537Z"></path>
</g>
<defs>
<clipPath id="clip0_3329_1059">
<rect transform="translate(0.969727)" fill="white" height="80" width="93.3333"></rect>
</clipPath>
</defs>
</svg>
