<svg xmlns="http://www.w3.org/2000/svg" fill="none" viewBox="0 0 91 80" height="80" width="91">
<g clip-path="url(#clip0_3329_1137)">
<path fill="#76BC2D" d="M54.5779 36.9676C54.5924 37.3197 54.4698 37.6637 54.2356 37.927C54.0015 38.1904 53.6743 38.3526 53.323 38.3794H42.3949C42.0428 38.394 41.6988 38.2713 41.4355 38.0372C41.1721 37.803 41.0099 37.4758 40.9831 37.1245V28.9676C40.9685 28.6155 41.0912 28.2716 41.3253 28.0082C41.5594 27.7448 41.8867 27.5827 42.238 27.5559H53.1661C53.5182 27.5413 53.8622 27.664 54.1255 27.8981C54.3889 28.1322 54.5511 28.4594 54.5779 28.8108V36.9676Z"></path>
<path fill="#76BC2D" d="M73.9763 45.2288C73.9909 45.5809 73.8682 45.9249 73.6341 46.1882C73.4 46.4516 73.0728 46.6138 72.7214 46.6406H61.7933C61.4412 46.6551 61.0973 46.5324 60.8339 46.2983C60.5705 46.0642 60.4083 45.737 60.3815 45.3857V37.2811C60.367 36.929 60.4897 36.585 60.7238 36.3217C60.9579 36.0583 61.2851 35.8961 61.6364 35.8693H72.5645C72.9166 35.8548 73.2606 35.9775 73.524 36.2116C73.7873 36.4457 73.9495 36.7729 73.9763 37.1242V45.2288Z"></path>
<path fill="#76BC2D" d="M54.5779 53.5955C54.5924 53.9476 54.4698 54.2916 54.2356 54.555C54.0015 54.8183 53.6743 54.9805 53.323 55.0073H42.3949C42.0428 55.0219 41.6988 54.8992 41.4355 54.6651C41.1721 54.431 41.0099 54.1038 40.9831 53.7524V45.5955C40.9685 45.2435 41.0912 44.8995 41.3253 44.6361C41.5594 44.3728 41.8867 44.2106 42.238 44.1838H53.1661C53.5182 44.1692 53.8622 44.2919 54.1255 44.526C54.3889 44.7601 54.5511 45.0873 54.5779 45.4387V53.5955Z"></path>
<path fill="#86D633" d="M35.179 28.7059C35.1936 29.0441 35.0764 29.3748 34.8521 29.6284C34.6278 29.8819 34.3138 30.0386 33.9763 30.0654H22.7345C22.3907 30.0808 22.0538 29.9653 21.7917 29.7421C21.5297 29.5189 21.3621 29.2047 21.3228 28.8627V20.3922C21.3346 20.0581 21.4692 19.7401 21.7007 19.499C21.9322 19.2579 22.2444 19.1105 22.5777 19.085H33.5058C34.6561 19.085 35.179 19.6601 35.179 20.4967V28.7059Z"></path>
<path fill="#76BC2D" d="M35.179 45.2293C35.1933 45.4011 35.1735 45.574 35.1207 45.7381C35.0679 45.9022 34.9832 46.0542 34.8714 46.1854C34.7597 46.3166 34.623 46.4244 34.4694 46.5026C34.3158 46.5808 34.1483 46.6279 33.9764 46.6411H22.7346C22.5472 46.6484 22.3604 46.617 22.1857 46.5486C22.0111 46.4803 21.8525 46.3765 21.72 46.2439C21.5874 46.1114 21.4836 45.9528 21.4153 45.7782C21.347 45.6035 21.3155 45.4167 21.3228 45.2293V36.9679C21.3218 36.6247 21.4506 36.2939 21.6833 36.0417C21.9161 35.7896 22.2356 35.6348 22.5777 35.6084H33.5058C34.6562 35.6084 35.179 36.1836 35.179 36.9679V45.2293Z"></path>
<path fill="#76BC2D" d="M35.1791 61.9086C35.1934 62.0803 35.1736 62.2532 35.1208 62.4173C35.068 62.5814 34.9833 62.7334 34.8715 62.8646C34.7597 62.9958 34.6231 63.1037 34.4695 63.1819C34.3159 63.2601 34.1483 63.3071 33.9765 63.3203H22.7346C22.3826 63.3349 22.0386 63.2122 21.7752 62.9781C21.5118 62.744 21.3497 62.4168 21.3229 62.0654V53.5948C21.3159 53.4231 21.3428 53.2517 21.4021 53.0905C21.4614 52.9292 21.5519 52.7812 21.6684 52.6549C21.785 52.5286 21.9253 52.4266 22.0813 52.3546C22.2374 52.2826 22.4061 52.2421 22.5778 52.2354H33.5059C34.6562 52.2354 35.1791 52.7582 35.1791 53.5948V61.9086Z"></path>
<path fill="#999999" d="M3.54507 0.836917H10.2902V19.6604C10.2902 20.0626 10.1304 20.4483 9.84604 20.7327C9.56167 21.017 9.17599 21.1768 8.77383 21.1768H2.08102C1.67886 21.1768 1.29317 21.017 1.0088 20.7327C0.724435 20.4483 0.564678 20.0626 0.564678 19.6604V3.97417C0.543365 3.56978 0.604682 3.1653 0.744889 2.7854C0.885095 2.40549 1.10125 2.05815 1.38016 1.76456C1.65906 1.47098 1.99488 1.23731 2.36709 1.07781C2.73931 0.918322 3.14012 0.836356 3.54507 0.836917Z"></path>
<path fill="#999999" d="M3.54507 0.836917H10.2902V19.6604C10.2902 20.0626 10.1304 20.4483 9.84604 20.7327C9.56167 21.017 9.17599 21.1768 8.77383 21.1768H2.08102C1.67886 21.1768 1.29317 21.017 1.0088 20.7327C0.724435 20.4483 0.564678 20.0626 0.564678 19.6604V3.97417C0.543365 3.56978 0.604682 3.1653 0.744889 2.7854C0.885095 2.40549 1.10125 2.05815 1.38016 1.76456C1.65906 1.47098 1.99488 1.23731 2.36709 1.07781C2.73931 0.918322 3.14012 0.836356 3.54507 0.836917Z" opacity="0.5"></path>
<path fill="#999999" d="M79.7281 0.836914H86.4732C87.2636 0.836914 88.0217 1.15092 88.5806 1.70985C89.1396 2.26878 89.4536 3.02686 89.4536 3.81731V19.5036C89.4536 19.9057 89.2938 20.2914 89.0094 20.5758C88.7251 20.8602 88.3394 21.0199 87.9372 21.0199H81.1921C80.79 21.0199 80.4043 20.8602 80.1199 20.5758C79.8355 20.2914 79.6758 19.9057 79.6758 19.5036V0.836914H79.7281Z"></path>
<path fill="#999999" d="M79.7281 0.836914H86.4732C87.2636 0.836914 88.0217 1.15092 88.5806 1.70985C89.1396 2.26878 89.4536 3.02686 89.4536 3.81731V19.5036C89.4536 19.9057 89.2938 20.2914 89.0094 20.5758C88.7251 20.8602 88.3394 21.0199 87.9372 21.0199H81.1921C80.79 21.0199 80.4043 20.8602 80.1199 20.5758C79.8355 20.2914 79.6758 19.9057 79.6758 19.5036V0.836914H79.7281Z" opacity="0.5"></path>
<path fill="#949494" d="M89.4536 3.8173V10.3533L0.564722 10.3533V3.8173C0.564722 3.02686 0.878722 2.26878 1.43765 1.70985C1.99659 1.15092 2.75466 0.836914 3.54511 0.836914L86.5255 0.836914C87.3069 0.850624 88.0516 1.17067 88.5992 1.72812C89.1469 2.28558 89.4537 3.03583 89.4536 3.8173Z"></path>
<path fill="#999999" d="M2.08079 59.6603H8.82589C9.22805 59.6603 9.61374 59.8201 9.89811 60.1045C10.1825 60.3888 10.3422 60.7745 10.3422 61.1767V80.0002H3.54485C2.7544 80.0002 1.99632 79.6862 1.43739 79.1273C0.878458 78.5683 0.564453 77.8102 0.564453 77.0198V60.9152C0.626611 60.5599 0.813425 60.2383 1.09135 60.0083C1.36927 59.7783 1.72008 59.6549 2.08079 59.6603Z"></path>
<path fill="#999999" d="M2.08079 59.6603H8.82589C9.22805 59.6603 9.61374 59.8201 9.89811 60.1045C10.1825 60.3888 10.3422 60.7745 10.3422 61.1767V80.0002H3.54485C2.7544 80.0002 1.99632 79.6862 1.43739 79.1273C0.878458 78.5683 0.564453 77.8102 0.564453 77.0198V60.9152C0.626611 60.5599 0.813425 60.2383 1.09135 60.0083C1.36927 59.7783 1.72008 59.6549 2.08079 59.6603Z" opacity="0.5"></path>
<path fill="#999999" d="M81.1921 59.6602H87.9372C88.3393 59.6602 88.725 59.8199 89.0094 60.1043C89.2938 60.3887 89.4535 60.7743 89.4535 61.1765V76.8628C89.4535 77.6532 89.1395 78.4113 88.5806 78.9702C88.0217 79.5292 87.2636 79.8432 86.4731 79.8432H79.728V60.9151C79.7886 60.5685 79.9678 60.2539 80.2349 60.0249C80.502 59.796 80.8404 59.667 81.1921 59.6602Z"></path>
<path fill="#999999" d="M81.1921 59.6602H87.9372C88.3393 59.6602 88.725 59.8199 89.0094 60.1043C89.2938 60.3887 89.4535 60.7743 89.4535 61.1765V76.8628C89.4535 77.6532 89.1395 78.4113 88.5806 78.9702C88.0217 79.5292 87.2636 79.8432 86.4731 79.8432H79.728V60.9151C79.7886 60.5685 79.9678 60.2539 80.2349 60.0249C80.502 59.796 80.8404 59.667 81.1921 59.6602Z" opacity="0.5"></path>
<path fill="#949494" d="M0.564453 77.0196L0.564453 70.4837H89.4533V77.0196C89.4533 77.8101 89.1393 78.5681 88.5804 79.1271C88.0215 79.686 87.2634 80 86.473 80H3.54485C2.7544 80 1.99632 79.686 1.43739 79.1271C0.878459 78.5681 0.564453 77.8101 0.564453 77.0196Z"></path>
</g>
<defs>
<clipPath id="clip0_3329_1137">
<rect transform="translate(0.303223)" fill="white" height="80" width="90"></rect>
</clipPath>
</defs>
</svg>
