<svg xmlns="http://www.w3.org/2000/svg" fill="none" viewBox="0 0 81 80" height="80" width="81">
<g clip-path="url(#clip0_3329_1097)">
<path fill="#50E6FF" d="M50.0343 79.1576L4.60739 58.7132C2.94297 57.9575 1.64491 56.5742 0.996355 54.8652C0.347801 53.1562 0.401378 51.26 1.1454 49.5904L21.5898 4.30382C21.9628 3.45029 22.5042 2.68079 23.1815 2.04138C23.8589 1.40198 24.6582 0.905813 25.5318 0.582587C26.4054 0.259362 27.3352 0.115722 28.2656 0.160266C29.196 0.20481 30.1079 0.436623 30.9466 0.841828L75.9992 21.2863C76.8527 21.6593 77.6222 22.2006 78.2616 22.8779C78.901 23.5553 79.3972 24.3547 79.7204 25.2283C80.0437 26.1018 80.1873 27.0317 80.1428 27.9621C80.0982 28.8924 79.8664 29.8043 79.4612 30.643L59.0167 75.6956C58.261 77.3251 56.9016 78.5971 55.2256 79.243C53.5496 79.889 51.6881 79.8584 50.0343 79.1576Z"></path>
<path fill="url(#paint0_linear_3329_1097)" d="M65.0986 71.8599H15.2741C13.4415 71.8477 11.6875 71.1142 10.3916 69.8184C9.09578 68.5225 8.36236 66.7685 8.3501 64.9359V15.0646C8.36236 13.232 9.09578 11.478 10.3916 10.1822C11.6875 8.88631 13.4415 8.15288 15.2741 8.14062H65.0986C66.935 8.14063 68.6961 8.87011 69.9946 10.1686C71.2931 11.4671 72.0226 13.2282 72.0226 15.0646V64.9359C72.0226 66.7723 71.2931 68.5334 69.9946 69.8319C68.6961 71.1304 66.935 71.8599 65.0986 71.8599Z"></path>
<path fill="#F2F2F2" d="M39.0399 44.2108H31.5078C31.4382 44.2366 31.3631 44.2437 31.29 44.2312C31.2169 44.2187 31.1484 44.1871 31.0914 44.1396C31.0345 44.0921 30.991 44.0304 30.9656 43.9608C30.9401 43.8911 30.9335 43.816 30.9464 43.743L40.3031 23.5792C40.3693 23.5495 40.441 23.5342 40.5136 23.5342C40.5862 23.5342 40.6579 23.5495 40.7241 23.5792H49.5662C49.6779 23.5792 49.785 23.6236 49.864 23.7025C49.9429 23.7815 49.9873 23.8886 49.9873 24.0003L39.1803 39.6728H49.6598C49.7715 39.6728 49.8786 39.7171 49.9575 39.7961C50.0365 39.8751 50.0809 39.9822 50.0809 40.0938C50.1011 40.1863 50.1011 40.2821 50.0809 40.3745L32.6773 60.3979C32.6773 60.3979 31.3674 61.5675 31.9288 59.9301L39.0399 44.2108Z"></path>
</g>
<defs>
<linearGradient gradientUnits="userSpaceOnUse" y2="8.14063" x2="40.2097" y1="71.8599" x1="40.2097" id="paint0_linear_3329_1097">
<stop stop-color="#1988D9"></stop>
<stop stop-color="#54AEF0" offset="0.9"></stop>
</linearGradient>
<clipPath id="clip0_3329_1097">
<rect transform="translate(0.303223)" fill="white" height="80" width="80"></rect>
</clipPath>
</defs>
</svg>
