<svg xmlns="http://www.w3.org/2000/svg" fill="none" viewBox="0 0 81 80" height="80" width="81">
<g clip-path="url(#clip0_3329_1404)">
<path fill="#333E48" d="M80.8281 39.9989C80.8281 17.9376 62.8837 0 40.8293 0C18.7748 0 0.828125 17.9376 0.828125 39.9989C0.828125 60.8406 16.8509 78.0077 37.2253 79.8336H37.3234C37.6577 79.8625 37.9928 79.8875 38.3286 79.9088L38.5224 79.9202C38.8263 79.9385 39.1348 79.9521 39.4479 79.9612H39.6918C40.0702 79.9612 40.4486 79.9795 40.8315 79.9795C41.2145 79.9795 41.5542 79.9795 41.9143 79.9635H42.067C42.3847 79.9544 42.7008 79.9415 43.0153 79.9248H43.0792C43.7889 79.8853 44.494 79.8268 45.1946 79.7493C65.202 77.5791 80.8281 60.5807 80.8281 39.9989ZM45.0578 75.9424L44.6725 64.8799L54.3332 58.9531C56.5939 60.5027 59.5331 60.6518 61.939 59.3391C64.345 58.0265 65.8103 55.4742 65.7308 52.7346C65.576 48.8978 62.5011 45.8229 58.6643 45.668C56.4905 45.5901 54.3969 46.4936 52.9624 48.1287C51.528 49.7638 50.9047 51.9572 51.2649 54.1023L44.4469 58.3194L43.9522 44.3801L53.4601 38.565C56.8003 41.0594 61.4507 40.7888 64.479 37.9238C67.5073 35.0589 68.035 30.4305 65.7295 26.9574C63.4239 23.4842 58.9538 22.1736 55.1378 23.852C51.3219 25.5304 49.2669 29.7109 50.2688 33.7575L43.7243 37.8196L43.3367 26.6955C46.4506 25.4915 48.4517 22.438 48.313 19.1024C48.1508 15.213 45.1429 12.0401 41.2676 11.6707C37.3924 11.3013 33.8391 13.8488 32.9451 17.6376C32.0511 21.4263 34.0907 25.2936 37.7223 26.6955L37.0156 49.7438L29.8921 45.2053C30.3674 43.2631 30.1405 41.2154 29.2515 39.4244C27.8268 36.461 24.9546 34.3593 21.679 34.1542C17.6279 33.8897 13.8984 36.3616 12.5636 40.1956C11.2289 44.0296 12.6171 48.2831 15.9566 50.5915C19.2961 52.9 23.7657 52.6959 26.8808 50.0926L36.8105 56.375L36.2132 75.8991C18.4329 73.631 4.62354 58.3969 4.62354 39.9989C4.63721 20.0439 20.872 3.80453 40.8293 3.80453C60.7865 3.80453 77.0213 20.0393 77.0213 39.9966C77.0213 58.5246 63.0273 73.8407 45.0578 75.9424Z"></path>
<path fill="#009BDE" d="M40.6009 14.7386C43.2018 14.7412 45.3097 16.849 45.3122 19.45C45.3122 22.052 43.2029 24.1614 40.6009 24.1614C37.9988 24.1614 35.8895 22.052 35.8895 19.45C35.8895 16.848 37.9988 14.7386 40.6009 14.7386ZM58.3622 48.6886C60.7217 48.6874 62.6375 50.5951 62.6463 52.9546C62.6509 54.685 61.6124 56.2477 60.0153 56.9137C58.4182 57.5797 56.5772 57.2178 55.351 55.9968C54.1248 54.7759 53.7551 52.9364 54.4143 51.3364C55.0735 49.7365 56.6318 48.6914 58.3622 48.6886ZM60.9986 36.2796C58.4993 37.494 55.4886 36.4559 54.269 33.9591C53.377 32.1287 53.6755 29.9411 55.0253 28.4166C56.3751 26.8921 58.5104 26.3308 60.4353 26.9946C62.3603 27.6584 63.6959 29.4164 63.8192 31.4489C63.9425 33.4814 62.8292 35.388 60.9986 36.2796ZM20.9406 37.6796C23.9382 37.6821 26.3677 40.1115 26.3702 43.1091C26.3689 46.1059 23.9389 48.5345 20.9421 48.5341C17.9453 48.5337 15.516 46.1044 15.5156 43.1076C15.5152 40.1108 17.9438 37.6808 20.9406 37.6796Z"></path>
</g>
<defs>
<clipPath id="clip0_3329_1404">
<rect transform="translate(0.828125)" fill="white" height="80" width="80"></rect>
</clipPath>
</defs>
</svg>
