<svg xmlns="http://www.w3.org/2000/svg" fill="none" viewBox="0 0 81 80" height="80" width="81">
<path fill="#84A7FF" d="M78.8597 2.10291H3.07617V77.8974H78.8597V2.10291Z"></path>
<path fill="#173647" d="M76.7562 4.20636V75.7945H5.17902V4.20636H76.7562ZM80.9625 0H0.972656V80H80.9625V0Z"></path>
<path fill="#173647" d="M41.8442 51.1041C43.5072 51.1041 44.8553 49.756 44.8553 48.0929C44.8553 46.4299 43.5072 45.0818 41.8442 45.0818C40.1812 45.0818 38.833 46.4299 38.833 48.0929C38.833 49.756 40.1812 51.1041 41.8442 51.1041Z"></path>
<path fill="#173647" d="M40.2478 28.5288H41.8996C53.0236 28.544 60.8753 35.8575 61.8263 45.836C62.9179 57.2826 54.4319 67.6048 42.271 67.5071C29.2316 67.5071 21.8204 58.3161 21.8086 47.7219V36.7756H30.1464L30.1236 16.9971L25.7151 19.2031V32.6804H21.9375V16.4412L30.8631 11.2738L33.876 13.0316L33.9004 36.7739H41.08C49.6831 36.7116 53.1221 42.3641 53.1988 48.1902C53.3024 56.0495 44.9259 61.8402 36.5502 57.9101C32.8619 56.1801 30.0352 51.8508 30.0352 47.7766V47.7194L30.0251 40.6408H25.4481V47.0177C25.2409 54.7044 30.9987 62.7617 40.7195 63.5753C50.474 64.3924 58.0554 57.4317 58.0554 47.8794C58.0554 38.856 51.7467 32.5751 42.7233 32.5751H40.247M33.9417 40.6408V47.7177C33.9408 52.186 37.6654 55.6335 42.1337 55.6351C46.602 55.636 49.5795 51.9123 49.4759 48.293C49.4767 43.8247 46.1194 40.6417 41.6519 40.6408H33.9425H33.9417Z"></path>
</svg>
