<svg xmlns="http://www.w3.org/2000/svg" fill="none" viewBox="0 0 68 80" height="80" width="68">
<path fill="#23A7DE" d="M55.5776 9.19663C55.1061 8.05488 54.3916 7.08991 53.6403 6.41223C52.83 5.77137 52.1118 5.25574 51.4194 4.81746C50.8964 4.48598 50.3844 4.1987 49.8614 3.93352C45.1324 1.42535 39.7477 0 34.0205 0C17.5314 0 3.79725 11.7711 0.743981 27.3652C0.261498 29.645 0 32.0096 0 34.4367C0 38.3224 0.662953 42.0533 1.86732 45.5264C3.12693 49.1653 3.81198 50.9295 6.1581 53.887C6.5264 54.2958 6.97942 54.6789 7.484 55.003C8.05119 55.3676 8.68837 55.6549 9.355 55.828C9.6165 55.8943 9.88168 55.9532 10.1542 55.9827C11.7895 56.3989 13.6789 56.281 15.5683 55.1356C19.2993 52.8742 21.767 46.1121 21.3802 43.3461C21.0046 40.5469 19.6492 38.8859 17.885 38.687C16.2571 38.5028 14.6107 39.8656 13.1633 36.4661C9.60177 28.0945 25.9251 10.9571 36.3961 13.2333C39.5267 13.9146 38.4329 16.3234 38.617 17.955C38.8159 19.7192 40.477 21.0745 43.2761 21.4502C46.0421 21.8369 52.8042 19.3693 55.0656 15.6383C56.4652 13.3401 56.34 11.0382 55.5776 9.19663Z"></path>
<path fill="#033B4C" d="M60.7922 14.8245C60.4938 15.9994 60.0335 17.1485 59.3668 18.246C57.9709 20.548 55.6874 22.3895 53.205 23.7559C54.8956 26.835 55.8605 30.367 55.8605 34.1238C55.8605 46.0459 46.163 55.7434 34.2409 55.7434C30.4694 55.7434 26.9226 54.7711 23.8325 53.0658C22.4035 55.6881 20.4699 58.049 18.179 59.4375C16.9968 60.1557 15.7592 60.6529 14.4775 60.9439C18.3779 63.8167 22.9118 65.8682 27.8434 66.811C29.8544 67.1941 31.9279 67.3598 34.0494 67.3929C42.8519 67.5439 39.5556 80.0001 39.5556 80.0001C58.8659 68.2069 67.1492 48.7676 67.1492 34.2932C67.1492 27.0154 64.7846 20.2901 60.7922 14.8245Z"></path>
</svg>
