<svg xmlns="http://www.w3.org/2000/svg" fill="none" viewBox="0 0 78 80" height="80" width="78">
<path fill="#FE8A3A" d="M47.1201 32.7429V49.4208C47.1201 50.8054 48.2224 51.9282 49.582 51.9282H55.9145C57.3618 51.9282 58.5108 50.6597 58.3675 49.1914C57.5372 40.8108 52.9588 34.1425 47.1201 32.7429Z"></path>
<path fill="#EE4266" d="M26.2465 51.9277H39.2071C40.5667 51.9277 41.6687 50.8049 41.6687 49.4201V21.6575C32.0733 23.9595 24.6268 35.2767 23.7877 49.2832C23.7029 50.7187 24.8374 51.9277 26.2465 51.9277Z"></path>
<path fill="#6310E5" d="M73.4676 47.3204C69.8373 45.6374 65.4781 47.3808 63.7629 50.9676C63.1408 52.2692 62.4206 53.4992 61.6107 54.6547C60.5376 56.1857 58.7672 57.0889 56.8872 57.0889H23.8247C21.956 57.0889 20.1916 56.2 19.1213 54.6832C16.7321 51.3029 15.1961 47.3749 14.6696 43.1632C13.8163 36.3624 15.6878 29.6389 19.937 24.2316C24.1863 18.8242 30.3041 15.3836 37.1683 14.5378C42.7828 13.8468 48.3365 14.9506 53.2252 17.7347C57.9082 20.3983 61.7004 24.5211 63.9218 29.3581C65.5793 32.9648 69.9067 34.771 73.5573 33.1539C77.199 31.5399 78.8362 27.3023 77.2077 23.6897C73.7597 16.0287 67.7979 9.49736 60.4247 5.30277C52.794 0.959072 44.1337 -0.764063 35.3834 0.311093C24.6868 1.62712 15.1498 6.99436 8.52574 15.4208C1.90167 23.8474 -1.01406 34.3267 0.313643 44.9293C1.64135 55.5319 7.05629 64.9849 15.5577 71.5505C22.7169 77.0785 31.3426 80 40.2721 80C41.9469 80 43.6362 79.8969 45.3283 79.6876C59.2243 77.9758 71.0522 69.4318 76.9618 56.8337C78.6425 53.2497 77.0775 48.9948 73.4676 47.3204Z"></path>
</svg>
