<svg xmlns="http://www.w3.org/2000/svg" fill="none" viewBox="0 0 81 81" height="81" width="81">
<path fill="#1CB6B7" d="M79.9695 32.3726C76.094 17.3173 64.2417 5.46498 49.1864 1.58945C47.4418 1.14077 45.6536 0.798926 43.8311 0.572266V37.7279H80.9867C80.76 35.9044 80.4172 34.1171 79.9695 32.3726ZM49.1864 32.3726V7.14821C61.2774 10.7469 70.812 20.2815 74.4107 32.3726H49.1864Z"></path>
<path fill="#FF9900" d="M75.868 40.405H41.1527V5.68972C40.2683 5.62748 39.3747 5.59497 38.4745 5.59497C37.5744 5.59497 36.6817 5.62655 35.7964 5.68972C19.9999 6.80445 6.90463 17.7083 2.53956 32.3725C2.02307 34.1087 1.62827 35.8969 1.36724 37.7278C1.2409 38.6103 1.14522 39.5039 1.08206 40.4059C1.01982 41.2903 0.987305 42.1839 0.987305 43.0841C0.987305 43.9842 1.01889 44.8769 1.08206 45.7622C2.39186 64.3316 17.2279 79.1677 35.7974 80.4775C36.6817 80.5397 37.5753 80.5722 38.4755 80.5722C39.3756 80.5722 40.2683 80.5407 41.1536 80.4775C42.0547 80.4143 42.9483 80.3186 43.8317 80.1923C45.6627 79.9313 47.4509 79.5365 49.187 79.02C63.8503 74.654 74.7542 61.5588 75.868 45.7613C75.9302 44.8769 75.9627 43.9833 75.9627 43.0831C75.9627 42.183 75.9311 41.2894 75.868 40.405ZM49.1861 73.386C47.4639 73.9963 45.6738 74.4617 43.8308 74.7701C42.9502 74.9178 42.0565 75.0302 41.1527 75.1045C40.2702 75.1779 39.3765 75.2151 38.4745 75.2151C37.5726 75.2151 36.6798 75.1779 35.7964 75.1045C20.1875 73.8179 7.74068 61.3711 6.45317 45.7613C6.37978 44.8788 6.34263 43.9851 6.34263 43.0831C6.34263 42.1821 6.37978 41.2884 6.45317 40.405C6.52655 39.5012 6.63896 38.6075 6.78759 37.7269C7.09599 35.8839 7.56232 34.0938 8.1717 32.3716C12.298 20.6958 22.9808 12.117 35.7974 11.0608V45.7603H70.4969C69.4407 58.5769 60.861 69.2606 49.1861 73.386Z"></path>
<path fill="#FF9900" d="M26.1564 29.4119C28.2163 29.4119 29.8861 27.742 29.8861 25.6822C29.8861 23.6223 28.2163 21.9525 26.1564 21.9525C24.0966 21.9525 22.4268 23.6223 22.4268 25.6822C22.4268 27.742 24.0966 29.4119 26.1564 29.4119Z"></path>
</svg>
