<svg xmlns="http://www.w3.org/2000/svg" fill="none" viewBox="0 0 125 80" height="80" width="125">
<g clip-path="url(#clip0_3329_2876)">
<path fill="#C74634" d="M112.863 12.7707C105.77 5.48287 96.102 1.24872 85.9361 0.98531H40.5898C35.38 0.858481 30.1898 1.7658 25.3508 3.65848C20.4922 5.56092 16.0727 8.4097 12.3361 12.0487C8.60931 15.678 5.64345 20.0292 3.61419 24.8292C1.59467 29.6292 0.541016 34.7902 0.541016 39.9999C0.541016 45.2097 1.59467 50.3707 3.61419 55.1609C5.64345 59.9609 8.60931 64.3121 12.3361 67.9512C16.0727 71.5804 20.4922 74.439 25.3508 76.3414C30.1996 78.2438 35.38 79.1512 40.5898 79.0146H85.9361C96.102 78.7414 105.77 74.5268 112.863 67.239C119.965 59.9512 123.936 50.1853 123.936 40.0097C123.936 29.8341 119.965 20.0682 112.863 12.7804V12.7707ZM108.98 49.8829C107.653 53.0048 105.731 55.8146 103.302 58.1658C100.873 60.5268 97.9849 62.3609 94.8239 63.5902C91.663 64.8097 88.2971 65.3853 84.9117 65.278H41.5752C35.0288 65.0634 28.8044 62.3121 24.2483 57.5999C19.6825 52.8975 17.1361 46.5853 17.1361 40.0292C17.1361 33.4731 19.6922 27.1707 24.2483 22.4682C28.8142 17.756 35.0288 14.9951 41.5752 14.7902H84.9117C88.2971 14.6829 91.663 15.2585 94.8239 16.478C97.9849 17.6975 100.873 19.5317 103.302 21.8926C105.731 24.2536 107.663 27.0731 108.98 30.1853C110.297 33.2975 110.99 36.6536 110.99 40.039C110.99 43.4243 110.307 46.7804 108.98 49.9024V49.8829Z"></path>
</g>
<defs>
<clipPath id="clip0_3329_2876">
<rect transform="translate(0.541016)" fill="white" height="80" width="124"></rect>
</clipPath>
</defs>
</svg>
