<svg xmlns="http://www.w3.org/2000/svg" fill="none" viewBox="0 0 70 80" height="80" width="70">
<path fill="#E00049" d="M31.0036 0.000391297C31.178 -0.00486227 31.35 0.0428893 31.4967 0.137344L68.4736 21.6935C68.84 21.9162 69.1425 22.23 69.3511 22.6044C69.56 22.9791 69.6682 23.4013 69.6651 23.83V67.0244C69.6647 67.2024 69.6174 67.3773 69.528 67.5313C69.4627 67.6458 69.3754 67.7462 69.2711 67.8269C69.1669 67.9076 69.0476 67.9667 68.9202 68.0011C68.7929 68.0356 68.6602 68.0442 68.5294 68.0271C68.3987 68.01 68.2727 67.9671 68.1587 67.9011L60.6536 63.5187C60.3754 63.3547 60.1451 63.1202 59.9865 62.8389C59.8278 62.5576 59.746 62.2393 59.7498 61.9162V28.2124L30.9214 11.3263C30.6382 11.1644 30.402 10.9315 30.2365 10.6505C30.0707 10.3695 29.9811 10.0501 29.9765 9.72396V1.02753C29.98 0.756218 30.0894 0.497018 30.2811 0.305156C30.4731 0.113293 30.7322 0.00393829 31.0036 0.000391297ZM38.714 50.8642C38.6351 50.7033 38.5051 50.5733 38.3442 50.4944L29.9767 45.6464V35.8544C29.9785 35.7213 29.954 35.5891 29.9047 35.4656C29.8554 35.3418 29.7822 35.2291 29.6896 35.1338C29.5967 35.0382 29.486 34.9622 29.3636 34.9096C29.2414 34.8569 29.11 34.8289 28.9769 34.8271C28.7947 34.8289 28.6158 34.876 28.4565 34.9642L21.3212 39.0727C20.9487 39.2942 20.6403 39.6089 20.4265 39.986C20.2128 40.3631 20.101 40.7893 20.1024 41.2229V49.8509C20.0979 50.2813 20.207 50.7056 20.4185 51.0807C20.6301 51.4556 20.9367 51.7684 21.3076 51.9873L28.7714 56.3422C29.1407 56.5604 29.5616 56.6753 29.9902 56.6753C30.4191 56.6753 30.84 56.5604 31.2091 56.3422L38.3442 52.2338C38.5729 52.0993 38.7396 51.8804 38.8087 51.6244C38.8778 51.3684 38.844 51.0956 38.714 50.8642ZM40.7956 51.9051C40.5156 51.7418 40.2836 51.5078 40.1225 51.2267C39.9614 50.9453 39.8771 50.6267 39.878 50.3027V39.8533L30.9078 34.608C30.6262 34.4456 30.392 34.212 30.2287 33.9309C30.0654 33.6498 29.9782 33.3309 29.9765 33.0058V24.2409C29.98 23.9696 30.0894 23.7102 30.2811 23.5184C30.4731 23.3267 30.7322 23.2171 31.0036 23.2136C31.1811 23.2171 31.3551 23.264 31.5102 23.3507L48.6018 33.348C48.9707 33.5658 49.276 33.8764 49.4876 34.2489C49.6989 34.6213 49.8091 35.0427 49.8071 35.4709V55.4109C49.8067 55.5891 49.7596 55.7638 49.67 55.9178C49.6047 56.0322 49.5174 56.1327 49.4131 56.2133C49.3089 56.294 49.1896 56.3531 49.0622 56.3876C48.9349 56.422 48.8022 56.4309 48.6714 56.4136C48.5407 56.3964 48.4147 56.3536 48.3007 56.2876L40.7956 51.9051ZM28.9767 11.5864C28.8 11.5832 28.6256 11.6257 28.47 11.7097L1.43578 27.5276C1.07079 27.7462 0.768211 28.0551 0.55714 28.4244C0.34607 28.7938 0.233616 29.2113 0.2306 29.6367V61.56C0.226146 61.9907 0.33519 62.4149 0.546758 62.79C0.758324 63.1649 1.06495 63.4776 1.43578 63.6964L28.7576 79.6651C29.1289 79.8844 29.5522 80 29.9834 80C30.4145 80 30.8378 79.8844 31.2091 79.6651L58.1749 63.7924C58.3982 63.6531 58.5605 63.4344 58.6291 63.1804C58.6978 62.9262 58.6676 62.6556 58.5447 62.4229C58.4582 62.264 58.3305 62.1316 58.1749 62.0393L50.6698 57.6569C50.4 57.5058 50.0958 57.4264 49.7865 57.4264C49.4771 57.4264 49.1731 57.5058 48.9031 57.6569L29.9765 68.7638L10.1596 57.1776V34.0191L29.0727 22.9671C29.3489 22.8044 29.5778 22.572 29.7365 22.2933C29.8949 22.0146 29.9778 21.6992 29.9765 21.3785V12.6136C29.9782 12.4805 29.9538 12.3484 29.9047 12.2247C29.8554 12.101 29.7822 11.9883 29.6894 11.8929C29.5965 11.7976 29.4858 11.7214 29.3636 11.6688C29.2414 11.6162 29.1098 11.5882 28.9767 11.5864Z" clip-rule="evenodd" fill-rule="evenodd"></path>
</svg>
