<svg xmlns="http://www.w3.org/2000/svg" fill="none" viewBox="0 0 81 81" height="81" width="81">
<g clip-path="url(#clip0_2997_379)">
<mask height="77" width="56" y="2" x="13" maskUnits="userSpaceOnUse" style="mask-type:luminance" id="mask0_2997_379">
<path fill="white" d="M61.4772 19.1765C61.4028 18.7222 61.1518 18.3157 60.779 18.0456C60.4062 17.7755 59.9418 17.6636 59.4869 17.7343C59.1294 17.7818 58.7988 17.9497 58.5495 18.2103L49.55 27.1953L42.512 13.7538C42.407 13.552 42.2633 13.3728 42.089 13.2266C41.9147 13.0804 41.7133 12.9699 41.4963 12.9016C41.2793 12.8333 41.0509 12.8084 40.8243 12.8284C40.5977 12.8485 40.3773 12.913 40.1756 13.0183C39.87 13.1945 39.6162 13.4482 39.4401 13.7538L35.6037 21.1091L25.9264 3.05251C25.8179 2.85421 25.6713 2.67931 25.495 2.53783C25.3187 2.39636 25.1162 2.29111 24.8991 2.22812C24.682 2.16514 24.4546 2.14566 24.2299 2.17081C24.0053 2.19596 23.7878 2.26524 23.59 2.37467C23.3553 2.50001 23.1517 2.67657 22.9944 2.89127C22.8371 3.10598 22.7301 3.35332 22.6814 3.61498L13.307 63.496L38.3295 77.6009C39.101 78.0238 39.9665 78.2455 40.8462 78.2455C41.7259 78.2455 42.5915 78.0238 43.3629 77.6009L68.6018 63.5537L61.4772 19.1765Z"></path>
</mask>
<g mask="url(#mask0_2997_379)">
<path fill="#FFA000" d="M13.307 63.4958L22.6814 3.6148C22.7525 3.17216 22.9953 2.77543 23.3572 2.51079C23.719 2.24614 24.1707 2.13497 24.614 2.20142C24.8759 2.24945 25.124 2.35443 25.3408 2.50895C25.5577 2.66347 25.7379 2.86374 25.8688 3.0956L35.5461 21.1666L39.3824 13.8113C39.4873 13.6095 39.6311 13.4303 39.8054 13.2841C39.9797 13.1379 40.1811 13.0274 40.3981 12.9591C40.6151 12.8908 40.8434 12.8659 41.07 12.886C41.2966 12.906 41.5171 12.9705 41.7188 13.0758C42.0244 13.252 42.2781 13.5057 42.4543 13.8113L68.5585 63.4958H13.307Z"></path>
<path fill="url(#paint0_linear_2997_379)" d="M45.281 2.6052L-0.523926 -1.30322V81.6533L13.307 63.4958L45.281 2.6052Z" opacity="0.12"></path>
<path fill="#F57C00" d="M45.6704 40.1753L35.5749 21.1235L13.307 63.496L45.6704 40.1753Z"></path>
<path fill="url(#paint1_linear_2997_379)" d="M-0.523926 -1.30322H82.4326V81.6533H-0.523926V-1.30322Z" opacity="0.2"></path>
<path fill="#FFCA28" d="M68.6162 63.4956L61.4051 19.1329C61.3306 18.6786 61.0797 18.2721 60.7069 18.0019C60.3341 17.7318 59.8697 17.6199 59.4148 17.6907C59.0583 17.7414 58.7287 17.9087 58.4774 18.1666L13.307 63.4956L38.3295 77.6005C39.101 78.0234 39.9665 78.2451 40.8462 78.2451C41.7259 78.2451 42.5915 78.0234 43.3629 77.6005L68.6162 63.4956Z"></path>
<path fill-opacity="0.2" fill="white" d="M61.4772 19.1765C61.4028 18.7222 61.1518 18.3157 60.779 18.0456C60.4062 17.7755 59.9418 17.6636 59.4869 17.7343C59.1294 17.7818 58.7988 17.9497 58.5495 18.2103L49.55 27.1953L42.512 13.7538C42.407 13.552 42.2633 13.3728 42.089 13.2266C41.9147 13.0804 41.7133 12.9699 41.4963 12.9016C41.2793 12.8333 41.0509 12.8084 40.8243 12.8284C40.5977 12.8485 40.3773 12.913 40.1756 13.0183C39.87 13.1945 39.6162 13.4482 39.4401 13.7538L35.6037 21.1091L25.9264 3.05251C25.8179 2.85421 25.6713 2.67931 25.495 2.53783C25.3187 2.39636 25.1162 2.29111 24.8991 2.22812C24.682 2.16514 24.4546 2.14566 24.2299 2.17081C24.0053 2.19596 23.7878 2.26524 23.59 2.37467C23.3553 2.50001 23.1517 2.67657 22.9944 2.89127C22.8371 3.10598 22.7301 3.35332 22.6814 3.61498L13.307 63.496L13.5666 63.6258L49.6221 27.5703L58.6216 18.5852C58.7804 18.4203 58.9708 18.2892 59.1814 18.1996C59.392 18.11 59.6186 18.0638 59.8475 18.0638C60.0764 18.0638 60.3029 18.11 60.5136 18.1996C60.7242 18.2892 60.9146 18.4203 61.0734 18.5852C61.3399 18.8361 61.5085 19.1734 61.5493 19.5371L68.645 63.4672H68.7316L61.4772 19.1765ZM13.3935 63.4095L22.6814 4.04765C22.7114 3.82506 22.7855 3.61069 22.8993 3.41711C23.0132 3.22353 23.1646 3.05462 23.3446 2.9203C23.5246 2.78597 23.7296 2.68893 23.9475 2.63486C24.1655 2.5808 24.3921 2.57079 24.614 2.60542C24.8769 2.65054 25.1263 2.75436 25.3435 2.90918C25.5608 3.06399 25.7403 3.26581 25.8688 3.4996L35.5461 21.5706L39.3824 14.2153C39.4859 14.0121 39.6289 13.8316 39.8029 13.6843C39.977 13.5369 40.1787 13.4258 40.3962 13.3573C40.6138 13.2888 40.8427 13.2644 41.0698 13.2854C41.2969 13.3064 41.5175 13.3725 41.7188 13.4798C42.0244 13.656 42.2781 13.9097 42.4543 14.2153L49.3625 27.3539L13.3935 63.4095Z"></path>
<path fill="#A52714" d="M43.3628 77.1103C42.5897 77.5358 41.7215 77.7589 40.8389 77.7589C39.9564 77.7589 39.0882 77.5358 38.3151 77.1103L13.3502 63.1785V63.5679L38.3295 77.6007C39.1009 78.0236 39.9664 78.2453 40.8462 78.2453C41.7259 78.2453 42.5914 78.0236 43.3628 77.6007L68.6017 63.5535V63.1641L43.3628 77.1103Z" opacity="0.2"></path>
<path fill="url(#paint2_linear_2997_379)" d="M61.4772 19.1765C61.4028 18.7222 61.1518 18.3157 60.779 18.0456C60.4062 17.7755 59.9418 17.6636 59.4869 17.7343C59.1294 17.7818 58.7988 17.9497 58.5495 18.2103L49.55 27.1953L42.512 13.7538C42.407 13.552 42.2633 13.3728 42.089 13.2266C41.9147 13.0804 41.7133 12.9699 41.4963 12.9016C41.2793 12.8333 41.0509 12.8084 40.8243 12.8284C40.5977 12.8485 40.3773 12.913 40.1756 13.0183C39.87 13.1945 39.6162 13.4482 39.4401 13.7538L35.6037 21.1091L25.9264 3.05251C25.8179 2.85421 25.6713 2.67931 25.495 2.53783C25.3187 2.39636 25.1162 2.29111 24.8991 2.22812C24.682 2.16514 24.4546 2.14566 24.2299 2.17081C24.0053 2.19596 23.7878 2.26524 23.59 2.37467C23.3553 2.50001 23.1517 2.67657 22.9944 2.89127C22.8371 3.10598 22.7301 3.35332 22.6814 3.61498L13.307 63.496L38.3295 77.6009C39.101 78.0238 39.9665 78.2455 40.8462 78.2455C41.7259 78.2455 42.5915 78.0238 43.3629 77.6009L68.6018 63.5537L61.4772 19.1765Z"></path>
</g>
</g>
<defs>
<linearGradient gradientUnits="userSpaceOnUse" y2="41.199" x2="20.6335" y1="43.0018" x1="24.0804" id="paint0_linear_2997_379">
<stop stop-color="#A52714"></stop>
<stop stop-opacity="0.5" stop-color="#A52714" offset="0.4"></stop>
<stop stop-opacity="0" stop-color="#A52714" offset="0.8"></stop>
</linearGradient>
<linearGradient gradientUnits="userSpaceOnUse" y2="36.4253" x2="37.219" y1="37.9685" x1="38.7622" id="paint1_linear_2997_379">
<stop stop-opacity="0.8" stop-color="#A52714"></stop>
<stop stop-opacity="0.21" stop-color="#A52714" offset="0.5"></stop>
<stop stop-opacity="0" stop-color="#A52714" offset="1"></stop>
</linearGradient>
<linearGradient gradientUnits="userSpaceOnUse" y2="73.2972" x2="69.5558" y1="15.5362" x1="11.8333" id="paint2_linear_2997_379">
<stop stop-opacity="0.1" stop-color="white"></stop>
<stop stop-opacity="0" stop-color="white" offset="1"></stop>
</linearGradient>
<clipPath id="clip0_2997_379">
<rect transform="translate(0.788574 0.571777)" fill="white" height="80" width="80"></rect>
</clipPath>
</defs>
</svg>
