<svg xmlns="http://www.w3.org/2000/svg" fill="none" viewBox="0 0 80 80" height="80" width="80">
<g clip-path="url(#clip0_3333_501)">
<path fill="#006CB7" d="M39.9976 0C17.9005 0 0 17.9077 0 39.9976C0 62.0995 17.9029 80 39.9976 80C62.0923 80 80 62.0971 80 39.9976C80 17.9077 62.0923 0 39.9976 0ZM39.9976 70.2054C23.3196 70.2054 9.79947 56.6779 9.79947 39.9976C9.79947 23.3221 23.3196 9.79464 39.9976 9.79464C56.6828 9.79464 70.2029 23.3221 70.2029 39.9976C70.2029 56.6779 56.6828 70.2054 39.9976 70.2054ZM40 14.5397C25.941 14.5397 14.5446 25.9386 14.5446 40C14.5446 54.0638 25.941 65.4603 40 65.4603C54.0638 65.4603 65.4603 54.0638 65.4603 40C65.4578 25.9386 54.0638 14.5397 40 14.5397ZM57.1829 31.2418C54.5843 27.9214 50.7726 25.7696 46.587 25.2603C42.4015 24.751 38.185 25.9258 34.8659 28.5262C33.7532 29.4025 32.7619 30.423 31.9183 31.5608C34.3658 30.4252 37.1684 29.843 40.2368 29.9662C43.1942 30.1171 46.0942 30.8417 48.7751 32.0995C47.2859 31.6116 45.7378 31.3263 44.1725 31.2515C38.5552 31.0172 34.0106 33.6796 31.5511 37.9778C29.8889 41.2201 28.2967 47.05 33.8439 52.648C39.4636 57.9005 48.2218 58.4441 54.4697 53.5492L54.8103 53.2568C54.0855 54.0396 53.3172 54.7934 52.4475 55.4699C48.346 58.6823 43.136 60.1328 37.9646 59.502C32.7932 58.8712 28.0846 56.2108 24.8756 52.1068C18.1872 43.567 19.688 31.2221 28.2278 24.5337C36.7676 17.8453 49.1125 19.3462 55.8009 27.886C57.4318 29.9571 58.6261 32.3373 59.3114 34.8828C58.7664 33.5802 58.0506 32.3558 57.1829 31.2418Z"></path>
</g>
<defs>
<clipPath id="clip0_3333_501">
<rect fill="white" height="80" width="80"></rect>
</clipPath>
</defs>
</svg>
