<svg xmlns="http://www.w3.org/2000/svg" fill="none" viewBox="0 0 82 80" height="80" width="82">
<g clip-path="url(#clip0_3333_631)">
<path fill="#9B65C3" d="M1.24609 45.931C2.56841 54.5649 6.61313 62.3432 12.4469 68.177L26.0589 54.5649C26.0589 40.7973 33.215 27.4186 45.9714 20.0292L1.24609 45.931Z"></path>
<path fill="#9B65C3" d="M26.0589 54.565C19.2918 54.565 12.4469 52.8537 6.14643 49.1979C4.4352 48.1868 2.80176 47.0978 1.24609 45.8533C2.56841 54.4872 6.61313 62.2655 12.4469 68.0993L26.0589 54.565Z"></path>
<path fill="#BE63C5" d="M26.0593 54.5649L12.4473 68.177C18.3588 74.0885 26.0593 78.1333 34.6933 79.3778L60.5173 34.6525C53.2057 47.4089 39.8269 54.5649 26.0593 54.5649Z"></path>
<path fill="#BF63C6" d="M31.4264 74.5552C27.7706 68.2548 26.0593 61.4098 26.0593 54.6427L12.4473 68.2548C18.3588 74.1663 26.0593 78.211 34.6933 79.4555C33.5265 77.8999 32.4375 76.2664 31.4264 74.5552Z"></path>
<path fill="#3278B1" d="M76.7738 2.29468L46.0494 20.107C33.293 27.4964 18.1253 26.9519 6.22446 20.107C2.802 25.9408 0.857422 32.7857 0.857422 40.0195C0.857422 42.0419 1.01299 43.9865 1.32412 45.931C2.87978 47.1756 4.51323 48.2645 6.22446 49.2757C12.5249 52.9315 19.3698 54.6427 26.137 54.6427L77.6294 3.1503C77.3183 2.83916 77.0849 2.52803 76.7738 2.29468Z"></path>
<path fill="#3278B2" d="M6.14609 49.2756C12.4465 52.9314 19.2914 54.6427 26.0586 54.6427C26.0586 40.875 33.2146 27.4963 45.9711 20.1069L1.16797 45.931C2.80142 47.0977 4.43486 48.2644 6.14609 49.2756Z"></path>
<path fill="#45A4EC" d="M6.14634 20.1069C2.72388 25.9407 0.779297 32.7856 0.779297 40.0194C0.779297 42.0418 0.934864 43.9864 1.246 45.931L46.0491 20.1069C33.2149 27.4186 18.0472 26.9519 6.14634 20.1069Z"></path>
<path fill="#19BB7D" d="M77.6292 3.07247C77.3959 2.83912 77.0847 2.52799 76.7736 2.29464C76.3847 1.98351 75.9958 1.67237 75.5291 1.43902C74.0512 0.583408 72.34 0.116699 70.551 0.116699H40.6822C25.9034 0.116699 13.0692 8.12837 6.14648 20.0292C18.0473 26.8741 33.215 27.4186 45.9715 20.0292C33.215 27.4186 26.059 40.7973 26.059 54.5649C39.8266 54.5649 53.2053 47.4089 60.5947 34.6524L78.3293 3.92809C78.0959 3.61696 77.8626 3.30582 77.6292 3.07247Z"></path>
<path fill="#08C7FB" d="M46.0493 20.107L76.7736 2.37247C76.3847 2.06133 75.9958 1.7502 75.5291 1.51685L6.14648 20.107C18.0473 26.9519 33.215 27.4186 46.0493 20.107Z"></path>
<path fill="#59F2F6" d="M70.551 0.116699H40.6822C25.9034 0.116699 13.0692 8.12837 6.14648 20.0292L75.5291 1.43902C74.0512 0.661191 72.4178 0.116699 70.551 0.116699Z"></path>
<path fill="#DA3757" d="M60.5943 34.6525L78.3289 3.92813C78.0955 3.617 77.8622 3.38364 77.5511 3.07251L26.0586 54.565C26.0586 61.3321 27.7698 68.177 31.4256 74.4775C32.4368 76.1887 33.5258 77.8222 34.7703 79.3778C36.7149 79.689 38.6595 79.8445 40.6818 79.8445C47.9157 79.8445 54.7606 77.8999 60.5943 74.4775C53.7494 62.5766 53.2049 47.4089 60.5943 34.6525Z"></path>
<path fill="#D33C4E" d="M26.0586 54.5649C26.0586 61.3321 27.7698 68.177 31.4256 74.4774C32.4368 76.1887 33.5258 77.8221 34.7703 79.3778L60.5943 34.6525C53.2049 47.4089 39.8262 54.5649 26.0586 54.5649Z"></path>
<path fill="#EE5A24" d="M60.5955 34.6525L34.7715 79.4556C36.7161 79.7667 38.6606 79.9223 40.683 79.9223C47.9168 79.9223 54.7618 77.9777 60.5955 74.5552C53.7506 62.5766 53.2061 47.4089 60.5955 34.6525Z"></path>
<path fill="#8BDF55" d="M79.1848 5.17264C78.9515 4.70594 78.6404 4.31705 78.3292 3.92813C78.0959 3.617 77.8625 3.38364 77.5514 3.07251C77.3181 2.83916 77.0069 2.52803 76.6958 2.29468L46.0492 20.107C33.2928 27.4964 26.1367 40.8751 26.1367 54.6427C39.9043 54.6427 53.283 47.4867 60.6724 34.7302C53.283 47.4867 53.8275 62.6544 60.6724 74.5552C72.5733 67.6325 80.5849 54.7983 80.5849 40.0195V10.1508C80.5072 8.28399 80.0405 6.57274 79.1848 5.17264Z"></path>
<path fill="#25C16F" d="M76.7736 2.29468L46.0492 20.107C33.2928 27.4964 26.1367 40.8751 26.1367 54.6427L77.6292 3.1503C77.318 2.83916 77.0847 2.52803 76.7736 2.29468Z"></path>
<path fill="#8BDF55" d="M26.0586 54.565C39.8262 54.565 53.2049 47.4089 60.5943 34.6525L78.3289 3.92813C78.0955 3.617 77.8622 3.38364 77.5511 3.07251L26.0586 54.565Z"></path>
<path fill="#FFBB00" d="M78.3283 3.9281L60.5937 34.6525C53.2043 47.4089 53.7488 62.5766 60.5937 74.4774L79.1839 5.09485C78.9506 4.70593 78.6394 4.31702 78.3283 3.9281Z"></path>
<path fill="#FFA800" d="M60.5938 74.5552C72.4946 67.6325 80.5062 54.7983 80.5062 40.0195V10.1507C80.5062 8.36174 80.0395 6.65049 79.1839 5.17261L60.5938 74.5552Z"></path>
</g>
<defs>
<clipPath id="clip0_3333_631">
<rect transform="translate(0.3125)" fill="white" height="80" width="81"></rect>
</clipPath>
</defs>
</svg>
