<svg xmlns="http://www.w3.org/2000/svg" fill="none" viewBox="0 0 80 80" height="80" width="80">
<path fill="black" d="M40 80C62.0914 80 80 62.0914 80 40C80 17.9086 62.0914 0 40 0C17.9086 0 0 17.9086 0 40C0 62.0914 17.9086 80 40 80ZM37.7455 20.0266C37.7455 19.0064 37.1998 18.437 36.2271 18.437H33.3327V14.1666H38.22C41.1856 14.1666 42.4193 15.4714 42.4193 18.5794V31.7704C42.4193 33.4311 42.2769 34.736 42.2769 34.736H42.4193C42.4193 34.736 45.3137 27.7846 54.1631 27.7846C63.4395 27.7846 69.2046 35.6138 69.2046 46.9068C69.2046 58.4133 62.6803 65.9578 53.5937 65.9578C45.3374 65.9578 42.2532 58.9353 42.2532 58.9353H42.1109C42.1109 58.9353 42.2532 60.169 42.2532 61.9009V65.08H37.7218L37.7455 20.0266ZM53.2615 61.6162C59.3825 61.6162 64.3884 56.1832 64.3884 46.9068C64.3884 37.9863 59.857 32.2686 53.4513 32.2686C47.6862 32.2686 42.2532 36.6102 42.2532 46.978C42.2769 54.2852 45.8594 61.6162 53.2615 61.6162ZM15.1506 33.1464H10.8327V29.0183H15.1743V27.7134C15.1743 15.685 23.217 14.1666 27.0604 14.1666C28.3653 14.1666 29.1957 14.3089 29.1957 14.3089V18.7217C29.1957 18.7217 28.5788 18.5794 27.5349 18.5794C24.9252 18.5794 19.8481 19.5996 19.8481 27.7134V29.0183H28.65V33.1464H19.8244V65.4596H15.1506V33.1464Z" clip-rule="evenodd" fill-rule="evenodd"></path>
</svg>
