<svg xmlns="http://www.w3.org/2000/svg" fill="none" viewBox="0 0 70 81" height="81" width="70">
<path fill="#F9AB00" d="M50.5 10.1172V70.1172C50.5 76.8309 55.1318 80.5718 60.0455 80.5718C64.5909 80.5718 69.5909 77.39 69.5909 70.1172V10.5718C69.5909 4.41723 65.0455 0.571777 60.0455 0.571777C55.0455 0.571777 50.5 4.81269 50.5 10.1172Z"></path>
<path fill="#E37400" d="M25.5 40.5718V70.1173C25.5 76.8309 30.1318 80.5718 35.0455 80.5718C39.5909 80.5718 44.5909 77.39 44.5909 70.1173V41.0264C44.5909 34.8718 40.0455 31.0264 35.0455 31.0264C30.0455 31.0264 25.5 35.2673 25.5 40.5718Z"></path>
<path fill="#E37400" d="M10.0455 80.5719C15.3173 80.5719 19.5909 76.2982 19.5909 71.0264C19.5909 65.7546 15.3173 61.481 10.0455 61.481C4.77365 61.481 0.5 65.7546 0.5 71.0264C0.5 76.2982 4.77365 80.5719 10.0455 80.5719Z"></path>
</svg>
