<svg xmlns="http://www.w3.org/2000/svg" fill="none" viewBox="0 0 90 80" height="80" width="90">
<g clip-path="url(#clip0_3334_989)">
<mask height="80" width="90" y="0" x="0" maskUnits="userSpaceOnUse" style="mask-type:luminance" id="mask0_3334_989">
<path fill="white" d="M87.9436 35.9029L69.6549 4.09573C68.2554 1.61402 65.6469 0.058444 62.7983 0.00683594H26.2138C23.3648 0.0570395 20.7556 1.613 19.3572 4.09573L1.06152 35.8195C-0.35384 38.2823 -0.35384 41.3118 1.06152 43.7747L19.3503 75.7627C20.7343 78.2797 23.3365 79.8869 26.2068 79.9976H62.7913C65.6615 79.8991 68.2684 78.2985 69.6549 75.7835L87.9436 43.9764C89.3688 41.4739 89.3688 38.4054 87.9436 35.9029Z"></path>
</mask>
<g mask="url(#mask0_3334_989)">
<path fill="#4285F4" d="M87.9436 35.9029L69.6549 4.09573C68.2554 1.61402 65.6469 0.058444 62.7983 0.00683594H26.2138C23.3648 0.0570395 20.7556 1.613 19.3572 4.09573L1.06152 35.8195C-0.35384 38.2823 -0.35384 41.3118 1.06152 43.7747L19.3503 75.7627C20.7343 78.2797 23.3365 79.8869 26.2068 79.9976H62.7913C65.6615 79.8991 68.2684 78.2985 69.6549 75.7835L87.9436 43.9764C89.3688 41.4739 89.3688 38.4054 87.9436 35.9029Z"></path>
</g>
<mask height="80" width="90" y="0" x="0" maskUnits="userSpaceOnUse" style="mask-type:luminance" id="mask1_3334_989">
<path fill="white" d="M87.9436 35.9029L69.6549 4.09573C68.2554 1.61402 65.6469 0.058444 62.7983 0.00683594H26.2138C23.3648 0.0570395 20.7556 1.613 19.3572 4.09573L1.06152 35.8195C-0.35384 38.2823 -0.35384 41.3118 1.06152 43.7747L19.3503 75.7627C20.7343 78.2797 23.3365 79.8869 26.2068 79.9976H62.7913C65.6615 79.8991 68.2684 78.2985 69.6549 75.7835L87.9436 43.9764C89.3688 41.4739 89.3688 38.4054 87.9436 35.9029Z"></path>
</mask>
<g mask="url(#mask1_3334_989)">
<path fill="black" d="M65.0792 29.4683L62.5577 32.2184L63.1257 48.5598L60.7358 52.0235L59.3504 50.638H60.625V44.9715L54.5082 38.8548L49.8849 41.1656L34.5508 25.7969L27.1664 29.7523L26.252 37.4139L28.8427 51.4346L32.5973 55.113L30.8863 57.5445L53.2254 80.4089H62.5577C65.4168 80.3108 68.5134 78.4371 69.8946 75.9317L85.1167 49.5049L65.0792 29.4683Z" opacity="0.07"></path>
</g>
<mask height="80" width="90" y="0" x="0" maskUnits="userSpaceOnUse" style="mask-type:luminance" id="mask2_3334_989">
<path fill="white" d="M87.9436 35.9029L69.6549 4.09573C68.2554 1.61402 65.6469 0.058444 62.7983 0.00683594H26.2138C23.3648 0.0570395 20.7556 1.613 19.3572 4.09573L1.06152 35.8195C-0.35384 38.2823 -0.35384 41.3118 1.06152 43.7747L19.3503 75.7627C20.7343 78.2797 23.3365 79.8869 26.2068 79.9976H62.7913C65.6615 79.8991 68.2684 78.2985 69.6549 75.7835L87.9436 43.9764C89.3688 41.4739 89.3688 38.4054 87.9436 35.9029Z"></path>
</mask>
<g mask="url(#mask2_3334_989)">
<path fill="white" d="M30.8863 57.5444L34.5508 53.8799L29.0575 48.3866V31.2902L34.5508 25.7968L30.8863 22.1323L23.5503 29.4683V50.2085L30.8863 57.5444Z"></path>
</g>
<mask height="80" width="90" y="0" x="0" maskUnits="userSpaceOnUse" style="mask-type:luminance" id="mask3_3334_989">
<path fill="white" d="M87.9436 35.9029L69.6549 4.09573C68.2554 1.61402 65.6469 0.058444 62.7983 0.00683594H26.2138C23.3648 0.0570395 20.7556 1.613 19.3572 4.09573L1.06152 35.8195C-0.35384 38.2823 -0.35384 41.3118 1.06152 43.7747L19.3503 75.7627C20.7343 78.2797 23.3365 79.8869 26.2068 79.9976H62.7913C65.6615 79.8991 68.2684 78.2985 69.6549 75.7835L87.9436 43.9764C89.3688 41.4739 89.3688 38.4054 87.9436 35.9029Z"></path>
</mask>
<g mask="url(#mask3_3334_989)">
<path fill="white" d="M36.5596 42.4362C37.9943 42.4362 39.1574 41.2731 39.1574 39.8384C39.1574 38.4038 37.9943 37.2407 36.5596 37.2407C35.125 37.2407 33.9619 38.4038 33.9619 39.8384C33.9619 41.2731 35.125 42.4362 36.5596 42.4362Z"></path>
</g>
<mask height="80" width="90" y="0" x="0" maskUnits="userSpaceOnUse" style="mask-type:luminance" id="mask4_3334_989">
<path fill="white" d="M87.9436 35.9029L69.6549 4.09573C68.2554 1.61402 65.6469 0.058444 62.7983 0.00683594H26.2138C23.3648 0.0570395 20.7556 1.613 19.3572 4.09573L1.06152 35.8195C-0.35384 38.2823 -0.35384 41.3118 1.06152 43.7747L19.3503 75.7627C20.7343 78.2797 23.3365 79.8869 26.2068 79.9976H62.7913C65.6615 79.8991 68.2684 78.2985 69.6549 75.7835L87.9436 43.9764C89.3688 41.4739 89.3688 38.4054 87.9436 35.9029Z"></path>
</mask>
<g mask="url(#mask4_3334_989)">
<path fill="white" d="M44.3321 42.4362C45.7668 42.4362 46.9298 41.2731 46.9298 39.8384C46.9298 38.4038 45.7668 37.2407 44.3321 37.2407C42.8974 37.2407 41.7344 38.4038 41.7344 39.8384C41.7344 41.2731 42.8974 42.4362 44.3321 42.4362Z"></path>
</g>
<mask height="80" width="90" y="0" x="0" maskUnits="userSpaceOnUse" style="mask-type:luminance" id="mask5_3334_989">
<path fill="white" d="M87.9436 35.9029L69.6549 4.09573C68.2554 1.61402 65.6469 0.058444 62.7983 0.00683594H26.2138C23.3648 0.0570395 20.7556 1.613 19.3572 4.09573L1.06152 35.8195C-0.35384 38.2823 -0.35384 41.3118 1.06152 43.7747L19.3503 75.7627C20.7343 78.2797 23.3365 79.8869 26.2068 79.9976H62.7913C65.6615 79.8991 68.2684 78.2985 69.6549 75.7835L87.9436 43.9764C89.3688 41.4739 89.3688 38.4054 87.9436 35.9029Z"></path>
</mask>
<g mask="url(#mask5_3334_989)">
<path fill="white" d="M52.1046 42.4362C53.5392 42.4362 54.7023 41.2731 54.7023 39.8384C54.7023 38.4038 53.5392 37.2407 52.1046 37.2407C50.6699 37.2407 49.5068 38.4038 49.5068 39.8384C49.5068 41.2731 50.6699 42.4362 52.1046 42.4362Z"></path>
</g>
<mask height="80" width="90" y="0" x="0" maskUnits="userSpaceOnUse" style="mask-type:luminance" id="mask6_3334_989">
<path fill="white" d="M87.9436 35.9029L69.6549 4.09573C68.2554 1.61402 65.6469 0.058444 62.7983 0.00683594H26.2138C23.3648 0.0570395 20.7556 1.613 19.3572 4.09573L1.06152 35.8195C-0.35384 38.2823 -0.35384 41.3118 1.06152 43.7747L19.3503 75.7627C20.7343 78.2797 23.3365 79.8869 26.2068 79.9976H62.7913C65.6615 79.8991 68.2684 78.2985 69.6549 75.7835L87.9436 43.9764C89.3688 41.4739 89.3688 38.4054 87.9436 35.9029Z"></path>
</mask>
<g mask="url(#mask6_3334_989)">
<path fill="white" d="M57.7431 22.1323L54.0786 25.7968L59.5719 31.2902V48.3866L54.0786 53.8799L57.7431 57.5444L65.0791 50.2085V29.4683L57.7431 22.1323Z"></path>
</g>
</g>
<defs>
<clipPath id="clip0_3334_989">
<rect fill="white" height="80" width="89.0125"></rect>
</clipPath>
</defs>
</svg>
