<svg xmlns="http://www.w3.org/2000/svg" fill="none" viewBox="0 0 81 80" height="80" width="81">
<path fill="#8AB4F8" d="M47.8334 76.9948L33.9473 63.4541L63.7696 33L78.1466 47.0907L47.8334 76.9948Z"></path>
<path fill="#4285F4" d="M47.9625 17.1271L34.1263 3L3.87222 32.9678C-0.0277206 36.8677 -0.0277206 43.1903 3.87222 47.0948L33.6718 77.0899L47.7625 63.9082L25.0583 40.0313L47.9625 17.1271Z"></path>
<path fill="#8AB4F8" d="M78.0159 32.9279L48.0163 2.92837C44.1119 -0.976122 37.7801 -0.976122 33.8756 2.92837C29.9711 6.83286 29.9711 13.1646 33.8756 17.0691L63.8752 47.0686C67.7797 50.9731 74.1114 50.9731 78.0159 47.0686C81.9204 43.1642 81.9204 36.8324 78.0159 32.9279Z"></path>
<path fill="#246FDB" d="M40.7199 79.5452C46.1171 79.5452 50.4924 75.1698 50.4924 69.7726C50.4924 64.3753 46.1171 60 40.7199 60C35.3226 60 30.9473 64.3753 30.9473 69.7726C30.9473 75.1698 35.3226 79.5452 40.7199 79.5452Z"></path>
</svg>
