<svg xmlns="http://www.w3.org/2000/svg" fill="none" viewBox="0 0 155 80" height="80" width="155">
<path fill="#242A33" d="M154.254 7.04923C154.157 5.09651 153.955 3.59819 153.82 2.58498C153.679 1.5595 153.6 1.02527 153.6 1.02527C153.6 1.02527 153.508 1.5595 153.337 2.56657C153.251 3.07624 153.159 3.70259 153.031 4.43332C152.89 5.15178 152.737 5.97462 152.578 6.88957C152.223 8.71948 151.722 10.924 151.079 13.3434C150.425 15.7689 149.544 18.4155 148.388 21.0683C147.219 23.7149 145.763 26.3615 143.904 28.7379C142.05 31.1082 139.854 33.2206 137.303 34.983C134.758 36.7515 131.901 38.1945 128.848 39.3858C125.808 40.5709 122.572 41.5473 119.262 42.3702C115.959 43.2605 112.557 43.979 109.18 44.808C105.804 45.6001 102.427 46.4967 99.1416 47.5897C95.8688 48.6766 92.6693 50.003 89.7268 51.7408C86.7781 53.4786 84.0925 55.6708 82.0126 58.3174C79.9081 60.9272 78.55 63.9668 77.7731 66.6871C77.5039 67.6266 77.3326 68.5047 77.1858 69.3828C77.0329 68.5047 76.8616 67.6266 76.5924 66.6932C75.8155 63.9729 74.4635 60.9272 72.353 58.3297C70.2791 55.6892 67.5874 53.497 64.651 51.753C61.7024 50.0152 58.509 48.6889 55.23 47.5958C51.9449 46.5028 48.5741 45.6247 45.1911 44.8264C41.8143 43.9851 38.419 43.2605 35.1156 42.3702C31.7999 41.5473 28.5698 40.5648 25.5233 39.3858C22.4768 38.1761 19.6199 36.7515 17.0811 34.9768C14.5362 33.2083 12.3278 31.0959 10.4803 28.7257C8.62055 26.3554 7.16458 23.7026 6.00225 21.0622C4.83992 18.4094 3.96511 15.7689 3.30442 13.3434C2.65596 10.924 2.15432 8.72562 1.7995 6.88957C1.64045 5.96848 1.48751 5.13949 1.34069 4.4149C1.22446 3.69644 1.12046 3.07624 1.04093 2.56657C0.863522 1.5595 0.771762 1.02527 0.771762 1.02527C0.771762 1.02527 0.692235 1.5595 0.551531 2.58498C0.416946 3.61047 0.215065 5.11493 0.117185 7.04923C0.0131869 8.99581 -0.0663444 11.3784 0.0804762 14.1294C0.239532 16.8865 0.631055 20.0244 1.4508 23.3895C2.27667 26.7361 3.56747 30.3345 5.51896 33.7303C7.47046 37.1261 10.0398 40.3008 13.0435 42.8553C14.5301 44.1571 16.1206 45.3177 17.7724 46.3309C19.4119 47.3686 21.1125 48.2774 22.8438 49.0389C26.3002 50.6477 29.8606 51.7408 33.3843 52.6803C36.9141 53.5645 40.4072 54.2768 43.8086 54.8848C45.497 55.1734 47.1732 55.4743 48.8188 55.7629C50.44 56.0822 52.0428 56.3954 53.615 56.6901C56.7227 57.3472 59.6652 58.0779 62.2958 59.0911C64.9324 60.0982 67.2754 61.357 69.1719 62.9597C73.0442 66.0791 75.0019 70.7583 75.9562 74.2462C76.1948 75.1304 76.3967 75.9226 76.5374 76.6288C76.7087 77.3288 76.831 77.9367 76.9105 78.4525C77.0879 79.4534 77.1858 80 77.1858 80C77.1858 80 77.2837 79.4534 77.4672 78.4525C77.5406 77.9428 77.6691 77.3472 77.8343 76.641C77.9872 75.9226 78.183 75.1304 78.4277 74.2523C78.911 72.5145 79.6267 70.482 80.7279 68.474C81.829 66.4783 83.2728 64.5256 85.2059 62.9658C87.1023 61.3631 89.4515 60.1043 92.0759 59.1034C94.7125 58.0963 97.649 57.3656 100.757 56.7024C102.329 56.4076 103.932 56.0945 105.553 55.7813C107.211 55.4804 108.881 55.1795 110.563 54.8909C113.964 54.2891 117.464 53.5707 120.987 52.6803C124.505 51.7408 128.078 50.6354 131.528 49.0327C133.259 48.2652 134.96 47.3563 136.605 46.3186C138.245 45.3115 139.835 44.1448 141.322 42.8553C144.326 40.2885 146.889 37.1076 148.84 33.718C150.798 30.3222 152.083 26.7238 152.915 23.3833C153.734 20.0244 154.12 16.8865 154.279 14.1294C154.438 11.3722 154.358 8.99581 154.254 7.04923Z" clip-rule="evenodd" fill-rule="evenodd"></path>
<path fill="#77767D" d="M127.208 0C127.208 0 127.147 0.341073 127.037 1.00494L126.834 2.21086C126.743 2.67983 126.638 3.2158 126.54 3.80658C126.314 5.00032 125.983 6.42551 125.554 7.99687C125.131 9.57432 124.562 11.2918 123.802 13.0155C123.042 14.733 122.099 16.4566 120.892 17.9914C119.691 19.5323 118.239 20.9027 116.585 22.0538C114.931 23.1988 113.075 24.1368 111.09 24.9103C109.105 25.6899 107.004 26.3111 104.841 26.8531C102.691 27.4257 100.486 27.8946 98.2742 28.4306C96.0749 28.9483 93.8818 29.5269 91.7437 30.2334C89.6057 30.9399 87.5228 31.8048 85.6053 32.9315C83.694 34.0643 81.9358 35.4895 80.588 37.207C79.2157 38.9002 78.3275 40.8735 77.8251 42.6398C77.6536 43.2428 77.5372 43.8153 77.4453 44.3817C77.3473 43.8214 77.2309 43.2428 77.0593 42.6459C76.5509 40.8796 75.6687 38.9063 74.2964 37.2131C72.9487 35.4956 71.1966 34.0704 69.2852 32.9376C67.3616 31.8108 65.2848 30.9521 63.1407 30.2456C61.0088 29.5391 58.8095 28.9605 56.6102 28.4428C54.4109 27.9007 52.1994 27.4257 50.0491 26.8531C47.8927 26.3111 45.7853 25.6777 43.8004 24.9103C41.8155 24.1246 39.9532 23.1988 38.3052 22.0416C36.645 20.8966 35.2115 19.5262 34.0047 17.9792C32.7978 16.4505 31.8482 14.7269 31.0886 13.0155C30.329 11.2918 29.7654 9.57432 29.3365 7.99687C28.9138 6.42551 28.583 5.00032 28.3563 3.80658C28.2522 3.20971 28.1542 2.66765 28.0561 2.20477L27.8601 1.00494C27.7498 0.341073 27.6825 0 27.6825 0C27.6825 0 27.6396 0.353249 27.5416 1.01103C27.4558 1.67489 27.321 2.65547 27.2597 3.91621C27.1862 5.17086 27.1372 6.71786 27.2414 8.50847C27.3394 10.293 27.5906 12.3272 28.1297 14.5198C28.6688 16.6941 29.5081 19.0268 30.7823 21.2377C32.0443 23.4364 33.7229 25.5011 35.6771 27.1699C36.645 28.0104 37.6865 28.7656 38.7524 29.4173C39.8245 30.0994 40.9333 30.6841 42.0606 31.1835C44.3089 32.225 46.6307 32.9315 48.9219 33.5466C51.2192 34.1192 53.492 34.582 55.7097 34.9718C56.8124 35.1606 57.8967 35.3616 58.9749 35.5504C60.0286 35.7514 61.07 35.9524 62.0992 36.1412C64.1209 36.5736 66.0384 37.0487 67.7476 37.7065C69.469 38.3521 70.9944 39.1743 72.2258 40.2158C74.7436 42.2439 76.0179 45.2831 76.6428 47.5488C76.802 48.1274 76.9307 48.639 77.0226 49.0897L77.2615 50.2773C77.384 50.9351 77.4453 51.2823 77.4453 51.2823C77.4453 51.2823 77.5065 50.9351 77.6291 50.2834L77.868 49.0958C77.9599 48.639 78.0947 48.1152 78.2478 47.5488C78.5664 46.4281 79.0381 45.0943 79.7426 43.797C80.4655 42.4997 81.4028 41.2268 82.6709 40.2219C83.9084 39.1804 85.4338 38.3643 87.143 37.7126C88.8583 37.0609 90.7758 36.5858 92.7974 36.1534C93.8205 35.9524 94.8681 35.7575 95.9157 35.5626C96.9877 35.3616 98.0843 35.1667 99.187 34.9718C101.392 34.582 103.665 34.1192 105.975 33.5466C108.266 32.9315 110.588 32.2189 112.83 31.1774C113.963 30.6841 115.06 30.0811 116.138 29.4112C117.21 28.7595 118.239 28.0043 119.213 27.1577C121.162 25.4889 122.834 23.4364 124.102 21.2255C125.383 19.0268 126.216 16.6941 126.761 14.5198C127.294 12.3272 127.545 10.293 127.643 8.50238C127.747 6.71785 127.692 5.17086 127.625 3.91012C127.563 2.6372 127.435 1.6688 127.349 1.01103C127.257 0.353249 127.208 0 127.208 0Z" clip-rule="evenodd" fill-rule="evenodd"></path>
</svg>
