<svg xmlns="http://www.w3.org/2000/svg" fill="none" viewBox="0 0 43 80" height="80" width="43">
<path fill="#0057FF" d="M41.3019 0H29.2969C28.713 0 28.2409 0.47385 28.2409 1.06002V13.1099C28.2409 13.696 28.713 14.1699 29.2969 14.1699H41.3019C41.8857 14.1699 42.3579 13.696 42.3579 13.1099V1.06002C42.3579 0.47385 41.8857 0 41.3019 0ZM41.2599 28.3431H29.3388C28.7304 28.3431 28.2374 28.8383 28.2374 29.4489V64.7279C28.2374 65.3387 27.7444 65.8336 27.136 65.8336H15.2185C14.61 65.8336 14.1169 66.3284 14.1169 66.9393V78.8943C14.1169 79.5051 14.61 80 15.2185 80H41.2564C41.8649 80 42.3579 79.5051 42.3579 78.8943V29.4489C42.3579 28.8383 41.8649 28.3431 41.2599 28.3431ZM14.1204 29.4489C14.1204 28.8383 14.6135 28.3431 15.222 28.3431H27.1394C27.7479 28.3431 28.2409 27.8483 28.2409 27.2377V15.2755C28.2409 14.6648 27.7479 14.1699 27.1394 14.1699H1.10152C0.493063 14.1734 0 14.6683 0 15.2755V64.7174C0 65.3283 0.493063 65.8232 1.10152 65.8232H13.0189C13.6274 65.8232 14.1204 65.3283 14.1204 64.7174V29.4489Z"></path>
</svg>
