<svg xmlns="http://www.w3.org/2000/svg" fill="none" viewBox="0 0 80 80" height="80" width="80">
<path fill="url(#paint0_linear_3344_326)" d="M64.9049 32.4525C64.9049 39.6294 62.5646 46.3384 58.6641 51.6431L78.3228 71.4578C80.351 73.3301 80.351 76.6065 78.3228 78.4788C76.4505 80.5071 73.1741 80.5071 71.3018 78.4788L51.4871 58.6641C46.1823 62.7206 39.4734 64.9049 32.4525 64.9049C14.51 64.9049 0 50.3949 0 32.4525C0 14.666 14.51 0 32.4525 0C50.2389 0 64.9049 14.666 64.9049 32.4525ZM32.4525 54.9196C44.7782 54.9196 54.9196 44.9342 54.9196 32.4525C54.9196 20.1268 44.7782 9.98537 32.4525 9.98537C19.9707 9.98537 9.98537 20.1268 9.98537 32.4525C9.98537 44.9342 19.9707 54.9196 32.4525 54.9196Z"></path>
<defs>
<linearGradient gradientUnits="userSpaceOnUse" y2="79.883" x2="79.883" y1="0" x1="0" id="paint0_linear_3344_326">
<stop stop-color="#BA6EFF"></stop>
<stop stop-color="#549FF8" offset="1"></stop>
</linearGradient>
</defs>
</svg>
