<svg xmlns="http://www.w3.org/2000/svg" fill="none" viewBox="0 0 81 80" height="80" width="81">
<path fill="#4651FF" d="M53.1481 0C38.5767 0 26.5767 11.4286 26.0052 25.7143C11.1481 26.2857 -0.280473 38.8571 0.00524161 53.4286C0.290956 68.2857 12.5767 80 27.4338 80H69.4338C75.4338 80 80.291 75.1429 80.291 69.1429V27.1429C80.291 12 68.0052 0 53.1481 0ZM24.0052 68C18.291 66.5714 14.0052 62.2857 12.291 56.5714C12.291 56 12.291 55.4286 12.291 54.8571H24.0052V68ZM38.291 68.2857H27.1481V42.5714H38.291V68.2857ZM53.4338 68.2857H42.291V21.4286H53.4338V68.2857ZM68.0052 67.7143C67.4338 68.2857 66.8624 68.2857 66.2909 68.2857H57.4338V30.5714H68.5767V66C68.5767 66.5714 68.5767 67.1429 68.0052 67.7143Z"></path>
</svg>
