<svg xmlns="http://www.w3.org/2000/svg" fill="none" viewBox="0 0 81 80" height="80" width="81">
<path fill="#FFFFFE" d="M55.6071 80.0003C69.2447 80.0343 80.3372 69.0497 80.4099 55.4414V24.9286C80.3372 11.3203 69.2447 0.33569 55.6071 0.369708H24.7941C11.1582 0.33569 0.0674609 11.3212 0 24.9286V55.4414C0.0674609 69.0489 11.1582 80.0343 24.7941 80.0003H55.6071Z" clip-rule="evenodd" fill-rule="evenodd"></path>
<path fill="#0A0B09" d="M44.5854 29.099V40.1325C44.588 40.7331 44.8289 41.3076 45.2565 41.7307C45.6831 42.1539 46.2614 42.3899 46.8633 42.3873H54.284C54.8841 42.3899 55.4606 42.1539 55.8846 41.7298C56.3095 41.3067 56.5461 40.7314 56.5444 40.1325V32.771C56.5461 32.1721 56.3095 31.5968 55.8846 31.1736C55.4606 30.7496 54.8841 30.5127 54.284 30.5153H49.1061V29.0727C49.135 26.2426 51.448 23.966 54.284 23.9756C55.5324 23.9756 56.5444 22.9649 56.5444 21.7199C56.5444 20.4741 55.5324 19.4641 54.284 19.4641C51.7187 19.4477 49.2533 20.4522 47.4327 22.2559C45.6122 24.0595 44.588 26.5128 44.5854 29.0727V29.099ZM23.8652 29.099V40.1325C23.8652 40.7323 24.1044 41.3076 24.5302 41.7298C24.956 42.1539 25.5334 42.3899 26.1344 42.3873H33.5551C34.157 42.3899 34.7352 42.1539 35.1619 41.7307C35.5894 41.3076 35.8303 40.7331 35.833 40.1325V32.771C35.833 32.1695 35.592 31.5933 35.1645 31.1693C34.737 30.7461 34.1578 30.5101 33.5551 30.5153H28.4123V29.0727C28.4359 26.254 30.7305 23.98 33.5551 23.9756C34.8035 23.9756 35.8154 22.9649 35.8154 21.7199C35.8154 20.4741 34.8035 19.4641 33.5551 19.4641C30.9916 19.4503 28.5279 20.4557 26.71 22.2594C24.8912 24.0622 23.8679 26.5146 23.8652 29.0727V29.099ZM26.59 52.7048C26.2053 52.7153 25.854 52.9269 25.6657 53.2617C25.4773 53.5975 25.479 54.0058 25.67 54.3397C25.8715 54.6807 30.6814 62.8116 40.2661 62.8116C49.8508 62.8116 54.5818 54.6807 54.8009 54.3397C54.9927 53.9996 54.9927 53.5861 54.8009 53.2469C54.609 52.9103 54.2507 52.7039 53.8634 52.7048H26.59Z" clip-rule="evenodd" fill-rule="evenodd"></path>
<path fill="#FF5551" d="M24.7941 0.369708C11.1582 0.33569 0.0674609 11.3212 0 24.9286V55.4414C0.0674609 69.0489 11.1582 80.0343 24.7941 80.0003H45.6982L31.9257 70.1811H24.7941C16.6041 70.2108 9.93866 63.6143 9.90011 55.4414V24.9286C9.96757 16.768 16.6164 10.1872 24.7941 10.1881H55.6071C63.7856 10.1872 70.4336 16.768 70.501 24.9286V55.4414C70.4336 63.602 63.7856 70.1819 55.6071 70.1811H49.7546V80.0003H55.6071C69.2447 80.0343 80.3372 69.0497 80.4099 55.4414V24.9286C80.3372 11.3203 69.2447 0.33569 55.6071 0.369708H24.7941Z" clip-rule="evenodd" fill-rule="evenodd"></path>
</svg>
