<svg xmlns="http://www.w3.org/2000/svg" fill="none" viewBox="0 0 127 80" height="80" width="127">
<path fill="black" d="M52.8784 36.7741L83.0646 0H86.5841V36.7741H81.3963V9.65635L59.2408 36.7741H52.8784ZM5.23075 31.8545H21.7432V36.8167H0.0429688V0.0468135H5.23075V31.8545ZM50.2611 14.393V19.5808H33.7487V31.8545H50.2611V36.8167H28.5566V0.0468135H50.2611V5.00904H33.7487V14.4398H50.2611V14.393ZM100.977 9.65635V36.7741H95.7893V0H99.5812L121.511 27.1178V0H126.699V36.7741H123.179L100.981 9.65635H100.977Z"></path>
<path fill="black" d="M20.4707 46.8902C18.7258 45.571 16.4702 44.6772 13.1507 44.6772H0.0429688V79.3618H4.93711V63.7431H13.1507C16.683 63.7431 18.6832 63.1047 20.4707 61.5301C22.4709 59.7852 23.7902 57.0615 23.7902 54.2102C23.7902 51.3588 22.4709 48.6777 20.4707 46.8902ZM17.4065 57.7425C16.5128 58.6362 15.151 59.3171 12.7252 59.3171L4.72432 59.5299V49.5288H12.7252C15.1935 49.5288 16.5128 50.2097 17.4065 51.1035C18.0449 51.9972 18.7258 53.1037 18.7258 54.423C18.7258 55.7423 18.3002 56.8488 17.4065 57.7425Z"></path>
<path fill="black" d="M35.6207 74.6804H50.984V79.3618H30.7266V44.6772H35.6207V74.6804Z"></path>
<path fill="black" d="M59.1979 75.3189C56.9849 72.8931 55.623 69.7438 55.623 65.105V44.6348H60.5172V65.3178C60.5172 68.6373 61.4109 70.6375 62.7302 72.2122C64.5176 74.2124 66.9434 75.3189 70.0501 75.3189C73.1568 75.3189 75.6252 74.2124 77.37 72.2122C78.6893 70.6375 79.583 68.6373 79.583 65.3178V44.6348H84.4772V65.105C84.4772 69.7864 83.1579 72.8931 80.9023 75.3189C78.2212 78.2128 74.4336 80.0002 70.0076 80.0002C65.5815 80.0002 61.879 78.2128 59.1979 75.3189Z"></path>
<path fill="black" d="M111.502 71.9993H108.182L97.9683 55.9976V79.3618H92.8613V44.6772H96.4362L109.799 65.8284L123.375 44.6772H126.695V79.3618H121.715V55.9976L111.502 71.9993Z"></path>
</svg>
