<svg xmlns="http://www.w3.org/2000/svg" fill="none" viewBox="0 0 80 80" height="80" width="80">
<path fill="#1F3121" d="M13.2152 40.1016C13.2152 43.7334 10.2553 46.6727 6.61034 46.6727C2.96533 46.6727 0 43.7334 0 40.1016C0 36.4696 2.95985 33.5303 6.60486 33.5303C10.2498 33.5303 13.2097 36.4751 13.2097 40.1016"></path>
<path fill="#1F3121" d="M39.9613 74.1559C20.9196 74.1559 5.42969 58.745 5.42969 39.8001C5.42969 20.8555 20.9196 5.44434 39.9613 5.44434C59.0031 5.44434 74.4929 20.8555 74.4929 39.8001C74.4929 58.745 59.0031 74.1559 39.9613 74.1559ZM39.9613 6.89492C21.7199 6.89492 6.8822 21.6569 6.8822 39.8057C6.8822 57.9542 21.7199 72.7164 39.9613 72.7164C58.2028 72.7164 73.0403 57.9542 73.0403 39.8057C73.0403 21.6569 58.1973 6.88946 39.9613 6.88946V6.89492Z"></path>
<path fill="#1F3121" d="M22.6433 15.9999C22.6433 19.6318 19.6835 22.5711 16.0385 22.5711C12.3934 22.5711 9.43359 19.6264 9.43359 15.9999C9.43359 12.3735 12.3934 9.42871 16.0385 9.42871C19.6835 9.42871 22.6433 12.3735 22.6433 15.9999Z"></path>
<path fill="#1F3121" d="M46.4128 6.57124C46.4128 10.2031 43.4531 13.1425 39.8081 13.1425C36.1631 13.1425 33.2031 10.1977 33.2031 6.57124C33.2031 2.9448 36.1576 0 39.8025 0C43.4475 0 46.4075 2.9448 46.4075 6.57124"></path>
<path fill="#1F3121" d="M44.4501 20.8195C44.4501 23.3662 42.3726 25.433 39.8128 25.433C37.2533 25.433 35.1758 23.3662 35.1758 20.8195C35.1758 18.2729 37.2533 16.2061 39.8128 16.2061C42.3726 16.2061 44.4501 18.2729 44.4501 20.8195Z"></path>
<path fill="#1F3121" d="M30.6805 26.3224C30.6805 28.8693 28.603 30.9361 26.0435 30.9361C23.4837 30.9361 21.4062 28.8693 21.4062 26.3224C21.4062 23.7758 23.4837 21.709 26.0435 21.709C28.603 21.709 30.6805 23.7758 30.6805 26.3224Z"></path>
<path fill="#1F3121" d="M25.6218 39.9504C25.6218 42.4972 23.5446 44.564 20.9848 44.564C18.425 44.564 16.3477 42.4972 16.3477 39.9504C16.3477 37.4037 18.425 35.3369 20.9848 35.3369C23.5446 35.3369 25.6218 37.4037 25.6218 39.9504Z"></path>
<path fill="#1F3121" d="M66.4258 40.1016C66.4258 43.7334 69.3856 46.6727 73.0305 46.6727C76.6755 46.6727 79.6408 43.7279 79.6408 40.1016C79.6408 36.4751 76.681 33.5303 73.0305 33.5303C69.38 33.5303 66.4258 36.4751 66.4258 40.1016Z"></path>
<path fill="#1F3121" d="M57.0117 15.9999C57.0117 19.6318 59.9717 22.5711 63.6167 22.5711C67.2616 22.5711 70.2214 19.6264 70.2214 15.9999C70.2214 12.3735 67.2616 9.42871 63.6167 9.42871C59.9717 9.42871 57.0117 12.3735 57.0117 15.9999Z"></path>
<path fill="#1F3121" d="M48.9648 26.3224C48.9648 28.8693 51.0421 30.9361 53.6019 30.9361C56.1616 30.9361 58.2389 28.8693 58.2389 26.3224C58.2389 23.7758 56.1616 21.709 53.6019 21.709C51.0421 21.709 48.9648 23.7758 48.9648 26.3224Z"></path>
<path fill="#1F3121" d="M54.0234 39.9504C54.0234 42.4972 56.1009 44.564 58.6605 44.564C61.2202 44.564 63.2977 42.4972 63.2977 39.9504C63.2977 37.4037 61.2202 35.3369 58.6605 35.3369C56.1009 35.3369 54.0234 37.4037 54.0234 39.9504Z"></path>
<path fill="#1F3121" d="M22.6239 63.9981C22.6239 60.366 19.6639 57.4268 16.0189 57.4268C12.3739 57.4268 9.41406 60.3716 9.41406 63.9981C9.41406 67.6244 12.3739 70.5692 16.0189 70.5692C19.6639 70.5692 22.6239 67.6244 22.6239 63.9981Z"></path>
<path fill="#1F3121" d="M46.3738 73.4268C46.3738 69.7947 43.414 66.8555 39.769 66.8555C36.1241 66.8555 33.1641 69.8003 33.1641 73.4268C33.1641 77.0533 36.1241 79.9979 39.769 79.9979C43.414 79.9979 46.3738 77.0533 46.3738 73.4268Z"></path>
<path fill="#1F3121" d="M44.4303 59.1838C44.4303 56.6316 42.353 54.5703 39.7933 54.5703C37.2335 54.5703 35.1562 56.6371 35.1562 59.1838C35.1562 61.7304 37.2335 63.7972 39.7933 63.7972C42.353 63.7972 44.4303 61.7304 44.4303 59.1838Z"></path>
<path fill="#1F3121" d="M30.661 53.6759C30.661 51.1293 28.5835 49.0625 26.0238 49.0625C23.464 49.0625 21.3867 51.1293 21.3867 53.6759C21.3867 56.2226 23.464 58.2894 26.0238 58.2894C28.5835 58.2894 30.661 56.2226 30.661 53.6759Z"></path>
<path fill="#1F3121" d="M56.9727 63.9981C56.9727 60.366 59.9324 57.4268 63.5774 57.4268C67.2226 57.4268 70.1824 60.3716 70.1824 63.9981C70.1824 67.6244 67.2226 70.5692 63.5774 70.5692C59.9324 70.5692 56.9727 67.6244 56.9727 63.9981Z"></path>
<path fill="#1F3121" d="M48.9453 53.6759C48.9453 51.1293 51.0228 49.0625 53.5826 49.0625C56.1421 49.0625 58.2196 51.1293 58.2196 53.6759C58.2196 56.2226 56.1421 58.2894 53.5826 58.2894C51.0228 58.2894 48.9453 56.2226 48.9453 53.6759Z"></path>
</svg>
