<svg xmlns="http://www.w3.org/2000/svg" fill="none" viewBox="0 0 81 81" height="81" width="81">
<g clip-path="url(#clip0_2997_582)">
<path fill="#20C58B" d="M16.5985 37.778C25.2752 40.441 30.945 47.6574 40.4806 47.6574C50.1882 47.6574 57.2326 38.3793 62.3871 37.778C67.026 37.1766 74.2424 38.8947 80.17 41.7297V18.277C80.2558 8.48355 72.3523 0.580078 62.5589 0.580078H18.4884C8.69497 0.580078 0.791504 8.48355 0.791504 18.277V40.441C5.08688 38.3793 11.444 36.1457 16.5985 37.778Z"></path>
<path fill="#5858E0" d="M62.3871 37.7779C57.2326 38.4653 50.1882 47.6573 40.4806 47.6573C31.2886 47.6573 25.361 40.4411 16.5985 37.7779C11.444 36.1456 5.08688 38.3793 0.791504 40.4411V62.2616C0.791504 72.055 8.69497 79.9585 18.4884 79.9585H62.5589C72.3523 79.9585 80.2558 72.055 80.2558 62.2616V41.6437C74.3281 38.8946 67.026 37.1765 62.3871 37.7779Z"></path>
<path fill="white" d="M18.1446 63.3784C15.052 63.3784 12.5607 60.8871 12.5607 57.7943V22.8301C12.5607 19.7374 15.052 17.2461 18.1446 17.2461C21.2373 17.2461 23.7286 19.7374 23.7286 22.8301V57.7085C23.7286 60.8011 21.2373 63.3784 18.1446 63.3784Z"></path>
<path fill="white" d="M40.4807 55.4745C37.3881 55.4745 34.8969 52.9833 34.8969 49.8907V30.7333C34.8969 27.6407 37.3881 25.1494 40.4807 25.1494C43.5733 25.1494 46.0648 27.6407 46.0648 30.7333V49.9765C46.0648 52.9833 43.5733 55.4745 40.4807 55.4745Z"></path>
<path fill="white" d="M62.8167 63.3784C59.7241 63.3784 57.2327 60.8871 57.2327 57.7943V22.8301C57.2327 19.7374 59.7241 17.2461 62.8167 17.2461C65.9093 17.2461 68.4008 19.7374 68.4008 22.8301V57.7085C68.4008 60.8011 65.9093 63.3784 62.8167 63.3784Z"></path>
</g>
<defs>
<clipPath id="clip0_2997_582">
<rect transform="translate(0.791504 0.580078)" fill="white" height="80" width="80"></rect>
</clipPath>
</defs>
</svg>
