<svg xmlns="http://www.w3.org/2000/svg" fill="none" viewBox="0 0 96 80" height="80" width="96">
<path fill="black" d="M24.158 79.7952C16.3826 79.7952 8.60716 79.7952 0.831731 79.7952C0.138622 79.7952 0 79.6566 0 78.9762C0 71.2387 0 63.4884 0 55.7256C0.51668 55.7256 0.730914 56.217 1.04596 56.5194C8.49794 63.9211 15.9373 71.3435 23.3641 78.7872C23.6665 79.0519 24.1328 79.2661 24.158 79.7952Z"></path>
<path fill="black" d="M71.0996 56.8637C73.0277 58.9806 75.0565 60.9844 77.1612 62.9126C77.4259 63.215 77.6778 63.5426 77.9677 63.8325C81.5594 67.4241 85.1759 70.9777 88.7551 74.5821C90.4562 76.3085 92.296 77.9088 93.7957 79.7993H67.7097C67.4451 79.4841 67.1928 79.1565 66.9032 78.8666C62.6269 74.6156 58.3464 70.352 54.0616 66.0757C39.4687 51.5245 24.8713 36.9735 10.2698 22.4224C6.86728 19.0325 3.56558 15.5543 0.0244141 12.3408V0.91083C4.57372 0.91083 9.13564 0.91083 13.6975 0.91083C14.06 0.897707 14.4211 0.96297 14.756 1.10216C15.0909 1.24135 15.3919 1.4512 15.6383 1.71736C27.6774 13.7144 39.7248 25.7115 51.7806 37.7086C52.0167 37.9401 52.2649 38.1589 52.5242 38.364C56.0654 41.9302 59.5939 45.5218 63.1603 49.0757C65.7816 51.6968 68.4531 54.2676 71.0996 56.8637Z"></path>
<path fill-opacity="0.7" fill="black" d="M93.8335 79.7977C92.2958 77.9072 90.4561 76.3066 88.7926 74.5803C85.2138 70.9762 81.5969 67.4225 78.0053 63.8309C77.7154 63.541 77.4634 63.2134 77.1988 62.911C77.1988 62.3689 77.1988 61.8398 77.1988 61.2977C77.1988 42.9156 77.1988 24.5252 77.1988 6.12633C77.1826 5.15123 77.5436 4.20758 78.207 3.49251C78.9115 2.53311 79.8612 1.78109 80.9567 1.31543C82.052 0.849773 83.2527 0.687657 84.4322 0.846109C87.7719 1.09815 91.1493 0.946927 94.5139 0.846109C95.5471 0.846109 95.7741 1.12335 95.7741 2.10631C95.7741 20.5556 95.7741 38.9754 95.7741 57.366C95.7741 64.3475 95.7741 71.3332 95.7741 78.3232C95.7741 78.8146 95.7741 79.306 95.8498 79.7977H93.8335Z"></path>
<path fill="black" d="M0 47.0444V20.9961C0.390661 21.0843 0.592293 21.4246 0.844333 21.6892L8.897 29.6412C23.7337 44.4359 38.5705 59.2306 53.4071 74.0253C55.2976 75.9155 57.3011 77.7175 59.0026 79.797H32.8659C32.8659 79.419 32.5006 79.2552 32.2736 79.0282C23.1414 69.9043 13.9924 60.7889 4.82657 51.682C3.30586 50.0469 1.69448 48.4985 0 47.0444Z"></path>
<path fill-opacity="0.7" fill="black" d="M71.0987 56.8616C68.4522 54.2655 65.7807 51.6947 63.1594 49.0736C59.593 45.5197 56.0645 41.9284 52.5233 38.3619C52.5233 35.5896 52.5233 32.8297 52.5233 30.0571C52.4956 29.774 52.531 29.488 52.6268 29.2199C52.7226 28.9521 52.8767 28.7084 53.0776 28.5072L70.4308 11.2424C70.5693 11.1038 70.7459 10.9904 70.8717 10.877C71.2625 11.0156 71.1491 11.3054 71.1491 11.5197C71.1491 26.432 71.1491 41.34 71.1491 56.2441C71.1452 56.4507 71.1285 56.657 71.0987 56.8616Z"></path>
</svg>
