<svg xmlns="http://www.w3.org/2000/svg" fill="none" viewBox="0 0 80 80" height="80" width="80">
<path fill="#4F5DA1" d="M40.0007 80.0078C17.945 80.0078 0 62.0635 0 40.0071C0.000712924 17.9521 17.945 0.0078125 40.0007 0.0078125C45.3291 0.0078125 50.5049 1.0387 55.3842 3.0741C56.7644 3.64943 57.416 5.23426 56.8393 6.61305C56.2654 7.99398 54.6798 8.64417 53.301 8.06955C49.0848 6.3122 44.6098 5.42033 40.0007 5.42033C20.9286 5.42033 5.41323 20.9357 5.41323 40.0071C5.41394 59.0792 20.9293 74.5953 40.0007 74.5953C59.0721 74.5953 74.5868 59.0792 74.5868 40.0071C74.5868 35.9185 73.8824 31.919 72.4915 28.1177C71.9761 26.7146 72.6975 25.1598 74.1013 24.6465C75.5065 24.1324 77.0599 24.8539 77.5739 26.2569C79.1837 30.6564 80.0007 35.2833 80.0007 40.0071C80.0007 62.0635 62.0571 80.0078 40.0007 80.0078Z" clip-rule="evenodd" fill-rule="evenodd"></path>
<path fill="#FFB900" d="M57.4991 35.9092L51.2695 42.374L54.7322 56.8299H62.5437L57.4991 35.9092Z" clip-rule="evenodd" fill-rule="evenodd"></path>
<path fill="#FFB900" d="M54.9589 16.7807L57.1134 18.933L39.9526 37.0619L25.3469 21.9978L16.9473 56.8291H24.7588L29.3935 37.4847L39.9526 49.0348L62.5993 24.379L64.7652 26.5606L66.9132 14.376L54.9589 16.7807Z" clip-rule="evenodd" fill-rule="evenodd"></path>
</svg>
