<svg xmlns="http://www.w3.org/2000/svg" fill="none" viewBox="0 0 62 80" height="80" width="62">
<g clip-path="url(#clip0_3369_429)">
<path fill="url(#paint0_linear_3369_429)" d="M31.0656 22.0078C14.5594 22.0078 1.17578 17.3462 1.17578 11.1914V68.8242C1.17578 74.7468 14.3266 79.5494 30.6453 79.6439H31.0656C47.5718 79.6439 60.9555 74.9796 60.9555 68.8242V11.1914C60.9555 17.2058 47.5718 22.0078 31.0656 22.0078Z"></path>
<path fill="#E8E8E8" d="M60.9555 11.1917C60.9555 17.2062 47.5718 22.0088 31.0656 22.0088C14.5594 22.0088 1.17578 17.3465 1.17578 11.1917C1.17578 5.03633 14.5594 0.37207 31.0656 0.37207C47.5718 0.37207 60.9555 5.03633 60.9555 11.1917Z"></path>
<path fill="#50E6FF" d="M54.009 10.3046C54.009 14.1289 43.7021 17.2056 31.066 17.2056C18.4299 17.2056 8.12305 14.1289 8.12305 10.3046C8.12305 6.48036 18.4299 3.4502 31.066 3.4502C43.7021 3.4502 54.009 6.52626 54.009 10.3046Z"></path>
<path fill="#198AB3" d="M31.0656 12.0293C24.9114 11.8731 18.7758 12.7724 12.9253 14.6883C18.7813 16.5689 24.9188 17.4208 31.0656 17.2063C37.2249 17.3861 43.3671 16.4702 49.206 14.5014C43.3385 12.6752 37.2078 11.8397 31.0656 12.0293Z"></path>
<path fill="url(#paint1_radial_3369_429)" d="M49.2519 51.1984V35.346H45.0539V54.603H56.5267V51.1984H49.2519ZM15.9581 43.4116C15.0914 43.063 14.2876 42.575 13.5785 41.967C13.3905 41.7679 13.2442 41.5333 13.1482 41.2769C13.0523 41.0204 13.0086 40.7474 13.0198 40.4739C13.0055 40.2001 13.0625 39.9274 13.1852 39.6822C13.3078 39.4371 13.4919 39.2279 13.7194 39.0752C14.2933 38.6783 14.9818 38.4813 15.6788 38.5145C17.3392 38.4406 18.9778 38.9158 20.3411 39.8666V35.8581C18.852 35.3022 17.267 35.0487 15.6788 35.1125C13.8491 35.0144 12.0449 35.5761 10.5942 36.6955C9.96238 37.183 9.45548 37.8138 9.11528 38.5357C8.77507 39.2576 8.61131 40.05 8.63747 40.8476C8.63747 43.2247 10.128 45.0896 13.2998 46.4883C14.3293 46.9263 15.2998 47.4896 16.1916 48.1683C16.4095 48.351 16.585 48.5791 16.7057 48.8367C16.8264 49.0942 16.8895 49.375 16.8906 49.6594C16.8906 50.2358 16.6112 50.7735 16.145 51.1066C15.5094 51.4774 14.7796 51.6554 14.0447 51.6188C12.1692 51.6031 10.3633 50.9068 8.96272 49.6594V53.9958C10.5026 54.7906 12.221 55.1761 13.9529 55.1152C15.907 55.2306 17.8434 54.6903 19.4545 53.5755C20.0233 53.0369 20.4586 52.3732 20.7259 51.6369C20.9931 50.9006 21.085 50.1122 20.9942 49.3342C21.017 48.1405 20.6023 46.9797 19.8283 46.0706C18.7387 44.9229 17.4202 44.017 15.9581 43.4116ZM40.3922 50.8247C41.4508 49.052 41.9845 47.0153 41.9312 44.9512C41.8257 43.2031 41.2976 41.5068 40.3922 40.0076C39.6643 38.5518 38.5309 37.3376 37.1286 36.5112C35.7071 35.7049 34.0986 35.2861 32.4644 35.2968C30.7032 35.2588 28.964 35.6941 27.4283 36.5571C25.9886 37.3602 24.8078 38.5571 24.0244 40.0076C23.1989 41.656 22.7832 43.4791 22.8126 45.3224C22.8218 46.9428 23.2049 48.5392 23.9319 49.9873C24.6439 51.4271 25.7624 52.6265 27.1489 53.4371C28.5575 54.2951 30.163 54.7767 31.8112 54.8358L35.8224 59.4981H41.465L35.7273 54.3703C37.6595 53.7906 39.3165 52.5311 40.3922 50.8247ZM35.7273 49.6594C35.3032 50.1868 34.7626 50.6085 34.148 50.8916C33.5333 51.1747 32.8614 51.3114 32.185 51.2909C31.5033 51.3134 30.826 51.1729 30.2094 50.881C29.5929 50.5892 29.0549 50.1544 28.6401 49.6129C27.6563 48.2658 27.1774 46.6157 27.2873 44.9512C27.1802 43.2863 27.6588 41.6363 28.6401 40.287C29.0788 39.7458 29.6334 39.31 30.2629 39.0115C30.8924 38.713 31.5808 38.5596 32.2775 38.5624C32.9587 38.5323 33.6365 38.6746 34.2481 38.976C34.8597 39.2775 35.3854 39.7284 35.7765 40.287C36.6944 41.6624 37.1362 43.3008 37.0342 44.9512C37.198 46.6284 36.7322 48.3066 35.7273 49.6594Z"></path>
</g>
<defs>
<linearGradient gradientUnits="userSpaceOnUse" y2="45.4169" x2="60.9556" y1="45.4169" x1="1.17563" id="paint0_linear_3369_429">
<stop stop-color="#005BA1"></stop>
<stop stop-color="#0060A9" offset="0.07"></stop>
<stop stop-color="#0071C8" offset="0.36"></stop>
<stop stop-color="#0078D4" offset="0.52"></stop>
<stop stop-color="#0074CD" offset="0.64"></stop>
<stop stop-color="#006ABB" offset="0.82"></stop>
<stop stop-color="#005BA1" offset="1"></stop>
</linearGradient>
<radialGradient gradientTransform="translate(34173 11002.9) scale(24728.1 6414.24)" gradientUnits="userSpaceOnUse" r="1" cy="0" cx="0" id="paint1_radial_3369_429">
<stop stop-color="#F2F2F2"></stop>
<stop stop-color="#EEEEEE" offset="0.58"></stop>
<stop stop-color="#E6E6E6" offset="1"></stop>
</radialGradient>
<clipPath id="clip0_3369_429">
<rect transform="translate(0.901855 0.0078125)" fill="white" height="80" width="61"></rect>
</clipPath>
</defs>
</svg>
