<svg xmlns="http://www.w3.org/2000/svg" fill="none" viewBox="0 0 41 80" height="80" width="41">
<g clip-path="url(#clip0_3369_480)">
<path fill="#C72C48" d="M30.4067 4.78809L40.6398 21.5361C40.6636 21.5692 40.6764 21.609 40.6764 21.6499C40.6764 21.6907 40.6636 21.7305 40.6398 21.7637C40.6225 21.7824 40.6016 21.7974 40.5783 21.8076C40.5549 21.8178 40.5297 21.8231 40.5043 21.8231C40.4788 21.8231 40.4536 21.8178 40.4303 21.8076C40.407 21.7974 40.386 21.7824 40.3688 21.7637L27.1113 7.94256L30.4067 4.78809Z"></path>
<path fill="#C72C48" d="M7.80488 49.8725C10.0503 45.1201 13.1017 40.7924 16.8238 37.0812C18.2397 35.666 19.746 34.3443 21.3333 33.1246V42.8807L7.80488 49.8725ZM0 58.9132L21.3333 48.0731V72.8969L26.1355 79.1408V45.5365L29.0515 44.0297C31.0684 43.0137 32.8195 41.5397 34.1647 39.7257C35.5099 37.9117 36.4119 35.8081 36.7985 33.5831C37.1852 31.3581 37.0457 29.0735 36.3913 26.912C35.7369 24.7506 34.5857 22.7723 33.0298 21.1354L22.0488 9.65573C21.6108 9.18331 21.3776 8.5568 21.3999 7.91299C21.4222 7.26918 21.6984 6.66035 22.168 6.21942C22.6423 5.78081 23.2705 5.54726 23.9161 5.56959C24.5617 5.59192 25.1724 5.86833 25.6152 6.33866L27.1545 7.943L30.4065 4.77769C26.5149 -0.273804 21.7344 0.365762 18.9919 2.89151C17.6428 4.16346 16.8532 5.91854 16.7963 7.77185C16.7394 9.62515 17.4198 11.4254 18.6883 12.7777L29.7886 24.3441C30.7965 25.4253 31.5498 26.7183 31.9931 28.1284C32.4364 29.5385 32.5587 31.03 32.3508 32.4934C32.1429 33.9569 31.6102 35.3553 30.7917 36.5862C29.9733 37.817 28.8897 38.8492 27.6206 39.607L26.1138 40.3874V24.7018C19.504 28.1071 13.7328 32.9376 9.21681 38.8446C4.70084 44.7515 1.55281 51.5875 0 58.859L0 58.9132Z"></path>
<path fill="#C72C48" d="M26.1357 45.5254V50.5986L21.3335 53.0376V47.9969L26.1357 45.5254Z"></path>
</g>
<defs>
<clipPath id="clip0_3369_480">
<rect transform="translate(0 0.0078125)" fill="white" height="80" width="41"></rect>
</clipPath>
</defs>
</svg>
