<svg xmlns="http://www.w3.org/2000/svg" fill="none" viewBox="0 0 83 80" height="80" width="83">
<path fill="#043F2E" d="M82.413 63.0139C82.413 62.2468 82.413 61.8632 82.3361 61.5457C82.0891 60.5401 81.2876 59.7528 80.2613 59.5124C79.9374 59.4371 79.5459 59.4371 78.7633 59.4371H76.2279C75.445 59.4371 75.0538 59.4371 74.7298 59.3618C73.7036 59.1196 72.9003 58.3342 72.6548 57.3286C72.5781 57.011 72.5781 56.6274 72.5781 55.8603V37.3302C72.5781 36.5632 72.5781 36.1777 72.6569 35.862C72.9039 34.8546 73.7054 34.0692 74.7335 33.8288C75.0575 33.7535 75.4489 33.7535 76.2316 33.7535H78.7651C79.548 33.7535 79.9411 33.7535 80.2632 33.6782C81.2913 33.4378 82.0928 32.6505 82.34 31.6449C82.4185 31.3274 82.4186 30.9438 82.4186 30.1767V3.58646C82.4186 2.81933 82.4185 2.43395 82.3419 2.11829C82.0946 1.1126 81.2931 0.325302 80.2671 0.084891C79.9431 0.0096477 79.5517 0.0096477 78.769 0.0096477H62.8296C62.3332 0.0096477 62.0843 0.0096477 61.8559 0.0463517C61.1386 0.163805 60.4944 0.547362 60.0619 1.11994C59.9232 1.30163 59.8109 1.51818 59.5825 1.95129L44.3135 31.0503L29.2279 1.96597C29.0013 1.52919 28.889 1.3108 28.7503 1.12729C28.3159 0.551031 27.6717 0.163805 26.9508 0.0445164C26.7205 0.0078125 26.4714 0.0078125 25.9716 0.0078125H4.42935C3.64662 0.0078125 3.25338 0.0078125 2.93131 0.0830556C1.90325 0.325302 1.10179 1.11077 0.854607 2.11829C0.777832 2.43578 0.777832 2.81933 0.777832 3.58646V15.6529C0.777832 16.42 0.777832 16.8054 0.854607 17.1211C1.10179 18.1268 1.90325 18.914 2.92943 19.1545C3.25338 19.2297 3.64476 19.2297 4.42749 19.2297H6.87307C7.65581 19.2297 8.04905 19.2297 8.37114 19.3049C9.39731 19.5472 10.2006 20.3326 10.446 21.3383C10.5227 21.6558 10.5227 22.0394 10.5227 22.8065V40.3454C10.5227 41.1127 10.5227 41.4961 10.446 41.8136C10.1988 42.8195 9.39731 43.6067 8.37114 43.8471C8.04719 43.9224 7.65581 43.9224 6.87307 43.9224H4.42749C3.64476 43.9224 3.25152 43.9224 2.92943 43.9975C1.90325 44.2397 1.09992 45.0254 0.854607 46.031C0.777832 46.3485 0.777832 46.7321 0.777832 47.4992V76.3027C0.777832 77.0698 0.777832 77.455 0.854607 77.7707C1.10179 78.7765 1.90325 79.5638 2.92943 79.8042C3.25338 79.8795 3.64476 79.8795 4.42749 79.8795H26.4528C27.2355 79.8795 27.6288 79.8795 27.9509 79.8042C28.9769 79.562 29.7803 78.7765 30.0257 77.7707C30.1024 77.4532 30.1024 77.0698 30.1024 76.3027V63.0065C30.1024 62.2395 30.1024 61.8558 30.0257 61.5383C29.7784 60.5327 28.9769 59.7455 27.9509 59.5051C27.6269 59.4298 27.2355 59.4298 26.4528 59.4298H24.0334C23.2507 59.4298 22.8593 59.4298 22.5353 59.3545C21.5092 59.1122 20.7058 58.3268 20.4605 57.3212C20.3837 57.0037 20.3837 56.6201 20.3837 55.853V28.6607L36.282 59.5014C36.7014 60.3144 36.9111 60.7217 37.1322 60.9347C37.8494 61.6246 38.9953 61.6357 39.7256 60.9586C39.9522 60.7511 40.1694 60.3474 40.6038 59.5418L58.2454 26.9064V55.8567C58.2454 56.6237 58.2454 57.0074 58.1687 57.3249C57.9214 58.3305 57.1199 59.1178 56.0939 59.3581C55.7699 59.4334 55.3785 59.4334 54.5958 59.4334H49.8826C49.0997 59.4334 48.7064 59.4334 48.3845 59.5087C47.3583 59.751 46.5549 60.5364 46.3095 61.542C46.2328 61.8595 46.2328 62.2431 46.2328 63.0102V76.431C46.2328 77.1981 46.2328 77.5817 46.3095 77.8993C46.5568 78.9049 47.3583 79.6921 48.3845 79.9327C48.7085 80.0078 49.0997 80.0078 49.8826 80.0078H78.7614C79.5441 80.0078 79.9355 80.0078 80.2595 79.9327C81.2858 79.6903 82.0891 78.9049 82.3343 77.8993C82.411 77.5817 82.411 77.1981 82.411 76.431V63.0102L82.413 63.0139Z"></path>
</svg>
