<svg xmlns="http://www.w3.org/2000/svg" fill="none" viewBox="0 0 80 80" height="80" width="80">
<circle fill="white" r="40" cy="40.0078" cx="40"></circle>
<path fill="#00237C" d="M20.8657 68.4354C23.7063 63.754 31.6946 60.3789 40.0643 60.3789C48.1267 60.3789 56.4186 63.754 59.2592 68.4354C53.8855 72.04 47.2823 74.1124 40.0643 74.1124C32.7685 74.1124 26.2431 72.1177 20.8657 68.4354Z"></path>
<path fill="#00237C" d="M6.73682 40.4283C6.73682 20.7848 21.0987 6.74414 40.064 6.74414C59.1033 6.74414 73.3874 20.7848 73.31 40.3506C73.31 48.9437 70.5469 56.4636 65.8621 62.2183C62.0216 58.8432 56.2628 55.6199 49.504 54.3172C53.1926 51.3973 55.7258 46.5678 55.7258 39.814C55.7258 28.1529 48.2004 22.7795 39.9862 22.7795C31.7683 22.7795 24.2466 28.0752 24.2466 39.814C24.2466 46.5678 26.7798 51.401 30.5425 54.3172C23.7837 55.6199 18.0249 58.8432 14.1844 62.296C9.50328 56.5413 6.73682 48.9437 6.73682 40.4283Z"></path>
</svg>
