<svg xmlns="http://www.w3.org/2000/svg" fill="none" viewBox="0 0 81 80" height="80" width="81">
<g clip-path="url(#clip0_3314_498)">
<path fill="#FF4F00" d="M70.748 0H10.748C5.2252 0 0.748047 4.47715 0.748047 10V70C0.748047 75.5229 5.2252 80 10.748 80H70.748C76.2709 80 80.748 75.5229 80.748 70V10C80.748 4.47715 76.2709 0 70.748 0Z"></path>
<path fill="white" d="M44.9581 41.0439H36.5371V59.9929H44.9581V41.0439Z"></path>
<path fill="white" d="M59.0024 34.729H61.8024V59.992H53.3824V34.729H56.2004V29.278C55.3227 29.0357 54.5228 28.5701 53.8787 27.9265C53.2347 27.283 52.7684 26.4835 52.5254 25.606H49.7474L40.7474 34.606L31.7474 25.606H28.9784C28.7355 26.4825 28.2698 27.2812 27.6267 27.9243C26.9835 28.5675 26.1849 29.0331 25.3084 29.276V47.36H28.1154V59.994H19.6954V47.36H22.5014V29.276C21.6142 29.0306 20.8069 28.5569 20.16 27.9021C19.513 27.2473 19.0491 26.4343 18.8145 25.5442C18.5799 24.6542 18.5827 23.7182 18.8228 22.8295C19.0629 21.9409 19.5318 21.1308 20.1827 20.48C20.8336 19.8292 21.6438 19.3604 22.5325 19.1205C23.4211 18.8805 24.3572 18.8778 25.2472 19.1126C26.1372 19.3473 26.9501 19.8114 27.6048 20.4584C28.2595 21.1054 28.7331 21.9128 28.9784 22.8H32.9084L40.7474 30.639L48.5874 22.8H52.5164C52.7617 21.913 53.2353 21.1058 53.8899 20.459C54.5445 19.8122 55.3573 19.3482 56.2471 19.1135C57.137 18.8788 58.0728 18.8814 58.9613 19.1212C59.8498 19.361 60.66 19.8295 61.3109 20.48C61.9618 21.1306 62.4309 21.9404 62.6712 22.8287C62.9115 23.7171 62.9147 24.6529 62.6805 25.5429C62.4464 26.4329 61.9829 27.246 61.3365 27.901C60.6901 28.556 59.8832 29.0301 58.9964 29.276L59.0024 34.729Z"></path>
</g>
<defs>
<clipPath id="clip0_3314_498">
<rect transform="translate(0.748047)" fill="white" height="80" width="80"></rect>
</clipPath>
</defs>
</svg>
