<svg xmlns="http://www.w3.org/2000/svg" fill="none" viewBox="0 0 134 80" height="80" width="134">
<path fill="#F62B54" d="M17.2657 79.6182C14.3304 79.6246 11.446 78.8518 8.90724 77.3785C6.36845 75.9053 4.26623 73.7846 2.81535 71.233C1.38666 68.6994 0.674144 65.8248 0.754108 62.9172C0.834072 60.0097 1.70351 57.1786 3.26928 54.7273L33.0273 7.9971C34.5504 5.48562 36.7128 3.42341 39.2937 2.02111C41.8745 0.618806 44.7813 -0.0733343 47.7172 0.0153857C50.6509 0.0856876 53.5132 0.934157 56.0112 2.47397C58.5092 4.01378 60.5533 6.18964 61.9343 8.77888C64.7083 14.0244 64.3616 20.3354 61.039 25.2593L31.2999 71.9895C29.7918 74.3396 27.7148 76.2709 25.2615 77.6044C22.8082 78.938 20.0579 79.6306 17.2657 79.6182Z"></path>
<path fill="#FFCC00" d="M68.3088 79.6171C62.3068 79.6171 56.7839 76.408 53.8838 71.2508C52.4583 68.7241 51.7474 65.8571 51.8274 62.9571C51.9073 60.0571 52.7751 57.2336 54.3377 54.7893L84.039 8.16625C85.5397 5.61946 87.6943 3.52051 90.2796 2.0871C92.8648 0.653693 95.7865 -0.0619802 98.7415 0.0143091C104.794 0.146707 110.279 3.53232 113.053 8.82824C115.808 14.1242 115.405 20.473 111.981 25.3843L82.2863 72.0074C80.7829 74.3474 78.7143 76.2711 76.2715 77.6011C73.8287 78.931 71.0902 79.6244 68.3088 79.6171Z"></path>
<path fill="#00CA72" d="M118.211 80.0079C126.672 80.0079 133.531 73.2927 133.531 65.0091C133.531 56.7255 126.672 50.0103 118.211 50.0103C109.75 50.0103 102.891 56.7255 102.891 65.0091C102.891 73.2927 109.75 80.0079 118.211 80.0079Z"></path>
</svg>
