<svg xmlns="http://www.w3.org/2000/svg" fill="none" viewBox="0 0 89 80" height="80" width="89">
<path fill="#0F172F" d="M88.2995 40.0589C88.2995 33.2007 82.8701 27.1998 73.7258 22.9134C74.5831 13.1976 72.0112 5.19635 66.0103 1.76724C60.0094 -1.66186 52.2939 0.0526899 44.2926 5.76787C44.0069 5.48211 43.7211 5.48211 43.4354 5.19635C35.4341 -0.233069 27.7186 -1.3761 22.0034 1.76724C16.0025 5.19635 13.7164 13.1976 14.5737 22.9134C5.42942 27.1998 0 33.2007 0 40.0589C0 46.9172 5.42942 52.9181 14.5737 57.2045C14.5737 57.4902 14.5737 57.776 14.5737 58.0618C14.0022 67.7776 16.574 74.9215 22.2892 78.0649C24.2895 79.2079 26.8613 79.7794 29.1474 79.7794C33.7196 79.7794 39.149 77.7791 44.2926 74.0643C49.7221 77.7791 54.8657 79.7794 59.4379 79.7794C61.7239 79.7794 64.2958 79.2079 66.2961 78.0649C72.0113 74.9215 74.5831 67.7776 74.0116 58.0618C74.0116 57.776 74.0116 57.4902 74.0116 57.2045C82.8701 53.2039 88.2995 46.9172 88.2995 40.0589ZM59.4379 4.91059C60.8666 4.91059 62.5812 5.19635 64.01 6.05363C67.7249 8.05394 69.7252 13.7691 69.4394 20.9131C65.4388 19.4843 61.4382 18.627 57.1518 18.0555C54.2942 14.6264 51.4366 11.483 48.2933 8.91122C52.2939 6.33939 56.2945 4.91059 59.4379 4.91059ZM19.7174 26.0568C22.2892 25.1995 24.861 24.3422 27.4329 23.7707C26.2898 25.1995 25.1468 26.914 24.2895 28.6286C23.4322 30.3431 22.2892 32.0577 21.7177 33.7722C20.8604 31.2004 20.0031 28.6286 19.7174 26.0568ZM54.2942 57.776C50.8651 58.0618 47.436 58.3475 44.2926 58.3475C41.1493 58.3475 37.4344 58.0618 34.2911 57.776C32.005 57.4902 29.7189 57.2045 27.4329 56.633C24.861 56.0614 22.2892 55.2042 19.7174 54.3469C20.0031 51.4893 20.8604 48.9175 21.4319 46.6314C22.2892 44.3453 22.8607 42.345 24.0037 40.0589C25.4325 36.9156 26.8613 33.7722 28.5759 30.9147C30.2904 28.0571 32.005 25.1995 34.2911 22.3419C35.7199 20.3416 37.1487 18.627 38.5775 16.9125C40.292 14.9122 42.2923 13.1976 44.2926 11.483C46.2929 13.1976 48.2933 14.9122 50.0078 16.9125C51.4366 18.627 52.8654 20.3416 54.2942 22.3419C56.2945 24.9137 58.2948 27.7713 60.0094 30.9147C61.7239 33.7722 63.1527 36.9156 64.5815 40.0589C65.4388 42.345 66.2961 44.3453 66.8676 46.6314C67.7249 49.2032 68.2964 51.7751 68.5821 54.3469C66.0103 55.2042 63.4385 56.0614 60.8666 56.633C58.8663 56.9187 56.5803 57.4902 54.2942 57.776ZM44.2926 63.2054C46.2929 63.2054 48.2933 63.2054 50.0078 62.9197C48.2933 64.92 46.2929 66.6345 44.2926 68.3491C42.2923 66.6345 40.292 64.92 38.5775 62.9197C40.292 62.9197 42.2923 63.2054 44.2926 63.2054ZM66.8676 33.7722C66.0103 32.0577 65.153 30.3431 64.2958 28.6286C63.4385 26.914 62.2954 25.1995 61.1524 23.7707C63.7242 24.3422 66.2961 25.1995 68.8679 26.0568C68.2964 28.6286 67.7249 31.2004 66.8676 33.7722ZM24.5753 6.05363C26.0041 5.19635 27.4329 4.91059 29.1474 4.91059C32.2908 4.91059 36.2914 6.33939 40.292 8.91122C37.1487 11.7688 34.2911 14.6264 31.4335 18.0555C27.1471 18.627 23.1465 19.4843 19.1458 20.9131C18.8601 13.4834 20.8604 8.05394 24.5753 6.05363ZM4.8579 40.0589C4.8579 35.4868 8.85853 31.2004 15.1452 28.0571C16.0025 32.0577 17.1455 36.0583 18.5743 40.0589C17.1455 44.0596 15.7167 48.0602 15.1452 52.0608C8.57277 48.9175 4.8579 44.3453 4.8579 40.0589ZM28.8617 75.2073C27.4329 75.2073 25.7183 74.9215 24.2895 74.0643C20.5746 71.7782 18.5743 66.3488 18.8601 59.2048C22.8607 60.6336 26.8613 61.4909 31.1477 62.3481C33.7196 65.7772 36.5771 68.6348 40.0062 71.4924C36.0056 74.0643 32.2908 75.2073 28.8617 75.2073ZM64.01 74.0643C60.2951 76.0646 54.58 75.2073 48.2933 71.2067C51.4366 68.3491 54.2942 65.4915 57.1518 62.0624C61.4382 61.4909 65.4388 60.3478 69.4394 58.919C69.4394 66.6345 67.7249 72.0639 64.01 74.0643ZM73.1543 52.3466C72.297 48.346 71.154 44.0596 69.7252 40.3447C71.154 36.3441 72.5828 32.3435 73.1543 28.3428C79.441 31.4862 83.4416 35.7726 83.4416 40.3447C83.4416 44.3453 79.7267 48.9175 73.1543 52.3466Z"></path>
<path fill="#0F172F" d="M44.2924 25.4854C38.5772 32.9151 34.5766 41.4879 32.2905 50.3464L44.2924 43.7739L56.2943 50.3464C55.1512 45.7742 53.4367 41.2021 51.4364 36.9157C49.1503 33.2008 46.8642 29.2002 44.2924 25.4854Z"></path>
</svg>
