<svg xmlns="http://www.w3.org/2000/svg" fill="none" viewBox="0 0 136 80" height="80" width="136">
<path fill="#782EFF" d="M101.619 13.8259V48.6432C101.625 49.0063 101.724 49.3622 101.908 49.6753C102.093 49.9884 102.355 50.248 102.67 50.4294C102.984 50.6103 103.341 50.7065 103.704 50.7082C104.067 50.7104 104.425 50.6176 104.742 50.4396L134.683 33.0311C134.993 32.8448 135.249 32.5814 135.427 32.2666C135.606 31.9518 135.699 31.5963 135.699 31.2346C135.699 30.8729 135.606 30.5174 135.427 30.2026C135.249 29.8878 134.993 29.6245 134.683 29.4382L104.742 12.0296C104.425 11.8516 104.067 11.7589 103.704 11.7608C103.341 11.7626 102.984 11.8588 102.67 12.04C102.355 12.2211 102.093 12.481 101.908 12.7941C101.724 13.1072 101.625 13.4628 101.619 13.8259Z"></path>
<path fill="#F40953" d="M34.2894 66.2644V31.4897C34.2974 31.1214 34.206 30.7579 34.025 30.437C33.844 30.1161 33.5801 29.8498 33.2607 29.6661C32.9414 29.4824 32.5784 29.388 32.2101 29.3928C31.8417 29.3975 31.4814 29.5014 31.167 29.6934L1.01202 47.0593C0.702539 47.251 0.447179 47.5187 0.270073 47.837C0.0929659 48.1548 0 48.5128 0 48.8772C0 49.2412 0.0929659 49.5992 0.270073 49.9174C0.447179 50.2357 0.702539 50.503 1.01202 50.6951L31.167 68.0609C31.4814 68.2525 31.8417 68.3565 32.2101 68.3612C32.5784 68.3659 32.9414 68.2718 33.2607 68.0879C33.5801 67.9044 33.844 67.6379 34.025 67.3171C34.206 66.9963 34.2974 66.6327 34.2894 66.2644Z"></path>
<path fill="#FF9408" d="M50.7598 43.1685V77.943C50.7649 78.3061 50.8646 78.6616 51.0489 78.9747C51.2329 79.2877 51.4955 79.5478 51.8103 79.7287C52.1251 79.9101 52.4814 80.0063 52.845 80.008C53.2081 80.0098 53.5653 79.9174 53.8822 79.7394L83.8234 62.3308C84.1442 62.1533 84.4119 61.8928 84.598 61.5767C84.784 61.261 84.8824 60.9009 84.8824 60.5343C84.8824 60.1673 84.784 59.8076 84.598 59.4915C84.4119 59.1754 84.1442 58.9154 83.8234 58.7379L53.8822 41.3292C53.5623 41.1495 53.2009 41.0569 52.8343 41.0607C52.4673 41.0644 52.108 41.1643 51.7919 41.3504C51.4758 41.5366 51.2141 41.8026 51.0331 42.1216C50.8518 42.4405 50.7577 42.8015 50.7598 43.1685Z"></path>
<path fill="#39C4C3" d="M85.1436 36.8795V2.105C85.1517 1.73668 85.0601 1.37299 84.8792 1.05212C84.6983 0.731252 84.434 0.465046 84.1149 0.281323C83.7954 0.0976039 83.4326 0.00319955 83.0644 0.00798586C82.6961 0.0127764 82.3355 0.116642 82.0211 0.308603L52.08 17.6745C51.76 17.858 51.4944 18.1228 51.3096 18.442C51.1249 18.7611 51.0273 19.1234 51.0273 19.4923C51.0273 19.8611 51.1249 20.2235 51.3096 20.5426C51.4944 20.8618 51.76 21.1265 52.08 21.31L82.0211 38.676C82.3355 38.868 82.6961 38.9717 83.0644 38.9765C83.4326 38.9813 83.7954 38.8869 84.1149 38.7032C84.434 38.5195 84.6983 38.2532 84.8792 37.9324C85.0601 37.6115 85.1517 37.2478 85.1436 36.8795Z"></path>
</svg>
