<svg xmlns="http://www.w3.org/2000/svg" fill="none" viewBox="0 0 161 80" height="80" width="161">
<g clip-path="url(#clip0_3370_65)">
<path fill="#272D3F" d="M22.1253 51.3359C18.4222 51.6484 14.9534 51.0859 11.7034 49.6172C8.4534 48.1172 5.78153 45.9141 3.7034 43.0234C1.65653 40.0703 0.453405 36.6641 0.125279 32.7734C-0.202845 28.8828 0.406529 25.3359 1.93778 22.1172C3.5159 18.8672 5.7659 16.2422 8.71903 14.2734C11.6722 12.3047 15.0159 11.1328 18.7034 10.8203C22.4378 10.5078 25.9065 11.0703 29.1253 12.5391C32.3753 13.9922 35.0159 16.1953 37.0784 19.1484C39.1253 22.0703 40.3284 25.4609 40.6565 29.3516C40.9847 33.2422 40.3753 36.8047 38.844 40.0547C37.3128 43.2734 35.0784 45.8984 32.1097 47.8984C29.1565 49.8672 25.8284 51.0234 22.1253 51.3359ZM21.2659 41.1328C24.0628 40.8984 26.2034 39.7891 27.6565 37.8359C29.1565 35.8516 29.7503 33.3516 29.5003 30.2734C29.2347 27.1328 28.2034 24.7422 26.4222 23.0859C24.6565 21.3828 22.3753 20.6484 19.5784 20.8828C16.7503 21.1172 14.594 22.2266 13.1409 24.1797C11.6878 26.1016 11.094 28.6484 11.3597 31.7734C11.6253 34.8672 12.6409 37.2734 14.3909 38.9609C16.1253 40.6641 18.4378 41.3672 21.2659 41.1328ZM54.3753 6.07031L57.469 47.5859L46.469 48.3984L43.3753 6.88281L54.3753 6.07031ZM60.5003 31.2891C60.2659 28.0391 60.6409 25.1484 61.6253 22.6328C62.6409 20.1172 64.1097 18.1328 66.0472 16.6641C68.0159 15.2109 70.2347 14.3828 72.7503 14.1953C74.9222 14.0391 76.8128 14.3359 78.4534 15.0859C80.094 15.8359 81.3909 16.9141 82.3596 18.2891L82.0471 13.9141L93.0472 13.1172L95.344 44.6016L84.344 45.3984L84.0315 41.0234C83.2815 42.5547 82.1409 43.7891 80.5784 44.7734C79.0628 45.7422 77.2503 46.3203 75.1253 46.4766C72.6096 46.6641 70.2972 46.1641 68.1409 45.0078C66.0159 43.8516 64.2815 42.0859 62.9065 39.7422C61.5315 37.3672 60.7347 34.5547 60.5003 31.2891ZM83.1878 30.0703C83.1878 28.0391 82.6253 26.4453 81.5003 25.2891C80.4065 24.1328 79.0628 23.5391 77.4534 23.5391C75.7972 23.5391 74.4378 24.1172 73.344 25.2891C72.2503 26.4141 71.719 28.0078 71.719 30.0703C71.719 32.1016 72.2659 33.7109 73.344 34.9141C74.4378 36.0703 75.7972 36.6641 77.4534 36.6641C79.0628 36.6641 80.4221 36.0859 81.5003 34.9141C82.6253 33.7578 83.1878 32.1328 83.1878 30.0703ZM109.219 17.7266C110.328 15.8516 111.719 14.3203 113.407 13.1328C115.094 11.9609 116.938 11.2891 118.969 11.1484L119.813 22.8672L116.735 23.0859C114.328 23.2578 112.594 23.8516 111.5 24.8672C110.422 25.8828 109.938 27.5547 110.11 29.8672L111.094 43.6328L100.094 44.4297L97.8284 12.9453L108.828 12.1484L109.219 17.7266ZM144.719 41.0234L135.141 28.7109L136.016 41.6172L125.016 42.3672L122.203 0.835938L133.203 0.0859375L134.719 22.4766L142.578 9.53906L155.766 8.64844L144.422 25.3047L158.11 40.1016L144.719 41.0234Z"></path>
<path fill="#272D3F" d="M159.484 44.8829C158.891 44.9298 158.719 45.7735 156.266 45.961L150.875 46.3673L150.859 46.3517L52.0156 53.8985C50.9375 53.9767 49.9219 54.4767 49.1563 55.2892L37.8594 67.4142V56.1642C37.8594 55.461 37.2969 54.9454 36.5937 54.9923L23.0625 56.0235L7.125 57.086C5.09375 57.2423 3.40625 59.1329 3.40625 61.8985C3.40625 63.0704 3.75 64.5548 4.34375 64.5235C4.9375 64.4767 5.10938 63.6329 7.5625 63.4454L30.3281 61.6954C31.0469 61.6642 31.625 62.211 31.625 62.9298V78.1642C31.625 79.9142 33.75 80.6173 34.9844 79.2892L51.7344 61.3517C52.5 60.5235 53.5625 60.0079 54.6562 59.9298L122.531 54.7423L156.703 52.3204C158.734 52.1642 160.422 50.2735 160.422 47.5079C160.406 46.3204 160.078 44.836 159.484 44.8829Z" clip-rule="evenodd" fill-rule="evenodd"></path>
</g>
<defs>
<clipPath id="clip0_3370_65">
<rect transform="translate(0 0.0078125)" fill="white" height="80" width="161"></rect>
</clipPath>
</defs>
</svg>
