<svg xmlns="http://www.w3.org/2000/svg" fill="none" viewBox="0 0 63 80" height="80" width="63">
<g clip-path="url(#clip0_3370_80)">
<path fill="#FF7070" d="M13.749 77.1498L17.5585 63.8485C22.1432 65.079 26.87 65.7004 31.6169 65.6967C40.0765 65.6967 48.2436 63.7477 55.6366 60.0586L62.1398 72.3376C52.6603 77.0652 42.2099 79.5199 31.6169 79.5068C25.5168 79.5068 19.5198 78.7081 13.749 77.1498Z"></path>
<path fill="#212449" d="M0 71.7964L6.73425 59.6354C10.1726 61.4303 13.7973 62.8429 17.5435 63.848L13.7487 77.1568C8.98379 75.8764 4.37342 74.0805 0 71.7964ZM31.8894 0.0151539C46.6286 0.0151539 58.5733 11.6158 58.5733 25.915C58.5733 40.2191 46.6261 51.8198 31.8894 51.8198C17.1527 51.8198 5.20307 40.2167 5.20307 25.9125C5.20307 11.6133 17.1527 0.0126953 31.8894 0.0126953M31.8894 38.4078C38.9972 38.4078 44.7582 32.8164 44.7582 25.9125C44.7582 19.0161 38.9972 13.4222 31.8894 13.4222C24.7816 13.4222 19.0181 19.0161 19.0181 25.9125C19.0181 32.8188 24.7791 38.4078 31.8894 38.4078Z"></path>
</g>
<defs>
<clipPath id="clip0_3370_80">
<rect transform="translate(0 0.0078125)" fill="white" height="80" width="63"></rect>
</clipPath>
</defs>
</svg>
