<svg xmlns="http://www.w3.org/2000/svg" fill="none" viewBox="0 0 81 80" height="80" width="81">
<rect fill="#1070FF" height="80" width="80" y="0.0078125" x="0.917969"></rect>
<path fill="white" d="M21.2954 41.8868C21.2954 43.008 20.8483 44.0837 20.0511 44.8809C19.254 45.678 18.1782 46.1187 17.0571 46.1252C15.9359 46.1252 14.8601 45.678 14.063 44.8873C13.2659 44.0902 12.8187 43.0144 12.8187 41.8933C12.8187 40.7721 13.2659 39.6963 14.063 38.8992C14.8536 38.1086 15.9359 37.6614 17.0571 37.6549C18.1782 37.6549 19.254 38.1021 20.0511 38.8927C20.8483 39.6899 21.2954 40.7656 21.2954 41.8868ZM25.0607 41.8868C25.0607 39.7676 24.2117 37.7327 22.7147 36.2357C21.2177 34.7386 19.1827 33.8896 17.0636 33.8896C14.9444 33.8896 12.9094 34.7386 11.4124 36.2357C9.91537 37.7327 9.06641 39.7676 9.06641 41.8868C9.06641 44.006 9.91537 46.0409 11.4124 47.5379C12.9094 49.035 14.9444 49.8839 17.0636 49.8839C19.1827 49.8839 21.2177 49.035 22.7147 47.5379C24.2117 46.0409 25.0542 44.006 25.0607 41.8868ZM30.3295 37.7003H35.527V34.0517H32.3709C28.7158 34.0517 26.1948 36.5726 26.1948 40.2277V49.7349H30.0767V37.953C30.0767 37.8882 30.1027 37.8234 30.148 37.7781C30.1934 37.7262 30.2582 37.7003 30.3295 37.7003ZM53.3164 49.7349H56.4725V46.0863H51.275C51.2102 46.0863 51.1454 46.0604 51.1 46.015C51.0547 45.9696 51.0288 45.9048 51.0288 45.84V37.7003H56.4725V34.0517H51.0158V30.1309H47.1339V34.0517H40.5949V30.1309H36.7065V43.5588C36.7065 47.2139 39.2275 49.7414 42.8825 49.7414H46.0386V46.0863H40.8411C40.7763 46.0863 40.7115 46.0604 40.6662 46.015C40.6208 45.9696 40.5949 45.9048 40.5949 45.84V37.7003H47.1339L47.1404 43.5588C47.1339 47.2139 49.6549 49.7349 53.3164 49.7349ZM69.2848 41.8868C69.2848 42.7228 69.0385 43.5459 68.5719 44.2393C68.1053 44.9327 67.4443 45.4771 66.6731 45.8011C65.9019 46.1187 65.0464 46.2029 64.2234 46.0409C63.4004 45.8789 62.6486 45.4771 62.0524 44.8809C61.4626 44.2911 61.0544 43.5329 60.8923 42.7098C60.7303 41.8868 60.8146 41.0378 61.1321 40.2601C61.4497 39.4889 61.9941 38.8279 62.694 38.3613C63.3874 37.8947 64.2104 37.6484 65.0464 37.6484C66.1676 37.6484 67.2434 38.0956 68.0405 38.8927C68.8376 39.6899 69.2848 40.7656 69.2848 41.8868ZM73.0501 41.8868C73.0501 40.3055 72.5835 38.7566 71.7021 37.4411C70.8207 36.1255 69.5764 35.1015 68.1118 34.4924C66.6472 33.8896 65.04 33.7276 63.4911 34.0387C61.9422 34.3498 60.5165 35.108 59.3953 36.2292C58.2741 37.3503 57.5159 38.7761 57.2048 40.325C56.8938 41.8738 57.0558 43.4875 57.6585 44.9457C58.2612 46.4103 59.2916 47.6546 60.6072 48.536C61.9228 49.4173 63.4716 49.8839 65.0529 49.8839C67.1721 49.8839 69.207 49.035 70.7041 47.5379C72.2011 46.0409 73.0436 44.006 73.0501 41.8868Z"></path>
</svg>
