<svg xmlns="http://www.w3.org/2000/svg" fill="none" viewBox="0 0 71 80" height="80" width="71">
<path fill="#5BA745" d="M27.8228 63.778C27.8228 63.5653 27.8228 63.3676 27.7506 63.1396C27.4268 60.6698 26.5708 58.3102 25.2475 56.2406C24.4049 55.1072 23.4332 54.0865 22.3541 53.2011C22.0358 52.9427 21.761 53.0644 21.7465 53.4747L21.4716 57.7448C21.4716 58.1552 21.0087 58.1705 20.893 57.7448L19.099 51.7422C19.0163 51.5246 18.8931 51.3265 18.7365 51.1596C18.5801 50.9926 18.3934 50.8599 18.1875 50.7698C16.9863 50.334 15.7587 49.9836 14.5128 49.7211C12.8636 49.4173 10.4764 49.25 10.4764 49.25C10.0714 49.25 9.94115 49.5084 10.1726 49.8427L12.6321 54.5385C12.8636 54.8879 12.6321 55.2222 12.2849 54.9488L6.93193 50.3898C6.43301 50.0476 5.8724 49.8173 5.28499 49.7126C4.69758 49.6081 4.09598 49.6316 3.51762 49.782C2.33131 49.9794 0.624146 50.3594 0.624146 50.3594C0.437908 50.4029 0.273238 50.5164 0.161191 50.6785C0.0449614 50.8335 -0.0118079 51.0288 0.00204997 51.2255C0.00204997 51.2255 0.132255 53.0493 0.276929 54.2648C0.294073 54.8841 0.431205 55.4933 0.679946 56.0552C0.928687 56.6168 1.28382 57.1194 1.72368 57.5321L7.29362 61.7112C7.64082 61.9545 7.39489 62.3192 7.01873 62.1672L2.05642 60.9971C1.68027 60.8451 1.46326 60.9971 1.579 61.4528C1.579 61.4528 2.40365 63.8236 3.12701 65.3888C3.73979 66.6152 4.43602 67.7933 5.21031 68.9145C5.34814 69.0961 5.51878 69.2472 5.71245 69.3594C5.90612 69.4716 6.11896 69.5425 6.33878 69.5679L12.3283 69.7199C12.7189 69.7199 12.8202 70.1909 12.4585 70.3126L8.62461 71.8321C8.24845 71.9538 8.21953 72.2578 8.53781 72.5161C9.65887 73.3571 10.8735 74.0509 12.1547 74.5827C14.417 75.3533 16.8179 75.5667 19.1713 75.2058C20.9229 74.946 22.6474 74.5135 24.3216 73.914C24.2574 73.4102 24.2238 72.9027 24.2205 72.3945C24.2256 70.7674 24.5541 69.1596 25.1842 67.6733C25.8146 66.1872 26.7327 64.8552 27.8807 63.7627"></path>
<path fill="#5BA745" d="M42.5504 72.4096C42.5504 73.9125 42.1262 75.3816 41.3311 76.6311C40.5363 77.8807 39.4067 78.8546 38.0848 79.4296C36.7631 80.0047 35.3088 80.1551 33.9055 79.8621C32.5022 79.5689 31.2133 78.8452 30.2017 77.7826C29.19 76.72 28.501 75.3659 28.222 73.892C27.9429 72.4181 28.0862 70.8903 28.6335 69.5021C29.181 68.1136 30.1083 66.9268 31.2977 66.092C32.4874 65.2569 33.886 64.8115 35.3166 64.8115C37.2351 64.8115 39.0751 65.612 40.4316 67.0369C41.7881 68.4619 42.5504 70.3946 42.5504 72.4096Z"></path>
<path fill="#5BA745" d="M70.5593 51.3013C70.5668 51.1053 70.5106 50.9124 70.4 50.7543C70.288 50.5922 70.1233 50.4785 69.9372 50.4352C69.9372 50.4352 68.2299 50.0552 67.0438 49.8729C66.4685 49.7225 65.8701 49.6976 65.2854 49.7995C64.7007 49.9013 64.1419 50.1282 63.644 50.4656L58.2911 55.0244C57.9727 55.298 57.7123 55.0244 57.9438 54.6143L60.3887 49.9185C60.6346 49.5842 60.5045 49.3105 60.0993 49.3258C60.0993 49.3258 57.7123 49.4929 56.0631 49.7969C54.817 50.0595 53.5894 50.4098 52.3883 50.8453C52.1824 50.9357 51.9958 51.0684 51.8393 51.2352C51.6828 51.4023 51.5595 51.6004 51.4767 51.818L49.6828 57.8056C49.5671 58.2006 49.1186 58.1853 49.104 57.8056L48.8148 53.5352C48.8148 53.1249 48.54 53.0035 48.2217 53.2618C47.1428 54.1472 46.1713 55.1679 45.3283 56.3011C44.0071 58.3496 43.1511 60.6891 42.8252 63.1395C42.8252 63.3675 42.8252 63.5651 42.8252 63.7778C43.9741 64.8686 44.892 66.2004 45.5203 67.6872C46.148 69.174 46.472 70.7827 46.4711 72.4093C46.4678 72.9178 46.4341 73.4253 46.3699 73.9291C48.0497 74.5265 49.7786 74.959 51.5346 75.2209C53.888 75.5809 56.289 75.3677 58.5513 74.5978C59.8325 74.066 61.0471 73.3719 62.1683 72.531C62.4866 72.2726 62.4577 71.9686 62.0814 71.8472L58.2475 70.3275C57.8859 70.2058 57.9871 69.75 58.3777 69.7347L64.3527 69.5827C64.576 69.5627 64.7927 69.4943 64.9894 69.382C65.1861 69.2696 65.3586 69.1155 65.4958 68.9293C66.2092 67.8362 66.852 66.6938 67.4198 65.51C68.1577 63.9905 68.9824 61.5743 68.9824 61.5743C69.0981 61.1792 68.8812 60.9663 68.505 61.1183L63.5426 62.2884C63.152 62.4404 62.9205 62.0757 63.2532 61.8326L68.8666 57.6536C69.3064 57.2409 69.6617 56.738 69.9104 56.1764C70.1591 55.6145 70.2963 55.0056 70.3132 54.3863C70.4579 53.1249 70.5883 51.347 70.5883 51.347"></path>
<path fill="#5BA745" d="M54.8772 31.4396C54.8772 30.7862 54.4722 30.5429 53.9223 30.9076L48.1355 34.2205C47.6002 34.5852 47.4845 33.8862 47.875 33.3544L53.4016 25.604C53.604 25.3005 53.739 24.9532 53.7965 24.5876C53.8541 24.2222 53.8329 23.8476 53.7343 23.4917C53.011 21.4029 52.1456 19.3715 51.1447 17.4131C50.135 15.6927 49.0134 14.0476 47.7882 12.4894C47.3976 11.9727 46.9202 12.0639 46.7176 12.6869L44.0122 19.7837C43.8099 20.4068 43.3033 20.3916 43.3179 19.7837L43.6362 8.64464C43.6303 7.85367 43.3412 7.09414 42.8261 6.51713C42.8261 6.51713 41.22 4.81511 39.9325 3.56899C38.6449 2.32286 36.2433 0.347304 36.2433 0.347304C35.9856 0.127714 35.6637 0.0078125 35.332 0.0078125C35 0.0078125 34.6781 0.127714 34.4205 0.347304C34.4205 0.347304 32.1492 2.21649 30.6734 3.56899C29.1976 4.92148 27.78 6.50193 27.78 6.50193C27.2581 7.05492 26.9489 7.7909 26.912 8.56866L27.2445 19.7078C27.2445 20.3764 26.7527 20.3916 26.5357 19.7078L23.8303 12.6869C23.6423 12.0639 23.1504 11.9727 22.7597 12.5046C21.4655 14.158 20.2904 15.9104 19.2441 17.7474C18.2922 19.5967 17.4702 21.5166 16.7847 23.4917C16.6916 23.8424 16.6719 24.2099 16.7268 24.5692C16.7817 24.9288 16.9101 25.2713 17.103 25.5737L22.6585 33.3544C23.049 33.8862 22.9333 34.5852 22.3835 34.2205L16.5965 30.9076C16.0613 30.5429 15.6128 30.7862 15.6273 31.4396C15.673 33.5897 16.004 35.7226 16.6111 37.7765C17.9787 41.4923 20.1651 44.8149 22.9911 47.4721C26.7082 51.5017 29.72 56.1883 31.8887 61.316C34.0941 60.5666 36.4684 60.5666 38.6739 61.316C40.8353 56.2033 43.8263 51.524 47.5134 47.4871C50.1012 45.0504 52.163 42.061 53.5607 38.7186C54.3548 36.3833 54.7988 33.933 54.8772 31.4546"></path>
</svg>
