<svg xmlns="http://www.w3.org/2000/svg" fill="none" viewBox="0 0 100 80" height="80" width="100">
<path fill="#FF6200" d="M47.7309 37.5217C48.0222 37.4436 48.3048 37.3659 48.5956 37.2821C54.9785 35.4822 61.1876 32.9893 67.3574 30.407C73.3979 27.8794 79.3714 24.8444 84.6203 20.5726C90.0067 16.1909 94.3388 10.5148 96.7305 3.47522C97.0672 2.49556 97.7556 1.08253 97.822 0.0078125C89.4349 11.4766 56.1636 12.6601 56.1636 12.6601L64.0152 5.45704C32.4518 5.51734 10.426 18.9148 0.334473 26.0796C13.249 27.465 24.9395 32.9346 34.0923 41.1716C38.5955 39.777 43.1924 38.7697 47.7309 37.5217Z"></path>
<path fill="#FF6200" d="M99.909 36.3952C99.909 36.3952 69.2093 34.0475 37.3198 44.3158C41.5507 48.7358 45.1168 53.7915 47.8498 59.3353C64.6165 50.0022 87.8663 38.0781 99.909 36.3952Z"></path>
<path fill="#FF6200" d="M49.9517 64.1274C51.8987 69.1341 53.2044 74.4602 53.7461 80.008L82.9705 49.9512L49.9517 64.1274Z"></path>
<path fill="#FF6200" d="M65.442 76.3914H64.2109V79.8082H63.7085V76.3914H62.48V75.9785H65.442V76.3914Z"></path>
<path fill="#FF6200" d="M66.6628 75.9785L67.9149 79.1035L69.1669 75.9785H69.8221V79.8082H69.3172V78.317L69.3647 76.7073L68.1075 79.8082H67.7207L66.4661 76.7149L66.5161 78.317V79.8082H66.0112V75.9785H66.6628Z"></path>
<path fill="#FF6200" d="M49.9517 64.1274C51.8987 69.1341 53.2044 74.4602 53.7461 80.008L82.9705 49.9512L49.9517 64.1274Z"></path>
</svg>
