<svg xmlns="http://www.w3.org/2000/svg" fill="none" viewBox="0 0 80 80" height="80" width="80">
<g clip-path="url(#clip0_3373_983)">
<path fill="#35D28B" d="M80 0H0V80H80V0Z"></path>
<path fill="white" d="M59.761 33.9952C59.761 37.7985 59.3556 41.106 58.5483 43.9107C57.7376 46.7155 56.6093 49.0468 55.16 50.9015C53.7105 52.7563 51.9498 54.1343 49.8811 55.039C47.8123 55.9437 45.5166 56.3943 42.9973 56.3943C41.154 56.4085 39.3176 56.1685 37.5401 55.681C35.854 55.2043 34.317 54.277 32.939 52.899L32.725 52.9703L32.8676 58.7485V66.6667H21.668V12.7372L29.4435 12.2378L31.5836 16.0186C33.1261 14.6268 34.917 13.5378 36.8623 12.8085C38.9145 12.0378 41.0906 11.6509 43.2826 11.6671C45.9446 11.6671 48.2988 12.0595 50.3448 12.8442C52.3875 13.6289 54.1126 14.887 55.5166 16.625C56.9206 18.3597 57.9776 20.6553 58.691 23.5088C59.4043 26.3622 59.761 29.8577 59.761 33.9952ZM48.276 33.9238C48.276 31.4497 48.1205 29.407 47.8123 27.789C47.5043 26.171 47.0276 24.8998 46.3856 23.9725C45.7845 23.0765 44.9081 22.4005 43.889 22.0465C42.7265 21.6682 41.5088 21.4873 40.2865 21.5115C38.7956 21.4833 37.3185 21.8008 35.9706 22.4388C34.7093 23.0548 33.675 23.9142 32.8676 25.0068V43.554C33.5323 44.6013 34.4596 45.48 35.6496 46.1935C36.8396 46.9068 38.3118 47.2635 40.0725 47.2635C41.2125 47.279 42.3466 47.0982 43.4253 46.7285C44.424 46.3718 45.28 45.707 45.9933 44.731C46.7066 43.7583 47.2643 42.3997 47.6696 40.665C48.075 38.9302 48.276 36.6832 48.276 33.9238Z" clip-rule="evenodd" fill-rule="evenodd"></path>
</g>
<defs>
<clipPath id="clip0_3373_983">
<rect fill="white" rx="6" height="80" width="80" x="0.000976562"></rect>
</clipPath>
</defs>
</svg>
