<svg xmlns="http://www.w3.org/2000/svg" fill="none" viewBox="0 0 80 81" height="81" width="80">
<path fill="#118AF7" d="M66.6673 80.0123H13.334C11.5783 80.0301 9.8367 79.6975 8.21115 79.0339C6.5856 78.3703 5.10877 77.3891 3.86712 76.1477C2.62548 74.9063 1.64397 73.4297 0.980058 71.8043C0.316149 70.1789 -0.0168173 68.4373 0.000653554 66.6816V13.3456C-0.0153457 11.5893 0.317299 9.84719 0.97932 8.2203C1.64599 6.59363 2.62732 5.11896 3.86732 3.87629C5.10988 2.63623 6.58687 1.65593 8.21217 0.992532C9.83748 0.329133 11.5786 -0.00408793 13.334 0.0122948H66.6673C68.4226 -0.00335956 70.1635 0.330828 71.7882 0.995347C73.413 1.65987 74.8891 2.6414 76.1303 3.88265C77.3715 5.12389 78.3531 6.59998 79.0176 8.22472C79.6821 9.84946 80.0163 11.5903 80.0006 13.3456V66.679C80.0205 68.4355 79.6886 70.1782 79.0245 71.8045C78.3604 73.4308 77.3776 74.9077 76.134 76.1483C74.8927 77.3894 73.4163 78.3704 71.7913 79.0338C70.1662 79.6973 68.4225 80.03 66.6673 80.0123Z"></path>
<path fill="white" d="M21.3333 37.346L25.8667 46.146L23.2 45.6127L22.9333 53.8794L18.6667 52.546V44.546L16 43.746L21.3333 37.346ZM27.7333 36.8127L31.2 37.8794L29.8667 56.0127L35.2 58.146L37.6 39.2127L41.3333 40.2794L35.2 29.0794L27.7333 36.8127ZM44.8 27.4794L50.4 29.0794L43.4667 61.0794L50.9333 64.0127L58.9333 30.6794L64 31.746L57.3333 16.0127L44.8 27.4794Z"></path>
</svg>
