<svg xmlns="http://www.w3.org/2000/svg" fill="none" viewBox="0 0 89 80" height="80" width="89">
<path fill="#E6005C" d="M88.4445 79.4765C88.5651 79.7169 88.39 80 88.121 80H40.3334C17.9613 80 0 62.2598 0 40C0 17.7402 17.9613 0 40.3334 0C62.7025 0 80.6637 17.7402 80.6637 40C80.6637 45.5012 79.5665 50.7258 77.5787 55.4746C77.4785 55.7135 77.2428 55.868 76.9835 55.868H58.7436C58.4213 55.868 58.239 55.4958 58.4402 55.2438C61.7364 51.1215 63.6923 45.8229 63.6923 40C63.6923 26.6677 53.4442 16.0861 40.3329 16.0861C27.2187 16.0861 16.97 26.6677 16.97 40C16.97 53.3323 28.2873 63.9138 41.4015 63.9138H80.1621C80.4687 63.9138 80.7495 64.087 80.8867 64.3618L88.4445 79.4765Z"></path>
</svg>
