<svg xmlns="http://www.w3.org/2000/svg" fill="none" viewBox="0 0 77 80" height="80" width="77">
<g clip-path="url(#clip0_3374_283)">
<path fill="#F52936" d="M34.6791 0.282227C52.7293 0.282227 69.7846 14.3529 69.7846 34.8192C69.7846 46.3315 64.3837 55.7119 56.7089 61.9656C58.9829 65.6609 61.8255 68.2192 65.2365 68.2192C69.2161 68.2192 70.9216 65.0923 71.2059 62.5341H76.3225C76.6067 65.9451 74.9012 79.0208 60.6884 79.0208C51.8765 79.0208 47.3284 73.9043 43.9174 68.2192C41.0748 68.7877 37.948 69.3562 34.8212 69.3562C17.3395 69.3562 0 55.2856 0 34.8192C0 14.3529 17.3396 0.282227 34.6791 0.282227ZM34.8212 5.8252C21.7455 5.8252 16.0604 15.632 16.0604 34.6771C16.0604 53.7222 21.7455 63.529 34.8212 63.529C37.2374 63.529 39.3693 62.9604 41.0748 62.3919C38.5165 56.4226 35.1055 50.7375 28.5676 50.7375C27.4306 50.7375 26.2936 51.0217 25.1566 51.5902L23.1668 47.6107C26.0093 45.1945 29.8468 43.3469 35.1055 43.3469C43.3489 43.3469 47.6127 47.3264 51.0238 52.443C53.0135 48.1792 53.8663 42.2098 53.8663 34.6771C53.8663 15.632 48.1812 5.8252 34.8212 5.8252Z" clip-rule="evenodd" fill-rule="evenodd"></path>
</g>
<defs>
<clipPath id="clip0_3374_283">
<rect transform="translate(0 0.0078125)" fill="white" height="80" width="77"></rect>
</clipPath>
</defs>
</svg>
