<svg xmlns="http://www.w3.org/2000/svg" fill="none" viewBox="0 0 76 80" height="80" width="76">
<path fill="#BF0000" d="M23.4109 64.2786V44.3486H31.9804L47.0014 64.2786H62.3407L44.2102 40.2352C48.0434 37.5145 50.9121 33.6452 52.4015 29.1867C53.8909 24.7282 53.9239 19.9116 52.4956 15.4332C51.0673 10.9548 48.2518 7.04661 44.4561 4.27371C40.6604 1.50081 36.0812 0.0068462 31.3805 0.00781297H11.1934V64.2786H23.4109ZM23.4109 12.2131H31.3805C34.0234 12.2131 36.5581 13.263 38.4269 15.1318C40.2957 17.0006 41.3455 19.5353 41.3455 22.1782C41.3455 24.8211 40.2957 27.3557 38.4269 29.2245C36.5581 31.0933 34.0234 32.1432 31.3805 32.1432H23.4109V12.2131Z"></path>
<path fill="#BF0000" d="M11.1938 80.0081L0 71.1709H75.4111L11.1938 80.0081Z"></path>
</svg>
