<svg xmlns="http://www.w3.org/2000/svg" fill="none" viewBox="0 0 64 80" height="80" width="64">
<g clip-path="url(#clip0_3374_406)">
<path fill="#FF7964" d="M29.625 61.3848C50.6207 48.938 60.4859 44.1481 59.2206 47.0151C57.9554 49.882 48.0902 60.7795 29.625 79.7076V61.3848Z"></path>
<path fill="#FF7964" d="M63.3083 31.5868C63.3083 48.8774 49.3175 62.865 32.0301 62.865C14.7428 62.865 0.751953 48.8438 0.751953 31.5868C0.752532 14.3298 14.7434 0.308594 32.0301 0.308594C49.3169 0.308594 63.3083 14.3298 63.3083 31.5868Z"></path>
<path fill="white" d="M12.4002 35.7403H17.0197C18.1356 35.7435 19.0394 36.5682 19.0429 37.5864V41.7707C19.0394 42.789 18.1356 43.6136 17.0197 43.6168H12.4002C11.2842 43.6136 10.3805 42.789 10.377 41.7707V37.5864C10.3801 36.5681 11.2841 35.7433 12.4002 35.7403ZM23.0893 26.5101H27.6752C28.7912 26.5133 29.6949 27.3379 29.6984 28.3561V41.7707C29.6949 42.789 28.7912 43.6136 27.6752 43.6168H23.0893C21.9734 43.6136 21.0696 42.789 21.0661 41.7707V28.3561C21.0693 27.3378 21.9733 26.513 23.0893 26.5101ZM33.7449 31.5867H38.3644C39.4803 31.5899 40.3841 32.4146 40.3876 33.4328V41.7707C40.3841 42.789 39.4803 43.6136 38.3644 43.6168H33.7449C32.6289 43.6136 31.7252 42.789 31.7216 41.7707V33.4328C31.7248 32.4144 32.6288 31.5896 33.7449 31.5867ZM44.6701 19.5566H49.256C50.3719 19.5598 51.2757 20.3845 51.2792 21.4027V41.7707C51.2757 42.789 50.3719 43.6136 49.256 43.6168H44.6701C43.5542 43.6136 42.6504 42.789 42.6469 41.7707V21.4027C42.6501 20.3844 43.554 19.5595 44.6701 19.5566Z"></path>
</g>
<defs>
<clipPath id="clip0_3374_406">
<rect transform="translate(0 0.0078125)" fill="white" height="80" width="64"></rect>
</clipPath>
</defs>
</svg>
