<svg xmlns="http://www.w3.org/2000/svg" fill="none" viewBox="0 0 86 80" height="80" width="86">
<path fill="black" d="M64.3548 4.24286C60.9045 2.33709 57.1889 0.897171 53.2963 0.0078125L42.813 19.1079L32.3294 0.0501624C24.677 1.91358 17.7323 5.76748 12.2031 11.146L22.9077 27.3663L7.9124 26.8157L2.25047 26.6038C1.71966 28.0437 1.32156 29.5685 0.967688 31.0506C-0.315093 36.6833 -0.315093 42.5277 0.923453 48.2026C1.23309 49.7273 1.67543 51.2094 2.162 52.6494L7.73547 52.4377L20.4748 51.9719L13.6628 62.3053L10.6549 66.8793C11.7165 68.0225 12.8224 69.1236 14.0167 70.1826C18.4843 74.0786 23.7481 77.0433 29.4985 78.8219C31.0468 79.288 32.5949 79.7113 34.143 80.0078L36.7529 75.2221L42.7687 64.2958L48.8286 75.2645L51.4385 80.0078C60.595 78.229 68.8666 73.6552 75.0594 67.0062L72.0515 62.3901L63.8239 49.9814L84.2159 50.7436C86.3389 43.4593 86.2949 35.7515 84.1274 28.5098L61.3912 29.3568L73.4671 11.0189C70.7686 8.39321 67.7164 6.10626 64.3548 4.24286ZM68.7781 65.8627C64.4876 69.759 59.2679 72.5965 53.606 74.2058L45.2015 58.9596L42.813 54.6399L40.4243 58.9596L32.0642 74.1634C26.3579 72.5541 21.1825 69.6742 16.9361 65.6934L26.4906 51.2094L29.1888 47.1015L24.102 47.271L6.36423 47.9485C4.99298 42.4429 5.0372 36.7257 6.40845 31.2202L37.9473 32.4058C40.734 32.4906 43.4322 33.2528 45.8209 34.5659C48.2094 35.8787 50.2442 37.742 51.7482 39.9866L68.7781 65.8627Z"></path>
</svg>
