<svg xmlns="http://www.w3.org/2000/svg" fill="none" viewBox="0 0 80 80" height="80" width="80">
<path fill="#0138FF" d="M6.53906 35.2214V5.13601C6.53906 2.3155 8.84675 0.0078125 11.6673 0.0078125H74.8296C77.6501 0.0078125 79.9578 2.3155 79.9578 5.13601V68.2983C79.9578 71.1188 77.6501 73.4265 74.8296 73.4265H44.7869C43.3767 73.4265 42.2228 72.2726 42.2228 70.8624V47.1872C42.2228 41.9735 38.0347 37.7855 32.8211 37.7855H9.10316C7.69291 37.7855 6.53906 36.6317 6.53906 35.2214Z"></path>
<path fill="#5A7FFF" d="M31.5811 80.0082H5.12819C2.30769 80.0082 0 77.7005 0 74.88V48.427C0 45.6065 2.30769 43.2988 5.12819 43.2988H31.5811C34.4016 43.2988 36.7093 45.6065 36.7093 48.427V74.88C36.7093 77.7005 34.4016 80.0082 31.5811 80.0082Z"></path>
</svg>
