<svg xmlns="http://www.w3.org/2000/svg" fill="none" viewBox="0 0 73 80" height="80" width="73">
<path fill="#662D91" d="M72.0981 79.9889H47.9038L28.6782 53.3407H22.2105V79.9445H0.880859V0H31.4152C49.0252 0 63.4097 11.9806 63.4097 26.7148C63.4097 35.7085 57.8968 43.7418 49.5304 48.6495L72.0925 80M42.1133 26.7037C42.1206 24.9472 41.7817 23.2064 41.1159 21.581C40.4501 19.9555 39.4706 18.4772 38.2332 17.2305C36.9958 15.9838 35.5248 14.9932 33.9044 14.3153C32.2839 13.6374 30.5458 13.2855 28.7893 13.2797H22.2105V40.0167H28.8059C32.3312 40.002 35.7078 38.5944 38.1995 36.1006C40.6912 33.6067 42.0961 30.229 42.1078 26.7037H42.1133Z"></path>
</svg>
