<svg xmlns="http://www.w3.org/2000/svg" fill="none" viewBox="0 0 72 80" height="80" width="72">
<path fill="#00956D" d="M35.8586 0.000488281C34.8666 0.000488281 34.3707 0.198882 31.8908 2.08357L28.2207 4.91059L19.5412 11.507C17.6069 12.9949 17.2101 15.7227 18.6981 17.657C20.186 19.5913 22.9138 19.988 24.8481 18.5001L27.2783 16.6155C28.667 15.5243 30.7005 15.8219 31.7917 17.2106C32.8828 18.5993 32.5852 20.6328 31.1965 21.724L29.8077 22.7655L25.6912 25.8901L17.0117 32.5857C15.0775 34.0736 14.6807 36.8014 16.1686 38.7356C17.6565 40.6699 20.3843 41.0668 22.3186 39.5789L26.9807 36.0575C28.3695 34.9663 30.4029 35.2639 31.4941 36.6526C32.5852 38.0415 32.2876 40.0747 30.8989 41.1661L27.9231 43.4474L15.1271 53.1683C13.1928 54.6562 12.796 57.3843 14.2839 59.3186C15.7718 61.2528 18.4996 61.6494 20.4339 60.1615L26.6831 55.4002C28.0719 54.3091 30.1053 54.6067 31.1965 55.9953C31.6429 56.5905 31.8412 57.2355 31.8412 57.9296V74.644C16.7142 72.7097 5.0093 59.7649 5.0093 44.092C5.0093 35.3135 8.77866 26.9316 15.3255 21.1288L15.5734 20.8808L15.2759 20.5336C15.1767 20.4344 15.0775 20.3352 15.0279 20.236C14.2343 19.2441 13.6888 18.0538 13.4408 16.8139L13.3416 16.2187L12.8952 16.6155C4.71172 23.4599 0 33.4784 0 44.1419C0 63.9311 16.0694 80.0005 35.8586 80.0005V0.000488281Z"></path>
<path fill="#66BE61" d="M58.8225 16.6152L58.3761 16.2184L58.2768 16.8136C58.0287 18.0535 57.4834 19.2438 56.6896 20.2358C56.5907 20.335 56.5408 20.4341 56.4419 20.5334L56.1443 20.8805L56.392 21.1285C62.9388 26.9809 66.7084 35.3628 66.7084 44.092C66.7084 52.3249 63.4845 60.0621 57.6817 65.8649C52.821 70.7255 46.5718 73.7508 39.8762 74.6436V57.9295C39.8762 57.235 40.0749 56.5904 40.5212 55.9952C41.6123 54.6066 43.596 54.3087 45.0344 55.4001L51.2837 60.1614C53.2179 61.6493 55.9955 61.2524 57.4336 59.3181C58.9215 57.3838 58.5249 54.6063 56.5907 53.1682L43.7946 43.447L40.8188 41.1656C39.4299 40.0746 39.1323 38.0905 40.2237 36.6523C41.3147 35.2636 43.2984 34.9661 44.7369 36.0572L49.3989 39.5784C51.3331 41.0663 54.1107 40.6698 55.5491 38.7355C57.037 36.8011 56.6401 34.0237 54.7058 32.5854L41.9098 22.8644L40.5212 21.8229C39.1323 20.7317 38.8347 18.7479 39.9261 17.3095C41.0171 15.9208 43.0008 15.6233 44.4393 16.7144L46.8694 18.5991C48.8037 20.087 51.5812 19.6902 53.0197 17.7559C54.5076 15.8216 54.1107 13.0442 52.1764 11.6059L43.4971 5.00952L39.8268 2.13288C37.3468 0.248199 36.8509 0.0498047 35.8589 0.0498047V80C55.6481 80 71.7175 63.9306 71.7175 44.1414C71.7175 33.4782 67.006 23.4596 58.8225 16.6152Z"></path>
</svg>
