<svg xmlns="http://www.w3.org/2000/svg" fill="none" viewBox="0 0 80 80" height="80" width="80">
<path fill="#FF4981" d="M57.8325 0.0078125H22.1627C16.2852 0.00912753 10.6488 2.34454 6.49274 6.50055C2.33673 10.6566 0.00131503 16.293 0 22.1705V57.8403C-1.47166e-07 63.7185 2.33483 69.3561 6.49099 73.5135C10.6472 77.6705 16.2843 80.0064 22.1627 80.0078H57.8325C63.7114 80.0078 69.35 77.6722 73.5074 73.5152C77.6644 69.3578 80 63.7192 80 57.8403V22.1705C79.9986 16.2921 77.6627 10.655 73.5056 6.4988C69.3483 2.34264 63.7107 0.00781235 57.8325 0.0078125ZM22.6141 61.2875C22.6063 62.2466 22.2197 63.1637 21.5387 63.8394C20.8577 64.5147 19.9374 64.8939 18.9782 64.8936H18.9484C17.9836 64.886 17.0615 64.4955 16.3844 63.8081C15.7073 63.1207 15.3307 62.1929 15.3373 61.228L15.4514 47.379C15.4579 46.4188 15.8439 45.5004 16.525 44.824C17.2062 44.1473 18.1273 43.7678 19.0873 43.7678H19.1171C19.5946 43.7716 20.0666 43.8694 20.5062 44.056C20.9458 44.2423 21.3445 44.5134 21.6793 44.8536C22.0142 45.1942 22.2788 45.5971 22.4579 46.0397C22.637 46.4822 22.7271 46.9561 22.7232 47.4334L22.6141 61.2875ZM36.8007 24.2042V51.754C36.8007 52.7248 36.415 53.6557 35.7283 54.3424C35.0419 55.0287 34.1108 55.4144 33.1399 55.4144C32.169 55.4144 31.2379 55.0287 30.5514 54.3424C29.8649 53.6557 29.4792 52.7248 29.4792 51.754V22.6368C29.4792 21.6659 29.8649 20.7348 30.5514 20.0483C31.2379 19.3618 32.169 18.9761 33.1399 18.9761C34.1108 18.9761 35.0419 19.3618 35.7283 20.0483C36.415 20.7348 36.8007 21.6659 36.8007 22.6368V24.2042ZM51.617 59.6607C51.6356 60.1707 51.5509 60.6794 51.3684 61.1563C51.1859 61.633 50.9093 62.0682 50.5546 62.4357C50.2003 62.8032 49.7756 63.0952 49.3056 63.2949C48.8358 63.4947 48.3306 63.5973 47.8199 63.5973C47.3095 63.5973 46.804 63.4947 46.3342 63.2949C45.8645 63.0952 45.4395 62.8032 45.0851 62.4357C44.7308 62.0682 44.4539 61.633 44.2714 61.1563C44.0888 60.6794 44.0045 60.1707 44.0227 59.6607V33.7628C44.0582 32.7795 44.4739 31.8483 45.1823 31.1652C45.8903 30.4821 46.836 30.1004 47.8199 30.1004C48.8038 30.1004 49.7495 30.4821 50.4579 31.1652C51.1659 31.8483 51.5816 32.7795 51.617 33.7628V59.6607ZM62.3959 46.2676H62.3611C61.3958 46.2676 60.4697 45.8861 59.7848 45.2059C59.0998 44.5254 58.712 43.6021 58.7055 42.6368L58.4971 18.6586C58.4754 18.1673 58.5529 17.6767 58.7251 17.216C58.8973 16.7553 59.1604 16.334 59.4989 15.9773C59.8375 15.6206 60.2445 15.3358 60.6956 15.1399C61.1468 14.9439 61.6327 14.8408 62.1245 14.8368C62.6163 14.8328 63.1036 14.928 63.5578 15.1166C64.0121 15.3051 64.4236 15.5833 64.768 15.9345C65.1124 16.2856 65.3824 16.7025 65.5621 17.1604C65.7415 17.6182 65.8273 18.1075 65.8135 18.5991L66.0219 42.5724C66.0263 43.0532 65.9361 43.5298 65.7563 43.9758C65.5769 44.4218 65.3111 44.8278 64.9743 45.1711C64.6375 45.5141 64.2366 45.7876 63.7941 45.976C63.3519 46.164 62.8766 46.2632 62.3959 46.2676Z"></path>
</svg>
