<svg xmlns="http://www.w3.org/2000/svg" fill="none" viewBox="0 0 90 80" height="80" width="90">
<g clip-path="url(#clip0_3021_54)">
<path fill="black" d="M52.0762 4.05831C51.3302 2.82019 50.2768 1.79593 49.0183 1.08491C47.7598 0.373883 46.3388 0.000244141 44.8933 0.000244141C43.4478 0.000244141 42.0268 0.373883 40.7683 1.08491C39.5098 1.79593 38.4564 2.82019 37.7104 4.05831L25.8944 24.2962C34.9213 28.803 42.6123 35.5926 48.2038 43.9908C53.7953 52.3891 57.0927 62.1038 57.7687 72.1705H49.4724C48.7977 63.5415 45.8814 55.2382 41.0121 48.0824C36.1429 40.9265 29.4895 35.1662 21.7104 31.3714L10.7743 50.2805C15.1475 52.2418 18.9574 55.2712 21.8537 59.09C24.75 62.9088 26.6397 67.3945 27.349 72.1346H8.29621C8.07025 72.1186 7.85183 72.0467 7.66063 71.9252C7.46943 71.8037 7.31148 71.6366 7.20102 71.4388C7.09056 71.241 7.03106 71.0189 7.02789 70.7924C7.02472 70.5659 7.07797 70.3421 7.18286 70.1414L12.4623 61.1627C10.6737 59.6703 8.62942 58.5144 6.42865 57.7508L1.20306 66.7295C0.659052 67.6626 0.305885 68.6945 0.164076 69.7652C0.0222672 70.836 0.0946444 71.9243 0.377003 72.9668C0.659361 74.0094 1.14607 74.9855 1.80886 75.8383C2.47165 76.6912 3.2973 77.4038 4.23785 77.9348C5.47708 78.6331 6.87384 79.0039 8.29621 79.0123H34.3882C34.8728 73.0326 33.805 67.0291 31.2881 61.5833C28.7713 56.1374 24.8908 51.4339 20.0224 47.9281L24.1705 40.7452C30.3145 44.965 35.2519 50.714 38.4955 57.4248C41.7391 64.1356 43.1768 71.5762 42.6666 79.0123H64.7721C65.2868 67.7476 62.8362 56.5451 57.6651 46.5243C52.494 36.5034 44.7834 28.0152 35.3041 21.9079L43.6901 7.54203C43.877 7.22894 44.18 7.00233 44.5331 6.91152C44.8862 6.82072 45.2609 6.87307 45.5757 7.05719C46.5274 7.57795 82.0111 69.4949 82.6756 70.2132C82.7926 70.4231 82.8522 70.6601 82.8482 70.9004C82.8442 71.1407 82.7769 71.3757 82.653 71.5816C82.5291 71.7875 82.353 71.957 82.1425 72.0731C81.9321 72.1891 81.6947 72.2475 81.4545 72.2424H72.9067C73.0145 74.5289 73.0145 76.8095 72.9067 79.0841H81.4904C82.5803 79.0912 83.6609 78.8821 84.6695 78.4689C85.6781 78.0556 86.5947 77.4464 87.3663 76.6765C88.1378 75.9066 88.749 74.9913 89.1645 73.9836C89.58 72.9759 89.7914 71.8958 89.7867 70.8058C89.7877 69.3661 89.4033 67.9524 88.6733 66.7115L52.0762 4.05831Z"></path>
</g>
<defs>
<clipPath id="clip0_3021_54">
<rect fill="white" height="80" width="89.8765"></rect>
</clipPath>
</defs>
</svg>
