<svg viewBox="0 0 944 825.44" xmlns="http://www.w3.org/2000/svg" id="b"><defs><style>.d{fill:#8762d7;}.e{fill:#835dd6;}</style></defs><g id="c"><g><path d="M647.41,626.16c-.02-41.75-1.02-83.54,.4-125.24,.75-22-6.39-31.74-28.73-28.62-21.37,2.99-29.82-4.85-29.47-27.88,1.25-80.1,1.26-160.24,0-240.34-.37-23.41,8.8-28.46,29.83-27.91,46.24,1.21,92.55-.04,138.82,.52,41.31,.5,65.85,20.01,67.24,60.14,2.5,72.04,27.47,136.79,58.66,199.67,51.72,104.28,64.13,215.19,58.66,329.33-1.75,36.5-26.14,58.53-64.92,59.07-54.17,.76-108.36,.64-162.53,.06-44.09-.47-66.76-22.6-67.73-66.79-.96-43.99-.21-88.01-.23-132.02Z" class="e"></path><path d="M354.21,327.8c0,38.33-.94,76.68,.38,114.96,.71,20.82-3.93,33.43-27.51,29.47-28.57-4.79-33.31,9.59-32.92,34.59,1.28,82.27,.71,164.57,.38,246.85-.21,50.93-20.78,71.08-72.37,71.39-50.73,.31-101.48,.47-152.21-.06-45.94-.48-66.63-22.95-68.94-68.99-6.22-124.19,15.78-241.94,73.57-352.97,26.2-50.34,40.29-104.73,43.49-161.97,2.41-43.05,24.75-63.77,66.88-64.36,47.34-.66,94.74,.96,142.04-.66,23.71-.81,28.24,9.18,27.58,30.01-1.28,40.54-.38,81.15-.37,121.73Z" class="e"></path><path d="M530.64,324.7c0,39.44-.94,78.92,.38,118.31,.71,21.07-4.52,29.54-27.83,29.89-89.54,1.34-89.53,2.21-89.53-86.22,0-60.85,.58-121.72-.34-182.56-.3-19.58,4.62-27.49,26.15-28.12,91.18-2.67,91.16-3.4,91.16,87.83,0,20.28,0,40.57,0,60.85Z" class="e"></path><path d="M675.95,119.65c-7.9,0-15.8,0-23.71,0q-64.93,0-64.38-64.17c.41-47.71,7.83-55.3,54.72-55.44,29.35-.09,58.7-.03,88.05,.09,23.25,.09,34.47,11.55,36.33,35.09,6.64,84.45,6.99,84.42-77.46,84.42-4.52,0-9.03,0-13.55,0Z" class="d"></path><path d="M265.96,119.63c-4.5,.02-9,.02-13.49,.02-81.11,0-87.12-7.41-74.75-89.64C180.76,9.73,192.38,.39,211.89,.22c35.98-.32,71.97-.18,107.96-.05,16.23,.06,30.9,6.41,32.46,23.19,2.59,27.86,1.87,56.09,1.36,84.15-.23,12.56-11.21,12-20.22,12.06-22.49,.14-44.98,.05-67.47,.06Z" class="d"></path></g></g></svg>