<svg xmlns="http://www.w3.org/2000/svg" fill="none" viewBox="0 0 80 80" height="80" width="80">
<path fill="#3088F4" d="M29.8012 20.7528C21.6257 24.9803 15.1669 31.9092 11.5232 40.3612C8.4293 47.7832 7.41994 55.9019 8.59935 63.856C8.61082 63.9239 8.5994 63.9936 8.56688 64.0542C8.53437 64.1148 8.48261 64.1629 8.41976 64.1909C8.35691 64.2189 8.28654 64.2251 8.21974 64.2087C8.15294 64.1923 8.0935 64.1541 8.05079 64.1002C4.81198 59.8462 2.47297 54.9775 1.17623 49.7905C-0.120505 44.6036 -0.347841 39.2069 0.508072 33.9293C3.67831 30.0458 7.59161 26.834 12.0187 24.482C16.4459 22.13 21.2978 20.685 26.2905 20.2317C27.4013 20.1631 28.5478 20.1275 29.6614 20.1631C29.7297 20.1664 29.7951 20.1919 29.8477 20.2356C29.9003 20.2792 29.9373 20.3389 29.953 20.4054C29.9688 20.4719 29.9626 20.5418 29.9352 20.6045C29.9078 20.6671 29.8608 20.7192 29.8012 20.7528Z"></path>
<path fill="#3088F4" d="M53.7241 15.9195C58.804 23.2546 61.466 31.9932 61.3381 40.9147C61.3386 40.9836 61.3614 41.0506 61.4029 41.1056C61.4444 41.1606 61.5026 41.2008 61.5688 41.2202C61.6349 41.2395 61.7056 41.2371 61.7702 41.2132C61.8349 41.1893 61.8901 41.1452 61.9278 41.0875C62.6106 39.9422 63.2261 38.758 63.771 37.541C65.8338 33.0065 66.9674 28.1047 67.105 23.125C67.2425 18.1452 66.3812 13.1883 64.5719 8.54683C60.4566 5.265 55.7216 2.84697 50.6502 1.43737C45.5787 0.0277848 40.2751 -0.344394 35.0565 0.343102C34.9861 0.354542 34.9213 0.388765 34.8722 0.440529C34.823 0.492293 34.7922 0.558744 34.7844 0.629701C34.7766 0.700658 34.7923 0.77221 34.8291 0.833395C34.8658 0.89458 34.9217 0.942025 34.988 0.968461C42.5718 3.99378 49.0915 9.19688 53.7241 15.9195Z"></path>
<path fill="#3088F4" d="M67.9453 39.3517C64.1605 47.8678 57.6553 54.8862 49.4506 59.3056C49.391 59.3392 49.344 59.3913 49.3166 59.4539C49.2893 59.5166 49.283 59.5865 49.2988 59.653C49.3146 59.7196 49.3515 59.7792 49.4041 59.8229C49.4568 59.8666 49.5221 59.892 49.5904 59.8953C51.5461 59.9008 53.4989 59.7499 55.4299 59.4427C64.8082 57.9484 73.3223 53.0922 79.3828 45.7808C80.1913 40.5372 79.9276 35.184 78.6075 30.0453C77.2875 24.9065 74.9386 20.089 71.703 15.8842C71.6602 15.8303 71.6008 15.7921 71.534 15.7757C71.4672 15.7592 71.3968 15.7655 71.334 15.7935C71.2711 15.8214 71.2194 15.8695 71.1869 15.9301C71.1543 15.9908 71.1429 16.0605 71.1544 16.1283C72.3281 24.017 71.2143 32.0769 67.9453 39.3517Z"></path>
<path fill="#3088F4" d="M27.1762 15.7827C35.6515 15.1985 44.0911 17.2913 51.3129 21.762C51.3721 21.7999 51.4422 21.8171 51.5122 21.8109C51.5822 21.8047 51.6482 21.7756 51.6998 21.728C51.7515 21.6804 51.786 21.617 51.7979 21.5477C51.8097 21.4785 51.7984 21.4072 51.7655 21.3451C51.2206 20.3782 50.6293 19.4381 49.9936 18.5283C47.1293 14.3624 43.4462 10.8237 39.169 8.12823C34.8919 5.43274 30.1105 3.63694 25.1164 2.85039C20.2073 4.81251 15.7353 7.72725 11.9584 11.4265C8.18157 15.1257 5.17454 19.5361 3.11085 24.4034C3.0819 24.4681 3.07542 24.5407 3.09244 24.6096C3.10946 24.6784 3.14901 24.7396 3.2048 24.7835C3.2606 24.8273 3.32943 24.8512 3.40037 24.8514C3.47131 24.8516 3.54028 24.8281 3.59633 24.7846C10.4083 19.5452 18.6057 16.4158 27.1762 15.7827Z"></path>
<path fill="#3088F4" d="M27.7441 57.9157C36.1618 63.39 46.316 65.5342 56.2282 63.9307C63.5174 62.7415 70.3952 59.7542 76.2397 55.2387C76.2957 55.1953 76.3647 55.1718 76.4357 55.172C76.5066 55.1722 76.5754 55.1961 76.6312 55.2399C76.687 55.2837 76.7266 55.3449 76.7436 55.4138C76.7606 55.4826 76.7541 55.5552 76.7252 55.62C74.6596 60.5057 71.6449 64.9328 67.8557 68.6448C64.0665 72.3568 59.5783 75.2797 54.6511 77.2443C44.7255 75.5466 35.8156 70.1417 29.7244 62.1232C28.8276 60.9163 28.0157 59.6492 27.2916 58.3326C27.2587 58.2705 27.2473 58.1993 27.2592 58.13C27.2711 58.0608 27.3055 57.9974 27.3572 57.9498C27.4089 57.9022 27.4749 57.873 27.5449 57.8669C27.6149 57.8607 27.6849 57.8779 27.7441 57.9157Z"></path>
<path fill="#3088F4" d="M26.1586 64.869C20.6435 57.4972 17.8434 48.4469 18.2319 39.2485C18.2314 39.1796 18.2087 39.1126 18.1671 39.0576C18.1256 39.0026 18.0674 38.9624 18.0013 38.943C17.9351 38.9236 17.8645 38.9261 17.7998 38.95C17.7351 38.9739 17.6799 39.018 17.6422 39.0757C17.0525 40.0494 16.5286 41.0231 16.0432 42.0297C13.9615 46.5858 12.8036 51.5094 12.6364 56.5157C12.4693 61.5221 13.2963 66.5119 15.0695 71.1967C19.2236 74.5649 24.019 77.0538 29.1644 78.5121C34.3099 79.9704 39.698 80.3678 45.0017 79.6802C45.0722 79.6688 45.1369 79.6345 45.1861 79.5828C45.2352 79.531 45.2661 79.4646 45.2738 79.3936C45.2816 79.3226 45.2659 79.2511 45.2292 79.1899C45.1924 79.1287 45.1366 79.0813 45.0703 79.0548C37.5943 76.1329 31.0561 71.2285 26.1586 64.869Z"></path>
</svg>
