<svg xmlns="http://www.w3.org/2000/svg" fill="none" viewBox="0 0 91 80" height="80" width="91">
<g clip-path="url(#clip0_2997_666)">
<path fill="#1B2528" d="M24.7925 0.236328H66.1585C67.4356 0.236328 68.6172 0.917493 69.2496 2.0169L89.9445 37.9036C90.5769 39.0147 90.5769 40.3771 89.9445 41.4766L69.2616 77.3513C68.6171 78.4508 67.4473 79.1318 66.1704 79.1318H24.7925C23.5154 79.1318 22.3339 78.4508 21.7013 77.3513L1.01835 41.4766C0.385809 40.3651 0.385809 39.003 1.01835 37.9036L21.7013 2.0169C22.3458 0.917493 23.5154 0.236328 24.7925 0.236328Z"></path>
<path fill="white" d="M75.48 25.1405C75.7666 25.0688 76.0768 25.1644 76.2677 25.4034H76.2797C76.4706 25.6424 76.5183 25.9531 76.399 26.2279L70.0854 40.8191C69.9662 41.0703 69.7396 41.2495 69.465 41.2852H69.3574C69.1188 41.2852 68.9039 41.1776 68.749 40.9983L66.2783 38.0467L51.2881 51.1679C50.9423 51.4788 50.4051 51.4428 50.0949 51.0963L39.7713 39.3851L28.7912 48.9573C28.8986 49.4354 28.9583 49.9252 28.9583 50.4273C28.9583 54.1675 25.9149 57.2148 22.1793 57.2148C18.4438 57.2148 15.4004 54.1675 15.4004 50.4273C15.4004 46.6867 18.4438 43.6394 22.1793 43.6394C22.9909 43.6394 23.7667 43.7947 24.4947 44.0576L39.4608 31.0079C39.9502 30.5778 40.7139 30.6258 41.1438 31.1155L51.2405 42.5639L62.0892 33.0633L59.6069 30.1118C59.4279 29.8967 59.368 29.6098 59.4636 29.347C59.5472 29.084 59.7618 28.8928 60.0364 28.8331L75.48 25.1405Z"></path>
</g>
<defs>
<clipPath id="clip0_2997_666">
<rect transform="translate(0.228271)" fill="white" height="80" width="90.2564"></rect>
</clipPath>
</defs>
</svg>
