<svg xmlns="http://www.w3.org/2000/svg" fill="none" viewBox="0 0 80 80" height="80" width="80">
<path fill="#0675C1" d="M25.2632 37.301V31.687H79.7995V0.0078125H0V42.9151H56.9424V48.5291H0V80.0078H80V36.9H25.2632V37.301ZM40.7018 8.22836C42.9073 8.22836 44.7118 10.0329 44.7118 12.2384C44.7118 14.4439 42.9073 16.2484 40.7018 16.2484C38.4962 16.2484 36.6917 14.4439 36.6917 12.2384C36.6917 9.83237 38.6967 8.22836 40.7018 8.22836ZM23.6591 20.2584H59.1479L57.5439 25.8725H25.0627L23.6591 20.2584ZM40.7018 71.5868C38.4962 71.5868 36.6917 69.7823 36.6917 67.5767C36.6917 65.3712 38.4962 63.5667 40.7018 63.5667C42.9073 63.5667 44.7118 65.3712 44.7118 67.5767C44.7118 69.7823 42.7068 71.5868 40.7018 71.5868ZM23.6591 59.3562L25.0627 53.7422H57.5439L59.1479 59.3562H23.6591Z"></path>
</svg>
