<svg xmlns="http://www.w3.org/2000/svg" fill="none" viewBox="0 0 86 80" height="80" width="86">
<path fill="#212932" d="M54.4154 8.51953H24.1682C22.7079 8.58352 21.3321 9.22226 20.3409 10.2965C19.3497 11.3707 18.8234 12.7933 18.8767 14.254V65.7653C18.8234 67.2248 19.3501 68.646 20.3417 69.7183C21.3332 70.7905 22.709 71.4266 24.1682 71.4874H61.2696C62.731 71.4298 64.1099 70.7951 65.1041 69.7225C66.0982 68.6499 66.6266 67.2268 66.5734 65.7653V21.6496L54.4154 8.53184V8.51953ZM24.1682 65.7653V14.254H50.6745V25.6982H61.2696V65.7653H24.1682Z"></path>
<path fill="#212932" d="M7.38338 40.0447C8.2511 40.5407 9.04964 41.1489 9.75836 41.8537C10.5188 42.6008 11.136 43.4808 11.5796 44.4501C12.1151 45.6255 12.4917 46.867 12.6994 48.1418C12.9654 49.8762 13.0889 51.6295 13.0686 53.384V62.2195C13.0686 64.8037 13.1301 66.9694 13.2286 68.6922C13.2692 70.1527 13.6217 71.5876 14.2622 72.9008C14.8399 73.9734 15.803 74.787 16.9572 75.1773C18.6435 75.6856 20.4025 75.9101 22.1624 75.8418V80.0011H21.5102C19.2687 80.0582 17.0327 79.7506 14.8898 79.0905C13.2889 78.5936 11.8463 77.6856 10.7059 76.4571C9.66319 75.2024 8.9448 73.7107 8.61394 72.1132C8.17269 70.1801 7.96202 68.2015 7.98635 66.2188V50.2215C7.98654 49.2276 7.83296 48.2397 7.53104 47.2927C7.23188 46.3387 6.74206 45.4553 6.09129 44.6963C5.40599 43.9062 4.56909 43.2618 3.63016 42.8012C2.49839 42.2595 1.25432 41.9938 0 42.0259V37.9897C1.22809 38.0239 2.44681 37.7666 3.55633 37.239C4.49525 36.7784 5.33216 36.134 6.01745 35.344C6.67703 34.587 7.17531 33.7035 7.48182 32.7475C7.78373 31.8006 7.93732 30.8126 7.93713 29.8188V13.8214C7.92365 11.8121 8.15087 9.80846 8.61394 7.8532C8.95283 6.27324 9.67077 4.79936 10.7059 3.55854C11.8444 2.32779 13.2877 1.41939 14.8898 0.925135C17.0327 0.264993 19.2687 -0.0425537 21.5102 0.0145181H22.1501V4.1369C20.3902 4.06856 18.6312 4.29312 16.9449 4.80141C15.7907 5.19169 14.8276 6.00527 14.2499 7.07795C13.6094 8.39109 13.2569 9.826 13.2162 11.2865C13.1055 13.0216 13.0563 15.1751 13.0563 17.7592V26.5947C13.076 28.3615 12.9525 30.1269 12.6871 31.8738C12.4958 33.1944 12.1231 34.4822 11.5796 35.7008C11.136 36.6702 10.5188 37.5502 9.75836 38.2973C9.04635 38.9809 8.2479 39.5684 7.38338 40.0447ZM78.153 40.0447C77.2585 40.5298 76.4311 41.1297 75.6919 41.829C74.9315 42.5762 74.3143 43.4562 73.8707 44.4255C73.3405 45.6029 72.9641 46.8437 72.7509 48.1172C72.4849 49.8516 72.3614 51.6049 72.3817 53.3594V62.1949C72.3817 64.779 72.3817 66.9448 72.2217 68.6676C72.181 70.1281 71.8286 71.563 71.1881 72.8761C70.6143 73.952 69.6497 74.7668 68.4931 75.1527C66.807 75.6619 65.0478 75.8865 63.2878 75.8172V80.0011H63.9893C66.2268 80.0582 68.4587 79.7506 70.5974 79.0905C72.1995 78.5962 73.6428 77.6878 74.7813 76.4571C75.8457 75.2084 76.5854 73.7163 76.9348 72.1132C77.357 70.1775 77.5552 68.1997 77.5255 66.2188V50.2215C77.5253 49.2276 77.6789 48.2397 77.9808 47.2927C78.2797 46.336 78.7742 45.4518 79.4328 44.6963C80.1172 43.9053 80.9543 43.2607 81.894 42.8012C83.0054 42.2793 84.2227 42.0223 85.4503 42.0505V37.9897C84.3116 38.0261 83.1791 37.8074 82.1358 37.3496C81.0925 36.8918 80.1648 36.2066 79.4205 35.344C78.7619 34.5884 78.2674 33.7042 77.9685 32.7475C77.6688 31.8004 77.5193 30.8121 77.5255 29.8188V13.8214C77.5509 11.8231 77.3444 9.82856 76.9102 7.87782C76.5528 6.29226 75.8135 4.81799 74.7567 3.58315C73.6279 2.34704 72.1933 1.43025 70.5974 0.925135C68.4587 0.265032 66.2268 -0.0425287 63.9893 0.0145181H63.3248V4.1369C65.0848 4.06672 66.8441 4.29132 68.53 4.80141C69.6867 5.18728 70.6512 6.00209 71.225 7.07795C71.8655 8.39109 72.218 9.826 72.2586 11.2865C72.3694 13.0216 72.4186 15.1751 72.4186 17.7592V26.5947C72.3989 28.3615 72.5224 30.1269 72.7878 31.8738C72.9889 33.1937 73.3655 34.4807 73.9076 35.7008C74.3557 36.6676 74.9724 37.5469 75.7288 38.2973C76.4683 38.9929 77.2958 39.5886 78.19 40.0693L78.153 40.0447Z"></path>
<path fill="#D03F40" d="M48.9764 78.1426C60.5096 78.1426 69.8591 68.8097 69.8591 57.2969C69.8591 45.7841 60.5096 36.4512 48.9764 36.4512C37.4432 36.4512 28.0938 45.7841 28.0938 57.2969C28.0938 68.8097 37.4432 78.1426 48.9764 78.1426Z"></path>
<path fill="white" d="M45.4326 43.7617H53.4928V49.9761L51.93 62.4786H46.9462L45.4326 49.9761V43.7617ZM45.7157 64.386H53.2344V71.0679H45.7157V64.386Z"></path>
</svg>
