<svg xmlns="http://www.w3.org/2000/svg" fill="none" viewBox="0 0 74 78" height="78" width="74">
<path fill="#0099FA" d="M18.3301 0V12.0191H30.6224V43.3871H42.4535V11.8311V0H18.3301Z"></path>
<path fill="#0099FA" d="M11.836 40.597C11.836 31.2404 17.0354 23.0985 24.7025 18.9065L7.14677 18.9053C2.65692 24.9714 0 32.4708 0 40.597C0 56.7204 10.4449 70.4007 24.9345 75.2511V62.4099C17.1412 58.253 11.836 50.0471 11.836 40.597Z"></path>
<path fill="#0099FA" d="M48.3756 6.02734V18.9043C56.0442 23.0984 61.2497 31.239 61.2497 40.599C61.2497 54.2393 50.1839 65.3024 36.5393 65.3024C34.5042 65.3024 32.5269 65.0547 30.6353 64.5917V76.6606C32.5586 76.9704 34.5285 77.1375 36.5393 77.1375C56.7186 77.1375 73.0796 60.7781 73.0796 40.5993C73.0793 24.5597 62.7457 10.9452 48.3756 6.02734Z"></path>
</svg>
