<svg xmlns="http://www.w3.org/2000/svg" fill="none" viewBox="0 0 82 80" height="80" width="82">
<g clip-path="url(#clip0_2997_703)">
<path fill="#4A54F5" d="M58.0724 0.00288102C52.0377 0.00288102 46.2501 2.40012 41.9829 6.66725C37.7157 10.9344 35.3183 16.7219 35.3181 22.7566V27.0252H46.6953V22.7566C46.6964 20.5066 47.3646 18.3076 48.6154 16.4373C49.8663 14.5671 51.6435 13.1098 53.7225 12.2496C55.8015 11.3893 58.0889 11.1648 60.2955 11.6045C62.502 12.0441 64.5287 13.1281 66.1193 14.7195C67.7098 16.3108 68.7928 18.338 69.2313 20.5448C69.6699 22.7516 69.4442 25.0389 68.583 27.1175C67.7217 29.196 66.2634 30.9726 64.3926 32.2224C62.5218 33.4723 60.3223 34.1394 58.0724 34.1394H23.941C20.9434 34.1244 17.9723 34.7019 15.1986 35.8386C12.4248 36.9753 9.90298 38.649 7.77801 40.7633C5.65305 42.8776 3.96681 45.391 2.81619 48.1591C1.66557 50.9271 1.07324 53.8952 1.07324 56.8929C1.07324 59.8905 1.66557 62.8586 2.81619 65.6267C3.96681 68.3947 5.65305 70.9081 7.77801 73.0224C9.90298 75.1368 12.4248 76.8104 15.1986 77.9471C17.9723 79.0839 20.9434 79.6613 23.941 79.6463H28.2038V68.2691H23.941C20.9237 68.2691 18.03 67.0705 15.8965 64.937C13.763 62.8035 12.5644 59.9098 12.5644 56.8926C12.5644 53.8753 13.763 50.9816 15.8965 48.8481C18.03 46.7146 20.9237 45.516 23.941 45.516H35.3181V79.6463H46.6953V45.516H58.0724C62.6193 45.5873 67.0833 44.2953 70.8893 41.8065C74.6952 39.3177 77.6685 35.7461 79.4261 31.552C81.1826 27.3575 81.6424 22.7331 80.7464 18.2748C79.8503 13.8166 77.6394 9.72896 74.3987 6.53888C72.247 4.42089 69.6953 2.75224 66.8924 1.63011C64.0895 0.507994 61.0912 -0.0451579 58.0724 0.00288102Z"></path>
</g>
<defs>
<clipPath id="clip0_2997_703">
<rect transform="translate(0.615234)" fill="white" height="80" width="81.1429"></rect>
</clipPath>
</defs>
</svg>
