<svg xmlns="http://www.w3.org/2000/svg" fill="none" viewBox="0 0 106 80" height="80" width="106">
<path fill="#021631" d="M54.4053 0.52681C-26.8128 7.5046 0.312124 48.1034 31.4958 65.9509C63.2111 84.1074 77.971 87.4372 96.3195 59.2982C96.3097 59.2982 135.624 -6.45422 54.4053 0.52681ZM34.0928 39.2202C34.0928 36.6417 36.246 34.5312 38.8757 34.5312H62.9043C65.5307 34.5312 67.6839 36.6449 67.6839 39.2202C67.6839 41.7951 65.5307 43.9089 62.9043 43.9089H38.8757C36.2493 43.9184 34.0928 41.8049 34.0928 39.2202ZM77.9416 57.3182H45.5932C42.9667 57.3182 40.8103 55.2045 40.8103 52.6295C40.8103 50.0543 42.9635 47.9405 45.5932 47.9405H77.9416C80.568 47.9405 82.7245 50.0543 82.7245 52.6295C82.7245 55.2045 80.5713 57.3182 77.9416 57.3182ZM77.9416 30.5091H31.0193C28.3929 30.5091 26.2364 28.3956 26.2364 25.8205C26.2364 23.2453 28.3896 21.1318 31.0193 21.1318H77.9416C80.568 21.1318 82.7245 23.2453 82.7245 25.8205C82.7245 28.3956 80.5713 30.5091 77.9416 30.5091Z"></path>
</svg>
