<svg xmlns="http://www.w3.org/2000/svg" fill="none" viewBox="0 0 80 80" height="80" width="80">
<rect fill="#007AFF" height="80" width="80" x="-0.00585938"></rect>
<path fill="white" d="M58.5371 38.7442C58.5371 34.6614 61.8469 31.3516 65.9298 31.3516H71.8439C72.0254 31.3516 72.1725 31.4987 72.1725 31.6801V34.6372C72.1725 34.8187 72.0254 34.9658 71.8439 34.9658H65.9298C64.0671 34.9658 62.5192 36.3136 62.2082 38.0871H72.1725V41.7013H62.2812C62.7147 43.3101 64.184 44.4941 65.9298 44.4941H71.8439C72.0254 44.4941 72.1725 44.6412 72.1725 44.8227V47.7798C72.1725 47.9612 72.0254 48.1083 71.8439 48.1083H65.9298C61.8469 48.1083 58.5371 44.7985 58.5371 40.7156V38.7442ZM52.6706 48.1083C52.3721 48.1083 52.1301 47.8663 52.1301 47.5678V38.58C52.1301 36.6746 50.5855 35.13 48.6802 35.13C46.7748 35.13 45.2303 36.6746 45.2303 38.58V47.5678C45.2303 47.8663 44.9882 48.1083 44.6897 48.1083H42.1566C41.8581 48.1083 41.616 47.8663 41.616 47.5678L41.6161 38.58C41.6161 34.6786 44.7788 31.5158 48.6802 31.5158C52.5816 31.5158 55.7443 34.6786 55.7443 38.58V47.5678C55.7443 47.8663 55.5023 48.1083 55.2038 48.1083H52.6706ZM8.10254 32.0564C8.10254 31.7579 8.34455 31.5158 8.64308 31.5158H21.0331C21.3316 31.5158 21.5737 31.7579 21.5737 32.0564V34.5895C21.5737 34.888 21.3316 35.13 21.0331 35.13H16.6452V47.5679C16.6452 47.8664 16.4032 48.1084 16.1047 48.1084H13.5715C13.273 48.1084 13.031 47.8664 13.031 47.5679V35.13H8.64308C8.34455 35.13 8.10254 34.888 8.10254 34.5895V32.0564ZM28.3092 32.0564C28.3092 31.7579 28.0672 31.5158 27.7687 31.5158H25.2356C24.937 31.5158 24.695 31.7579 24.695 32.0564V41.0442C24.695 44.9456 27.8577 48.1083 31.7591 48.1083C35.6605 48.1083 38.8233 44.9456 38.8233 41.0442V32.0564C38.8233 31.7579 38.5813 31.5158 38.2827 31.5158H35.7496C35.4511 31.5158 35.2091 31.7579 35.2091 32.0564V41.0442C35.2091 42.9495 33.6645 44.4941 31.7591 44.4941C29.8538 44.4941 28.3092 42.9495 28.3092 41.0442V32.0564Z" clip-rule="evenodd" fill-rule="evenodd"></path>
</svg>
