<svg xmlns="http://www.w3.org/2000/svg" fill="none" viewBox="0 0 64 80" height="80" width="64">
<path fill="#FF6720" d="M63.1612 8.9145L50.1878 0.0078125L37.2148 8.9145V56.0082H47.5933V14.0879L50.1878 12.3279L52.7825 14.0879V55.4746C52.7825 64.3194 50.1878 73.2265 40.3283 79.4747C50.3669 79.4747 62.869 67.8765 63.1612 52.8151V8.9145Z" clip-rule="evenodd" fill-rule="evenodd"></path>
<path fill="#FF6720" d="M20.3951 68.7431C15.1131 67.0551 11.2671 61.9839 11.2671 56.0073V53.3407C11.2671 50.6741 8.67252 48.0074 8.67252 45.3408C8.67252 43.4862 9.92569 41.6323 10.6901 39.7779C11.0564 39.0472 11.2671 38.2195 11.2671 37.3406C11.2671 34.395 8.94392 32.0072 6.07789 32.0072C3.21241 32.0072 0.888672 34.395 0.888672 37.3406C0.888672 38.2195 1.09935 39.0467 1.46623 39.7779C2.23008 41.6318 3.48328 43.4862 3.48328 45.3408C3.48328 48.0074 0.888672 50.6741 0.888672 53.3407V56.0073C0.888672 69.2408 11.3641 80.0074 24.2402 80.0074L26.3158 74.7633L26.2272 74.5314C27.3415 75.3108 28.5343 76.012 29.7968 76.628L33.9912 68.3273C29.4859 66.1273 26.8348 61.1293 26.8348 56.0073V53.3407C26.8348 50.6741 24.2402 48.0074 24.2402 45.3408C24.2402 43.4862 25.4934 41.6323 26.2577 39.7779C26.6241 39.0472 26.8348 38.2195 26.8348 37.3406C26.8348 34.395 24.5116 32.0072 21.6455 32.0072C18.7795 32.0072 16.4563 34.395 16.4563 37.3406C16.4563 38.2195 16.667 39.0467 17.0334 39.7779C17.7977 41.6318 19.0509 43.4862 19.0509 45.3408C19.0509 48.0074 16.4563 50.6741 16.4563 53.3407V56.0073C16.4563 60.8161 17.8814 65.1424 20.3951 68.7431ZM11.2671 22.9404C11.2671 19.9948 8.94392 17.6071 6.07789 17.6071C3.21188 17.6071 0.888672 19.9948 0.888672 22.9404C0.888672 25.8861 3.21188 28.2738 6.07789 28.2738C8.94392 28.2738 11.2671 25.8861 11.2671 22.9404ZM11.2671 8.54038C11.2671 5.59478 8.94392 3.20703 6.07789 3.20703C3.21188 3.20703 0.888672 5.59478 0.888672 8.54038C0.888672 11.486 3.21188 13.8737 6.07789 13.8737C8.94392 13.8737 11.2671 11.486 11.2671 8.54038ZM26.8348 22.9404C26.8348 19.9948 24.5116 17.6071 21.6455 17.6071C18.7795 17.6071 16.4563 19.9948 16.4563 22.9404C16.4563 25.8861 18.7795 28.2738 21.6455 28.2738C24.5116 28.2738 26.8348 25.8861 26.8348 22.9404ZM26.8348 8.54038C26.8348 5.59478 24.5116 3.20703 21.6455 3.20703C18.7795 3.20703 16.4563 5.59478 16.4563 8.54038C16.4563 11.486 18.7795 13.8737 21.6455 13.8737C24.5116 13.8737 26.8348 11.486 26.8348 8.54038Z" clip-rule="evenodd" fill-rule="evenodd"></path>
<path fill="#FF6720" d="M24.2393 69.3376C31.3926 69.3376 37.2123 63.3562 37.2123 56.0045V22.9375H47.5907V56.0045C47.5907 69.238 37.1153 80.0046 24.2393 80.0046V69.3376Z" clip-rule="evenodd" fill-rule="evenodd"></path>
</svg>
