<svg xmlns="http://www.w3.org/2000/svg" fill="none" viewBox="0 0 136 81" height="81" width="136">
<path fill="#020202" d="M109.218 13.7418C100.799 13.7418 93.992 17.9166 87.9434 23.8161C89.124 25.3469 90.2717 26.8608 91.3892 28.3335C93.1591 30.6674 95.0506 33.1724 96.9562 35.5341C101.032 31.2781 105.079 28.4077 109.219 28.4077C115.581 28.4077 120.756 33.7619 120.756 40.0025C120.77 46.3924 115.609 51.5877 109.219 51.6154C101.653 51.6154 94.3935 42.0432 86.7073 31.9112C81.1811 24.6266 75.4669 17.09 68.3731 11.059C59.6357 3.63226 50.5031 0.0119142 40.4532 0.0119142C26.1329 -0.032748 12.8811 7.58131 5.70798 19.9757C-1.46516 32.37 -1.46516 47.6534 5.70798 60.0478C12.8811 72.4421 26.1329 80.0562 40.4532 80.0115C50.5016 80.0115 59.6357 76.3963 68.3731 68.9688C72.7044 65.2866 76.5208 61.04 80.0947 56.6368C76.8023 52.9389 73.7203 48.8874 70.6975 44.9007C66.9738 49.6501 63.0926 54.213 58.8746 57.7986C52.8178 62.9468 46.9646 65.3443 40.4532 65.3443C31.4021 65.3443 23.0386 60.5156 18.513 52.6771C13.9875 44.8387 13.9875 35.1813 18.513 27.3428C23.0386 19.5043 31.4021 14.6756 40.4532 14.6756C46.9646 14.6756 52.8174 17.0931 58.8746 22.2417C64.7498 27.236 69.9725 34.1203 75.0234 40.7777C84.5356 53.3157 94.3707 66.2808 109.219 66.2808C123.705 66.2425 135.427 54.4861 135.422 40.0001C135.42 25.6475 123.666 13.7418 109.218 13.7418Z"></path>
</svg>
