<svg width="22" height="24" fill="none" xmlns="http://www.w3.org/2000/svg" viewBox="0 0 22 24">
    <g clipPath="url(#clip0)">
        <path
            fillRule="evenodd"
            clipRule="evenodd"
            d="M14.975 23.576L14.92 3.011c-.139-.138-.41-.096-.515-.065l-.704.218a4.91 4.91 0 00-.337-.829c-.5-.953-1.23-1.457-2.114-1.458h-.003c-.06 0-.118.005-.177.01h-.006a1.947 1.947 0 00-.08-.091C10.6.384 10.106.184 9.515.2c-1.141.033-2.278.857-3.2 2.32-.648 1.031-1.14 2.325-1.281 3.327l-2.247.696c-.66.208-.681.229-.769.852C1.953 7.868.223 21.252.223 21.252l14.503 2.509.248-.186v.001zM10.223 1.141a1.168 1.168 0 00-.687-.18c-1.761.05-3.297 2.802-3.69 4.636l1.688-.523.301-.093c.221-1.165.776-2.373 1.502-3.15a3.31 3.31 0 01.885-.69zM8.669 4.722l2.422-.75c.008-.63-.06-1.563-.377-2.222-.336.139-.619.382-.822.6-.544.584-.988 1.476-1.222 2.372zm3.18-.984l1.127-.35c-.18-.584-.607-1.563-1.473-1.727.27.694.338 1.499.347 2.077z"
            fill="#95BF47"
        ></path>
        <path
            d="M18.224 4.542c-.087-.007-1.763-.033-1.763-.033s-1.402-1.362-1.541-1.501a.345.345 0 00-.194-.09v20.84l6.284-1.563S18.445 4.852 18.43 4.734a.228.228 0 00-.206-.192z"
            fill="#5E8E3E"
        ></path>
        <path
            d="M11.243 7.777l-.73 2.732s-.814-.37-1.78-.31c-1.416.09-1.43.983-1.416 1.207.077 1.22 3.29 1.488 3.47 4.35.143 2.25-1.193 3.792-3.118 3.912-2.31.146-3.582-1.217-3.582-1.217l.49-2.083s1.28.966 2.304.901c.67-.042.909-.586.885-.972-.101-1.593-2.718-1.5-2.883-4.117-.14-2.205 1.307-4.437 4.5-4.638 1.23-.079 1.86.236 1.86.236"
            fill="#fff"
        ></path>
    </g>
    <defs>
        <clipPath id="clip0">
            <path fill="#fff" d="M0 0h21.28v24H0z"></path>
        </clipPath>
    </defs>
</svg>
