<svg fill="none" xmlns="http://www.w3.org/2000/svg" viewBox="0 0 212 44"><path fill-rule="evenodd" clip-rule="evenodd" d="M0 0h43.862v44H0V0Zm12.867 10.707 7.603 14.226v9.24h2.924V25.08l7.603-14.373H27.78l-4.386 8.946c-.293.44-.585.88-.731 1.32-.084.338-.217.579-.342.806-.093.167-.181.328-.243.514-.073-.073-.11-.183-.146-.293-.037-.11-.073-.22-.146-.293-.074-.147-.11-.257-.147-.367a2.529 2.529 0 0 0-.146-.367v-.146l-.146-.147a2.881 2.881 0 0 1-.12-.28c-.048-.125-.082-.216-.172-.307-.147-.146-.293-.293-.293-.44l-4.386-8.946h-3.51Z" fill="currentColor"/><path d="M63.893 8.507c2.193 0 4.094.586 5.556 1.76l-1.462 1.76c-1.316-.88-2.632-1.467-4.24-1.467-2.486 0-4.386 1.32-5.41 3.813-.585 1.467-.877 3.374-.877 5.867 0 1.907.292 3.52.73 4.693 1.17 2.787 3.071 4.107 5.995 4.107 1.609 0 3.07-.44 4.387-1.467l1.462 1.907c-1.901 1.173-3.948 1.76-6.141 1.76-2.632 0-4.825-1.027-6.58-3.227-1.754-2.053-2.485-4.84-2.485-8.213 0-3.373.877-6.013 2.632-8.213 1.608-1.907 3.801-3.08 6.433-3.08ZM72.226 23.027c0-2.64.585-4.694 1.9-6.16 1.317-1.467 2.925-2.347 4.972-2.347 2.34 0 4.24.88 5.556 2.787 1.023 1.466 1.462 3.52 1.462 6.013 0 2.933-.877 5.28-2.486 6.747-1.17 1.026-2.631 1.613-4.386 1.613-2.193 0-3.801-.733-5.117-2.347-1.316-1.466-1.9-3.666-1.9-6.306Zm10.235-4.254c-.731-1.32-1.755-2.053-3.363-2.053s-2.632.587-3.363 1.76c-.585.88-.731 2.347-.731 4.253 0 2.494.292 4.254 1.023 5.28.731 1.027 1.755 1.614 3.217 1.614 1.755 0 2.924-.88 3.509-2.494.292-.88.439-2.053.439-3.52.146-2.2-.147-3.813-.731-4.84ZM90.795 19.067c0-1.614-.146-2.934-.585-3.96l2.486-.587c.438.733.584 1.613.584 2.347v.146c.585-.586 1.17-1.173 2.047-1.613 1.024-.587 1.9-.88 2.778-.88 1.316 0 2.486.587 3.217 1.613.146.294.438.734.585 1.027 1.754-1.76 3.362-2.64 5.117-2.64 1.169 0 2.193.44 2.924 1.173.731.88 1.17 1.907 1.17 3.08v12.174h-2.632V18.92c0-1.613-.731-2.347-2.047-2.347-.731 0-1.608.294-2.339.88-.293.294-.878.734-1.609 1.32l-.292.294v11.88h-2.778v-11.44c0-1.027-.146-1.76-.439-2.054-.438-.44-.877-.586-1.608-.586-1.17 0-2.485.733-4.094 2.2v12.026h-2.485V19.067ZM115.65 7.92l2.632-.587c.293 1.174.439 2.494.439 4.107v5.427c1.462-1.467 3.07-2.2 4.678-2.2 1.901 0 3.509.733 4.533 2.2 1.169 1.466 1.754 3.52 1.754 6.013 0 2.64-.585 4.693-1.754 6.307-1.17 1.613-2.778 2.346-4.679 2.346a5.15 5.15 0 0 1-2.485-.586c-.878-.44-1.462-.88-1.901-1.467-.146.733-.292 1.32-.439 1.76h-2.485c.292-.733.438-2.053.438-4.107v-15.4c-.146-1.76-.292-3.08-.731-3.813Zm4.24 9.973a4.457 4.457 0 0 0-1.169 1.174v8.36c1.023 1.32 2.339 1.906 3.947 1.906 1.316 0 2.34-.44 2.924-1.466.732-1.174 1.17-2.787 1.17-5.134 0-2.053-.292-3.52-1.023-4.4-.585-.88-1.609-1.32-3.071-1.32-.877-.146-1.9.147-2.778.88ZM133.487 9.973c0-.586.146-1.026.585-1.466.438-.44.877-.587 1.462-.587s1.023.147 1.462.587c.438.44.585.88.585 1.466 0 .587-.147 1.027-.585 1.467-.439.44-.877.587-1.462.587s-1.024-.147-1.462-.587c-.439-.44-.585-.88-.585-1.467Zm.585 21.12V14.96l2.631-.44v16.573h-2.631ZM142.406 19.067c0-1.174 0-1.907-.146-2.2 0-.44-.292-.88-.585-1.614l2.486-.733c.438.88.585 1.613.585 2.493 1.608-1.613 3.362-2.493 5.117-2.493.877 0 1.608.147 2.339.587.731.44 1.316 1.026 1.608 1.76.293.586.439 1.173.439 1.906v12.32h-2.485v-11c0-1.32-.147-2.2-.585-2.64a2.42 2.42 0 0 0-1.755-.733c-.585 0-1.462.293-2.339.733a8.525 8.525 0 0 0-2.193 1.614v12.026h-2.486V19.067ZM160.096 18.48l-1.316-1.76c2.193-1.467 4.387-2.2 6.726-2.2 2.339 0 3.801.88 4.532 2.493.293.587.293 1.467.293 2.787v.88l-.147 5.28v.733c0 .88 0 1.467.147 1.907.146.587.585 1.027 1.169 1.32l-1.316 1.76c-1.169-.44-1.9-1.173-2.193-2.347-1.462 1.467-3.07 2.2-4.678 2.2-1.609 0-2.924-.44-3.948-1.32-.877-.733-1.316-1.906-1.316-3.373 0-1.907.731-3.227 2.193-4.253 1.462-1.027 3.656-1.467 6.287-1.467h1.17v-1.173c0-1.32-.146-2.2-.585-2.494-.585-.586-1.17-.88-2.193-.88-.877 0-1.901.294-3.07.734-.439.293-1.024.733-1.755 1.173Zm7.749 8.653.146-4.253h-1.315c-2.34 0-3.802.44-4.679 1.32-.585.587-.877 1.467-.877 2.64 0 1.907.877 2.933 2.778 2.933 1.754-.146 3.07-1.026 3.947-2.64ZM178.665 14.96h4.094l-.731 2.053h-3.363v10.414c0 .88.147 1.466.439 1.906.292.294.877.587 1.608.587.585 0 1.17-.147 1.609-.293l.292 1.613c-.877.44-1.754.587-2.778.587-2.485 0-3.655-1.174-3.655-3.667V17.013h-2.193V14.96h2.047v-.293c0-.294.146-1.467.292-3.374v-.44l2.632-.586c-.293 1.76-.293 3.373-.293 4.693ZM185.392 23.027c0-2.64.584-4.694 1.9-6.16 1.17-1.467 2.924-2.347 4.971-2.347 2.34 0 4.24.88 5.556 2.787 1.024 1.466 1.462 3.52 1.462 6.013 0 2.933-.877 5.28-2.485 6.747-1.17 1.026-2.632 1.613-4.386 1.613-2.194 0-3.802-.733-5.118-2.347-1.169-1.466-1.9-3.666-1.9-6.306Zm10.38-4.254c-.731-1.32-1.754-2.053-3.362-2.053-1.609 0-2.632.587-3.363 1.76-.585.88-.731 2.347-.731 4.253 0 2.494.292 4.254 1.023 5.28.731 1.027 1.755 1.614 3.217 1.614 1.754 0 2.924-.88 3.509-2.494.292-.88.438-2.053.438-3.52 0-2.2-.292-3.813-.731-4.84ZM204.104 18.773c0-1.466-.146-2.64-.584-3.52l2.485-.733c.439.88.585 1.613.585 2.493v.294c1.316-1.76 2.778-2.64 4.532-2.64.293 0 .585 0 .878.146l-1.024 2.787c-.292-.147-.585-.147-.731-.147-.585 0-1.316.147-1.901.587-.584.44-1.169.88-1.462 1.467a5.493 5.493 0 0 0-.292 1.76v10.12h-2.486V18.773Z" fill="currentColor"/></svg>