<svg width="36" height="34" viewBox="0 0 36 34" fill="none" xmlns="http://www.w3.org/2000/svg">
<path fill-rule="evenodd" clip-rule="evenodd" d="M10.8944 17.896C9.74041 16.9831 9 15.5703 9 13.9846C9 11.2317 11.2317 9 13.9846 9C15.6318 9 17.0924 9.79895 17.9999 11.0305C18.9075 9.79895 20.3681 9 22.0152 9C24.7682 9 26.9999 11.2317 26.9999 13.9846C26.9999 15.5153 26.31 16.8848 25.2242 17.7991L20.5706 23.4781C19.3049 25.0227 16.9486 25.042 15.6577 23.5184L10.8944 17.896Z" fill="white"/>
<mask id="path-2-inside-1" fill="white">
<path fill-rule="evenodd" clip-rule="evenodd" d="M3.77282 17.7205C1.47457 15.9019 0 13.0879 0 9.92958C0 4.44562 4.44562 0 9.92958 0C13.2111 0 16.1208 1.5918 17.9287 4.04538C19.7366 1.5918 22.6463 0 25.9278 0C31.4117 0 35.8574 4.44562 35.8574 9.92958C35.8574 12.9807 34.4813 15.7103 32.3159 17.5318L20.109 32.4283C19.1174 33.6384 17.2716 33.6535 16.2603 32.4599L3.77282 17.7205Z"/>
</mask>
<path fill-rule="evenodd" clip-rule="evenodd" d="M3.77282 17.7205C1.47457 15.9019 0 13.0879 0 9.92958C0 4.44562 4.44562 0 9.92958 0C13.2111 0 16.1208 1.5918 17.9287 4.04538C19.7366 1.5918 22.6463 0 25.9278 0C31.4117 0 35.8574 4.44562 35.8574 9.92958C35.8574 12.9807 34.4813 15.7103 32.3159 17.5318L20.109 32.4283C19.1174 33.6384 17.2716 33.6535 16.2603 32.4599L3.77282 17.7205Z" fill="#FF3636" fill-opacity="0.3"/>
<path d="M3.77282 17.7205L4.91953 16.749L4.82279 16.6348L4.70544 16.542L3.77282 17.7205ZM17.9287 4.04538L16.7187 4.93691L17.9287 6.57898L19.1386 4.93691L17.9287 4.04538ZM32.3159 17.5318L31.3484 16.3817L31.2417 16.4714L31.1534 16.5792L32.3159 17.5318ZM20.109 32.4283L21.2715 33.3809L20.109 32.4283ZM16.2603 32.4599L17.407 31.4884L17.407 31.4883L16.2603 32.4599ZM4.70544 16.542C2.75191 14.9961 1.50293 12.6091 1.50293 9.92958H-1.50293C-1.50293 13.5667 0.197225 16.8077 2.8402 18.8991L4.70544 16.542ZM1.50293 9.92958C1.50293 5.27567 5.27567 1.50293 9.92958 1.50293V-1.50293C3.61558 -1.50293 -1.50293 3.61558 -1.50293 9.92958H1.50293ZM9.92958 1.50293C12.7133 1.50293 15.1819 2.85124 16.7187 4.93691L19.1386 3.15384C17.0597 0.332372 13.7088 -1.50293 9.92958 -1.50293V1.50293ZM19.1386 4.93691C20.6754 2.85124 23.144 1.50293 25.9278 1.50293V-1.50293C22.1486 -1.50293 18.7977 0.332372 16.7187 3.15384L19.1386 4.93691ZM25.9278 1.50293C30.5817 1.50293 34.3544 5.27567 34.3544 9.92958H37.3603C37.3603 3.61558 32.2418 -1.50293 25.9278 -1.50293V1.50293ZM34.3544 9.92958C34.3544 12.5184 33.1888 14.8335 31.3484 16.3817L33.2833 18.6819C35.7737 16.5871 37.3603 13.4429 37.3603 9.92958H34.3544ZM31.1534 16.5792L18.9465 31.4757L21.2715 33.3809L33.4783 18.4844L31.1534 16.5792ZM18.9465 31.4757C18.5499 31.9598 17.8115 31.9658 17.407 31.4884L15.1136 33.4314C16.7316 35.3412 19.685 35.317 21.2715 33.3809L18.9465 31.4757ZM17.407 31.4883L4.91953 16.749L2.62611 18.692L15.1136 33.4314L17.407 31.4883Z" fill="#FF3636" fill-opacity="0.7" mask="url(#path-2-inside-1)"/>
</svg>
