<svg fill="none" xmlns="http://www.w3.org/2000/svg" viewBox="0 0 198 36"><g clip-path="url(#a)" fill="currentColor"><path d="M73.95 11.576c-3.023-.637-6.128-1.31-6.128-3.737 0-2.676 2.825-3.237 5.238-3.237 2.521.014 5.008.58 7.287 1.656l.217.106a.13.13 0 0 0 .17-.054l2.178-3.841a.127.127 0 0 0-.013-.148.129.129 0 0 0-.041-.032l-.233-.116C79.34.687 76.266 0 72.96 0c-6.422 0-10.572 3.104-10.572 7.914 0 5.54 4.653 7.263 9.675 8.298 3.163.652 6.226 1.297 6.226 3.824 0 2.73-3.038 3.311-5.628 3.311-2.738 0-5.483-.798-8.397-2.442l-.091-.053a.13.13 0 0 0-.145.008.13.13 0 0 0-.034.04L61.74 24.89a.13.13 0 0 0 .046.174l.094.056a22.202 22.202 0 0 0 10.791 2.868c7.031 0 11.063-2.912 11.063-7.99-.004-6.34-5.628-7.545-9.782-8.423ZM100.086 22.933a.117.117 0 0 0-.026-.045.134.134 0 0 0-.093-.044.132.132 0 0 0-.051.009l-.287.11c-1.126.434-1.903.62-3.528.62-1.886 0-3.112-1.016-3.112-2.587v-9.57h6.73a.129.129 0 0 0 .13-.13V7.426a.128.128 0 0 0-.128-.128h-6.724V2.25a.128.128 0 0 0-.129-.128h-4.927a.128.128 0 0 0-.128.13v5.042H83.79a.129.129 0 0 0-.129.13v3.88a.127.127 0 0 0 .08.121.13.13 0 0 0 .05.01h4.023v10.086c0 4.05 2.716 6.467 7.263 6.467 2.642 0 4.186-.548 5.795-1.21l.305-.131a.132.132 0 0 0 .066-.066.13.13 0 0 0 .004-.093l-1.162-3.556ZM44.326.569H6.348C2.75.569 0 3.485 0 7.079v20.254a.139.139 0 0 0 .139.139h4.91a.14.14 0 0 0 .14-.14V6.778h40.3v20.556a.138.138 0 0 0 .139.139h4.916a.14.14 0 0 0 .139-.14V7.08c0-3.594-2.744-6.51-6.357-6.51ZM123.102 23.695h-.781c-.965 0-1.477-.526-1.477-1.517v-8.013c0-4.967-2.698-7.388-8.277-7.388a20.695 20.695 0 0 0-8.923 1.863.128.128 0 0 0-.071.157l1.231 3.75a.117.117 0 0 0 .026.045.124.124 0 0 0 .042.031.134.134 0 0 0 .102.004c2.712-1.07 5.132-1.655 6.821-1.655 1.918 0 3.865.354 3.865 2.97v1.115s-.306.023-6.463.517c-6.157.495-7.056 4.795-7.056 6.538 0 3.46 2.756 5.879 6.703 5.879a11.26 11.26 0 0 0 7.498-2.717c.461.962 1.764 2.576 5.319 2.576h1.453a.132.132 0 0 0 .05-.009.123.123 0 0 0 .042-.028.123.123 0 0 0 .039-.091v-3.899a.136.136 0 0 0-.011-.053.131.131 0 0 0-.132-.075Zm-7.445-1.892c-2.282 1.612-3.905 2.277-5.572 2.277-1.735 0-2.905-.894-2.905-2.225 0-.565.066-2.34 2.53-2.655 2.463-.315 5.943-.753 5.943-.753l.004 3.356ZM189.815 15.246c-3.32-.582-4.959-.888-4.959-2.446 0-.925.439-2.149 4.03-2.149 2.213.002 4.39.56 6.329 1.623l.139.072a.132.132 0 0 0 .173-.05l1.926-3.335a.132.132 0 0 0 .011-.102.12.12 0 0 0-.026-.046.12.12 0 0 0-.041-.032l-.162-.079c-2.325-1.066-4.554-1.945-8.322-1.945-5.763 0-8.939 2.218-8.939 6.245 0 4.582 4.271 5.675 8.273 6.337 3.54.586 4.964 1.082 4.964 2.64 0 1.42-1.372 2.11-4.302 2.11-2.698 0-5.444-1.143-7.283-2.103l-.116-.056a.131.131 0 0 0-.17.054l-1.911 3.369a.12.12 0 0 0-.016.048.124.124 0 0 0 .027.097.12.12 0 0 0 .038.033l.115.062c3.009 1.554 6.225 2.376 9.316 2.376 6.032 0 9.091-2.126 9.091-6.32.002-4.572-4.046-5.679-8.185-6.403ZM136.877 6.778c-2.343 0-4.323.771-6.226 2.43V7.424a.125.125 0 0 0-.038-.09.127.127 0 0 0-.091-.038h-4.93a.132.132 0 0 0-.092.038.123.123 0 0 0-.037.092V35.87c0 .017.003.034.009.05.007.016.016.03.029.043a.124.124 0 0 0 .093.037h4.922a.132.132 0 0 0 .093-.037.136.136 0 0 0 .028-.042.12.12 0 0 0 .01-.05V25.629c1.812 1.503 4.08 2.363 6.226 2.363 5.504 0 9.339-4.36 9.339-10.605.004-5.95-4.099-10.608-9.335-10.608Zm-1.297 16.814c-1.801 0-3.32-.847-4.935-2.744v-7.105c1.66-1.777 3.19-2.568 4.935-2.568 3.31 0 5.448 2.438 5.448 6.209 0 3.712-2.19 6.208-5.448 6.208ZM154.074.569h-4.927a.13.13 0 0 0-.13.13v26.642c0 .072.058.13.13.13h4.927a.13.13 0 0 0 .131-.13V.7a.13.13 0 0 0-.131-.13ZM175.362 22.013a.132.132 0 0 0-.174-.05l-.168.091c-1.679.88-3.194 1.768-6.376 1.768-3.451 0-5.794-1.915-6.263-5.12h14.616a.129.129 0 0 0 .131-.129v-1.409c0-6.415-3.841-10.386-10.026-10.386-5.925 0-10.065 4.424-10.065 10.76 0 6.253 4.477 10.453 11.138 10.453 3.162.042 6.272-.799 8.98-2.427l.087-.056a.132.132 0 0 0 .056-.079.137.137 0 0 0-.014-.095l-1.922-3.321Zm-8.212-11.045c2.698 0 4.358 1.4 4.802 4.048h-9.546c.456-2.614 2.142-4.048 4.744-4.048Z"/></g><defs><clipPath id="a"><path fill="currentColor" d="M0 0h198v36H0z"/></clipPath></defs></svg>