<svg width="499" height="271" viewBox="0 0 499 271" fill="none" xmlns="http://www.w3.org/2000/svg">
<g clip-path="url(#clip0_822_682)">
<path d="M482.64 225.225L479.381 224.832C469.662 223.596 460.617 219.101 453.763 212.023L321.235 74.7194V270.225H472.865C487.134 270.225 498.651 258.652 498.651 244.438V243.427C498.651 234.158 491.741 226.349 482.584 225.225H482.64ZM378.314 227.247C368.82 227.247 361.123 219.551 361.123 210.056C361.123 200.562 368.82 192.865 378.314 192.865C387.808 192.865 395.505 200.562 395.505 210.056C395.505 219.551 387.808 227.247 378.314 227.247Z" fill="#313131"/>
<path d="M212.022 73.8197V180.393L299.326 270.224H321.292V186.235L212.022 73.8197Z" fill="#F9AE2D"/>
<path d="M212.022 73.8201L147.921 7.865C131.797 -8.76421 103.651 2.69646 103.651 25.8425V68.8762L212.022 180.393V73.8201Z" fill="#F77133"/>
<path d="M321.292 186.236V74.7189L256.292 7.865C240.169 -8.76421 212.022 2.69646 212.022 25.8425V73.7639L321.292 186.18V186.236Z" fill="#FACA55"/>
<path d="M212.022 270.225H299.326L212.022 180.394V270.225Z" fill="#F0A82D"/>
<path d="M103.651 270.224H189.157L103.651 180.786V270.224Z" fill="#C64F2D"/>
<path d="M0 72.4709V244.437C0 249.774 1.62921 254.718 4.38202 258.875C6.23596 261.628 8.59551 263.988 11.3483 265.842C12.6966 266.797 14.2135 267.583 15.7303 268.201C18.8202 269.493 22.191 270.224 25.7865 270.224H103.596V180.786L0 72.4709Z" fill="#0B54E8"/>
<path d="M103.651 68.9325V180.786L189.157 270.225H212.022V180.393L103.651 68.9325Z" fill="#CD562E"/>
<path d="M103.652 68.9329L44.2697 7.86549C28.1461 -8.76372 0 2.69695 0 25.843V72.4722L103.652 180.787V68.9329Z" fill="#3271EC"/>
</g>
<defs>
<clipPath id="clip0_822_682">
<rect width="498.708" height="270.225" fill="white"/>
</clipPath>
</defs>
</svg>
