<?xml version="1.0" encoding="UTF-8"?>
<svg version="1.1" xmlns="http://www.w3.org/2000/svg" width="2495" height="2504">
<path d="M0 0 C4.70520109 2.10442159 9.42365908 4.17808661 14.14453125 6.24707031 C15.39212975 6.79386948 15.39212975 6.79386948 16.66493225 7.35171509 C18.37417643 8.10073604 20.08345104 8.84968754 21.79275513 9.59857178 C25.29737497 11.13508788 28.80038767 12.67525047 32.30348206 14.21524048 C43.1784321 18.99529102 54.06519524 23.74783121 64.95703125 28.48925781 C79.16334601 34.67389495 93.35543337 40.89025685 107.54003906 47.12451172 C120.00283366 52.60144548 132.47542182 58.05534502 144.95703125 63.48925781 C159.16329781 69.67400618 173.35543293 75.89025666 187.54003906 82.12451172 C200.00283366 87.60144548 212.47542182 93.05534502 224.95703125 98.48925781 C239.16329781 104.67400618 253.35543293 110.89025666 267.54003906 117.12451172 C280.00283366 122.60144548 292.47542182 128.05534502 304.95703125 133.48925781 C319.16329781 139.67400618 333.35543293 145.89025666 347.54003906 152.12451172 C360.00283366 157.60144548 372.47542182 163.05534502 384.95703125 168.48925781 C399.16329781 174.67400618 413.35543293 180.89025666 427.54003906 187.12451172 C440.00283366 192.60144548 452.47542182 198.05534502 464.95703125 203.48925781 C479.16329781 209.67400618 493.35543293 215.89025666 507.54003906 222.12451172 C520.00283366 227.60144548 532.47542182 233.05534502 544.95703125 238.48925781 C559.16329781 244.67400618 573.35543293 250.89025666 587.54003906 257.12451172 C600.00283366 262.60144548 612.47542182 268.05534502 624.95703125 273.48925781 C639.16329781 279.67400618 653.35543293 285.89025666 667.54003906 292.12451172 C680.00283366 297.60144548 692.47542182 303.05534502 704.95703125 308.48925781 C719.16329781 314.67400618 733.35543293 320.89025666 747.54003906 327.12451172 C760.00283366 332.60144548 772.47542182 338.05534502 784.95703125 343.48925781 C799.16329781 349.67400618 813.35543293 355.89025666 827.54003906 362.12451172 C840.80660616 367.95467354 854.0851542 373.75673388 867.37200928 379.54049683 C876.49235683 383.51096814 885.60867276 387.49027036 894.71484375 391.49316406 C895.57043884 391.86917252 896.42603394 392.24518097 897.30755615 392.63258362 C901.60327176 394.52088271 905.89799482 396.41139943 910.19140625 398.30493164 C918.75228799 402.07601616 927.3305026 405.79743841 935.94921875 409.43457031 C938.47683487 410.50673541 941.00414252 411.57962521 943.53143311 412.65255737 C945.88234574 413.64522211 948.23898661 414.62322427 950.59619141 415.60083008 C963.71231522 421.1193387 973.25294712 427.16775555 979.01402277 440.62667212 C980.60130695 444.93517026 980.87816957 448.73685568 980.83422941 453.29453522 C980.83856059 454.09662688 980.84289177 454.89871853 980.8473542 455.725116 C980.85820482 458.41104901 980.84772917 461.09646672 980.83734798 463.78239536 C980.84078138 465.73648683 980.8455281 467.69057636 980.85146895 469.64466181 C980.86401421 475.03312039 980.85781256 480.42142129 980.84863527 485.80988069 C980.84194296 491.66514492 980.85258281 497.52038146 980.86103112 503.37563986 C980.87342512 513.64414684 980.87470085 523.91261215 980.86848068 534.18112373 C980.86185428 545.19961499 980.86172627 556.21807764 980.86952782 567.23656845 C980.87001582 567.93245316 980.87050381 568.62833787 980.8710066 569.34531 C980.87301478 572.17954412 980.87506788 575.01377821 980.87717834 577.84801226 C980.89858422 606.62534738 980.90063179 635.40266135 980.8951213 664.18000243 C980.89436559 668.15713109 980.89363797 672.13425977 980.89293933 676.11138844 C980.89280024 676.90133979 980.89266115 677.69129113 980.89251784 678.5051804 C980.88956604 696.00873153 980.89257789 713.51228011 980.89683562 731.01583078 C980.89741778 733.4111438 980.89798662 735.80645683 980.89855125 738.20176986 C980.9000662 744.62279153 980.90159311 751.04381319 980.90314426 757.46483485 C980.91390246 802.29496002 980.9186014 847.12508284 980.9106741 891.95520878 C980.91052579 892.80039742 980.91037748 893.64558607 980.91022468 894.51638649 C980.90856567 903.94121307 980.90681609 913.36603964 980.90503167 922.7908662 C980.90487065 923.64179433 980.90470962 924.49272245 980.90454372 925.36943627 C980.90323596 932.27531537 980.90323596 932.27531537 980.90258253 935.6931069 C980.89219272 990.11369482 980.89995365 1044.5342504 980.92358398 1098.95483398 C980.9295274 1112.66512325 980.93541897 1126.37541252 980.94099331 1140.08570194 C980.94150896 1141.35200003 980.94150896 1141.35200003 980.94203504 1142.64387989 C980.95256331 1168.66409098 980.95815644 1194.68429937 980.95855045 1220.7045126 C980.95856324 1221.52148478 980.95857602 1222.33845696 980.95858919 1223.18018588 C980.95881749 1241.11503292 980.95781132 1259.04987972 980.95568013 1276.98472663 C980.95492537 1283.4022411 980.95424716 1289.81975557 980.95359998 1296.23727005 C980.95343729 1297.83378496 980.95326963 1299.43029986 980.95309697 1301.02681476 C980.95037612 1326.4625235 980.9589287 1351.89821261 980.97295107 1377.33391713 C980.98736201 1403.66759565 980.9869046 1430.00123684 980.96957635 1456.3349141 C980.96777219 1459.16398928 980.966032 1461.99306449 980.96434212 1464.82213974 C980.96392162 1465.51643813 980.96350112 1466.21073653 980.96306787 1466.92607426 C980.95677491 1477.91101623 980.96386677 1488.89590681 980.97655132 1499.88084153 C980.98874666 1510.68763123 980.98627629 1521.49433644 980.969331 1532.30112006 C980.96067726 1538.07983765 980.95832831 1543.85836731 980.97360032 1549.63707543 C980.98737304 1554.89809174 980.98261544 1560.1587591 980.96331513 1565.41975506 C980.95959102 1567.30734161 980.96250636 1569.1949565 980.97302822 1571.08251739 C981.0839204 1592.45518143 976.09899423 1610.84000886 961.02148438 1626.62280273 C948.26140414 1639.39288931 931.26864565 1645.46016238 914.89453125 1652.23925781 C912.98792766 1653.03250048 911.08151879 1653.82621129 909.17529297 1654.62036133 C905.22521516 1656.26552711 901.27431833 1657.90870124 897.32275391 1659.55029297 C889.11871028 1662.95975906 880.92266536 1666.38830738 872.72756958 1669.81921387 C870.95605909 1670.56084958 869.18447231 1671.30230308 867.41281128 1672.0435791 C853.58222225 1677.83051544 839.76637906 1683.65183501 825.95703125 1689.48925781 C805.9238886 1697.95757401 785.86654789 1706.36703272 765.79980469 1714.75537109 C760.43749275 1716.99712595 755.07604062 1719.2409315 749.71484375 1721.48535156 C748.383927 1722.04252869 748.383927 1722.04252869 747.02612305 1722.61096191 C744.33641163 1723.73702675 741.64671791 1724.86313384 738.95703125 1725.98925781 C719.24000261 1734.24442706 719.24000261 1734.24442706 709.44586182 1738.33859253 C690.26861393 1746.35517429 671.10218946 1754.39630623 651.95703125 1762.48925781 C637.25929455 1768.70221621 622.5528507 1774.8936775 607.83203125 1781.05175781 C606.9480365 1781.42156769 606.06404175 1781.79137756 605.15325928 1782.1723938 C598.0327954 1785.15082006 590.91155749 1788.1273939 583.7902832 1791.10388184 C577.55383316 1793.71063233 571.31771826 1796.31818255 565.08203125 1798.92675781 C564.19653595 1799.29715179 563.31104065 1799.66754578 562.39871216 1800.04916382 C547.7385289 1806.1827521 533.09765487 1812.36133713 518.46148682 1818.55197144 C502.80764325 1825.17122861 487.12560775 1831.72097488 471.43267822 1838.24694824 C456.8179812 1844.32565627 442.22258693 1850.4482032 427.64453125 1856.61425781 C413.05130675 1862.78643294 398.44957637 1868.93738234 383.83203125 1875.05175781 C382.94758331 1875.42174896 382.06313538 1875.79174011 381.15188599 1876.17294312 C374.03187952 1879.15118547 366.91110267 1882.127584 359.7902832 1885.10388184 C353.55383316 1887.71063233 347.31771826 1890.31818255 341.08203125 1892.92675781 C340.19653595 1893.29715179 339.31104065 1893.66754578 338.39871216 1894.04916382 C323.7385289 1900.1827521 309.09765487 1906.36133713 294.46148682 1912.55197144 C278.80764325 1919.17122861 263.12560775 1925.72097488 247.43267822 1932.24694824 C232.8179812 1938.32565627 218.22258693 1944.4482032 203.64453125 1950.61425781 C189.05130675 1956.78643294 174.44957637 1962.93738234 159.83203125 1969.05175781 C158.94758331 1969.42174896 158.06313538 1969.79174011 157.15188599 1970.17294312 C150.03187952 1973.15118547 142.91110267 1976.127584 135.7902832 1979.10388184 C129.55383316 1981.71063233 123.31771826 1984.31818255 117.08203125 1986.92675781 C116.19653595 1987.29715179 115.31104065 1987.66754578 114.39871216 1988.04916382 C99.74088682 1994.18176559 85.10242412 2000.35948676 70.46853638 2006.5489502 C53.66684012 2013.65329393 36.83535254 2020.68469202 19.98876953 2027.68188477 C10.43410325 2031.6523538 0.88953958 2035.64356564 -8.62890625 2039.70019531 C-10.37701875 2040.44347782 -12.12514664 2041.18672411 -13.87329102 2041.92993164 C-17.08808943 2043.29705823 -20.29888886 2044.67302794 -23.50756836 2046.05444336 C-41.44686509 2053.7210511 -52.82249208 2055.83261097 -71.28173828 2048.54467773 C-75.42974208 2046.86352423 -79.54853926 2045.1139618 -83.66796875 2043.36425781 C-85.23745135 2042.70315789 -86.80720191 2042.04269381 -88.37719727 2041.3828125 C-91.71278787 2039.98003904 -95.04701787 2038.57409698 -98.38037109 2037.16601562 C-103.54016131 2034.98810829 -108.70671829 2032.82661132 -113.875 2030.66894531 C-133.11511616 2022.63449545 -152.33339489 2014.5496364 -171.53659058 2006.42736816 C-186.18544328 2000.23306691 -200.85752669 1994.0962631 -215.54296875 1987.98925781 C-231.16621214 1981.49226374 -246.7718094 1974.95565084 -262.35546875 1968.36425781 C-276.94869325 1962.19208269 -291.55042363 1956.04113328 -306.16796875 1949.92675781 C-307.05241669 1949.55676666 -307.93686462 1949.18677551 -308.84811401 1948.80557251 C-315.07930594 1946.19911425 -321.3110653 1943.59401431 -327.54296875 1940.98925781 C-334.66836817 1938.01104568 -341.79347917 1935.0321459 -348.91796875 1932.05175781 C-350.2462117 1931.49616684 -350.2462117 1931.49616684 -351.60128784 1930.92935181 C-366.2614711 1924.79576352 -380.90234513 1918.61717849 -395.53851318 1912.42654419 C-410.18672584 1906.23251993 -424.85817063 1900.09599532 -439.54296875 1893.98925781 C-455.16621214 1887.49226374 -470.7718094 1880.95565084 -486.35546875 1874.36425781 C-500.94869325 1868.19208269 -515.55042363 1862.04113328 -530.16796875 1855.92675781 C-531.05241669 1855.55676666 -531.93686462 1855.18677551 -532.84811401 1854.80557251 C-539.07930594 1852.19911425 -545.3110653 1849.59401431 -551.54296875 1846.98925781 C-558.66836817 1844.01104568 -565.79347917 1841.0321459 -572.91796875 1838.05175781 C-574.2462117 1837.49616684 -574.2462117 1837.49616684 -575.60128784 1836.92935181 C-590.2614711 1830.79576352 -604.90234513 1824.61717849 -619.53851318 1818.42654419 C-634.18672584 1812.23251993 -648.85817063 1806.09599532 -663.54296875 1799.98925781 C-679.16621214 1793.49226374 -694.7718094 1786.95565084 -710.35546875 1780.36425781 C-724.94869325 1774.19208269 -739.55042363 1768.04113328 -754.16796875 1761.92675781 C-755.05241669 1761.55676666 -755.93686462 1761.18677551 -756.84811401 1760.80557251 C-763.07930594 1758.19911425 -769.3110653 1755.59401431 -775.54296875 1752.98925781 C-782.66836817 1750.01104568 -789.79347917 1747.0321459 -796.91796875 1744.05175781 C-798.2462117 1743.49616684 -798.2462117 1743.49616684 -799.60128784 1742.92935181 C-814.2614711 1736.79576352 -828.90234513 1730.61717849 -843.53851318 1724.42654419 C-858.18672584 1718.23251993 -872.85817063 1712.09599532 -887.54296875 1705.98925781 C-903.16621214 1699.49226374 -918.7718094 1692.95565084 -934.35546875 1686.36425781 C-948.0587575 1680.56847923 -961.76819459 1674.78817566 -975.49398804 1669.04586792 C-978.14658984 1667.93570528 -980.79857183 1666.8240733 -983.45043945 1665.7121582 C-991.7623941 1662.22922579 -1000.08028296 1658.76220884 -1008.41635132 1655.33732605 C-1012.3483608 1653.72070945 -1016.27717651 1652.09641289 -1020.20574951 1650.47146606 C-1022.06846614 1649.70351871 -1023.93272336 1648.93929548 -1025.79864502 1648.1791687 C-1047.37077055 1639.38940443 -1065.89862694 1628.07005778 -1076.2265625 1606.20410156 C-1080.86081628 1594.88662127 -1082.70771015 1583.77389924 -1082.66946858 1571.63623428 C-1082.67099513 1570.84114671 -1082.67252168 1570.04605914 -1082.67409448 1569.226878 C-1082.67798153 1566.57101243 -1082.6747836 1563.91520418 -1082.6716032 1561.25933838 C-1082.67295031 1559.32443855 -1082.67473446 1557.38953898 -1082.67691544 1555.45463991 C-1082.6816474 1550.12421129 -1082.68014313 1544.79379973 -1082.67763767 1539.46337026 C-1082.67600587 1533.66932068 -1082.68014435 1527.87527477 -1082.68354684 1522.08122635 C-1082.68904319 1511.25423577 -1082.69000107 1500.42725034 -1082.68888408 1489.60025859 C-1082.68787641 1479.36760385 -1082.68922506 1469.13495218 -1082.69266319 1458.90229797 C-1082.69289285 1458.21371092 -1082.6931225 1457.52512386 -1082.69335911 1456.81567053 C-1082.69430075 1454.01114328 -1082.69525644 1451.20661604 -1082.6962303 1448.4020888 C-1082.70637389 1419.14776769 -1082.70943624 1389.89344849 -1082.71002241 1360.63912582 C-1082.71008716 1357.49049123 -1082.7101551 1354.34185664 -1082.71022582 1351.19322205 C-1082.71024283 1350.41189003 -1082.71025983 1349.63055801 -1082.71027735 1348.82554926 C-1082.71068578 1331.5125367 -1082.71287559 1314.1995245 -1082.71538167 1296.88651213 C-1082.71641001 1289.7580931 -1082.71740004 1282.62967407 -1082.71839792 1275.50125504 C-1082.7185085 1274.71363624 -1082.71861909 1273.92601745 -1082.71873303 1273.11453142 C-1082.72505695 1227.98144469 -1082.72918216 1182.84835819 -1082.72872448 1137.715271 C-1082.7287087 1136.02627 -1082.72869297 1134.33726901 -1082.72867727 1132.64826801 C-1082.72860389 1125.0225115 -1082.72851572 1117.39675499 -1082.72842339 1109.77099847 C-1082.72838226 1106.37045231 -1082.72834212 1102.96990614 -1082.72830207 1099.56935998 C-1082.72828168 1097.86732609 -1082.72826066 1096.1652922 -1082.72823901 1094.4632583 C-1082.7275586 1040.62947408 -1082.73487915 986.79569644 -1082.7487793 932.96191406 C-1082.75228025 919.39569094 -1082.75574968 905.82946781 -1082.75904369 892.26324463 C-1082.75924657 891.42794312 -1082.75944944 890.59264161 -1082.75965846 889.73202794 C-1082.76587203 863.99320667 -1082.76963874 838.25438595 -1082.77090168 812.51556396 C-1082.77094163 811.70764483 -1082.77098158 810.89972569 -1082.77102274 810.06732416 C-1082.77187596 792.3328775 -1082.77213723 774.59843088 -1082.77185237 756.8639842 C-1082.77175588 750.51858625 -1082.77170384 744.1731883 -1082.77167364 737.82779035 C-1082.77166572 736.24919473 -1082.77165552 734.67059911 -1082.77164301 733.0920035 C-1082.77146661 707.92670494 -1082.77716798 682.761412 -1082.78579683 657.59611505 C-1082.7944414 632.25621666 -1082.79664258 606.91632607 -1082.79003551 581.57642683 C-1082.78912319 578.07635711 -1082.78827992 574.57628739 -1082.78747749 571.07621765 C-1082.78731741 570.39009956 -1082.78715732 569.70398146 -1082.78699238 568.99707191 C-1082.78478166 558.78977592 -1082.78816085 548.58249214 -1082.79483795 538.37519836 C-1082.80222616 527.02503543 -1082.8031113 515.67489759 -1082.79495654 504.32473467 C-1082.79105449 498.60682259 -1082.7903581 492.8889584 -1082.7984139 487.17104959 C-1082.80567443 481.9722915 -1082.80377787 476.77362133 -1082.79449003 471.57486719 C-1082.79276464 469.70305723 -1082.7944103 467.83124045 -1082.79979124 465.95943743 C-1082.8066034 463.4202785 -1082.8010764 460.8814284 -1082.79251641 458.34228134 C-1082.79741603 457.62096825 -1082.80231565 456.89965515 -1082.80736374 456.15648408 C-1082.72846899 444.91873626 -1079.38378316 435.24028386 -1071.65332031 426.97827148 C-1064.66551818 420.39224372 -1055.1990617 416.90837911 -1046.48046875 413.23925781 C-1044.49925592 412.39485094 -1042.51932771 411.54747943 -1040.53947449 410.69989014 C-1039.12493122 410.09435834 -1037.71005756 409.48959786 -1036.2948761 408.88555908 C-1028.23795982 405.44290952 -1020.21996524 401.91234233 -1012.20120239 398.38195801 C-1007.81734768 396.45208679 -1003.43220926 394.52513921 -999.046875 392.59863281 C-997.73326241 392.02154572 -997.73326241 392.02154572 -996.39311218 391.43280029 C-987.28438055 387.43328307 -978.1642949 383.45994727 -969.04296875 379.48925781 C-955.69898475 373.68003139 -942.36656481 367.84509162 -929.04296875 361.98925781 C-914.91492245 355.77986128 -900.77558947 349.59709572 -886.62597656 343.43701172 C-874.08795353 337.97788461 -861.56211443 332.49152883 -849.04296875 326.98925781 C-834.91492245 320.77986128 -820.77558947 314.59709572 -806.62597656 308.43701172 C-794.08795353 302.97788461 -781.56211443 297.49152883 -769.04296875 291.98925781 C-754.91492245 285.77986128 -740.77558947 279.59709572 -726.62597656 273.43701172 C-714.08795353 267.97788461 -701.56211443 262.49152883 -689.04296875 256.98925781 C-674.91492245 250.77986128 -660.77558947 244.59709572 -646.62597656 238.43701172 C-634.08795353 232.97788461 -621.56211443 227.49152883 -609.04296875 221.98925781 C-594.91492245 215.77986128 -580.77558947 209.59709572 -566.62597656 203.43701172 C-554.08795353 197.97788461 -541.56211443 192.49152883 -529.04296875 186.98925781 C-514.91492245 180.77986128 -500.77558947 174.59709572 -486.62597656 168.43701172 C-474.08795353 162.97788461 -461.56211443 157.49152883 -449.04296875 151.98925781 C-434.91492245 145.77986128 -420.77558947 139.59709572 -406.62597656 133.43701172 C-394.08795353 127.97788461 -381.56211443 122.49152883 -369.04296875 116.98925781 C-354.91492245 110.77986128 -340.77558947 104.59709572 -326.62597656 98.43701172 C-314.08795353 92.97788461 -301.56211443 87.49152883 -289.04296875 81.98925781 C-274.91492245 75.77986128 -260.77558947 69.59709572 -246.62597656 63.43701172 C-234.08795353 57.97788461 -221.56211443 52.49152883 -209.04296875 46.98925781 C-194.91795021 40.78119201 -180.78179872 34.59939725 -166.63504028 28.44104004 C-154.78152778 23.28042929 -142.93926276 18.09476073 -131.10412598 12.89215088 C-125.98819127 10.64409592 -120.87057744 8.399865 -115.75308228 6.15536499 C-111.12211048 4.1235592 -106.493958 2.08553368 -101.86842346 0.04138184 C-99.14289021 -1.16149409 -96.41482931 -2.35855016 -93.68606567 -3.55407715 C-91.87699602 -4.34882779 -90.07110535 -5.15080295 -88.26538086 -5.953125 C-55.29449703 -20.36203181 -31.39800571 -14.05644157 0 0 Z M908.45703125 809.98925781 C907.39282061 811.57726265 906.38009975 813.19976018 905.38671875 814.83300781 C904.74532959 815.88246582 904.10394043 816.93192383 903.44311523 818.01318359 C903.09965057 818.57877991 902.75618591 819.14437622 902.40231323 819.72711182 C900.58289561 822.72265835 898.75142626 825.71083144 896.921875 828.70019531 C896.36002251 829.61936234 896.36002251 829.61936234 895.78681946 830.55709839 C892.19297886 836.43262171 888.5508258 842.27740792 884.89453125 848.11425781 C884.28077637 849.09458984 883.66702148 850.07492187 883.03466797 851.08496094 C881.79535142 853.06396918 880.55576916 855.04281105 879.31591797 857.02148438 C876.19238721 862.00830338 873.0750395 866.99898476 869.95703125 871.98925781 C868.70706051 873.9892761 867.45706051 875.9892761 866.20703125 877.98925781 C865.27890625 879.47425781 865.27890625 879.47425781 864.33203125 880.98925781 C858.70703125 889.98925781 858.70703125 889.98925781 856.83227539 892.98876953 C855.58134456 894.990324 854.3305309 896.9919517 853.07983398 898.99365234 C849.97002856 903.97047377 846.85824794 908.9460375 843.7421875 913.91894531 C837.2071806 924.35317014 830.71107497 934.80953599 824.26953125 945.30175781 C819.21804529 953.52870528 814.12754692 961.7274329 808.95751953 969.88037109 C803.05018235 979.19677959 797.21714836 988.55950413 791.37597656 997.91748047 C789.49655118 1000.92599576 787.61405929 1003.9325676 785.73046875 1006.93847656 C779.19892103 1017.36591455 772.70710427 1027.81600362 766.26953125 1038.30175781 C761.21804529 1046.52870528 756.12754692 1054.7274329 750.95751953 1062.88037109 C745.05018235 1072.19677959 739.21714836 1081.55950413 733.37597656 1090.91748047 C731.49655118 1093.92599576 729.61405929 1096.9325676 727.73046875 1099.93847656 C721.19892103 1110.36591455 714.70710427 1120.81600362 708.26953125 1131.30175781 C703.21804529 1139.52870528 698.12754692 1147.7274329 692.95751953 1155.88037109 C687.05018235 1165.19677959 681.21714836 1174.55950413 675.37597656 1183.91748047 C673.49655118 1186.92599576 671.61405929 1189.9325676 669.73046875 1192.93847656 C663.19892103 1203.36591455 656.70710427 1213.81600362 650.26953125 1224.30175781 C645.21942496 1232.52645831 640.12997539 1240.72272142 634.96191406 1248.8737793 C625.66331225 1263.54021034 616.49736158 1278.29020043 607.36694336 1293.06176758 C601.40010833 1302.7094365 595.38180174 1312.32482749 589.36425781 1321.94091797 C586.22661564 1326.95584375 583.09192304 1331.97261244 579.95703125 1336.98925781 C576.18508876 1343.02535063 572.41248172 1349.06102264 568.63671875 1355.09472656 C562.72299629 1364.54698788 556.81926614 1374.00496066 550.95703125 1383.48925781 C544.46275348 1393.99611421 537.91660618 1404.47020508 531.36425781 1414.94091797 C528.22661564 1419.95584375 525.09192304 1424.97261244 521.95703125 1429.98925781 C518.18508876 1436.02535063 514.41248172 1442.06102264 510.63671875 1448.09472656 C504.72299629 1457.54698788 498.81926614 1467.00496066 492.95703125 1476.48925781 C486.46275348 1486.99611421 479.91660618 1497.47020508 473.36425781 1507.94091797 C470.22661564 1512.95584375 467.09192304 1517.97261244 463.95703125 1522.98925781 C460.18508876 1529.02535063 456.41248172 1535.06102264 452.63671875 1541.09472656 C446.72299629 1550.54698788 440.81926614 1560.00496066 434.95703125 1569.48925781 C428.46275348 1579.99611421 421.91660618 1590.47020508 415.36425781 1600.94091797 C411.60043172 1606.95667996 407.84045492 1612.97484888 404.08032227 1618.99291992 C400.97032496 1623.96996725 397.85840366 1628.94578898 394.7421875 1633.91894531 C388.2071806 1644.35317014 381.71107497 1654.80953599 375.26953125 1665.30175781 C370.21804529 1673.52870528 365.12754692 1681.7274329 359.95751953 1689.88037109 C354.05018235 1699.19677959 348.21714836 1708.55950413 342.37597656 1717.91748047 C340.49655118 1720.92599576 338.61405929 1723.9325676 336.73046875 1726.93847656 C330.19892103 1737.36591455 323.70710427 1747.81600362 317.26953125 1758.30175781 C312.21804529 1766.52870528 307.12754692 1774.7274329 301.95751953 1782.88037109 C296.71578003 1791.14707144 291.53362992 1799.45068786 286.3515625 1807.75488281 C283.68961513 1812.01993353 281.01950834 1816.2797337 278.34375 1820.53613281 C277.67190674 1821.60645752 277.00006348 1822.67678223 276.30786133 1823.77954102 C275.0295699 1825.81567777 273.74957239 1827.85074486 272.4675293 1829.88452148 C268.94868762 1835.49533226 265.61497745 1841.16804594 262.45703125 1846.98925781 C268.67140727 1845.01689296 274.67576868 1842.7374674 280.66796875 1840.17285156 C281.97074265 1839.62045555 281.97074265 1839.62045555 283.29983521 1839.05690002 C285.16902644 1838.26394581 287.03756927 1837.46946173 288.90551758 1836.67358398 C293.95883817 1834.52064261 299.0169673 1832.37903876 304.07421875 1830.23535156 C305.11096741 1829.7954892 306.14771606 1829.35562683 307.21588135 1828.9024353 C317.44832706 1824.56299661 327.70113757 1820.27290934 337.95703125 1815.98925781 C352.63724002 1809.85443892 367.30235806 1803.68481798 381.95703125 1797.48925781 C401.99006554 1789.02068701 422.04751581 1780.6114824 442.11425781 1772.22314453 C447.47656975 1769.98138968 452.83802188 1767.73758413 458.19921875 1765.49316406 C459.08649658 1765.12171265 459.97377441 1764.75026123 460.88793945 1764.36755371 C463.57765087 1763.24148887 466.26734459 1762.11538178 468.95703125 1760.98925781 C488.67405989 1752.73408856 488.67405989 1752.73408856 498.46820068 1748.6399231 C517.64544857 1740.62334134 536.81187304 1732.58220939 555.95703125 1724.48925781 C570.65476795 1718.27629942 585.3612118 1712.08483812 600.08203125 1705.92675781 C601.40802338 1705.372043 601.40802338 1705.372043 602.76080322 1704.80612183 C609.8812671 1701.82769557 617.00250501 1698.85112173 624.1237793 1695.87463379 C630.36022934 1693.2678833 636.59634424 1690.66033307 642.83203125 1688.05175781 C643.71752655 1687.68136383 644.60302185 1687.31096985 645.51535034 1686.92935181 C660.1755336 1680.79576352 674.81640763 1674.61717849 689.45257568 1668.42654419 C705.10641925 1661.80728701 720.78845475 1655.25754074 736.48138428 1648.73156738 C751.0960813 1642.65285936 765.69147557 1636.53031242 780.26953125 1630.36425781 C794.86275599 1624.19208258 809.46450679 1618.04118308 824.08203125 1611.92675781 C824.95850311 1611.56009003 825.83497498 1611.19342224 826.73800659 1610.81564331 C834.88382802 1607.40816788 843.03068978 1604.00318249 851.17773438 1600.59863281 C855.97563068 1598.5936041 860.77315396 1596.58768478 865.57049561 1594.58132935 C868.95085578 1593.16803322 872.33185539 1591.7562703 875.71304321 1590.34495544 C886.99023981 1585.6219907 898.21745714 1580.80621815 909.45703125 1575.98925781 C909.45703125 1323.20925781 909.45703125 1070.42925781 909.45703125 809.98925781 C909.12703125 809.98925781 908.79703125 809.98925781 908.45703125 809.98925781 Z M-278.73046875 838.17675781 C-280.1628051 839.28775579 -281.59644722 840.39707194 -283.03125 841.50488281 C-283.7732666 842.08173828 -284.5152832 842.65859375 -285.27978516 843.25292969 C-288.93515071 846.05734822 -292.67425556 848.74205418 -296.41796875 851.42675781 C-297.93620821 852.51919143 -299.45443731 853.61163943 -300.97265625 854.70410156 C-301.72772461 855.24663574 -302.48279297 855.78916992 -303.26074219 856.34814453 C-307.02595945 859.05565313 -310.78412927 861.77290578 -314.54296875 864.48925781 C-316.04293441 865.5726387 -317.54293442 866.65597201 -319.04296875 867.73925781 C-319.78546875 868.27550781 -320.52796875 868.81175781 -321.29296875 869.36425781 C-328.04296875 874.23925781 -328.04296875 874.23925781 -330.29272461 875.86401367 C-331.79362425 876.94804198 -333.29443797 878.03218923 -334.79516602 879.11645508 C-338.53070842 881.81513436 -342.26769129 884.51177093 -346.0078125 887.20410156 C-353.71759848 892.75730405 -361.40054506 898.34362986 -369.04296875 903.98925781 C-377.42245333 910.179369 -385.85404238 916.2940009 -394.30908203 922.38037109 C-398.05656644 925.07937899 -401.79958076 927.78457275 -405.54296875 930.48925781 C-410.02907254 933.73057235 -414.51601706 936.97067735 -419.0078125 940.20410156 C-426.80212722 945.81828959 -434.56750475 951.46811164 -442.29296875 957.17675781 C-448.81019748 961.9921271 -455.3641019 966.74790255 -461.96875 971.44238281 C-468.41822386 976.02915994 -474.82004268 980.68259134 -481.23291016 985.3203125 C-483.49477704 986.95444081 -485.75873183 988.58562911 -488.0234375 990.21582031 C-495.72827745 995.76475755 -503.40577935 1001.34749655 -511.04296875 1006.98925781 C-519.42245333 1013.179369 -527.85404238 1019.2940009 -536.30908203 1025.38037109 C-540.05656659 1028.0793791 -543.7995272 1030.78464666 -547.54296875 1033.48925781 C-549.04294729 1034.57262085 -550.54294729 1035.6559542 -552.04296875 1036.73925781 C-553.15671875 1037.54363281 -553.15671875 1037.54363281 -554.29296875 1038.36425781 C-561.04296875 1043.23925781 -561.04296875 1043.23925781 -563.29272461 1044.86401367 C-564.79362425 1045.94804198 -566.29443797 1047.03218923 -567.79516602 1048.11645508 C-571.53070842 1050.81513436 -575.26769129 1053.51177093 -579.0078125 1056.20410156 C-586.71759848 1061.75730405 -594.40054506 1067.34362986 -602.04296875 1072.98925781 C-610.42245333 1079.179369 -618.85404238 1085.2940009 -627.30908203 1091.38037109 C-631.05656644 1094.07937899 -634.79958076 1096.78457275 -638.54296875 1099.48925781 C-643.02907254 1102.73057235 -647.51601706 1105.97067735 -652.0078125 1109.20410156 C-659.80212722 1114.81828959 -667.56750475 1120.46811164 -675.29296875 1126.17675781 C-681.81019748 1130.9921271 -688.3641019 1135.74790255 -694.96875 1140.44238281 C-701.41822386 1145.02915994 -707.82004268 1149.68259134 -714.23291016 1154.3203125 C-716.49477704 1155.95444081 -718.75873183 1157.58562911 -721.0234375 1159.21582031 C-728.72827745 1164.76475755 -736.40577935 1170.34749655 -744.04296875 1175.98925781 C-752.42245333 1182.179369 -760.85404238 1188.2940009 -769.30908203 1194.38037109 C-773.05656659 1197.0793791 -776.7995272 1199.78464666 -780.54296875 1202.48925781 C-782.04294729 1203.57262085 -783.54294729 1204.6559542 -785.04296875 1205.73925781 C-786.15671875 1206.54363281 -786.15671875 1206.54363281 -787.29296875 1207.36425781 C-794.04296875 1212.23925781 -794.04296875 1212.23925781 -796.29272461 1213.86401367 C-797.79362425 1214.94804198 -799.29443797 1216.03218923 -800.79516602 1217.11645508 C-804.53070842 1219.81513436 -808.26769129 1222.51177093 -812.0078125 1225.20410156 C-819.71759848 1230.75730405 -827.40054506 1236.34362986 -835.04296875 1241.98925781 C-843.42245333 1248.179369 -851.85404238 1254.2940009 -860.30908203 1260.38037109 C-864.05656644 1263.07937899 -867.79958076 1265.78457275 -871.54296875 1268.48925781 C-876.02907254 1271.73057235 -880.51601706 1274.97067735 -885.0078125 1278.20410156 C-892.80212722 1283.81828959 -900.56750475 1289.46811164 -908.29296875 1295.17675781 C-914.81019748 1299.9921271 -921.3641019 1304.74790255 -927.96875 1309.44238281 C-934.41822386 1314.02915994 -940.82004268 1318.68259134 -947.23291016 1323.3203125 C-949.49477704 1324.95444081 -951.75873183 1326.58562911 -954.0234375 1328.21582031 C-961.72827846 1333.76475827 -969.4057283 1339.34756445 -977.04296875 1344.98925781 C-983.45872371 1349.72791192 -989.89255143 1354.44008861 -996.35546875 1359.11425781 C-997.09023438 1359.64664063 -997.825 1360.17902344 -998.58203125 1360.72753906 C-999.62423828 1361.47970703 -999.62423828 1361.47970703 -1000.6875 1362.24707031 C-1001.28925049 1362.68164551 -1001.89100098 1363.1162207 -1002.51098633 1363.56396484 C-1004.54296875 1364.98925781 -1004.54296875 1364.98925781 -1007.62487221 1366.55711746 C-1010.90605919 1368.77342774 -1010.90605919 1368.77342774 -1011.28125572 1372.71424484 C-1011.30645814 1374.25223236 -1011.29835504 1375.7909751 -1011.26449585 1377.32879639 C-1011.2696224 1378.17750942 -1011.27474895 1379.02622246 -1011.28003085 1379.90065408 C-1011.28992821 1382.74964242 -1011.25689327 1385.59651897 -1011.22412109 1388.4453125 C-1011.22242898 1390.48528493 -1011.22337801 1392.52526102 -1011.22677612 1394.56523132 C-1011.2285006 1400.10852496 -1011.19317682 1405.6510427 -1011.15133238 1411.19415569 C-1011.11387401 1416.98504918 -1011.11030387 1422.77595963 -1011.10317993 1428.56695557 C-1011.08451674 1439.53531935 -1011.03525951 1450.50332515 -1010.97508299 1461.47153115 C-1010.9080639 1473.9574301 -1010.87504039 1486.44334596 -1010.84491038 1498.92937994 C-1010.78216198 1524.61620452 -1010.67659808 1550.30271113 -1010.54296875 1575.98925781 C-1009.68687515 1576.35982803 -1008.83078156 1576.73039825 -1007.94874573 1577.11219788 C-1004.72515809 1578.50775993 -1001.50170408 1579.90362981 -998.27833557 1581.29969788 C-996.89209621 1581.90001767 -995.50580607 1582.50022024 -994.11946106 1583.10029602 C-973.80273435 1591.89459591 -973.80273435 1591.89459591 -968.51672363 1594.33239746 C-965.80319782 1595.49138815 -964.01430503 1596.08682742 -961.08984375 1595.48144531 C-957.53440734 1593.3983522 -954.19424581 1591.08940019 -950.85546875 1588.67675781 C-950.11288818 1588.14622803 -949.37030762 1587.61569824 -948.60522461 1587.0690918 C-946.24694626 1585.38156865 -943.89444208 1583.68624746 -941.54296875 1581.98925781 C-940.04819202 1580.91371622 -938.55340059 1579.83819505 -937.05859375 1578.76269531 C-932.54781751 1575.51255972 -928.04474862 1572.25183806 -923.54296875 1568.98925781 C-914.04530074 1562.10600164 -904.52864842 1555.25541699 -894.93505859 1548.50634766 C-886.75110803 1542.74111257 -878.64867775 1536.86371788 -870.54296875 1530.98925781 C-861.04530074 1524.10600164 -851.52864842 1517.25541699 -841.93505859 1510.50634766 C-834.51350422 1505.27818732 -827.16031821 1499.95673481 -819.80908203 1494.63037109 C-815.30814542 1491.37080463 -810.8012144 1488.11953161 -806.29541016 1484.86669922 C-802.5308931 1482.14856258 -798.76784167 1479.42844376 -795.0078125 1476.70410156 C-787.01940863 1470.91939531 -779.00181056 1465.18128991 -770.93505859 1459.50634766 C-762.75110803 1453.74111257 -754.64867775 1447.86371788 -746.54296875 1441.98925781 C-737.04530074 1435.10600164 -727.52864842 1428.25541699 -717.93505859 1421.50634766 C-710.51949817 1416.2824098 -703.17203693 1410.96551193 -695.82666016 1405.64355469 C-691.98417763 1402.86007579 -688.13886905 1400.08051182 -684.29296875 1397.30175781 C-683.54023682 1396.757854 -682.78750488 1396.2139502 -682.01196289 1395.65356445 C-676.97453467 1392.01624739 -671.92389821 1388.39802875 -666.86352539 1384.79272461 C-662.13661133 1381.42176501 -657.43306212 1378.01903155 -652.73046875 1374.61425781 C-646.86165472 1370.366828 -640.96872468 1366.15686029 -635.04296875 1361.98925781 C-626.92104179 1356.27567512 -618.8680311 1350.46978166 -610.82666016 1344.64355469 C-606.98417763 1341.86007579 -603.13886905 1339.08051182 -599.29296875 1336.30175781 C-598.54023682 1335.757854 -597.78750488 1335.2139502 -597.01196289 1334.65356445 C-591.97453467 1331.01624739 -586.92389821 1327.39802875 -581.86352539 1323.79272461 C-577.13661133 1320.42176501 -572.43306212 1317.01903155 -567.73046875 1313.61425781 C-561.86165472 1309.366828 -555.96872468 1305.15686029 -550.04296875 1300.98925781 C-541.92104179 1295.27567512 -533.8680311 1289.46978166 -525.82666016 1283.64355469 C-521.98417763 1280.86007579 -518.13886905 1278.08051182 -514.29296875 1275.30175781 C-513.54023682 1274.757854 -512.78750488 1274.2139502 -512.01196289 1273.65356445 C-506.97453467 1270.01624739 -501.92389821 1266.39802875 -496.86352539 1262.79272461 C-492.13661133 1259.42176501 -487.43306212 1256.01903155 -482.73046875 1252.61425781 C-476.86165472 1248.366828 -470.96872468 1244.15686029 -465.04296875 1239.98925781 C-456.92104179 1234.27567512 -448.8680311 1228.46978166 -440.82666016 1222.64355469 C-436.98417763 1219.86007579 -433.13886905 1217.08051182 -429.29296875 1214.30175781 C-428.54023682 1213.757854 -427.78750488 1213.2139502 -427.01196289 1212.65356445 C-421.97453467 1209.01624739 -416.92389821 1205.39802875 -411.86352539 1201.79272461 C-407.13661133 1198.42176501 -402.43306212 1195.01903155 -397.73046875 1191.61425781 C-391.86165472 1187.366828 -385.96872468 1183.15686029 -380.04296875 1178.98925781 C-371.15225575 1172.73485241 -362.34464012 1166.36810352 -353.54296875 1159.98925781 C-344.04530074 1153.10600164 -334.52864842 1146.25541699 -324.93505859 1139.50634766 C-317.51350422 1134.27818732 -310.16031821 1128.95673481 -302.80908203 1123.63037109 C-298.30814542 1120.37080463 -293.8012144 1117.11953161 -289.29541016 1113.86669922 C-285.5308931 1111.14856258 -281.76784167 1108.42844376 -278.0078125 1105.70410156 C-270.01940863 1099.91939531 -262.00181056 1094.18128991 -253.93505859 1088.50634766 C-245.75110803 1082.74111257 -237.64867775 1076.86371788 -229.54296875 1070.98925781 C-220.04530074 1064.10600164 -210.52864842 1057.25541699 -200.93505859 1050.50634766 C-193.51949817 1045.2824098 -186.17203693 1039.96551193 -178.82666016 1034.64355469 C-174.98417763 1031.86007579 -171.13886905 1029.08051182 -167.29296875 1026.30175781 C-166.16387085 1025.4859021 -166.16387085 1025.4859021 -165.01196289 1024.65356445 C-159.97453467 1021.01624739 -154.92389821 1017.39802875 -149.86352539 1013.79272461 C-145.13661133 1010.42176501 -140.43306212 1007.01903155 -135.73046875 1003.61425781 C-129.8616536 999.36682719 -123.96867892 995.15692677 -118.04296875 990.98925781 C-111.93419101 986.6909401 -105.8520825 982.35734144 -99.79296875 977.98925781 C-99.04208984 977.44914062 -98.29121094 976.90902344 -97.51757812 976.35253906 C-96.80923828 975.84078125 -96.10089844 975.32902344 -95.37109375 974.80175781 C-94.75137695 974.35445312 -94.13166016 973.90714844 -93.49316406 973.44628906 C-92.84959961 972.96546875 -92.20603516 972.48464844 -91.54296875 971.98925781 C-90.64908447 971.53196289 -89.7552002 971.07466797 -88.83422852 970.60351562 C-84.96562885 966.18956089 -85.93356144 961.00111909 -86.0546875 955.34863281 C-86.06529961 953.49265472 -86.06529961 953.49265472 -86.0761261 951.59918213 C-86.09936701 948.31728055 -86.1442492 945.0366135 -86.199646 941.75512695 C-86.25089105 938.40359881 -86.2732245 935.05201759 -86.29882812 931.70019531 C-86.3539714 925.12940018 -86.4376561 918.55942996 -86.54296875 911.98925781 C-106.52886123 903.06727636 -126.54481932 894.21918824 -146.61547852 885.48950195 C-158.43570728 880.34778039 -170.24266872 875.17654271 -182.04296875 869.98925781 C-197.32516934 863.27208468 -212.6179482 856.5796798 -227.92919922 849.92895508 C-235.09072286 846.81629842 -242.24359838 843.68881042 -249.36328125 840.48144531 C-251.1102832 839.69821899 -251.1102832 839.69821899 -252.89257812 838.89916992 C-254.9990472 837.95223231 -257.10221944 836.99790787 -259.20117188 836.03442383 C-260.11060547 835.62635498 -261.02003906 835.21828613 -261.95703125 834.79785156 C-262.72998535 834.4452124 -263.50293945 834.09257324 -264.29931641 833.72924805 C-270.62338311 831.64347589 -273.87376046 834.28598817 -278.73046875 838.17675781 Z M-90.9453125 1059.37597656 C-92.01954468 1060.15533569 -92.01954468 1060.15533569 -93.11547852 1060.95043945 C-93.89592529 1061.52012451 -94.67637207 1062.08980957 -95.48046875 1062.67675781 C-97.13409357 1063.87730759 -98.78773999 1065.07782761 -100.44140625 1066.27832031 C-101.29057617 1066.89610352 -102.13974609 1067.51388672 -103.01464844 1068.15039062 C-106.87371961 1070.95712334 -110.73843924 1073.75600286 -114.60546875 1076.55175781 C-115.34917725 1077.08953857 -116.09288574 1077.62731934 -116.85913086 1078.18139648 C-122.59358533 1082.32063111 -128.36662228 1086.40295616 -134.15087891 1090.47216797 C-142.33482947 1096.23740306 -150.43725975 1102.11479774 -158.54296875 1107.98925781 C-168.04063676 1114.87251399 -177.55728908 1121.72309864 -187.15087891 1128.47216797 C-194.57243328 1133.7003283 -201.92561929 1139.02178081 -209.27685547 1144.34814453 C-213.77779208 1147.60771099 -218.2847231 1150.85898401 -222.79052734 1154.11181641 C-226.5550444 1156.82995304 -230.31809583 1159.55007186 -234.078125 1162.27441406 C-242.06652887 1168.05912031 -250.08412694 1173.79722571 -258.15087891 1179.47216797 C-266.33482947 1185.23740306 -274.43725975 1191.11479774 -282.54296875 1196.98925781 C-292.04063676 1203.87251399 -301.55728908 1210.72309864 -311.15087891 1217.47216797 C-318.56643933 1222.69610582 -325.91390057 1228.0130037 -333.25927734 1233.33496094 C-337.10175987 1236.11843983 -340.94706845 1238.89800381 -344.79296875 1241.67675781 C-345.54570068 1242.22066162 -346.29843262 1242.76456543 -347.07397461 1243.32495117 C-352.11140283 1246.96226824 -357.16203929 1250.58048688 -362.22241211 1254.18579102 C-366.94932617 1257.55675061 -371.65287538 1260.95948408 -376.35546875 1264.36425781 C-382.22428278 1268.61168763 -388.11721282 1272.82165534 -394.04296875 1276.98925781 C-402.16489571 1282.7028405 -410.2179064 1288.50873396 -418.25927734 1294.33496094 C-422.10175987 1297.11843983 -425.94706845 1299.89800381 -429.79296875 1302.67675781 C-430.54570068 1303.22066162 -431.29843262 1303.76456543 -432.07397461 1304.32495117 C-437.11140283 1307.96226824 -442.16203929 1311.58048688 -447.22241211 1315.18579102 C-451.94932617 1318.55675061 -456.65287538 1321.95948408 -461.35546875 1325.36425781 C-467.22428278 1329.61168763 -473.11721282 1333.82165534 -479.04296875 1337.98925781 C-487.16489571 1343.7028405 -495.2179064 1349.50873396 -503.25927734 1355.33496094 C-507.10175987 1358.11843983 -510.94706845 1360.89800381 -514.79296875 1363.67675781 C-515.54570068 1364.22066162 -516.29843262 1364.76456543 -517.07397461 1365.32495117 C-522.11140283 1368.96226824 -527.16203929 1372.58048688 -532.22241211 1376.18579102 C-536.94932617 1379.55675061 -541.65287538 1382.95948408 -546.35546875 1386.36425781 C-552.22428278 1390.61168763 -558.11721282 1394.82165534 -564.04296875 1398.98925781 C-572.16489571 1404.7028405 -580.2179064 1410.50873396 -588.25927734 1416.33496094 C-592.10175987 1419.11843983 -595.94706845 1421.89800381 -599.79296875 1424.67675781 C-600.54570068 1425.22066162 -601.29843262 1425.76456543 -602.07397461 1426.32495117 C-607.11140283 1429.96226824 -612.16203929 1433.58048688 -617.22241211 1437.18579102 C-621.94932617 1440.55675061 -626.65287538 1443.95948408 -631.35546875 1447.36425781 C-637.22428278 1451.61168763 -643.11721282 1455.82165534 -649.04296875 1459.98925781 C-657.16489571 1465.7028405 -665.2179064 1471.50873396 -673.25927734 1477.33496094 C-677.10175987 1480.11843983 -680.94706845 1482.89800381 -684.79296875 1485.67675781 C-685.54570068 1486.22066162 -686.29843262 1486.76456543 -687.07397461 1487.32495117 C-692.11140283 1490.96226824 -697.16203929 1494.58048688 -702.22241211 1498.18579102 C-706.94932617 1501.55675061 -711.65287538 1504.95948408 -716.35546875 1508.36425781 C-722.22428278 1512.61168763 -728.11721282 1516.82165534 -734.04296875 1520.98925781 C-742.16489571 1526.7028405 -750.2179064 1532.50873396 -758.25927734 1538.33496094 C-762.10175987 1541.11843983 -765.94706845 1543.89800381 -769.79296875 1546.67675781 C-770.54570068 1547.22066162 -771.29843262 1547.76456543 -772.07397461 1548.32495117 C-777.11140283 1551.96226824 -782.16203929 1555.58048688 -787.22241211 1559.18579102 C-791.94932617 1562.55675061 -796.65287538 1565.95948408 -801.35546875 1569.36425781 C-807.22428278 1573.61168763 -813.11721282 1577.82165534 -819.04296875 1581.98925781 C-827.93368175 1588.24366322 -836.74129738 1594.61041211 -845.54296875 1600.98925781 C-848.56295238 1603.17793412 -851.58369658 1605.36555143 -854.60546875 1607.55175781 C-855.33958984 1608.08325439 -856.07371094 1608.61475098 -856.83007812 1609.16235352 C-860.65173841 1611.92314175 -864.48767077 1614.66117141 -868.34765625 1617.36816406 C-869.12488037 1617.91335693 -869.90210449 1618.4585498 -870.70288086 1619.02026367 C-872.18347794 1620.0564753 -873.66596436 1621.08999439 -875.15063477 1622.12036133 C-875.81506592 1622.58498779 -876.47949707 1623.04961426 -877.1640625 1623.52832031 C-878.03695923 1624.13474365 -878.03695923 1624.13474365 -878.92749023 1624.75341797 C-880.61819199 1626.04680354 -882.05216282 1627.47316801 -883.54296875 1628.98925781 C-878.06491971 1631.79190862 -872.55067958 1634.33048626 -866.8671875 1636.68457031 C-865.62901527 1637.20148186 -865.62901527 1637.20148186 -864.36582947 1637.72883606 C-861.65509863 1638.85986204 -858.94277236 1639.98700938 -856.23046875 1641.11425781 C-854.30569967 1641.91676867 -852.38106007 1642.71959014 -850.45654297 1643.52270508 C-846.46259731 1645.18907745 -842.46810145 1646.85411991 -838.47314453 1648.51806641 C-829.36743897 1652.31144638 -820.26746293 1656.1185078 -811.16796875 1659.92675781 C-810.28582703 1660.29579224 -809.4036853 1660.66482666 -808.49481201 1661.04504395 C-793.83122767 1667.17997526 -779.18695955 1673.35991292 -764.54742432 1679.55197144 C-749.89921166 1685.7459957 -735.22776687 1691.88252031 -720.54296875 1697.98925781 C-704.91972536 1704.48625189 -689.3141281 1711.02286478 -673.73046875 1717.61425781 C-659.13724425 1723.78643294 -644.53551387 1729.93738234 -629.91796875 1736.05175781 C-629.03352081 1736.42174896 -628.14907288 1736.79174011 -627.23782349 1737.17294312 C-621.00663156 1739.77940138 -614.7748722 1742.38450132 -608.54296875 1744.98925781 C-601.41756933 1747.96746994 -594.29245833 1750.94636973 -587.16796875 1753.92675781 C-585.8397258 1754.48234879 -585.8397258 1754.48234879 -584.48464966 1755.04916382 C-569.8244664 1761.1827521 -555.18359237 1767.36133713 -540.54742432 1773.55197144 C-525.89921166 1779.7459957 -511.22776687 1785.88252031 -496.54296875 1791.98925781 C-480.91972536 1798.48625189 -465.3141281 1805.02286478 -449.73046875 1811.61425781 C-435.13724425 1817.78643294 -420.53551387 1823.93738234 -405.91796875 1830.05175781 C-405.03352081 1830.42174896 -404.14907288 1830.79174011 -403.23782349 1831.17294312 C-397.00663156 1833.77940138 -390.7748722 1836.38450132 -384.54296875 1838.98925781 C-377.41756933 1841.96746994 -370.29245833 1844.94636973 -363.16796875 1847.92675781 C-361.8397258 1848.48234879 -361.8397258 1848.48234879 -360.48464966 1849.04916382 C-345.8244664 1855.1827521 -331.18359237 1861.36133713 -316.54742432 1867.55197144 C-301.89921166 1873.7459957 -287.22776687 1879.88252031 -272.54296875 1885.98925781 C-256.91972536 1892.48625189 -241.3141281 1899.02286478 -225.73046875 1905.61425781 C-206.71139956 1913.6583351 -187.67043121 1921.64880614 -168.61766052 1929.61270142 C-162.17989628 1932.30387352 -155.74386928 1934.99917173 -149.30859375 1937.69628906 C-139.52858335 1941.79508636 -129.74639124 1945.88863815 -119.96234131 1949.9777832 C-117.60173974 1950.96468724 -115.24150562 1951.95246532 -112.88134766 1952.94042969 C-109.3821278 1954.40480356 -105.88141397 1955.86554015 -102.3793335 1957.32305908 C-100.53203147 1958.09277321 -98.68616004 1958.86591792 -96.84033203 1959.63916016 C-95.76122559 1960.08727051 -94.68211914 1960.53538086 -93.5703125 1960.99707031 C-92.63952881 1961.38523926 -91.70874512 1961.7734082 -90.74975586 1962.17333984 C-88.62245284 1963.10485351 -88.62245284 1963.10485351 -86.54296875 1962.98925781 C-86.54296875 1664.00925781 -86.54296875 1365.02925781 -86.54296875 1056.98925781 C-88.31406584 1056.98925781 -89.55364516 1058.36258537 -90.9453125 1059.37597656 Z " fill="#1E1E1E" transform="translate(1298.54296875,235.0107421875)"/>
<path d="M0 0 C2.6082779 1.19926838 5.22037019 2.39015204 7.83203125 3.58203125 C8.52118622 3.89779617 9.21034119 4.2135611 9.92037964 4.53889465 C18.29353039 8.36760826 26.74154734 12.02302134 35.1875 15.6875 C38.52638254 17.13853954 41.86479826 18.59065105 45.203125 20.04296875 C46.04346786 20.40844818 46.88381073 20.77392761 47.74961853 21.15048218 C57.1558319 25.24364467 66.54669088 29.3716512 75.9375 33.5 C89.26095262 39.35615959 102.59356255 45.19066965 115.9375 51 C130.14376656 57.18474837 144.33590168 63.40099885 158.52050781 69.63525391 C170.98330303 75.11218794 183.45595736 80.56593295 195.9375 86 C209.23849185 91.79134978 222.53022195 97.60335354 235.8125 103.4375 C236.66100525 103.81019012 237.5095105 104.18288025 238.38372803 104.56686401 C245.26314247 107.58877651 252.14195918 110.61204871 259.02075195 113.63537598 C265.03438887 116.27838617 271.04826195 118.92085797 277.0625 121.5625 C277.91116638 121.93527069 278.75983276 122.30804138 279.63421631 122.69210815 C292.86433483 128.50231241 306.10647748 134.28451696 319.3550415 140.05252075 C332.75519368 145.88700199 346.14054224 151.75464522 359.52050781 157.63525391 C371.98330241 163.11218767 384.45589057 168.56608721 396.9375 174 C411.14376656 180.18474837 425.33590168 186.40099885 439.52050781 192.63525391 C451.98330241 198.11218767 464.45589057 203.56608721 476.9375 209 C491.14376656 215.18474837 505.33590168 221.40099885 519.52050781 227.63525391 C531.98330241 233.11218767 544.45589057 238.56608721 556.9375 244 C571.14376656 250.18474837 585.33590168 256.40099885 599.52050781 262.63525391 C611.98330241 268.11218767 624.45589057 273.56608721 636.9375 279 C651.14376656 285.18474837 665.33590168 291.40099885 679.52050781 297.63525391 C691.98330241 303.11218767 704.45589057 308.56608721 716.9375 314 C731.14376656 320.18474837 745.33590168 326.40099885 759.52050781 332.63525391 C772.78473497 338.46438741 786.06101304 344.26525513 799.34542847 350.04821777 C808.54986035 354.05551013 817.75029951 358.07159983 826.94140625 362.109375 C827.8164682 362.49379761 828.69153015 362.87822021 829.59310913 363.27429199 C833.94489638 365.18656788 838.29601988 367.10034183 842.64648438 369.015625 C850.63379212 372.52965205 858.62859215 376.0230221 866.65234375 379.453125 C867.36600601 379.75897522 868.07966827 380.06482544 868.81495667 380.37994385 C872.12994695 381.80062301 875.44714327 383.2154487 878.76977539 384.61816406 C879.90793701 385.10510742 881.04609863 385.59205078 882.21875 386.09375 C883.20939453 386.51333984 884.20003906 386.93292969 885.22070312 387.36523438 C887.4375 388.5 887.4375 388.5 888.4375 390.5 C868.28279096 399.36081184 848.12403813 408.21190062 827.9375 417 C814.59354944 422.80930374 801.2610964 428.64416605 787.9375 434.5 C773.8094537 440.70939653 759.67012072 446.89216209 745.52050781 453.05224609 C732.98248478 458.5113732 720.45664568 463.99772898 707.9375 469.5 C693.8094537 475.70939653 679.67012072 481.89216209 665.52050781 488.05224609 C652.98248478 493.5113732 640.45664568 498.99772898 627.9375 504.5 C613.8094537 510.70939653 599.67012072 516.89216209 585.52050781 523.05224609 C572.98248478 528.5113732 560.45664568 533.99772898 547.9375 539.5 C533.8094537 545.70939653 519.67012072 551.89216209 505.52050781 558.05224609 C492.98248478 563.5113732 480.45664568 568.99772898 467.9375 574.5 C453.8094537 580.70939653 439.67012072 586.89216209 425.52050781 593.05224609 C412.98248478 598.5113732 400.45664568 603.99772898 387.9375 609.5 C373.8094537 615.70939653 359.67012072 621.89216209 345.52050781 628.05224609 C332.98248478 633.5113732 320.45664568 638.99772898 307.9375 644.5 C293.8094537 650.70939653 279.67012072 656.89216209 265.52050781 663.05224609 C252.98248478 668.5113732 240.45664568 673.99772898 227.9375 679.5 C213.8094537 685.70939653 199.67012072 691.89216209 185.52050781 698.05224609 C172.98248478 703.5113732 160.45664568 708.99772898 147.9375 714.5 C133.8094537 720.70939653 119.67012072 726.89216209 105.52050781 733.05224609 C92.12555196 738.88448666 78.74532864 744.74973111 65.37060547 750.62820435 C55.93963423 754.77290231 46.50587909 758.91098186 37.0625 763.02734375 C36.21615997 763.39644867 35.36981995 763.76555359 34.49783325 764.14584351 C30.34863591 765.95450117 26.19752763 767.7585302 22.04248047 769.55371094 C14.89923401 772.64480972 7.78817161 775.77244074 0.7578125 779.11328125 C-0.96211914 779.9168103 -0.96211914 779.9168103 -2.71679688 780.73657227 C-4.77939168 781.70579795 -6.83151674 782.69782734 -8.86914062 783.71850586 C-9.76568359 784.13624268 -10.66222656 784.55397949 -11.5859375 784.984375 C-12.33794434 785.35272461 -13.08995117 785.72107422 -13.86474609 786.10058594 C-20.57306838 787.09378189 -27.93904611 782.59064471 -33.96875 779.90234375 C-34.75404083 779.55623047 -35.53933167 779.21011719 -36.34841919 778.85351562 C-38.92142239 777.71852341 -41.49192196 776.57797273 -44.0625 775.4375 C-45.88831779 774.63115843 -47.71433062 773.82525837 -49.54052734 773.01977539 C-53.33215226 771.34695599 -57.12293439 769.67224861 -60.91308594 767.99609375 C-68.81828189 764.50147132 -76.73200422 761.02629787 -84.64648438 757.55276489 C-87.20459072 756.42999879 -89.76245998 755.30669383 -92.3203125 754.18334961 C-104.69726457 748.74923719 -117.08635468 743.34329668 -129.4800415 737.94747925 C-142.88019368 732.11299801 -156.26554224 726.24535478 -169.64550781 720.36474609 C-182.10830241 714.88781233 -194.58089057 709.43391279 -207.0625 704 C-221.26876656 697.81525163 -235.46090168 691.59900115 -249.64550781 685.36474609 C-262.10830241 679.88781233 -274.58089057 674.43391279 -287.0625 669 C-301.26876656 662.81525163 -315.46090168 656.59900115 -329.64550781 650.36474609 C-342.10830241 644.88781233 -354.58089057 639.43391279 -367.0625 634 C-381.26876656 627.81525163 -395.46090168 621.59900115 -409.64550781 615.36474609 C-422.10830241 609.88781233 -434.58089057 604.43391279 -447.0625 599 C-461.26876656 592.81525163 -475.46090168 586.59900115 -489.64550781 580.36474609 C-502.10830241 574.88781233 -514.58089057 569.43391279 -527.0625 564 C-541.26876656 557.81525163 -555.46090168 551.59900115 -569.64550781 545.36474609 C-582.10830241 539.88781233 -594.58089057 534.43391279 -607.0625 529 C-621.26876656 522.81525163 -635.46090168 516.59900115 -649.64550781 510.36474609 C-662.10830241 504.88781233 -674.58089057 499.43391279 -687.0625 494 C-701.26876656 487.81525163 -715.46090168 481.59900115 -729.64550781 475.36474609 C-742.10830241 469.88781233 -754.58089057 464.43391279 -767.0625 459 C-781.26876656 452.81525163 -795.46090168 446.59900115 -809.64550781 440.36474609 C-822.10830249 434.8878123 -834.58089735 429.43392852 -847.0625 424 C-864.96948995 416.20402969 -882.8538533 408.3570307 -900.73361206 400.49884033 C-908.33933431 397.15695814 -915.9502695 393.82702612 -923.5625 390.5 C-923.5625 389.84 -923.5625 389.18 -923.5625 388.5 C-922.52138062 388.05068115 -922.52138062 388.05068115 -921.45922852 387.59228516 C-904.61565127 380.31851966 -887.80068921 372.98165642 -871.00491333 365.59820557 C-858.36715432 360.04302141 -845.71999883 354.51005373 -833.0625 349 C-819.718516 343.19077358 -806.38609606 337.35583381 -793.0625 331.5 C-778.9344537 325.29060347 -764.79512072 319.10783791 -750.64550781 312.94775391 C-738.10748478 307.4886268 -725.58164568 302.00227102 -713.0625 296.5 C-698.9344537 290.29060347 -684.79512072 284.10783791 -670.64550781 277.94775391 C-658.10748478 272.4886268 -645.58164568 267.00227102 -633.0625 261.5 C-618.9344537 255.29060347 -604.79512072 249.10783791 -590.64550781 242.94775391 C-578.10748478 237.4886268 -565.58164568 232.00227102 -553.0625 226.5 C-538.9344537 220.29060347 -524.79512072 214.10783791 -510.64550781 207.94775391 C-498.10748478 202.4886268 -485.58164568 197.00227102 -473.0625 191.5 C-458.9344537 185.29060347 -444.79512072 179.10783791 -430.64550781 172.94775391 C-418.10748478 167.4886268 -405.58164568 162.00227102 -393.0625 156.5 C-378.9344537 150.29060347 -364.79512072 144.10783791 -350.64550781 137.94775391 C-338.10748478 132.4886268 -325.58164568 127.00227102 -313.0625 121.5 C-298.9344537 115.29060347 -284.79512072 109.10783791 -270.64550781 102.94775391 C-258.10748478 97.4886268 -245.58164568 92.00227102 -233.0625 86.5 C-218.9344537 80.29060347 -204.79512072 74.10783791 -190.64550781 67.94775391 C-178.10748478 62.4886268 -165.58164568 57.00227102 -153.0625 51.5 C-139.73890327 45.6441659 -126.4064125 39.80939153 -113.0625 34 C-101.3216333 28.88833924 -89.58686264 23.7631903 -77.86303711 18.61254883 C-74.4029341 17.09241922 -70.94146443 15.57547281 -67.47875977 14.0612793 C-60.11387419 10.83791831 -52.75646533 7.60343983 -45.44282532 4.26509094 C-42.49079747 2.91883746 -39.53290771 1.58576702 -36.57443237 0.25375366 C-35.21099245 -0.36489404 -33.85061273 -0.9903393 -32.49368286 -1.62313843 C-18.96664448 -7.92978837 -13.31820529 -6.23865364 0 0 Z " fill="#0CA4E8" transform="translate(1265.5625,298.5)"/>
<path d="M0 0 C0.35218932 21.35898555 0.61577746 42.71748478 0.77718258 64.07879639 C0.85415747 73.99997683 0.95887076 83.9193416 1.1315918 93.83935547 C1.28226644 102.49737488 1.3781424 111.15407833 1.41132742 119.81337261 C1.43069407 124.38882852 1.47536526 128.96052389 1.58595085 133.53475952 C2.09727398 155.53976318 1.22926971 170.77142605 -13.12844658 188.60527039 C-16.0889375 192.39334033 -18.55531321 196.46701983 -21.0625 200.5625 C-22.03059853 202.09628687 -23.00042236 203.62898735 -23.97265625 205.16015625 C-27.3739452 210.57104289 -30.68719845 216.03464492 -34 221.5 C-39.20007418 230.0789177 -44.49453554 238.5894506 -49.87109375 247.05859375 C-53.44285227 252.68775866 -56.97104051 258.34394144 -60.5 264 C-64.95554315 271.14022146 -69.42944525 278.26783124 -73.9375 285.375 C-79.32589296 293.87822937 -84.59787361 302.45139905 -89.86474609 311.03027344 C-96.23014593 321.39199005 -102.67072126 331.70558296 -109.12792969 342.01025391 C-111.03834914 345.06124459 -112.94547061 348.11427278 -114.8515625 351.16796875 C-125.39421877 368.05628729 -125.39421877 368.05628729 -130.6027832 376.26245117 C-135.48684341 383.95817474 -140.27529735 391.7053352 -145 399.5 C-150.20400687 408.08540571 -155.50295884 416.60209262 -160.8828125 425.078125 C-164.38528933 430.5984064 -167.84997053 436.14210187 -171.3125 441.6875 C-171.9413208 442.69458008 -172.5701416 443.70166016 -173.21801758 444.73925781 C-174.5013866 446.79486911 -175.78467055 448.85053353 -177.06787109 450.90625 C-178.98762772 453.98018935 -180.90946258 457.05281876 -182.83203125 460.125 C-188.74221795 469.57052118 -194.64175559 479.0221589 -200.5 488.5 C-206.98979004 498.99959585 -213.53161486 509.4663078 -220.07958984 519.9296875 C-222.00913226 523.01460047 -223.93654906 526.10083118 -225.86328125 529.1875 C-231.53073844 538.26538579 -237.20634069 547.33717793 -242.9375 556.375 C-248.32578392 564.87829996 -253.59787234 573.45139699 -258.86474609 582.03027344 C-265.23014593 592.39199005 -271.67072126 602.70558296 -278.12792969 613.01025391 C-280.03834914 616.06124459 -281.94547061 619.11427278 -283.8515625 622.16796875 C-294.39421877 639.05628729 -294.39421877 639.05628729 -299.6027832 647.26245117 C-304.48684341 654.95817474 -309.27529735 662.7053352 -314 670.5 C-319.20400687 679.08540571 -324.50295884 687.60209262 -329.8828125 696.078125 C-333.38528933 701.5984064 -336.84997053 707.14210187 -340.3125 712.6875 C-340.9413208 713.69458008 -341.5701416 714.70166016 -342.21801758 715.73925781 C-343.5013866 717.79486911 -344.78467055 719.85053353 -346.06787109 721.90625 C-347.98762772 724.98018935 -349.90946258 728.05281876 -351.83203125 731.125 C-357.74221795 740.57052118 -363.64175559 750.0221589 -369.5 759.5 C-375.98979004 769.99959585 -382.53161486 780.4663078 -389.07958984 790.9296875 C-391.00913226 794.01460047 -392.93654906 797.10083118 -394.86328125 800.1875 C-400.53073844 809.26538579 -406.20634069 818.33717793 -411.9375 827.375 C-417.32578392 835.87829996 -422.59787234 844.45139699 -427.86474609 853.03027344 C-434.23014593 863.39199005 -440.67072126 873.70558296 -447.12792969 884.01025391 C-449.03834914 887.06124459 -450.94547061 890.11427278 -452.8515625 893.16796875 C-463.39421877 910.05628729 -463.39421877 910.05628729 -468.6027832 918.26245117 C-473.48684341 925.95817474 -478.27529735 933.7053352 -483 941.5 C-488.20400687 950.08540571 -493.50295884 958.60209262 -498.8828125 967.078125 C-502.38528933 972.5984064 -505.84997053 978.14210187 -509.3125 983.6875 C-509.9413208 984.69458008 -510.5701416 985.70166016 -511.21801758 986.73925781 C-512.5013866 988.79486911 -513.78467055 990.85053353 -515.06787109 992.90625 C-516.98762772 995.98018935 -518.90946258 999.05281876 -520.83203125 1002.125 C-526.74221795 1011.57052118 -532.64175559 1021.0221589 -538.5 1030.5 C-544.98979004 1040.99959585 -551.53161486 1051.4663078 -558.07958984 1061.9296875 C-560.00913226 1065.01460047 -561.93654906 1068.10083118 -563.86328125 1071.1875 C-569.53073844 1080.26538579 -575.20634069 1089.33717793 -580.9375 1098.375 C-586.32578392 1106.87829996 -591.59787234 1115.45139699 -596.86474609 1124.03027344 C-603.23014593 1134.39199005 -609.67072126 1144.70558296 -616.12792969 1155.01025391 C-618.03834914 1158.06124459 -619.94547061 1161.11427278 -621.8515625 1164.16796875 C-632.39421877 1181.05628729 -632.39421877 1181.05628729 -637.6027832 1189.26245117 C-642.48684341 1196.95817474 -647.27529735 1204.7053352 -652 1212.5 C-657.20400687 1221.08540571 -662.50295884 1229.60209262 -667.8828125 1238.078125 C-671.38528933 1243.5984064 -674.84997053 1249.14210187 -678.3125 1254.6875 C-679.2557312 1256.19812012 -679.2557312 1256.19812012 -680.21801758 1257.73925781 C-681.5013866 1259.79486911 -682.78467055 1261.85053353 -684.06787109 1263.90625 C-685.98762772 1266.98018935 -687.90946258 1270.05281876 -689.83203125 1273.125 C-695.74221795 1282.57052118 -701.64175559 1292.0221589 -707.5 1301.5 C-713.98979004 1311.99959585 -720.53161486 1322.4663078 -727.07958984 1332.9296875 C-729.00913226 1336.01460047 -730.93654906 1339.10083118 -732.86328125 1342.1875 C-735.98311541 1347.18534265 -739.10595089 1352.18129368 -742.23193359 1357.17529297 C-743.39167806 1359.02812968 -744.55087664 1360.88130822 -745.70947266 1362.73486328 C-747.3035103 1365.28334685 -748.90118352 1367.8295125 -750.5 1370.375 C-751.18388794 1371.47001831 -751.18388794 1371.47001831 -751.8815918 1372.5871582 C-752.77104508 1373.99985751 -753.67283442 1375.40486666 -754.58691406 1376.80175781 C-755.59035184 1378.36273807 -756.54624029 1379.95473935 -757.46777344 1381.56542969 C-762.08281903 1389.10231131 -767.08963439 1391.54759424 -775.25 1394.5 C-776.51641893 1394.98706346 -777.78134869 1395.47801295 -779.04492188 1395.97241211 C-781.10686346 1396.77844811 -783.16956839 1397.58166492 -785.23681641 1398.37400818 C-793.49697097 1401.54226852 -801.63961838 1404.98561116 -809.7911377 1408.42163086 C-812.53089133 1409.57551025 -815.27246132 1410.7249636 -818.01464844 1411.87304688 C-831.18765933 1417.38881906 -844.34555751 1422.94011976 -857.5 1428.5 C-872.10909072 1434.67406857 -886.72248262 1440.83771804 -901.34887695 1446.97070312 C-903.27410502 1447.77818749 -905.19907508 1448.5862873 -907.1237793 1449.39501953 C-909.77449488 1450.50859394 -912.42616007 1451.61987357 -915.078125 1452.73046875 C-915.87055603 1453.06382736 -916.66298706 1453.39718597 -917.47943115 1453.74064636 C-922.88554785 1456 -922.88554785 1456 -924 1456 C-924.32128934 1422.48792252 -924.56756 1388.97623195 -924.71491461 1355.46295335 C-924.73242198 1351.49564477 -924.75054274 1347.52833922 -924.76904297 1343.56103516 C-924.77271531 1342.77130246 -924.77638766 1341.98156976 -924.78017129 1341.16790576 C-924.84089134 1328.42383689 -924.95116193 1315.68066303 -925.08013915 1302.93712299 C-925.21162056 1289.8357089 -925.28893957 1276.7347596 -925.31723893 1263.63271296 C-925.33633551 1255.56429676 -925.39636495 1247.49841099 -925.51083054 1239.430775 C-925.59443572 1233.21710282 -925.60223517 1227.00531057 -925.58350754 1220.79115295 C-925.58732367 1218.26207143 -925.61469674 1215.73288403 -925.66887665 1213.20438004 C-926.03015212 1195.4565952 -922.49305737 1184.3979731 -911.68714356 1170.23443913 C-909.31244184 1167.0894036 -907.18933656 1163.81467019 -905.046875 1160.5078125 C-903.61646863 1158.37894037 -902.18421901 1156.25130542 -900.75 1154.125 C-895.48047171 1146.27792407 -890.28724413 1138.39854424 -885.32958984 1130.34985352 C-882.76425097 1126.19263519 -880.10515726 1122.11319825 -877.375 1118.0625 C-872.80380254 1111.27979129 -868.39669639 1104.39684868 -864 1097.5 C-859.32928026 1090.17694594 -854.63656165 1082.87675396 -849.7902832 1075.66870117 C-840.66394666 1062.07825211 -831.83267331 1048.28755117 -822.91479492 1034.55981445 C-818.14761616 1027.22273192 -813.36715107 1019.89434786 -808.5859375 1012.56640625 C-804.55123719 1006.38152615 -800.522773 1000.19264363 -796.5 994 C-788.05259049 980.99690279 -779.57702835 968.01216486 -771.1015625 955.02734375 C-765.5952103 946.58983235 -760.09031453 938.15166672 -754.625 929.6875 C-748.93465582 920.87650564 -743.18862682 912.1019739 -737.44589233 903.3250885 C-737.08218536 902.76921555 -736.71847839 902.21334259 -736.34375 901.640625 C-735.9796402 901.0841478 -735.6155304 900.52767059 -735.24038696 899.95433044 C-726.44084872 886.50409081 -717.6689775 873.03581368 -708.91308594 859.55712891 C-704.14641005 852.22098496 -699.36657132 844.8934593 -694.5859375 837.56640625 C-690.55123719 831.38152615 -686.522773 825.19264363 -682.5 819 C-674.71105041 807.01047013 -666.89675869 795.03748898 -659.08398438 783.06347656 C-652.54875068 773.04701266 -646.01553857 763.02928973 -639.5 753 C-631.05254387 739.99693294 -622.57702844 727.01216501 -614.1015625 714.02734375 C-608.5952103 705.58983235 -603.09031453 697.15166672 -597.625 688.6875 C-591.93465582 679.87650564 -586.18862682 671.1019739 -580.44589233 662.3250885 C-580.08218536 661.76921555 -579.71847839 661.21334259 -579.34375 660.640625 C-578.7975853 659.80590919 -578.7975853 659.80590919 -578.24038696 658.95433044 C-569.44084872 645.50409081 -560.6689775 632.03581368 -551.91308594 618.55712891 C-547.14641005 611.22098496 -542.36657132 603.8934593 -537.5859375 596.56640625 C-533.55123719 590.38152615 -529.522773 584.19264363 -525.5 578 C-517.05259049 564.99690279 -508.57702835 552.01216486 -500.1015625 539.02734375 C-494.5952103 530.58983235 -489.09031453 522.15166672 -483.625 513.6875 C-477.93465582 504.87650564 -472.18862682 496.1019739 -466.44589233 487.3250885 C-466.08218536 486.76921555 -465.71847839 486.21334259 -465.34375 485.640625 C-464.7975853 484.80590919 -464.7975853 484.80590919 -464.24038696 483.95433044 C-455.44084872 470.50409081 -446.6689775 457.03581368 -437.91308594 443.55712891 C-433.14641005 436.22098496 -428.36657132 428.8934593 -423.5859375 421.56640625 C-419.55123719 415.38152615 -415.522773 409.19264363 -411.5 403 C-403.71105041 391.01047013 -395.89675869 379.03748898 -388.08398438 367.06347656 C-381.54875068 357.04701266 -375.01553857 347.02928973 -368.5 337 C-360.05254387 323.99693294 -351.57702844 311.01216501 -343.1015625 298.02734375 C-337.59521049 289.58983265 -332.09026826 281.15169639 -326.625 272.6875 C-321.61846243 264.93449182 -316.56686985 257.21111171 -311.51330566 249.4887085 C-306.78970439 242.27032056 -302.07328881 235.04739611 -297.375 227.8125 C-289.62909032 215.88457175 -281.85571777 203.97458886 -274.08398438 192.06347656 C-267.54875068 182.04701266 -261.01553857 172.02928973 -254.5 162 C-248.62404276 152.95521008 -242.73410865 143.91958681 -236.83984375 134.88671875 C-234.24621616 130.9117674 -231.65530508 126.93506399 -229.06640625 122.95703125 C-225.94566032 118.16215752 -222.81808081 113.37180296 -219.68652344 108.58398438 C-218.11046137 106.16924191 -216.54284395 103.74921737 -214.9765625 101.328125 C-214.08893694 99.96849187 -213.20094572 98.60909735 -212.3125 97.25 C-211.73375122 96.34701172 -211.73375122 96.34701172 -211.14331055 95.42578125 C-207.71204099 90.21178506 -204.17110685 87.91132985 -198.48828125 85.49609375 C-196.79554077 84.7705127 -196.79554077 84.7705127 -195.06860352 84.03027344 C-194.46041779 83.77242065 -193.85223206 83.51456787 -193.22561646 83.24890137 C-189.84866017 81.81664828 -186.47975256 80.36561772 -183.109375 78.91796875 C-182.38246964 78.60634796 -181.65556427 78.29472717 -180.90663147 77.97366333 C-172.80027522 74.49472541 -164.72614366 70.94301779 -156.65219116 67.38967896 C-142.28037494 61.06488752 -127.89698145 54.76728412 -113.5 48.5 C-100.15601479 42.69077306 -86.82372977 36.85553125 -73.5 31 C-60.41769212 25.25152608 -47.33117817 19.51285102 -34.23388672 13.79858398 C-32.56430475 13.07008278 -30.89486602 12.34125321 -29.22558594 11.61206055 C-21.83642161 8.38477433 -14.44377794 5.16543587 -7.01953125 2.01953125 C-6.08858643 1.62483643 -5.1576416 1.2301416 -4.19848633 0.82348633 C-2 0 -2 0 0 0 Z " fill="#C1FBF5" transform="translate(2208,743)"/>
<path d="M0 0 C6.17987799 2.05995933 12.00822084 4.19767896 17.9140625 6.8515625 C18.74921387 7.22260605 19.58436523 7.5936496 20.44482422 7.97593689 C22.23835822 8.77321106 24.03108234 9.57230922 25.82305908 10.37307739 C30.64908533 12.52937246 35.48128111 14.67177744 40.3125 16.81640625 C41.29683014 17.25381638 42.28116028 17.6912265 43.2953186 18.14189148 C52.7191165 22.32695086 62.16854948 26.45187602 71.625 30.5625 C74.83612703 31.95920009 78.04704786 33.35637329 81.2578125 34.75390625 C82.05430206 35.1005835 82.85079163 35.44726074 83.67141724 35.80444336 C92.95687403 39.84852307 102.22827569 43.92456129 111.5 48 C124.82353307 53.85597749 138.15606183 59.69066934 151.5 65.5 C165.70626656 71.68474837 179.89840168 77.90099885 194.08300781 84.13525391 C206.54580241 89.61218767 219.01839057 95.06608721 231.5 100.5 C245.70626656 106.68474837 259.89840168 112.90099885 274.08300781 119.13525391 C286.54580241 124.61218767 299.01839057 130.06608721 311.5 135.5 C325.70626656 141.68474837 339.89840168 147.90099885 354.08300781 154.13525391 C366.54580241 159.61218767 379.01839057 165.06608721 391.5 170.5 C405.70626656 176.68474837 419.89840168 182.90099885 434.08300781 189.13525391 C446.54580241 194.61218767 459.01839057 200.06608721 471.5 205.5 C485.70626656 211.68474837 499.89840168 217.90099885 514.08300781 224.13525391 C526.54580241 229.61218767 539.01839057 235.06608721 551.5 240.5 C564.84393938 246.30933119 578.17633344 252.14432456 591.5 258 C605.38733924 264.10287446 619.28229619 270.18793198 633.1875 276.25 C633.9913916 276.600625 634.7952832 276.95125 635.62353516 277.3125 C645.40099749 281.57638611 655.18975036 285.81203894 665 290 C662.09075178 292.98659992 659.2160231 295.74141526 655.84765625 298.19921875 C655.0786499 298.76326416 654.30964355 299.32730957 653.51733398 299.90844727 C652.70723877 300.49553467 651.89714355 301.08262207 651.0625 301.6875 C650.2156665 302.30616943 649.36883301 302.92483887 648.49633789 303.56225586 C642.54872868 307.89939398 636.56978312 312.19202518 630.5703125 316.45703125 C620.05774678 323.9342787 609.62531786 331.52118868 599.25 339.1875 C592.73275702 344.00285057 586.17886726 348.75864444 579.57421875 353.453125 C573.12474489 358.03990213 566.72292607 362.69333353 560.31005859 367.33105469 C558.04819171 368.96518299 555.78423692 370.5963713 553.51953125 372.2265625 C545.8146913 377.77549973 538.1371894 383.35823874 530.5 389 C522.12051542 395.19011119 513.68892637 401.30474309 505.23388672 407.39111328 C501.48640231 410.09012118 497.74338799 412.79531494 494 415.5 C489.51389621 418.74131453 485.02695169 421.98141954 480.53515625 425.21484375 C472.74084153 430.82903178 464.975464 436.47885383 457.25 442.1875 C450.73277127 447.00286929 444.17886685 451.75864473 437.57421875 456.453125 C431.12474489 461.03990213 424.72292607 465.69333353 418.31005859 470.33105469 C416.04819171 471.96518299 413.78423692 473.5963713 411.51953125 475.2265625 C403.8146913 480.77549973 396.1371894 486.35823874 388.5 492 C380.12051542 498.19011119 371.68892637 504.30474309 363.23388672 510.39111328 C359.48640231 513.09012118 355.74338799 515.79531494 352 518.5 C347.51389621 521.74131453 343.02695169 524.98141954 338.53515625 528.21484375 C330.74084153 533.82903178 322.975464 539.47885383 315.25 545.1875 C308.73277127 550.00286929 302.17886685 554.75864473 295.57421875 559.453125 C289.12474489 564.03990213 282.72292607 568.69333353 276.31005859 573.33105469 C274.04819171 574.96518299 271.78423692 576.5963713 269.51953125 578.2265625 C261.8146913 583.77549973 254.1371894 589.35823874 246.5 595 C238.12051542 601.19011119 229.68892637 607.30474309 221.23388672 613.39111328 C217.48640216 616.09012128 213.74344155 618.79538884 210 621.5 C208.50002146 622.58336304 207.00002146 623.66669638 205.5 624.75 C204.38625 625.554375 204.38625 625.554375 203.25 626.375 C196.5 631.25 196.5 631.25 194.25024414 632.87475586 C192.7493445 633.95878416 191.24853078 635.04293142 189.74780273 636.12719727 C186.01226033 638.82587655 182.27527746 641.52251312 178.53515625 644.21484375 C170.82537027 649.76804624 163.14242369 655.35437205 155.5 661 C147.12051542 667.19011119 138.68892637 673.30474309 130.23388672 679.39111328 C126.48640231 682.09012118 122.74338799 684.79531494 119 687.5 C114.51389621 690.74131453 110.02695169 693.98141954 105.53515625 697.21484375 C97.74084153 702.82903178 89.975464 708.47885383 82.25 714.1875 C75.73277127 719.00286929 69.17886685 723.75864473 62.57421875 728.453125 C56.12474489 733.03990213 49.72292607 737.69333353 43.31005859 742.33105469 C41.04819171 743.96518299 38.78423692 745.5963713 36.51953125 747.2265625 C35.03376131 748.2967461 33.54808403 749.36705834 32.0625 750.4375 C31.33305176 750.9629541 30.60360352 751.4884082 29.85205078 752.02978516 C25.81072565 754.94778289 21.78875957 757.88979531 17.78515625 760.859375 C16.9233374 761.49818604 16.06151855 762.13699707 15.17358398 762.79516602 C13.51081565 764.02977827 11.85007113 765.26712223 10.19165039 766.50756836 C9.44004639 767.06581299 8.68844238 767.62405762 7.9140625 768.19921875 C7.2535791 768.69252686 6.5930957 769.18583496 5.91259766 769.6940918 C4 771 4 771 0 773 C0 517.91 0 262.82 0 0 Z " fill="#0CA4E8" transform="translate(288,743)"/>
<path d="M0 0 C-1.43981738 4.02624124 -3.38522691 7.29732941 -5.78125 10.83203125 C-6.15060669 11.38050217 -6.51996338 11.92897308 -6.9005127 12.49406433 C-7.68843977 13.66359073 -8.47832838 14.83179764 -9.27001953 15.9987793 C-11.34676848 19.06113896 -13.40802098 22.1338771 -15.46875 25.20703125 C-15.87222656 25.80830841 -16.27570312 26.40958557 -16.69140625 27.02908325 C-19.55054719 31.30056112 -22.31996891 35.61454984 -25 40 C-29.84715607 47.91348087 -35.04024747 55.59400988 -40.20703125 63.30029297 C-44.56812886 69.80820125 -48.90649618 76.31891168 -53 83 C-58.25444706 91.57490833 -63.88818788 99.90087317 -69.49414062 108.24804688 C-73.55063086 114.29269898 -77.54395756 120.36925673 -81.43383789 126.52270508 C-83.63899025 130.01073017 -85.88031203 133.47483843 -88.125 136.9375 C-88.81867676 138.00846924 -88.81867676 138.00846924 -89.52636719 139.10107422 C-98.46380052 152.89425498 -107.43211527 166.66726702 -116.41308594 180.43212891 C-120.44813813 186.61748012 -124.47690733 192.80686427 -128.5 199 C-136.28894959 210.98952987 -144.10324131 222.96251102 -151.91601562 234.93652344 C-158.45124932 244.95298734 -164.98446143 254.97071027 -171.5 265 C-179.28899256 276.98950206 -187.10324123 288.9625109 -194.91601562 300.93652344 C-201.45124932 310.95298734 -207.98446143 320.97071027 -214.5 331 C-222.28899256 342.98950206 -230.10324123 354.9625109 -237.91601562 366.93652344 C-244.98168818 377.76598377 -252.04239798 388.59858525 -259.08642578 399.44213867 C-263.85328746 406.7785118 -268.63326834 414.10629495 -273.4140625 421.43359375 C-277.44876281 427.61847385 -281.477227 433.80735637 -285.5 440 C-293.28894959 451.98952987 -301.10324131 463.96251102 -308.91601562 475.93652344 C-315.45124932 485.95298734 -321.98446143 495.97071027 -328.5 506 C-336.28899256 517.98950206 -344.10324123 529.9625109 -351.91601562 541.93652344 C-358.98168818 552.76598377 -366.04239798 563.59858525 -373.08642578 574.44213867 C-377.85328746 581.7785118 -382.63326834 589.10629495 -387.4140625 596.43359375 C-391.44876281 602.61847385 -395.477227 608.80735637 -399.5 615 C-407.28894959 626.98952987 -415.10324131 638.96251102 -422.91601562 650.93652344 C-429.45124932 660.95298734 -435.98446143 670.97071027 -442.5 681 C-450.28899256 692.98950206 -458.10324123 704.9625109 -465.91601562 716.93652344 C-472.98168818 727.76598377 -480.04239798 738.59858525 -487.08642578 749.44213867 C-491.85328746 756.7785118 -496.63326834 764.10629495 -501.4140625 771.43359375 C-505.44876281 777.61847385 -509.477227 783.80735637 -513.5 790 C-521.28894959 801.98952987 -529.10324131 813.96251102 -536.91601562 825.93652344 C-543.45124932 835.95298734 -549.98446143 845.97071027 -556.5 856 C-561.74036414 864.06642914 -566.98759258 872.12835909 -572.24926758 880.1809082 C-575.56317372 885.25400085 -578.86373338 890.33510894 -582.14453125 895.4296875 C-582.8214502 896.47729248 -583.49836914 897.52489746 -584.19580078 898.60424805 C-585.49375418 900.6135461 -586.78789366 902.62531458 -588.07763672 904.63989258 C-588.66432129 905.54634521 -589.25100586 906.45279785 -589.85546875 907.38671875 C-590.36746826 908.18295654 -590.87946777 908.97919434 -591.40698242 909.79956055 C-593 912 -593 912 -597 916 C-597 699.52 -597 483.04 -597 260 C-587.1 255.71 -577.2 251.42 -567 247 C-561.1473489 244.4374292 -555.29514179 241.87449815 -549.44775391 239.30004883 C-535.14479598 233.00352661 -520.82875055 226.73758189 -506.5 220.5 C-493.156016 214.69077358 -479.82359606 208.85583381 -466.5 203 C-452.3719537 196.79060347 -438.23262072 190.60783791 -424.08300781 184.44775391 C-411.54498478 178.9886268 -399.01914568 173.50227102 -386.5 168 C-372.3719537 161.79060347 -358.23262072 155.60783791 -344.08300781 149.44775391 C-331.54498478 143.9886268 -319.01914568 138.50227102 -306.5 133 C-292.3719537 126.79060347 -278.23262072 120.60783791 -264.08300781 114.44775391 C-251.54498478 108.9886268 -239.01914568 103.50227102 -226.5 98 C-212.3719537 91.79060347 -198.23262072 85.60783791 -184.08300781 79.44775391 C-171.54498478 73.9886268 -159.01914568 68.50227102 -146.5 63 C-132.3719537 56.79060347 -118.23262072 50.60783791 -104.08300781 44.44775391 C-91.54498396 38.98862644 -79.01923359 33.5020722 -66.5 28 C-53.29016525 22.19509347 -40.07507941 16.40243866 -26.84936523 10.63378906 C-25.13196833 9.88469625 -23.4146811 9.13535194 -21.69750977 8.38574219 C-19.3247365 7.35009507 -16.95150961 6.3154952 -14.578125 5.28125 C-13.53262482 4.8247406 -13.53262482 4.8247406 -12.46600342 4.35900879 C-2.45195524 0 -2.45195524 0 0 0 Z " fill="#0CA4E8" transform="translate(1881,886)"/>
</svg>
