<svg width="24" height="24" fill="none" xmlns="http://www.w3.org/2000/svg" viewBox="0 0 24 24">
    <path d="M24 0H0v24h24V0z" fill="#F7DF1E"></path>
    <path
        d="M16.122 18.75c.483.79 1.112 1.37 2.225 1.37.934 0 1.531-.467 1.531-1.113 0-.773-.613-1.047-1.642-1.497l-.564-.242c-1.627-.693-2.708-1.562-2.708-3.398 0-1.691 1.289-2.979 3.303-2.979 1.434 0 2.465.5 3.207 1.806l-1.756 1.127c-.387-.693-.804-.966-1.451-.966-.66 0-1.08.419-1.08.966 0 .677.42.95 1.387 1.37l.564.241c1.916.822 2.998 1.66 2.998 3.543 0 2.03-1.595 3.143-3.737 3.143-2.095 0-3.448-.998-4.11-2.306l1.833-1.065zm-7.967.196c.354.628.677 1.16 1.452 1.16.74 0 1.208-.29 1.208-1.418V11.02h2.255v7.699c0 2.335-1.369 3.398-3.367 3.398-1.806 0-2.852-.934-3.384-2.06l1.836-1.111z"
        fill="#000"
    ></path>
</svg>
