<svg width="512" height="512" viewBox="0 0 512 512" fill="none" xmlns="http://www.w3.org/2000/svg">
<path d="M457 357.752C434.447 388.263 399.909 408.62 360.938 411.591C359.724 411.676 358.511 411.761 357.28 411.829C311.584 414.104 277.065 393.256 254.175 373.9C213.67 352.456 181.979 347.056 163.437 342.387C149.952 338.991 138.153 332.2 133.096 328.804C128.613 326.138 119.595 319.958 112.869 308.43C105.335 295.509 104.896 283.166 105.014 277.92C108.942 277.393 114.015 276.816 119.949 276.442C124.803 276.137 129.506 276.018 134.782 276.001C175.708 275.95 207.448 277.953 230.541 288.208C243.031 293.743 254.611 301.112 264.927 310.094C278.192 321.673 305.313 339.976 338.739 333.728C342.986 332.93 347.066 331.877 350.993 330.587C363.028 328.855 383.609 327.463 407.848 333.898C430.856 340.01 447.409 350.571 457 357.752Z" fill="#0A60B5" stroke="black" stroke-width="8" stroke-miterlimit="10"/>
<path d="M454 147.632C443.832 134.459 431.474 122.006 416.878 113.508C401.324 104.458 381.476 96.6646 357.471 94.5528C298.821 89.3907 258.722 121.922 251.416 128.073C242.326 136.604 205.964 166.789 162.196 183.549C154.57 186.264 139.891 192.683 126.844 207.013C116.525 218.343 111.475 229.94 109 237.147C114.219 237.868 119.605 238.388 125.161 238.706C167.599 241.069 204.062 241.304 227.916 229.622C243.673 221.912 257.493 210.935 269.412 198.08C290.892 174.9 322.22 164.56 350.737 171.649C363.834 173.476 386.645 174.867 413.023 166.789C431.238 161.208 444.809 154.185 454 147.632Z" fill="#0A60B5" stroke="black" stroke-width="8" stroke-miterlimit="10"/>
<path d="M56 157.414C39.7299 149.051 27.0288 139.404 18.366 131.853C13.5235 127.629 6 131.092 6 137.546V190.307C6 192.605 7.03887 194.784 8.81501 196.203L30.4303 217C31.5697 208.637 34.0161 197.267 39.5121 184.698C44.6897 172.838 50.9062 163.766 56 157.414Z" fill="#0A60B5" stroke="black" stroke-width="8" stroke-miterlimit="10"/>
<path d="M404 275.157C406.473 267.536 407.845 259.542 408.049 251.396C408.218 244.96 407.473 242.555 406.355 236.323C417.857 234.392 432.222 231.242 445.317 227.855C459.157 224.282 469.389 220.132 480.891 216C482.568 224.045 484.33 227.957 484.939 233.918C485.515 239.541 485.871 245.367 485.973 251.396C486.278 270.127 483.991 287.113 480.467 302C469.626 296.377 456.751 290.551 441.929 285.437C428.14 280.661 415.316 277.409 404 275.157Z" fill="#0A60B5" stroke="black" stroke-width="8" stroke-miterlimit="10"/>
<path d="M17.8633 386.557C12.9035 390.158 6 386.608 6 380.438V315.638C6 313.677 6.75402 311.817 8.06099 310.431C8.71448 309.738 9.31769 309.349 9.58579 309.197L31 300C32.5751 308.588 35.1723 318.867 39.5121 330.058C44.5891 343.143 50.6213 353.743 56 361.807C43.2822 370.057 30.5643 378.307 17.8633 386.557Z" fill="#0A60B5" stroke="black" stroke-width="8" stroke-miterlimit="10"/>
<path fill-rule="evenodd" clip-rule="evenodd" d="M155.765 103.453C198.594 101.329 230.622 119.268 247.131 131.257C234.633 142.295 200.817 168.932 160.819 184.316C158.121 185.281 154.541 186.711 150.462 188.793C121.52 203.049 104.31 231.458 103.542 261.808C103.413 266.916 103.674 272.006 104.349 277.007C104.276 277.017 104.203 277.026 104.131 277.036C104.013 282.241 104.451 294.489 111.981 307.309C118.703 318.747 127.716 324.879 132.197 327.524C134.42 329.006 137.949 331.141 142.351 333.354C147.522 336.109 153.257 338.42 159.582 340.207C160.551 340.488 161.531 340.754 162.52 341.001C164.821 341.576 167.33 342.172 170.036 342.814C189.12 347.343 218.036 354.206 253.489 372.84C257.071 375.847 260.929 378.875 265.067 381.837C263.81 382.961 262.751 383.944 261.896 384.752C254.585 390.934 214.457 423.633 155.765 418.444C131.743 416.321 111.864 408.488 96.3149 399.391C70.119 384.078 50.3247 359.853 39.5263 331.501C32.5688 313.223 26.5042 289.587 26.0662 261.774C25.6787 238.021 29.486 217.098 34.6746 199.746C50.5606 146.731 96.8877 107.85 152.11 103.689L152.11 103.689C153.323 103.605 154.536 103.521 155.765 103.453ZM455.742 356.124C446.129 349.001 429.635 338.603 406.79 332.578C382.565 326.193 361.996 327.575 349.968 329.293C346.043 330.573 341.966 331.618 337.721 332.409C304.314 338.609 277.209 320.449 263.951 308.959C261.373 306.731 258.716 304.603 255.986 302.578C264.908 294.737 274.719 287.97 285.414 282.714C309.285 270.989 345.774 271.225 388.243 273.583C446.767 276.852 487.198 304.732 503.336 317.535C505.139 318.967 506.167 321.123 506.167 323.414V376.025C506.167 382.477 498.603 385.931 493.734 381.702C485.011 374.15 472.183 364.49 455.742 356.124ZM268.112 198.922C264.275 203.079 260.24 207.04 256.008 210.76C264.204 216.841 273.061 221.988 282.432 226.111C305.511 236.286 337.233 238.274 378.135 238.223C438.125 238.139 482.295 215.548 502.561 203.25C504.802 201.886 506.167 199.46 506.167 196.832V132.26C506.167 126.112 499.226 122.574 494.239 126.162C482.435 134.658 464.882 145.502 442.244 154.031C434.092 158.837 423.933 163.744 411.827 167.47C385.429 175.59 362.603 174.191 349.496 172.355C320.959 165.229 289.608 175.623 268.112 198.922Z" fill="#E11312"/>
<path d="M247.131 131.257L249.779 134.255L253.518 130.952L249.481 128.02L247.131 131.257ZM155.765 103.453L155.567 99.4584L155.557 99.4589L155.546 99.4594L155.765 103.453ZM160.819 184.316L162.165 188.082L162.21 188.066L162.254 188.049L160.819 184.316ZM150.462 188.793L152.23 192.381L152.256 192.369L152.281 192.356L150.462 188.793ZM103.542 261.808L99.5432 261.707L99.5432 261.707L103.542 261.808ZM104.349 277.007L104.873 280.972L108.85 280.447L108.313 276.472L104.349 277.007ZM104.131 277.036L103.603 273.071L100.209 273.523L100.132 276.945L104.131 277.036ZM111.981 307.309L108.532 309.334L108.533 309.335L111.981 307.309ZM132.197 327.524L134.415 324.196L134.324 324.135L134.23 324.079L132.197 327.524ZM142.351 333.354L144.232 329.824L144.19 329.802L144.148 329.78L142.351 333.354ZM159.582 340.207L160.696 336.366L160.683 336.362L160.67 336.358L159.582 340.207ZM162.52 341.001L163.49 337.12H163.49L162.52 341.001ZM170.036 342.814L170.96 338.922L170.036 342.814ZM253.489 372.84L256.061 369.777L255.731 369.5L255.35 369.3L253.489 372.84ZM265.067 381.837L267.734 384.817L271.453 381.489L267.395 378.584L265.067 381.837ZM261.896 384.752L264.479 387.806L264.563 387.735L264.643 387.66L261.896 384.752ZM155.765 418.444L156.117 414.46H156.117L155.765 418.444ZM96.3149 399.391L98.3348 395.938L98.3336 395.938L96.3149 399.391ZM39.5263 331.501L35.788 332.924L35.7883 332.924L39.5263 331.501ZM26.0662 261.774L30.0657 261.711L30.0657 261.709L26.0662 261.774ZM34.6746 199.746L30.8429 198.598L30.8423 198.6L34.6746 199.746ZM152.11 103.689L151.841 99.6983L151.825 99.6994L151.809 99.7006L152.11 103.689ZM152.11 103.689L152.378 107.68L152.387 107.68L152.11 103.689ZM406.79 332.578L407.81 328.71L407.809 328.71L406.79 332.578ZM455.742 356.124L453.361 359.338L453.63 359.537L453.928 359.689L455.742 356.124ZM349.968 329.293L349.402 325.333L349.058 325.382L348.727 325.49L349.968 329.293ZM337.721 332.409L338.45 336.342L338.454 336.342L337.721 332.409ZM263.951 308.959L266.571 305.937L266.567 305.933L263.951 308.959ZM255.986 302.578L253.345 299.574L249.627 302.842L253.603 305.791L255.986 302.578ZM285.414 282.714L283.65 279.124L283.649 279.124L285.414 282.714ZM388.243 273.583L388.466 269.59L388.465 269.59L388.243 273.583ZM503.336 317.535L505.824 314.403L505.822 314.402L503.336 317.535ZM493.734 381.702L496.357 378.682L496.352 378.678L493.734 381.702ZM256.008 210.76L253.367 207.756L249.649 211.024L253.625 213.973L256.008 210.76ZM268.112 198.922L271.051 201.635L271.052 201.634L268.112 198.922ZM282.432 226.111L284.046 222.451L284.043 222.449L282.432 226.111ZM378.135 238.223L378.14 242.223H378.141L378.135 238.223ZM502.561 203.25L504.636 206.67L504.642 206.667L502.561 203.25ZM494.239 126.162L491.903 122.915L491.903 122.916L494.239 126.162ZM442.244 154.031L440.834 150.288L440.511 150.41L440.213 150.585L442.244 154.031ZM411.827 167.47L413.003 171.293L413.004 171.293L411.827 167.47ZM349.496 172.355L348.527 176.236L348.732 176.287L348.941 176.316L349.496 172.355ZM249.481 128.02C232.563 115.734 199.644 97.2719 155.567 99.4584L155.963 107.449C197.545 105.386 228.681 122.802 244.78 134.493L249.481 128.02ZM162.254 188.049C202.879 172.425 237.107 145.448 249.779 134.255L244.482 128.259C232.16 139.143 198.755 165.439 159.383 180.583L162.254 188.049ZM152.281 192.356C156.176 190.367 159.593 189.002 162.165 188.082L159.472 180.55C156.648 181.559 152.905 183.055 148.644 185.231L152.281 192.356ZM107.541 261.909C108.272 233.012 124.652 205.965 152.23 192.381L148.695 185.205C118.388 200.132 100.348 229.904 99.5432 261.707L107.541 261.909ZM108.313 276.472C107.667 271.692 107.417 266.815 107.541 261.909L99.5432 261.707C99.409 267.017 99.6797 272.321 100.385 277.542L108.313 276.472ZM104.659 281.001C104.729 280.992 104.801 280.982 104.873 280.972L103.825 273.041C103.751 273.051 103.677 273.061 103.603 273.071L104.659 281.001ZM115.43 305.283C108.431 293.366 108.02 281.968 108.13 277.126L100.132 276.945C100.006 282.515 100.471 295.611 108.532 309.334L115.43 305.283ZM134.23 324.079C130.058 321.617 121.675 315.911 115.43 305.282L108.533 309.335C115.73 321.584 125.374 328.142 130.163 330.969L134.23 324.079ZM144.148 329.78C139.892 327.641 136.505 325.589 134.415 324.196L129.978 330.852C132.336 332.424 136.005 334.641 140.555 336.928L144.148 329.78ZM160.67 336.358C154.605 334.644 149.138 332.438 144.232 329.824L140.47 336.885C145.907 339.781 151.909 342.196 158.494 344.057L160.67 336.358ZM163.49 337.12C162.551 336.886 161.619 336.633 160.696 336.366L158.468 344.049C159.483 344.343 160.51 344.622 161.55 344.882L163.49 337.12ZM170.96 338.922C168.248 338.278 165.764 337.689 163.49 337.12L161.55 344.882C163.879 345.464 166.412 346.065 169.112 346.706L170.96 338.922ZM255.35 369.3C219.436 350.423 190.119 343.469 170.96 338.922L169.112 346.706C188.122 351.217 216.635 357.989 251.628 376.381L255.35 369.3ZM267.395 378.584C263.35 375.688 259.572 372.724 256.061 369.777L250.918 375.904C254.569 378.969 258.509 382.062 262.738 385.089L267.395 378.584ZM264.643 387.66C265.477 386.872 266.509 385.914 267.734 384.817L262.399 378.856C261.111 380.009 260.026 381.017 259.15 381.843L264.643 387.66ZM155.413 422.428C215.755 427.763 256.953 394.17 264.479 387.806L259.314 381.697C252.217 387.698 213.16 419.502 156.117 414.46L155.413 422.428ZM94.295 402.843C110.265 412.187 130.708 420.246 155.413 422.428L156.117 414.46C132.777 412.397 113.463 404.789 98.3348 395.938L94.295 402.843ZM35.7883 332.924C46.8926 362.08 67.2679 387.044 94.2962 402.844L98.3336 395.938C72.9702 381.111 53.7569 357.626 43.2644 330.077L35.7883 332.924ZM22.0667 261.837C22.5133 290.2 28.6982 314.298 35.788 332.924L43.2646 330.078C36.4395 312.147 30.495 288.974 30.0657 261.711L22.0667 261.837ZM30.8423 198.6C25.5545 216.283 21.6716 237.617 22.0667 261.839L30.0657 261.709C29.6859 238.425 33.4174 217.913 38.5069 200.892L30.8423 198.6ZM151.809 99.7006C94.8603 103.992 47.1823 144.07 30.8429 198.598L38.5063 200.895C53.9389 149.393 98.9151 111.709 152.41 107.678L151.809 99.7006ZM151.842 99.6983L151.841 99.6983L152.378 107.68L152.378 107.68L151.842 99.6983ZM155.546 99.4594C154.283 99.5287 153.041 99.615 151.833 99.6989L152.387 107.68C153.604 107.595 154.788 107.513 155.984 107.447L155.546 99.4594ZM405.77 336.446C427.976 342.302 444.011 352.41 453.361 359.338L458.124 352.91C448.247 345.592 431.295 334.904 407.81 328.71L405.77 336.446ZM350.533 333.253C362.227 331.582 382.223 330.24 405.771 336.446L407.809 328.71C382.907 322.147 361.765 323.567 349.402 325.333L350.533 333.253ZM338.454 336.342C342.869 335.518 347.116 334.431 351.208 333.096L348.727 325.49C344.969 326.716 341.062 327.717 336.987 328.477L338.454 336.342ZM261.331 311.982C274.874 323.718 303.212 342.882 338.45 336.342L336.991 328.477C305.417 334.336 279.544 317.179 266.571 305.937L261.331 311.982ZM253.603 305.791C256.254 307.757 258.833 309.823 261.335 311.986L266.567 305.933C263.913 303.64 261.179 301.449 258.369 299.365L253.603 305.791ZM283.649 279.124C272.604 284.553 262.502 291.526 253.345 299.574L258.627 305.583C267.315 297.947 276.835 291.387 287.178 286.304L283.649 279.124ZM388.465 269.59C367.207 268.409 347.267 267.748 329.599 268.876C311.963 270.002 296.269 272.925 283.65 279.124L287.177 286.304C298.429 280.778 312.915 277.957 330.109 276.859C347.271 275.764 366.809 276.399 388.021 277.577L388.465 269.59ZM505.822 314.402C489.374 301.353 448.16 272.923 388.466 269.59L388.02 277.577C445.373 280.78 485.021 308.111 500.85 320.669L505.822 314.402ZM510.167 323.414C510.167 319.916 508.592 316.602 505.824 314.403L500.848 320.667C501.686 321.332 502.167 322.331 502.167 323.414H510.167ZM510.167 376.025V323.414H502.167V376.025H510.167ZM491.111 384.722C498.574 391.204 510.167 385.9 510.167 376.025H502.167C502.167 379.054 498.631 380.658 496.357 378.682L491.111 384.722ZM453.928 359.689C470.016 367.875 482.577 377.334 491.116 384.726L496.352 378.678C487.445 370.966 474.349 361.104 457.556 352.559L453.928 359.689ZM258.649 213.765C262.992 209.947 267.126 205.888 271.051 201.635L265.173 196.208C261.424 200.27 257.489 204.133 253.367 207.756L258.649 213.765ZM284.043 222.449C274.945 218.447 266.347 213.45 258.391 207.548L253.625 213.973C262.06 220.231 271.178 225.529 280.821 229.772L284.043 222.449ZM378.13 234.223C337.137 234.274 306.243 232.237 284.046 222.451L280.818 229.771C304.779 240.335 337.328 242.274 378.14 242.223L378.13 234.223ZM500.486 199.831C480.555 211.925 437.112 234.14 378.13 234.223L378.141 242.223C439.137 242.138 484.036 219.171 504.636 206.67L500.486 199.831ZM502.167 196.832C502.167 198.064 501.53 199.195 500.481 199.834L504.642 206.667C508.074 204.576 510.167 200.856 510.167 196.832H502.167ZM502.167 132.26V196.832H510.167V132.26H502.167ZM496.576 129.409C498.929 127.716 502.167 129.387 502.167 132.26H510.167C510.167 122.836 499.523 117.432 491.903 122.915L496.576 129.409ZM443.655 157.775C466.697 149.093 484.559 138.057 496.576 129.409L491.903 122.916C480.31 131.259 463.068 141.911 440.834 150.288L443.655 157.775ZM413.004 171.293C425.453 167.461 435.897 162.416 444.276 157.477L440.213 150.585C432.286 155.258 422.413 160.027 410.651 163.647L413.004 171.293ZM348.941 176.316C362.4 178.202 385.861 179.642 413.003 171.293L410.651 163.646C384.997 171.537 362.805 170.181 350.051 168.394L348.941 176.316ZM271.052 201.634C291.669 179.288 321.563 169.503 348.527 176.236L350.465 168.474C320.354 160.955 287.546 171.959 265.172 196.209L271.052 201.634Z" fill="black"/>
</svg>
