<svg width="22" height="24" fill="none" xmlns="http://www.w3.org/2000/svg" viewBox="0 0 22 24">
    <path
        d="M10.649 24a1.85 1.85 0 01-.923-.247l-2.935-1.738c-.439-.245-.225-.332-.08-.382.584-.204.703-.25 1.327-.605.066-.037.152-.024.219.015l2.255 1.339a.298.298 0 00.273 0l8.794-5.077a.277.277 0 00.134-.237V6.919a.282.282 0 00-.136-.242l-8.79-5.072a.27.27 0 00-.271 0l-8.79 5.072a.28.28 0 00-.139.24v10.149a.27.27 0 00.137.235l2.408 1.391c1.308.654 2.107-.116 2.107-.891V7.785a.25.25 0 01.255-.254h1.114c.139 0 .253.11.253.254v10.02c0 1.744-.95 2.745-2.604 2.745-.509 0-.91 0-2.028-.55L.922 18.67A1.86 1.86 0 010 17.065V6.918c0-.66.352-1.277.922-1.602L9.726.236a1.928 1.928 0 011.849 0l8.792 5.08a1.855 1.855 0 01.922 1.603v10.149a1.86 1.86 0 01-.922 1.602l-8.792 5.079a1.848 1.848 0 01-.927.246"
        fill="#689F63"
    ></path>
    <path
        d="M13.366 17.007c-3.848 0-4.655-1.766-4.655-3.248 0-.14.114-.253.255-.253h1.136c.125 0 .23.091.25.215.172 1.158.683 1.742 3.01 1.742 1.853 0 2.641-.42 2.641-1.402 0-.566-.224-.986-3.104-1.268-2.408-.238-3.896-.768-3.896-2.694 0-1.775 1.497-2.831 4.004-2.831 2.816 0 4.211.977 4.388 3.077a.255.255 0 01-.256.277h-1.142a.252.252 0 01-.247-.198c-.275-1.217-.94-1.607-2.747-1.607-2.023 0-2.259.705-2.259 1.233 0 .64.278.828 3.007 1.189 2.704.359 3.987.865 3.987 2.765 0 1.915-1.598 3.013-4.385 3.013l.013-.01z"
        fill="#689F63"
    ></path>
</svg>
