<svg version="1.1" id="Layer_1" xmlns:x="ns_extend;" xmlns:i="ns_ai;" xmlns:graph="ns_graphs;" xmlns="http://www.w3.org/2000/svg" xmlns:xlink="http://www.w3.org/1999/xlink" x="0px" y="0px" viewBox="0 0 42 42" style="enable-background:new 0 0 42 42;" xml:space="preserve">
 <metadata>
  <sfw xmlns="ns_sfw;">
   <slices>
   </slices>
   <sliceSourceBounds bottomLeftOrigin="true" height="42" width="42" x="102.3" y="-221.2">
   </sliceSourceBounds>
  </sfw>
 </metadata>
 <g>
  <path d="M0,3.8C0,1.7,1.7,0,3.8,0h15.1c2.1,0,3.8,1.7,3.8,3.8v3c0,1.1-0.9,1.9-1.9,1.9H1.9C0.9,8.8,0,7.9,0,6.8V3.8z">
  </path>
  <path d="M0,15.9C0,14.9,0.9,14,1.9,14h36.2c2.1,0,3.8,1.7,3.8,3.8v10c0,1.1-0.9,1.9-1.9,1.9H3.8C1.7,29.8,0,28,0,25.9V15.9z">
  </path>
  <path d="M19.2,36.9c0-1.1,0.9-1.9,1.9-1.9h18.9c1.1,0,1.9,0.9,1.9,1.9v1.2c0,2.1-1.7,3.8-3.8,3.8H23.1c-2.1,0-3.8-1.7-3.8-3.8V36.9
		z">
  </path>
 </g>
</svg>
