<svg width="256px" height="238px" viewBox="0 0 256 238" version="1.1" xmlns="http://www.w3.org/2000/svg" xmlns:xlink="http://www.w3.org/1999/xlink" preserveAspectRatio="xMidYMid">
	<g>
		<path d="M159.580504,162.376777 L12.2929172,162.376777 C5.50108043,162.376777 0,156.875696 0,150.083859 C0,143.292023 5.50108043,137.790942 12.2929172,137.790942 L159.580504,137.790942 C166.372341,137.790942 171.873421,143.292023 171.873421,150.083859 C171.873421,156.875696 166.372341,162.376777 159.580504,162.376777 Z M243.707083,99.922611 L96.4256423,99.922611 C89.6338055,99.922611 84.1327251,94.4215306 84.1327251,87.6296938 C84.1327251,80.8378571 89.6338055,75.3367767 96.4256423,75.3367767 L243.707083,75.3367767 C250.49892,75.3367767 256,80.8378571 256,87.6296938 C256,94.4215306 250.49892,99.922611 243.707083,99.922611 Z M213.257527,40.7844597 C213.257527,47.5736504 207.753801,53.0773769 200.96461,53.0773769 C194.175419,53.0773769 188.671693,47.5736504 188.671693,40.7844597 C188.671693,33.995269 194.175419,28.4915426 200.96461,28.4915426 C207.753801,28.4915426 213.257527,33.995269 213.257527,40.7844597 Z M67.3252341,196.947533 C67.3252341,203.736724 61.8215076,209.24045 55.0323169,209.24045 C48.2431262,209.24045 42.7393998,203.736724 42.7393998,196.947533 C42.7393998,190.158342 48.2431262,184.654616 55.0323169,184.654616 C61.8215076,184.654616 67.3252341,190.158342 67.3252341,196.947533 Z" fill="#93C8A2"></path>
		<path d="M127.932808,237.521926 C115.941219,237.521926 104.097068,235.740388 92.7320885,232.217245 C86.2514224,230.208999 82.6252498,223.327934 84.632237,216.846878 C86.6410739,210.335052 93.5399235,206.710545 100.005675,208.737812 C109.011654,211.532982 118.404655,212.945926 127.932808,212.945926 C169.623853,212.945926 205.822848,186.19215 218.014092,146.35329 C218.966942,143.237747 221.119645,140.629013 223.997689,139.102122 C226.875733,137.575232 230.242842,137.255537 233.356814,138.213507 C239.844067,140.179342 243.493147,147.059762 241.508883,153.540871 C226.138517,203.764865 180.494302,237.521926 127.932808,237.521926 Z M26.1087364,99.839808 C22.2118385,99.8403441 18.5457396,97.9921972 16.2285897,94.8590471 C13.9114398,91.7258969 13.2180139,87.6792824 14.359805,83.9534098 C29.7332433,33.7324874 75.3774578,-2.13162821e-14 127.932808,-2.13162821e-14 C139.933612,-2.13162821e-14 151.777764,1.78153731 163.133528,5.30775253 C166.246394,6.27212311 168.84862,8.43366553 170.367664,11.3167969 C171.886709,14.1999282 172.198119,17.5684397 171.23338,20.6811909 C170.271899,23.7958935 168.110641,26.4000467 165.226474,27.9190603 C162.342308,29.4380738 158.972271,29.747106 155.859942,28.7779708 C146.860106,26.0135163 137.460961,24.6005729 127.932808,24.6005729 C86.2509786,24.6005729 50.0458403,51.3543487 37.8545962,91.1932088 C36.2728154,96.3542766 31.5098278,99.8801084 26.111808,99.8858823 L26.1087364,99.839808 Z" fill="#43AF79"></path>
	</g>
</svg>
