<svg width="208" height="132" viewBox="0 0 208 132" fill="none" xmlns="http://www.w3.org/2000/svg">
<path d="M103.64 0H9.42C4.21748 0 0 4.21748 0 9.42V9.43C0 14.6325 4.21748 18.85 9.42 18.85H103.64C108.843 18.85 113.06 14.6325 113.06 9.43V9.42C113.06 4.21748 108.843 0 103.64 0Z" fill="#FF3D5D"/>
<path d="M197.85 0H141.33C136.128 0 131.91 4.21748 131.91 9.42V9.43C131.91 14.6325 136.128 18.85 141.33 18.85H197.85C203.053 18.85 207.27 14.6325 207.27 9.43V9.42C207.27 4.21748 203.053 0 197.85 0Z" fill="#FFE600"/>
<path d="M65.95 37.6799H9.42C4.21748 37.6799 0 41.8974 0 47.0999V47.1099C0 52.3125 4.21748 56.5299 9.42 56.5299H65.95C71.1525 56.5299 75.37 52.3125 75.37 47.1099V47.0999C75.37 41.8974 71.1525 37.6799 65.95 37.6799Z" fill="#FFA42C"/>
<path d="M141.33 37.6799H103.64C98.4372 37.6799 94.2197 41.8974 94.2197 47.0999V47.1099C94.2197 52.3125 98.4372 56.5299 103.64 56.5299H141.33C146.532 56.5299 150.75 52.3125 150.75 47.1099V47.0999C150.75 41.8974 146.532 37.6799 141.33 37.6799Z" fill="#00FF85"/>
<path d="M28.27 75.37H9.42C4.21748 75.37 0 79.5875 0 84.79V84.8C0 90.0025 4.21748 94.22 9.42 94.22H28.27C33.4725 94.22 37.69 90.0025 37.69 84.8V84.79C37.69 79.5875 33.4725 75.37 28.27 75.37Z" fill="#FFA42C"/>
<path d="M103.64 75.37H65.9503C60.7477 75.37 56.5303 79.5875 56.5303 84.79V84.8C56.5303 90.0025 60.7477 94.22 65.9503 94.22H103.64C108.843 94.22 113.06 90.0025 113.06 84.8V84.79C113.06 79.5875 108.843 75.37 103.64 75.37Z" fill="#00C3F7"/>
<path d="M197.85 75.37H141.33C136.128 75.37 131.91 79.5875 131.91 84.79V84.8C131.91 90.0025 136.128 94.22 141.33 94.22H197.85C203.053 94.22 207.27 90.0025 207.27 84.8V84.79C207.27 79.5875 203.053 75.37 197.85 75.37Z" fill="#FFE600"/>
<path d="M28.27 113.06H9.42C4.21748 113.06 0 117.277 0 122.48V122.49C0 127.692 4.21748 131.91 9.42 131.91H28.27C33.4725 131.91 37.69 127.692 37.69 122.49V122.48C37.69 117.277 33.4725 113.06 28.27 113.06Z" fill="#00FF85"/>
<path d="M122.48 113.06H65.9503C60.7477 113.06 56.5303 117.277 56.5303 122.48V122.49C56.5303 127.692 60.7477 131.91 65.9503 131.91H122.48C127.683 131.91 131.9 127.692 131.9 122.49V122.48C131.9 117.277 127.683 113.06 122.48 113.06Z" fill="#FF3D5D"/>
<path d="M197.86 113.06H160.17C154.967 113.06 150.75 117.277 150.75 122.48V122.49C150.75 127.692 154.967 131.91 160.17 131.91H197.86C203.063 131.91 207.28 127.692 207.28 122.49V122.48C207.28 117.277 203.063 113.06 197.86 113.06Z" fill="#00C3F7"/>
<path d="M169.59 47.1099C169.59 52.3099 173.81 56.5299 179.01 56.5299H197.84C203.04 56.5299 207.26 52.3099 207.26 47.1099C207.26 41.9099 203.04 37.6899 197.84 37.6899H179.01C173.81 37.6899 169.59 41.9099 169.59 47.1099Z" fill="#FFA42C"/>
</svg>
