<svg width="60" height="60" viewBox="0 0 60 60" fill="none" xmlns="http://www.w3.org/2000/svg">
<path fill-rule="evenodd" clip-rule="evenodd" d="M9.40053 8.55905C8.88268 9.6224 9.31868 10.9073 10.3744 11.4289C11.8907 12.1781 13.2065 12.9168 14.5094 14.3964C15.2896 15.2825 16.6353 15.3637 17.515 14.5777C18.3947 13.7918 18.4753 12.4364 17.695 11.5503C15.8385 9.44198 13.9275 8.40713 12.2497 7.57813C11.194 7.05652 9.91838 7.49569 9.40053 8.55905Z" fill="#34322D"/>
<path fill-rule="evenodd" clip-rule="evenodd" d="M20.9079 2.3149C19.7672 2.60216 19.0736 3.76651 19.3588 4.91555C19.558 5.71831 19.7438 6.40473 19.9139 7.03309C20.2395 8.23578 20.5075 9.22579 20.7019 10.4119C20.8934 11.5804 21.9892 12.3714 23.1493 12.1785C24.3095 11.9856 25.0947 10.8818 24.9032 9.71326C24.6735 8.31142 24.3157 6.98504 23.9566 5.65374C23.7976 5.06422 23.6383 4.47373 23.4898 3.87529C23.2046 2.72625 22.0487 2.02764 20.9079 2.3149Z" fill="#34322D"/>
<path fill-rule="evenodd" clip-rule="evenodd" d="M33.0786 3.63426C32.0734 3.01986 30.7639 3.34265 30.154 4.35522C29.0225 6.23356 28.4277 8.08306 27.8752 10.3089C27.59 11.458 28.2836 12.6223 29.4244 12.9096C30.5651 13.1968 31.7211 12.4982 32.0063 11.3492C32.5183 9.28598 32.9881 7.91866 33.7944 6.58017C34.4044 5.5676 34.0839 4.24867 33.0786 3.63426Z" fill="#34322D"/>
<path fill-rule="evenodd" clip-rule="evenodd" d="M43.9331 56.6116C48.0617 53.9731 50.9164 39.8228 50.2884 35.6091C50.2884 35.6091 49.634 33.3469 48.0372 33.3468C46.8137 33.3468 46.1377 34.3415 45.8884 34.8067C45.6728 34.7269 45.4533 34.6547 45.2792 34.5985C45.1853 34.5681 45.0537 34.5263 44.9304 34.4871L44.6964 34.4125C44.5053 34.3512 44.3255 34.2922 44.1561 34.2338L44.1566 34.1738C44.164 32.8061 44.025 30.6718 42.6083 28.4481C42.3816 28.0922 42.1677 27.7741 41.9848 27.5042L41.8701 27.3352C41.734 27.1348 41.6272 26.9775 41.5245 26.8205C41.2723 26.4354 41.2034 26.2871 41.1767 26.2187L41.1755 26.2156C41.1651 26.1891 41.1438 26.1351 41.138 25.9704C41.1309 25.7681 41.1481 25.3852 41.2793 24.7155L41.9612 21.9906L41.9637 21.9766C42.0087 21.7265 42.0491 21.5016 42.0711 21.1356C42.0914 20.7986 42.0956 20.3088 42.01 19.7408C41.8478 18.6648 41.2257 16.6253 39.0332 15.4429C38.4974 15.154 37.8556 14.9811 37.2229 14.8983C36.7976 14.8427 36.229 14.8047 35.5687 14.8557C34.2216 14.9597 32.4539 15.4447 30.8803 16.8875L30.4884 17.2997C29.5737 18.4044 28.6076 19.7723 27.8747 20.9829C25.6495 19.9355 23.0302 18.733 21.2001 18.0864C19.1915 17.3769 16.9497 16.7831 14.843 16.8595C12.5099 16.9441 9.88675 17.9222 8.51344 20.6906C7.94928 21.8279 7.70856 23.1561 7.99827 24.5403C8.27511 25.8631 8.95981 26.8748 9.61373 27.5807C10.8279 28.8914 12.4542 29.7033 13.6004 30.1954C14.478 30.5722 15.3797 30.8857 16.178 31.1395C16.0937 31.2921 16.0092 31.4501 15.9278 31.6103C15.6864 32.085 15.3976 32.7201 15.2075 33.4466C15.0179 34.1711 14.8684 35.2035 15.1387 36.368C15.4161 37.5632 15.965 38.4967 16.6189 39.2106C16.5941 39.5819 16.5848 39.9731 16.5986 40.3779C16.6906 43.0818 18.3417 44.8845 19.7939 45.9067C21.1776 46.8806 22.8071 47.4783 24.1246 47.8802C25.3968 48.2683 26.7402 48.5762 27.8317 48.8265L28.0653 48.88C29.2286 49.1473 30.3783 49.4564 31.5285 49.7657C32.833 50.1165 34.1381 50.4674 35.4641 50.7575C35.8978 50.8524 36.3192 50.9432 36.7069 51.0259L36.8481 51.3939C38.5683 55.7897 40.8651 58.5723 43.9331 56.6116ZM28.2156 38.6202C27.9801 38.5246 27.845 38.4612 27.7251 38.4007C26.6832 37.8586 25.4015 38.2672 24.8596 39.3157C24.3165 40.3662 24.723 41.6619 25.7659 42.2088C25.8514 42.2535 25.9381 42.2955 26.0253 42.3366C26.1714 42.4055 26.3749 42.4973 26.6227 42.598C27.1114 42.7965 27.8062 43.0437 28.5938 43.212C29.9917 43.5107 32.5756 43.7384 34.3274 41.716C35.1684 40.7451 35.5727 39.4694 35.7263 38.2766C35.8845 37.0476 35.8056 35.6995 35.4968 34.3874C34.8887 31.8026 33.2785 28.9743 30.272 27.6329C27.6959 26.4835 25.1502 26.2133 23.0033 26.4557C21.57 26.6176 20.2006 27.0239 19.1006 27.6431V27.5954C16.4105 26.8216 11.0571 25.2818 12.3754 22.6242C13.3748 20.6096 16.1129 20.7761 19.8267 22.0881C21.3351 22.621 23.4312 23.5706 25.4084 24.4966C26.0213 24.7836 26.6228 25.0684 27.1918 25.3378C28.0211 25.7305 29.4076 26.3772 29.4076 26.3772C30.9845 24.471 31.5968 23.4209 32.1372 22.4941C32.5089 21.8566 32.8466 21.2775 33.4408 20.5182C34.2818 19.4434 35.6412 18.7792 37.0357 19.1681C38.0076 19.6922 37.7607 21.0159 37.7607 21.0159L37.0852 23.7151C36.4404 26.8915 37.1541 27.9426 38.3305 29.6751C38.5371 29.9793 38.7581 30.3048 38.9884 30.6663C39.9266 32.139 39.8833 33.5552 39.8479 34.711C39.8251 35.4544 39.8057 36.0901 40.0528 36.5639C40.5618 37.5397 42.4666 38.1448 43.7154 38.5415C44.0155 38.6368 44.2777 38.7201 44.4736 38.7936L44.6074 38.8467C44.4314 39.3965 44.2715 39.9656 44.1117 40.5342C43.4013 43.0628 42.6941 45.5801 40.5854 46.3344C37.9241 47.2863 35.2627 46.3856 35.2627 46.3856C34.783 46.2444 34.2945 46.1351 33.806 46.0257C33.1971 45.8894 32.588 45.7531 31.9952 45.555C31.1691 45.2461 30.0119 44.9805 28.7543 44.692C25.7598 44.005 22.1958 43.1872 21.1752 41.3416C21.0033 41.0306 20.9035 40.6906 20.8908 40.317C20.8331 38.6196 21.4235 37.0999 21.4235 37.0999C21.4235 37.0999 20.5079 37.1038 19.8658 36.4816C19.6264 36.2496 19.4251 35.9307 19.3233 35.4922C19.12 34.6163 19.2946 33.3466 20.3591 32.2743L20.8926 31.7384C21.1621 31.4669 21.961 30.8894 23.4778 30.7181C24.9176 30.5555 26.7 30.7302 28.5474 31.5544C29.9644 32.1867 30.9442 33.6372 31.3534 35.3765C31.5534 36.2265 31.5901 37.0517 31.5034 37.725C31.4121 38.4344 31.211 38.7897 31.1188 38.8962C31.0042 39.0285 30.6006 39.2562 29.4775 39.0163C29.0047 38.9152 28.5556 38.7584 28.2156 38.6202Z" fill="#34322D"/>
</svg>
