<svg width="17" height="16" viewBox="0 0 17 16" fill="none" xmlns="http://www.w3.org/2000/svg">
<path d="M8.42145 0.197266C4.00372 0.197266 0.421387 3.77893 0.421387 8.19733C0.421387 11.732 2.71365 14.7307 5.89232 15.7886C6.29214 15.8626 6.43892 15.615 6.43892 15.4037C6.43892 15.213 6.4315 14.5828 6.42806 13.9143C4.20243 14.3982 3.7328 12.9704 3.7328 12.9704C3.36888 12.0457 2.84454 11.7998 2.84454 11.7998C2.11869 11.3033 2.89925 11.3135 2.89925 11.3135C3.7026 11.3699 4.1256 12.1379 4.1256 12.1379C4.83912 13.3609 5.99711 13.0073 6.45363 12.8029C6.52543 12.2859 6.73276 11.9329 6.96155 11.7332C5.18462 11.5309 3.31669 10.8449 3.31669 7.7795C3.31669 6.90607 3.6292 6.19241 4.14096 5.63217C4.0579 5.43067 3.78407 4.61699 4.21846 3.51504C4.21846 3.51504 4.89026 3.30003 6.41905 4.33508C7.0572 4.15782 7.74158 4.06893 8.42145 4.06588C9.10133 4.06893 9.78624 4.15782 10.4256 4.33508C11.9525 3.30003 12.6234 3.51504 12.6234 3.51504C13.0588 4.61699 12.7849 5.43067 12.7018 5.63217C13.2148 6.19241 13.5252 6.90607 13.5252 7.7795C13.5252 10.8522 11.6536 11.5287 9.87222 11.7268C10.1592 11.9751 10.4148 12.4619 10.4148 13.2083C10.4148 14.2787 10.4056 15.1402 10.4056 15.4037C10.4056 15.6166 10.5496 15.8661 10.9551 15.7875C14.132 14.7285 16.4214 11.7308 16.4214 8.19733C16.4214 3.77893 12.8396 0.197266 8.42145 0.197266ZM3.41767 11.5935C3.40005 11.6333 3.33752 11.6452 3.28056 11.6179C3.22253 11.5918 3.18994 11.5376 3.20875 11.4977C3.22598 11.4568 3.28864 11.4454 3.34653 11.4728C3.40469 11.4989 3.43781 11.5537 3.41767 11.5935ZM3.81119 11.9447C3.77303 11.98 3.69845 11.9636 3.64784 11.9077C3.59551 11.8519 3.58571 11.7773 3.62439 11.7414C3.66374 11.7061 3.73607 11.7226 3.78853 11.7784C3.84086 11.8348 3.85106 11.9089 3.81119 11.9447ZM4.08115 12.3939C4.03214 12.428 3.95199 12.396 3.90244 12.3249C3.85342 12.2538 3.85342 12.1684 3.9035 12.1343C3.95318 12.1001 4.03214 12.1308 4.08234 12.2014C4.13123 12.2738 4.13123 12.3591 4.08115 12.3939ZM4.53772 12.9142C4.49387 12.9626 4.40047 12.9496 4.33212 12.8836C4.26217 12.8191 4.24269 12.7276 4.28668 12.6792C4.33106 12.6307 4.42498 12.6444 4.49387 12.7098C4.56329 12.7742 4.58449 12.8664 4.53772 12.9142ZM5.12779 13.0899C5.10845 13.1525 5.0185 13.181 4.92789 13.1544C4.8374 13.127 4.77819 13.0536 4.79647 12.9902C4.81528 12.9272 4.90563 12.8975 4.99691 12.926C5.08726 12.9533 5.14661 13.0261 5.12779 13.0899ZM5.79932 13.1644C5.80157 13.2303 5.72474 13.2851 5.62962 13.2862C5.53397 13.2884 5.4566 13.235 5.45554 13.1701C5.45554 13.1034 5.53066 13.0492 5.62631 13.0477C5.72142 13.0458 5.79932 13.0988 5.79932 13.1644ZM6.45902 13.1391C6.47041 13.2035 6.40431 13.2696 6.30985 13.2872C6.21698 13.3041 6.13101 13.2644 6.11922 13.2005C6.10769 13.1346 6.17499 13.0685 6.26772 13.0514C6.36231 13.035 6.44697 13.0736 6.45902 13.1391Z" fill="currentColor" />
</svg>
