<svg width="18" height="16" viewBox="0 0 18 16" fill="none" xmlns="http://www.w3.org/2000/svg">
<path d="M17.0156 8.92573L16.1294 6.19637C16.1298 6.1976 16.13 6.19887 16.1303 6.2001C16.1299 6.19868 16.1297 6.19725 16.1293 6.19583C16.1292 6.19573 16.1292 6.19568 16.1292 6.19558C16.1292 6.19553 16.1292 6.19549 16.1292 6.19549L14.3699 0.779196C14.2737 0.493872 14.0089 0.30238 13.7053 0.304737C13.4008 0.306308 13.1433 0.494117 13.0491 0.783369L11.3792 5.92445H6.11009L4.43703 0.783026C4.34296 0.49402 4.08538 0.306259 3.78095 0.304688C3.77972 0.304688 3.77855 0.304688 3.77727 0.304688C3.47751 0.304688 3.21217 0.495001 3.1149 0.783517L1.36044 6.19494L1.36019 6.19563C1.36019 6.19568 1.36019 6.19573 1.36019 6.19578C1.35975 6.19715 1.35955 6.19853 1.35911 6.1999C1.35951 6.19868 1.35965 6.1974 1.36005 6.19617L0.470588 8.92573C0.336789 9.33778 0.481979 9.78557 0.831969 10.0402L8.51209 15.6203C8.51322 15.6212 8.5145 15.6217 8.51563 15.6225C8.51892 15.6249 8.52211 15.6273 8.52545 15.6295C8.5223 15.6274 8.51936 15.6251 8.51626 15.6229C8.51626 15.6229 8.51626 15.6229 8.51621 15.6229C8.51671 15.6232 8.5173 15.6235 8.51784 15.6238C8.51828 15.6241 8.51872 15.6243 8.51916 15.6246C8.51921 15.6247 8.51926 15.6247 8.51936 15.6248C8.53124 15.633 8.54356 15.6406 8.55633 15.6475C8.5581 15.6485 8.55967 15.6497 8.56144 15.6506C8.56149 15.6506 8.56149 15.6507 8.56153 15.6507C8.56261 15.6512 8.5636 15.6519 8.56468 15.6525C8.56551 15.6529 8.5664 15.6531 8.56718 15.6535C8.56777 15.6538 8.56841 15.654 8.569 15.6542C8.57042 15.6549 8.57199 15.6554 8.57342 15.6561C8.58009 15.6593 8.58712 15.6619 8.59399 15.6647C8.60042 15.6673 8.60666 15.6704 8.61324 15.6727C8.61353 15.6728 8.61378 15.673 8.61407 15.6731C8.61515 15.6735 8.61613 15.674 8.61726 15.6744C8.61864 15.6749 8.61997 15.6754 8.62134 15.6759C8.62188 15.676 8.62242 15.6761 8.62296 15.6763C8.62468 15.6768 8.62654 15.6771 8.62826 15.6776C8.6289 15.6777 8.62964 15.6778 8.63032 15.678C8.63955 15.6808 8.64913 15.6829 8.65866 15.685C8.66239 15.6858 8.66597 15.687 8.66975 15.6877C8.67029 15.6878 8.67078 15.688 8.67137 15.6881C8.6726 15.6883 8.67373 15.6887 8.67501 15.6889C8.67702 15.6893 8.67898 15.6899 8.68105 15.6902C8.68267 15.6905 8.68433 15.6904 8.68596 15.6906C8.68625 15.6907 8.6865 15.6906 8.68679 15.6907C8.68689 15.6907 8.68694 15.6907 8.68704 15.6907C8.70515 15.6933 8.72352 15.6951 8.74223 15.6951C8.74232 15.6951 8.74242 15.6951 8.74257 15.6951C8.74262 15.6951 8.74267 15.6951 8.74267 15.6951H8.74272C8.74277 15.6951 8.74282 15.6951 8.74286 15.6951C8.76162 15.6951 8.77998 15.6933 8.79815 15.6907C8.7982 15.6907 8.7983 15.6907 8.79835 15.6907C8.79864 15.6906 8.79894 15.6907 8.79923 15.6906C8.80085 15.6904 8.80257 15.6905 8.80419 15.6902C8.80625 15.6899 8.80822 15.6893 8.81028 15.6889C8.81151 15.6887 8.81264 15.6883 8.81386 15.6881C8.8144 15.688 8.81489 15.6878 8.81543 15.6877C8.81926 15.6869 8.82295 15.6858 8.82678 15.6849C8.83615 15.6829 8.84558 15.6808 8.85476 15.6781C8.8554 15.6779 8.85604 15.6778 8.85668 15.6776C8.8585 15.6771 8.86036 15.6769 8.86218 15.6763C8.86272 15.6761 8.86331 15.6761 8.86385 15.6759C8.86527 15.6755 8.86665 15.6749 8.86802 15.6744C8.8691 15.674 8.87008 15.6735 8.87116 15.6731C8.87146 15.673 8.8717 15.6728 8.872 15.6727C8.87897 15.6703 8.88555 15.667 8.89237 15.6642C8.89871 15.6616 8.90519 15.6592 8.91138 15.6563C8.9129 15.6556 8.91452 15.6551 8.91599 15.6544C8.91658 15.6541 8.91727 15.6539 8.91786 15.6536C8.91869 15.6532 8.91958 15.653 8.92041 15.6525C8.92154 15.6519 8.92262 15.6512 8.9237 15.6507C8.9237 15.6507 8.92375 15.6507 8.92375 15.6506C8.92557 15.6497 8.92719 15.6484 8.929 15.6474C8.94167 15.6405 8.95395 15.633 8.96578 15.6248C8.96671 15.6242 8.96779 15.6237 8.96878 15.623C8.96902 15.6228 8.96931 15.6227 8.96956 15.6225C8.97069 15.6217 8.97202 15.6211 8.97314 15.6203L16.6544 10.04C17.0042 9.78558 17.1494 9.33778 17.0156 8.92573ZM13.7102 1.2866L15.2166 5.92445H12.2038L13.7102 1.2866ZM14.9528 6.70868L14.3381 7.49631L9.80442 13.3053L11.949 6.70868H14.9528ZM8.3697 15.4243C8.37009 15.4255 8.37073 15.4265 8.37112 15.4278C8.37073 15.4265 8.37009 15.4255 8.3697 15.4243ZM7.6819 13.3056L2.53635 6.70868H5.54033L7.6819 13.3056ZM3.77619 1.28655L5.28539 5.92445H2.27258L3.77619 1.28655ZM1.29312 9.40583C1.21868 9.35167 1.18785 9.25607 1.21638 9.16828L1.87757 7.1392L6.72232 13.3505L1.29312 9.40583ZM8.49859 15.61C8.49707 15.6088 8.49559 15.6074 8.49412 15.6062C8.49382 15.6059 8.49353 15.6056 8.49319 15.6053C8.49024 15.6029 8.48734 15.6004 8.4845 15.5978C8.4789 15.593 8.4734 15.588 8.46815 15.5828C8.46859 15.5832 8.46908 15.5835 8.46952 15.5839C8.47011 15.5845 8.47075 15.5849 8.47134 15.5854C8.48258 15.5962 8.49441 15.6063 8.50679 15.6156C8.50694 15.6157 8.50703 15.6159 8.50718 15.616C8.50777 15.6164 8.50826 15.617 8.50885 15.6175C8.50546 15.615 8.50193 15.6126 8.49859 15.61ZM8.74286 14.034L7.4827 10.1522L6.36487 6.70868H11.1243L8.74286 14.034ZM9.00079 15.5978C8.99784 15.6004 8.995 15.6029 8.992 15.6054C8.99166 15.6057 8.99131 15.606 8.99097 15.6063C8.98945 15.6075 8.98802 15.6089 8.98655 15.6101C8.98331 15.6127 8.97977 15.615 8.97639 15.6176C8.97698 15.6171 8.97747 15.6165 8.9781 15.6161C8.9782 15.616 8.9783 15.6159 8.9784 15.6158C8.99077 15.6065 9.00256 15.5965 9.0137 15.5857C9.01414 15.5853 9.01468 15.5849 9.01513 15.5846C9.01572 15.584 9.01635 15.5836 9.01689 15.583C9.01169 15.5881 9.00624 15.593 9.00079 15.5978ZM16.1933 9.40568L10.7649 13.3493L15.6113 7.13969L16.2698 9.16789C16.2984 9.25607 16.2676 9.35167 16.1933 9.40568Z" fill="currentColor"/>
</svg>
