<svg width="14" height="14" viewBox="0 0 14 14" fill="none" xmlns="http://www.w3.org/2000/svg">
<path d="M7.05527 6.04895H13.3177C13.3868 6.43478 13.4214 6.80333 13.4214 7.1546C13.4214 8.40421 13.1594 9.51994 12.6353 10.5018C12.1113 11.4836 11.3641 12.2509 10.3938 12.8038C9.42349 13.3566 8.31064 13.633 7.05527 13.633C6.15118 13.633 5.29027 13.4588 4.47255 13.1104C3.65483 12.762 2.9494 12.2913 2.35627 11.6981C1.76314 11.105 1.29237 10.3996 0.943978 9.58184C0.595584 8.76413 0.421387 7.90322 0.421387 6.99912C0.421387 6.09502 0.595584 5.23412 0.943978 4.4164C1.29237 3.59868 1.76314 2.89325 2.35627 2.30012C2.9494 1.70698 3.65483 1.23622 4.47255 0.887826C5.29027 0.539431 6.15118 0.365234 7.05527 0.365234C8.78285 0.365234 10.2657 0.943972 11.5038 2.10145L9.69846 3.83766C8.99016 3.15239 8.10909 2.80975 7.05527 2.80975C6.31242 2.80975 5.62571 2.99691 4.99514 3.37121C4.36458 3.74552 3.86502 4.25372 3.49647 4.8958C3.12792 5.53788 2.94365 6.23899 2.94365 6.99912C2.94365 7.75925 3.12792 8.46036 3.49647 9.10244C3.86502 9.74452 4.36458 10.2527 4.99514 10.627C5.62571 11.0013 6.31242 11.1885 7.05527 11.1885C7.55627 11.1885 8.01696 11.1194 8.43733 10.9812C8.85771 10.843 9.20323 10.6702 9.47388 10.4629C9.74453 10.2556 9.98063 10.0195 10.1822 9.7546C10.3837 9.48971 10.532 9.23921 10.627 9.00311C10.7221 8.767 10.7868 8.54242 10.8214 8.32935H7.05527V6.04895Z" fill="currentColor" />
</svg>
