<svg width="18" height="18" viewBox="0 0 1024 1024" fill="none" xmlns="http://www.w3.org/2000/svg">
<path d="M608 112C440.1 112 304 248.1 304 416C304 486.3 327.9 551 367.9 602.5L326.8 643.6L264.5 581.3C262.977 579.81 260.931 578.975 258.8 578.975C256.669 578.975 254.623 579.81 253.1 581.3L213.3 621.1C211.81 622.623 210.975 624.669 210.975 626.8C210.975 628.931 211.81 630.977 213.3 632.5L275.6 694.8L230.7 739.7L168.4 677.4C166.877 675.91 164.831 675.075 162.7 675.075C160.569 675.075 158.523 675.91 157 677.4L117.2 717.2C115.71 718.723 114.875 720.769 114.875 722.9C114.875 725.031 115.71 727.077 117.2 728.6L179.5 790.9L114.2 856.2C112.711 857.704 111.876 859.734 111.876 861.85C111.876 863.966 112.711 865.996 114.2 867.5L156.5 909.8C159.6 912.9 164.7 912.9 167.8 909.8L421.4 656.2C474.785 697.607 540.439 720.055 608 720C775.9 720 912 583.9 912 416C912 248.1 775.9 112 608 112ZM769.2 577.2C726.2 620.3 668.9 644 608 644C547.1 644 489.8 620.3 446.8 577.2C403.7 534.2 380 476.9 380 416C380 355.1 403.7 297.8 446.8 254.8C489.8 211.7 547.1 188 608 188C668.9 188 726.2 211.7 769.2 254.8C812.3 297.8 836 355.1 836 416C836 476.9 812.3 534.2 769.2 577.2Z" fill="#0f0f0f"/>
</svg>
