<svg height="136" viewBox="0 0 136 136" width="136" xmlns="http://www.w3.org/2000/svg" xmlns:xlink="http://www.w3.org/1999/xlink"><mask id="a" fill="#fff"><path d="m.116.008h15.509v15.574h-15.509z" fill="#fff" fill-rule="evenodd"/></mask><mask id="b" fill="#fff"><path d="m.118.008h15.719v15.574h-15.719z" fill="#fff" fill-rule="evenodd"/></mask><g fill="none" fill-rule="evenodd"><path d="m67.537423 135.939136c-23.595752-.206276-42.2287812-4.677245-55.8990877-13.41291l-.0000073.000012c-.707303-.451984-1.0571219-1.297531-.8758926-2.117118l1.578477-7.138468c.1565692-.708065-.0824014-1.44541-.6245415-1.927026l-6.19107903-5.49991c-.70813547-.629079-.87786882-1.668637-.40659997-2.490283l4.57678606-7.9795205c.45284714-.7895284.31549154-1.7852479-.33419998-2.4226854l-7.92366892-7.7742192c-.78844873-.7735776-.80050412-2.0398502-.02692646-2.8282989.00325785-.0033205.00652728-.0066296.00980822-.0099273l5.80151401-5.8310888c.59941563-.6024713.75262082-1.5179669.38201382-2.2827683l-5.41669609-11.1781397c-.38533568-.7951962-.20316063-1.749022.44811624-2.3462313l6.2863495-5.7644713c.63403044-.5813947.82526203-1.5030892.47486215-2.2887318l-4.33639151-9.7227601c-.42408606-.9508567-.04774553-2.0680269.86523771-2.5684658l7.58119935-4.1555274c.5445326-.2984779.9195332-.8329569 1.0149312-1.4465561l1.9104007-12.2876777c.150639-.9689084.9815007-1.6857167 1.9620244-1.6926949l10.5729439-.075246c.9533914-.0067852 1.7694412-.685603 1.9496967-1.6218236l2.0164158-10.47296772c.1812678-.94147843 1.0051601-1.62187419 1.96393-1.62187419h10.8731291c.475181 0 .934838-.16918736 1.296628-.47725387l6.8166681-5.80443619c.5130961-.43690463 1.2117219-.58603177 1.8584911-.3967095l11.719844 3.43063281c.3674565.10756187.7580657.10738881 1.1254267-.00049863l11.6755198-3.42889343c.6472042-.19007241 1.346617-.04110123 1.8601917.39621087l6.8157965 5.80369407c.36179.30806651.821447.47725387 1.296628.47725387h10.8731293c.95877 0 1.782662.68039576 1.96393 1.62187419l2.016416 10.47296772c.180255.9362206.996305 1.6150384 1.949696 1.6218236l10.572944.075246c.980524.0069782 1.811386.7237865 1.962025 1.6926949l1.9104 12.2876777c.095398.6135992.470399 1.1480782 1.014932 1.4465561l7.581199 4.1555274c.912983.5004389 1.289324 1.6176091.865238 2.5684658l-4.336392 9.7227601c-.3504.7856426-.159168 1.7073371.474862 2.2887318l6.28635 5.7644713c.651277.5972093.833452 1.5510351.448116 2.3462313l-5.416696 11.1781397c-.370607.7648014-.217402 1.680297.382014 2.2827683l5.801514 5.8310888c.77906.7830318.775841 2.0493577-.007191 2.828418-.003298.0032809-.006607.0065504-.009928.0098082l-7.923668 7.7742192c-.649692.6374375-.787048 1.633157-.3342 2.4226854l4.576786 7.9795205c.471268.821646.301535 1.861204-.4066 2.490283l-6.191079 5.49991c-.54214.481616-.781111 1.218961-.624542 1.927026l1.578813 7.139981c.180956.818354-.167533 1.662737-.872996 2.115253-14.262654 9.148707-33.2069905 13.61979-56.833011 13.41325z" fill="#8b6950" fill-rule="nonzero"/><path d="m95.1389895 26.2313388c0-10.1038977 3.9129031-12.5330861 7.8258065-12.5330861 3.912903 0 7.825806 2.4291884 7.825806 12.5330861z" fill="#f9d2b7" transform="matrix(.70710678 .70710678 -.70710678 .70710678 44.275137 -66.959637)"/><path d="m96.1793548 26.7932552c0-7.6853638 2.7399815-10.5761885 5.4028842-10.5761885 2.662904 0 5.248728 2.8908247 5.248728 10.5761885z" fill="#f395cd" transform="matrix(.70710678 .70710678 -.70710678 .70710678 44.936458 -65.476205)"/><path d="m25.1389895 26.2313388c0-10.1038977 3.9129031-12.5330861 7.8258062-12.5330861s7.8258062 2.4291884 7.8258062 12.5330861z" fill="#f9d2b7" transform="matrix(-.70710678 .70710678 .70710678 .70710678 42.157706 -17.462294)"/><path d="m29.1793548 26.7932552c0-7.6853638 2.7399815-10.5761885 5.4028846-10.5761885s5.2487278 2.8908247 5.2487278 10.5761885z" fill="#f395cd" transform="matrix(-.70710678 .70710678 .70710678 .70710678 43.697785 -18.100215)"/><path d="m123 80.625c0 26.71875-24.6277778 48.375-55 48.375-30.3844444 0-55-21.65625-55-48.375 0-2.4075.1967778-4.86.5866667-7.335.6331704-3.927395 1.7335122-8.029869 3.1166666-11.6775 7.9688889-21.15 27.9277778-40.6125 51.2966667-40.6125 23.3566667 0 43.329 19.4625 51.296667 40.6125 1.721268 4.2297341 2.65087 6.8567226 3.116666 11.6775.391111 2.475.586667 4.9275.586667 7.335z" fill="#d6b39c"/><path d="m111.093276 37.6840485c2.839977 4.2798451 3.014386 12.4282436-1.532941 16.2987995-10.1954765 8.6781013-24.2836475 15.017152-42 15.017152-18.0396197 0-31.8045235-6.3390507-42-15.017152-4.5473267-3.8705559-4.3729176-12.0189544-1.5329407-16.2987995 12.4355939-18.7404398 26.9465741-28.30178924 43.5329407-28.6840485 16.5863666.38225926 31.0973468 9.9436087 43.532941 28.6840485z" fill="#fbdbc5"/><path d="m63.8413111 39h6.3173778c1.1045695 0 2 .8954305 2 2 0 .4103442-.1262192.8107576-.3615362 1.1469247l-1.520225 2.17175c-1.266858 1.8097972-3.7609799 2.2499364-5.5707771.9830783-.3825653-.2677957-.7152826-.600513-.9830783-.9830783l-1.520225-2.17175c-.633429-.9048986-.4133595-2.1519595.4915391-2.7853885.3361671-.235317.7365805-.3615362 1.1469247-.3615362z" fill="#3e2c39" fill-rule="nonzero"/><path d="m99.5140973 100.277292c1.1366757-.8099042 2.5313277-1.2869109 4.0384617-1.2869109s2.901786.4770067 4.038461 1.2869109c1.136676-.8099042 2.531328-1.2869109 4.038462-1.2869109 3.82351 0 6.923077 3.0700469 6.923077 6.8571429 0 3.251909-2.285417 5.975115-5.352159 6.679849-.278048 1.096709-.417072 2.249074-.417072 3.457097v14.890526c0 6.691143-5.424242 12.115385-12.115385 12.115385-6.6911417 0-12.1153841-5.424242-12.1153841-12.115385v-25.598901h.0236964c.293164-3.519731 3.2701514-6.2857139 6.8993805-6.2857139 1.5071342 0 2.9017863.4770067 4.0384615 1.2869109z" fill="#c79f83" transform="matrix(.5 .8660254 -.8660254 .5 156.556914 -29.184529)"/><g fill="#b89379"><path d="m117.864412 129.359638c2.824893-.786824 4.903847-3.453225 4.903847-6.621478s-2.078954-5.834655-4.903847-6.621479c.551775-.153687 1.13201-.235664 1.73077-.235664 3.664196 0 6.634615 3.070047 6.634615 6.857143 0 3.787095-2.970419 6.857143-6.634615 6.857143-.59876 0-1.178995-.081978-1.73077-.235665z" transform="matrix(.5 .8660254 -.8660254 .5 167.317726 -44.326802)"/><path d="m113.998389 122.663489c2.824892-.786825 4.903846-3.453226 4.903846-6.621479s-2.078954-5.834654-4.903846-6.621478c.551775-.153688 1.132009-.235665 1.730769-.235665 3.664197 0 6.634615 3.070048 6.634615 6.857143 0 3.787096-2.970418 6.857143-6.634615 6.857143-.59876 0-1.178994-.081977-1.730769-.235664z" transform="matrix(.5 .8660254 -.8660254 .5 159.58582 -44.326748)"/><path d="m109.959927 115.668668c2.824892-.786824 4.903846-3.453225 4.903846-6.621478s-2.078954-5.834655-4.903846-6.621479c.551775-.153687 1.13201-.235664 1.730769-.235664 3.664197 0 6.634616 3.070047 6.634616 6.857143 0 3.787095-2.970419 6.857142-6.634616 6.857142-.598759 0-1.178994-.081977-1.730769-.235664z" transform="matrix(.5 .8660254 -.8660254 .5 151.508972 -44.327238)"/></g><path d="m89.9910218 109.492231h13.8461542c.637251 0 1.153846.516594 1.153846 1.153846v14.769231c0 4.460761-3.616162 8.076923-8.0769232 8.076923-4.4607615 0-8.0769231-3.616162-8.0769231-8.076923v-14.769231c0-.637252.5165945-1.153846 1.1538461-1.153846z" fill="#cfac94" fill-rule="nonzero" transform="matrix(.5 .8660254 -.8660254 .5 153.672158 -23.183986)"/><path d="m28.5140973 100.277292c1.1366753-.8099042 2.5313274-1.2869109 4.0384616-1.2869109s2.9017862.4770067 4.0384615 1.2869109c1.1366753-.8099042 2.5313274-1.2869109 4.0384616-1.2869109 3.8235098 0 6.9230769 3.0700469 6.9230769 6.8571429 0 3.251909-2.285417 5.975115-5.352159 6.679849-.2780478 1.096709-.4170718 2.249074-.4170718 3.457097v14.890526c0 6.691143-5.4242424 12.115385-12.1153846 12.115385s-12.1153846-5.424242-12.1153846-12.115385v-25.598901h.0236964c.293164-3.519731 3.2701514-6.2857139 6.8993805-6.2857139 1.5071342 0 2.9017863.4770067 4.0384615 1.2869109z" fill="#c79f83" transform="matrix(-.5 .8660254 .8660254 .5 -55.952169 32.304)"/><path d="m9.8753208 129.359638c2.8248923-.786824 4.9038461-3.453225 4.9038461-6.621478s-2.0789538-5.834655-4.9038461-6.621479c.5517751-.153687 1.1320094-.235664 1.7307692-.235664 3.6641969 0 6.6346154 3.070047 6.6346154 6.857143 0 3.787095-2.9704185 6.857143-6.6346154 6.857143-.5987598 0-1.1789941-.081978-1.7307692-.235665z" fill="#b89379" transform="matrix(-.5 .8660254 .8660254 .5 -85.207373 49.1945)"/><path d="m13.7413445 122.663489c2.8248923-.786825 4.9038462-3.453226 4.9038462-6.621479s-2.0789539-5.834654-4.9038462-6.621478c.5517751-.153688 1.1320095-.235665 1.7307693-.235665 3.6641969 0 6.6346153 3.070048 6.6346153 6.857143 0 3.787096-2.9704184 6.857143-6.6346153 6.857143-.5987598 0-1.1789942-.081977-1.7307693-.235664z" fill="#b89379" transform="matrix(-.5 .8660254 .8660254 .5 -73.609561 42.4985)"/><path d="m17.7798061 115.668668c2.8248922-.786824 4.9038461-3.453225 4.9038461-6.621478s-2.0789539-5.834655-4.9038461-6.621479c.5517751-.153687 1.1320094-.235664 1.7307692-.235664 3.6641969 0 6.6346154 3.070047 6.6346154 6.857143 0 3.787095-2.9704185 6.857142-6.6346154 6.857142-.5987598 0-1.1789941-.081977-1.7307692-.235664z" fill="#b89379" transform="matrix(-.5 .8660254 .8660254 .5 -61.493866 35.5035)"/><path d="m32.2679421 109.492231h13.8461538c.6372517 0 1.1538462.516594 1.1538462 1.153846v14.769231c0 4.460761-3.6161617 8.076923-8.0769231 8.076923-4.4607614 0-8.0769231-3.616162-8.0769231-8.076923v-14.769231c0-.637252.5165945-1.153846 1.1538462-1.153846z" fill="#cfac94" fill-rule="nonzero" transform="matrix(-.5 .8660254 .8660254 .5 -46.428488 26.8055)"/><path d="m13.1848695 76.6584867c.0964381-1.0769544.2304741-2.1601622.4017972-3.2477144.6331704-3.927395 1.7335122-8.029869 3.1166666-11.6775.2182098-.5791444.4454099-1.1570235.681424-1.7332723 16.9381673 8.5160261 23.8875633 15.5156281 20.8481882 20.998806-2.7939921 5.040495-11.1433507 3.5937219-25.048076-4.3403193z" fill="#c79f83"/><path d="m97.1848695 76.6584867c.0964381-1.0769544.2304741-2.1601622.4017972-3.2477144.6331704-3.927395 1.7335122-8.029869 3.1166663-11.6775.21821-.5791444.44541-1.1570235.681424-1.7332723 16.938168 8.5160261 23.887564 15.5156281 20.848188 20.998806-2.793992 5.040495-11.14335 3.5937219-25.0480755-4.3403193z" fill="#c79f83" transform="matrix(-1 0 0 1 220.111 0)"/><g transform="translate(45 26)"><path d="m15.6248149 7.79495923c0 4.30053887-3.4718109 7.78691277-7.75438599 7.78691277-4.28257504 0-7.75438596-3.4863739-7.75438596-7.78691277s3.47181092-7.78691275 7.75438596-7.78691275c4.28257509 0 7.75438599 3.48637388 7.75438599 7.78691275" fill="#fff" mask="url(#a)" transform="translate(.09 .136)"/><path d="m13.2558356 7.931086c0 2.9369639-2.3709753 5.3178846-5.29567121 5.3178846-2.9246959 0-5.29567121-2.3809207-5.29567121-5.3178846 0-2.93696393 2.37097531-5.3178846 5.29567121-5.3178846 2.92469591 0 5.29567121 2.38092067 5.29567121 5.3178846" fill="#2d353a"/><path d="m7.01450266 6.41168628c0 .73427703-.59263612 1.32954325-1.323846 1.32954325s-1.3239896-.59526622-1.3239896-1.32954325.59277972-1.32939905 1.3239896-1.32939905 1.323846.59512202 1.323846 1.32939905m1.32396089-1.51939972c0 .31464895-.25402794.56974245-.56736258.56974245-.31347823 0-.56750617-.2550935-.56750617-.56974245 0-.31464896.25402794-.56974245.56750617-.56974245.31333464 0 .56736258.25509349.56736258.56974245" fill="#fff"/></g><g transform="translate(72 26)"><path d="m15.8369164 7.79495923c0 4.30053887-3.5189395 7.78691277-7.85964908 7.78691277-4.34070956 0-7.85964913-3.4863739-7.85964913-7.78691277s3.51893957-7.78691275 7.85964913-7.78691275c4.34070958 0 7.85964908 3.48637388 7.85964908 7.78691275" fill="#fff" mask="url(#b)" transform="translate(.782 .136)"/><path d="m14.1271371 7.931086c0 2.9369639-2.4031605 5.3178846-5.36755815 5.3178846-2.96439766 0-5.36755816-2.3809207-5.36755816-5.3178846 0-2.93696393 2.4031605-5.3178846 5.36755816-5.3178846 2.96439765 0 5.36755815 2.38092067 5.36755815 5.3178846" fill="#2d353a"/><path d="m7.80108018 6.41168628c0 .73427703-.60068096 1.32954325-1.34181676 1.32954325s-1.34196232-.59526622-1.34196232-1.32954325.60082652-1.32939905 1.34196232-1.32939905 1.34181676.59512202 1.34181676 1.32939905m1.34193321-1.51939972c0 .31464895-.25747629.56974245-.57506433.56974245-.3177336 0-.57520988-.2550935-.57520988-.56974245 0-.31464896.25747628-.56974245.57520988-.56974245.31758804 0 .57506433.25509349.57506433.56974245" fill="#fff"/></g><path d="m48.4162651 23.3171698c0 2.935088 7.6016467 3.8142627 11.4024701 1.5381423.7791522-.4665947-2.384437-2.7542932-5.7706135-3.3316652-2.6455996-.4510973-5.6318566.5061628-5.6318566 1.7935229z" fill="#3e2c39" transform="matrix(-.96592583 -.25881905 -.25881905 .96592583 112.662377 14.832283)"/><path d="m76 17.7788483c0 2.9350881 7.6016467 3.8142627 11.40247 1.5381424.7791523-.4665948-2.3844369-2.7542933-5.7706134-3.3316652-2.6455996-.4510973-5.6318566.5061627-5.6318566 1.7935228z" fill="#3e2c39" transform="matrix(.98768834 .15643447 -.15643447 .98768834 3.859809 -12.56553)"/><path d="m94.1972656 10.8037109c0-1.54623165.4964143-3.112785 1.4892578-4.69970699.9928435-1.586922 2.4413968-2.90119922 4.3457036-3.9428711 1.904306-1.04167187 4.125963-1.5625 6.665039-1.5625 2.360037 0 4.44335.43537976 6.25 1.30615235 1.806649.87077258 3.202306 2.05484277 4.187011 3.55224609.984706 1.49740332 1.477051 3.12499121 1.477051 4.88281255 0 1.3834704-.280759 2.5960234-.842285 3.6376953-.561526 1.0416718-1.228837 1.9409141-2.001953 2.6977539-.773116.7568397-2.160635 2.0304272-4.162598 3.8208008-.553388.5045598-.996906.9480775-1.330566 1.3305664-.333661.3824888-.581868.7324202-.744629 1.0498046s-.288899.6347641-.378418.9521485-.223795.8748332-.402832 1.6723633c-.309246 1.6927168-1.277661 2.5390625-2.905274 2.5390625-.846358 0-1.558428-.27669-2.13623-.8300782-.577802-.5533881-.866699-1.37532-.866699-2.4658203 0-1.3671943.211586-2.5512645.634765-3.5522461.42318-1.0009815.984697-1.879879 1.684571-2.6367187.699873-.7568397 1.643874-1.6560821 2.832031-2.6977539 1.041672-.9114629 1.794431-1.5991188 2.258301-2.0629883.463869-.4638695.85449-.9806287 1.171875-1.550293.317384-.5696643.476074-1.1881477.476074-1.8554687 0-1.30208987-.484207-2.40071169-1.452637-3.29589846-.968429-.89518677-2.217603-1.34277344-3.747558-1.34277344-1.790374 0-3.10872.45165564-3.955078 1.35498047-.846359.90332483-1.562498 2.23387793-2.148438 3.99169923-.553388 1.8392019-1.6031824 2.7587891-3.1494141 2.7587891-.9114629 0-1.6804981-.3214487-2.3071289-.9643555-.6266307-.6429069-.9399414-1.3387007-.9399414-2.0874024zm11.9140624 26.7578125c-.992843 0-1.859534-.3214486-2.600098-.9643554-.740563-.6429069-1.110839-1.5421492-1.110839-2.6977539 0-1.0253958.358069-1.8880174 1.074218-2.5878907.71615-.6998733 1.595047-1.0498046 2.636719-1.0498046 1.025396 0 1.888017.3499313 2.587891 1.0498046.699873.6998733 1.049804 1.5624949 1.049804 2.5878907 0 1.1393286-.366207 2.0345019-1.098632 2.6855468-.732426.651045-1.578772.9765625-2.539063.9765625zm9.558594-10.4707031c0-1.1751361.377275-2.3657166 1.131836-3.5717773s1.855461-2.2049114 3.302734-2.9965821c1.447273-.7916706 3.135733-1.1875 5.06543-1.1875 1.793629 0 3.376946.3308887 4.75.9926758 1.373054.6617872 2.433753 1.5616805 3.182129 2.6997071.748376 1.1380265 1.122558 2.3749933 1.122558 3.7109374 0 1.0514376-.213376 1.9729779-.640136 2.7646485s-.933917 1.4750948-1.521485 2.050293c-.587568.5751981-1.642082 1.5431247-3.163574 2.9038085-.420575.3834655-.757648.720539-1.01123 1.0112305-.253582.2906916-.44222.5566394-.565918.7978516-.123699.2412121-.219564.4824207-.287598.7236328s-.170084.6648733-.306152 1.2709961c-.235028 1.2864648-.971023 1.9296875-2.208008 1.9296875-.643233 0-1.184406-.2102844-1.623535-.6308594-.43913-.420575-.658692-1.0452432-.658692-1.8740234 0-1.0390677.160806-1.9389611.482422-2.6997071.321616-.7607459.74837-1.428708 1.280274-2.0039062.531903-.5751982 1.249344-1.2586223 2.152343-2.050293.791671-.6927118 1.363768-1.2153302 1.716309-1.5678711.352541-.3525408.649413-.7452778.890625-1.1782226.241212-.4329449.361816-.9029923.361816-1.4101563 0-.9895883-.367997-1.8245408-1.104004-2.5048828-.736006-.6803419-1.685378-1.0205078-2.848144-1.0205078-1.360684 0-2.362627.3432583-3.00586 1.0297852-.643232.6865268-1.187497 1.6977472-1.632812 3.0336914-.420575 1.3977934-1.218419 2.0966796-2.393555 2.0966796-.692711 0-1.277178-.2443009-1.753418-.7329101-.476239-.4886092-.714355-1.0174125-.714355-1.5864258zm9.054687 20.3359375c-.754561 0-1.413246-.2443009-1.976074-.7329101-.562828-.4886093-.844238-1.1720334-.844238-2.050293 0-.7793008.272133-1.4348932.816406-1.9667969.544274-.5319037 1.212236-.7978516 2.003906-.7978516.779301 0 1.434894.2659479 1.966797.7978516.531904.5319037.797852 1.1874961.797852 1.9667969 0 .8658897-.278318 1.5462215-.834961 2.0410156-.556644.4947942-1.199866.7421875-1.929688.7421875z" fill="#dc8900"/><path d="m12 .66666667c5 2 3 5.2795792 0 5s-2.60168457-3-12-3c4.66666667-2.66666667 8.66666667-3.33333334 12-2z" fill="#532a29" transform="translate(60 48)"/></g></svg>