<svg height="136" viewBox="0 0 136 136" width="136" xmlns="http://www.w3.org/2000/svg"><g fill="none" fill-rule="evenodd"><path d="m67.537423 135.939136c-23.595752-.206276-42.2287812-4.677245-55.8990877-13.41291l-.0000073.000012c-.707303-.451984-1.0571219-1.297531-.8758926-2.117118l1.578477-7.138468c.1565692-.708065-.0824014-1.44541-.6245415-1.927026l-6.19107903-5.49991c-.70813547-.629079-.87786882-1.668637-.40659997-2.490283l4.57678606-7.9795205c.45284714-.7895284.31549154-1.7852479-.33419998-2.4226854l-7.92366892-7.7742192c-.78844873-.7735776-.80050412-2.0398502-.02692646-2.8282989.00325785-.0033205.00652728-.0066296.00980822-.0099273l5.80151401-5.8310888c.59941563-.6024713.75262082-1.5179669.38201382-2.2827683l-5.41669609-11.1781397c-.38533568-.7951962-.20316063-1.749022.44811624-2.3462313l6.2863495-5.7644713c.63403044-.5813947.82526203-1.5030892.47486215-2.2887318l-4.33639151-9.7227601c-.42408606-.9508567-.04774553-2.0680269.86523771-2.5684658l7.58119935-4.1555274c.5445326-.2984779.9195332-.8329569 1.0149312-1.4465561l1.9104007-12.2876777c.150639-.9689084.9815007-1.6857167 1.9620244-1.6926949l10.5729439-.075246c.9533914-.0067852 1.7694412-.685603 1.9496967-1.6218236l2.0164158-10.47296772c.1812678-.94147843 1.0051601-1.62187419 1.96393-1.62187419h10.8731291c.475181 0 .934838-.16918736 1.296628-.47725387l6.8166681-5.80443619c.5130961-.43690463 1.2117219-.58603177 1.8584911-.3967095l11.719844 3.43063281c.3674565.10756187.7580657.10738881 1.1254267-.00049863l11.6755198-3.42889343c.6472042-.19007241 1.346617-.04110123 1.8601917.39621087l6.8157965 5.80369407c.36179.30806651.821447.47725387 1.296628.47725387h10.8731293c.95877 0 1.782662.68039576 1.96393 1.62187419l2.016416 10.47296772c.180255.9362206.996305 1.6150384 1.949696 1.6218236l10.572944.075246c.980524.0069782 1.811386.7237865 1.962025 1.6926949l1.9104 12.2876777c.095398.6135992.470399 1.1480782 1.014932 1.4465561l7.581199 4.1555274c.912983.5004389 1.289324 1.6176091.865238 2.5684658l-4.336392 9.7227601c-.3504.7856426-.159168 1.7073371.474862 2.2887318l6.28635 5.7644713c.651277.5972093.833452 1.5510351.448116 2.3462313l-5.416696 11.1781397c-.370607.7648014-.217402 1.680297.382014 2.2827683l5.801514 5.8310888c.77906.7830318.775841 2.0493577-.007191 2.828418-.003298.0032809-.006607.0065504-.009928.0098082l-7.923668 7.7742192c-.649692.6374375-.787048 1.633157-.3342 2.4226854l4.576786 7.9795205c.471268.821646.301535 1.861204-.4066 2.490283l-6.191079 5.49991c-.54214.481616-.781111 1.218961-.624542 1.927026l1.578813 7.139981c.180956.818354-.167533 1.662737-.872996 2.115253-14.262654 9.148707-33.2069905 13.61979-56.833011 13.41325z" fill="#8b6950" fill-rule="nonzero"/><path d="m95.1389895 26.2313388c0-10.1038977 3.9129031-12.5330861 7.8258065-12.5330861 3.912903 0 7.825806 2.4291884 7.825806 12.5330861z" fill="#f9d2b7" transform="matrix(.70710678 .70710678 -.70710678 .70710678 44.275137 -66.959637)"/><path d="m96.1793548 26.7932552c0-7.6853638 2.7399815-10.5761885 5.4028842-10.5761885 2.662904 0 5.248728 2.8908247 5.248728 10.5761885z" fill="#f395cd" transform="matrix(.70710678 .70710678 -.70710678 .70710678 44.936458 -65.476205)"/><path d="m25.1389895 26.2313388c0-10.1038977 3.9129031-12.5330861 7.8258062-12.5330861s7.8258062 2.4291884 7.8258062 12.5330861z" fill="#f9d2b7" transform="matrix(-.70710678 .70710678 .70710678 .70710678 42.157706 -17.462294)"/><path d="m29.1793548 26.7932552c0-7.6853638 2.7399815-10.5761885 5.4028846-10.5761885s5.2487278 2.8908247 5.2487278 10.5761885z" fill="#f395cd" transform="matrix(-.70710678 .70710678 .70710678 .70710678 43.697785 -18.100215)"/><path d="m123 80.625c0 26.71875-24.6277778 48.375-55 48.375-30.3844444 0-55-21.65625-55-48.375 0-2.4075.1967778-4.86.5866667-7.335.6331704-3.927395 1.7335122-8.029869 3.1166666-11.6775 7.9688889-21.15 27.9277778-40.6125 51.2966667-40.6125 23.3566667 0 43.329 19.4625 51.296667 40.6125 1.721268 4.2297341 2.65087 6.8567226 3.116666 11.6775.391111 2.475.586667 4.9275.586667 7.335z" fill="#d6b39c"/><path d="m111.093276 37.6840485c2.839977 4.2798451 3.014386 12.4282436-1.532941 16.2987995-10.1954765 8.6781013-24.2836475 15.017152-42 15.017152-18.0396197 0-31.8045235-6.3390507-42-15.017152-4.5473267-3.8705559-4.3729176-12.0189544-1.5329407-16.2987995 12.4355939-18.7404398 26.9465741-28.30178924 43.5329407-28.6840485 16.5863666.38225926 31.0973468 9.9436087 43.532941 28.6840485z" fill="#fbdbc5"/><path d="m63.8413111 39h6.3173778c1.1045695 0 2 .8954305 2 2 0 .4103442-.1262192.8107576-.3615362 1.1469247l-1.520225 2.17175c-1.266858 1.8097972-3.7609799 2.2499364-5.5707771.9830783-.3825653-.2677957-.7152826-.600513-.9830783-.9830783l-1.520225-2.17175c-.633429-.9048986-.4133595-2.1519595.4915391-2.7853885.3361671-.235317.7365805-.3615362 1.1469247-.3615362z" fill="#3e2c39" fill-rule="nonzero"/><path d="m99.5140973 100.277292c1.1366757-.8099042 2.5313277-1.2869109 4.0384617-1.2869109s2.901786.4770067 4.038461 1.2869109c1.136676-.8099042 2.531328-1.2869109 4.038462-1.2869109 3.82351 0 6.923077 3.0700469 6.923077 6.8571429 0 3.251909-2.285417 5.975115-5.352159 6.679849-.278048 1.096709-.417072 2.249074-.417072 3.457097v14.890526c0 6.691143-5.424242 12.115385-12.115385 12.115385-6.6911417 0-12.1153841-5.424242-12.1153841-12.115385v-25.598901h.0236964c.293164-3.519731 3.2701514-6.2857139 6.8993805-6.2857139 1.5071342 0 2.9017863.4770067 4.0384615 1.2869109z" fill="#c79f83" transform="matrix(.5 .8660254 -.8660254 .5 156.556914 -29.184529)"/><g fill="#b89379"><path d="m117.864412 129.359638c2.824893-.786824 4.903847-3.453225 4.903847-6.621478s-2.078954-5.834655-4.903847-6.621479c.551775-.153687 1.13201-.235664 1.73077-.235664 3.664196 0 6.634615 3.070047 6.634615 6.857143 0 3.787095-2.970419 6.857143-6.634615 6.857143-.59876 0-1.178995-.081978-1.73077-.235665z" transform="matrix(.5 .8660254 -.8660254 .5 167.317726 -44.326802)"/><path d="m113.998389 122.663489c2.824892-.786825 4.903846-3.453226 4.903846-6.621479s-2.078954-5.834654-4.903846-6.621478c.551775-.153688 1.132009-.235665 1.730769-.235665 3.664197 0 6.634615 3.070048 6.634615 6.857143 0 3.787096-2.970418 6.857143-6.634615 6.857143-.59876 0-1.178994-.081977-1.730769-.235664z" transform="matrix(.5 .8660254 -.8660254 .5 159.58582 -44.326748)"/><path d="m109.959927 115.668668c2.824892-.786824 4.903846-3.453225 4.903846-6.621478s-2.078954-5.834655-4.903846-6.621479c.551775-.153687 1.13201-.235664 1.730769-.235664 3.664197 0 6.634616 3.070047 6.634616 6.857143 0 3.787095-2.970419 6.857142-6.634616 6.857142-.598759 0-1.178994-.081977-1.730769-.235664z" transform="matrix(.5 .8660254 -.8660254 .5 151.508972 -44.327238)"/></g><path d="m89.9910218 109.492231h13.8461542c.637251 0 1.153846.516594 1.153846 1.153846v14.769231c0 4.460761-3.616162 8.076923-8.0769232 8.076923-4.4607615 0-8.0769231-3.616162-8.0769231-8.076923v-14.769231c0-.637252.5165945-1.153846 1.1538461-1.153846z" fill="#cfac94" fill-rule="nonzero" transform="matrix(.5 .8660254 -.8660254 .5 153.672158 -23.183986)"/><path d="m28.5140973 100.277292c1.1366753-.8099042 2.5313274-1.2869109 4.0384616-1.2869109s2.9017862.4770067 4.0384615 1.2869109c1.1366753-.8099042 2.5313274-1.2869109 4.0384616-1.2869109 3.8235098 0 6.9230769 3.0700469 6.9230769 6.8571429 0 3.251909-2.285417 5.975115-5.352159 6.679849-.2780478 1.096709-.4170718 2.249074-.4170718 3.457097v14.890526c0 6.691143-5.4242424 12.115385-12.1153846 12.115385s-12.1153846-5.424242-12.1153846-12.115385v-25.598901h.0236964c.293164-3.519731 3.2701514-6.2857139 6.8993805-6.2857139 1.5071342 0 2.9017863.4770067 4.0384615 1.2869109z" fill="#c79f83" transform="matrix(-.5 .8660254 .8660254 .5 -55.952169 32.304)"/><path d="m9.8753208 129.359638c2.8248923-.786824 4.9038461-3.453225 4.9038461-6.621478s-2.0789538-5.834655-4.9038461-6.621479c.5517751-.153687 1.1320094-.235664 1.7307692-.235664 3.6641969 0 6.6346154 3.070047 6.6346154 6.857143 0 3.787095-2.9704185 6.857143-6.6346154 6.857143-.5987598 0-1.1789941-.081978-1.7307692-.235665z" fill="#b89379" transform="matrix(-.5 .8660254 .8660254 .5 -85.207373 49.1945)"/><path d="m13.7413445 122.663489c2.8248923-.786825 4.9038462-3.453226 4.9038462-6.621479s-2.0789539-5.834654-4.9038462-6.621478c.5517751-.153688 1.1320095-.235665 1.7307693-.235665 3.6641969 0 6.6346153 3.070048 6.6346153 6.857143 0 3.787096-2.9704184 6.857143-6.6346153 6.857143-.5987598 0-1.1789942-.081977-1.7307693-.235664z" fill="#b89379" transform="matrix(-.5 .8660254 .8660254 .5 -73.609561 42.4985)"/><path d="m17.7798061 115.668668c2.8248922-.786824 4.9038461-3.453225 4.9038461-6.621478s-2.0789539-5.834655-4.9038461-6.621479c.5517751-.153687 1.1320094-.235664 1.7307692-.235664 3.6641969 0 6.6346154 3.070047 6.6346154 6.857143 0 3.787095-2.9704185 6.857142-6.6346154 6.857142-.5987598 0-1.1789941-.081977-1.7307692-.235664z" fill="#b89379" transform="matrix(-.5 .8660254 .8660254 .5 -61.493866 35.5035)"/><path d="m32.2679421 109.492231h13.8461538c.6372517 0 1.1538462.516594 1.1538462 1.153846v14.769231c0 4.460761-3.6161617 8.076923-8.0769231 8.076923-4.4607614 0-8.0769231-3.616162-8.0769231-8.076923v-14.769231c0-.637252.5165945-1.153846 1.1538462-1.153846z" fill="#cfac94" fill-rule="nonzero" transform="matrix(-.5 .8660254 .8660254 .5 -46.428488 26.8055)"/><path d="m13.1848695 76.6584867c.0964381-1.0769544.2304741-2.1601622.4017972-3.2477144.6331704-3.927395 1.7335122-8.029869 3.1166666-11.6775.2182098-.5791444.4454099-1.1570235.681424-1.7332723 16.9381673 8.5160261 23.8875633 15.5156281 20.8481882 20.998806-2.7939921 5.040495-11.1433507 3.5937219-25.048076-4.3403193z" fill="#c79f83"/><path d="m97.1848695 76.6584867c.0964381-1.0769544.2304741-2.1601622.4017972-3.2477144.6331704-3.927395 1.7335122-8.029869 3.1166663-11.6775.21821-.5791444.44541-1.1570235.681424-1.7332723 16.938168 8.5160261 23.887564 15.5156281 20.848188 20.998806-2.793992 5.040495-11.14335 3.5937219-25.0480755-4.3403193z" fill="#c79f83" transform="matrix(-1 0 0 1 220.111 0)"/><path d="m46.4675812 22.9269965c0 2.935088 7.6016467 3.8142627 11.40247 1.5381423.7791523-.4665947-2.3844369-2.7542932-5.7706134-3.3316652-2.6455996-.4510973-5.6318566.5061628-5.6318566 1.7935229z" fill="#3e2c39" transform="matrix(-.98768834 .15643447 .15643447 .98768834 100.155445 -7.882405)"/><path d="m77.9490627 22.9269965c0 2.935088 7.6016467 3.8142627 11.40247 1.5381423.7791523-.4665947-2.3844369-2.7542932-5.7706134-3.3316652-2.6455996-.4510973-5.6318566.5061628-5.6318566 1.7935229z" fill="#3e2c39" transform="matrix(.98768834 .15643447 -.15643447 .98768834 4.689142 -12.807196)"/><path d="m58.6175425 50.2194888c3.3953559 7.1318618 6.5228417 10.6977927 9.3824575 10.6977927 2.8508013 0 5.9678238-3.5439815 9.3510675-10.6319445l.0000235.0000112c.299591-.627649.0336474-1.3793256-.5940017-1.6789166-.1202652-.0574053-.2488802-.095357-.3810442-.1124385-3.3122814-.4280942-6.1042964-.6421412-8.3760451-.6421412-3.1342738 0-5.947366.1940311-8.4392767.5820935l.000006.000038c-.687166.1070116-1.157474.7508196-1.0504625 1.4379856.018753.1204209.0548884.2374815.1072757.3475198z" fill="#fff"/><path d="m62.5 54.2734073v2.706971c-.1659394-.2254371-.332606-.4605561-.5-.7053569v-2.0612604c-.4525713-.0553196-.9191087-.1158781-1.3996124-.1816757-.0757375-.1317366-.151617-.2653636-.2276385-.4008811.5600603.0785841 1.1024773.1500096 1.6272509.2142764v-5.7193909c.1654546-.0163626.3321213-.031993.5-.0468912v5.8259694c2.1397576.2486725 3.9730909.373016 5.5.3730303v-6.4263463c.1639567 0 .3306234.0011149.5.0033447v6.4186949c1.606804-.0272839 3.4401373-.1842051 5.5-.4707635v-5.5889543c.1651447.0173924.3318114.0354109.5.0540556v5.4634474c.3833117-.0562027.7741981-.1167402 1.1726591-.1816126-.0767212.137422-.153298.2729215-.2297304.4064984-.3196763.05053-.6339859.0983058-.9429287.1433274v1.4185087c-.1673815.2617233-.3340481.5139309-.5.7566228v-2.1040224c-2.0880274.2894858-3.9213608.4482642-5.5.4763351v6.2339996c-.1675668.0239652-.3342335.0359478-.5.0359478v-6.265426c-1.4970847-.0000149-3.330418-.1261643-5.5-.3784482z" fill="#e5e5e5"/><path d="m54.148 30.222 5.037 3.778-5.037 3.778" stroke="#30353d" stroke-linecap="round" stroke-linejoin="round" stroke-width="2.519"/><path d="m81.852 30.222-5.037 3.778 5.037 3.778" stroke="#30353d" stroke-linecap="round" stroke-linejoin="round" stroke-width="2.519"/></g></svg>