<svg fill="none" height="1059" viewBox="0 0 869 1059" width="869" xmlns="http://www.w3.org/2000/svg"><g stroke="#37352f"><path d="m119.122 1009.81-93.8149-71.478 79.1769-69.509-92.484-129.184 92.484-60.985-92.484-154.101 107.122-24.919-65.87-154.102h93.815l-42.583-170.496 119.764 24.919 19.295-130.4948 74.52 69.5098 53.894-121.97 65.87 97.051 66.535-97.051 38.591 109.511 141.055-12.46-53.228 85.904 97.807 34.099-55.225 60.985 134.402 50.493-79.177 67.543 113.775 40.001-85.831 71.477 85.831 91.149-75.185 69.51 89.823 80.002-89.823 76.067 75.185 73.444-85.831 74.1" stroke-width="15"/><path d="m125.739 1056.24c-48.3172-303.463-54.34-910.398 308.107-910.398" stroke-width="30"/><path d="m741.953 1055.59c48.317-303.466 54.34-910.401-308.107-910.401" stroke-width="30"/><path d="m346.861 622.627c1.356-14.825 16.596-44.474 66.71-44.474" stroke-width="15"/></g><circle cx="327.24" cy="477.433" fill="#37352f" r="40.5495"/><ellipse cx="326.586" cy="468.277" fill="#fff" rx="20.2748" ry="19.6207"/><circle cx="475.05" cy="477.433" fill="#37352f" r="40.5495"/><ellipse cx="474.396" cy="468.277" fill="#fff" rx="20.2748" ry="19.6207"/></svg>