<svg xmlns="http://www.w3.org/2000/svg" fill="none" viewBox="0 0 105 80" height="80" width="105">
<path fill="#FF504A" d="M0 8.99036C0 1.99421 7.58137 -1.9544 13.2881 1.20548L13.3142 1.21993L67.101 32.0011L67.1219 32.0134C73.1759 35.5705 73.1753 44.1589 67.1222 47.7161L67.1073 47.7249L13.3653 78.7203C7.05222 82.4143 0 77.5815 0 70.9792V8.99036ZM8.50154 8.80959C8.48205 8.84132 8.45942 8.88807 8.45942 8.99036V70.9792C8.45942 71.2626 8.58672 71.4082 8.69353 71.4727C8.74725 71.5051 8.79071 71.5136 8.82271 71.5141C8.84238 71.5143 8.9301 71.5148 9.09625 71.4171L9.11112 71.4084L62.8458 40.4172C63.0132 40.3167 63.0903 40.2165 63.1309 40.1442C63.1773 40.0616 63.2028 39.9658 63.2028 39.8647C63.2028 39.7636 63.1773 39.6679 63.131 39.5853C63.0907 39.5137 63.0145 39.4145 62.8497 39.3149L9.1788 8.60002C9.07284 8.54623 8.8985 8.52196 8.68682 8.64237C8.587 8.69916 8.52924 8.76451 8.50154 8.80959Z" clip-rule="evenodd" fill-rule="evenodd"></path>
<path fill="#0086FF" d="M32.7109 8.98981C32.7109 1.97554 39.9215 -1.73272 45.6559 0.794521L45.8652 0.886759L99.8182 32.0041L99.8331 32.0128C105.886 35.5701 105.887 44.1585 99.8328 47.7156L99.8181 47.7243L46.0765 78.7199C39.7638 82.4135 32.7109 77.5819 32.7109 70.9789V8.98981ZM41.2275 8.72541C41.2049 8.76414 41.1704 8.83826 41.1704 8.98981V70.9789C41.1704 71.2622 41.2976 71.4078 41.4044 71.4722C41.4581 71.5046 41.5016 71.5132 41.5337 71.5136C41.5535 71.5139 41.6412 71.5143 41.8074 71.4167L41.8221 71.408L95.5568 40.4164C95.7243 40.316 95.8014 40.2158 95.8419 40.1437C95.8883 40.0611 95.9137 39.9653 95.9137 39.8643C95.9137 39.7632 95.8883 39.6674 95.8418 39.5847C95.8013 39.5125 95.7242 39.4123 95.5567 39.3118L42.1076 8.48513C41.8209 8.40005 41.5721 8.45532 41.4044 8.55652C41.3096 8.61373 41.2561 8.67653 41.2275 8.72541Z" clip-rule="evenodd" fill-rule="evenodd"></path>
</svg>
