<svg xmlns="http://www.w3.org/2000/svg" fill="none" viewBox="0 0 81 80" height="80" width="81">
<g clip-path="url(#clip0_3329_978)">
<path fill="#D86613" d="M80.252 0H0.251953V80H80.252V0Z"></path>
<path fill="white" d="M64.7845 66.6666H51.6432C51.4421 66.666 51.2453 66.6086 51.0755 66.501C50.9056 66.3935 50.7696 66.2401 50.6832 66.0586L32.1018 27.1999H24.2405C23.9576 27.1999 23.6863 27.0875 23.4862 26.8875C23.2862 26.6875 23.1738 26.4161 23.1738 26.1332V14.3999C23.1738 14.117 23.2862 13.8457 23.4862 13.6457C23.6863 13.4456 23.9576 13.3333 24.2405 13.3333H40.6672C40.8682 13.3338 41.065 13.3912 41.2349 13.4988C41.4047 13.6063 41.5407 13.7597 41.6272 13.9413L60.1232 52.7999H64.7845C65.0674 52.7999 65.3387 52.9123 65.5387 53.1123C65.7388 53.3124 65.8512 53.5837 65.8512 53.8666V65.5999C65.8512 65.8828 65.7388 66.1541 65.5387 66.3542C65.3387 66.5542 65.0674 66.6666 64.7845 66.6666ZM52.3152 64.5332H63.7178V54.9332H59.4512C59.2501 54.9327 59.0533 54.8753 58.8835 54.7677C58.7136 54.6601 58.5776 54.5068 58.4912 54.3252L39.9952 15.4666H25.3178V25.0666H32.7845C32.9855 25.0672 33.1823 25.1245 33.3522 25.2321C33.522 25.3397 33.658 25.4931 33.7445 25.6746L52.3152 64.5332Z"></path>
<path fill="white" d="M29.5636 66.6665H15.6969C15.5156 66.6669 15.3373 66.621 15.1786 66.5333C15.02 66.4456 14.8863 66.3189 14.7903 66.1652C14.6884 66.0078 14.6298 65.8263 14.6205 65.639C14.6111 65.4517 14.6513 65.2653 14.7369 65.0985L29.2436 34.7945C29.33 34.613 29.466 34.4596 29.6359 34.352C29.8057 34.2445 30.0025 34.1871 30.2036 34.1865V34.1865C30.4035 34.1861 30.5995 34.2419 30.7692 34.3475C30.939 34.4531 31.0756 34.6043 31.1636 34.7839L38.1076 49.0665C38.1775 49.2112 38.2138 49.3698 38.2138 49.5305C38.2138 49.6912 38.1775 49.8498 38.1076 49.9945L30.5342 65.9945C30.4566 66.1897 30.323 66.3575 30.1504 66.4771C29.9777 66.5966 29.7736 66.6625 29.5636 66.6665ZM17.4036 64.5332H28.8916L35.9636 49.5999L30.2142 37.7065L17.4036 64.5332Z"></path>
</g>
<defs>
<clipPath id="clip0_3329_978">
<rect transform="translate(0.251953)" fill="white" height="80" width="80"></rect>
</clipPath>
</defs>
</svg>
