<svg xmlns="http://www.w3.org/2000/svg" fill="none" viewBox="0 0 99 80" height="80" width="99">
<path fill="#002C97" d="M74.8462 20.2333C78.4833 20.2333 81.7246 20.9347 84.5677 22.3449C87.4103 23.7499 89.8838 25.8021 91.7893 28.3366C93.7606 30.9192 95.2561 33.9826 96.2831 37.5195C97.3051 41.0565 97.8161 44.9541 97.8161 49.2174C97.8161 53.9316 97.2099 58.1548 95.9975 61.8821C94.7826 65.6094 93.1169 68.7656 90.9927 71.3506C88.9256 73.8928 86.2989 75.9228 83.3177 77.2822C80.3244 78.6549 77.0806 79.3362 73.5937 79.3362C69.0574 79.3362 65.2775 78.1639 62.2466 75.8143V63.9061C64.4509 66.1304 67.0961 67.2426 70.1846 67.2426C73.8968 67.2426 76.9303 65.6645 79.2824 62.5084C81.6294 59.3522 82.8067 55.2642 82.8067 50.2419C82.8067 38.6793 78.5584 32.9005 70.0694 32.9005C66.8255 32.9005 64.2179 33.8374 62.2466 35.7135V24.6344C65.761 21.6986 69.9617 20.2333 74.8462 20.2333ZM59.3083 0.0188014V78.5472H44.4619V0.0162964H59.3109L59.3083 0.0188014Z" clip-rule="evenodd" fill-rule="evenodd"></path>
<path fill="#2160D4" d="M37.0799 78.5472H22.2309V19.4468H37.0799V78.5472Z"></path>
<path fill="#2790FF" d="M14.849 78.5472H0V37.6323H14.849V78.5472Z"></path>
</svg>
