<svg xmlns="http://www.w3.org/2000/svg" fill="none" viewBox="0 0 81 80" height="80" width="81">
<g clip-path="url(#clip0_3329_1969)">
<path fill="#173361" d="M56.9422 41.7895C58.9763 41.6802 61.0103 41.6151 63.0443 41.4663V39.9042C61.0103 39.7554 58.9763 39.6903 56.9422 39.5788L50.8401 39.3905C47.2602 39.2812 43.6803 39.251 40.0958 39.2277C40.0888 35.6478 40.0726 32.0633 39.9772 28.4811L39.8052 22.379C39.7006 20.3449 39.6425 18.3109 39.4984 16.2769H37.7735C37.6294 18.3109 37.5713 20.3449 37.4667 22.379L37.297 28.4811C37.2505 30.1618 37.2296 31.8448 37.2133 33.5255C36.5508 31.9796 35.8883 30.4337 35.2025 28.8972L32.7105 23.3251C31.8341 21.4886 31.0019 19.629 30.0907 17.8041L28.5006 18.4667C29.1446 20.3984 29.8698 22.3023 30.551 24.2201L32.7291 29.9247C33.3289 31.4938 33.9519 33.0536 34.5795 34.6157C33.3805 33.4363 32.1717 32.267 30.9531 31.1079L26.5178 26.9143C25.0068 25.5497 23.526 24.1526 21.9848 22.816L20.769 24.0341C22.1033 25.5753 23.5004 27.0561 24.865 28.5671L29.0586 33.0024C30.2162 34.2229 31.3901 35.427 32.5664 36.6288C31.0042 36.0012 29.4444 35.3782 27.873 34.7784L22.1707 32.6003C20.2529 31.9192 18.3491 31.1939 16.415 30.5477L15.7548 32.14C17.5796 33.0513 19.437 33.8835 21.2758 34.7598L26.8478 37.2518C28.3821 37.9376 29.928 38.6001 31.4738 39.2603C29.7931 39.2789 28.1124 39.2998 26.4294 39.344L20.3296 39.516C18.2956 39.6206 16.2616 39.6787 14.2275 39.8228V41.5477C16.2616 41.6918 18.2956 41.7499 20.3296 41.8546L26.4317 42.0243C30.0163 42.1219 33.5985 42.1382 37.1807 42.1451C37.204 45.725 37.2319 49.3073 37.3411 52.8895L37.5318 58.9916C37.641 61.0256 37.7061 63.0596 37.8549 65.0937H39.417C39.5658 63.0596 39.6309 61.0256 39.7425 58.9916L39.9307 52.8895C39.9842 51.1669 40.0121 49.4444 40.0377 47.7219C40.7165 49.3049 41.4022 50.8857 42.1112 52.4571L44.6218 58.0199C45.5005 59.8563 46.3374 61.7114 47.2556 63.5362L48.6969 62.9341C48.0576 61 47.3416 59.0962 46.6628 57.1737L44.5009 51.4668C43.8919 49.8535 43.2596 48.2519 42.6227 46.6502C43.857 47.852 45.0937 49.0492 46.3513 50.2301L50.7983 54.4121C52.3139 55.772 53.797 57.1644 55.3429 58.4988L56.4494 57.3922C55.1151 55.8487 53.7227 54.3633 52.3628 52.8476L48.1808 48.3983C46.9987 47.1462 45.8062 45.9041 44.6032 44.672C46.2025 45.3112 47.8042 45.9412 49.4152 46.5526L55.1267 48.7122C57.0469 49.3909 58.9507 50.1069 60.8871 50.7485L61.4869 49.3026C59.662 48.389 57.8093 47.5475 55.9706 46.6688L50.4078 44.1582C48.8363 43.4516 47.2556 42.7681 45.6749 42.0847C47.3951 42.0614 49.1176 42.0335 50.8401 41.9801L56.9422 41.7895Z" clip-rule="evenodd" fill-rule="evenodd"></path>
<path fill="#173361" d="M39.7986 79.0413C18.0077 79.0413 0.280273 61.3139 0.280273 39.523C0.280273 17.7321 18.0077 0.00460052 39.7986 0.00460052C61.5895 0.00460052 79.317 17.7321 79.317 39.523C79.317 61.3139 61.5895 79.0413 39.7986 79.0413ZM39.7986 3.70073C20.0464 3.70073 3.9764 19.7684 3.9764 39.523C3.9764 59.2775 20.0464 75.3452 39.7986 75.3452C59.5508 75.3452 75.6209 59.2752 75.6209 39.523C75.6209 19.7708 59.5508 3.70073 39.7986 3.70073Z" clip-rule="evenodd" fill-rule="evenodd"></path>
</g>
<defs>
<clipPath id="clip0_3329_1969">
<rect transform="translate(0.217773 0.000244141)" fill="white" height="80" width="80"></rect>
</clipPath>
</defs>
</svg>
