<svg xmlns="http://www.w3.org/2000/svg" fill="none" viewBox="0 0 82 81" height="81" width="82">
<g clip-path="url(#clip0_3329_2193)">
<path fill="black" d="M79.933 34.5816C80.1069 34.312 80.2024 33.9993 80.2088 33.6785C76.9217 14.8852 60.3179 0.607239 40.4211 0.607239C18.0677 0.607239 -0.0896842 18.6804 0.000333264 40.906C0.180368 62.5015 18.5207 80.5718 40.2382 80.5718C58.7614 80.6589 74.3635 68.3759 79.2012 51.6588C79.3842 51.1158 79.0183 50.4827 78.4695 50.2127L76.8288 49.5797C73.6298 48.4593 70.2181 48.0805 66.8512 48.4718C63.4844 48.8632 60.2505 50.0145 57.3938 51.8388C54.7455 53.555 52.829 54.911 52.829 54.911C49.5477 57.0802 45.5318 58.4333 41.3329 58.4333C29.9268 58.4333 21.9878 49.2196 20.7102 38.0139L19.8042 31.8753C19.5312 29.9762 18.2536 28.4401 16.4271 27.717L14.1476 26.814C13.7817 26.6339 13.5988 26.1809 13.8746 25.8209C23.6372 12.899 35.5892 15.7011 35.5892 15.7011C37.5245 15.89 39.3786 16.5741 40.9728 17.6873C43.0752 19.1605 44.7197 21.1965 45.7176 23.5617C47.5865 27.7854 50.6427 31.3749 54.5144 33.8933C58.3861 36.4117 62.9064 37.7505 67.5251 37.7467C67.5251 37.7467 76.8317 38.1097 79.933 34.5816Z"></path>
<path fill="black" d="M24.8187 24.9147C25.129 24.9163 25.4365 24.8566 25.7237 24.7392C26.0109 24.6218 26.2721 24.4489 26.4924 24.2305C26.7128 24.012 26.8879 23.7523 27.0078 23.4661C27.1277 23.1799 27.1899 22.8729 27.1911 22.5627C27.1872 21.937 26.9352 21.3385 26.4904 20.8986C26.0456 20.4587 25.4443 20.2133 24.8187 20.2164C24.5087 20.2149 24.2014 20.2744 23.9144 20.3916C23.6274 20.5089 23.3663 20.6815 23.146 20.8996C22.9257 21.1178 22.7505 21.3772 22.6304 21.663C22.5104 21.9489 22.4478 22.2555 22.4463 22.5656C22.4463 23.8607 23.5091 24.9147 24.8187 24.9147Z"></path>
</g>
<defs>
<clipPath id="clip0_3329_2193">
<rect transform="translate(0 0.572266)" fill="white" height="80" width="81.0525"></rect>
</clipPath>
</defs>
</svg>
