<svg xmlns="http://www.w3.org/2000/svg" fill="none" viewBox="0 0 75 80" height="80" width="75">
<g opacity="0.9">
<path fill="#00C8FF" d="M52.1046 1.83121C61.7303 4.85447 69.788 11.4184 74.7514 19.9967L57.428 29.9983C56.0732 27.6569 54.2574 25.6155 52.1046 23.9985C48.7619 21.4878 44.607 20 40.1046 20C34.5817 20 29.5817 22.2386 25.9624 25.8579H11.8203V11.7157C19.0589 4.47715 29.0589 0 40.1046 0C44.2854 0 48.3164 0.641415 52.1046 1.83121Z" clip-rule="evenodd" fill-rule="evenodd"></path>
<path fill="#0064FF" d="M57.4276 50L70.7173 47.6L74.751 60.0016C72.9948 63.037 70.8511 65.8201 68.3877 68.2834C61.1499 75.5228 51.1499 80 40.1042 80C31.2688 80 23.1025 77.1354 16.4834 72.2842H29.9621V57.2413C32.9357 58.9943 36.4025 60 40.1042 60C44.6066 60 48.7616 58.5122 52.1042 56.0014C54.257 54.3828 56.0728 52.3414 57.4276 50Z" clip-rule="evenodd" fill-rule="evenodd"></path>
<path fill="#0096FF" d="M22.8631 29.8578C21.1101 32.8315 20.1045 36.2983 20.1045 40C20.1045 45.5228 22.3431 50.5228 25.9624 54.1421V68.2842H11.8202C4.58164 61.0457 0.104492 51.0457 0.104492 40C0.104492 31.1646 2.9691 22.9983 7.82022 16.3792L7.82022 29.8578H22.8631Z" clip-rule="evenodd" fill-rule="evenodd"></path>
</g>
</svg>
