<svg xmlns="http://www.w3.org/2000/svg" fill="none" viewBox="0 0 85 80" height="80" width="85">
<path fill="#BC2330" d="M32.0178 29.9686H0.973834C0.412799 29.9686 0.0387537 30.5296 0.599788 30.9036L25.6593 49.0438L18.9269 78.5916C18.9269 79.1526 19.488 79.5266 19.862 79.1526L41.9293 60.8255L65.1187 79.1526C65.6798 79.5266 66.2408 79.1526 66.0538 78.4046L58.1994 49.0438L83.2589 30.9036C83.8199 30.5296 83.4459 29.7816 82.8848 29.7816H51.8409L42.4903 0.420776C42.3033 -0.140259 41.5553 -0.140259 41.3683 0.420776L32.0178 29.9686Z"></path>
<path fill="#BC2330" d="M42.1173 60.8257L20.05 79.1528C19.8629 79.3398 19.4889 79.1528 19.3019 79.1528C19.1149 79.1528 41.9303 44.5557 41.9303 44.5557V60.8257H42.1173Z"></path>
<path fill="#6E1710" d="M42.1173 60.8257L20.05 79.1528C19.8629 79.3398 19.4889 79.1528 19.3019 79.1528C19.1149 79.1528 41.9303 44.5557 41.9303 44.5557V60.8257H42.1173Z"></path>
<path fill="#981C20" d="M42.1172 60.8257L65.3066 79.1528C65.4936 79.3398 65.8676 79.1528 66.2417 79.1528L42.1172 44.7427V61.0127V60.8257Z"></path>
<path fill="#6E1710" d="M37.6289 12.2026L41.3691 0.607908C41.3691 0.233885 41.7431 0.046875 41.9301 0.046875V19.4961L37.6289 12.2026Z"></path>
<g style="mix-blend-mode:multiply">
<path fill="#ED3B78" d="M41.9287 44.5556L0.412109 30.1558C0.412109 29.9688 0.786167 29.7817 0.973178 29.7817H32.0171L41.9287 44.5556Z"></path>
</g>
<path fill="#670B26" d="M25.8455 49.0439L0.785968 30.9038C0.598956 30.7168 0.411933 30.3428 0.598945 30.1558L42.1155 44.5556L26.0325 49.0439H25.8455Z"></path>
<g style="mix-blend-mode:multiply">
<path fill="#BC2330" d="M58.3867 49.0439L83.6332 30.9038C83.8202 30.7168 84.0072 30.3428 83.6332 30.1558L41.9297 44.5556L58.1997 49.0439H58.3867Z"></path>
</g>
<path fill="#891732" d="M58.3867 49.0439L53.5244 61.0127L41.9297 44.5557L58.3867 49.0439Z"></path>
<path fill="#ED3B78" d="M53.5234 61.0127L62.5 64.5659L58.3857 49.0439L53.5234 61.0127Z"></path>
<path fill="#E71B52" d="M27.5293 66.249L42.1162 60.8257L41.9292 44.5557L27.5293 66.249Z"></path>
<path fill="#891732" d="M25.8467 49.0439L23.9766 56.7114L41.9297 44.5557L25.8467 49.0439Z"></path>
<path fill="#670B26" d="M48.6621 65.875L41.9297 44.5557L42.1167 60.8257L48.6621 65.875Z"></path>
<path fill="#ED3B78" d="M77.0869 32.3999L52.0273 29.9688L58.9468 38.5713L77.0869 32.3999Z"></path>
<path fill="#ED3B78" d="M22.1055 37.6362L41.9287 44.5557L25.8457 49.0439L22.1055 37.6362Z"></path>
<path fill="#C61F46" d="M32.0176 29.9687L41.9292 19.4961V44.5556L32.0176 29.9687Z"></path>
<path fill="#E71B52" d="M41.9292 19.4961L37.6279 12.2026L32.0176 29.9687L41.9292 19.4961Z"></path>
<path fill="#891732" d="M22.106 37.6362L12.5684 39.3193L25.8462 49.0439L22.106 37.6362Z"></path>
<path fill="#ED3B78" d="M49.5972 21.9272L52.0283 29.9687L41.9297 44.5556L49.5972 21.9272Z"></path>
<path fill="#670B26" d="M41.9287 44.5556L25.8457 29.7817L32.0171 29.9688L41.9287 44.5556Z"></path>
<path fill="#ED3B78" d="M41.9297 44.5557H64.3711L58.3867 49.0439L41.9297 44.5557Z"></path>
<g opacity="0.9" style="mix-blend-mode:overlay">
<path fill="#BC2330" d="M32.0178 29.9686H0.973834C0.412799 29.9686 0.0387537 30.5296 0.599788 30.9036L25.6593 49.0438L18.9269 78.5916C18.9269 79.1526 19.488 79.5266 19.862 79.1526L41.9293 60.8255L65.1187 79.1526C65.6798 79.5266 66.2408 79.1526 66.0538 78.4046L58.1994 49.0438L83.2589 30.9036C83.8199 30.5296 83.4459 29.7816 82.8848 29.7816H51.8409L42.4903 0.420776C42.3033 -0.140259 41.5553 -0.140259 41.3683 0.420776L32.0178 29.9686Z"></path>
</g>
</svg>
