<svg xmlns="http://www.w3.org/2000/svg" fill="none" viewBox="0 0 81 80" height="80" width="81">
<path fill="#FF5100" d="M80.3025 49.7326C79.8998 54.4751 77.7206 58.8905 74.2014 62.0949C70.6821 65.2993 66.0823 67.0563 61.323 67.014H50.8343L30.8558 80V67.014L50.8343 54.028H61.323C62.8047 54.0608 64.2443 53.5341 65.3551 52.5529C66.4658 51.5718 67.1661 50.2081 67.3165 48.7337C68.0157 38.7445 67.9159 28.7552 67.2166 18.766C67.0782 17.4548 66.4812 16.2347 65.5308 15.3209C64.5804 14.4071 63.3378 13.8583 62.0222 13.7714C47.9173 12.9083 33.7728 12.9083 19.6679 13.7714C18.3346 13.8354 17.0682 14.374 16.0973 15.2899C15.1264 16.2059 14.515 17.4388 14.3736 18.766C13.6743 28.7552 13.6743 38.7445 14.2737 48.7337C14.424 50.2081 15.1244 51.5718 16.2351 52.5529C17.3459 53.5341 18.7855 54.0608 20.2672 54.028H30.8558V67.014H20.3671C15.6077 67.0563 11.008 65.2993 7.48872 62.0949C3.96944 58.8905 1.79031 54.4751 1.38757 49.7326C0.688327 39.144 0.688327 28.4556 1.48747 17.7671C1.85706 13.3532 3.79137 9.21648 6.94167 6.1028C10.092 2.98913 14.251 1.10334 18.6689 0.78539C33.4011 -0.261797 48.1891 -0.261797 62.9212 0.78539C67.3569 1.08045 71.5398 2.95613 74.7106 6.07196C77.8814 9.18779 79.83 13.3372 80.2026 17.7671C80.9019 28.4556 81.0017 39.144 80.3025 49.7326Z"></path>
</svg>
