<svg xmlns="http://www.w3.org/2000/svg" fill="none" viewBox="0 0 121 80" height="80" width="121">
<path fill="#182B52" d="M46.2623 79.9816C44.6813 74.4936 40.5316 69.89 35.9961 66.5541C29.9164 62.1949 21.9976 63.1169 15.2788 60.5794C9.80667 56.5136 15.0407 52.0278 18.7205 49.2436C26.9413 42.1125 25.9311 28.8131 19.3844 20.9294C15.0111 15.2783 5.76287 11.4853 1.2028 9.87669C-5.66991 3.00365 19.5208 -3.01051 11.2041 1.66269C8.3913 2.86733 5.50986 5.11765 10.7038 6.47446C16.7739 8.35509 31.1488 20.0995 32.8106 31.7536C34.0857 37.9377 32.3625 44.9324 30.0704 50.68C45.0366 55.4127 51.4643 66.0678 58.6078 79.8524C58.5787 79.8285 55.2211 80.057 46.2623 79.9816Z"></path>
<path fill="#182B52" d="M74.3422 79.9924C75.9235 74.504 80.0728 69.9008 84.6084 66.5644C90.688 62.2061 98.6068 63.1273 105.326 60.5897C110.799 56.5239 105.565 52.0381 101.885 49.2543C93.6641 42.1228 94.6738 28.8243 101.22 20.9393C105.593 15.2882 114.842 11.4952 119.402 9.88701C126.275 3.0144 101.084 -2.99976 109.402 1.67344C112.213 2.87808 115.096 5.12743 109.901 6.48435C103.831 8.36616 89.4551 20.1109 87.7935 31.7649C86.5179 37.9482 88.2416 44.943 90.5337 50.6919C75.5675 55.4238 69.1398 66.0793 61.9976 79.8632C62.0257 79.8398 65.3831 80.0683 74.3422 79.9924Z"></path>
</svg>
