<svg xmlns="http://www.w3.org/2000/svg" fill="none" viewBox="0 0 80 80" height="80" width="80">
<path fill="#5850EC" d="M67.2 0H12.8C9.40523 0 6.1495 1.34857 3.74903 3.74903C1.34857 6.1495 0 9.40523 0 12.8L0 67.2C0 70.5948 1.34857 73.8505 3.74903 76.251C6.1495 78.6514 9.40523 80 12.8 80H67.2C70.5948 80 73.8505 78.6514 76.251 76.251C78.6514 73.8505 80 70.5948 80 67.2V12.8C80 11.1191 79.6689 9.45462 79.0256 7.90165C78.3824 6.34868 77.4395 4.93762 76.251 3.74903C75.0624 2.56044 73.6513 1.6176 72.0983 0.974342C70.5454 0.331082 68.8809 0 67.2 0Z"></path>
<path fill="white" d="M56.6433 34.1499C56.6433 47.1765 49.6166 58.8265 35.4366 64.9432L23.9966 56.8232C33.3132 53.2965 40.3199 47.7832 42.9199 40.4332L42.3166 39.9732C41.0899 41.2065 39.8832 41.6665 37.5932 41.6665C31.6466 41.6665 24.9332 37.6799 24.9332 28.7999C24.9332 19.4499 31.1932 14.3965 40.1966 14.3965C51.3033 14.3765 56.6466 23.1232 56.6466 34.1465L56.6433 34.1499Z"></path>
</svg>
