<svg xmlns="http://www.w3.org/2000/svg" fill="none" viewBox="0 0 96 80" height="80" width="96">
<path fill="#3569F3" d="M95.844 2.38672C95.8428 2.2326 95.8273 2.07893 95.7981 1.92759C95.7981 1.88168 95.7751 1.84035 95.7613 1.79444C95.7476 1.74853 95.7016 1.58783 95.6649 1.48682L95.5962 1.3399C95.5535 1.25226 95.5042 1.16787 95.4493 1.08737C95.417 1.03687 95.3851 0.986364 95.3483 0.93586L95.2838 0.848627C95.2471 0.807305 95.2059 0.775165 95.1692 0.738433L95.0772 0.628242L95.0037 0.577738C94.9366 0.520198 94.8661 0.466546 94.7926 0.41704L94.6135 0.302257C94.5346 0.26088 94.4534 0.224088 94.3704 0.192065L94.1775 0.114012C94.0903 0.0864639 93.9983 0.0726899 93.9111 0.0543246L93.7137 0.0130026C93.605 0.00608248 93.4963 0.00608248 93.3877 0.0130026H93.204C91.9737 0.123194 75.7158 1.67507 57.4422 9.82469C46.4688 14.7053 37.9748 22.1983 32.6305 31.2937L31.2533 31.8906C11.6895 40.6232 0 57.5975 0 77.2988V77.6293C0.000464608 78.0829 0.130314 78.527 0.374298 78.9092C0.618285 79.2914 0.966276 79.596 1.3774 79.7874C1.69293 79.9319 2.03582 80.0072 2.3829 80.0078H67.3272C67.4535 80.0084 67.5795 79.9976 67.7037 79.9755L67.8692 79.9343C67.9471 79.9113 68.0253 79.8976 68.1033 79.8701C68.1812 79.8427 68.2179 79.8149 68.2777 79.7874C68.3374 79.7599 68.4153 79.7325 68.4798 79.6957C68.6011 79.6241 68.716 79.5426 68.8241 79.4524L94.9948 57.3864C95.2623 57.1616 95.4767 56.8803 95.6228 56.5626C95.7688 56.2451 95.8428 55.8993 95.8396 55.5497V2.38672H95.844ZM72.1802 70.3889L69.6689 72.5055V25.5592L91.083 7.51065V54.457L72.1802 70.3889ZM29.4259 57.9418H64.9075V75.2467H8.89342L29.4259 57.9418ZM59.3751 14.1773C67.7387 10.4948 76.4874 7.75823 85.4586 6.01846L66.3173 22.157C57.4819 23.2351 48.7917 25.2813 40.4037 28.2589C45.1421 22.4738 51.533 17.6759 59.3751 14.1773ZM35.8538 35.1046C45.1749 31.2677 54.933 28.5922 64.9075 27.1386V53.1808H30.987C31.2315 46.8663 32.8948 40.688 35.8538 35.1046ZM29.3202 38.1442C27.3142 43.3496 26.2478 48.8697 26.1706 54.4478L5.05046 72.2713C6.64824 57.7905 15.2478 45.6784 29.3202 38.1442Z" clip-rule="evenodd" fill-rule="evenodd"></path>
</svg>
