<svg xmlns="http://www.w3.org/2000/svg" fill="none" viewBox="0 0 81 80" height="80" width="81">
<path fill="#315EFB" d="M0.333008 40.0078C0.333008 17.9164 18.2416 0.0078125 40.333 0.0078125H80.333V40.0078C80.333 62.0992 62.4244 80.0078 40.333 80.0078V80.0078C18.2416 80.0078 0.333008 62.0992 0.333008 40.0078V40.0078Z"></path>
<path fill="white" d="M16.0641 56.2078C22.6086 64.9341 31.7612 69.2341 41.4709 68.7552C50.5503 68.3084 59.2509 63.6632 64.9218 56.2198C65.2384 55.7976 65.3754 55.2672 65.3027 54.7445C65.23 54.2217 64.9536 53.7488 64.5338 53.429C64.1139 53.1091 63.5847 52.9682 63.0613 53.0369C62.538 53.1056 62.0631 53.3784 61.7401 53.7958C56.7783 60.3078 49.1669 64.3718 41.2743 64.7604C32.8909 65.1735 25.0115 61.4718 19.2641 53.8078C19.1065 53.5977 18.909 53.4207 18.683 53.2869C18.4571 53.153 18.2069 53.0651 17.9469 53.0279C17.6869 52.9908 17.4221 53.0052 17.1677 53.0704C16.9133 53.1356 16.6742 53.2502 16.4641 53.4078C16.2539 53.5654 16.0769 53.7628 15.9431 53.9888C15.8093 54.2148 15.7213 54.465 15.6842 54.725C15.647 54.985 15.6615 55.2497 15.7266 55.5042C15.7918 55.7586 15.9065 55.9977 16.0641 56.2078Z"></path>
</svg>
