<svg xmlns="http://www.w3.org/2000/svg" fill="none" viewBox="0 0 79 80" height="80" width="79">
<g clip-path="url(#clip0_3334_919)">
<path fill="#B366F6" d="M51.1115 39.8216C50.9721 33.7632 45.9834 28.9431 39.9218 29.0145H11.0693V50.6255H29.7565V68.8005C29.4324 74.6482 33.9089 79.653 39.7565 79.9772C39.8829 79.9837 40.0126 79.9901 40.139 79.9901C46.259 79.9285 51.1698 74.9204 51.1082 68.8005L51.1115 39.8216Z"></path>
<path fill="#8430CE" d="M10.9427 50.8689C16.9722 50.8689 21.8601 45.981 21.8601 39.9515C21.8601 33.922 16.9722 29.0342 10.9427 29.0342C4.91325 29.0342 0.0253906 33.922 0.0253906 39.9515C0.0253906 45.981 4.91325 50.8689 10.9427 50.8689Z"></path>
<path fill="#C58AF8" d="M77.7498 10.8622C77.6915 4.84603 72.7968 0 66.7806 0H37.2701C31.6623 0.564019 27.3965 5.28039 27.3965 10.9173C27.3965 16.5543 31.6623 21.2674 37.2701 21.8314H56.1744V39.987C55.9313 45.9514 60.5699 50.9822 66.531 51.2253C72.4954 51.4684 77.5261 46.8298 77.7693 40.8687C77.7822 40.577 77.7822 40.282 77.7693 39.9903L77.7498 10.8622Z"></path>
</g>
<defs>
<clipPath id="clip0_3334_919">
<rect transform="translate(0.0253906)" fill="white" height="80" width="78"></rect>
</clipPath>
</defs>
</svg>
