<svg xmlns="http://www.w3.org/2000/svg" fill="none" viewBox="0 0 80 80" height="80" width="80">
<path fill="#1ED760" d="M41.5867 0.0399757C19.5115 -0.837474 0.909607 16.3459 0.0321567 38.4211C-0.845293 60.4963 16.3418 79.0982 38.4133 79.9756C60.4884 80.8531 79.0904 63.6697 79.9678 41.5945C80.8416 19.5194 63.6582 0.913769 41.5867 0.0399757ZM58.4703 58.639C57.9731 59.5164 57.0042 59.9552 56.061 59.8236C55.7722 59.7833 55.4833 59.6883 55.2128 59.5347C49.9261 56.5258 44.1642 54.5662 38.0879 53.7107C32.0115 52.8551 25.9315 53.1513 20.0197 54.5881C18.7365 54.8989 17.4459 54.1128 17.1351 52.8295C16.8244 51.5463 17.6104 50.2557 18.8937 49.9449C25.3941 48.3655 32.0774 48.0401 38.7533 48.9797C45.4292 49.9193 51.7615 52.0727 57.5782 55.3815C58.7226 56.0359 59.1247 57.491 58.474 58.639H58.4703ZM63.7277 48.1388C62.9124 49.6451 61.0259 50.2082 59.5196 49.3929C53.3336 46.0476 46.6357 43.8503 39.6125 42.8632C32.5892 41.876 25.5477 42.1429 18.678 43.6529C18.305 43.7333 17.9358 43.7479 17.5775 43.6968C16.3308 43.5213 15.2632 42.5926 14.9781 41.2874C14.6088 39.613 15.669 37.9568 17.3435 37.5875C24.9371 35.9167 32.7208 35.6206 40.4789 36.7101C48.2334 37.7996 55.6369 40.2272 62.4737 43.9271C63.9836 44.7424 64.543 46.6252 63.7277 48.1352V48.1388ZM69.5554 36.3006C68.7877 37.7776 67.19 38.5417 65.6325 38.3224C65.212 38.2639 64.7989 38.1323 64.4004 37.9275C57.198 34.1801 49.4399 31.7049 41.3418 30.5679C33.2436 29.4309 25.1016 29.6722 17.1461 31.2882C15.0768 31.7086 13.0623 30.3705 12.6418 28.3048C12.2214 26.2355 13.5595 24.221 15.6252 23.8006C24.4362 22.0128 33.4447 21.7459 42.4057 23.0036C51.3666 24.2612 59.951 27.0033 67.9285 31.1529C69.8004 32.1254 70.5279 34.4323 69.5554 36.3042V36.3006Z" clip-rule="evenodd" fill-rule="evenodd"></path>
</svg>
