<svg width="12" height="12" fill="none" xmlns="http://www.w3.org/2000/svg"><style>path{fill:#000}@media (prefers-color-scheme:dark){path{fill:#fff}}</style><path d="m0 7.293 2 1.998H0V7.293zm0-.499 2.5 2.497h2L0 4.797v1.997zm0-2.497 5 4.994h2L0 2.3v1.997zm2.5 0 5 4.994V7.293L2.5 2.3v1.997zM5 2.3v1.997l2.5 2.497V4.797L5 2.3z" fill="#000"/><path fill-rule="evenodd" clip-rule="evenodd" d="M10.634 7.927c.362.362.854.565 1.366.565v.799H7.854V5.15l2.78 2.777zm-1.18.165a.4.4 0 1 1-.8 0 .4.4 0 0 1 .8 0z" fill="#000"/><path d="M0 9.29h2L0 7.294v1.998zM2.5 4.797 0 2.3v1.997l2.5 2.497V4.797zM0 4.797v1.997l2.5 2.497V7.293L0 4.797zM5 4.797 2.5 2.3v1.997L5 6.794V4.797zM2.5 9.29h2l-2-1.997v1.998zM2.5 4.797v1.997L5 9.291V7.293L2.5 4.797z" fill="#000"/></svg>
