<svg width="16" height="16" fill="none" xmlns="http://www.w3.org/2000/svg"><style>path{fill:#000}@media (prefers-color-scheme:dark){path{fill:#fff}}</style><path d="m2.2 9.393 2 1.998h-2V9.393zm0-.499 2.5 2.497h2L2.2 6.897v1.997zm0-2.497 5 4.994h2L2.2 4.4v1.997zm2.5 0 5 4.994V9.393L4.7 4.4v1.997zM7.2 4.4v1.997l2.5 2.497V6.897L7.2 4.4z" fill="#000"/><path fill-rule="evenodd" clip-rule="evenodd" d="M12.834 10.027c.362.362.854.565 1.366.565v.799h-4.146V7.25l2.78 2.777zm-1.18.166a.4.4 0 1 1-.8-.001.4.4 0 0 1 .8 0z" fill="#000"/><path d="M2.2 11.39h2l-2-1.997v1.998zM4.7 6.897 2.2 4.4v1.997l2.5 2.497V6.897zM2.2 6.897v1.997l2.5 2.497V9.393L2.2 6.897zM7.2 6.897 4.7 4.4v1.997l2.5 2.497V6.897zM4.7 11.39h2l-2-1.997v1.998zM4.7 6.897v1.997l2.5 2.497V9.393L4.7 6.897z" fill="#000"/></svg>