<svg width="13" height="8" fill="none" xmlns="http://www.w3.org/2000/svg"><style>path{fill:#000}@media (prefers-color-scheme:dark){path{fill:#fff}}</style><path d="m.2 5.393 2 1.998h-2V5.393zm0-.499 2.5 2.497h2L.2 2.897v1.997zm0-2.497 5 4.994h2L.2.4v1.997zm2.5 0 5 4.994V5.393L2.7.4v1.997zM5.2.4v1.997l2.5 2.497V2.897L5.2.4z" fill="#000"/><path fill-rule="evenodd" clip-rule="evenodd" d="M10.834 6.027c.362.362.854.565 1.366.565v.799H8.054V3.25l2.78 2.777zm-1.18.165a.4.4 0 1 1-.8 0 .4.4 0 0 1 .8 0z" fill="#000"/><path d="M.2 7.39h2l-2-1.997v1.998zM2.7 2.897.2.4v1.997l2.5 2.497V2.897zM.2 2.897v1.997l2.5 2.497V5.393L.2 2.897zM5.2 2.897 2.7.4v1.997l2.5 2.497V2.897zM2.7 7.39h2l-2-1.997v1.998zM2.7 2.897v1.997l2.5 2.497V5.393L2.7 2.897z" fill="#000"/></svg>
