<?xml version="1.0" standalone="no"?>
<!DOCTYPE svg PUBLIC "-//W3C//DTD SVG 20010904//EN"
 "http://www.w3.org/TR/2001/REC-SVG-20010904/DTD/svg10.dtd">
<svg width="131" height="131" viewBox="0 0 131 131" fill="none" xmlns="http://www.w3.org/2000/svg">
<path d="M14.41 78.3288L31.4416 95.3374H14.41V78.3288ZM14.41 74.0766L35.6996 95.3374H52.7314L14.41 57.0675V74.0766ZM14.41 52.8153L56.9893 95.3374H74.0206L14.41 35.8067V52.8153ZM35.6996 52.8153L78.2786 95.3374V78.3288L35.6996 35.8067V52.8153ZM56.9893 35.8067V52.8153L78.2786 74.0766V57.0675L56.9893 35.8067Z" fill="black"/>
<path fill-rule="evenodd" clip-rule="evenodd" d="M104.971 83.7239C108.054 86.8024 112.236 88.5342 116.6 88.5342V95.3375H81.2899V60.0749L104.971 83.7239ZM94.9152 85.1321C94.9152 87.011 93.3903 88.5341 91.5092 88.5341C89.6276 88.5341 88.1027 87.011 88.1027 85.1321C88.1027 83.2535 89.6276 81.7304 91.5092 81.7304C93.3903 81.7304 94.9152 83.2535 94.9152 85.1321Z" fill="black"/>
<path d="M14.41 95.3375H31.4416L14.41 78.3289V95.3375Z" fill="black"/>
<path d="M35.6996 57.0675L14.41 35.8067V52.8153L35.6996 74.0766V57.0675Z" fill="black"/>
<path d="M14.41 57.0675V74.0766L35.6996 95.3374V78.3288L14.41 57.0675Z" fill="black"/>
<path d="M56.9894 57.0675L35.6996 35.8067V52.8153L56.9894 74.0766V57.0675Z" fill="black"/>
<path d="M35.6996 95.3375H52.7314L35.6996 78.3289V95.3375Z" fill="black"/>
<path d="M35.6996 57.0675V74.0766L56.9894 95.3374V78.3288L35.6996 57.0675Z" fill="black"/>
</svg>

