<svg width="131" height="131" fill="none" xmlns="http://www.w3.org/2000/svg"><path d="m14.41 78.329 17.032 17.008H14.41V78.33zm0-4.252 21.29 21.26H52.73L14.41 57.067v17.01zm0-21.262 42.58 42.522h17.03l-59.61-59.53v17.008zm21.29 0 42.579 42.522V78.33l-42.58-42.522v17.008zm21.29-17.008v17.008l21.289 21.262v-17.01l-21.29-21.26z" fill="#000"/><path fill-rule="evenodd" clip-rule="evenodd" d="M104.971 83.724a16.457 16.457 0 0 0 11.629 4.81v6.803H81.29V60.076l23.681 23.649zm-10.056 1.408a3.404 3.404 0 0 1-3.406 3.402 3.404 3.404 0 0 1-3.406-3.402 3.404 3.404 0 0 1 3.406-3.402 3.404 3.404 0 0 1 3.406 3.402z" fill="#000"/><path d="M14.41 95.338h17.032L14.41 78.328v17.01zM35.7 57.068 14.41 35.806v17.008L35.7 74.077v-17.01zM14.41 57.068v17.009l21.29 21.26V78.33L14.41 57.068zM56.99 57.068 35.7 35.806v17.008l21.29 21.262v-17.01zM35.7 95.338H52.73L35.7 78.328v17.01zM35.7 57.068v17.009l21.29 21.26V78.33L35.7 57.068z" fill="#000"/></svg>