<svg xmlns="http://www.w3.org/2000/svg" fill="none" viewBox="0 0 83 81" height="81" width="83">
<path fill="#0033FF" d="M43.9349 23.7665C52.5667 23.2828 61.2253 23.672 69.7789 24.9281C73.6941 25.593 77.4132 27.1178 80.6683 29.3927C81.7572 30.3001 81.8298 30.3364 81.9387 29.9371C82.1872 27.7542 82.1872 25.5502 81.9387 23.3673C81.4137 20.9925 80.3434 18.7724 78.8126 16.8825C77.2818 14.9926 75.3323 13.4846 73.1183 12.4779C65.8588 8.84815 57.111 7.39624 44.4068 7.97701C37.9458 8.26739 27.3832 8.23109 24.189 7.97701C16.606 7.6994 9.20012 5.60832 2.59181 1.87898L0.704324 0.572266C0.704324 0.572266 0.413942 0.572266 0.341347 0.898945C-0.000895262 3.09574 -0.0861643 5.32491 0.0872625 7.54143C0.445176 10.0675 1.42987 12.4638 2.95153 14.5117C4.47318 16.5596 6.48337 18.1939 8.79872 19.2656C16.1672 23.0043 25.4957 24.2021 43.9349 23.7665Z"></path>
<path fill="#0033FF" d="M63.9344 49.7556C69.8434 49.9465 75.5844 51.7681 80.5225 55.0188C81.6477 55.8899 81.9018 55.9988 82.0107 55.7447C82.1188 54.6221 82.1188 53.4917 82.0107 52.369C82.1156 49.8388 81.5256 47.3281 80.3047 45.1095C77.3646 39.3744 69.4154 35.4543 57.909 33.9298C53.3581 33.5468 48.7877 33.4498 44.2247 33.6394C29.7056 33.6394 25.5677 33.4216 21.7564 32.1149L20.0504 31.5341C19.9975 31.8099 19.9975 32.0932 20.0504 32.369C20.4403 35.9732 21.9266 39.3711 24.3088 42.1038C26.691 44.8365 29.8543 46.7725 33.3717 47.6503C37.8363 49.1385 38.9979 49.2474 50.5043 49.4289C57.2919 49.3563 61.7929 49.5378 63.9344 49.7556Z"></path>
<path fill="#0033FF" d="M78.1632 66.162C76.2459 64.2303 73.8934 62.7864 71.3029 61.9515C66.3011 60.147 61.0112 59.2735 55.6949 59.3744C53.038 59.4397 50.3826 59.1961 47.7819 58.6484L46.9834 58.4669C46.9834 58.4669 46.9834 59.084 46.9834 59.7736C47.0639 61.9099 47.6285 64.0001 48.6345 65.8864C49.6406 67.7727 51.0618 69.406 52.791 70.663C56.5433 73.1262 60.9341 74.4384 65.4227 74.4379C67.2375 74.4379 69.4154 74.8735 70.3229 75.055C74.2855 75.6638 78.0306 77.2617 81.2122 79.7011L82.2285 80.5723V79.81C82.3009 78.8313 82.3009 77.8486 82.2285 76.8699C82.3258 74.3614 81.8021 71.8678 80.704 69.6103C80.1206 68.2882 79.2531 67.1109 78.1632 66.162Z"></path>
</svg>
