<svg xmlns="http://www.w3.org/2000/svg" fill="none" viewBox="0 0 43 80" height="80" width="43">
<path fill="#8ABC00" d="M42.8235 28.7059C42.8235 12.9412 28.4706 0 21.4118 0C14.3529 0 0 12.9412 0 28.7059C0 36.4706 2.35294 43.2941 5.88235 48.4706C7.05882 51.0588 9.17646 53.8824 11.0588 56.7059C13.4118 60 15.7647 63.2941 17.1765 66.5882C16 67.0588 15.0588 68 14.5882 69.1765C15.7647 69.4118 16.9412 69.6471 18.3529 69.8824C21.8823 70.3529 25.1765 70.1177 27.0588 69.4118C25.8823 70.3529 22.3529 70.8235 18.3529 70.5882C16.9412 70.5882 15.5294 70.3529 14.3529 70.1176C14.3529 70.3529 14.3529 70.5882 14.3529 70.8235V76.7059C14.3529 79.2941 16.4706 80 19.0588 80H25.647C28.2353 80 30.3529 79.2941 30.3529 76.7059V70.8235C30.3529 68.7059 28.7059 66.8235 26.5882 66.3529C27.5294 64.4706 28.4706 62.5882 29.4118 60.7059L30.3529 58.8235L31.0588 57.4118C31.5294 56.4706 32.4706 54.5882 33.4118 52.9412C38.8235 48 42.8235 39.0588 42.8235 28.7059ZM29.4118 56.9412L28.7059 58.3529L27.7647 60.2353C26.8235 62.1177 25.6471 64.2353 24.9412 66.3529H22.1176V57.6471H20.7059V66.3529H18.5882C18.3529 66.3529 18.3529 66.3529 18.1176 66.3529C16.7059 63.0588 14.3529 59.5294 12 56C11.2941 55.0588 10.8235 54.3529 10.1176 53.4118C13.4118 56 17.1765 57.6471 21.4118 57.6471C24.7059 57.6471 27.7647 56.7059 30.5882 54.8235C30.1176 55.2941 29.8823 56 29.4118 56.9412ZM29.1765 54.5882C29.1765 54.5882 36 47.2941 37.8823 36.9412C35.2941 40 31.0588 42.1176 26.1176 42.1176C18.3529 42.1176 12 37.1765 12 31.0588C12 24.9412 18.3529 20 26.1176 20C31.0588 20 35.2941 21.8824 37.8823 24.9412C33.8823 8 15.2941 3.76471 15.2941 3.76471C15.2941 3.76471 16.4706 2.35294 19.0588 1.64706C21.1765 0.941176 22.1176 1.17647 23.5294 1.64706C25.1765 2.11765 41.4118 11.0588 41.4118 28.4706C41.1765 45.4118 29.1765 54.5882 29.1765 54.5882Z"></path>
<path fill="#8ABC00" d="M31.0583 28.0001C29.8818 28.0001 28.7054 27.2942 27.0583 27.2942C24.2348 27.2942 22.823 28.9412 22.823 30.8236C22.823 32.4706 24.2348 34.1177 27.0583 34.1177C28.2348 34.1177 30.1171 33.4118 30.823 33.4118C31.9995 33.4118 32.9407 34.1177 32.9407 34.8236C32.9407 36.4706 28.7054 37.1765 26.823 37.1765C21.4112 37.1765 17.8818 34.1177 17.8818 30.8236C17.8818 27.5295 21.6465 24.2354 26.823 24.2354C28.9406 24.2354 32.9407 24.7059 32.9407 26.353C33.176 27.0589 32.2348 28.0001 31.0583 28.0001Z"></path>
</svg>
