<svg xmlns="http://www.w3.org/2000/svg" fill="none" viewBox="0 0 82 81" height="81" width="82">
<path fill="#006CBB" d="M69.6136 68.7633C64.3404 65.3805 60.0751 60.5739 57.3736 54.8834C60.7631 51.0685 62.8364 46.0673 62.8364 40.5724C62.8364 35.0779 60.7631 30.078 57.3736 26.2632C60.0751 20.5712 64.3404 15.7658 69.6136 12.3818C76.8244 19.6125 81.283 29.5737 81.283 40.5724C81.283 51.5712 76.8244 61.5312 69.6136 68.7633ZM41.1136 54.6564C33.3122 54.6564 26.9883 48.3499 26.9883 40.5724C26.9883 32.7939 33.3122 26.4898 41.1136 26.4898C48.9137 26.4898 55.2389 32.7939 55.2389 40.5724C55.2389 48.3499 48.9137 54.6564 41.1136 54.6564Z"></path>
<path fill="#2A2B3C" d="M50.3127 21.0003C47.5221 19.6989 44.4192 18.951 41.134 18.951C29.1486 18.951 19.434 28.6309 19.434 40.5723C19.434 52.5136 29.1486 62.1937 41.134 62.1937C44.4192 62.1937 47.5221 61.4457 50.3127 60.1444C53.2753 65.7643 57.4662 70.6405 62.5394 74.4071C56.3433 78.3056 49.0061 80.5723 41.134 80.5723C18.962 80.5723 0.987305 62.663 0.987305 40.5723C0.987305 18.4803 18.962 0.572266 41.134 0.572266C49.0061 0.572266 56.3433 2.8376 62.5394 6.73894C57.4662 10.5043 53.2753 15.3803 50.3127 21.0003Z"></path>
</svg>
