<svg xmlns="http://www.w3.org/2000/svg" fill="none" viewBox="0 0 72 80" height="80" width="72">
<path fill="#3177BC" d="M41.8133 33.3869L51.2875 31.9469L51.818 27.1719H21.0459L21.5765 31.9469L31.0506 33.3869C31.657 33.4627 32.0359 33.9933 32.0359 34.5238V45.5897C32.0359 46.196 31.5812 46.6508 31.0506 46.7266L21.5765 48.1667L21.0459 52.9417H51.7422L51.2117 48.1667L41.7375 46.7266C41.1312 46.6508 40.7522 46.1202 40.7522 45.5897V34.5238C40.828 33.9175 41.207 33.4627 41.8133 33.3869Z"></path>
<path fill="#3177BC" d="M68.9467 17.9252L39.3114 0.795831C37.4924 -0.265277 35.2944 -0.265277 33.4754 0.795831L3.84011 17.9252C2.09686 18.9863 0.959961 20.8811 0.959961 22.9275V57.1104C0.959961 59.1568 2.09686 61.1274 3.84011 62.1127L33.4754 79.2421C34.3849 79.7726 35.3702 80 36.3555 80C37.3408 80 38.4019 79.6968 39.2357 79.2421L68.9467 62.1885C70.7657 61.1274 71.8268 59.2326 71.8268 57.1862V22.9275C71.8268 20.8811 70.7657 18.9863 68.9467 17.9252ZM52.4237 46.0445C52.9543 46.1203 53.3332 46.5751 53.409 47.0298L54.167 54.0028C54.167 54.306 54.0912 54.685 53.8638 54.9124C53.6364 55.1397 53.3332 55.2913 53.0301 55.2913H19.7567C19.4536 55.2913 19.1504 55.1397 18.923 54.9124C18.6956 54.685 18.6198 54.306 18.6198 54.0028L19.3778 47.0298C19.4536 46.4993 19.8325 46.1203 20.3631 46.0445L29.6857 44.6802V35.585L20.3631 34.145C19.8325 34.0692 19.4536 33.6144 19.3778 33.1596L18.6198 26.1866C18.6198 25.8835 18.6956 25.5045 18.923 25.2771C19.1504 25.0497 19.4536 24.8982 19.7567 24.8982H53.0301C53.3332 24.8982 53.6364 25.0497 53.8638 25.2771C54.0912 25.5045 54.167 25.8835 54.167 26.1866L53.409 33.1596C53.3332 33.6902 52.9543 34.0692 52.4237 34.145L43.1011 35.5092V44.6045L52.4237 46.0445Z"></path>
</svg>
