<svg xmlns="http://www.w3.org/2000/svg" fill="none" viewBox="0 0 71 80" height="80" width="71">
<g clip-path="url(#clip0_3369_457)">
<path fill="#0078D4" d="M35.2356 0.0078125L0.34668 19.9634V59.83L35.2356 80.0078L70.1245 60.0523V20.0523L35.2356 0.0078125ZM63.68 55.8745L35.2356 72.3189L6.79112 56.0478V23.9189L35.2356 7.47448L63.68 23.9634V55.8745Z"></path>
<path fill="url(#paint0_linear_3369_457)" d="M35.2356 0.0078125L0.34668 19.9634L6.79112 23.9189L35.2356 7.47448L63.68 23.9189L70.1245 19.9634L35.2356 0.0078125Z"></path>
<path fill="#50E6FF" d="M51.8574 46.5631C51.5179 46.0044 51.0175 45.5614 50.4219 45.292C48.6141 41.3457 45.8447 37.9162 42.3675 35.318C38.8903 32.7198 34.8165 31.036 30.5196 30.4209L59.3063 13.7853L52.613 9.94531L19.8307 28.8964C19.1939 29.263 18.696 29.8298 18.4145 30.5086C18.1331 31.1874 18.0838 31.9402 18.2744 32.6499C18.465 33.3596 18.8848 33.9864 19.4685 34.4329C20.0522 34.8794 20.767 35.1204 21.5019 35.1186C21.6374 35.0937 21.771 35.0595 21.9019 35.0164L22.4574 37.3409C26.637 36.3553 31.0263 36.7996 34.9235 38.6028C38.8207 40.406 42.0008 43.4639 43.9552 47.2875L11.293 66.1631L17.9596 70.012L50.6396 51.1186C51.0754 50.8581 51.4438 50.4988 51.7152 50.0698L52.0485 49.9898C52.0174 49.8609 51.9685 49.7453 51.9374 49.6164C52.1739 49.1395 52.2902 48.612 52.2763 48.0798C52.2623 47.5477 52.1185 47.027 51.8574 46.5631Z"></path>
<path fill="url(#paint1_linear_3369_457)" d="M48.9732 40.0659C47.347 40.0659 45.7573 40.5481 44.4052 41.4516C43.053 42.355 41.9992 43.6392 41.3768 45.1416C40.7545 46.644 40.5917 48.2972 40.9089 49.8922C41.2262 51.4871 42.0093 52.9522 43.1592 54.1021C44.3091 55.252 45.7741 56.0351 47.3691 56.3523C48.9641 56.6696 50.6173 56.5068 52.1197 55.8844C53.6221 55.2621 54.9062 54.2083 55.8097 52.8561C56.7132 51.504 57.1954 49.9143 57.1954 48.2881C57.1954 46.1074 56.3291 44.0161 54.7872 42.4741C53.2452 40.9321 51.1538 40.0659 48.9732 40.0659ZM21.4976 23.417C19.8714 23.417 18.2817 23.8992 16.9296 24.8027C15.5775 25.7062 14.5236 26.9903 13.9013 28.4927C13.279 29.9951 13.1161 31.6483 13.4334 33.2433C13.7506 34.8382 14.5337 36.3033 15.6836 37.4532C16.8335 38.6031 18.2986 39.3862 19.8935 39.7034C21.4885 40.0207 23.1417 39.8579 24.6441 39.2356C26.1465 38.6132 27.4307 37.5594 28.3341 36.2072C29.2376 34.8551 29.7198 33.2654 29.7198 31.6392C29.7198 29.4585 28.8536 27.3672 27.3116 25.8252C25.7696 24.2833 23.6783 23.417 21.4976 23.417Z"></path>
</g>
<defs>
<linearGradient gradientUnits="userSpaceOnUse" y2="0.0078125" x2="35.2356" y1="23.9189" x1="35.2356" id="paint0_linear_3369_457">
<stop stop-color="#005BA1" offset="0.199"></stop>
<stop stop-color="#0078D4" offset="1"></stop>
</linearGradient>
<linearGradient gradientUnits="userSpaceOnUse" y2="23.5059" x2="35.2354" y1="56.5103" x1="35.2354" id="paint1_linear_3369_457">
<stop stop-color="#198AB3"></stop>
<stop stop-color="#32BEDD" offset="0.172"></stop>
<stop stop-color="#198AB3" offset="0.5"></stop>
<stop stop-color="#32BEDD" offset="0.662"></stop>
<stop stop-color="#50E6FF" offset="0.975"></stop>
</linearGradient>
<clipPath id="clip0_3369_457">
<rect transform="translate(0.235352 0.0078125)" fill="white" height="80" width="70"></rect>
</clipPath>
</defs>
</svg>
