<svg xmlns="http://www.w3.org/2000/svg" fill="none" viewBox="0 0 119 80" height="80" width="119">
<g clip-path="url(#clip0_3381_185)">
<path fill="url(#paint0_linear_3381_185)" d="M111.434 42.2004C121.031 32.547 121.031 16.9004 111.434 7.24703C106.84 2.61395 100.586 0.0078125 94.0611 0.0078125C87.5364 0.0078125 81.282 2.61395 76.6878 7.24703L59.3145 24.7237L76.6344 42.147L76.6878 42.2004C81.2764 46.8286 87.5218 49.4349 94.0392 49.4411C100.557 49.4474 106.807 46.8531 111.404 42.2337L111.438 42.2004H111.434Z"></path>
<path fill="#17DA88" d="M24.5675 59.6804L7.1975 42.2004C-2.39917 32.5504 -2.39917 16.9004 7.1975 7.24703C11.7917 2.61395 18.0461 0.0078125 24.5708 0.0078125C31.0956 0.0078125 37.35 2.61395 41.9442 7.24703L59.3175 24.7237L24.5675 59.6804Z"></path>
<path fill="url(#paint1_linear_3381_185)" d="M111.434 42.2013C106.831 46.8438 100.561 49.4508 94.0229 49.4408C87.4851 49.4308 81.2232 46.8045 76.634 42.1479L59.3141 24.7246L24.5674 59.6813L34.4941 69.6646C41.0574 76.2836 49.9926 80.0069 59.3141 80.0069C68.6355 80.0069 77.5707 76.2836 84.134 69.6646L111.434 42.2013Z"></path>
</g>
<defs>
<linearGradient gradientUnits="userSpaceOnUse" y2="651.152" x2="-1017.29" y1="554.946" x1="7142.44" id="paint0_linear_3381_185">
<stop stop-color="#2936A3"></stop>
<stop stop-color="#162286" offset="1"></stop>
</linearGradient>
<linearGradient gradientUnits="userSpaceOnUse" y2="94.5587" x2="9489.2" y1="782.313" x1="-1876.87" id="paint1_linear_3381_185">
<stop stop-color="#2297F4"></stop>
<stop stop-color="#31A0F9" offset="1"></stop>
</linearGradient>
<clipPath id="clip0_3381_185">
<rect transform="translate(0 0.0078125)" fill="white" height="80" width="119"></rect>
</clipPath>
</defs>
</svg>
