<svg xmlns="http://www.w3.org/2000/svg" viewBox="0 0 525 525"><path fill="#7882ff" d="M203 0h120c111 0 202 90 202 203v120c0 111-90 202-203 202H202C92 525 0 435 0 322V202C0 92 90 0 203 0z"/><path fill="#4d5cc1" d="M402 263l-1-17-5-10c33 30 50 62 40 87-8 23-36 36-74 38-37 2-83-6-130-24a323 323 0 01-113-69c-27-27-39-55-30-78 9-24 40-36 81-37h1a142 142 0 00-42 55c9 25 44 55 113 84 56 23 122 35 151 16h2c4-15 7-30 7-45z"/><path fill="#fff" d="M401 246a143 143 0 01-6 61c-29 20-96 9-153-15-69-30-104-59-112-84a142 142 0 0141-55l1-1a142 142 0 01229 94zM261 404a142 142 0 01-142-136 344 344 0 00243 93 141 141 0 01-102 43z"/></svg>