<svg width="52" height="28" viewBox="0 0 52 28" fill="none" xmlns="http://www.w3.org/2000/svg">
<g clip-path="url(#clip0_56_965)">
<path d="M51.6508 25.221C51.6508 24.2605 50.9332 23.4511 49.9888 23.3378H49.9942L49.6543 23.2947C48.6452 23.1651 47.7117 22.7011 46.9994 21.9672L33.2773 7.74869V28H41.8031H48.9798C48.9798 28 48.9798 28 48.9852 28C49.8647 28 50.6364 27.5737 51.122 26.9208C51.2191 26.7913 51.3001 26.6564 51.3756 26.5107C51.5537 26.1545 51.6508 25.7498 51.6508 25.329V25.2264V25.221ZM39.186 23.5429C39.1536 23.5429 39.1266 23.5429 39.0943 23.5429C38.1554 23.4943 37.4053 22.7173 37.4053 21.7622C37.4053 21.0553 37.8154 20.4455 38.4144 20.1542C38.6464 20.0408 38.9108 19.9815 39.186 19.9815C40.1681 19.9815 40.9667 20.7801 40.9667 21.7622C40.9667 22.7443 40.1681 23.5429 39.186 23.5429Z" fill="#111111"/>
<path d="M33.2718 19.2207V7.7487C33.2718 7.7487 33.2718 7.7487 33.2718 7.7433L26.6185 0.847177C26.0951 0.307574 25.3774 0 24.622 0C23.1488 0 21.9509 1.19792 21.9509 2.67104V7.62459C21.9509 7.62459 21.9509 7.62459 21.9509 7.62999V18.6757V27.9892H33.2718V19.2422L33.2556 19.2261C33.2556 19.2261 33.2718 19.2261 33.2718 19.2207Z" fill="url(#paint0_linear_56_965)"/>
<path d="M21.9564 18.6811V7.62999L15.2977 0.804014C14.8012 0.291391 14.116 0.00540161 13.3983 0.00540161C11.9306 0.00540161 10.738 1.19792 10.738 2.66564V18.6757V28H21.951V18.6865L21.9564 18.6811Z" fill="url(#paint1_linear_56_965)"/>
<path d="M4.53806 0.793216C4.04163 0.28599 3.36712 0 2.66024 0C1.19252 0 0 1.19252 0 2.66024V7.49509V25.4099C0 26.8345 1.15475 27.9946 2.5847 27.9946H10.7435V18.6757V7.16593L4.53806 0.793216Z" fill="url(#paint2_linear_56_965)"/>
</g>
<defs>
<linearGradient id="paint0_linear_56_965" x1="21.9563" y1="13.9973" x2="33.2718" y2="13.9973" gradientUnits="userSpaceOnUse">
<stop stop-color="#FFB52D"/>
<stop offset="1" stop-color="#FE9B02"/>
</linearGradient>
<linearGradient id="paint1_linear_56_965" x1="10.738" y1="13.9973" x2="21.9564" y2="13.9973" gradientUnits="userSpaceOnUse">
<stop stop-color="#FF651E"/>
<stop offset="1" stop-color="#DF3902"/>
</linearGradient>
<linearGradient id="paint2_linear_56_965" x1="0" y1="13.9973" x2="10.7381" y2="13.9973" gradientUnits="userSpaceOnUse">
<stop stop-color="#3F80FF"/>
<stop offset="1" stop-color="#084FE0"/>
</linearGradient>
<clipPath id="clip0_56_965">
<rect width="51.6748" height="28" fill="white"/>
</clipPath>
</defs>
</svg>
