<svg width="160" height="28" viewBox="0 0 160 28" fill="none" xmlns="http://www.w3.org/2000/svg">
<g clip-path="url(#clip0_56_1029)">
<path d="M50.0159 23.3375L49.6783 23.2967C48.6712 23.1687 47.734 22.703 47.0238 21.9695L35.5777 10.111C35.2654 9.7874 34.7179 10.0086 34.718 10.4583L34.7205 27.5003C34.7205 27.7764 34.9444 28.0003 35.2205 28.0003H49.003C50.4816 28.0003 51.6749 26.8011 51.6749 25.3283V25.2235C51.6749 24.263 50.9589 23.4539 50.0101 23.3375H50.0159ZM39.2059 23.547C38.2221 23.547 37.4246 22.7495 37.4246 21.7657C37.4246 20.782 38.2221 19.9845 39.2059 19.9845C40.1897 19.9845 40.9872 20.782 40.9872 21.7657C40.9872 22.7495 40.1897 23.547 39.2059 23.547Z" fill="#FAFAFA"/>
<path d="M0 25.4097C0 26.8403 1.15978 28.0001 2.59044 28.0001H7.81351C8.24782 28.0001 8.47561 27.4845 8.18314 27.1634L0.869635 19.1347C0.562039 18.797 0 19.0146 0 19.4714V25.4097Z" fill="#FAFAFA"/>
<path d="M18.8112 27.1542C19.1156 27.4722 18.8903 28 18.45 28H11.3645C11.2207 28 11.0838 27.9381 10.9889 27.83L8.94141 25.5L0.130295 15.8231C0.046462 15.731 0 15.611 0 15.4865V8.75485C0 8.30416 0.549419 8.08352 0.861129 8.40904L18.8112 27.1542Z" fill="#FAFAFA"/>
<path d="M0 2.67783C3.31006e-05 0.279524 2.91624 -0.907535 4.58691 0.815527L30.1907 27.1515C30.4988 27.4684 30.2743 28 29.8322 28L22.0671 28.0001C21.9251 28.0001 21.7898 27.9398 21.695 27.8341L19.5996 25.5L0.277366 5.29997C0.0993537 5.11387 0 4.86627 0 4.60874V2.67783Z" fill="#FAFAFA"/>
<path d="M10.74 2.678C10.74 0.279791 13.6562 -0.907946 15.3269 0.814714L32.5042 18.4803L32.9998 18.99V19.29V26.2862C32.9998 26.7326 32.4592 26.9552 32.1448 26.6383L31.0154 25.5L11.3062 5.23222C10.9431 4.85888 10.74 4.35865 10.74 3.8379V2.678Z" fill="#FAFAFA"/>
<path d="M33.008 7.45701V15.2687C33.008 15.7175 32.4625 15.9391 32.1496 15.6173L22.5357 5.73221C22.1726 5.35886 21.9695 4.8586 21.9695 4.3378V2.67796C21.9695 0.279624 24.8859 -0.907902 26.5566 0.815174L33.008 7.45701Z" fill="#FAFAFA"/>
</g>
<path d="M64.9072 22.8764C64.2266 22.8764 63.6748 22.3246 63.6748 21.644V5.23239C63.6748 4.55176 64.2266 4 64.9072 4H71.4584C75.3502 4 77.8463 6.3191 77.8463 9.90562C77.8463 13.4921 75.3502 15.8112 71.4584 15.8112H67.9155V21.644C67.9155 22.3246 67.3638 22.8764 66.6831 22.8764H64.9072ZM67.9155 10.9384C67.9155 11.619 68.4673 12.1708 69.1479 12.1708H71.029C72.6394 12.1708 73.6056 11.3079 73.6056 9.90562C73.6056 8.50337 72.6394 7.64045 71.029 7.64045H69.1479C68.4673 7.64045 67.9155 8.19221 67.9155 8.87284V10.9384Z" fill="#FAFAFA"/>
<path d="M84.7132 23.0921C80.5261 23.0921 77.5737 20.1258 77.5737 16.0809C77.5737 12.036 80.5261 9.06966 84.7132 9.06966C88.8465 9.06966 91.8526 12.036 91.8526 16.0809C91.8526 20.1258 88.8465 23.0921 84.7132 23.0921ZM81.4924 16.0809C81.4924 18.2382 82.7807 19.7213 84.7132 19.7213C86.6188 19.7213 87.9071 18.2382 87.9071 16.0809C87.9071 13.9236 86.6188 12.4404 84.7132 12.4404C82.7807 12.4404 81.4924 13.9236 81.4924 16.0809Z" fill="#FAFAFA"/>
<path d="M97.8338 23.0921C95.113 23.0921 93.249 21.7184 92.2869 20.088C91.952 19.5205 92.278 18.831 92.8916 18.5906L93.6619 18.2889C94.3521 18.0186 95.1116 18.444 95.5759 19.0219C96.0937 19.6664 96.8699 20.0989 97.8338 20.0989C98.8805 20.0989 99.5784 19.5865 99.5784 18.8315C99.5784 16.7011 92.4121 18.1303 92.4121 12.9798C92.4121 10.8494 94.264 9.06966 97.2433 9.06966C99.5061 9.06966 101.445 9.97305 102.413 11.3805C102.774 11.9054 102.457 12.5743 101.869 12.8195L101.024 13.1721C100.341 13.4569 99.5715 13.0322 99.0217 12.5375C98.5416 12.1054 97.9256 11.9011 97.3775 11.9011C96.4918 11.9011 95.8744 12.2787 95.8744 12.8719C95.8744 15.0292 103.148 13.2494 103.148 18.7506C103.148 21.0966 101.001 23.0921 97.8338 23.0921Z" fill="#FAFAFA"/>
<path d="M112.47 21.7823C112.514 22.3461 112.17 22.8785 111.613 22.979C111.212 23.0515 110.786 23.0921 110.344 23.0921C107.418 23.0921 105.191 21.5281 105.191 18.2382V12.5753H104.276C103.595 12.5753 103.043 12.0235 103.043 11.3429V10.5178C103.043 9.83715 103.595 9.28539 104.276 9.28539H105.191V6.5807C105.191 5.90007 105.742 5.34832 106.423 5.34832H107.904C108.584 5.34832 109.136 5.90007 109.136 6.5807V9.28539H111.178C111.859 9.28539 112.411 9.83715 112.411 10.5178V11.3429C112.411 12.0235 111.859 12.5753 111.178 12.5753H109.136V17.7258C109.136 18.9393 109.78 19.6405 110.747 19.6405C111.492 19.6405 112.342 20.1476 112.4 20.8904L112.47 21.7823Z" fill="#FAFAFA"/>
<path d="M125.496 5.23239C125.496 4.55176 126.048 4 126.728 4H128.531C129.212 4 129.764 4.55176 129.764 5.23239V21.644C129.764 22.3246 129.212 22.8764 128.531 22.8764H126.728C126.048 22.8764 125.496 22.3246 125.496 21.644V16.2077C125.496 15.527 124.944 14.9753 124.264 14.9753H119.267C118.586 14.9753 118.034 15.527 118.034 16.2077V21.644C118.034 22.3246 117.483 22.8764 116.802 22.8764H115.026C114.345 22.8764 113.794 22.3246 113.794 21.644V5.23239C113.794 4.55176 114.345 4 115.026 4H116.802C117.483 4 118.034 4.55176 118.034 5.23239V10.1024C118.034 10.7831 118.586 11.3348 119.267 11.3348H124.264C124.944 11.3348 125.496 10.7831 125.496 10.1024V5.23239Z" fill="#FAFAFA"/>
<path d="M138.371 23.0921C134.184 23.0921 131.232 20.1258 131.232 16.0809C131.232 12.036 134.184 9.06966 138.371 9.06966C142.505 9.06966 145.511 12.036 145.511 16.0809C145.511 20.1258 142.505 23.0921 138.371 23.0921ZM135.15 16.0809C135.15 18.2382 136.439 19.7213 138.371 19.7213C140.277 19.7213 141.565 18.2382 141.565 16.0809C141.565 13.9236 140.277 12.4404 138.371 12.4404C136.439 12.4404 135.15 13.9236 135.15 16.0809Z" fill="#FAFAFA"/>
<path d="M152.321 22.4449C148.483 22.4449 146.121 19.8562 146.121 15.7573C146.121 11.6584 148.483 9.06966 152.24 9.06966C153.824 9.06966 155.058 9.60899 155.783 10.4449C155.783 9.80454 156.302 9.28539 156.943 9.28539H158.442C159.123 9.28539 159.675 9.83715 159.675 10.5178V21.9056C159.675 25.5461 156.91 28 152.75 28C150.107 28 147.857 26.7981 146.903 24.9114C146.59 24.2908 147.064 23.6229 147.751 23.5148L148.89 23.3354C149.557 23.2305 150.176 23.7349 150.674 24.1904C151.173 24.6475 151.93 24.8989 152.75 24.8989C154.602 24.8989 155.81 23.8472 155.81 22.3371V21.0427C155.112 21.9326 153.797 22.4449 152.321 22.4449ZM149.959 15.7573C149.959 17.7798 151.14 19.0742 152.965 19.0742C154.817 19.0742 155.998 17.7798 155.998 15.7573C155.998 13.7348 154.817 12.4404 152.965 12.4404C151.14 12.4404 149.959 13.7348 149.959 15.7573Z" fill="#FAFAFA"/>
<defs>
<clipPath id="clip0_56_1029">
<rect width="51.6748" height="28" fill="white"/>
</clipPath>
</defs>
</svg>
