<svg id="Calque_1" xmlns="http://www.w3.org/2000/svg" viewBox="0 0 200 36" fill="currentColor"><path class="st0" d="M92.4 12.3C92.4 5.7 88.1.7 79.2.7H61.3v34.5h8.4v-27h9.5c3.5 0 4.8 2 4.8 4.3 0 2.4-1.3 4.3-4.8 4.3h-8.1l11.6 18.4h9.6s-7.9-12.4-7.8-12.4c4.8-1.1 7.9-4.5 7.9-10.5M47.3.7h8.4v34.5h-8.4zM20.4.7L2.8 35.3h9.5l2.8-5.8h14.2l-3.5-7.3h-7.1l5.2-10.6h.1l11.8 23.7h9.7L27.9.7zM123.1 17.3c2.7-1.5 4.1-3.8 4.1-7.3 0-5.6-4.2-9.3-11.1-9.3H96.4v34.5h20.4c7.1 0 11.8-3.8 11.8-9.7.1-4-2.2-7-5.5-8.2M104.8 8H116c1.7 0 3 1.3 3 3s-1.3 3-3 3h-11.2V8zm11.5 20h-11.5v-7h11.5c2 0 3.6 1.5 3.6 3.5s-1.6 3.5-3.6 3.5M155.2 20c0 5.2-2.4 8.1-7.2 8.1-4.7 0-7.1-2.9-7.1-8.1V.7h-8.6v18.7c0 10.7 5.6 16.6 15.8 16.6s15.8-5.9 15.8-16.6V.7h-8.6V20zM186.3 14.5c-8-1.9-9.7-2.1-9.7-4.4 0-1.8 2-2.6 5.4-2.6 4.5 0 9.2 1.1 11.9 2.8l2.7-7C193 1.3 188 0 182 0c-8.9 0-13.9 4.4-13.9 10.4 0 6.4 3.7 9 12.3 10.8 6.7 1.5 8.1 2.4 8.1 4.3 0 2-1.8 2.9-5.5 2.9-5.3 0-10-1.3-13.8-3.4l-2.6 7.4c4.2 2.2 10.4 3.6 16.6 3.6 8.7 0 13.9-4 13.9-10.8.1-5.5-3.4-9-10.8-10.7"/></svg>