<svg fill="none" xmlns="http://www.w3.org/2000/svg" viewBox="0 0 174 51"><path d="M70.23 29.133h-3.366c-.528 0-.924-.463-.924-.925V17.572c0-.529-.461-.925-.923-.925h-2.903c-.528 0-.924.462-.924.925v26.887c0 .528.462.925.924.925h2.903c.528 0 .923-.463.923-.925V34.021c0-.528.462-.925.924-.925h3.365c.528 0 .924.463.924.925v10.504c0 .529.462.925.923.925h2.904c.527 0 .923-.463.923-.925V17.572c0-.529-.462-.925-.923-.925h-2.904c-.527 0-.923.462-.923.925v10.57c0 .528-.396.99-.924.99ZM85.144 17.44l-4.751 26.887c-.066.528.33 1.057.858 1.057h2.903c.462 0 .858-.33.858-.793l.791-4.889c.066-.462.462-.792.858-.792h3.695c.462 0 .858.33.858.793l.857 4.954c.066.463.462.793.858.793h3.035c.594 0 1.056-.529.858-1.123L91.873 17.44c-.066-.463-.462-.793-.857-.793h-4.949c-.462 0-.792.33-.923.793Zm4.42 17.44h-1.913c-.594 0-.924-.529-.858-1.057l.858-9.91c.198-1.056 1.65-1.056 1.781 0l.924 9.91c.132.529-.264 1.057-.792 1.057ZM109.879 28.736h-3.233c-.593 0-.923-.264-.923-.925v-6.21c0-.594.33-.925.923-.925h1.914c.594 0 .924.265.924.925v2.907c0 .529.461.925.923.925h3.035c.528 0 .924-.463.924-.925v-3.633c0-2.841-1.518-4.294-4.553-4.294h-4.354c-3.035 0-4.553 1.453-4.553 4.294v7.398c0 2.841 1.518 4.36 4.487 4.36h3.233c.594 0 .924.265.924.925v6.87c0 .595-.264.926-.924.926h-1.914c-.593 0-.923-.264-.923-.925v-2.907c0-.528-.462-.925-.924-.925h-3.035c-.528 0-.924.463-.924.925v3.634c0 2.84 1.518 4.294 4.553 4.294h4.288c3.036 0 4.553-1.454 4.553-4.294v-7.994c.066-2.973-1.517-4.426-4.421-4.426ZM127.904 40.43c0 .594-.264.924-.924.924h-2.573c-.594 0-.923-.264-.923-.925V17.572c0-.529-.462-.925-.924-.925h-3.035c-.528 0-.924.462-.924.925v23.452c0 2.84 1.518 4.294 4.553 4.294h4.948c3.035 0 4.553-1.454 4.553-4.294V17.572c0-.529-.462-.925-.924-.925h-2.837c-.528 0-.924.462-.924.925l-.066 22.857ZM151.787 29.727V20.94c0-2.84-1.517-4.294-4.552-4.294h-8.577c-.528 0-.924.463-.924.925v26.887c0 .529.462.925.924.925h2.903c.528 0 .923-.462.923-.925v-9.446c0-.529.462-.925.924-.925.33 0 .66.264.858.594l3.761 10.108c.198.33.527.594.857.594h3.167c.594 0 1.122-.594.858-1.189l-3.629-9.38c-.198-.463.066-.925.528-1.19 1.188-.66 1.979-2.048 1.979-3.897Zm-4.816-8.126v7.531c0 .595-.33.925-.924.925h-2.639c-.528 0-.924-.462-.924-.925v-7.53c0-.53.462-.926.924-.926h2.639c.594 0 .924.33.924.925ZM167.541 16.646h-4.948c-.462 0-.858.33-.858.793l-4.75 26.887c-.066.529.33 1.057.857 1.057h2.904c.461 0 .857-.33.857-.792l.792-4.889c.066-.462.462-.793.858-.793h3.695c.461 0 .857.33.857.793l.858 4.955c.066.462.462.792.858.792h3.035c.594 0 1.056-.528.858-1.123l-4.949-26.887c-.132-.462-.462-.793-.924-.793Zm-1.517 18.233h-1.782c-.593 0-.923-.528-.857-1.056l.857-9.05c.198-1.058 1.65-1.058 1.782 0l.924 9.05c.066.528-.33 1.056-.924 1.056ZM42.644 16.779c1.451-3.502 1.451-10.636-.462-16.12-.528-.99-1.98-.66-2.046.397v.396c-.33 5.22-2.243 8.06-5.08 9.447-.462.198-1.188.198-1.65-.132-3.364-2.114-7.323-3.37-11.612-3.37-4.288 0-8.247 1.256-11.612 3.37-.462.264-.99.33-1.452.132-2.903-1.057-4.882-4.228-5.212-9.513V.99C3.452-.067 1.934-.397 1.473.594-.441 6.143-.375 13.277 1.01 16.779c.725 1.717.725 3.7.132 5.483C.35 24.508-.045 27.018.02 29.529.285 41.023 10.05 50.8 21.531 50.999c12.14.132 22.036-9.645 22.036-21.8a21.83 21.83 0 0 0-1.121-6.937c-.594-1.784-.528-3.766.198-5.483Zm-21.114 29C12.69 45.583 5.431 38.382 5.3 29.53c-.199-9.447 7.455-17.11 16.824-16.912 8.841.132 16.099 7.399 16.23 16.251.199 9.38-7.455 17.044-16.824 16.912Z" fill="currentColor"/><path d="m24.372 27.414-3.893-6.011c-.594-.991-1.913-1.255-2.903-.66-.594.396-.99 1.056-.99 1.783 0 .396.132.793.33 1.123l2.64 4.096a.897.897 0 0 1-.067.99l-4.09 4.493a2.098 2.098 0 0 0 .132 2.973c.395.33.923.528 1.451.528.594 0 1.122-.264 1.518-.66l3.035-3.568c.264-.264.66-.264.857.066l2.178 3.105c.132.264.33.463.593.595.726.528 1.65.528 2.376.066.594-.397.99-1.057.99-1.784 0-.396-.133-.793-.33-1.123l-3.827-6.012Z" fill="currentColor"/></svg>