<svg xmlns="http://www.w3.org/2000/svg" viewBox="0 0 80 80"><defs><linearGradient id="a" x1="136.13" y1="-233.88" x2="213.73" y2="-300.64" gradientTransform="matrix(.56 0 0 -.57 -78.08 -130.56)" gradientUnits="userSpaceOnUse"><stop offset="0" stop-color="#5a9fd4"/><stop offset="1" stop-color="#306998"/></linearGradient><linearGradient id="b" x1="243.73" y1="-341.05" x2="216.02" y2="-301.85" gradientTransform="matrix(.56 0 0 -.57 -78.08 -130.56)" gradientUnits="userSpaceOnUse"><stop offset="0" stop-color="#ffd43b"/><stop offset="1" stop-color="#ffe873"/></linearGradient></defs><path d="M39.53 0a54.49 54.49 0 00-9.12.78c-8.08 1.43-9.54 4.41-9.54 9.92V18H40v2.4H13.7c-5.54 0-10.4 3.33-11.92 9.67C0 37.34 0 41.88 1.78 49.47c1.36 5.65 4.6 9.68 10.14 9.68h6.57v-8.72a12.13 12.13 0 0111.92-11.86h19.06a9.61 9.61 0 009.53-9.7V10.7c0-5.17-4.36-9.06-9.54-9.92A59.63 59.63 0 0039.53 0zM29.21 5.85a3.64 3.64 0 11-3.58 3.65 3.62 3.62 0 013.58-3.65z" fill="url(#a)"/><path d="M61.39 20.4v8.47A12.24 12.24 0 0149.47 41H30.41a9.74 9.74 0 00-9.54 9.7v18.15c0 5.17 4.49 8.21 9.54 9.69a31.87 31.87 0 0019.06 0c4.81-1.39 9.53-4.19 9.53-9.69v-7.28H40v-2.42h28.56c5.54 0 7.61-3.87 9.54-9.68 2-6 1.91-11.73 0-19.4-1.37-5.52-4-9.67-9.54-9.67zm-10.72 46a3.64 3.64 0 11-3.58 3.63 3.6 3.6 0 013.58-3.61z" fill="url(#b)"/></svg>