<svg xmlns="http://www.w3.org/2000/svg" width="64" height="64" fill="none" viewBox="0 0 64 64"><path fill="#05080f" d="M0 0H64V64H0z"/><path fill="#fff" d="M44.706 38.723C45.514 38.723 46.297 38.871 47.033 39.138 48.186 37.805 48.809 36.344 48.809 34.846 48.809 32.374 47.14 29.994 44.111 28.145 40.868 26.163 36.533 25.073 31.899 25.073 27.265 25.073 22.929 26.166 19.686 28.145 16.658 29.997 14.988 32.374 14.988 34.846 14.988 36.344 15.609 37.805 16.765 39.138 17.501 38.871 18.283 38.723 19.092 38.723 20.912 38.723 22.622 39.431 23.915 40.72 24.804 41.613 25.416 42.726 25.708 43.926 27.656 44.378 29.743 44.624 31.899 44.624 34.055 44.624 36.142 44.378 38.089 43.926 38.382 42.726 38.993 41.613 39.883 40.72 41.176 39.431 42.888 38.723 44.708 38.723H44.706ZM31.896 33.04C29.803 33.04 28.102 31.339 28.102 29.247H35.692C35.692 31.339 33.988 33.04 31.899 33.04H31.896ZM18.75 26.357C19.115 26.134 19.498 25.928 19.886 25.729L19.872 25.717C18.912 24.995 17.785 24.648 16.669 24.648 15.046 24.648 13.447 25.381 12.4 26.775L11.951 27.372 14.971 29.644C15.907 28.432 17.177 27.322 18.753 26.357H18.75ZM15.002 40.086C13.991 38.787 13.362 37.367 13.162 35.886 13.116 35.542 13.087 35.194 13.087 34.843 13.087 33.116 13.663 31.452 14.75 29.937H14.359C11.414 29.937 9.018 32.328 9.018 35.269V36.017H12.997C11.959 36.878 11.29 38.072 11.11 39.413 10.922 40.828 11.293 42.23 12.159 43.364L12.492 43.798C12.797 42.642 13.394 41.581 14.26 40.715 14.492 40.483 14.741 40.277 14.999 40.083L15.002 40.086ZM48.823 29.644 51.843 27.372 51.394 26.775C50.348 25.381 48.745 24.648 47.122 24.648 46.006 24.648 44.879 24.995 43.92 25.717L43.905 25.729C44.294 25.931 44.676 26.134 45.041 26.357 46.618 27.322 47.887 28.432 48.823 29.644ZM54.768 35.272C54.768 32.33 52.371 29.94 49.427 29.94H49.035C50.122 31.455 50.699 33.116 50.699 34.846 50.699 35.197 50.67 35.544 50.624 35.889 50.424 37.37 49.795 38.787 48.783 40.089 49.041 40.283 49.29 40.489 49.522 40.72 50.389 41.587 50.986 42.648 51.29 43.804L51.623 43.369C52.49 42.236 52.861 40.834 52.673 39.419 52.493 38.077 51.823 36.883 50.786 36.026H54.765V35.275L54.768 35.272ZM25.47 23.851C28.412 23.851 30.809 21.454 30.809 18.512 30.809 15.571 28.412 13.174 25.47 13.174 22.529 13.174 20.132 15.568 20.132 18.512 20.132 21.457 22.526 23.851 25.47 23.851ZM25.473 15.585C25.473 15.585 25.49 15.585 25.499 15.585 25.12 15.959 24.882 16.475 24.882 17.052 24.882 18.185 25.801 19.103 26.934 19.103 27.51 19.103 28.029 18.866 28.4 18.483 28.4 18.492 28.4 18.501 28.4 18.512 28.4 20.129 27.09 21.439 25.473 21.439 23.856 21.439 22.546 20.129 22.546 18.512 22.546 16.895 23.856 15.585 25.473 15.585ZM38.318 23.851C41.259 23.851 43.656 21.454 43.656 18.512 43.656 15.571 41.259 13.174 38.318 13.174 35.376 13.174 32.98 15.568 32.98 18.512 32.98 21.457 35.373 23.851 38.318 23.851ZM38.318 15.585C38.318 15.585 38.335 15.585 38.344 15.585 37.964 15.959 37.727 16.475 37.727 17.052 37.727 18.185 38.645 19.103 39.779 19.103 40.355 19.103 40.874 18.866 41.245 18.483 41.245 18.492 41.245 18.501 41.245 18.512 41.245 20.129 39.935 21.439 38.318 21.439 36.701 21.439 35.391 20.129 35.391 18.512 35.391 16.895 36.701 15.585 38.318 15.585Z"/><path fill="#fff" d="M19.084 40.205C16.136 40.205 13.748 42.593 13.748 45.541 13.748 48.488 16.136 50.876 19.084 50.876 19.704 50.876 20.295 50.766 20.846 50.572 20.796 50.525 20.744 50.479 20.695 50.43 19.144 48.879 18.623 46.891 19.527 45.984 20.431 45.08 22.422 45.601 23.973 47.152 24.022 47.201 24.068 47.253 24.115 47.306 24.309 46.752 24.419 46.161 24.419 45.541 24.419 42.593 22.031 40.205 19.084 40.205ZM44.714 40.205C41.767 40.205 39.379 42.593 39.379 45.541 39.379 46.161 39.489 46.752 39.683 47.306 39.733 47.253 39.776 47.204 39.825 47.152 41.376 45.601 43.364 45.08 44.271 45.984 45.175 46.888 44.654 48.879 43.103 50.43 43.054 50.479 43.002 50.525 42.952 50.572 43.506 50.766 44.097 50.876 44.714 50.876 47.662 50.876 50.05 48.488 50.05 45.541 50.05 42.593 47.662 40.205 44.714 40.205Z"/></svg>