<?xml version="1.0" encoding="utf-8"?><!-- Uploaded to: SVG Repo, www.svgrepo.com, Generator: SVG Repo Mixer Tools -->
<svg width="800px" height="800px" viewBox="0 0 1024 1024" xmlns="http://www.w3.org/2000/svg">
   <circle cx="512" cy="512" r="512" style="fill:#0052cc"/>
   <path d="M413.7 462.6c-4.6-6-13.2-7.2-19.3-2.6-1.8 1.3-3.2 3.1-4.1 5.1L272 701.9c-3.5 7-.7 15.5 6.3 19 2 1 4.1 1.5 6.3 1.5h164.9c5.4.1 10.4-2.9 12.7-7.8 35.5-73.6 14-185.3-48.5-252zm86.9-215.4c-60 92.4-67 209.5-18.2 308.3l79.5 159c2.4 4.8 7.3 7.8 12.7 7.8h164.9c7.8 0 14.2-6.3 14.2-14.2 0-2.2-.5-4.4-1.5-6.3 0 0-221.8-443.7-227.4-454.8-3.2-6.6-11.2-9.4-17.9-6.2-2.8 1.5-5 3.7-6.3 6.4z" style="fill:#fff"/>
</svg>