<svg xmlns="http://www.w3.org/2000/svg" fill="none" viewBox="0 0 472 483" height="483" width="472">
<path fill="#008272" d="M0.666687 449.5V352.167H28.3334C36.8334 352.167 43.5 354.333 48.3334 358.333C53.1667 362.333 56 368.333 55.6667 374.333C55.8334 379.333 54.1667 384.5 51.1667 388.667C48 392.833 43.8334 395.833 39 397.333V397.833C44.8334 398.333 50.6667 401 54.6667 405.167C58.6667 409.667 60.8333 415.5 60.5 421.333C60.6667 429.167 57.5 436.5 51.6667 441.333C45.3334 446.667 37.3334 449.333 29.1667 449.167H0.666687V449.5V449.5ZM12 362.5V394H23.6667C29 394.167 34.1667 392.667 38.5 389.5C42.1667 386.333 44.1667 381.667 43.8334 376.833C43.8334 367.333 37.6667 362.667 25.3334 362.667L12 362.5V362.5ZM12 404.167V439.167H27.3334C34.1667 439.167 39.1667 437.5 43 434.5C46.8334 431.333 48.6667 426.5 48.5 421.333C48.5 410 40.6667 404 25 404H12V404.167V404.167ZM88 357.333C88 355.5 87.1667 353.5 85.8333 352.333C84.5 350.833 82.6667 350.167 80.5 350.167C78.6667 350.167 76.6667 350.833 75.5 352.333C74.1667 353.667 73.3333 355.5 73.3333 357.333C73.3333 359.167 74 361.167 75.5 362.667C78.5 365.333 82.8334 365.333 85.6667 362.667C87.1667 361 88 359.167 88 357.333ZM86.1667 380.5H75.1667V449.333H86.1667V380.5ZM161.667 407.333C161.667 398.333 159.833 391.333 155.833 386.167C151.833 381.167 146.167 378.833 138.5 378.833C129 378.667 120.333 383.667 116 391.833H115.833V380.167H104.667V449.167H115.667V410C115.5 404.333 117.333 398.667 121.167 394.167C124.5 390.167 129.667 387.833 134.833 388C145.667 388 150.833 395.333 150.833 410V449.167H161.833V407.333H161.667V407.333ZM239.667 444C239.667 469.333 227.667 482 203.333 482C195.5 482.167 188 480.5 181 477.167L184 467.5C189.833 470.833 196.5 472.5 203.167 472.333C220.333 472.333 228.667 463.333 228.667 445.333V438H228.5C223.833 446.667 214.5 451.667 204.833 451.333C194 451.5 184.167 445.167 180 435.333C177.5 429.667 176.167 423.5 176.333 417.333C176.333 405.5 179.333 396.167 185 389.333C190.667 382.333 199.167 378.5 208 379C217.333 379 224.167 382.833 228.667 390.167H228.833V380.667H239.833L239.667 444ZM228.833 418.333V408C229 402.667 227 397.667 223.167 393.833C219.5 390 214.667 388 209.5 388.167C203.167 388 197.333 390.667 193.5 395.833C189.667 400.833 187.833 407.667 187.833 416.667C187.667 423.167 189.5 429.5 193.333 434.833C197 439.5 202.333 442 208.167 441.833C213.833 442 219.333 439.5 223.167 435.333C227 430.5 229 424.333 228.833 418.333M219.833 121.333L251.833 201.333L302.667 224.667L199.333 284.5V26.1667L125.5 0.333344V326.667L199.333 367.833L383 262V178.833L219.833 121.333ZM329.833 449.667V435.667H329.667C327.5 440.333 324.167 444.333 320 447C315.833 449.667 311 451.167 306 451.167C300.333 451.333 294.667 449.5 290.333 445.667C286.333 442 284.167 436.833 284.5 431.5C284.5 419.333 292.5 411.833 308.5 409.5L329.833 406.333C329.833 391.333 324.167 384 313 384C305.333 384 297.833 387.167 290.667 393.333V385.667C293.833 383.333 297.5 381.667 301.167 380.333C305.167 379 309.333 378.167 313.667 378.167C320.833 378.167 326.333 380.333 330.333 384.667C334.333 389.167 336.167 395.667 336.167 404V449.167H329.833V449.667V449.667ZM290.833 431.5C290.667 435.5 292.167 439.167 295 441.833C298.167 444.5 302.167 445.833 306.333 445.667C312.667 445.833 319 443.167 323 438C327.5 432.667 330 425.833 329.5 418.833V412L310.333 414.667C302.5 416 297.333 417.667 294.667 420C292.333 422.667 290.833 426.5 290.833 431.5M406.5 449.667V437H406.333C404 441.5 400.5 445 396.167 447.5C391.667 450 386.5 451.5 381.167 451.333C373 451.5 365.333 448.167 360 441.833C354.667 435.5 352 426.833 352 416.167C351.833 409.333 353.333 402.833 356 396.833C358.333 391.333 362.333 386.667 367.333 383.333C372.167 380.167 378.167 378.5 384 378.5C394.333 378.5 402 382.667 406.333 391.333H406.5V346.667H412.833V449.667H406.333H406.5ZM406.5 407.333C406.667 401.167 404.333 395.167 400.167 390.667C396 386.167 390 383.833 383.667 384.167C376.667 384 370 387.167 365.5 392.833C360.833 398.5 358.333 406.167 358.333 415.833C358.333 425.167 360.5 432.333 364.5 437.833C368.5 443.167 374.833 446.333 381.333 446C388.167 446.167 394.667 443.667 399.5 439C404.167 434.167 406.667 427.333 406.333 420.667L406.5 407.333V407.333ZM431.5 446.5V438.833C434 441 436.833 442.5 439.667 443.5C442.667 444.833 445.5 445.333 448.667 445.333C459.667 445.333 465.167 440.833 465.167 432C465.167 429 463.833 426.333 461.833 424.333C458.167 421.333 454.167 419 449.833 417.333C444.833 415.5 440.167 412.5 436.167 408.667C433.167 405.5 431.667 401.333 432 396.833C431.833 391.5 434.167 386.5 438.333 383.167C443 379.5 448.667 377.667 454.333 377.833C459.667 377.667 464.833 378.833 469.5 381.5V388.667C464.833 385.5 459.167 383.833 453.5 383.667C449.5 383.5 445.5 384.667 442.5 387.333C439.833 389.667 438.333 393 438.333 396.667C438.167 398.833 438.5 401.167 439.667 403C440.667 404.667 442.167 406.167 443.833 407.167C446.5 409 449.667 410.5 452.667 411.833C460 415.167 465.167 418.167 467.833 420.833C470.5 423.833 471.833 427.833 471.667 431.833C471.833 437.167 469.5 442.333 465.333 445.833C460.5 449.667 454.333 451.333 448.167 451.167C442.333 451.667 436.333 449.833 431.5 446.5Z"></path>
</svg>
