<svg width="576" height="147" viewBox="0 0 576 147" fill="none" xmlns="http://www.w3.org/2000/svg">
<path d="M574.255 0H532.534C531.826 0 531.259 0.566676 531.259 1.27502V12.0064C531.259 12.7148 530.692 13.2815 529.984 13.2815H478.133C461.788 13.2815 448.046 24.3494 443.955 39.4017H443.938C443.787 39.9418 443.3 40.3491 442.707 40.3491C442.114 40.3491 441.627 39.9507 441.485 39.4017H441.467C437.385 24.3494 423.635 13.2815 407.29 13.2815H345.309C330.372 13.2815 317.604 22.5254 312.398 35.6032C311.884 36.8959 309.954 36.5152 309.945 35.1251L309.892 14.5565C309.892 13.857 309.317 13.2815 308.617 13.2815H212.495C197.566 13.2815 184.807 22.5165 179.592 35.5855C179.078 36.8782 177.148 36.4975 177.139 35.1074L177.077 1.27502C177.077 0.57553 176.502 0 175.802 0H134.072C133.373 0 132.797 0.566676 132.797 1.27502L132.735 35.1074C132.735 36.5063 130.805 36.8871 130.282 35.5855C125.076 22.5165 112.308 13.2815 97.3797 13.2815H45.5289C44.8205 13.2815 44.2539 12.7148 44.2539 12.0064V1.27502C44.2539 0.566676 43.6872 0 42.9788 0H1.27502C0.566676 0 0 0.566676 0 1.27502V56.278C0 56.9864 0.566676 57.553 1.27502 57.553H574.255C574.964 57.553 575.53 56.9864 575.53 56.278V1.27502C575.53 0.566676 574.964 0 574.255 0Z" fill="#151515"/>
<path d="M574.26 101.825H1.44787C0.739528 101.825 0.172852 102.392 0.172852 103.1V144.821C0.172852 145.53 0.739528 146.096 1.44787 146.096H97.4021C112.339 146.096 125.107 136.852 130.314 123.775C130.827 122.482 132.757 122.863 132.766 124.253L132.819 144.83C132.819 145.53 133.395 146.105 134.094 146.105H175.825C176.524 146.105 177.1 145.539 177.1 144.83L177.153 124.253C177.153 122.863 179.092 122.473 179.605 123.775C184.812 136.852 197.58 146.096 212.517 146.096H441.454C442.154 146.096 442.729 145.53 442.729 144.821L442.782 124.253C442.782 122.863 444.721 122.473 445.235 123.775C450.441 136.852 463.209 146.096 478.146 146.096H574.269C574.977 146.096 575.544 145.53 575.544 144.821V103.1C575.544 102.392 574.977 101.825 574.269 101.825H574.26Z" fill="#151515"/>
<path d="M575.532 79.7897C575.532 84.2492 572.083 87.4893 567.832 87.4893C563.582 87.4893 560.133 84.2492 560.133 79.7897C560.133 75.3303 563.582 72.0902 567.832 72.0902C572.083 72.0902 575.532 75.3303 575.532 79.7897ZM573.929 79.7897C573.929 76.2361 571.316 73.5186 567.832 73.5186C564.348 73.5186 561.735 76.2361 561.735 79.7897C561.735 83.3434 564.348 86.0608 567.832 86.0608C571.316 86.0608 573.929 83.3434 573.929 79.7897ZM566.578 80.3123V83.7963H564.662V75.6787H568.564C570.306 75.6787 571.351 76.6193 571.351 77.9781C571.351 78.9884 570.724 79.9639 569.435 80.2426L571.7 83.7963H569.574L567.379 80.3123H566.578ZM568.216 77.0374H566.578V78.9884H568.216C568.982 78.9884 569.33 78.5355 569.33 78.0129C569.33 77.4555 568.982 77.0374 568.216 77.0374Z" fill="#151515"/>
</svg>
