<svg width="360" height="360" viewBox="0 0 360 360" fill="none" xmlns="http://www.w3.org/2000/svg">
<rect width="360" height="360" fill="white"/>
<rect width="360" height="360" fill="#131316"/>
<circle cx="188.437" cy="180" r="35.1561" fill="white"/>
<path d="M250.965 86.4632C254.479 88.8172 254.78 93.7693 251.789 96.7603L226.097 122.452C223.775 124.774 220.173 125.141 217.25 123.644C208.608 119.216 198.814 116.719 188.437 116.719C153.488 116.719 125.156 145.05 125.156 179.999C125.156 190.377 127.654 200.171 132.081 208.813C133.578 211.735 133.212 215.337 130.89 217.659L105.198 243.351C102.207 246.342 97.2547 246.042 94.9007 242.527C82.9232 224.646 75.9375 203.138 75.9375 179.999C75.9375 117.868 126.305 67.5 188.437 67.5C211.576 67.5 233.083 74.4857 250.965 86.4632Z" fill="#9394A1"/>
<path d="M251.789 263.238C254.78 266.23 254.479 271.182 250.965 273.536C233.083 285.513 211.576 292.499 188.437 292.499C165.298 292.499 143.79 285.513 125.909 273.536C122.394 271.182 122.094 266.23 125.085 263.239L150.777 237.547C153.099 235.225 156.701 234.858 159.624 236.355C168.266 240.783 178.059 243.28 188.437 243.28C198.814 243.28 208.608 240.783 217.25 236.355C220.173 234.858 223.775 235.225 226.097 237.547L251.789 263.238Z" fill="white"/>
</svg>
