<svg width="500" height="500" viewBox="0 0 500 500" fill="none" xmlns="http://www.w3.org/2000/svg">
<g clip-path="url(#clip0_1906_2896)">
<path d="M250 500C388.071 500 500 388.071 500 250C500 111.929 388.071 0 250 0C111.929 0 0 111.929 0 250C0 388.071 111.929 500 250 500Z" fill="white"/>
<path d="M392.324 226.964L351.664 217.525L344.403 214.621L157.801 216.073V306.107L392.324 306.833V226.964Z" fill="white"/>
<path d="M316.087 298.12C317.256 295.028 317.668 291.701 317.289 288.417C316.91 285.133 315.751 281.987 313.909 279.242C312.017 276.974 309.697 275.101 307.081 273.731C304.464 272.36 301.603 271.519 298.662 271.255L172.324 269.803C171.598 269.803 170.872 269.077 170.146 269.077C169.977 268.95 169.839 268.786 169.745 268.597C169.65 268.408 169.601 268.199 169.601 267.988C169.601 267.777 169.65 267.568 169.745 267.379C169.839 267.19 169.977 267.026 170.146 266.899C170.872 265.447 171.598 264.721 173.05 264.721L300.114 263.268C308.18 262.373 315.863 259.345 322.371 254.496C328.88 249.647 333.979 243.151 337.144 235.677L344.405 216.799C344.405 216.073 345.131 215.347 344.405 214.621C340.457 197.039 330.878 181.225 317.123 169.584C303.367 157.943 286.188 151.11 268.194 150.124C250.201 149.138 232.378 154.053 217.433 164.121C202.488 174.19 191.238 188.862 185.393 205.908C177.805 200.489 168.55 197.918 159.254 198.647C150.724 199.599 142.77 203.423 136.7 209.493C130.631 215.562 126.806 223.516 125.855 232.047C125.371 236.414 125.617 240.83 126.581 245.116C112.778 245.498 99.668 251.25 90.0405 261.149C80.413 271.047 75.0274 284.312 75.0293 298.12C74.9102 300.803 75.1544 303.49 75.7554 306.107C75.7887 306.674 76.029 307.209 76.4304 307.61C76.8319 308.012 77.3668 308.252 77.9337 308.285H311.005C312.457 308.285 313.909 307.559 313.909 306.107L316.087 298.12Z" fill="#F48120"/>
<path d="M356.02 216.799H352.39C351.664 216.799 350.938 217.525 350.212 218.252L345.129 235.677C343.961 238.77 343.549 242.097 343.928 245.381C344.307 248.665 345.466 251.81 347.307 254.555C349.199 256.824 351.52 258.697 354.136 260.067C356.752 261.437 359.613 262.279 362.555 262.542L389.42 263.994C390.146 263.994 390.872 264.721 391.598 264.721C391.767 264.847 391.905 265.012 391.999 265.201C392.094 265.39 392.143 265.598 392.143 265.81C392.143 266.021 392.094 266.229 391.999 266.419C391.905 266.608 391.767 266.772 391.598 266.899C390.872 268.351 390.146 269.077 388.694 269.077L361.103 270.529C353.036 271.424 345.354 274.452 338.845 279.302C332.337 284.151 327.238 290.647 324.073 298.12L322.621 304.655C321.895 305.381 322.621 306.833 324.073 306.833H419.915C420.211 306.875 420.513 306.848 420.796 306.754C421.08 306.659 421.338 306.5 421.549 306.289C421.76 306.077 421.92 305.82 422.014 305.536C422.109 305.252 422.136 304.951 422.094 304.655C423.822 298.503 424.797 292.164 424.998 285.777C424.883 267.518 417.579 250.04 404.668 237.13C391.757 224.219 374.279 216.914 356.02 216.799Z" fill="#FAAD3F"/>
</g>
<defs>
<clipPath id="clip0_1906_2896">
<rect width="500" height="500" fill="white"/>
</clipPath>
</defs>
</svg>
