<?xml version="1.0" encoding="utf-8"?>
<svg viewBox="0 0 195 176" fill="none" xmlns="http://www.w3.org/2000/svg">
    <path fill-rule="evenodd" clip-rule="evenodd" d="M141.819 -8.93872e-07C152.834 -4.002e-07 161.763 9.02087 161.763 20.1487L161.763 55.9685C161.763 67.0964 152.834 76.1172 141.819 76.1172C130.805 76.1172 121.876 67.0963 121.876 55.9685L121.876 20.1487C121.876 9.02087 130.805 -1.38754e-06 141.819 -8.93872e-07Z" fill="#FF5543"/>
    <path fill-rule="evenodd" clip-rule="evenodd" d="M15.5111 47.0133C15.5111 35.8855 24.44 26.8646 35.4543 26.8646H70.9088C81.9231 26.8646 90.8519 35.8855 90.8519 47.0133C90.8519 58.1411 81.9231 67.162 70.9088 67.162H35.4543C24.44 67.162 15.5111 58.1411 15.5111 47.0133Z" fill="#A112FF"/>
    <path fill-rule="evenodd" clip-rule="evenodd" d="M189.482 105.669C196.58 112.482 196.868 123.818 190.125 130.989L183.85 137.662C134.75 189.88 51.971 188.579 4.50166 134.844C-2.01751 127.464 -1.38097 116.142 5.92343 109.556C13.2278 102.97 24.434 103.613 30.9532 110.993C64.6181 149.101 123.324 150.024 158.146 112.991L164.42 106.318C171.164 99.1472 182.384 98.8565 189.482 105.669Z" fill="#00CBEC"/>
</svg>
