<?xml version="1.0" encoding="UTF-8"?>
<svg version="1.1" xmlns="http://www.w3.org/2000/svg" width="512" height="512">
<path d="M0 0 C1.61047971 -0.00346262 3.22095704 -0.00823121 4.83142948 -0.01418173 C9.22782911 -0.02663847 13.62403191 -0.02054577 18.020432 -0.01122308 C22.77306443 -0.00441098 27.52566398 -0.0149245 32.27828979 -0.02316284 C41.57721491 -0.03647936 50.87606725 -0.03363171 60.17499518 -0.02492492 C67.73468099 -0.01814059 75.29434645 -0.0172349 82.85403442 -0.02049637 C83.93133475 -0.02095607 85.00863508 -0.02141577 86.11858088 -0.0218894 C88.3073237 -0.0228486 90.49606652 -0.02382124 92.68480933 -0.02480717 C113.19259454 -0.03335497 133.70033947 -0.0235365 154.20811808 -0.00740607 C171.79200448 0.00599655 189.37583147 0.00366828 206.9597168 -0.01016235 C227.39579337 -0.02622894 247.83183467 -0.03253105 268.26791668 -0.02332556 C270.44845771 -0.02236995 272.62899875 -0.02142684 274.80953979 -0.02049637 C275.8823144 -0.02003354 276.95508901 -0.01957072 278.06037194 -0.01909386 C285.60805648 -0.01650721 293.15571859 -0.02086796 300.70339966 -0.02793503 C309.90567744 -0.0363622 319.10787849 -0.03404429 328.31014752 -0.0180928 C333.00227788 -0.01022649 337.69428044 -0.00709046 342.38640976 -0.01704025 C346.68703093 -0.02602169 350.98740661 -0.02099784 355.28800571 -0.0051076 C356.83831888 -0.00177434 358.38865307 -0.00342083 359.93895257 -0.01073496 C372.15609168 -0.06392337 383.10246501 1.39699003 394.01928711 7.13095093 C394.69999268 7.48165649 395.38069824 7.83236206 396.08203125 8.19369507 C401.48772018 11.05097858 406.30038456 14.25429502 410.83178711 18.38095093 C411.5884668 19.05770874 412.34514648 19.73446655 413.12475586 20.43173218 C425.32241774 31.93471985 433.83555369 48.1808942 435.10678363 65.02464485 C435.21689411 69.20252001 435.23245307 73.37037245 435.21273804 77.54916382 C435.21620065 79.15964353 435.22096925 80.77012086 435.22691977 82.3805933 C435.23937651 86.77699292 435.2332838 91.17319573 435.22396111 95.56959581 C435.21714902 100.32222825 435.22766253 105.0748278 435.23590088 109.82745361 C435.2492174 119.12637873 435.24636975 128.42523107 435.23766296 137.724159 C435.23087862 145.28384481 435.22997293 152.84351026 435.23323441 160.40319824 C435.2336941 161.48049857 435.2341538 162.5577989 435.23462743 163.6677447 C435.23558664 165.85648752 435.23655928 168.04523034 435.23754521 170.23397315 C435.24609301 190.74175836 435.23627454 211.24950329 435.22014411 231.7572819 C435.20674149 249.3411683 435.20906975 266.92499528 435.22290039 284.50888062 C435.23896697 304.94495719 435.24526909 325.38099849 435.2360636 345.8170805 C435.23510799 347.99762153 435.23416487 350.17816257 435.23323441 352.35870361 C435.23277158 353.43147822 435.23230875 354.50425283 435.2318319 355.60953575 C435.22924525 363.1572203 435.233606 370.70488241 435.24067307 378.25256348 C435.24910024 387.45484126 435.24678232 396.65704231 435.23083083 405.85931134 C435.22296452 410.5514417 435.2198285 415.24344426 435.22977829 419.93557358 C435.23875973 424.23619475 435.23373588 428.53657043 435.21784563 432.83716953 C435.21451238 434.3874827 435.21615887 435.93781688 435.223473 437.48811638 C435.27666141 449.7052555 433.81574801 460.65162882 428.08178711 471.56845093 C427.73108154 472.24915649 427.38037598 472.92986206 427.01904297 473.63119507 C424.16175946 479.036884 420.95844302 483.84954838 416.83178711 488.38095093 C416.1550293 489.13763062 415.47827148 489.8943103 414.78100586 490.67391968 C403.27801819 502.87158156 387.03184384 511.38471751 370.18809319 512.65594745 C366.01021803 512.76605792 361.84236559 512.78161689 357.66357422 512.76190186 C356.05309451 512.76536447 354.44261718 512.77013307 352.83214474 512.77608359 C348.43574511 512.78854033 344.03954231 512.78244762 339.64314222 512.77312493 C334.89050979 512.76631283 330.13791024 512.77682635 325.38528442 512.7850647 C316.0863593 512.79838122 306.78750697 512.79553357 297.48857903 512.78682677 C289.92889323 512.78004244 282.36922777 512.77913675 274.80953979 512.78239822 C273.73223947 512.78285792 272.65493914 512.78331762 271.54499334 512.78379125 C269.35625052 512.78475046 267.1675077 512.7857231 264.97876489 512.78670903 C244.47097968 512.79525682 223.96323474 512.78543836 203.45545614 512.76930793 C185.87156973 512.75590531 168.28774275 512.75823357 150.70385742 512.77206421 C130.26778085 512.78813079 109.83173955 512.79443291 89.39565754 512.78522742 C87.21511651 512.7842718 85.03457547 512.78332869 82.85403442 512.78239822 C81.78125982 512.7819354 80.70848521 512.78147257 79.60320228 512.78099572 C72.05551774 512.77840907 64.50785563 512.78276982 56.96017456 512.78983688 C47.75789677 512.79826406 38.55569573 512.79594614 29.35342669 512.77999465 C24.66129634 512.77212834 19.96929378 512.76899232 15.27716446 512.77894211 C10.97654329 512.78792355 6.67616761 512.78289969 2.37556851 512.76700945 C0.82525534 512.7636762 -0.72507885 512.76532269 -2.27537835 512.77263682 C-14.49251746 512.82582523 -25.43889079 511.36491182 -36.35571289 505.63095093 C-37.03641846 505.28024536 -37.71712402 504.92953979 -38.41845703 504.56820679 C-43.82414597 501.71092328 -48.63681035 498.50760684 -53.16821289 494.38095093 C-53.92489258 493.70419312 -54.68157227 493.0274353 -55.46118164 492.33016968 C-67.65884352 480.82718201 -76.17197947 464.58100765 -77.44320941 447.737257 C-77.55331989 443.55938185 -77.56887885 439.39152941 -77.54916382 435.21273804 C-77.55262643 433.60225833 -77.55739503 431.99178099 -77.56334555 430.38130856 C-77.57580229 425.98490893 -77.56970958 421.58870612 -77.5603869 417.19230604 C-77.5535748 412.43967361 -77.56408832 407.68707406 -77.57232666 402.93444824 C-77.58564318 393.63552312 -77.58279553 384.33667079 -77.57408874 375.03774285 C-77.5673044 367.47805705 -77.56639871 359.91839159 -77.56966019 352.35870361 C-77.57011989 351.28140328 -77.57057958 350.20410295 -77.57105321 349.09415716 C-77.57201242 346.90541434 -77.57298506 344.71667152 -77.57397099 342.52792871 C-77.58251879 322.0201435 -77.57270032 301.51239856 -77.55656989 281.00461996 C-77.54316727 263.42073355 -77.54549553 245.83690657 -77.55932617 228.25302124 C-77.57539276 207.81694467 -77.58169487 187.38090337 -77.57248938 166.94482136 C-77.57153377 164.76428032 -77.57059065 162.58373929 -77.56966019 160.40319824 C-77.56919736 159.33042364 -77.56873453 158.25764903 -77.56825768 157.1523661 C-77.56567103 149.60468156 -77.57003178 142.05701945 -77.57709885 134.50933838 C-77.58552602 125.30706059 -77.5832081 116.10485955 -77.56725661 106.90259051 C-77.55939031 102.21046016 -77.55625428 97.51845759 -77.56620407 92.82632828 C-77.57518551 88.52570711 -77.57016166 84.22533143 -77.55427141 79.92473233 C-77.55093816 78.37441916 -77.55258465 76.82408497 -77.55989878 75.27378547 C-77.61308719 63.05664636 -76.15217379 52.11027303 -70.41821289 41.19345093 C-70.06750732 40.51274536 -69.71680176 39.83203979 -69.35546875 39.13070679 C-66.49818524 33.72501785 -63.2948688 28.91235347 -59.16821289 24.38095093 C-58.49145508 23.62427124 -57.81469727 22.86759155 -57.11743164 22.08798218 C-41.61668927 5.65113813 -21.98599476 -0.10372727 0 0 Z " fill="#059669" transform="translate(77.168212890625,-0.380950927734375)"/>
<path d="M0 0 C32.01 0 64.02 0 97 0 C97 29 97 29 88 40 C65.04182361 69.8391071 58.32291084 99.83342652 56 137 C44.12 137 32.24 137 20 137 C20 127.05754302 20.13870369 118.55544476 22 109 C22.17144531 108.02289063 22.34289062 107.04578125 22.51953125 106.0390625 C28.26152725 77.2179471 44.17745692 53.68323665 62 31 C41.54 30.67 21.08 30.34 0 30 C0 20.1 0 10.2 0 0 Z " fill="#FDFEFE" transform="translate(299,96)"/>
<path d="M0 0 C11.88 0 23.76 0 36 0 C36.2475 4.228125 36.495 8.45625 36.75 12.8125 C39.31952913 50.79665243 53.08982322 78.7764506 77 108 C77 117.57 77 127.14 77 137 C44.99 137 12.98 137 -20 137 C-20 127.1 -20 117.2 -20 107 C10.69 106.505 10.69 106.505 42 106 C36.555 99.07 36.555 99.07 31 92 C17.11556858 72.80199849 7.33914236 52.12734028 2 29 C1.77441406 28.09507812 1.54882812 27.19015625 1.31640625 26.2578125 C-0.66159477 17.28178031 0 9.65118006 0 0 Z " fill="#FDFEFE" transform="translate(319,279)"/>
<path d="M0 0 C32.01 0 64.02 0 97 0 C97 9.9 97 19.8 97 30 C76.54 30.33 56.08 30.66 35 31 C38.63 35.62 42.26 40.24 46 45 C65.98593964 73.37509948 77 101.99059022 77 137 C65.12 137 53.24 137 41 137 C40.7525 132.7925 40.505 128.585 40.25 124.25 C37.63546192 85.94712812 24.08422067 58.43626971 0 29 C0 19.43 0 9.86 0 0 Z " fill="#FDFEFE" transform="translate(116,96)"/>
<path d="M0 0 C11.88 0 23.76 0 36 0 C36 17.55182342 36 17.55182342 34.375 25.8125 C34.19678711 26.74336426 34.01857422 27.67422852 33.83496094 28.63330078 C30.7740514 43.81613717 25.3549221 57.42277134 18 71 C17.68836914 71.59232422 17.37673828 72.18464844 17.05566406 72.79492188 C10.69836875 84.86369202 2.49437796 95.38202755 -6 106 C14.46 106.33 34.92 106.66 56 107 C56 116.9 56 126.8 56 137 C23.99 137 -8.02 137 -41 137 C-41 108 -41 108 -32 97 C-9.00699635 67.11562735 -2.28909279 37.19775783 0 0 Z " fill="#FDFEFE" transform="translate(157,279)"/>
</svg>
