<svg xmlns="http://www.w3.org/2000/svg" fill="none" viewBox="0 0 320 320" height="320" width="320">
<rect fill="white" height="320" width="320"></rect>
<g clip-path="url(#clip0_6_406)">
<path fill="white" d="M201.545 142.571C200.29 138.484 193.749 130.333 193.28 129.885C191.635 128.308 193.562 122.203 190.298 115.551C186.853 108.511 177.886 101.171 173.992 97.976C175.141 98.8161 182.209 101.663 185.495 105.641C185.798 105.228 185.933 103.094 186.217 102.555C183.393 98.8524 183.169 92.2484 183.169 90.4941C183.035 88.1154 182.477 85.7797 181.524 83.5965C183.347 85.1847 184.598 87.327 185.087 89.6949C185.835 93.8055 187.604 97.662 190.233 100.909C194.844 106.661 199.012 109.602 201.113 107.477C203.632 104.927 198.561 93.5199 192.078 87.146C184.51 79.7291 182.533 80.6797 178.101 82.266C174.559 83.5268 172.645 93.5819 163.419 93.3836C161.856 93.2035 157.828 93.1021 155.839 93.1203C156.877 91.6732 157.763 90.5471 157.763 90.5471C155.79 91.3569 153.875 92.3006 152.031 93.3715L151.829 93.0688C152.333 91.9849 152.953 90.9588 153.677 90.0082C152.043 91.0085 150.465 92.0974 148.95 93.2701C149.231 91.8846 149.916 90.6132 150.918 89.6162C150.918 89.6162 147.792 90.1808 143.804 94.5567C140.615 95.4552 137.527 96.6775 134.587 98.2046C128.727 96.9331 125.96 94.861 123.326 91.0632C121.317 88.1631 117.75 87.7211 114.093 89.2272C108.772 91.4235 102.04 94.4281 102.04 94.4281C102.04 94.4281 104.228 94.3433 106.515 94.4462C104.416 95.267 102.366 96.2096 100.376 97.2692C100.376 97.2692 101.844 97.2192 103.653 97.2495C102.66 98.0882 101.615 98.8632 100.524 99.5699C98.6845 100.926 96.9518 102.423 95.3418 104.046C96.5403 103.509 97.7713 103.048 99.0275 102.665C97.8166 105.462 95.3948 107.518 95.8352 110.943C96.2591 114.071 100.099 120.507 105.053 124.457C105.477 124.804 112.254 131.06 117.349 128.489C122.443 125.919 124.463 123.637 125.298 120.125C126.287 116.096 125.722 113.055 123.618 104.314C122.926 101.427 121.116 95.4846 120.244 92.6435L120.438 92.5027C123.441 98.6563 126 105.017 128.097 111.535C130.781 121.254 129.944 126.186 128.716 127.991C125.012 133.441 115.514 134.164 111.194 131.143C110.533 141.608 112.871 146.214 113.661 148.536C113.266 151.203 114.998 156.16 114.998 156.16C115.098 154.96 115.434 153.791 115.986 152.721C116.242 154.711 116.762 156.658 117.533 158.509C117.503 157.281 117.681 156.057 118.06 154.889C118.749 155.905 119.515 156.866 120.352 157.765C120.872 159.526 121.695 161.183 122.784 162.661C122.624 161.637 122.584 160.597 122.664 159.563C126.626 163.376 127.307 168.92 127.702 173.186C128.819 184.916 109.21 194.239 105.415 201.575C102.539 205.918 100.812 212.793 105.686 216.845C117.476 226.632 112.951 229.328 118.855 233.63C126.947 239.533 137.076 236.885 140.525 232.087C145.325 225.4 144.09 219.099 142.305 213.194C140.914 208.579 137.127 200.911 132.441 197.946C128.482 195.368 123.753 194.24 119.057 194.753L119.422 194.331C125.095 193.2 131.023 193.824 135.315 196.589C141.135 200.534 145.287 206.494 146.97 213.32C149.612 212.944 149.987 212.772 152.404 212.43L146.955 170.048L158.459 168.782C153.563 165.583 149.057 161.824 145.031 157.582C144.621 157.279 144.688 155.901 144.688 155.901C151.061 160.74 158.163 164.533 165.727 167.14C167.892 167.835 170.174 168.094 172.439 167.9C174.705 167.706 176.909 167.064 178.925 166.011C182.873 163.745 186.322 160.705 189.066 157.073L189.52 157.866C189.091 159.298 188.505 160.679 187.774 161.983C188.721 162.491 189.737 162.859 190.79 163.078L198.812 161.827C200.563 158.976 201.709 155.795 202.179 152.483C202.649 149.17 202.433 145.796 201.545 142.571ZM158.138 131.707C156.036 131.993 153.965 132.474 151.952 133.142C150.642 133.565 149.361 134.073 148.118 134.665C147.772 134.437 147.442 134.187 147.129 133.916C146.239 133.199 145.527 132.287 145.047 131.25C144.567 130.214 144.332 129.08 144.361 127.938C144.391 126.796 144.683 125.676 145.215 124.665C145.748 123.654 146.507 122.779 147.432 122.109C152.819 118.439 159.764 119.881 158.598 120.98C156.384 123.089 159.332 122.465 159.658 126.358C159.801 127.307 159.74 128.275 159.478 129.197C159.215 130.12 158.759 130.976 158.138 131.707ZM185.801 115.692C190.816 118.027 190.159 122.47 190.298 125.076C190.343 125.61 190.33 126.148 190.259 126.679C189.155 126.175 187.936 125.976 186.729 126.104C186.232 126.126 185.737 126.177 185.246 126.255C183.437 125.043 182.05 123.297 181.279 121.26C181.196 121.087 181.119 120.912 181.048 120.734C181.023 120.659 180.986 120.582 180.959 120.51C180.947 120.472 180.938 120.44 180.924 120.405C180.37 118.643 180.743 118.286 180.977 117.746C181.212 117.205 182.123 116.735 180.787 116.271C180.648 116.226 180.507 116.194 180.363 116.174C181.25 115.082 183.906 114.812 185.801 115.692ZM195.455 147.106C194.157 150.098 192.316 153.398 190.232 153.669C186.837 154.123 183.623 152.282 179.954 149.541C179.572 149.287 179.254 148.95 179.023 148.554C178.792 148.158 178.654 147.714 178.621 147.257C178.588 146.8 178.66 146.341 178.831 145.916C179.003 145.491 179.269 145.111 179.61 144.805C182.609 143.363 185.838 142.461 189.149 142.139C191.099 141.808 193.09 141.797 195.044 142.108C196.348 142.821 196.348 145.047 195.455 147.106Z"></path>
<path fill="white" d="M161.608 221.921L160.978 216.042L173.225 197.363L187.128 201.428L199.085 181.448L213.421 190.907L224.31 168.071L228.18 209.659L161.608 221.921ZM228.332 159.546L184.565 167.48C183.125 169.231 181.42 170.747 179.513 171.971C177.62 173.008 175.535 173.645 173.386 173.84C171.237 174.036 169.071 173.787 167.022 173.11C165.309 172.743 163.636 172.208 162.027 171.513L151.344 172.982L157.827 227.081L232.796 213.565L228.332 159.546Z"></path>
</g>
<path fill="#632CA6" d="M245.375 158.578L253.422 237.016L154.859 248.875L152.719 233.594L146.766 234.453C147.281 242.969 145.297 251.062 141.531 254.938C137.125 259.453 130.719 260.625 123.969 259.625C119.438 259.016 116.063 255.734 113.563 251.719C122.938 258.312 134.484 255.266 138.438 249.75C139.997 247.663 141.128 245.288 141.766 242.762C142.405 240.236 142.537 237.609 142.156 235.031L86.8125 243.062L66.5781 79.0312L230.734 60L240.359 159.531L245.375 158.578Z"></path>
<path fill="white" d="M159.297 176.125C153.594 172.423 148.35 168.059 143.672 163.125C143.188 162.766 143.266 161.172 143.266 161.172C150.669 166.797 158.924 171.201 167.719 174.219C170.232 175.03 172.882 175.333 175.513 175.111C178.145 174.888 180.706 174.144 183.047 172.922C187.63 170.295 191.633 166.765 194.813 162.547L195.344 163.469C194.852 165.132 194.176 166.736 193.328 168.25C194.425 168.844 195.605 169.271 196.828 169.516L206.203 168.062C208.23 164.749 209.553 161.054 210.091 157.208C210.628 153.361 210.369 149.445 209.328 145.703C207.875 141.016 200.281 131.484 199.734 130.969C197.828 129.141 200.063 122.062 196.281 114.328C192.266 106.156 181.875 97.6405 177.328 93.9374C178.656 94.9061 186.859 98.2186 190.688 102.828C191.047 102.359 191.188 99.8749 191.516 99.2499C188.234 94.9374 187.984 87.2811 187.984 85.1874C187.83 82.4286 187.184 79.7195 186.078 77.1874C188.2 79.0264 189.656 81.5146 190.219 84.2655C191.083 89.0413 193.136 93.5226 196.188 97.2968C201.547 103.953 206.375 107.375 208.812 104.922C211.75 101.953 205.859 88.7186 198.328 81.328C189.547 72.703 187.25 73.8124 182.094 75.6561C177.984 77.1249 175.844 88.7811 165.047 88.5624C163.234 88.3436 158.563 88.2343 156.234 88.2499C157.438 86.5624 158.438 85.328 158.438 85.328C156.154 86.268 153.936 87.3589 151.797 88.5936L151.562 88.2499C152.157 86.9846 152.89 85.7896 153.75 84.6874C151.856 85.8559 150.026 87.1232 148.266 88.4843C148.582 86.8784 149.371 85.4037 150.531 84.2499C150.531 84.2499 146.906 84.8905 142.281 89.9843C138.573 91.025 134.981 92.4439 131.563 94.2186C124.766 92.7343 121.547 90.328 118.484 85.9218C116.156 82.5624 112 82.0468 107.781 83.7811C101.531 86.3436 93.7188 89.828 93.7188 89.828C93.7188 89.828 96.2656 89.7343 98.9219 89.828C96.4876 90.7823 94.1089 91.8725 91.7969 93.0936C91.7969 93.0936 93.5 93.0936 95.6094 93.0936C94.4738 94.0632 93.2788 94.9607 92.0313 95.7811C89.8951 97.358 87.8839 99.0976 86.0156 100.984C87.4075 100.372 88.8376 99.8497 90.2969 99.4218C88.8906 102.656 86.0781 105.047 86.5938 109.016C87.0938 112.656 91.5469 120.125 97.2969 124.641C97.7969 125.047 105.641 132.312 111.563 129.328C117.484 126.344 119.828 123.703 120.797 119.625C121.938 114.937 121.297 111.406 118.844 101.266C118.031 97.9218 115.938 91.0155 114.922 87.7186L115.156 87.5468C118.653 94.7033 121.63 102.103 124.063 109.687C127.188 120.937 126.188 126.687 124.75 128.75C120.453 135 109.438 135.906 104.438 132.406C103.672 144.562 106.375 149.906 107.297 152.594C106.844 155.719 108.859 161.453 108.859 161.453C108.986 160.075 109.373 158.734 110 157.5C110.287 159.815 110.886 162.08 111.781 164.234C111.74 162.799 111.941 161.368 112.375 160C113.186 161.176 114.079 162.293 115.047 163.344C115.625 165.398 116.561 167.334 117.813 169.062C117.672 167.869 117.672 166.662 117.813 165.469C122.406 169.875 123.203 176.406 123.656 181.281C124.875 194.891 102.188 205.703 97.7031 214.234C94.3594 219.281 92.3594 227.25 98.0156 231.969C111.703 243.328 106.453 246.453 113.297 251.453C122.672 258.297 134.453 255.234 138.453 249.656C144.016 241.844 142.594 234.578 140.516 227.781C138.953 222.422 134.516 213.531 129.078 210.078C124.455 207.074 118.933 205.766 113.453 206.375L113.875 205.891C120.469 204.578 127.344 205.297 132.328 208.516C137.984 212.141 143.156 218.375 145.859 227.937C148.984 227.5 149.359 227.297 152.109 226.906L145.859 177.687L159.297 176.125ZM191.016 114.687C196.844 117.391 196.078 122.5 196.234 125.625C196.305 126.243 196.305 126.866 196.234 127.484C194.955 126.895 193.541 126.663 192.141 126.812C191.565 126.841 190.991 126.904 190.422 127C188.291 125.606 186.651 123.579 185.734 121.203L185.469 120.594L185.359 120.328V120.203C184.703 118.156 185.141 117.75 185.359 117.078C185.578 116.406 186.688 115.891 185.125 115.359C184.967 115.309 184.805 115.272 184.641 115.25C185.734 113.969 188.812 113.656 191.016 114.687ZM183.828 148.484C184.953 147.594 190.078 145.953 194.906 145.359C197.406 145.062 200.969 144.906 201.734 145.359C203.297 146.187 203.297 148.766 202.219 151.172C200.656 154.641 198.578 158.469 196.156 158.781C192.219 159.312 188.484 157.219 184.234 154C183.784 153.707 183.408 153.314 183.135 152.852C182.862 152.39 182.7 151.87 182.66 151.335C182.621 150.8 182.706 150.262 182.908 149.765C183.111 149.268 183.426 148.824 183.828 148.469V148.484ZM146.469 122.109C152.719 117.844 160.781 119.531 159.438 120.812C156.859 123.25 160.281 122.531 160.656 127.062C160.83 128.169 160.763 129.299 160.461 130.378C160.159 131.456 159.629 132.457 158.906 133.312C156.463 133.651 154.057 134.216 151.719 135C150.201 135.5 148.714 136.09 147.266 136.766C146.868 136.503 146.487 136.216 146.125 135.906C145.077 135.074 144.236 134.011 143.669 132.799C143.102 131.587 142.824 130.26 142.858 128.922C142.891 127.584 143.234 126.273 143.861 125.09C144.488 123.908 145.38 122.888 146.469 122.109ZM240.391 165.578L189.594 174.797C187.926 176.828 185.949 178.584 183.734 180C181.534 181.201 179.11 181.938 176.614 182.166C174.118 182.395 171.601 182.109 169.219 181.328C167.231 180.898 165.289 180.276 163.422 179.469L151 181.187L158.547 244L245.578 228.375L240.391 165.578ZM162.938 238L162.219 231.172L176.422 209.484L192.562 214.172L206.438 190.984L223.078 201.922L235.734 175.359L240.219 223.656L162.938 238Z"></path>
<defs>
<clipPath id="clip0_6_406">
<rect transform="translate(60.0996 60.1001)" fill="white" height="199.8" width="199.8"></rect>
</clipPath>
</defs>
</svg>
