<svg xmlns="http://www.w3.org/2000/svg" xmlns:xlink="http://www.w3.org/1999/xlink" id="Layer_1" x="0px" y="0px" viewBox="0 0 129.3 129.3" style="enable-background:new 0 0 129.3 129.3;" xml:space="preserve"><style type="text/css">	.st0{fill:#FFFFFF;}	.st1{fill:#000433;}	.st2{fill:#FC3165;}</style><g>	<g>		<path class="st2" d="M118.6,54.4c3.8,3.9,3.7,10.1-0.3,14c-3.9,3.8-10.3,3.8-14.1-0.1c-3.7-3.9-3.6-10.4,0.3-14.1   C108.5,50.3,114.7,50.4,118.6,54.4z"></path>		<path class="st2" d="M91.8,80.3c0.2-18.6,0.1-37.1,0-55.7c0-6.4-4.2-10.9-10-10.9c-5.8,0-9.9,4.5-9.9,10.9c0,8,0,16.1,0.1,24.5   c-1.4-0.5-2.4-0.9-3.3-1.2c-16.7-5.8-35.1,1.8-42.7,17.7c-7.7,15.8-2.4,34.9,12.5,44.2c11.5,7.2,23.5,7.7,35.3,1.2   C85.6,104.5,91.6,93.9,91.8,80.3z M46.3,90.9c-5.4-5.9-5.2-15.6,0.5-20.9c6-5.6,15.6-5.3,21.1,0.6c5.5,6,5.2,15.3-0.7,20.8   C61.2,96.9,51.7,96.7,46.3,90.9z"></path>	</g></g></svg>