<svg width="2500" height="1196" viewBox="0 0 512 245" xmlns="http://www.w3.org/2000/svg" preserveAspectRatio="xMidYMid"><defs><linearGradient x1="49.946%" y1="100.01%" x2="49.946%" y2="0%" id="a"><stop stop-color="#2746F1" offset="0%"/><stop stop-color="#61B7F5" offset="100%"/></linearGradient><linearGradient x1="49.94%" y1="99.961%" x2="49.94%" y2=".049%" id="b"><stop stop-color="#275AF1" offset="0%"/><stop stop-color="#336DF2" offset="15.82%"/><stop stop-color="#4C92F4" offset="52.28%"/><stop stop-color="#5BA9F5" offset="81.62%"/><stop stop-color="#61B2F5" offset="100%"/></linearGradient></defs><path d="M0 37h72.886c48.09.2 83.883 28.694 83.883 81.484 0 52.39-35.893 81.084-83.883 81.084H0V37zm40.192 34.893v92.782h31.094c26.295 0 44.191-16.497 44.191-46.19 0-30.095-17.896-46.592-44.19-46.592H40.191zm148.171 45.691c0-6.498-1.2-11.497-7.698-11.497-5 0-10.998 2.399-12.198 3.099l-1.2-31.594c1-1.2 14.797-5.299 29.695-5.299 14.797 0 24.895 5.499 29.194 18.397 5.999-11.198 14.597-18.397 30.394-18.397 11.698 0 21.296 4.3 22.196 5.999l-5 36.593c-1.2-1.7-11.997-5.5-23.895-5.5-14.797 0-20.096 11.999-21.296 24.896v65.287h-40.192v-81.984zm162.368 47.391c-.7.7-6.698 3.3-11.697 3.3-6.499 0-7.699-5.3-7.699-11.498V74.593h-40.192v92.082c0 25.295 11.498 35.393 31.294 35.393 15.097 0 28.894-4.3 29.894-5.3l-1.6-31.793zm27.795 79.584V117.584c0-6.698-1.2-11.497-7.698-11.497-5 0-10.998 2.2-12.198 3.299l-1.2-31.994c1-.7 14.597-5.299 29.694-5.299 14.098 0 24.196 4.8 28.695 16.997 7.898-9.798 20.096-16.697 38.292-16.697 34.194 0 57.889 26.995 57.889 64.987 0 37.493-23.695 64.588-57.889 64.588-15.097 0-27.294-5.3-35.393-12.898v55.49h-40.192zm40.092-128.175v41.892c6 5.3 15.097 8.799 23.896 8.799 17.196 0 28.494-11.498 28.494-29.695 0-18.396-10.998-30.094-28.494-30.094-9.299 0-18.797 4.1-23.896 9.098z" fill="#414042"/><path d="M22.4 56.1c13 0 21.7-4.7 21.7-17.9 0-4.9-2.1-11.3-6.8-17.8-4.9-6.9-8-8-14.9-20.4-6.9 12.4-10 13.5-14.9 20.4C2.8 26.9.7 33.3.7 38.2c0 13.2 8.7 17.9 21.7 17.9zM8.1 20.7c4.7-6.6 7.7-7.6 14.3-19.5C29 13.1 32 14.1 36.7 20.7c4.5 6.2 6.5 12.3 6.5 17 0 12.6-8.4 17.2-20.8 17.2S1.6 50.4 1.6 37.7c0-4.7 2.1-10.8 6.5-17z" fill="url(#a)" transform="translate(289)"/><path d="M22.4 55.416c12.638 0 21.2-4.586 21.2-17.53 0-4.79-2.038-11.008-6.625-17.327-4.79-6.727-7.848-7.747-14.575-19.875-6.727 12.129-9.785 13.148-14.575 19.875C3.238 26.878 1.2 33.095 1.2 37.886c0 12.944 8.562 17.53 21.2 17.53z" fill="url(#b)" transform="translate(289)"/></svg>