<?xml version="1.0" encoding="UTF-8"?>
<svg id="Ebene_1" xmlns="http://www.w3.org/2000/svg" version="1.1" viewBox="0 0 500 500">
  <!-- Generator: Adobe Illustrator 29.0.0, SVG Export Plug-In . SVG Version: 2.1.0 Build 186)  -->
  <defs>
    <style>
      .st0 {
        fill: #1d1d1b;
      }

      .st1 {
        fill: #fff100;
      }
    </style>
  </defs>
  <path class="st1" d="M249.9996737,500C111.9320267,500,0,388.068425,0,250.0000251,0,111.9318259,111.3637372,0,249.9996737,0,388.6367145,0,500,111.9318259,500,250.0000251c0,138.0683999-111.9317506,249.9999749-250.0003263,249.9999749Z"/>
  <g>
    <path class="st0" d="M190.0545045,146.5907724c-56.8184727,0-103.4089829,46.5908427-103.4089829,103.4092276,0,57.3868501,46.5905102,103.4092401,103.4089829,103.4092401,56.8183974,0,103.4091523-46.5908552,103.4091523-103.4092401s-46.5907549-103.4092401-103.4091523-103.4092276Z"/>
    <path class="st0" d="M376.1380597,212.7835876h-49.1467777v74.432875h49.1467777c20.5540155,0,37.2164375-16.6623467,37.2164375-37.2164375v-.0000753c0-20.5540155-16.662422-37.2163622-37.2164375-37.2163622Z"/>
  </g>
</svg>