<?xml version="1.0" encoding="UTF-8"?>
<svg xmlns="http://www.w3.org/2000/svg" xmlns:xlink="http://www.w3.org/1999/xlink" width="250px" height="250px" viewBox="0 0 250 250" version="1.1">
<g id="surface1">
<path style=" stroke:none;fill-rule:nonzero;fill:rgb(0%,43.137255%,78.039216%);fill-opacity:1;" d="M 138.667969 250.167969 C 92.445312 250.167969 46.304688 250.167969 0.167969 250.167969 C 0.167969 166.832031 0.167969 83.5 0.167969 0.167969 C 83.5 0.167969 166.832031 0.167969 250.167969 0.167969 C 250.167969 83.5 250.167969 166.832031 250.167969 250.167969 C 213.027344 250.167969 175.890625 250.167969 138.667969 250.167969 M 175.675781 91.667969 C 159.507812 91.667969 143.339844 91.667969 127.171875 91.667969 C 127.003906 91.667969 126.839844 91.683594 126.582031 91.683594 C 126.566406 91.738281 126.550781 91.789062 126.523438 91.992188 C 126.523438 95.847656 126.523438 99.699219 126.523438 103.675781 C 137.152344 103.675781 147.699219 103.675781 158.335938 103.675781 C 158.144531 103.96875 158.039062 104.132812 157.929688 104.289062 C 147.265625 119.621094 136.59375 134.953125 125.949219 150.296875 C 125.660156 150.714844 125.496094 151.304688 125.484375 151.820312 C 125.433594 153.984375 125.460938 156.152344 125.460938 158.316406 C 125.460938 158.972656 125.460938 159.628906 125.460938 160.289062 C 142.636719 160.289062 159.703125 160.289062 176.785156 160.289062 C 176.785156 156.234375 176.785156 152.226562 176.785156 148.144531 C 165.5625 148.144531 154.386719 148.144531 143.082031 148.144531 C 143.308594 147.792969 143.457031 147.542969 143.625 147.304688 C 146.132812 143.710938 148.648438 140.125 151.152344 136.53125 C 154.511719 131.707031 157.847656 126.867188 161.214844 122.050781 C 165.980469 115.238281 170.769531 108.4375 175.53125 101.621094 C 175.753906 101.300781 175.957031 100.878906 175.960938 100.503906 C 175.992188 97.617188 175.96875 94.730469 175.980469 91.75 C 175.929688 91.730469 175.878906 91.710938 175.675781 91.667969 M 91.582031 103.640625 C 99.019531 103.640625 106.453125 103.640625 113.929688 103.640625 C 113.929688 99.613281 113.929688 95.683594 113.929688 91.71875 C 100.777344 91.71875 87.660156 91.71875 74.554688 91.71875 C 74.554688 114.613281 74.554688 137.453125 74.554688 160.273438 C 87.789062 160.273438 100.964844 160.273438 114.105469 160.273438 C 114.105469 156.203125 114.105469 152.191406 114.105469 148.117188 C 105.71875 148.117188 97.398438 148.117188 89.0625 148.117188 C 89.0625 142.179688 89.0625 136.304688 89.0625 130.34375 C 92.988281 130.34375 96.867188 130.34375 100.75 130.34375 C 104.628906 130.34375 108.507812 130.34375 112.417969 130.34375 C 112.417969 126.402344 112.417969 122.554688 112.417969 118.617188 C 108.492188 118.617188 104.609375 118.617188 100.730469 118.617188 C 96.851562 118.617188 92.972656 118.617188 89.0625 118.617188 C 89.0625 113.582031 89.0625 108.652344 89.0625 103.640625 C 89.875 103.640625 90.648438 103.640625 91.582031 103.640625 Z M 91.582031 103.640625 "/>
<path style=" stroke:none;fill-rule:nonzero;fill:rgb(100%,100%,100%);fill-opacity:1;" d="M 126.671875 91.691406 C 126.839844 91.683594 127.003906 91.667969 127.171875 91.667969 C 143.339844 91.667969 159.507812 91.667969 175.769531 91.710938 C 175.886719 91.789062 175.921875 91.820312 175.964844 91.839844 C 175.96875 94.730469 175.992188 97.617188 175.960938 100.503906 C 175.957031 100.878906 175.753906 101.300781 175.53125 101.621094 C 170.769531 108.4375 165.980469 115.238281 161.214844 122.050781 C 157.847656 126.867188 154.511719 131.707031 151.152344 136.53125 C 148.648438 140.125 146.132812 143.710938 143.625 147.304688 C 143.457031 147.542969 143.308594 147.792969 143.082031 148.144531 C 154.386719 148.144531 165.5625 148.144531 176.785156 148.144531 C 176.785156 152.226562 176.785156 156.234375 176.785156 160.289062 C 159.703125 160.289062 142.636719 160.289062 125.460938 160.289062 C 125.460938 159.628906 125.460938 158.972656 125.460938 158.316406 C 125.460938 156.152344 125.433594 153.984375 125.484375 151.820312 C 125.496094 151.304688 125.660156 150.714844 125.949219 150.296875 C 136.59375 134.953125 147.265625 119.621094 157.929688 104.289062 C 158.039062 104.132812 158.144531 103.96875 158.335938 103.675781 C 147.699219 103.675781 137.152344 103.675781 126.523438 103.675781 C 126.523438 99.699219 126.523438 95.847656 126.558594 91.898438 C 126.625 91.769531 126.652344 91.730469 126.671875 91.691406 Z M 126.671875 91.691406 "/>
<path style=" stroke:none;fill-rule:nonzero;fill:rgb(100%,100%,100%);fill-opacity:1;" d="M 91.5 103.640625 C 90.648438 103.640625 89.875 103.640625 89.0625 103.640625 C 89.0625 108.652344 89.0625 113.582031 89.0625 118.617188 C 92.972656 118.617188 96.851562 118.617188 100.730469 118.617188 C 104.609375 118.617188 108.492188 118.617188 112.417969 118.617188 C 112.417969 122.554688 112.417969 126.402344 112.417969 130.34375 C 108.507812 130.34375 104.628906 130.34375 100.75 130.34375 C 96.867188 130.34375 92.988281 130.34375 89.0625 130.34375 C 89.0625 136.304688 89.0625 142.179688 89.0625 148.117188 C 97.398438 148.117188 105.71875 148.117188 114.105469 148.117188 C 114.105469 152.191406 114.105469 156.203125 114.105469 160.273438 C 100.964844 160.273438 87.789062 160.273438 74.554688 160.273438 C 74.554688 137.453125 74.554688 114.613281 74.554688 91.71875 C 87.660156 91.71875 100.777344 91.71875 113.929688 91.71875 C 113.929688 95.683594 113.929688 99.613281 113.929688 103.640625 C 106.453125 103.640625 99.019531 103.640625 91.5 103.640625 Z M 91.5 103.640625 "/>
<path style=" stroke:none;fill-rule:nonzero;fill:rgb(76.862745%,86.666667%,94.901961%);fill-opacity:1;" d="M 126.628906 91.6875 C 126.652344 91.730469 126.625 91.769531 126.566406 91.820312 C 126.550781 91.789062 126.566406 91.738281 126.628906 91.6875 Z M 126.628906 91.6875 "/>
<path style=" stroke:none;fill-rule:nonzero;fill:rgb(76.862745%,86.666667%,94.901961%);fill-opacity:1;" d="M 175.972656 91.796875 C 175.921875 91.820312 175.886719 91.789062 175.847656 91.71875 C 175.878906 91.710938 175.929688 91.730469 175.972656 91.796875 Z M 175.972656 91.796875 "/>
</g>
</svg>
