<svg xmlns="http://www.w3.org/2000/svg" width="1280" height="1280" fill="none"><rect width="1280" height="1280" fill="#000" rx="80"/><path fill="#24CB71" d="M373 906.667c0-73.638 59.696-133.334 133.333-133.334h133.334v133.334c0 73.637-59.696 133.333-133.334 133.333C432.696 1040 373 980.304 373 906.667Z"/><path fill="#FF7237" d="M639.667 240v266.667H773c73.637 0 133.333-59.696 133.333-133.334C906.333 299.696 846.637 240 773 240H639.667Z"/><path fill="#00B6FF" d="M771.889 773.333c73.638 0 133.333-59.695 133.333-133.333s-59.695-133.333-133.333-133.333S638.555 566.362 638.555 640s59.696 133.333 133.334 133.333Z"/><path fill="#FF3737" d="M373 373.333c0 73.638 59.696 133.334 133.333 133.334h133.334V240H506.333C432.696 240 373 299.696 373 373.333Z"/><path fill="#874FFF" d="M373 640c0 73.637 59.696 133.333 133.333 133.333h133.334V506.667H506.333C432.696 506.667 373 566.363 373 640Z"/></svg>