<svg xmlns="http://www.w3.org/2000/svg" width="64" height="64" fill="none" viewBox="0 0 64 64"><rect width="64" height="64" rx="12" fill="#EEEFF2"/><path fill="#fff" stroke="#8F90A6" stroke-width="2.5" stroke-linejoin="round" d="M17.5 14.75A2.25 2.25 0 0 1 19.75 12.5h15.19a2.25 2.25 0 0 1 1.59.66l9.06 9.06c.42.42.66 1 .66 1.59v25.44a2.25 2.25 0 0 1-2.25 2.25h-24.5a2.25 2.25 0 0 1-2.25-2.25V14.75Z"/><path stroke="#8F90A6" stroke-width="2.5" stroke-linejoin="round" d="M35.5 13v9a2 2 0 0 0 2 2h9"/><circle cx="45" cy="45" r="11" fill="#1D4AFF"/><path stroke="#fff" stroke-width="2.5" stroke-linecap="round" stroke-linejoin="round" d="M45 50.5v-11M40.5 44l4.5-4.5 4.5 4.5"/></svg>
