<svg width="200" height="284" viewBox="0 0 200 284" fill="none" xmlns="http://www.w3.org/2000/svg">
<path d="M166.862 90.7716C155.812 94.0514 147.483 101.471 141.383 109.53C140.073 111.26 137.343 109.96 137.863 107.841C149.543 59.8136 134.113 19.896 86.0157 0.247269C83.5758 -0.752669 81.0359 1.43719 81.6759 3.99704C103.555 91.8416 11.5294 84.432 23.1588 184.016C23.3588 185.726 21.4389 186.896 20.039 185.896C15.6792 182.766 10.8095 176.236 7.46963 171.647C6.48968 170.297 4.36978 170.677 3.9198 172.287C1.25994 181.906 0 190.965 0 199.965C0 234.963 17.9891 265.771 45.2177 283.63C46.7777 284.65 48.7776 283.19 48.2476 281.4C46.8477 276.7 46.0577 271.74 45.9977 266.611C45.9977 263.461 46.1977 260.241 46.6877 257.241C47.8276 249.702 50.4475 242.522 54.8473 235.983C69.9365 213.334 100.185 191.455 95.3552 161.747C95.0453 159.867 97.2651 158.627 98.6651 159.917C119.974 179.386 124.194 205.575 120.694 229.063C120.394 231.103 122.954 232.193 124.244 230.593C127.504 226.513 131.483 222.933 135.813 220.244C136.893 219.574 138.333 220.084 138.743 221.284C141.153 228.293 144.733 234.873 148.113 241.452C152.152 249.362 154.302 258.391 153.962 267.951C153.792 272.6 153.022 277.1 151.732 281.38C151.182 283.19 153.162 284.7 154.752 283.66C182.001 265.801 200 234.993 200 199.975C200 187.806 197.87 175.876 193.84 164.697C185.391 141.248 163.952 123.64 169.372 93.0815C169.632 91.6216 168.282 90.3517 166.862 90.7716Z" fill="#FA5D19" style="fill:#FA5D19;fill:color(display-p3 0.9816 0.3634 0.0984);fill-opacity:1;"/>
</svg>
