<svg height="2500" viewBox="6.239 2.66350997 503.09749003 503.10849003" width="2500" xmlns="http://www.w3.org/2000/svg"><g fill="none"><path d="m113.296 424.432-75.52 75.536c-5.825 5.804-15.247 5.804-21.072 0l-4.672-4.672c-5.793-5.823-5.793-15.233 0-21.056l75.52-75.536c5.827-5.814 15.26-5.814 21.088 0l4.656 4.656a14.88 14.88 0 0 1 0 21.072z" fill="#fbbc04"/><path d="m316 456h96.672a96.64 96.64 0 0 0 96.656-96.672v-260a96.64 96.64 0 0 0 -96.656-96.656 96.64 96.64 0 0 0 -96.672 96.656z" fill="#4285f4"/><path d="m156 456a96.64 96.64 0 0 0 96.672-96.672 96.64 96.64 0 0 0 -96.672-96.656 96.64 96.64 0 0 0 -96.672 96.656 96.64 96.64 0 0 0 96.672 96.672z" fill="#fbbc04"/><path d="m383.52 456h-94.192a96.64 96.64 0 0 1 -96.656-96.672v-126.656a96.64 96.64 0 0 1 96.656-96.672 96.64 96.64 0 0 1 96.672 96.672v220.864a2.464 2.464 0 0 1 -2.464 2.464z" fill="#34a853"/><path d="m386 453.536v-220.864c-.003-43.115-28.558-81.016-70-92.912v316.24h67.52a2.464 2.464 0 0 0 2.48-2.464z" fill="#1967d2"/><path d="m252.672 361.2c.006-39.228-23.701-74.567-60-89.44v89.44c0 27.52 11.52 52.368 30 69.968a96.384 96.384 0 0 0 30-69.968z" fill="#ea4335"/></g></svg>