<svg width="39" height="38" viewBox="0 0 39 38" fill="none" xmlns="http://www.w3.org/2000/svg">
<mask id="mask0_1875_4928" style="mask-type:alpha" maskUnits="userSpaceOnUse" x="0" y="0" width="39" height="38">
<path d="M5.25781 10.7161L19.4739 4.49658C19.6055 4.43899 19.7552 4.43899 19.8868 4.49658L34.103 10.7161M5.25781 10.7161V23.7222M5.25781 10.7161L16.4427 15.6095M34.103 10.7161L30.2398 12.4063M34.103 10.7161V14.0642M19.6804 33.3802V28.6156M19.6804 33.3802L22.8997 32.0292M19.6804 33.3802L6.54554 27.8682M19.6804 17.026L30.2398 12.4063M19.6804 17.026L16.4427 15.6095M19.6804 17.026V18.4425M19.6804 28.6156L30.2398 12.4063M19.6804 28.6156V18.4425M22.8997 32.0292L33.7872 27.4604C33.9785 27.3801 34.103 27.1929 34.103 26.9854V14.0642M22.8997 32.0292L34.103 14.0642M5.25781 23.7222V26.9854C5.25781 27.1929 5.38228 27.3801 5.57359 27.4604L6.54554 27.8682M5.25781 23.7222L16.4427 15.6095M6.54554 27.8682L19.6804 18.4425" stroke="#1E1E1E" stroke-width="1.03018" stroke-linecap="round" stroke-linejoin="round"/>
</mask>
<g mask="url(#mask0_1875_4928)">
<rect x="2.35156" y="1.49805" width="34.6643" height="34.6643" fill="black"/>
</g>
</svg>
