<svg width="120" height="120" viewBox="0 0 120 120" fill="none" xmlns="http://www.w3.org/2000/svg">
<style>
  path {
    fill: #252323;
  }
  @media (prefers-color-scheme: dark) {
    path { fill: #E2E2E2; }
  }
</style>
<path d="M114.707 103.015C115.445 104.293 114.983 105.803 113.9 106.543C113.483 106.829 112.974 107 112.404 107H45.4142H6.66209C4.61589 107 3.33764 104.787 4.35944 103.015L10.3945 92.5496C10.5719 92.2401 10.9021 92.051 11.2583 92.051H107.809C108.165 92.051 108.494 92.2401 108.672 92.5496L114.707 103.015Z" />
<path d="M103.116 82.9157C103.499 83.58 103.02 84.4102 102.253 84.4102H59.8178C59.1224 84.4102 58.6406 83.7173 58.8712 83.062C59.5304 81.1855 60.1209 79.2779 60.6402 77.3418C60.8085 76.7149 60.3319 76.1049 59.6831 76.1049H21.6031C20.8351 76.1049 20.3559 75.2748 20.7393 74.6105L26.2951 64.9764C26.4725 64.6669 26.8015 64.4766 27.1576 64.4766H91.9082C92.2643 64.4766 92.5933 64.6669 92.772 64.9764L103.116 82.9157Z" />
<path d="M87.2163 55.3425C87.5983 56.0069 87.1191 56.837 86.3525 56.837H63.5192C63.4273 56.837 63.3535 56.7619 63.3535 56.6699C63.3535 54.2287 63.2421 51.8134 63.0271 49.4279C62.9818 48.9177 62.5518 48.5317 62.0402 48.5317H37.5027C36.736 48.5317 36.2568 47.7016 36.6402 47.0372L41.2376 39.0636C41.415 38.7553 41.7453 38.5649 42.1014 38.5649H76.9659C77.322 38.5649 77.651 38.7553 77.8284 39.0636L87.2163 55.3425Z" />
<path d="M57.2304 11.3297C58.2535 9.55676 60.8125 9.55676 61.8356 11.3297L72.2725 29.4295C72.6558 30.0939 72.1767 30.924 71.41 30.924H59.8075C59.3814 30.924 59.0033 30.6534 58.8608 30.2506C57.4298 26.1841 55.6763 22.2678 53.634 18.5341C53.4656 18.2272 53.4682 17.8542 53.643 17.5512L57.2304 11.3297Z" />
</svg>
