<svg width="512" height="512" viewBox="0 0 512 512" fill="none" xmlns="http://www.w3.org/2000/svg">
<path d="M254.75 302.25L285.25 326.75C285.25 326.75 308.587 309.418 325.75 306.875C343.75 304.208 362.954 314.244 380.75 326.208C407.629 344.279 430.25 367.208 430.25 367.208L456.75 341.208C456.75 341.208 383.686 262.047 325.75 269.208C287.75 273.905 254.75 302.25 254.75 302.25Z" fill="#FF5D5F"/>
<path d="M80.25 151.286L55.25 178.786C55.25 178.786 124.902 243.786 179.75 243.786C204.75 243.786 239.419 224.201 269.25 198.757C286.25 184.257 305.25 167.786 324.25 167.786C337.021 167.786 353.866 174.551 369.75 192.316C369.75 192.316 380.003 186.168 386.25 181.75C391.74 177.868 399.896 171.25 399.896 171.25C377.047 146.864 343.998 129.038 324.25 130.786C292.25 130.79 269.25 150.711 240.75 173.75C212.25 196.789 200.25 206.286 179.75 206.286C145.25 206.286 80.25 151.286 80.25 151.286Z" fill="#4E9CFF"/>
<path d="M80.25 360.75L55.25 333.25C55.25 333.25 124.902 268.25 179.75 268.25C204.75 268.25 239.419 287.835 269.25 313.279C286.25 327.779 305.25 344.25 324.25 344.25C337.083 344.25 353.799 337.207 369.75 319.25C369.75 319.25 379.339 325.161 385.25 329.25C391.328 333.455 400.25 340.407 400.25 340.407C377.39 364.987 344.1 383.007 324.25 381.25C292.25 381.246 273.25 364.289 244.75 341.25C216.25 318.211 200.25 305.75 179.75 305.75C145.25 305.75 80.25 360.75 80.25 360.75Z" fill="#4E9CFF"/>
<path d="M406.25 213.25C399.745 217.746 389.25 224.25 389.25 224.25C389.25 224.25 395.25 237.25 395.25 254.75C395.25 272.25 389.75 287.25 389.75 287.25C389.75 287.25 399.172 293.135 405.25 297.25C411.564 301.525 421.25 308.75 421.25 308.75C421.25 308.75 432.75 284.75 432.75 254.75C432.75 224.75 421.25 202.25 421.25 202.25C421.25 202.25 412.226 209.12 406.25 213.25Z" fill="#4E9CFF"/>
<path d="M256.25 209.25L285.25 185.25C285.25 185.25 308.587 202.04 325.75 204.583C343.75 207.25 362.954 197.214 380.75 185.25C407.629 167.179 430.25 144.25 430.25 144.25L456.75 170.25C456.75 170.25 383.686 249.411 325.75 242.25C287.75 237.553 256.25 209.25 256.25 209.25Z" fill="#FF5D5F"/>
<path d="M186.255 130.25C223.755 130.25 255.25 162.25 255.25 162.25C255.25 162.25 246.487 169.155 240.75 173.75C234.775 178.536 225.25 186.25 225.25 186.25C225.25 186.25 208.755 168.75 186.255 168.75C177.028 168.75 165.039 174.292 152.255 185.25C142.391 193.705 132.129 204.216 125.255 217.25C119.31 228.52 116.068 241.802 115.755 255.75C115.361 273.269 121.571 291.634 131.755 306.25C138.58 316.046 146.726 323.418 155.255 329.75C166.323 337.968 177.865 343.75 186.255 343.75C195.217 343.75 203.274 340.635 209.255 337.75C218.755 332.25 226.25 325.75 226.25 325.75L255.75 350.25C255.75 350.25 243.75 362.25 227.255 371.25C216.595 376.507 202.895 381.75 186.255 381.75C169.626 381.75 150.315 372.915 132.255 359.25C120.579 350.416 109.135 339.948 100.255 327.25C85.7005 306.438 78.2004 281.118 78.2502 255.75C78.3008 230.065 86.5823 204.625 101.255 183.75C124.255 153.75 158.273 130.25 186.255 130.25Z" fill="#FF5D5F"/>
</svg>
