<svg xmlns="http://www.w3.org/2000/svg" width="20" height="20" viewBox="0 0 20 20" fill="none">
  <path fill="#000" d="M16.8102 0H3.18979C1.42812 0 0 1.42812 0 3.18979V16.8102C0 18.5719 1.42812 20 3.18979 20H16.8102C18.5719 20 20 18.5719 20 16.8102V3.18979C20 1.42812 18.5719 0 16.8102 0Z"/>
  <path fill="url(#llama_cloud_gradient)" d="M15.1999 17.2717s.8825-1.4695-1.1823-2.5221c0 0 .3997 1.5715-.5359 3.0282h-.9612s-.0425-.3062.3636-.4615c.8506-.3275.8847-1.7246.6359-1.8926-.7592-.5104-1.0591-.9463-.8634-2.0563 0 0-1.3142.4806-2.94739.2743-.08506-.0106-.16799.0298-.21052.1042-.08719.151-.26369.4232-.55503.7379 0 0-.07443.8697-.27007 1.4886 0 0 .07443 1.059-.19351 1.8033H7.33175s.01276-.4615.56566-.521c.67624-.0723-.12121-2.1755-.12121-2.1755s-.03403 1.1462-.72302 2.6922h-.87826s0-.4466.44657-.5571c.72515-.1808.40192-1.4865.28496-2.2116-.11696-.7273-.2807-2.0862-.87401-2.8411-.5933-.7549-.89526-.7485-.93142-2.135 0 0-.50398-.79533-.32323-1.84371 0 0-.37639-1.25891.18926-3.11962 0 0-1.33758-.2722-1.3631-.60393-.02765-.33174.0723-.70814.42956-.74004.35725-.03189.88038-.08506.88251-.46145 0-.3764-.45508-.87613-.17225-1.02286.26369-.13823.56991.75279.77193.61244.13184-.09144-.35939-.57204-.03828-.50612.13185.02765 1.2504.39766 1.62892 2.34982.37852 1.95215.22116 3.25571.76768 3.25571s3.04518-.09144 4.50398.26582c1.4588.35725 1.5183.91653 2.1584.75492.6401-.16162 1.3759-.54865 1.7927.86975.3679 1.24827-.6656 1.09087-.6656 1.48217s-.1382.9974.0191 1.3674c.1574.37.0702 1.2631.2084 1.7692.1383.5062.3041.9655-.0085 1.6183 0 0 .1531 1.0994-.1914 1.7034h-.8293s-.0596-.3445.3445-.5061h-.0064Z"/>
  <defs>
    <linearGradient id="llama_cloud_gradient" x1="3.00001" x2="15.0659" y1="2.64966" y2="18.7687" gradientUnits="userSpaceOnUse">
      <stop stop-color="#37D7FA"/>
      <stop offset=".4" stop-color="#4B72FE"/>
      <stop offset=".68" stop-color="#FF8DF2"/>
      <stop offset="1" stop-color="#FF8705"/>
    </linearGradient>
  </defs>
</svg>
