<svg width="267" height="268" viewBox="0 0 267 268" fill="none" xmlns="http://www.w3.org/2000/svg">
<g filter="url(#filter0_d_1563_942)">
<rect x="18" y="16" width="226.982" height="228" rx="15" fill="white"/>
</g>
<path d="M130.66 174.034C123.618 173.861 117.809 170.747 114.099 164.246C110.297 157.526 110.463 150.646 114.517 144.092C124.168 128.494 133.945 112.982 143.663 97.4301C145.65 94.2493 147.591 91.0221 149.671 87.9011C152.432 83.6324 156.747 80.6129 161.696 79.4854C166.645 78.358 171.837 79.2118 176.168 81.865C185.316 87.516 188.376 99.2695 182.679 108.533C171.034 127.546 159.223 146.467 147.247 165.295C143.557 171.118 137.96 173.927 130.66 174.034Z" fill="#FFCB00"/>
<path d="M70.1812 174.033C63.0735 173.861 57.2972 170.607 53.6605 164.133C49.9113 157.413 50.1497 150.52 54.217 143.966C64.5992 127.267 75.0279 110.593 85.5028 93.9438C86.8277 91.7923 88.1525 89.5877 89.5701 87.5026C92.4446 83.3266 96.8276 80.4359 101.791 79.4427C106.754 78.4494 111.909 79.4315 116.162 82.181C120.416 84.9306 123.435 89.2317 124.581 94.1738C125.726 99.1158 124.908 104.311 122.3 108.659C110.694 127.445 98.93 146.164 87.1589 164.863C83.3368 170.926 77.7128 173.927 70.1812 174.033Z" fill="#FF3D57"/>
<path d="M191.529 135.958C202.24 136.011 210.911 144.544 210.891 155.009C210.891 165.633 201.988 174.2 191.178 174.067C180.367 173.934 171.849 165.494 171.862 154.982C171.875 144.318 180.579 135.891 191.529 135.958Z" fill="#00D647"/>
<defs>
<filter id="filter0_d_1563_942" x="0" y="0" width="266.982" height="268" filterUnits="userSpaceOnUse" color-interpolation-filters="sRGB">
<feFlood flood-opacity="0" result="BackgroundImageFix"/>
<feColorMatrix in="SourceAlpha" type="matrix" values="0 0 0 0 0 0 0 0 0 0 0 0 0 0 0 0 0 0 127 0" result="hardAlpha"/>
<feOffset dx="2" dy="4"/>
<feGaussianBlur stdDeviation="10"/>
<feComposite in2="hardAlpha" operator="out"/>
<feColorMatrix type="matrix" values="0 0 0 0 0 0 0 0 0 0 0 0 0 0 0 0 0 0 0.2 0"/>
<feBlend mode="normal" in2="BackgroundImageFix" result="effect1_dropShadow_1563_942"/>
<feBlend mode="normal" in="SourceGraphic" in2="effect1_dropShadow_1563_942" result="shape"/>
</filter>
</defs>
</svg>
