<svg xmlns="http://www.w3.org/2000/svg" fill="none" viewBox="0 0 81 80" height="80" width="81">
<path fill="#E54B4D" d="M40.0259 0.0078125C17.8988 0.0521723 -0.126078 18.2165 0.000664326 40.3415C0.0573895 50.2322 3.76739 59.753 10.4177 67.0744C17.0681 74.3958 26.1895 79.0011 36.0293 80.0055C36.1262 80.0152 36.2237 79.9939 36.3076 79.9445C36.3915 79.8951 36.4576 79.8203 36.4961 79.7309C36.5221 79.6723 36.5357 79.609 36.5363 79.545V40.1112H33.4184C33.3577 40.1115 33.2976 40.0998 33.2415 40.0768C33.1854 40.0537 33.1344 40.0199 33.0914 39.9771C33.0484 39.9343 33.0143 39.8834 32.991 39.8274C32.9678 39.7714 32.9558 39.7114 32.9558 39.6507V33.4277C32.9555 33.3668 32.9673 33.3065 32.9904 33.2503C33.0136 33.194 33.0476 33.1429 33.0907 33.0999C33.1337 33.0569 33.1848 33.0228 33.241 32.9997C33.2973 32.9765 33.3576 32.9648 33.4184 32.965H43.1987C43.2593 32.965 43.3194 32.977 43.3754 33.0003C43.4314 33.0236 43.4823 33.0577 43.525 33.1007C43.5678 33.1436 43.6017 33.1947 43.6247 33.2508C43.6477 33.3069 43.6594 33.367 43.6592 33.4277V79.545C43.6588 79.6096 43.6721 79.6735 43.6981 79.7326C43.7241 79.7918 43.7622 79.8448 43.81 79.8882C43.8579 79.9316 43.9143 79.9645 43.9756 79.9847C44.037 80.0049 44.1019 80.012 44.1661 80.0055C54.4023 78.9615 63.8455 74.0229 70.5423 66.2113C77.2391 58.3997 80.6771 48.3128 80.145 38.0374C79.6129 27.7619 75.1515 18.0841 67.6837 11.006C60.2158 3.92785 50.313 -0.00896386 40.0238 0.00992497L40.0259 0.0078125ZM51.4221 71.0722C51.3526 71.097 51.2781 71.1046 51.2049 71.0945C51.1318 71.0844 51.0621 71.0568 51.0019 71.0142C50.9416 70.9715 50.8925 70.915 50.8586 70.8494C50.8248 70.7837 50.8072 70.7109 50.8074 70.6371V64.0549C50.8072 63.924 50.8443 63.7957 50.9142 63.685C50.9842 63.5743 51.0841 63.4857 51.2025 63.4297C56.5262 60.8961 60.8229 56.6172 63.3787 51.3041C65.9345 45.9909 66.5955 39.9633 65.252 34.2225C63.9084 28.4817 60.6412 23.3734 55.9931 19.7462C51.345 16.119 45.5958 14.1912 39.7006 14.2832C25.9828 14.4945 14.726 25.557 14.2887 39.2705C14.1295 44.2918 15.4365 49.2508 18.0501 53.5413C20.6637 57.8318 24.4707 61.2679 29.0056 63.4297C29.1244 63.4854 29.2248 63.5738 29.2951 63.6846C29.3654 63.7953 29.4028 63.9238 29.4028 64.0549V70.6371C29.4026 70.711 29.3847 70.7838 29.3506 70.8494C29.3166 70.915 29.2672 70.9715 29.2068 71.0141C29.1464 71.0567 29.0767 71.0842 29.0035 71.0943C28.9302 71.1045 28.8557 71.0969 28.786 71.0722C22.3962 68.727 16.8875 64.4642 13.0138 58.8674C9.14021 53.2706 7.09103 46.6133 7.14682 39.807C7.30313 21.9026 21.9334 7.28493 39.8421 7.15397C58.1395 7.0061 73.0613 21.8476 73.0613 40.1112C73.0613 54.3127 64.0415 66.444 51.4221 71.0722Z"></path>
</svg>
