<svg width="48" height="48" viewBox="0 0 47 48" fill="none" xmlns="http://www.w3.org/2000/svg">
<path d="M23.4042 12.5467C29.7829 12.5467 34.9402 17.7147 34.9402 24.0827H46.4762C46.4762 11.336 36.1456 1 23.3882 1C10.6309 1 0.310913 11.3253 0.310913 24.0773H11.8469C11.8736 17.6987 17.0416 12.5413 23.4042 12.5413V12.5467Z" fill="#2E062F"/>
<path d="M27.3122 34.93C31.7602 33.3247 34.9335 29.074 34.9335 24.082H11.8668C11.8668 29.074 15.0455 33.3354 19.4882 34.93V35.1274H3.14685C7.05618 42.29 14.6668 47.1487 23.4135 47.1487C32.1602 47.1487 39.7548 42.29 43.6802 35.1274H27.3122V34.93Z" fill="#2E062F"/>
</svg>
