<?xml version="1.0" encoding="utf-8"?>
<svg xmlns="http://www.w3.org/2000/svg" width="672" height="672" viewBox="0 0 672 672" fill="none">
<g clip-path="url(#clip0_1_68252)">
<rect width="672" height="672" rx="4" fill="#F8FAFC"/>
<path d="M486.491 432.17L360.037 163.598V163.592C356.869 156.878 350.248 152.447 342.748 152.036C335.05 151.588 328.159 155.3 324.267 161.618L187.124 383.789C182.878 390.713 182.962 399.254 187.365 406.092L254.405 509.96C258.401 516.157 265.324 519.749 272.519 519.749C274.559 519.749 276.61 519.458 278.626 518.861L473.218 461.297C479.178 459.533 484.053 455.315 486.603 449.724C489.146 444.131 489.103 437.73 486.489 432.17H486.491ZM458.178 443.694L293.072 492.535C288.025 494.029 283.19 489.665 284.253 484.577L343.236 202.047C344.339 196.764 351.641 195.925 353.945 200.817L463.156 432.771C465.215 437.146 462.865 442.306 458.178 443.694Z" fill="#4D51B8"/>
</g>
<defs>
<clipPath id="clip0_1_68252">
<rect width="672" height="672" fill="white"/>
</clipPath>
</defs>
</svg>