<svg width="168" height="184" viewBox="0 0 168 184" fill="none" xmlns="http://www.w3.org/2000/svg">
<g clip-path="url(#clip0_24_31)">
<path fill-rule="evenodd" clip-rule="evenodd" d="M152.487 149.333C162.086 143.802 168 133.581 168 122.519L168 61.4805C168 50.4192 162.086 40.1981 152.487 34.6675L99.5133 4.148C89.9136 -1.38267 78.0863 -1.38266 68.4866 4.148L15.5133 34.6675C5.91365 40.1981 -2.2186e-06 50.4192 0 61.4805L7.0004e-06 122.519C3.30114e-06 133.581 5.91367 143.802 15.5134 149.333L68.4867 179.852C78.0864 185.383 89.9137 185.383 99.5133 179.852L152.487 149.333ZM152.487 122.519C152.487 128.05 149.53 133.161 144.73 135.926L117.005 151.899C114.561 153.307 113.339 154.011 112.337 153.906C111.462 153.814 110.668 153.357 110.151 152.647C109.558 151.833 109.558 150.425 109.558 147.609L109.558 115.663C109.558 110.133 112.515 105.022 117.315 102.257L132.16 93.7043C134.198 92.5298 135.218 91.9426 135.958 91.1209C136.614 90.3938 137.108 89.5372 137.41 88.6068C137.751 87.5552 137.749 86.3808 137.745 84.0319L137.743 83.3264C137.737 79.813 137.734 78.0562 136.993 77.0408C136.346 76.155 135.354 75.5843 134.261 75.4703C133.009 75.3396 131.485 76.218 128.435 77.9747L109.558 88.8503C99.9587 94.3809 94.045 104.602 94.045 115.663L94.045 162.49C94.045 164.122 93.1727 165.63 91.7567 166.445C86.9568 169.211 81.0432 169.211 76.2433 166.445L23.27 135.926C18.4702 133.161 15.5134 128.05 15.5133 122.519L15.5134 91.0571C15.5134 88.2414 15.5134 86.8336 16.1059 86.0198C16.6227 85.3099 17.4171 84.8522 18.2916 84.7604C19.2942 84.6553 20.516 85.3591 22.9596 86.7669L50.1109 102.408C54.9106 105.174 57.8675 110.284 57.8675 115.815L57.8675 132.105C57.8675 134.454 57.8675 135.628 58.2104 136.679C58.5137 137.609 59.0098 138.465 59.6664 139.191C60.4086 140.011 61.4288 140.597 63.4694 141.767L64.0824 142.119C67.1346 143.871 68.6608 144.746 69.9127 144.613C71.0048 144.497 71.9964 143.925 72.6414 143.038C73.3809 142.021 73.3809 140.265 73.3809 136.751L73.3809 115.815C73.3809 104.754 67.4672 94.5326 57.8675 89.002L18.2224 66.1628C16.546 65.197 15.5133 63.4121 15.5133 61.4805C15.5133 55.9499 18.4702 50.8393 23.27 48.074L76.2433 17.5545C81.0432 14.7892 86.9568 14.7892 91.7567 17.5545L119.18 33.3541C121.624 34.762 122.846 35.4659 123.256 36.3849C123.614 37.1865 123.614 38.1019 123.256 38.9035C122.846 39.8225 121.624 40.5265 119.18 41.9343L91.3278 57.981C86.5279 60.7464 80.6143 60.7464 75.8144 57.981L60.2092 48.9904C58.6558 48.0955 57.8792 47.648 57.0526 47.4683C56.3212 47.3093 55.5647 47.303 54.8307 47.4497C54.0012 47.6155 53.2171 48.0498 51.6489 48.9186L49.7141 49.9904C46.5777 51.7278 45.0095 52.5965 44.4789 53.749C44.0162 54.7539 44.0065 55.9084 44.4522 56.9209C44.9633 58.0822 46.5166 58.9771 49.6233 60.7669L68.0577 71.3876C77.6574 76.9182 89.4847 76.9182 99.0844 71.3876L139.55 48.074C141.153 47.1507 143.127 47.1507 144.73 48.074C149.53 50.8393 152.487 55.9499 152.487 61.4805V122.519Z" fill="#5D29F0"/>
</g>
<defs>
<clipPath id="clip0_24_31">
<rect width="168" height="184" fill="white"/>
</clipPath>
</defs>
</svg>
