<svg width="40" height="40" viewBox="0 0 40 40" fill="none" xmlns="http://www.w3.org/2000/svg">
<path opacity="0.9" d="M20.0557 39.9666C8.91365 39.9666 0 31.2241 0 20.2958C0 9.47687 8.91365 0.625 20.0557 0.625H32.6462C36.7688 0.625 40 3.90347 40 7.83763V20.2958C40 31.2241 31.0863 39.9666 20.0557 39.9666Z" fill="#DD431F"/>
<path d="M19.8991 11.7803C11.5768 11.7803 6.889 18.6718 6.69348 18.9652C6.21149 19.6878 6.21149 20.6224 6.69384 21.3455C6.889 21.6384 11.5768 28.5299 19.8991 28.5299C28.2214 28.5299 32.9092 21.6384 33.1047 21.345C33.5868 20.6224 33.5868 19.6878 33.1044 18.9647C32.9092 18.6718 28.2214 11.7803 19.8991 11.7803ZM7.84542 20.5774C7.67429 20.3208 7.67429 19.9894 7.84542 19.7328C8.00265 19.4968 11.3403 14.5942 17.3076 13.4182C14.6035 14.462 12.6793 17.0872 12.6793 20.1551C12.6793 23.2229 14.6035 25.8482 17.3076 26.892C11.3403 25.7159 8.00265 20.8133 7.84542 20.5774ZM16.5721 20.1551C16.5721 20.5374 16.2622 20.8472 15.8799 20.8472C15.4977 20.8472 15.1878 20.5374 15.1878 20.1551C15.1878 17.5573 17.3012 15.4438 19.8991 15.4438C20.2813 15.4438 20.5912 15.7536 20.5912 16.1359C20.5912 16.5183 20.2814 16.8281 19.8991 16.8281C18.0645 16.8281 16.5721 18.3205 16.5721 20.1551ZM19.8991 21.8378C18.9713 21.8378 18.2164 21.083 18.2164 20.1551C18.2164 19.2272 18.9713 18.4723 19.8991 18.4723C20.827 18.4723 21.5819 19.2272 21.5819 20.1551C21.5819 21.083 20.827 21.8378 19.8991 21.8378ZM31.9528 20.5774C31.7956 20.8133 28.458 25.7159 22.4907 26.892C25.1949 25.8481 27.1189 23.2229 27.1189 20.1551C27.1189 17.0873 25.1949 14.462 22.4907 13.4182C28.458 14.5943 31.7956 19.4968 31.9528 19.7328C32.124 19.9894 32.124 20.3208 31.9528 20.5774Z" fill="#F9F2F9"/>
</svg>
