<?xml version="1.0" encoding="UTF-8" standalone="no"?>
<!-- Generator: Adobe Illustrator 21.1.0, SVG Export Plug-In . SVG Version: 6.00 Build 0)  -->

<svg
   xmlns:dc="http://purl.org/dc/elements/1.1/"
   xmlns:cc="http://creativecommons.org/ns#"
   xmlns:rdf="http://www.w3.org/1999/02/22-rdf-syntax-ns#"
   xmlns:svg="http://www.w3.org/2000/svg"
   xmlns="http://www.w3.org/2000/svg"
   xmlns:sodipodi="http://sodipodi.sourceforge.net/DTD/sodipodi-0.dtd"
   xmlns:inkscape="http://www.inkscape.org/namespaces/inkscape"
   version="1.1"
   id="Layer_1"
   x="0px"
   y="0px"
   viewBox="0 0 159.28653 67.199013"
   xml:space="preserve"
   sodipodi:docname="USCENSUS_IDENTITY_SOLO_White_2in_TM.svg"
   width="159.28653"
   height="67.199013"
   inkscape:version="0.92.3 (2405546, 2018-03-11)"><metadata
   id="metadata3911"><rdf:RDF><cc:Work
       rdf:about=""><dc:format>image/svg+xml</dc:format><dc:type
         rdf:resource="http://purl.org/dc/dcmitype/StillImage" /><dc:title></dc:title></cc:Work></rdf:RDF></metadata><defs
   id="defs3909" /><sodipodi:namedview
   pagecolor="#ffffff"
   bordercolor="#666666"
   borderopacity="1"
   objecttolerance="10"
   gridtolerance="10"
   guidetolerance="10"
   inkscape:pageopacity="0"
   inkscape:pageshadow="2"
   inkscape:window-width="1366"
   inkscape:window-height="705"
   id="namedview3907"
   showgrid="false"
   fit-margin-top="0"
   fit-margin-left="0"
   fit-margin-right="0"
   fit-margin-bottom="0"
   inkscape:zoom="4.0179165"
   inkscape:cx="56.465124"
   inkscape:cy="27.747483"
   inkscape:window-x="-8"
   inkscape:window-y="-8"
   inkscape:window-maximized="1"
   inkscape:current-layer="Layer_1" />
<style
   type="text/css"
   id="style3813">
	.Arched_x0020_Green{fill:url(#SVGID_1_);stroke:#FFFFFF;stroke-width:0.25;stroke-miterlimit:1;}
	.st0{fill:#FFFFFF;}
</style>
<linearGradient
   id="SVGID_1_"
   gradientUnits="userSpaceOnUse"
   x1="-32.579102"
   y1="133.9868"
   x2="-31.872"
   y2="133.27969">
	<stop
   offset="0"
   style="stop-color:#20AC4B"
   id="stop3815" />
	<stop
   offset="0.9831"
   style="stop-color:#19361A"
   id="stop3817" />
</linearGradient>
<rect
   id="rect3913"
   width="159.28653"
   height="67.199013"
   x="0"
   y="0"
   style="fill:#112e51;fill-opacity:1;stroke-width:0.65530246" /><g
   id="g3904"
   transform="translate(4.2310491,3.4701891)">
	<g
   id="g3830">
		<path
   class="st0"
   d="m 101.4,49 h 3.8 c 1.2,0 1.9,0.2 2.5,0.7 0.6,0.5 0.8,1.1 0.8,1.8 0,0.7 -0.2,1.3 -0.7,1.7 -0.3,0.3 -0.5,0.4 -0.9,0.5 1.4,0.4 2,1.2 2,2.6 0,1.4 -0.9,2.7 -2.7,2.8 -0.3,0 -0.7,0 -1.3,0 h -3.6 V 49 Z m 2,1.7 V 53 h 1.6 c 0.5,0 0.7,0 0.9,-0.1 0.3,-0.1 0.5,-0.6 0.5,-1 0,-0.4 -0.2,-0.8 -0.6,-1 -0.2,-0.1 -0.4,-0.1 -0.8,-0.1 h -1.6 z m 0,4 v 2.7 h 1.7 c 0.4,0 0.7,-0.1 0.9,-0.2 0.3,-0.2 0.5,-0.7 0.5,-1.2 0,-0.6 -0.3,-1.1 -0.7,-1.2 -0.2,-0.1 -0.3,-0.1 -0.8,-0.1 z"
   id="path3820"
   inkscape:connector-curvature="0"
   style="fill:#ffffff" />
		<path
   class="st0"
   d="m 119.4,51.8 v 0.7 c 0.3,-0.4 0.6,-0.7 1,-0.9 0.2,-0.1 0.4,-0.1 0.6,-0.1 0.3,0 0.4,0 0.7,0.2 l -0.4,1.6 c -0.2,-0.1 -0.3,-0.1 -0.6,-0.1 -0.4,0 -0.8,0.2 -1.2,0.6 v 5.3 h -2 v -7.3 z"
   id="path3822"
   inkscape:connector-curvature="0"
   style="fill:#ffffff" />
		<path
   class="st0"
   d="m 127.6,57.1 0.8,1.2 c -0.9,0.7 -1.8,1 -2.8,1 -2.1,0 -3.5,-1.5 -3.5,-3.9 0,-1.3 0.3,-2.2 0.9,-3 0.6,-0.7 1.4,-1 2.3,-1 0.9,0 1.7,0.3 2.2,0.8 0.7,0.7 1,1.7 1,3.3 0,0.2 0,0.2 0,0.5 h -4.3 v 0.1 c 0,1.2 0.6,1.8 1.6,1.8 0.6,0 1.2,-0.3 1.8,-0.8 z m -3.4,-2.5 h 2.3 v -0.1 c 0,-0.6 -0.1,-0.8 -0.2,-1.1 -0.2,-0.3 -0.5,-0.4 -0.9,-0.4 -0.8,-0.1 -1.2,0.5 -1.2,1.6 z"
   id="path3824"
   inkscape:connector-curvature="0"
   style="fill:#ffffff" />
		<path
   class="st0"
   d="m 134,59.1 v -0.5 c -0.3,0.3 -0.3,0.3 -0.5,0.4 -0.4,0.3 -0.9,0.4 -1.5,0.4 -1.7,0 -2.6,-0.8 -2.6,-2.3 0,-1.8 1.2,-2.6 3.6,-2.6 0.1,0 0.2,0 0.4,0 v -0.3 c 0,-0.8 -0.2,-1.1 -0.9,-1.1 -0.6,0 -1.4,0.3 -2.2,0.8 l -0.8,-1.4 c 0.5,-0.3 0.7,-0.4 1.2,-0.6 0.7,-0.3 1.4,-0.4 2,-0.4 1.3,0 2.1,0.5 2.4,1.3 0.1,0.3 0.1,0.5 0.1,1.3 v 2.5 c 0,0 0,0.1 0,0.1 V 59 Z m -0.6,-3.2 v 0 c -1.4,0 -1.9,0.2 -1.9,1.1 0,0.6 0.4,1 0.9,1 0.4,0 0.7,-0.2 1,-0.5 z"
   id="path3826"
   inkscape:connector-curvature="0"
   style="fill:#ffffff" />
		<path
   class="st0"
   d="m 141.2,59.1 v -0.5 c -0.5,0.5 -1.2,0.7 -2,0.7 -1,0 -2,-0.5 -2.2,-1.2 -0.1,-0.3 -0.2,-0.7 -0.2,-1.5 v -4.8 h 1.9 v 4.4 c 0,0.7 0,1 0.2,1.2 0.1,0.2 0.4,0.3 0.7,0.3 0.5,0 1.1,-0.3 1.2,-0.7 v -5.3 h 1.9 V 59 h -1.5 z"
   id="path3828"
   inkscape:connector-curvature="0"
   style="fill:#ffffff" />
	</g>
	<path
   class="st0"
   d="m 22.7,17.6 c -1.9,-1.3 -3.8,-1.9 -5.9,-1.9 -2.5,0 -5,1.1 -6.3,3 -1.4,2 -2.1,4.9 -2.1,8.9 0,4.7 0.4,7.4 1.5,9.3 1.5,2.5 3.9,3.9 7.1,3.9 2,0 3.8,-0.5 5.6,-1.7 0.2,-0.1 0.5,-0.3 0.7,-0.5 l 3,4.7 c -2.8,2 -5.9,2.9 -9.9,2.9 C 11.3,46.2 7.3,44.7 4.3,41.4 1.5,38.1 0,34 0,28.9 0,24.6 0.8,21.1 2.5,18.2 c 2.9,-5 8.2,-8 14.2,-8 3.4,0 6.8,0.9 8.9,2.4 z"
   id="path3832"
   inkscape:connector-curvature="0"
   style="fill:#ffffff" />
	<path
   class="st0"
   d="m 46.8,38.4 2.6,3.9 c -2.9,2.4 -6,3.5 -9.5,3.5 -7.2,0 -11.9,-5.1 -11.9,-13.1 0,-4.5 0.9,-7.5 3.2,-10 2.1,-2.3 4.6,-3.4 7.9,-3.4 2.9,0 5.7,1 7.3,2.7 2.3,2.4 3.3,5.8 3.3,11 0,0.5 0,0.7 0,1.5 H 35 v 0.2 c 0,3.9 1.9,6.1 5.3,6.1 2.3,0.1 4.5,-0.7 6.5,-2.4 z M 35.1,29.8 h 7.6 v -0.3 c 0,-1.9 -0.2,-2.9 -0.8,-3.8 -0.6,-1 -1.6,-1.5 -2.9,-1.5 -2.4,0 -3.9,2 -3.9,5.6 z"
   id="path3834"
   inkscape:connector-curvature="0"
   style="fill:#ffffff" />
	<path
   class="st0"
   d="m 58.7,19.6 0.6,2.8 c 1.5,-1.1 1.8,-1.3 2.9,-1.9 1.3,-0.7 3.1,-1.1 4.5,-1.1 2.8,0 5.3,1.5 6.1,3.6 0.3,0.9 0.5,2 0.5,3.6 V 45 H 66.8 V 28.7 C 66.8,25.8 66.3,25 64.6,25 63.3,25 61.5,25.9 60,27.3 V 45.1 H 53.4 V 19.6 Z"
   id="path3836"
   inkscape:connector-curvature="0"
   style="fill:#ffffff" />
	<path
   class="st0"
   d="m 59.3,19.6 v 2.8 c 1.5,-1.1 1.8,-1.3 2.9,-1.9 1.3,-0.7 3.1,-1.1 4.5,-1.1 2.8,0 5.3,1.5 6.1,3.6 0.3,0.9 0.5,2 0.5,3.6 V 45 H 66.8 V 28.7 C 66.8,25.8 66.3,25 64.6,25 63.3,25 61.5,25.9 60,27.3 V 45.1 H 53.4 V 19.6 Z"
   id="path3838"
   inkscape:connector-curvature="0"
   style="fill:#ffffff" />
	<path
   class="st0"
   d="m 93.9,26 c -2.5,-1.3 -4.3,-1.8 -6.2,-1.8 -1.9,0 -3.2,1 -3.2,2.5 0,1.3 0.8,2 3.2,2.6 l 3.1,0.8 c 3.1,0.8 4.1,1.7 5,2.9 0.9,1.2 1.4,2.6 1.4,4.3 0,5.2 -4.3,8.8 -10.8,8.8 -3,0 -6.3,-0.9 -9.9,-2.8 l 2.1,-5 c 2,1.2 5.5,2.9 8.4,2.9 1.9,0 3.4,-1.2 3.4,-2.9 0,-1.7 -1.2,-2.6 -3.9,-3.1 l -3,-0.5 C 81.8,34.4 79.8,33.2 78.9,32.1 78,31 77.5,29.2 77.5,27.6 c 0,-4.9 3.9,-8.2 9.7,-8.2 3.8,0 6.4,1.1 8.6,2.2 z"
   id="path3840"
   inkscape:connector-curvature="0"
   style="fill:#ffffff" />
	<path
   class="st0"
   d="m 114.6,45.1 v -2.8 c -1.5,1.1 -1.8,1.3 -2.9,1.9 -1.3,0.7 -3.1,1.1 -4.5,1.1 -2.8,0 -5.3,-1.5 -6.1,-3.6 -0.3,-0.9 -0.5,-2 -0.5,-3.6 V 19.6 h 6.5 V 36 c 0,2.9 0.5,3.7 2.2,3.7 1.3,0 3.1,-0.9 4.6,-2.3 V 19.6 h 6.6 v 25.5 z"
   id="path3842"
   inkscape:connector-curvature="0"
   style="fill:#ffffff" />
	<g
   id="g3846">
		<path
   class="st0"
   d="m 40.7,3 v 6.6 c 0,3.7 -1.8,5.7 -5,5.7 -3.3,0 -4.9,-2.1 -4.9,-5.7 V 3 H 29.3 V 1.3 h 5.1 V 3 h -1.5 v 6.8 c 0,2.4 1,3.7 2.9,3.7 2,0 2.9,-1.3 2.9,-3.6 V 3 H 37.2 V 1.3 h 5.1 V 3 h -1.6"
   id="path3844"
   inkscape:connector-curvature="0"
   style="fill:#ffffff" />
	</g>
	<g
   id="g3850">
		<path
   class="st0"
   d="m 48.7,15.1 v -1.6 h 1.2 V 8.7 c 0,-2 -0.6,-2.5 -1.7,-2.5 -1,0 -1.7,0.5 -2.2,1.3 v 6 h 1.2 v 1.6 H 42.8 V 13.5 H 44 V 6.4 H 42.8 V 4.7 H 46 V 5.8 C 46.7,5 47.5,4.5 48.8,4.5 50.9,4.5 52,5.7 52,8.6 v 4.9 h 1.2 v 1.6 h -4.5"
   id="path3848"
   inkscape:connector-curvature="0"
   style="fill:#ffffff" />
	</g>
	<g
   id="g3854">
		<path
   class="st0"
   d="m 56.4,3 c -0.7,0 -1.3,-0.6 -1.3,-1.3 0,-0.7 0.6,-1.3 1.3,-1.3 0.7,0 1.3,0.6 1.3,1.3 0,0.7 -0.6,1.3 -1.3,1.3 m -2.1,12.1 v -1.6 h 1.3 V 6.4 H 54.3 V 4.7 h 3.3 v 8.7 h 1.3 V 15 h -4.6 z"
   id="path3852"
   inkscape:connector-curvature="0"
   style="fill:#ffffff" />
	</g>
	<g
   id="g3860">
		<path
   class="st0"
   d="M 65.2,14.8"
   id="path3856"
   inkscape:connector-curvature="0"
   style="fill:#ffffff" />
		<path
   class="st0"
   d="m 65.2,14.8 c -0.5,0.3 -1.1,0.5 -1.9,0.5 -1.4,0 -2.2,-0.9 -2.2,-2.7 V 6.4 H 59.7 V 4.7 h 1.4 v -3 l 2,-1.1 v 4 h 2.3 v 1.6 h -2.3 v 6 c 0,1 0.3,1.2 1,1.2 0.2,0 0.4,0 0.6,-0.1 z"
   id="path3858"
   inkscape:connector-curvature="0"
   style="fill:#ffffff" />
	</g>
	<g
   id="g3864">
		<path
   class="st0"
   d="m 74.8,10.6 h -6.4 c 0.2,1.9 0.9,2.9 2.6,2.9 1.2,0 1.9,-0.3 2.8,-1 l 0.9,1.4 c -1.1,0.9 -2.3,1.4 -3.8,1.4 -2.5,0 -4.4,-2 -4.4,-5.4 0,-3.5 1.8,-5.4 4.3,-5.4 2.8,0 4.1,2.4 4.1,5.2 0,0.4 -0.1,0.7 -0.1,0.9 M 70.6,6.2 c -1.3,0 -2,1 -2.2,2.8 h 4.4 C 72.7,7.5 72.2,6.2 70.6,6.2"
   id="path3862"
   inkscape:connector-curvature="0"
   style="fill:#ffffff" />
	</g>
	<g
   id="g3868">
		<path
   class="st0"
   d="M 82.7,15.1 V 14 c -0.7,0.8 -1.5,1.3 -2.6,1.3 -2.2,0 -3.8,-1.6 -3.8,-5.6 0,-3.5 1.7,-5.2 3.7,-5.2 1.2,0 2,0.5 2.7,1.2 V 2.1 H 81.5 V 0.5 h 3.2 v 13 h 1.1 v 1.6 H 82.7 M 82.8,7.5 C 82.4,6.9 81.5,6.1 80.5,6.1 c -1.4,0 -2.1,1.2 -2.1,3.5 0,2.9 0.8,4 2.2,4 0.8,0 1.4,-0.4 2.2,-1.3 V 7.5 Z"
   id="path3866"
   inkscape:connector-curvature="0"
   style="fill:#ffffff" />
	</g>
	<g
   id="g3872">
		<path
   class="st0"
   d="m 97.1,15.3 c -1.3,0 -2.3,-0.5 -3,-1.3 v 1.1 H 92.3 V 10.9 H 94 c 0.5,1.7 1.4,2.7 3.1,2.7 1.5,0 2.3,-0.7 2.3,-2.1 C 99.4,10.3 99,9.7 96.5,9 93.8,8.2 92.4,7.3 92.4,4.9 c 0,-2.3 1.6,-3.8 3.9,-3.8 1.6,0 2.5,0.6 2.9,1.3 V 1.3 H 101 V 5.5 H 99.3 C 99,3.9 98.1,2.8 96.4,2.8 c -1.5,0 -2,0.8 -2,1.8 0,1.1 0.8,1.8 2.8,2.3 2.8,0.8 4.2,1.7 4.2,4.2 0.1,2.8 -1.7,4.2 -4.3,4.2"
   id="path3870"
   inkscape:connector-curvature="0"
   style="fill:#ffffff" />
	</g>
	<g
   id="g3876">
		<path
   class="st0"
   d="M 115.5,15.1 V 14 c -0.6,0.8 -1.6,1.3 -2.8,1.3 -1.8,0 -3.3,-0.9 -3.3,-3.4 0,-2.3 1.6,-3.4 3.8,-3.4 1,0 1.7,0.2 2.3,0.5 V 8 c 0,-1.1 -0.7,-1.8 -1.9,-1.8 -1,0 -1.8,0.2 -2.6,0.6 l -0.7,-1.4 c 0.9,-0.6 2,-0.9 3.4,-0.9 2.2,0 3.7,1.1 3.7,3.5 v 5.5 h 1.1 v 1.6 h -3 m 0,-4.6 C 115,10.2 114.4,10 113.2,10 c -1.1,0 -1.9,0.6 -1.9,1.7 0,1.3 0.6,1.8 1.8,1.8 1,0 1.9,-0.5 2.4,-1.3 z"
   id="path3874"
   inkscape:connector-curvature="0"
   style="fill:#ffffff" />
	</g>
	<g
   id="g3880">
		<path
   class="st0"
   d="m 134.3,10.6 h -6.4 c 0.2,1.9 1,2.9 2.6,2.9 1.2,0 1.9,-0.3 2.8,-1 l 0.9,1.4 c -1.1,0.9 -2.3,1.4 -3.8,1.4 -2.5,0 -4.4,-2 -4.4,-5.4 0,-3.5 1.8,-5.4 4.3,-5.4 2.8,0 4.1,2.4 4.1,5.2 -0.1,0.4 -0.1,0.7 -0.1,0.9 m -4.2,-4.4 c -1.3,0 -2,1 -2.2,2.8 h 4.4 c -0.1,-1.5 -0.7,-2.8 -2.2,-2.8"
   id="path3878"
   inkscape:connector-curvature="0"
   style="fill:#ffffff" />
	</g>
	<g
   id="g3884">
		<path
   class="st0"
   d="m 140,15.2 c -1.2,0 -1.8,-0.3 -2.3,-1 V 15 h -1.6 v -3.2 h 1.4 c 0.6,1.2 1.3,1.8 2.4,1.8 0.8,0 1.3,-0.5 1.3,-1.2 0,-0.8 -0.3,-1.2 -1.8,-1.6 -2.5,-0.7 -3.4,-1.5 -3.4,-3.4 0,-1.5 1.1,-2.9 3.2,-2.9 0.9,0 1.6,0.2 2.2,0.8 V 4.7 H 143 V 8 h -1.4 c -0.5,-1.2 -1.1,-1.8 -2.2,-1.8 -0.9,0 -1.3,0.4 -1.3,1.1 0,0.6 0.2,1.1 1.8,1.6 2.4,0.7 3.4,1.5 3.4,3.4 -0.1,1.6 -1.3,2.9 -3.3,2.9"
   id="path3882"
   inkscape:connector-curvature="0"
   style="fill:#ffffff" />
	</g>
	<path
   class="st0"
   d="m 114.5,59.1 v -0.5 c -0.5,0.5 -1.2,0.7 -2,0.7 -1,0 -2,-0.5 -2.2,-1.2 -0.1,-0.3 -0.2,-0.7 -0.2,-1.5 v -4.8 h 1.9 v 4.4 c 0,0.7 0,1 0.2,1.2 0.1,0.2 0.4,0.3 0.7,0.3 0.5,0 1.1,-0.3 1.2,-0.7 V 51.7 H 116 V 59 h -1.5 z"
   id="path3886"
   inkscape:connector-curvature="0"
   style="fill:#ffffff" />
	<path
   class="st0"
   d="m 141.2,26 c -2.5,-1.3 -4.3,-1.8 -6.2,-1.8 -1.9,0 -3.2,1 -3.2,2.5 0,1.3 0.8,2 3.2,2.6 l 3,0.7 c 3.1,0.8 4.1,1.7 5,2.9 0.9,1.2 1.4,2.6 1.4,4.3 0,5.2 -4.3,8.8 -10.8,8.8 -3,0 -6.3,-0.9 -9.9,-2.8 l 2.1,-5 c 2,1.2 5.5,2.9 8.4,2.9 1.9,0 3.4,-1.2 3.4,-2.9 0,-1.7 -1.2,-2.6 -3.9,-3.1 l -3,-0.5 C 129,34.3 127,33.1 126.1,32 c -0.9,-1.1 -1.4,-2.9 -1.4,-4.5 0,-4.9 3.9,-8.2 9.8,-8.2 3.8,0 6.4,1.1 8.6,2.2 z"
   id="path3888"
   inkscape:connector-curvature="0"
   style="fill:#ffffff" />
	<g
   id="g3892">
		<path
   class="st0"
   d="m 3.8,52.4 h 89.8 c 1.9,0 3.4,1.5 3.4,3.4 0,1.9 -1.5,3.4 -3.4,3.4 H 3.8 c -1.9,0 -3.4,-1.5 -3.4,-3.4 0,-1.9 1.5,-3.4 3.4,-3.4 z"
   id="path3890"
   inkscape:connector-curvature="0"
   style="fill:#ffffff" />
	</g>
	<path
   class="st0"
   d="m 108.1,14.8 c -0.5,0.3 -1.1,0.5 -1.9,0.5 -1.4,0 -2.2,-0.9 -2.2,-2.7 V 6.4 h -1.4 V 4.7 h 1.4 v -3 l 2,-1.1 v 4 h 2.3 V 6.2 H 106 v 6 c 0,1 0.3,1.2 1,1.2 0.2,0 0.4,0 0.6,-0.1 z"
   id="path3894"
   inkscape:connector-curvature="0"
   style="fill:#ffffff" />
	<path
   class="st0"
   d="m 124.7,14.8 c -0.5,0.3 -1.1,0.5 -1.9,0.5 -1.4,0 -2.2,-0.9 -2.2,-2.7 V 6.4 h -1.4 V 4.7 h 1.4 v -3 l 2,-1.1 v 4 h 2.3 v 1.6 h -2.3 v 6 c 0,1 0.3,1.2 1,1.2 0.2,0 0.4,0 0.6,-0.1 z"
   id="path3896"
   inkscape:connector-curvature="0"
   style="fill:#ffffff" />
	<g
   id="g3902">
		<path
   class="st0"
   d="M 146.2,6.3 V 3.7 h -0.9 V 3.4 h 2.3 v 0.3 h -0.9 v 2.5 h -0.5 z"
   id="path3898"
   inkscape:connector-curvature="0"
   style="fill:#ffffff" />
		<path
   class="st0"
   d="M 148,6.3 V 3.4 h 0.6 l 0.7,2 c 0.1,0.2 0.1,0.3 0.1,0.4 0,-0.1 0.1,-0.3 0.2,-0.5 l 0.7,-2 h 0.5 v 2.9 h -0.4 V 3.9 l -0.8,2.4 h -0.3 l -0.8,-2.4 v 2.4 z"
   id="path3900"
   inkscape:connector-curvature="0"
   style="fill:#ffffff" />
	</g>
</g>
</svg>