<svg width="256" height="256" viewBox="0 0 256 256" fill="none" xmlns="http://www.w3.org/2000/svg">
<path fill-rule="evenodd" clip-rule="evenodd" d="M193.568 187.797H78.1227V200.171C76.9889 206.433 73.6891 212.098 68.8005 216.174C63.9119 220.249 57.7459 222.476 51.3813 222.464C47.8248 222.472 44.3014 221.78 41.0124 220.427C37.7233 219.074 34.733 217.086 32.2122 214.577C29.6914 212.068 27.6895 209.087 26.3207 205.805C24.9519 202.522 24.2431 199.002 24.2347 195.445C24.2347 186.229 28.864 178.101 35.936 173.227L28.1493 162.155C22.7591 165.872 18.352 170.843 15.3068 176.64C12.2616 182.437 10.6693 188.887 10.6667 195.435C10.6667 217.824 28.9067 235.968 51.3813 235.968C71.5413 235.968 88.288 221.376 91.5413 202.219H193.024C195.371 206.24 199.744 208.939 204.757 208.939C208.346 208.944 211.791 207.525 214.335 204.994C216.879 202.462 218.314 199.024 218.325 195.435C218.316 192.541 217.382 189.726 215.66 187.4C213.938 185.074 211.518 183.359 208.753 182.505C205.988 181.651 203.022 181.703 200.289 182.653C197.555 183.603 195.197 185.402 193.557 187.787L193.568 187.797Z" fill="#FDB429"/>
<path fill-rule="evenodd" clip-rule="evenodd" d="M39.232 189.824C40.2329 187.324 41.9576 185.181 44.185 183.668C46.4124 182.155 49.0408 181.342 51.7333 181.333L102.635 93.1733C95.2496 87.0591 90.2689 78.5268 88.576 69.0898C86.8831 59.6529 88.5874 49.9213 93.3867 41.6213C97.7002 34.1522 104.283 28.2529 112.178 24.7804C120.073 21.3079 128.87 20.443 137.291 22.3114C145.711 24.1799 153.316 28.6843 159.002 35.1703C164.687 41.6563 168.157 49.7861 168.907 58.3786L155.445 59.552C155.042 54.9632 153.474 50.5534 150.888 46.7409C148.303 42.9285 144.786 39.8398 140.672 37.7678C136.558 35.6958 131.982 34.7092 127.38 34.9015C122.777 35.0939 118.3 36.4589 114.373 38.867C110.446 41.2752 107.2 44.6466 104.942 48.6615C102.683 52.6764 101.488 57.2017 101.469 61.8082C101.451 66.4146 102.609 70.9495 104.835 74.9826C107.06 79.0157 110.279 82.4134 114.187 84.8533L121.621 89.152L63.9787 189.003C65.6213 192.427 65.792 196.48 64.224 200.149C63.5874 201.849 62.6153 203.403 61.3656 204.718C60.1159 206.034 58.6142 207.085 56.9499 207.809C55.2856 208.532 53.4928 208.913 51.6781 208.929C49.8635 208.945 48.0642 208.596 46.3873 207.902C44.7105 207.208 43.1904 206.184 41.9176 204.891C40.6448 203.597 39.6453 202.061 38.9786 200.373C38.312 198.685 37.9918 196.88 38.0372 195.066C38.0825 193.252 38.4925 191.466 39.2427 189.813L39.232 189.824Z" fill="#003BFE"/>
<path fill-rule="evenodd" clip-rule="evenodd" d="M127.307 75.3067L184.384 174.144L191.179 170.219L191.285 170.432L191.467 170.325C204.405 162.859 220.885 167.179 228.267 179.989C235.669 192.8 231.179 209.237 218.24 216.704C214.471 218.894 210.228 220.142 205.873 220.34C201.518 220.539 197.18 219.683 193.227 217.845L187.467 230.037C193.393 232.778 199.893 234.051 206.415 233.749C212.938 233.446 219.291 231.577 224.939 228.299C244.352 217.099 251.083 192.437 239.989 173.227C229.963 155.883 208.843 148.907 190.549 155.947L139.904 68.2453C141.017 66.2341 141.592 63.9698 141.573 61.6713C141.554 59.3729 140.943 57.1182 139.797 55.1253C137.998 52.0418 135.048 49.7993 131.595 48.8911C128.142 47.9829 124.47 48.4835 121.387 50.2827C118.289 52.0532 116.02 54.9814 115.08 58.4236C114.14 61.8659 114.605 65.5405 116.373 68.64C118.72 72.7147 122.912 75.0827 127.307 75.3067Z" fill="#FB3D0B"/>
</svg>
