<svg width="64" height="64" viewBox="0 0 64 64" xmlns="http://www.w3.org/2000/svg">
  <rect width="64" height="64" rx="14" fill="#FF6719"/>
  <path d="M1153.25 473.701C1121.11 460.706 1084.52 468 1060.05 492.311L944.73 607.008L1005.68 667.207L1119.84 553.639V846.995L897.912 626.457C881.785 610.423 860.244 601.567 837.313 601.538H837.226C814.324 601.538 792.812 610.365 776.685 626.312L553.339 847.342V553.32L668.486 667.381L729.375 607.239L612.983 491.848C588.488 467.594 551.92 460.359 519.811 473.412C487.731 486.464 467 516.969 467 551.15V849.513C467 883.693 487.731 914.227 519.811 927.28C530.408 931.592 541.526 933.676 552.499 933.676C574.735 933.676 596.537 925.08 612.954 908.844L837.197 686.946L1060.05 908.41C1084.52 932.721 1121.11 940.014 1153.25 926.991C1185.39 913.967 1206.18 883.433 1206.18 849.194V551.497C1206.18 517.259 1185.42 486.725 1153.25 473.701Z" fill="#F5F4F1" transform="translate(-22.2919 -13.4378) scale(0.064865)"/>
</svg>
