<svg width="24" height="14" fill="none" xmlns="http://www.w3.org/2000/svg" viewBox="0 0 24 14">
    <path
        d="M17.855 4.055l1.99-3.449A.404.404 0 0019.7.055a.4.4 0 00-.55.146l-2.016 3.493A12.302 12.302 0 0012 2.6c-1.863 0-3.595.392-5.134 1.094L4.85.201a.402.402 0 00-.551-.146.402.402 0 00-.146.551l1.99 3.449C2.71 5.915.384 9.39 0 13.458h24c-.384-4.068-2.71-7.543-6.145-9.403zM6.49 10.088a1.006 1.006 0 110-2.013 1.006 1.006 0 010 2.013zm11.018 0a1.006 1.006 0 110-2.013 1.006 1.006 0 010 2.013z"
        fill="#32DE84"
    ></path>
</svg>
