<svg xmlns="http://www.w3.org/2000/svg" xmlns:xlink="http://www.w3.org/1999/xlink" viewBox="0 0 80 80"><defs><linearGradient id="a" x1="32.62" y1="30.1" x2="25.74" y2="44.14" gradientUnits="userSpaceOnUse"><stop offset="0" stop-color="#3f873f"/><stop offset=".33" stop-color="#3f8b3d"/><stop offset=".64" stop-color="#3e9637"/><stop offset=".93" stop-color="#3da92e"/><stop offset="1" stop-color="#3dae2b"/></linearGradient><linearGradient id="d" x1="28.37" y1="37.45" x2="47.68" y2="23.17" gradientUnits="userSpaceOnUse"><stop offset=".14" stop-color="#3f873f"/><stop offset=".4" stop-color="#529f44"/><stop offset=".71" stop-color="#63b649"/><stop offset=".91" stop-color="#6abf4b"/></linearGradient><linearGradient id="e" x1="20.72" y1="25.23" x2="38.33" y2="25.23" gradientUnits="userSpaceOnUse"><stop offset=".09" stop-color="#6abf4b"/><stop offset=".29" stop-color="#63b649"/><stop offset=".6" stop-color="#529f44"/><stop offset=".86" stop-color="#3f873f"/></linearGradient><linearGradient id="f" x1="20.72" y1="36.41" x2="38.33" y2="36.41" xlink:href="#e"/><linearGradient id="g" x1="20.72" y1="41.44" x2="38.33" y2="41.44" xlink:href="#e"/><linearGradient id="h" x1="20.72" y1="43.72" x2="38.33" y2="43.72" xlink:href="#e"/><linearGradient id="i" x1="40.9" y1="29.68" x2="30.04" y2="51.84" xlink:href="#a"/><clipPath id="c"><path d="M30 26.82a.94.94 0 00-.92 0l-7.62 4.4A.91.91 0 0021 32v8.8a.89.89 0 00.46.79L29.07 46a.89.89 0 00.93 0l7.61-4.4a.89.89 0 00.46-.79V32a.91.91 0 00-.46-.8z" clip-rule="evenodd" fill="url(#a)"/></clipPath><style>.b{fill:#679e63}.g{fill:none}</style></defs><path class="b" d="M39.54 64.5a1.48 1.48 0 01-.76-.21l-2.41-1.42c-.36-.2-.18-.28-.06-.32a4.66 4.66 0 001.09-.49.19.19 0 01.18 0l1.85 1.1a.22.22 0 00.22 0L46.88 59a.24.24 0 00.11-.19v-8.34a.26.26 0 00-.11-.2l-7.23-4.17a.22.22 0 00-.22 0l-7.22 4.17a.23.23 0 00-.11.2v8.34a.21.21 0 00.11.19l2 1.14c1.07.54 1.73-.09 1.73-.73v-8.23a.21.21 0 01.21-.21h.92a.21.21 0 01.21.21v8.23a2 2 0 01-2.14 2.26 3.07 3.07 0 01-1.67-.46l-1.89-1.09a1.51 1.51 0 01-.76-1.31v-8.34a1.53 1.53 0 01.76-1.32l7.2-4.15a1.58 1.58 0 011.52 0l7.23 4.17a1.54 1.54 0 01.75 1.32v8.34a1.52 1.52 0 01-.75 1.31l-7.23 4.15a1.45 1.45 0 01-.76.21z"/><path class="b" d="M41.77 58.75c-3.16 0-3.82-1.45-3.82-2.66a.21.21 0 01.21-.21h.93a.21.21 0 01.21.17c.14 1 .56 1.43 2.47 1.43 1.52 0 2.17-.34 2.17-1.15 0-.46-.18-.81-2.55-1-2-.2-3.2-.63-3.2-2.21s1.23-2.33 3.29-2.33c2.32 0 3.46.8 3.61 2.53a.25.25 0 01-.06.16.2.2 0 01-.15.06h-.94a.2.2 0 01-.2-.16c-.23-1-.77-1.32-2.26-1.32-1.66 0-1.85.58-1.85 1s.23.68 2.47 1 3.27.71 3.27 2.27-1.31 2.42-3.6 2.42zM52.19 50a1.39 1.39 0 11-1.39-1.39A1.39 1.39 0 0152.19 50zm-2.56 0a1.17 1.17 0 001.16 1.17A1.19 1.19 0 0052 50a1.17 1.17 0 10-2.34 0zm.64-.78h.54c.19 0 .55 0 .55.41a.35.35 0 01-.3.38c.22 0 .23.16.26.36a2 2 0 00.08.41h-.33c0-.07-.06-.47-.06-.49s0-.14-.16-.14h-.27v.63h-.31zm.3.68h.24a.21.21 0 00.24-.22c0-.21-.15-.21-.23-.21h-.25z"/><path d="M17.17 31.88a.94.94 0 00-.46-.81l-7.66-4.4a.94.94 0 00-.43-.13h-.07a.94.94 0 00-.43.13l-7.66 4.4a.94.94 0 00-.46.81v11.87a.45.45 0 00.23.4.47.47 0 00.46 0l4.55-2.61a.92.92 0 00.46-.8v-5.55a.94.94 0 01.46-.8l1.94-1.12a1 1 0 01.47-.12 1 1 0 01.46.12L11 34.39a.93.93 0 01.47.8v5.55a.92.92 0 00.46.8l4.55 2.61a.46.46 0 00.69-.4zM54 15.56a.46.46 0 00-.68.4v11.76a.33.33 0 01-.17.28.31.31 0 01-.32 0l-1.92-1.11a.92.92 0 00-.92 0l-7.67 4.42a.93.93 0 00-.46.8V41a.94.94 0 00.46.81L50 46.19a.89.89 0 00.92 0l7.67-4.42a.94.94 0 00.46-.81v-22a.91.91 0 00-.48-.8zm-.71 22.5a.23.23 0 01-.11.2l-2.63 1.51a.2.2 0 01-.23 0l-2.62-1.51a.23.23 0 01-.11-.2V35a.23.23 0 01.11-.2l2.64-1.52a.24.24 0 01.23 0l2.63 1.52a.23.23 0 01.11.2zm26.25-3.12a.93.93 0 00.46-.8V32a.93.93 0 00-.46-.8l-7.61-4.42a.91.91 0 00-.93 0l-7.66 4.42a.91.91 0 00-.46.8v8.84a.94.94 0 00.46.81L71 46a.9.9 0 00.9 0l4.61-2.56a.49.49 0 00.24-.4.47.47 0 00-.24-.41l-7.75-4.43a.47.47 0 01-.23-.4V35a.46.46 0 01.23-.4l2.4-1.39a.47.47 0 01.46 0L74 34.63a.45.45 0 01.24.4v2.18a.46.46 0 00.69.4z" fill="#333" fill-rule="evenodd"/><path d="M71.35 34.53a.15.15 0 01.18 0l1.47.84a.22.22 0 01.09.16v1.7a.19.19 0 01-.09.15l-1.47.85a.19.19 0 01-.18 0l-1.47-.85a.19.19 0 01-.09-.15v-1.7a.22.22 0 01.09-.16z" fill-rule="evenodd" fill="#679e63"/><path d="M30 26.82a.94.94 0 00-.92 0l-7.62 4.4A.91.91 0 0021 32v8.8a.89.89 0 00.46.79L29.07 46a.89.89 0 00.93 0l7.61-4.4a.89.89 0 00.46-.79V32a.91.91 0 00-.46-.8z" fill-rule="evenodd" fill="url(#a)"/><g clip-path="url(#c)"><path class="g" d="M29.05 26.82l-7.64 4.4a1 1 0 00-.49.8v8.8a.91.91 0 00.24.58l8.58-14.67a.93.93 0 00-.69.09zm.73 19.28A.85.85 0 0030 46l7.62-4.4a.91.91 0 00.48-.79V32a.9.9 0 00-.28-.64z"/><path d="M37.62 31.22L30 26.82a1.17 1.17 0 00-.24-.09l-8.6 14.67a.75.75 0 00.26.21L29.07 46a.89.89 0 00.71.09l8-14.72a1 1 0 00-.16-.15z" fill="url(#d)"/><path class="g" d="M38.1 40.82V32a1 1 0 00-.48-.8L30 26.82a.94.94 0 00-.28-.1L38.07 41a.76.76 0 00.03-.18zm-16.69-9.6a1 1 0 00-.49.8v8.8a.93.93 0 00.5.79L29.07 46a.88.88 0 00.59.12l-8.2-14.94z"/><path fill="url(#e)" d="M28.81 25.2l-.1.07h.14l-.04-.07z"/><path d="M37.62 41.61a.9.9 0 00.45-.58L29.7 26.72a.92.92 0 00-.65.1l-7.59 4.37 8.2 14.94A1.06 1.06 0 0030 46z" fill="url(#f)"/><path fill="url(#g)" d="M38.33 41.47l-.05-.08v.11l.05-.03z"/><path d="M37.62 41.61L30 46a1.06 1.06 0 01-.34.12l.15.28 8.47-4.91v-.11l-.21-.38a.9.9 0 01-.45.61z" fill="url(#h)"/><path d="M37.62 41.61L30 46a1.06 1.06 0 01-.34.12l.15.28 8.47-4.91v-.11l-.21-.38a.9.9 0 01-.45.61z" fill="url(#i)"/></g></svg>