<svg width="1152" height="697" viewBox="0 0 1152 697" fill="none" xmlns="http://www.w3.org/2000/svg">
<g opacity="0.4">
<rect width="2.22395" height="2.25795" transform="matrix(0.85933 -0.511421 -0.488665 -0.872472 735.784 526.73)" fill="white"/>
<rect width="2.22395" height="2.25795" transform="matrix(-0.85933 0.511421 0.488665 0.872472 433.256 165.999)" fill="white"/>
<rect width="2.22395" height="2.25795" transform="matrix(-0.85933 0.511421 0.488665 0.872472 102.857 510.138)" fill="white"/>
<rect width="2.22395" height="2.25795" transform="matrix(0.85933 -0.511421 -0.488665 -0.872472 1066.18 182.591)" fill="white"/>
<rect width="2.22395" height="2.25795" transform="matrix(-0.85933 0.511421 0.488665 0.872472 969.377 689.621)" fill="white"/>
<rect width="2.22395" height="2.25795" transform="matrix(0.85933 -0.511421 -0.488665 -0.872472 199.661 3.10736)" fill="white"/>
<rect width="2.22395" height="2.25795" transform="matrix(0.85933 -0.511421 -0.488665 -0.872472 550.587 656.594)" fill="white"/>
<rect width="2.22395" height="2.25795" transform="matrix(-0.85933 0.511421 0.488665 0.872472 618.452 36.1348)" fill="white"/>
<rect width="2.22395" height="2.25795" transform="matrix(-0.85933 0.511421 0.488665 0.872472 288.054 380.274)" fill="white"/>
<rect width="2.22395" height="2.25795" transform="matrix(0.85933 -0.511421 -0.488665 -0.872472 880.985 312.455)" fill="white"/>
<rect width="2.22395" height="2.25795" transform="matrix(-0.85933 0.511421 0.488665 0.872472 671.295 422.77)" fill="white"/>
<rect width="2.22395" height="2.25795" transform="matrix(0.85933 -0.511421 -0.488665 -0.872472 497.745 269.958)" fill="white"/>
<rect width="2.22395" height="2.25795" transform="matrix(0.85933 -0.511421 -0.488665 -0.872472 268.121 651.286)" fill="white"/>
<rect width="2.22395" height="2.25795" transform="matrix(-0.85933 0.511421 0.488665 0.872472 900.918 41.4424)" fill="white"/>
<rect width="2.22395" height="2.25795" transform="matrix(-0.85933 0.511421 0.488665 0.872472 570.519 385.582)" fill="white"/>
<rect width="2.22395" height="2.25795" transform="matrix(0.85933 -0.511421 -0.488665 -0.872472 598.519 307.147)" fill="white"/>
<rect width="2.22395" height="2.25795" transform="matrix(-0.85933 0.511421 0.488665 0.872472 953.759 428.079)" fill="white"/>
<rect width="2.22395" height="2.25795" transform="matrix(0.85933 -0.511421 -0.488665 -0.872472 215.279 264.65)" fill="white"/>
<rect width="2.22395" height="2.25795" transform="matrix(0.85933 -0.511421 -0.488665 -0.872472 632.237 656.594)" fill="white"/>
<rect width="2.22395" height="2.25795" transform="matrix(-0.85933 0.511421 0.488665 0.872472 536.802 36.1346)" fill="white"/>
<rect width="2.22395" height="2.25795" transform="matrix(-0.85933 0.511421 0.488665 0.872472 206.404 380.274)" fill="white"/>
<rect width="2.22395" height="2.25795" transform="matrix(0.85933 -0.511421 -0.488665 -0.872472 962.635 312.455)" fill="white"/>
<rect width="2.22395" height="2.25795" transform="matrix(-0.85933 0.511421 0.488665 0.872472 589.645 422.771)" fill="white"/>
<rect width="2.22395" height="2.25795" transform="matrix(0.85933 -0.511421 -0.488665 -0.872472 579.395 269.958)" fill="white"/>
<rect width="2.22395" height="2.25795" transform="matrix(0.85933 -0.511421 -0.488665 -0.872472 28.3202 647.495)" fill="white"/>
<rect width="2.22395" height="2.25795" transform="matrix(-0.85933 0.511421 0.488665 0.872472 1140.72 45.2337)" fill="white"/>
<rect width="2.22395" height="2.25795" transform="matrix(-0.85933 0.511421 0.488665 0.872472 810.321 389.373)" fill="white"/>
<rect width="2.22395" height="2.25795" transform="matrix(0.85933 -0.511421 -0.488665 -0.872472 358.719 303.355)" fill="white"/>
<rect width="2.22395" height="2.25795" transform="matrix(0.85933 -0.511421 -0.488665 -0.872472 836.729 621.715)" fill="white"/>
<rect width="2.22395" height="2.25795" transform="matrix(-0.85933 0.511421 0.488665 0.872472 332.31 71.0143)" fill="white"/>
<rect width="2.22395" height="2.25795" transform="matrix(-0.85933 0.511421 0.488665 0.872472 1.91119 415.153)" fill="white"/>
<rect width="2.22395" height="2.25795" transform="matrix(-0.85933 0.511421 0.488665 0.872472 868.431 594.637)" fill="white"/>
<rect width="2.22395" height="2.25795" transform="matrix(0.85933 -0.511421 -0.488665 -0.872472 300.608 98.0923)" fill="white"/>
<rect width="2.22395" height="2.25795" transform="matrix(0.85933 -0.511421 -0.488665 -0.872472 772.563 572.225)" fill="white"/>
<rect width="2.22395" height="2.25795" transform="matrix(-0.85933 0.511421 0.488665 0.872472 396.477 120.504)" fill="white"/>
<rect width="2.22395" height="2.25795" transform="matrix(-0.85933 0.511421 0.488665 0.872472 66.0782 464.643)" fill="white"/>
<rect width="2.22395" height="2.25795" transform="matrix(0.85933 -0.511421 -0.488665 -0.872472 1102.96 228.086)" fill="white"/>
<rect width="2.22395" height="2.25795" transform="matrix(-0.85933 0.511421 0.488665 0.872472 932.598 644.126)" fill="white"/>
<rect width="2.22395" height="2.25795" transform="matrix(0.85933 -0.511421 -0.488665 -0.872472 236.44 48.6027)" fill="white"/>
<rect width="2.22395" height="2.25795" transform="matrix(0.85933 -0.511421 -0.488665 -0.872472 316.499 625.302)" fill="white"/>
<rect width="2.22395" height="2.25795" transform="matrix(-0.85933 0.511421 0.488665 0.872472 852.539 67.4264)" fill="white"/>
<rect width="2.22395" height="2.25795" transform="matrix(-0.85933 0.511421 0.488665 0.872472 522.141 411.566)" fill="white"/>
<rect width="2.22395" height="2.25795" transform="matrix(0.85933 -0.511421 -0.488665 -0.872472 646.898 281.163)" fill="white"/>
<rect width="2.22395" height="2.25795" transform="matrix(-0.85933 0.511421 0.488665 0.872472 905.382 454.063)" fill="white"/>
<rect width="2.22395" height="2.25795" transform="matrix(0.85933 -0.511421 -0.488665 -0.872472 263.658 238.666)" fill="white"/>
<rect width="2.22395" height="2.25795" transform="matrix(0.85933 -0.511421 -0.488665 -0.872472 390.058 594.972)" fill="white"/>
<rect width="2.22395" height="2.25795" transform="matrix(-0.85933 0.511421 0.488665 0.872472 778.981 97.7565)" fill="white"/>
<rect width="2.22395" height="2.25795" transform="matrix(-0.85933 0.511421 0.488665 0.872472 448.583 441.896)" fill="white"/>
<rect width="2.22395" height="2.25795" transform="matrix(0.85933 -0.511421 -0.488665 -0.872472 720.456 250.833)" fill="white"/>
<rect width="2.22395" height="2.25795" transform="matrix(-0.85933 0.511421 0.488665 0.872472 831.823 484.393)" fill="white"/>
<rect width="2.22395" height="2.25795" transform="matrix(0.85933 -0.511421 -0.488665 -0.872472 337.216 208.336)" fill="white"/>
<rect width="2.22395" height="2.25795" transform="matrix(0.85933 -0.511421 -0.488665 -0.872472 70.984 659.627)" fill="white"/>
<rect width="2.22395" height="2.25795" transform="matrix(-0.85933 0.511421 0.488665 0.872472 1098.05 33.1016)" fill="white"/>
<rect width="2.22395" height="2.25795" transform="matrix(-0.85933 0.511421 0.488665 0.872472 767.657 377.241)" fill="white"/>
<rect width="2.22395" height="2.25795" transform="matrix(0.85933 -0.511421 -0.488665 -0.872472 401.382 315.488)" fill="white"/>
<rect width="2.22395" height="2.25795" transform="matrix(-0.85933 0.511421 0.488665 0.872472 1150.9 419.738)" fill="white"/>
<rect width="2.22395" height="2.25795" transform="matrix(0.85933 -0.511421 -0.488665 -0.872472 18.1422 272.99)" fill="white"/>
<rect width="2.22395" height="2.25795" transform="matrix(0.85933 -0.511421 -0.488665 -0.872472 699.004 648.05)" fill="white"/>
<rect width="2.22395" height="2.25795" transform="matrix(-0.85933 0.511421 0.488665 0.872472 470.035 44.6785)" fill="white"/>
<rect width="2.22395" height="2.25795" transform="matrix(-0.85933 0.511421 0.488665 0.872472 139.637 388.818)" fill="white"/>
<rect width="2.22395" height="2.25795" transform="matrix(0.85933 -0.511421 -0.488665 -0.872472 1029.4 303.911)" fill="white"/>
<rect width="2.22395" height="2.25795" transform="matrix(-0.85933 0.511421 0.488665 0.872472 1006.16 568.301)" fill="white"/>
<rect width="5.63813" height="5.72431" transform="matrix(0.85933 -0.511421 -0.488665 -0.872472 164.575 127.452)" fill="white"/>
<rect width="5.63813" height="5.72431" transform="matrix(0.85933 -0.511421 -0.488665 -0.872472 185.472 533.164)" fill="white"/>
<rect width="5.63813" height="5.72431" transform="matrix(0.85933 -0.511421 -0.488665 -0.872472 327.947 569.222)" fill="white"/>
<rect width="5.63813" height="5.72431" transform="matrix(0.85933 -0.511421 -0.488665 -0.872472 1133.68 691.888)" fill="white"/>
<rect width="5.63813" height="5.72431" transform="matrix(0.85933 -0.511421 -0.488665 -0.872472 419.527 696.089)" fill="white"/>
<rect width="5.63813" height="5.72431" transform="matrix(0.85933 -0.511421 -0.488665 -0.872472 982.867 536.035)" fill="white"/>
<rect width="5.63813" height="5.72431" transform="matrix(0.85933 -0.511421 -0.488665 -0.872472 856.42 210.465)" fill="white"/>
<rect width="5.63813" height="5.72431" transform="matrix(0.85933 -0.511421 -0.488665 -0.872472 943.799 122.247)" fill="white"/>
<rect width="5.63813" height="5.72431" transform="matrix(0.85933 -0.511421 -0.488665 -0.872472 518.088 515.213)" fill="white"/>
<rect width="2.22395" height="2.25795" transform="matrix(0.85933 -0.511421 -0.488665 -0.872472 478.329 648.05)" fill="white"/>
<rect width="2.22395" height="2.25795" transform="matrix(-0.85933 0.511421 0.488665 0.872472 690.71 44.6786)" fill="white"/>
<rect width="2.22395" height="2.25795" transform="matrix(-0.85933 0.511421 0.488665 0.872472 360.313 388.818)" fill="white"/>
<rect width="2.22395" height="2.25795" transform="matrix(0.85933 -0.511421 -0.488665 -0.872472 808.727 303.911)" fill="white"/>
<rect width="2.22395" height="2.25795" transform="matrix(-0.85933 0.511421 0.488665 0.872472 743.553 431.315)" fill="white"/>
<rect width="2.22395" height="2.25795" transform="matrix(0.85933 -0.511421 -0.488665 -0.872472 425.486 261.414)" fill="white"/>
<rect width="2.22395" height="2.25795" transform="matrix(0.85933 -0.511421 -0.488665 -0.872472 176.738 648.05)" fill="white"/>
<rect width="2.22395" height="2.25795" transform="matrix(-0.85933 0.511421 0.488665 0.872472 992.3 44.6787)" fill="white"/>
<rect width="2.22395" height="2.25795" transform="matrix(-0.85933 0.511421 0.488665 0.872472 661.903 388.818)" fill="white"/>
<rect width="2.22395" height="2.25795" transform="matrix(0.85933 -0.511421 -0.488665 -0.872472 507.136 303.911)" fill="white"/>
<rect width="2.22395" height="2.25795" transform="matrix(-0.85933 0.511421 0.488665 0.872472 1045.14 431.315)" fill="white"/>
<rect width="2.22395" height="2.25795" transform="matrix(0.85933 -0.511421 -0.488665 -0.872472 123.896 261.414)" fill="white"/>
<rect width="2.22395" height="2.25795" transform="matrix(0.85933 -0.511421 -0.488665 -0.872472 765.207 632.885)" fill="white"/>
<rect width="2.22395" height="2.25795" transform="matrix(-0.85933 0.511421 0.488665 0.872472 403.832 59.8439)" fill="white"/>
<rect width="2.22395" height="2.25795" transform="matrix(-0.85933 0.511421 0.488665 0.872472 73.4339 403.983)" fill="white"/>
<rect width="2.22395" height="2.25795" transform="matrix(0.85933 -0.511421 -0.488665 -0.872472 1095.6 288.745)" fill="white"/>
<rect width="2.22395" height="2.25795" transform="matrix(-0.85933 0.511421 0.488665 0.872472 939.954 583.466)" fill="white"/>
<rect width="2.22395" height="2.25795" transform="matrix(0.85933 -0.511421 -0.488665 -0.872472 229.085 109.262)" fill="white"/>
<rect width="2.22395" height="2.25795" transform="matrix(0.85933 -0.511421 -0.488665 -0.872472 588.666 632.885)" fill="white"/>
<rect width="2.22395" height="2.25795" transform="matrix(-0.85933 0.511421 0.488665 0.872472 580.373 59.8441)" fill="white"/>
<rect width="2.22395" height="2.25795" transform="matrix(-0.85933 0.511421 0.488665 0.872472 249.974 403.983)" fill="white"/>
<rect width="2.22395" height="2.25795" transform="matrix(0.85933 -0.511421 -0.488665 -0.872472 919.064 288.745)" fill="white"/>
<rect width="2.22395" height="2.25795" transform="matrix(-0.85933 0.511421 0.488665 0.872472 633.215 446.48)" fill="white"/>
<rect width="2.22395" height="2.25795" transform="matrix(0.85933 -0.511421 -0.488665 -0.872472 535.824 246.249)" fill="white"/>
<rect width="2.22395" height="2.25795" transform="matrix(0.85933 -0.511421 -0.488665 -0.872472 242.941 632.885)" fill="white"/>
<rect width="2.22395" height="2.25795" transform="matrix(-0.85933 0.511421 0.488665 0.872472 926.098 59.8441)" fill="white"/>
<rect width="2.22395" height="2.25795" transform="matrix(-0.85933 0.511421 0.488665 0.872472 595.7 403.983)" fill="white"/>
<rect width="2.22395" height="2.25795" transform="matrix(0.85933 -0.511421 -0.488665 -0.872472 573.339 288.746)" fill="white"/>
<rect width="2.22395" height="2.25795" transform="matrix(-0.85933 0.511421 0.488665 0.872472 978.94 446.48)" fill="white"/>
<rect width="2.22395" height="2.25795" transform="matrix(0.85933 -0.511421 -0.488665 -0.872472 190.098 246.249)" fill="white"/>
<rect width="2.22395" height="2.25795" transform="matrix(0.85933 -0.511421 -0.488665 -0.872472 809.342 549.477)" fill="white"/>
<rect width="2.22395" height="2.25795" transform="matrix(-0.85933 0.511421 0.488665 0.872472 359.697 143.251)" fill="white"/>
<rect width="2.22395" height="2.25795" transform="matrix(-0.85933 0.511421 0.488665 0.872472 29.2982 487.391)" fill="white"/>
<rect width="2.22395" height="2.25795" transform="matrix(0.85933 -0.511421 -0.488665 -0.872472 1139.74 205.338)" fill="white"/>
<rect width="2.22395" height="2.25795" transform="matrix(-0.85933 0.511421 0.488665 0.872472 895.819 666.874)" fill="white"/>
<rect width="2.22395" height="2.25795" transform="matrix(0.85933 -0.511421 -0.488665 -0.872472 273.22 25.855)" fill="white"/>
<rect width="2.22395" height="2.25795" transform="matrix(0.85933 -0.511421 -0.488665 -0.872472 425.537 605.033)" fill="white"/>
<rect width="2.22395" height="2.25795" transform="matrix(-0.85933 0.511421 0.488665 0.872472 743.502 87.6957)" fill="white"/>
<rect width="2.22395" height="2.25795" transform="matrix(-0.85933 0.511421 0.488665 0.872472 413.104 431.835)" fill="white"/>
<rect width="2.22395" height="2.25795" transform="matrix(0.85933 -0.511421 -0.488665 -0.872472 755.935 260.894)" fill="white"/>
<rect width="2.22395" height="2.25795" transform="matrix(-0.85933 0.511421 0.488665 0.872472 796.345 474.332)" fill="white"/>
<rect width="2.22395" height="2.25795" transform="matrix(0.85933 -0.511421 -0.488665 -0.872472 372.695 218.397)" fill="white"/>
</g>
</svg>
