<svg width="55" height="55" viewBox="0 0 55 55" fill="none" xmlns="http://www.w3.org/2000/svg">
<path d="M54.1111 35.4208L45.4584 44.0735C44.6529 44.8789 43.3471 44.8789 42.5416 44.0735L33.8888 35.4208C33.0833 34.6153 33.0833 33.3094 33.8888 32.504L34.8189 31.5739C35.6406 30.7521 36.9788 30.7712 37.7768 31.6162L41.2499 35.2936V19.6428H25.1325C24.5855 19.6428 24.0609 19.4255 23.674 19.0388L22.299 17.6638C20.9997 16.3644 21.9199 14.1428 23.7575 14.1428H44.6874C45.8265 14.1428 46.7499 15.0662 46.7499 16.2053V35.2936L50.2232 31.6162C51.0211 30.7713 52.3592 30.7521 53.181 31.5739L54.1111 32.504C54.9165 33.3094 54.9165 34.6154 54.1111 35.4208V35.4208ZM31.3258 36.7469C31.1343 36.5554 30.9069 36.4034 30.6567 36.2998C30.4064 36.1962 30.1382 36.1428 29.8674 36.1428H13.75V20.492L17.2232 24.1694C18.0212 25.0143 19.3593 25.0334 20.1811 24.2116L21.1111 23.2816C21.9166 22.4761 21.9166 21.1702 21.1111 20.3648L12.4584 11.7122C11.6529 10.9067 10.347 10.9067 9.54162 11.7122L0.888847 20.3649C0.0833563 21.1704 0.0833563 22.4763 0.888847 23.2817L1.81886 24.2117C2.64059 25.0334 3.97872 25.0144 4.77674 24.1695L8.24998 20.492V39.5803C8.24998 40.7194 9.17338 41.6428 10.3125 41.6428H31.2424C33.0799 41.6428 34.0002 39.4213 32.7009 38.1219L31.3258 36.7469V36.7469Z" fill="#C4C4C4"/>
</svg>
