<svg width="50" height="82" viewBox="0 0 50 82" fill="none" xmlns="http://www.w3.org/2000/svg">
<g clip-path="url(#clip0)">
<path d="M13.8765 13.744C12.9618 12.8377 11.7964 12.2206 10.5276 11.9706C9.2588 11.7206 7.94367 11.8489 6.74851 12.3393C5.55335 12.8298 4.53182 13.6603 3.81312 14.7259C3.09441 15.7915 2.7108 17.0443 2.7108 18.3258C2.71081 19.6074 3.09441 20.8602 3.81312 21.9258C4.53182 22.9914 5.55335 23.8219 6.74851 24.3124C7.94367 24.8028 9.2588 24.9311 10.5276 24.6811C11.7964 24.4311 12.9618 23.814 13.8765 22.9077C15.1032 21.6926 15.7923 20.0444 15.7923 18.3259C15.7923 16.6073 15.1032 14.9592 13.8765 13.744ZM29.5531 25.3469L32.2963 14.9739C32.3786 14.6565 32.3759 14.3233 32.2886 14.0072C32.2013 13.6911 32.0324 13.4029 31.7985 13.1712C31.5645 12.9394 31.2737 12.7721 30.9546 12.6856C30.6355 12.5991 30.2992 12.5965 29.9788 12.678L19.5082 15.3956C18.1128 15.7586 17.6553 17.4875 18.6855 18.5081L26.4114 26.162C27.4415 27.1825 29.1867 26.7293 29.5531 25.3469ZM25.439 27.4896L19.6578 21.7623C19.3511 21.4585 18.9352 21.2878 18.5015 21.2878C18.0679 21.2878 17.6519 21.4585 17.3453 21.7623L11.564 27.4896C11.2574 27.7934 11.0851 28.2055 11.0851 28.6351C11.0851 29.0647 11.2574 29.4768 11.564 29.7806L17.3453 35.5079C17.652 35.8117 18.0679 35.9824 18.5015 35.9824C18.9352 35.9824 19.3511 35.8117 19.6578 35.5079L25.439 29.7806C25.7457 29.4768 25.918 29.0647 25.918 28.6351C25.918 28.2055 25.7457 27.7934 25.439 27.4896Z" fill="#C4C4C4"/>
</g>
<g clip-path="url(#clip1)">
<path d="M47.0186 33.0256H2.31529C0.261216 33.0256 -0.775265 35.4947 0.680164 36.9366L18.5001 54.5931V74.2626C18.5001 75.0102 18.8683 75.7107 19.4865 76.1395L27.1948 81.4831C28.7156 82.5377 30.8334 81.4689 30.8334 79.6063V54.5931L48.6538 36.9366C50.1063 35.4976 49.0769 33.0256 47.0186 33.0256Z" fill="#C4C4C4"/>
</g>
<defs>
<clipPath id="clip0">
<rect width="26.0413" height="26.0413" fill="white" transform="matrix(0.71041 0.703788 -0.71041 0.703788 18.5 0)"/>
</clipPath>
<clipPath id="clip1">
<rect width="49.3333" height="48.8735" fill="white" transform="translate(0 33.0256)"/>
</clipPath>
</defs>
</svg>
