<svg width="55" height="55" viewBox="0 0 55 55" fill="none" xmlns="http://www.w3.org/2000/svg">
<g clip-path="url(#clip0)">
<path d="M10.3125 38.2054C9.16953 38.2054 8.25 39.1249 8.25 40.2679C8.25 41.4108 9.16953 42.3304 10.3125 42.3304C11.4555 42.3304 12.375 41.4108 12.375 40.2679C12.375 39.1249 11.4555 38.2054 10.3125 38.2054ZM17.1875 38.2054C16.0445 38.2054 15.125 39.1249 15.125 40.2679C15.125 41.4108 16.0445 42.3304 17.1875 42.3304C18.3305 42.3304 19.25 41.4108 19.25 40.2679C19.25 39.1249 18.3305 38.2054 17.1875 38.2054ZM24.0625 38.2054C22.9195 38.2054 22 39.1249 22 40.2679C22 41.4108 22.9195 42.3304 24.0625 42.3304C25.2055 42.3304 26.125 41.4108 26.125 40.2679C26.125 39.1249 25.2055 38.2054 24.0625 38.2054ZM30.9375 38.2054C29.7945 38.2054 28.875 39.1249 28.875 40.2679C28.875 41.4108 29.7945 42.3304 30.9375 42.3304C32.0805 42.3304 33 41.4108 33 40.2679C33 39.1249 32.0805 38.2054 30.9375 38.2054ZM51.4422 42.4507C50.1961 41.2046 49.5 39.5202 49.5 37.7585V29.0272C49.5 27.2655 50.1961 25.5811 51.4422 24.335L54.5961 21.1811C55.1289 20.6483 55.1289 19.7718 54.5961 19.2389L52.6539 17.2968C52.1211 16.7639 51.2445 16.7639 50.7117 17.2968L47.5578 20.4507C45.2805 22.728 44 25.8132 44 29.0358V30.6429H38.5V26.2686C38.5 25.521 38.3453 24.7905 38.0531 24.103L31.3242 8.39363C30.6711 6.87254 29.1844 5.89285 27.5258 5.89285H15.125C12.8477 5.89285 11 7.74051 11 10.0179V19.6429H9.625C7.34766 19.6429 5.5 21.4905 5.5 23.7679V31.6054C2.26016 33.1522 0 36.435 0 40.2679C0 45.5874 4.30547 49.8929 9.625 49.8929H31.625C36.9445 49.8929 41.25 45.5874 41.25 40.2679C41.25 38.7811 40.8891 37.3975 40.2875 36.1429H44V37.7499C44 40.9725 45.2805 44.0577 47.5578 46.335L50.7117 49.4889C51.2445 50.0218 52.1211 50.0218 52.6539 49.4889L54.5961 47.5468C55.1289 47.0139 55.1289 46.1374 54.5961 45.6046L51.4422 42.4507ZM16.5 11.3929H26.6234L32.5188 25.1429H22L16.5 19.6429V11.3929ZM31.625 44.3929H9.625C7.34766 44.3929 5.5 42.5452 5.5 40.2679C5.5 37.9905 7.34766 36.1429 9.625 36.1429H31.625C33.9023 36.1429 35.75 37.9905 35.75 40.2679C35.75 42.5452 33.9023 44.3929 31.625 44.3929Z" fill="#C4C4C4"/>
</g>
<defs>
<clipPath id="clip0">
<rect width="55" height="44" fill="white" transform="translate(0 5.89285)"/>
</clipPath>
</defs>
</svg>
