<svg width="100" height="100" viewBox="0 0 100 100" fill="none" xmlns="http://www.w3.org/2000/svg">
<path d="M5 61.1428L19.8771 75.9999H5V61.1428ZM5 57.4284L23.5964 75.9999H38.4734L5 42.5714V57.4284ZM5 38.8571L42.1927 75.9999H57.0699L5 24V38.8571ZM23.5964 38.8571L60.7892 75.9999V61.1428L23.5964 24V38.8571ZM42.1927 24V38.8571L60.7892 57.4284V42.5714L42.1927 24Z" fill="white"/>
<path fill-rule="evenodd" clip-rule="evenodd" d="M84.1043 65.8557C86.7971 68.5448 90.451 70.0573 94.2625 70.0573V76H63.4192V45.1982L84.1043 65.8557ZM75.321 67.0857C75.321 68.7268 73.9889 70.057 72.3457 70.057C70.7024 70.057 69.3701 68.7268 69.3701 67.0857C69.3701 65.4447 70.7024 64.1143 72.3457 64.1143C73.9889 64.1143 75.321 65.4447 75.321 67.0857Z" fill="white"/>
<path d="M5 75.9997H19.8771L5 61.1426V75.9997Z" fill="white"/>
<path d="M23.5964 42.5714L5 24V38.8571L23.5964 57.4284V42.5714Z" fill="white"/>
<path d="M5 42.5714V57.4286L23.5964 75.9999V61.1428L5 42.5714Z" fill="white"/>
<path d="M42.1927 42.5714L23.5964 24V38.8571L42.1927 57.4284V42.5714Z" fill="white"/>
<path d="M23.5964 75.9997H38.4734L23.5964 61.1426V75.9997Z" fill="white"/>
<path d="M23.5964 42.5714V57.4286L42.1927 75.9999V61.1428L23.5964 42.5714Z" fill="white"/>
</svg>
