<svg width="550" height="187" viewBox="0 0 550 187" fill="none" xmlns="http://www.w3.org/2000/svg">
<path d="M550 143.587L337.62 186.5L261.863 186.5L193 186.471L0.441288 143.587L0.441298 30.4519L48.9093 25.2465L97.3774 7.17197L187.062 2.93061e-05L248.124 17.5554L334.375 2.69258e-05L447.721 7.17196L550 43.321L550 143.587Z" fill="#C44975"/>
<path d="M550 186.5L0 186.5L0.441289 125.75L0.441294 79.7623L70.8535 73.6561L115.124 65.0693L148.135 60.6804L155.005 65.0693L165.691 73.6561L216.067 65.0693L262.436 79.7623L309.186 73.6561L358.609 79.7623L427.113 65.0693L479.969 79.7623L518.801 85.2961L550 67.9315L550 143.878L550 186.5Z" fill="#AC3968"/>
<path opacity="0.4" fill-rule="evenodd" clip-rule="evenodd" d="M42.8408 80.6899L42.947 95.5667L38.7765 95.4251L38.6959 111.578L36.4165 111.423L36.279 113.715L33.8727 113.752L33.9394 123.585L27.13 123.853L27.2731 100.951L27.219 99.1015L24.9058 98.9811L24.8579 97.088L22.8123 97.0649L22.8241 95.317L12.6115 95.2832L12.6087 97.2536L10.5005 97.306L10.4565 99.4049L8.34669 99.4484L8.31863 101.214L8.75215 123.989L4.08956 123.991L3.89436 114.106L2.23471 114.082L2.28188 112.158L0.306226 112.177L0 186.588L38.9741 186.605L549.559 182.516L549.136 98.5692L547.216 98.6615L547.058 100.696L545.297 100.704L545.199 102.809L543.341 102.916L543.332 104.977L541.368 104.989L531.169 119.5L527.029 119.533L527.012 113.32L518.777 113.358L512.161 113.568L511.872 104.488L509.257 104.511L509.135 102.194L506.983 102.156L507.04 99.9653L504.913 99.9551L505.007 97.8563L502.746 97.853L502.571 95.3015L499.952 95.3946L500.054 93.1522L497.536 93.1542L497.581 91.1184L495.279 91.2335L495.381 88.8821H493.49L493.522 86.5197L490.55 86.5274L490.436 95.3983L490.338 115.903L485.791 115.757L485.759 120.119L484.527 120.126L484.506 121.394L483.176 121.418L483.197 122.744L481.855 122.729V123.961L480.545 123.956L480.574 125.225H479.26V124.125L476.93 124.191L476.922 121.274L475.523 121.246L475.511 120.074L472.9 116.272L471.871 114.625L470.874 116.304L468.194 120.305L468.19 121.492L466.901 121.47L466.881 123.889L464.77 123.926L464.896 133.288L462.57 133.323L462.562 114.523L462.529 113.72L461.736 113.693V112.973L461.033 112.984V112.255L460.337 112.291L460.297 106.391L459.093 106.385L449.666 106.385L449.67 108.019L448.259 108.03V109.495L441.561 109.437L441.423 121.566L436.294 121.396L436.201 123.782L434.749 123.748L434.672 124.996L433.35 125.004L433.305 126.172L432.126 126.155L432.102 127.283L430.922 127.297L430.853 128.44L429.71 128.417L429.662 129.536L425.225 129.505L425.526 103.65L423.179 103.565L423.452 90.497L403.26 90.4063L403.109 103.746L400.905 103.716L400.881 118.704L394.297 118.828L394.175 93.2482L391.743 93.2494V90.0671L388.827 90.0448L388.709 84.1821L385.439 84.228L385.443 80.6167L375.012 80.5256L375.053 84.0129L371.921 84.0214L372.007 90.7341L369.16 90.584L369.14 94.3015L366.565 94.3019L366.789 132.585L364.442 132.604L364.463 125.47L363.137 125.44L356.248 122.323L352.063 122.285L352.104 119.431L343.917 119.506L339.883 123.618L339.842 132.181L331.802 132.064L331.636 141.862L329.545 141.897L329.212 117.474L315.287 101.229L311.342 101.405L307.393 101.452L307.296 93.1107L296.079 93.0383L295.215 99.3768L290.037 105.094L286.9 105.052L286.945 129.518L282.057 129.391L282.029 130.873L280.455 130.807L280.431 132.28L278.871 132.231L278.823 133.796L274.809 133.642L274.847 115.507L270.835 111.528L258.493 111.126L257.105 112.299L254.552 114.628L254.52 129.798L246.312 129.946L246.509 101.071L245.032 101.07L245.08 99.7591L243.816 99.7351V98.4289L230.997 98.4769L230.769 111.142L228.407 111.191L228.502 113.422L225.949 113.419L225.923 115.311L223.953 115.437L223.908 117.387L222.047 117.454L221.99 119.496L219.895 119.494V121.4L217.854 121.439L217.858 123.783L210.109 123.843L210.232 95.0526L193.763 95.232L193.561 85.8775L185.626 85.6998L185.568 89.4954L177.472 89.5417L177.197 129.89L172.92 129.993L173.15 101.367L152.937 111.601L152.824 128.196L151.495 128.196L151.514 129.522L150.135 129.543L150.137 130.879L148.735 130.854L148.738 132.035L147.352 132.014L147.316 133.517L138.406 133.575L134.347 129.564L134.312 120.944L128.538 120.94L128.607 107.541L112.222 107.737L112.348 121.11L99.8711 129.315L99.8638 105.061L97.7637 105.098L97.7466 103.164L95.8002 103.193L90.005 98.4488L83.5742 103.212L81.7055 103.239L81.6783 105.136L79.6193 105.172L79.5749 121.4L71.238 121.333L71.2551 119.208L69.1099 119.195L69.0968 117.093L67.2538 117.103L67.2501 115.203L65.065 115.216L65.052 113.275L63.2744 113.281L63.1906 84.9715L59.0986 84.9255L59.1047 82.9153H56.981L56.9941 80.7644L42.8408 80.6899ZM15.6472 101.897H13.3573V104.187H15.6472V101.897ZM13.3573 108.004H15.6472V110.293H13.3573V108.004ZM15.6472 114.11H13.3573V116.4H15.6472V114.11ZM19.8452 101.897H22.135V104.187H19.8452V101.897ZM22.135 108.004H19.8452V110.293H22.135V108.004ZM19.8452 114.11H22.135V116.4H19.8452V114.11ZM22.135 132.428H19.8452V134.718H22.135V132.428ZM539.636 114.11H541.926V118.689H539.636V114.11ZM541.926 121.361H539.636V125.941H541.926V121.361ZM539.636 128.612H541.926V133.192H539.636V128.612ZM541.926 135.863H539.636V140.443H541.926V135.863ZM539.636 143.114H541.926V147.694H539.636V143.114ZM541.926 150.365H539.636V154.945H541.926V150.365ZM539.636 157.617H541.926V162.196H539.636V157.617ZM541.926 164.868H539.636V169.447H541.926V164.868ZM504.525 101.134V167.157H502.236V101.134H504.525ZM500.327 167.157V97.3177H498.038V167.157H500.327ZM506.434 104.569H508.723V167.157H506.434V104.569ZM496.129 167.157V94.2646H493.84V167.157H496.129ZM446.135 172.5H443.845V170.211H446.135V172.5ZM448.043 172.5H450.333V170.211H448.043V172.5ZM450.333 143.114H448.043V140.824H450.333V143.114ZM448.043 117.926H450.333V115.636H448.043V117.926ZM450.333 168.302H448.043V166.013H450.333V168.302ZM448.043 138.916H450.333V136.626H448.043V138.916ZM450.333 113.728H448.043V111.438H450.333V113.728ZM452.241 172.5H454.531V170.211H452.241V172.5ZM454.531 143.114H452.241V140.824H454.531V143.114ZM452.241 113.728H454.531V111.438H452.241V113.728ZM458.729 113.728H456.439V111.438H458.729V113.728ZM443.845 147.312H446.135V145.022H443.845V147.312ZM446.135 122.124H443.845V119.834H446.135V122.124ZM443.845 164.104H446.135V161.815H443.845V164.104ZM446.135 138.916H443.845V136.626H446.135V138.916ZM443.845 113.728H446.135V111.438H443.845V113.728ZM446.135 155.708H443.845V153.418H446.135V155.708ZM443.845 130.52H446.135V128.23H443.845V130.52ZM446.135 168.302H443.845V166.013H446.135V168.302ZM443.845 143.114H446.135V140.824H443.845V143.114ZM446.135 117.926H443.845V115.636H446.135V117.926ZM443.845 159.906H446.135V157.617H443.845V159.906ZM446.135 134.718H443.845V132.428H446.135V134.718ZM443.845 151.51H446.135V149.22H443.845V151.51ZM446.135 126.322H443.845V124.032H446.135V126.322ZM407.971 92.3564H405.681V96.9361H407.971V92.3564ZM405.681 99.6075H407.971V104.187H405.681V99.6075ZM407.971 106.859H405.681V111.438H407.971V106.859ZM405.681 114.11H407.971V118.689H405.681V114.11ZM407.971 121.361H405.681V125.941H407.971V121.361ZM405.681 128.612H407.971V133.192H405.681V128.612ZM407.971 135.863H405.681V140.443H407.971V135.863ZM405.681 143.114H407.971V147.694H405.681V143.114ZM407.971 150.365H405.681V154.945H407.971V150.365ZM405.681 157.617H407.971V162.196H405.681V157.617ZM407.971 164.868H405.681V169.447H407.971V164.868ZM375.913 87.3951H378.203V89.6849H375.913V87.3951ZM371.715 99.6075H369.426V101.897H371.715V99.6075ZM388.889 99.6075H391.179V101.897H388.889V99.6075ZM378.203 105.714H375.913V108.004H378.203V105.714ZM369.426 117.926H371.715V120.216H369.426V117.926ZM391.179 117.926H388.889V120.216H391.179V117.926ZM375.913 124.032H378.203V126.322H375.913V124.032ZM371.715 136.245H369.426V138.535H371.715V136.245ZM388.889 136.245H391.179V138.535H388.889V136.245ZM378.203 142.351H375.913V144.641H378.203V142.351ZM369.426 154.563H371.715V156.853H369.426V154.563ZM391.179 154.563H388.889V156.853H391.179V154.563ZM375.913 93.5013H378.203V95.7912H375.913V93.5013ZM371.715 105.714H369.426V108.004H371.715V105.714ZM388.889 105.714H391.179V108.004H388.889V105.714ZM378.203 111.82H375.913V114.11H378.203V111.82ZM369.426 124.032H371.715V126.322H369.426V124.032ZM391.179 124.032H388.889V126.322H391.179V124.032ZM375.913 130.139H378.203V132.428H375.913V130.139ZM371.715 142.351H369.426V144.641H371.715V142.351ZM388.889 142.351H391.179V144.641H388.889V142.351ZM378.203 148.457H375.913V150.747H378.203V148.457ZM375.913 160.67H378.203V162.959H375.913V160.67ZM371.715 160.67H369.426V162.959H371.715V160.67ZM388.889 160.67H391.179V162.959H388.889V160.67ZM378.203 99.6075H375.913V101.897H378.203V99.6075ZM369.426 111.82H371.715V114.11H369.426V111.82ZM391.179 111.82H388.889V114.11H391.179V111.82ZM375.913 117.926H378.203V120.216H375.913V117.926ZM371.715 130.139H369.426V132.428H371.715V130.139ZM388.889 130.139H391.179V132.428H388.889V130.139ZM378.203 136.245H375.913V138.535H378.203V136.245ZM369.426 148.457H371.715V150.747H369.426V148.457ZM391.179 148.457H388.889V150.747H391.179V148.457ZM375.913 154.563H378.203V156.853H375.913V154.563ZM378.203 166.776H375.913V169.066H378.203V166.776ZM369.426 166.776H371.715V169.066H369.426V166.776ZM391.179 166.776H388.889V169.066H391.179V166.776ZM382.401 87.3951H384.691V89.6849H382.401V87.3951ZM384.691 105.714H382.401V108.004H384.691V105.714ZM382.401 124.032H384.691V126.322H382.401V124.032ZM384.691 142.351H382.401V144.641H384.691V142.351ZM382.401 93.5013H384.691V95.7912H382.401V93.5013ZM384.691 111.82H382.401V114.11H384.691V111.82ZM382.401 130.139H384.691V132.428H382.401V130.139ZM384.691 148.457H382.401V150.747H384.691V148.457ZM382.401 160.67H384.691V162.959H382.401V160.67ZM384.691 99.6075H382.401V101.897H384.691V99.6075ZM382.401 117.926H384.691V120.216H382.401V117.926ZM384.691 136.245H382.401V138.535H384.691V136.245ZM382.401 154.563H384.691V156.853H382.401V154.563ZM384.691 166.776H382.401V169.066H384.691V166.776ZM13.3573 120.216H15.6472V122.506H13.3573V120.216ZM15.6472 138.535H13.3573V140.824H15.6472V138.535ZM13.3573 156.853H15.6472V159.143H13.3573V156.853ZM15.6472 126.322H13.3573V128.612H15.6472V126.322ZM13.3573 144.641H15.6472V146.931H13.3573V144.641ZM15.6472 162.959H13.3573V165.249H15.6472V162.959ZM13.3573 132.428H15.6472V134.718H13.3573V132.428ZM15.6472 150.747H13.3573V153.037H15.6472V150.747ZM13.3573 169.066H15.6472V171.355H13.3573V169.066ZM22.135 120.216H19.8452V122.506H22.135V120.216ZM19.8452 138.535H22.135V140.824H19.8452V138.535ZM22.135 156.853H19.8452V159.143H22.135V156.853ZM19.8452 126.322H22.135V128.612H19.8452V126.322ZM22.135 144.641H19.8452V146.931H22.135V144.641ZM19.8452 162.959H22.135V165.249H19.8452V162.959ZM22.135 150.747H19.8452V153.037H22.135V150.747ZM19.8452 169.066H22.135V171.355H19.8452V169.066ZM54.1926 92.3564H51.9028V96.9361H54.1926V92.3564ZM51.9028 99.6075H54.1926V104.187H51.9028V99.6075ZM54.1926 106.859H51.9028V111.438H54.1926V106.859ZM51.9028 114.11H54.1926V118.689H51.9028V114.11ZM54.1926 121.361H51.9028V125.941H54.1926V121.361ZM51.9028 128.612H54.1926V133.192H51.9028V128.612ZM54.1926 135.863H51.9028V140.443H54.1926V135.863ZM51.9028 143.114H54.1926V147.694H51.9028V143.114ZM54.1926 150.365H51.9028V154.945H54.1926V150.365ZM51.9028 157.617H54.1926V162.196H51.9028V157.617ZM54.1926 164.868H51.9028V169.447H54.1926V164.868ZM124.414 109.53H126.704V111.82H124.414V109.53ZM122.506 109.53H120.216V111.82H122.506V109.53ZM120.216 138.916H122.506V141.206H120.216V138.916ZM122.506 164.104H120.216V166.394H122.506V164.104ZM120.216 113.728H122.506V116.018H120.216V113.728ZM122.506 143.114H120.216V145.404H122.506V143.114ZM120.216 168.302H122.506V170.592H120.216V168.302ZM118.308 109.53H116.018V111.82H118.308V109.53ZM116.018 138.916H118.308V141.206H116.018V138.916ZM118.308 164.104H116.018V166.394H118.308V164.104ZM124.414 134.718H126.704V137.008H124.414V134.718ZM126.704 159.906H124.414V162.196H126.704V159.906ZM124.414 117.926H126.704V120.216H124.414V117.926ZM126.704 143.114H124.414V145.404H126.704V143.114ZM124.414 168.302H126.704V170.592H124.414V168.302ZM126.704 126.322H124.414V128.612H126.704V126.322ZM124.414 151.51H126.704V153.8H124.414V151.51ZM126.704 113.728H124.414V116.018H126.704V113.728ZM124.414 138.916H126.704V141.206H124.414V138.916ZM126.704 164.104H124.414V166.394H126.704V164.104ZM124.414 122.124H126.704V124.414H124.414V122.124ZM126.704 147.312H124.414V149.602H126.704V147.312ZM124.414 130.52H126.704V132.81H124.414V130.52ZM126.704 155.708H124.414V157.998H126.704V155.708ZM183.95 101.897H203.031V104.187H183.95V101.897ZM203.031 139.68H183.95V141.969H203.031V139.68ZM183.95 114.491H203.031V116.781H183.95V114.491ZM203.031 152.274H183.95V154.563H203.031V152.274ZM183.95 127.085H203.031V129.375H183.95V127.085ZM203.031 164.868H183.95V167.157H203.031V164.868ZM183.95 106.095H203.031V108.385H183.95V106.095ZM203.031 143.878H183.95V146.167H203.031V143.878ZM183.95 118.689H203.031V120.979H183.95V118.689ZM203.031 156.472H183.95V158.761H203.031V156.472ZM183.95 131.283H203.031V133.573H183.95V131.283ZM203.031 169.066H183.95V171.355H203.031V169.066ZM183.95 110.293H203.031V112.583H183.95V110.293ZM203.031 148.076H183.95V150.365H203.031V148.076ZM183.95 122.887H203.031V125.177H183.95V122.887ZM203.031 160.67H183.95V162.959H203.031V160.67ZM183.95 135.482H203.031V137.771H183.95V135.482ZM203.031 173.264H183.95V175.554H203.031V173.264ZM234.326 101.897H236.616V104.187H234.326V101.897ZM236.616 120.216H234.326V122.506H236.616V120.216ZM234.326 138.535H236.616V140.824H234.326V138.535ZM236.616 156.853H234.326V159.143H236.616V156.853ZM234.326 108.004H236.616V110.293H234.326V108.004ZM236.616 126.322H234.326V128.612H236.616V126.322ZM234.326 144.641H236.616V146.931H234.326V144.641ZM236.616 162.959H234.326V165.249H236.616V162.959ZM234.326 114.11H236.616V116.4H234.326V114.11ZM236.616 132.428H234.326V134.718H236.616V132.428ZM234.326 150.747H236.616V153.037H234.326V150.747ZM236.616 169.066H234.326V171.355H236.616V169.066ZM240.814 101.897H243.103V104.187H240.814V101.897ZM243.103 120.216H240.814V122.506H243.103V120.216ZM240.814 138.535H243.103V140.824H240.814V138.535ZM243.103 156.853H240.814V159.143H243.103V156.853ZM240.814 108.004H243.103V110.293H240.814V108.004ZM243.103 126.322H240.814V128.612H243.103V126.322ZM240.814 144.641H243.103V146.931H240.814V144.641ZM243.103 162.959H240.814V165.249H243.103V162.959ZM240.814 114.11H243.103V116.4H240.814V114.11ZM243.103 132.428H240.814V134.718H243.103V132.428ZM240.814 150.747H243.103V153.037H240.814V150.747ZM243.103 169.066H240.814V171.355H243.103V169.066ZM298.441 95.7912H300.731V98.081H298.441V95.7912ZM300.731 114.11H298.441V116.4H300.731V114.11ZM298.441 132.428H300.731V134.718H298.441V132.428ZM300.731 150.747H298.441V153.037H300.731V150.747ZM298.441 101.897H300.731V104.187H298.441V101.897ZM300.731 120.216H298.441V122.506H300.731V120.216ZM298.441 138.535H300.731V140.824H298.441V138.535ZM300.731 156.853H298.441V159.143H300.731V156.853ZM298.441 108.004H300.731V110.293H298.441V108.004ZM300.731 126.322H298.441V128.612H300.731V126.322ZM298.441 144.641H300.731V146.931H298.441V144.641ZM300.731 162.959H298.441V165.249H300.731V162.959ZM298.441 169.066H300.731V171.355H298.441V169.066ZM304.547 95.7912H302.257V98.081H304.547V95.7912ZM302.257 114.11H304.547V116.4H302.257V114.11ZM304.547 132.428H302.257V134.718H304.547V132.428ZM302.257 150.747H304.547V153.037H302.257V150.747ZM304.547 101.897H302.257V104.187H304.547V101.897ZM302.257 120.216H304.547V122.506H302.257V120.216ZM304.547 138.535H302.257V140.824H304.547V138.535ZM302.257 156.853H304.547V159.143H302.257V156.853ZM304.547 108.004H302.257V110.293H304.547V108.004ZM302.257 126.322H304.547V128.612H302.257V126.322ZM304.547 144.641H302.257V146.931H304.547V144.641ZM302.257 162.959H304.547V165.249H302.257V162.959ZM304.547 169.066H302.257V171.355H304.547V169.066Z" fill="url(#paint0_linear)"/>
<defs>
<linearGradient id="paint0_linear" x1="274.779" y1="129.566" x2="274.779" y2="186.605" gradientUnits="userSpaceOnUse">
<stop stop-color="#883069"/>
<stop offset="1" stop-color="#9A3978"/>
</linearGradient>
</defs>
</svg>
