<svg xmlns="http://www.w3.org/2000/svg" preserveAspectRatio="xMidYMid" viewBox="0 0 256 252">
  <path d="M236 194c-14 0-25 1-34 5-3 1-7 1-7 4l3 6c2 3 5 8 9 11l11 8 21 10 11 9 6 4-3-6-5-5c-5-7-11-13-18-18-6-3-18-9-20-15h-1l12-3 18-3 8-2v-2l-9-10c-8-8-18-15-28-22l-18-8c-2-1-6-2-7-4l-7-13-15-30-8-20c-18-30-38-48-68-65-6-4-14-5-22-7l-13-1-8-6C34 5 8-9 1 9c-5 11 7 22 11 28l9 13 3 9c3 8 5 17 9 24l6 10c2 2 4 3 5 6-3 4-3 9-4 13-7 20-4 44 5 59 2 4 9 14 18 10 8-3 6-13 8-22l1-4 8 14c5 9 14 18 22 24 4 3 8 8 13 10l-4-4-9-10c-8-10-14-21-20-32l-7-17-3-6c-3 4-7 7-9 12-3 7-3 17-4 26h-1c-6-1-8-7-10-12-5-12-6-32-1-46 1-4 6-15 4-19-1-3-4-5-6-7l-7-12-10-30-9-13c-3-5-7-8-10-14-1-2-2-5 0-7l2-2c2-2 9 0 11 1 6 3 12 5 17 9l8 6h4c6 1 12 0 17 2 9 3 18 7 25 12 23 14 42 35 54 59 3 4 3 8 5 12l12 26c4 8 7 16 12 23 3 4 14 6 18 8l12 4 18 12c2 2 11 7 12 10Z" fill="#00546B"/>
  <path d="m58 43-7 1 6 7 4 9v-1c3-1 4-4 4-8l-2-4-5-4Z" fill="#00546B"/>
</svg>
