<?xml version="1.0" encoding="UTF-8"?>
<svg id="Layer_1" xmlns="http://www.w3.org/2000/svg" xmlns:xlink="http://www.w3.org/1999/xlink" version="1.1" viewBox="0 0 500 450">
  <!-- Generator: Adobe Illustrator 29.0.0, SVG Export Plug-In . SVG Version: 2.1.0 Build 186)  -->
  <defs>
    <style>
      .st0, .st1 {
        fill: none;
      }

      .st2 {
        fill: #8d5743;
      }

      .st3 {
        fill: #a86850;
      }

      .st4 {
        fill: #ecd4be;
      }

      .st5 {
        fill: #1d4aff;
      }

      .st6 {
        fill: #e58562;
      }

      .st7 {
        fill: #f9dfc8;
      }

      .st8 {
        fill: #a94a27;
      }

      .st9 {
        fill: #bda998;
      }

      .st10 {
        fill: #5a94e1;
      }

      .st11 {
        fill: #b5b5b5;
      }

      .st12 {
        fill: #51281e;
      }

      .st13 {
        fill: #f9bd2b;
      }

      .st14 {
        fill: #fae0c9;
      }

      .st15 {
        fill: #eca740;
      }

      .st16 {
        fill: #e48d6c;
      }

      .st17 {
        fill: #bca898;
      }

      .st18 {
        fill: #c79f91;
      }

      .st19 {
        fill: #bca998;
      }

      .st20 {
        fill: #6e2b12;
      }

      .st21 {
        fill: #c1c1c1;
      }

      .st22 {
        fill: #c0dbfe;
      }

      .st23 {
        fill: #beaa99;
      }

      .st24 {
        fill: #b24f2b;
      }

      .st25 {
        fill: #702f18;
      }

      .st26 {
        fill: #578fd9;
      }

      .st27 {
        fill: #b4cdee;
      }

      .st28 {
        fill: #e38c6c;
      }

      .st29 {
        fill: #b3a191;
      }

      .st30 {
        fill: #f6ddc6;
      }

      .st31 {
        fill: #b37f31;
      }

      .st32 {
        fill: #e48562;
      }

      .st33 {
        fill: #fff;
      }

      .st34 {
        fill: #3d1e17;
      }

      .st35 {
        fill: #81ade7;
      }

      .st36 {
        fill: #dc6033;
      }

      .st37 {
        fill: #f3dac4;
      }

      .st38 {
        fill: #92a6c0;
      }

      .st39 {
        fill: #5a94e0;
      }

      .st40 {
        fill: #fefefe;
      }

      .st41 {
        fill: #4470aa;
      }

      .st42 {
        fill: #f54e00;
      }

      .st43 {
        fill: #eba740;
      }

      .st44 {
        fill: #91a4bf;
      }

      .st45 {
        fill: #bd8734;
      }

      .st1 {
        stroke: #1d1d1b;
        stroke-linecap: round;
        stroke-linejoin: round;
        stroke-width: 10px;
      }

      .st46 {
        fill: #5b94e1;
      }

      .st47 {
        fill: #4570ab;
      }

      .st48 {
        fill: #eee;
      }

      .st49 {
        clip-path: url(#clippath);
      }

      .st50 {
        fill: #4571ab;
      }

      .st51 {
        fill: #aa9889;
      }

      .st52 {
        fill: #e68663;
      }

      .st53 {
        fill: #de6133;
      }
    </style>
    <clipPath id="clippath">
      <rect class="st0" x="191.5" y="307.7" width="109.2" height="20.9"/>
    </clipPath>
  </defs>
  <path d="M398.9,125.7c1.2.8,9.4-3.6,11.3-4.3,5.5-2.1,11.1-3.9,16.6-5.9,1.8.2,4,0,5.6.4,4.8.9,6.9,6.9,9.5,10.5,4.4,13.4,11.3,27.2,15.4,40.6s1.8,8.1,1.3,11.4c-.7,5-4.2,6.4-8,9l-60.3,20.7c-4.1,5.8-9,11.1-13.4,16.5,2.8,3.8,5.5,7.7,8.4,11.5s6.7,5.7,4.4,9.9c-4.8,4.8-10.8,8.3-16.2,12.3-.3.7,2.5,8.1,2.9,8.4,1,.7,7.4.9,9.1,1.2,7.1,1.2,23.3,5.3,27.5,11,1,1.3,1.1,2.4,1.8,3.6s2.1,1.3,1.5,3.4c4.8-1.9,7.8-4.3,12.2,0,5.4,5.2,3,19.7,1.6,26.6s-3.9,16.6-9.4,21.6-4.1,2.3-4.5,3.1.4.7.7.8c5.5,2.1,10.3,3.7,14.5,8s3.7,8.4,1.5,12.4-5.9,5.6-8.2,6.8c-24.5,12.9-79.1,11.9-104.4.8-11.1-4.9-18.9-13.2-7.7-23.6-7-.5-4.9,0-7,4.3s-1.1,1.4-1.4,2.1c-3.6,8-2.3,8.9-12.7,6.9s-9.4-3.6-14.1-4.7c-4,4-7.2,8.8-11.1,12.9-4,4.1-4.1,2.7-8,0-4.6-3.2-9.3-6.5-13.9-10-3.5,2.9-7.1,5.6-10.8,8.3s-2.8,2.7-4.5,3.5c-3.6,1.6-4.4.7-6.8-1.7-4.5-4.7-8.7-10-13-14.9l-4,1.3-8.7,4.3c3.9,2.9,8.8,5,12.5,8,5.9,4.7,10,11.4,15.2,16.8,1.1,4.2-4.3,3.3-6.9,2.9s-13.1-2.5-15.8-3.7-3.7-2.8-5.3-3.7c-7.5-4.2-15-8.3-22.4-12.6s-9.8-5.9-14.7-8.8c-1.6-.7-1.1,1.2-2.1,2.2-1.6,1.7-3.1,1-4.9.3-8.4-3.1-17.4-11.3-26-14.5-2.2-1.6-6.7-3.2-6.7-6.3s1.4-3.8.8-4.8-3.3-1.6-4.3-2.3-2.4-2.3-2.5-2.5c-.7-.9-2.8-4.7-2.8-5.6-.4-5.7,5.8-10,11.3-7.9,8.6,3.2,17.4,9.6,25.3,14.2l6.2,3.1c-1.4-4.7-1.6-9.6-2-14.5-5.6.3-11.2-.2-16.8-.5s-3.3,1.3-4.7-.8-.7-8.7-.6-11c.3-4.3,1.5-8.6,1.5-12.9-2-1.2-4.2-3.4-6.6-2.7-21.2,7-43,12.1-64.3,18.7-2,.6-4,2.2-6,2.5-3,.5-7.2-.3-9.4-2.4-4.6-4.3-6.1-16-7.9-22.1s-5.3-16.3-7.1-24.4c-1.3-5.5-3.3-13.6-.6-18.6,4.2-7.6,13-8.3,20.3-10.7s5.2-2.6,8.5-2.8c-1.8-11.2-6.8-22.6-8.4-33.8s-1.2-9.1,1-12.4,3.1-2.7,3.6-2.9c20.5-8.9,43.8-14.2,65.5-21s7-2.3,10.4-3.6c.3-.3.7-.5.8-.9.5-3.4-3.7-13.6-1.6-16.1s3.7-2.3,5.2-2.5c5.4-.8,12.1-.4,17.3-1.2s1.4-.3,1.8-.7c.9-1,.8-10.3,1-12.5s1.6-5.8,1.7-8.8c.5-1.7,2.4-2.2,4-2l19.1,3.5,1.2-.2c.6-.4,2.8-10.6,3.3-12.2s1.7-5.3,2.4-6.6c2.8-5.6,9.6-.5,13.2.9s2.8.4,4.1.9,7.5,3.7,8.8,3.6,3.6-5,4.5-6.3c1.7-2.2,4.6-6,6.4-7.9s3-1.7,4.5-1.1c3.2,1.5,14.7,11.3,16.6,11.3l15.1-10.7c1.8-1.4,4.8-1.5,6.5,0s3.7,4.9,5.2,6.6,4.4,4.6,6.3,7.2l23-6.9c3.7,0,4.9,8.6,6,8.9l64.2-19.7c17.3-3.1,18.1,12.5,21.9,24.7.4,1.1,1.1,2.1,1.4,3.1,1.8,5.9,3.3,12,4.8,17.9Z"/>
  <path d="M90.2,354.3c1.1-.2,2.2-.2,3.4,0,28.7,5.6,60.3,10.5,88.8,18.2,6.9,1.9,13.1,5.6,19.2,9.3s4.5,2.7,4.6,2.9c1.3,2-1.4,4.4-3.1,4.9-4.4,1.3-14.9,3.2-19.3,2.6s-2.8-1.1-4.2-1.3c-28.3-5.5-56.4-12.3-84.5-19-1.8-.4-4-.3-6.1-.9-11.2-3.2-8.8-14.7,1.4-16.6Z"/>
  <path class="st53" d="M382.9,90.2c2.8,4.9,3.5,10.6,5.1,16.1,2.7,9,7.9,21.8,9.3,30.7.6,3.6,0,6.8-3.1,8.8-95.7,30-191,60.2-286.8,89.7-9.8,3-21.6,8.4-31.8,8.7-7.6.2-9.9-9-11.5-15-3.2-11.9-6.4-24.1-9.3-36.1s-.9-.4-1-.7c-.4-1.6,0-5.6.5-7.2,1,.4,1.4,1.5,1.2,3.3.8-1.2,1.8-2.2,3.2-2.8,103.4-31.6,206.8-63.4,310.1-95.5,5.5-3.4,10.2-3.4,14,0Z"/>
  <path class="st15" d="M332.9,182.7c3.7,4.5,7.2,20.4,8,26.5,5.1,33-11.9,66.6-36.1,88.1l-2.9.9c-38.5.8-77-.6-115.5,0-4.9,0-7.8-2.2-11.5-5.2-12.3-10-19.6-24.2-25.3-39.4s-5.2-14.3-2.7-16.4c25.6-8.4,51.6-16.3,77.8-23.8,35.6-11.6,71.1-22.7,106.7-33.2.8.6,1.3,1.5,1.6,2.5Z"/>
  <path class="st40" d="M319.4,303.2c1.8.6,2.7,1.6,2.8,3.5l.2,20.7c1.2,3.5.4,5.2-2.4,5.2-40.8.2-82.3.2-124.2.1l-16.1.8c-10.6,2.2-25.1-7-20.2-18.3,1.6-7.3,7.6-11.4,14.8-12,27.9-2.3,58.8,1.8,87,0,18.5,2,39.9-2,58.2,0Z"/>
  <path class="st14" d="M354.9,300.7c9.3,1.5,18.7,1.7,28.3.5.9,0,2.3.9,2.4,1.7,1.4,12.6-.2,27.9-1.7,40.4s-2,11.7-7.5,12.4c-13.6.6-39.2,1.4-41.5-16.8-1.1-8.7-1.9-17.7-3.1-26.4-.9-6.5-2.5-13.1-2.9-19.8,3.1,1.5,6.1,3.2,9.4,4.4,5.2,1.8,11.1,3,16.6,3.6Z"/>
  <path class="st53" d="M434.4,123.7c7.8,10.9,11,26.9,15.5,39.5.6,8.8-4.8,11.9-13.3,13.9-10.9,3.3-21.6,6.9-32,10.6-11.5,3.1-9.8-2.6-6.9-10.6,3.8-9.5,7.8-18.9,12.1-28,.2-5.8-.8-11.5-3.1-17.2l.7-1.3,1.6-1.5c4.1-1.5,21.3-7.1,24.3-6s.7.3,1.1.6Z"/>
  <path class="st31" d="M332.9,182.7c-2.2-2.7-2-1.2-4.3-.5-34.1,9.3-67.5,20.9-101.1,31.4-25.6,7.9-51.9,14.6-77.2,23.8-.9.3-2.4.2-2.9.6-1.2.8.2,5.7.5,7,3.5,13.1,9.4,26.4,17.8,37.2s14.1,15.3,20.7,16c-2.6-.4-7.6.8-9.8-.5s-6.6-6-7.9-7.6c-12-13.4-22-34.7-24.2-52.8s-.8-7.3,0-7.9l182.5-57c1.2,0,4.6,6.3,5.3,7.8s.8,1.6.7,2.5Z"/>
  <path class="st52" d="M382.9,90.2l-4.3-1.5c-3.6-.8-6.4,1.5-9.4,2.5-103.2,32.4-206.7,63.5-310.1,95.4-2.3,1-3.1,3.2-4.5,5l-.2-6.5c.2-.6.7-1.6,1.2-2s5.6-3.1,6.2-3.4c2.5-1,6.1-1.2,8.5-2,86.5-27.1,173-53.1,259.6-79.4,11.5-3.5,22.9-7.8,34.5-11s10.6-3.3,13.7-2.7,3.8,3.8,4.8,5.5Z"/>
  <path class="st53" d="M53.9,238.2l1.4.8c2.3,8.9,5.2,15.9,13.5,20.6,7.4,4.8,14.7,9.7,21.8,14.8,2.8,1.9,4.7,5.9.6,7.2-8.5,3-17.3,6.1-26.1,8.5-10.6,2.8-16.2.9-22.7-7.4-.4-1.4-1.7-3.2-2-4.8-1.4-9.6-6.8-20.3-7.8-29.7s.3-3.7.8-5c.9.1,1.3.8,1.1,2.1,4.8-4.2,12.1-6.6,18.4-7.9l1,.8Z"/>
  <path class="st46" d="M369.4,169.2c2,.9,4.1,1.3,6,2.3l-8.8,19.7c-1.3,5.2,6.8,7.7,10.2,9.8s5.5,3.7,8,5.4c-1.6,2.3-3.2,4.7-4.9,6.9s-9.3,8.1-8.5,12.2l13.5,18.4-14.9,10.6c-4.5,3.2.3,8.2,1,12.2-4.9-.2-9.7,0-14.5.5l-.4-1.6c2.4-11.6,3.9-23.4,4.4-35.4,0-18.8-2.4-36.8-10-54-.5-1.2-.5-1.3.3-2.1s14-4.6,15.9-5,1.8,0,2.8,0Z"/>
  <path class="st8" d="M51.4,234.7c1.9-.6,6.7-3.5,8.5-2.3s.8,3.3,1.2,4.3c1.3,3.1,3.9,8.3,6.5,10.5s2.8,1.3,3.9,2.1c12.3,8.7,24.7,17.5,37,26s7.1,5.2,10.8,7.7c0,.6-9.8,3.5-11.1,3.9-15.7,4.7-31.6,9-47.3,13.7s-10,5.4-13.8.1-3.6-13.6-4.8-18c2.4.3,4,3.3,6,4.7,4,2.8,8.2,3.7,13,2.6,8.1-2,18.3-5.5,26.4-8.1.6-.2,4.6-1.7,4.6-2,.5-1.9-.5-3.1-1.8-4.2-7.5-6.5-27.5-16.6-31.7-23.8s-3.4-9.3-5.1-13.7c-1,.2-1.5-.6-1.7-2.3l-.8-1.2Z"/>
  <path class="st8" d="M407.4,127.7c.6.8,1.2,2.5,0,3,1.3,6.2,4.4,11.7,3.5,18.2s-5.3,11.6-6.8,15.2-4.3,10.1-5.8,14.7-1.8,5.9-1.8,6.2c-.4,6.4,14.3-.6,17-1.5,9.9-3.3,21.8-6.4,31.1-10.4,4.3-1.8,3.4-6.3,5.4-9.9,1,2.9,4,7.4,4.5,10.7s-.6,6.6-4.1,8.5c-9.3,3.2-18.8,6.1-28.1,9.4-5.2,1.8-10.4,3.5-15.6,5.4s-11.1,4.2-16.5,6.4l-7.5-4.9c2.8-9.3,6.4-18.3,9.5-27.5s4-14.2,6.5-21,2.5-4.1,3.1-6.4c1.3-4.8-.2-9.4-1.4-14.1,2.2-.4,4.9-1.2,7-2Z"/>
  <path class="st46" d="M136.4,151.7c-.6-1.1,0-1.7,1.6-2,0-2.3.2-4.6.4-6.7.9-1.7,12-2.8,14.5-3,8.7-1.5,9-3.1,8.4-12.5-.1-3.5.4-6.9,1.5-10.1,6.7-.1,13.5.2,20.3.8,1.6-.3,2.6-2.1,3.2-3.5l5.5-13.1c.6-1.2,1.5-2.6,3-2.2l20.4,6.1c4.7-3.6,9.1-8,13-13.1,2.4.3,4.7,1.6,6.8,4,3.1,3.9,6.5,6.5,10.4,7.9,4.8-3.6,9.6-7,14.9-10.3,2.2-1.6,3.9-2.4,5.7,0l5.8,7.8c2,2.9,4.5,4.6,7.5,6-1.9.5-4.9,2.1-6.4,2.4-3.7.8-18-2.6-23.4-2.9-27.7-1.4-58.8,8.1-80.5,25.5-3.7,2.9-10.6,11.6-13.4,13.1-4.2,2.2-14.4,4.7-19.4,5.9Z"/>
  <path class="st23" d="M354.9,300.7c13.3,1.7,32,1.3,44.8-3,3.9-1.3,7.6-3.3,11.2-5,.5.5-1.7,9.4-2,10.8-1.9,12.7-3.6,25.3-5.1,37.9s-18.4,13.9-27.4,14.3c4.3-2,5.8-7.5,6.4-11.8s-.1-2.7,0-3.9c1.8-12.4,2.8-24.2,1.8-36.8l-1.6-1.9c-8.6.9-17.3,1.3-25.9.3s-1.7-.3-2.3-1Z"/>
  <path class="st21" d="M319.4,303.2c2,.2,3.7,1.2,5.4,2.1.5,2.9,1.6,5.8,2.1,8.7s.3,5.8.6,8.4,1.5,6.1,1.5,7.5-4.4,5.2-6.3,5.6c-8.9,2.1-19.7,1.2-29,1.3-41.1.6-82.1.8-123.2.5-2.3-.5-4.4-1.6-6.2-3.2-3.5-3.1-6.2-9.7-6.2-14.3s.4-3.7,1.4-4.7c-.3,1.5-1,6.9-.4,7.9s1,.4,1.4.8c3,3.7,6.1,7.7,11.3,8.3,8.8.9,18.2-.5,27-.5,36.5-.2,73.4.3,110,0,2,0,12.5.3,13.1-.5s-.3-2.6-.3-3.8c-.1-4.7-.1-9.3-.3-13.9s1.1-8.3-1.7-10.3Z"/>
  <path class="st14" d="M409.9,339.7c5.4,1.9,12.8,4.2,16.9,8.3s2.4,2.8,2.6,3.5c1,6.2-8.7,10.1-13.2,11.7-22.1,7.9-57.6,7.8-80.4,2.3s-16.4-4.8-20.4-8.1c-7.5-6.3.4-11.9,6.3-14.6s7.8-3.1,8.6-2.6,1.9,6.5,2.1,7.4c2.8,10.2,14.5,12.9,24,14.2,15.9,2.2,35.1,1.7,50.5-2.9,11.7-3.4,17-11,2.4-15.5-.3-.6-.4-4,.6-3.8Z"/>
  <path class="st35" d="M279.4,107.7c-5.8,1.9-12.9-14-15.8-14.5-3.2,1.7-6,3.9-9,5.9s-1.5.5-2.1.9c-1.9,1.3-4.9,5-6.8,5.2-3.8.5-7.9-5.2-10.5-7.5s-5.4-4.5-6-4.5-.8.2-1,.5c-3.7,4.6-7.6,9.9-12.6,12.9l-21.3-6.4c-2.3.7-5.9,15.1-8.8,17.7s-1.4,1.2-2.3,1.2l-19.8-1.3c-1.4,5.7-1,11.2-1,17-1,6.9-11.5,5.9-16.6,6.9s-5.8,1.3-6.3,1.7c-1.1.7,0,2.1,0,3s-.3,4-.5,4.2-2.1,0-2.5,1c-.4,0-.9.7-1.5.5.2-4.4-1.3-8.7-.8-13,.7-1.1,20.5-.9,23.2-3.6l3.1-22.4,18.8,3.4,4.2-.2,7-21.3c8,2.3,15.5,6.6,23.7,8l12.6-14.9c2.2-.4,13.8,11.2,17.9,11s15-9.9,18-12c2.9,2.3,4.6,5.7,7,8.5s2.4,2.7,3.5,4c3.6,4,5.8,3,10.7,1.6s15.1-6.1,16.6-4.9,1.7,4.5,1,5c-1.1.8-5.2,1.1-6.9,1.6-5,1.5-10,3.2-15.1,4.7Z"/>
  <path class="st22" d="M345.4,177.7c11.8,26.1,13.6,57.4,3.7,84.5-.6,1.5-2.2,6.5-3.6,6.9-2.6.8-6.4.6-8.9,2.6-.6-.2-.1-1.1,0-1.5,1.6-4.9,4.5-10,6-15,7.6-24.8,5.6-52-5.3-75.5-.4-2.4,6.7-4.3,8-2Z"/>
  <path class="st22" d="M260.4,112.7c1,.8-2.3,1.9-2.7,2-16.4,5.9-33.4,5.5-48.8,11.2s-13.7,7.2-20.1,9.9-16.3,4.5-23.8,7.4c-.3-1.1.6-1.1,1.1-1.6,9.1-9,21.7-15.6,33.5-20.5,12.8-5.4,23.6-8.7,37.6-9.4s15.5.8,23.3,1Z"/>
  <path class="st46" d="M155.4,309.7c-.1.3.2,1.4,0,1.5-.3.3-3.2-1-4.2-1-2.5-.2-5.9.5-8.5.6s-5.1-.4-7.7,0l-.5-6.7c.3-2.7,1.2-5.8,1.3-8.5s-.4-6.8-.7-7.7c-.8-2.3-6.8-4.7-8.9-6.1-3.7-2.5-7-5.6-10.9-7.7-.7-3.1,6-14,6-17.9s-3-5.2-5.5-7.3l-.8-1c-.2-1.8,9.4-3.7,11.2-3.6,4,23,11.4,47.6,29,63.9v1.7Z"/>
  <path class="st47" d="M220.4,353.2c-3.8-2.9-6-7.8-10.8-9.5-3.1.2-16.4,8.3-18.2,7.8s-5.8-8-5-8.8l115.5-.5c0,3-1.6,5.1-3,7.5-.8.4-10.3-.7-9.2-1s1.7.6.7,1c-3.3-1.1-6.7-2.7-10-3.7s-3.6-1.2-5-.5-2.6,2.8-3,3.3l-.9.7c-7.1-.9-15.4-.4-22.7.2s-.3.3-.4.6c-3.8-2.2-3.4-2.7-7,0-7,.5-14.1.7-21.4.5.6.8,1.1,1.5.4,2.5Z"/>
  <path class="st22" d="M139.9,240.2c1.5,9.7,5.8,22.3,10.2,31,5.1,10,11.9,19.3,19.8,27.2l-8.7,3.7c-10.1-11.1-18.8-23.8-24-38s-3-8.8-3.8-12.5c-.7-3.1-1.3-6.2-1.5-9.3.3-.7,7.1-3.7,8-2.2Z"/>
  <path class="st12" d="M370.9,282.2c7.1-.7,19.9,1.2,26.6,3.6,1.2.4,4.9,2.6,5.3,3.7.8,2.3-.6,1.3-1.5,1.8-11.7,5.8-30.6,5.7-43.4,4.4-3.5-1.1-6.3-2.8-8.4-5.2-1.9-7.1,17-8.7,21.4-8.3Z"/>
  <path class="st20" d="M79.4,249.2l6.5-1.2c3.3-.8,14-5.7,16.5-4.5l13.9,11.6-5.2,15.2-31.7-21Z"/>
  <path class="st23" d="M409.9,339.7c-1.9,3.7.6,2.8,2.9,3.9s5.3,3.1,5.8,4.2c2,4.7-1.6,7.6-5.2,9.6-15.1,8.4-59.4,9.3-74.3.4-1.7-1-5.8-4.7-6.4-6.6s0-2.5-.2-3.5c1.9,1.5,3.1,4.3,5,5.8,9.8,7.8,26.1,8.3,38.3,7.8,11.7-.5,31.1-4.6,33.2-18.3s0-2.5,0-3.7c.9-.3.9.5,1,.5Z"/>
  <path class="st20" d="M392.9,152.2l-14.1,42.6-.7.8-6.2-2.5c-.5-.7,3.6-8.5,4.2-10,1.1-2.6,3.8-8.5,4.2-10.9.9-6.5-10.6-7.7-14.7-10.5s-1.4-.6-1.2-1.6l28.5-8Z"/>
  <path class="st7" d="M342.9,274.7c15.8-4.6,38.6-4.9,54.5.2,3.5,1.1,10.3,4.1,12.2,7.3,1.8,3.1-2,6.8-3.2,6s-.4-1.5-1-2.2c-7.8-8.6-36.7-9.8-47.8-8.7-4.1.4-12,1.6-15.8,3-4.2.9-1.3-4.4,1-5.5Z"/>
  <path class="st50" d="M155.4,309.7c-3.1-4.2-7.7-7.8-10.7-12-8.2-11.7-15.7-32.8-18.1-46.9-.3-1.9-.4-4.2-.6-6.1-2.6,1.1-5.5,1.2-8.1,2.2s-2.1.7-1.9,1.8c-3-2.5-6.6-4.3-9-7.5l19.5-6c.1,1.9-.2,3.8,0,5.7,2.5,20.1,13,41.9,25.5,57.5,1.3,1.7,6.2,5.8,5.8,7.8s-1.8,2.5-2.3,3.5Z"/>
  <path class="st31" d="M301.9,298.2c6.5-4.5,11.9-10.7,16.7-17.1,7.6-10.1,14.9-23,18.4-35.1,3.5-12.3,5.6-24.1,3.9-36.8,3.3,15,.9,33.3-4,47.8-4.2,12.3-15,29.2-24.3,38.2s-2.4,1.9-3.6,2.9c-2.4.2-4.8,0-7.1.1Z"/>
  <path class="st36" d="M160.4,339.2c5.2,4.3,13.7,9,20.5,12,4.3,2.6,8.6,4.8,12.9,7.3s10.9,6.3,11.1,7c.2.8-.9,1-1,1.2l-2.2,2.4c-21.6-12.3-43.4-25.1-65.3-38.5-3-.8-3.9-2.1-2.6-3.9.5-.5,1.1-2,2-1.8,4.3,2.9,9.5,5,13.9,7.6s7,4.7,10.5,6.7Z"/>
  <path class="st8" d="M133.9,326.7c-.3,2.5,1.8,2.2,3.2,3.1,19.1,11.9,38.7,23.3,58.2,34.3,1.1.6,5.9,4,6.5,4s1.4-1.2,2.2-1.4c-.4.7-2.3,4.1-2.5,4.3-1.4,1.1-6.3-3.2-7.6-4-15-8.6-29.9-17.4-44.8-26.2-5.8-3.4-11.9-6.3-17.4-10.1-.7-1.4,1.3-3,2.3-4Z"/>
  <path class="st10" d="M272.4,348.7c-1.3,1.5-8.4,11.8-9.3,12-3.3-2.1-6.4-4.6-9.5-6.9-1.7-1.2-3.5-1.8-5.2-3.6s-1.1-1.4-1-1.5c3.9-.2,7.8-.4,11.7-.5s5.6-.4,8.4-.3,3.7.2,4.8.8Z"/>
  <path class="st34" d="M370.9,282.2c-.8,0-2.2.8-3.3.9-4.7.6-10.7.5-14.6,3.4-7.2,5.3,2.7,5.4,5,9.2-5.7-.6-13.9-1.3-19.1-3.6-4.6-2,1.1-5.6,3.6-6.6,6.4-2.6,16.3-3.4,23.2-3.8,1.5,0,4-.3,5.3.5Z"/>
  <path class="st47" d="M369.4,169.2c-5.7,2.3-11.9,3.3-17.6,5.7s-1.7,0-1.4,1.3c-.5-1.2-5.4-9-5-9.5l11.2-3.5c4.3,1.9,8.5,4.1,12.8,6Z"/>
  <path class="st39" d="M220.4,353.2c-.7-.9-1.3-2.5-2.5-3.5,7.3-.1,14.7.3,22-.3s1.7-.9,1.5.8c-4.6,3.5-9,7.4-13.8,10.9-2.4-2.6-5.1-5-7.2-7.9Z"/>
  <path class="st32" d="M434.4,123.7c-9.3.9-18.1,4.3-27,7-.2-1-1-1.8,0-3,2.2-.8,4.5-1.7,6.8-2.5,4.7-1.7,12.5-6.3,17.3-4.8s2.2,2.1,3,3.3Z"/>
  <path class="st6" d="M51.4,234.7c2.1-.6,1.9,1.8,2.5,3.5l-11.8,3.4c-3.3,1.3-5.8,3.7-8.4,6.1l-.2-4.5c2.3-6,12.6-6.8,18-8.5Z"/>
  <path class="st17" d="M420.9,312.7l.6.4c-.9,6-.5,6.9,1.2,2.8l1.2-.2c-1.8,7.9-4.6,15.6-13.5,17.5.2-1.8-.4-4.2.4-5.9s4.3-3,5.3-4.2,2-3.3,2.2-3.8c.9-2.1.9-4.9,2.6-6.7Z"/>
  <path class="st19" d="M342.9,274.7c-.2,1.8-4,5.2-1,5.5-.8.3-5,2.5-5.8,3-1.3.9-3.5,3.3-3.8,5-6.9-2.8-3.8-7.7,1.2-10.5s6.2-2.1,9.3-3Z"/>
  <path class="st44" d="M133.4,251.7c-1.8-5.6-2.3-11.7-2.7-17.5.5-1.1,7.2-2.5,8.7-3,0,2.8,0,6.2.5,9l-7.4,2.6c-.2.4.7,7.8.9,8.9Z"/>
  <path class="st30" d="M426.4,293.7c1,6.9-.9,15.1-2.5,22l-2.5,5.5c.1-1.7-1.5-2.1-1.6-3.7s.8-3.3,1-4.8c.8-4.3,2.1-8.6,2.5-13l-.4-2c-1.4-1.7,2.6-7,3.4-4Z"/>
  <path class="st38" d="M345.4,177.7c-2.2-.5-6.3.5-8,2l-5-8.8,6.9-2.7c.7-.2.9,0,1.4.4,1,.9,4,7.3,4.8,9Z"/>
  <path class="st41" d="M356.4,267.2c-1.3.1-2.7.4-4,.2,2.3-5.9,3.9-11.9,5.5-18l2.6-19.2c0,6.6-.4,12.2-1,18.8s-.4,12.2-3,18.2Z"/>
  <path class="st9" d="M426.4,293.7c-1.4-1-.7-.2-1.3.4-2.7,3.4-1.4,2.2-1.7,5.6-1.5-4.6-4.1-5.4-8-2.5-1.9-3.6,5.7-9.2,8.3-8.8s2.5,3.8,2.7,5.3Z"/>
  <path class="st48" d="M411.9,319.2c1.7-4.1.7-11,2.1-14.7s3.5-2.9,4.4-3.3c.4.6-2.3,9.6-2.8,11s-1.6,4.8-2.1,5.9-.7,1.3-1.6,1.1Z"/>
  <path class="st25" d="M125.4,333.7l30,17.2c-.8,1.2-.8.4-1.6.2-3.9-1.4-9.7-5.8-13.5-8s-8.3-4.2-12-6.5-2.8-1.7-2.8-2.9Z"/>
  <path class="st27" d="M323.9,290.7l.5,8.5c-2.8-.8-5.1-1.4-8-.5,2.3-2.1,3.9-5,6.1-7.2s.4-1.1,1.4-.8Z"/>
  <path class="st18" d="M180.9,351.2c-.5,1.1-1.5.1-2.1-.2-5-2.7-13.4-7-17.7-10.3s-1.8-1.3-.8-1.5c6.9,4,13.7,8,20.5,12Z"/>
  <path class="st26" d="M290.4,349.7l-.7-1c2.5,0,5,0,7.5,0s2-.5,1.7,1c-.3.5-.2,1.9-.8,2-2.7,0-5.2-1.2-7.7-2Z"/>
  <path class="st4" d="M213.9,374.2l.5,1.2c-.4.9-9.1-1.8-7-4.7.3-.5.4-2.2,1.7-2s4.1,4.5,4.8,5.5Z"/>
  <path class="st24" d="M131.4,321.7c.7.9-2.9,3.1-3.5,3.7s-1,1.7-1.5,2.1-1.5-.2-1.5-.3c-.3-.4,2.6-6.3,4.3-6.3s1.5.9,2.2.8Z"/>
  <path class="st51" d="M207.4,370.7c.4,2,3.5,3.1,5.2,4s1.4,1.1,1.3-.5c.4.5,2,2.1.2,2s-8.5-1.7-8.7-2c.5-1.3,1.3-2.4,2-3.5Z"/>
  <path class="st3" d="M118.4,316.7c.5,2,2.4,3,4.5,3.5-.8,1.1-1.9,2-2,3.5-1.6,1.1-7.8-6.1-2.5-7Z"/>
  <path class="st16" d="M118.4,316.7c1.7-.7,3.8,1.2,5.5,1.5.1.9-.6,1.4-1,2-2.7,2-3-1.5-6-1.5.2-.4,1.4-1.9,1.5-2Z"/>
  <path class="st11" d="M181.9,345.7l-5-3c2.7-.2,5-.5,5,3Z"/>
  <path class="st43" d="M104.4,363.2c.1-.6,0-1.4,0-2,5.3,1.1,10.7,2,16.1,3.1,21.3,4.5,42.5,9.6,63.9,13.4-.8,1.9-.9,3-1,5l-.5.9-78.6-16.3c-.9-.9-.9-2.2.1-4.1Z"/>
  <path class="st31" d="M104.4,363.2c-.2,1-.4,2-.5,3l79.5,16.5c0,1.2,0,2.3,0,3.5h-2.2c-23.6-6-47.7-10.1-71.4-15.6-4.8-1.1-8.7-1.3-5.4-7.4Z"/>
  <path class="st37" d="M196.9,384.7c.5,2-8,1.1-8.2.7l.2-2.2c.1-.9-.3-2.2.2-3l7.8,4.5Z"/>
  <path class="st45" d="M97.9,368.2c-4.3-1.1-.7-5.5-.5-8.2,4.5-1-.7,5.6.5,8.2Z"/>
  <path class="st29" d="M188.9,383.2c-.5,2.4,1.6,1.3,3.1,1.6s3.2,2,4.9-.1l.5,1-9,1.5c-.5-1.5.4-3,.5-4Z"/>
  <path class="st28" d="M87.4,361.7c1-1.9,3.1-2.1,5-2-.3,1.4-1.1,2-1.5,3.5-1,2.1-4.6,1.2-3.5-1.5Z"/>
  <path class="st2" d="M87.4,361.7c-.5,2.4,1.6,1.3,3.5,1.5-.3,1.2.5,3.1-2,2.3s-2.4-2.1-1.5-3.8Z"/>
  <g>
    <g>
      <path class="st33" d="M89.8,190.1l21.2-6.6,1.5,4.7-15.8,4.9,2.6,8.2,12.7-4,1.5,4.7-12.7,4,3.2,10.1,16.3-5.1,1.5,4.8-21.8,6.8-10.2-32.5Z"/>
      <path class="st33" d="M116.5,181.7l5.7-1.8,22.4,19.3-7.5-23.9,5.2-1.6,10.2,32.5-5.7,1.8-22.5-19.2,7.5,23.9-5.2,1.6-10.2-32.5Z"/>
      <path class="st33" d="M157.9,174l-10,3.1-1.5-4.7,25.5-8,1.5,4.7-10,3.1,8.7,27.8-5.4,1.7-8.7-27.8Z"/>
      <path class="st33" d="M175.4,163.3l21.2-6.6,1.5,4.7-15.8,4.9,2.6,8.2,12.7-4,1.5,4.7-12.7,4,3.2,10.1,16.3-5.1,1.5,4.8-21.8,6.8-10.2-32.5Z"/>
      <path class="st33" d="M202.2,154.9l12.2-3.8c6.3-2,11.5.4,13.3,6.1,1.2,3.8.1,7.6-2.8,10.2l13.5,11.9-6.4,2-12.5-11.3-6,1.9,4.3,13.8-5.4,1.7-10.2-32.5ZM218,165.3c3.6-1.1,5.1-3.4,4.2-6.4-.9-2.9-3.5-4-7.1-2.8l-6,1.9,2.9,9.2,6-1.9Z"/>
      <path class="st33" d="M232,145.6l12.8-4c6.5-2,11.8.5,13.7,6.4,1.8,5.9-1.1,11-7.6,13l-7.3,2.3,4.1,13.1-5.5,1.7-10.2-32.5ZM249.1,156.4c3.4-1.1,4.9-3.6,3.9-6.7-1-3.1-3.6-4.3-7-3.3l-7,2.2,3.1,10,7-2.2Z"/>
      <path class="st33" d="M259.8,136.9l12.2-3.8c6.3-2,11.5.4,13.3,6.1,1.2,3.8.1,7.6-2.8,10.2l13.5,11.9-6.4,2-12.5-11.3-6,1.9,4.3,13.8-5.4,1.7-10.2-32.5ZM275.6,147.3c3.6-1.1,5.1-3.4,4.2-6.4-.9-2.9-3.5-4-7.1-2.8l-6,1.9,2.9,9.2,6-1.9Z"/>
      <path class="st33" d="M289.6,127.6l5.4-1.7,10.2,32.5-5.4,1.7-10.2-32.5Z"/>
      <path class="st33" d="M308.2,152.5l11.2-29.1-17.5,5.5-1.5-4.7,23.9-7.5,1.4,4.5-11,29,18.3-5.7,1.5,4.8-24.8,7.8-1.4-4.5Z"/>
      <path class="st33" d="M329.3,115.2l21.2-6.6,1.5,4.7-15.8,4.9,2.6,8.2,12.7-4,1.5,4.7-12.7,4,3.2,10.1,16.3-5.1,1.5,4.8-21.8,6.8-10.2-32.5Z"/>
    </g>
    <g>
      <path class="st1" d="M89.8,190.1l21.2-6.6,1.5,4.7-15.8,4.9,2.6,8.2,12.7-4,1.5,4.7-12.7,4,3.2,10.1,16.3-5.1,1.5,4.8-21.8,6.8-10.2-32.5Z"/>
      <path class="st1" d="M116.5,181.7l5.7-1.8,22.4,19.3-7.5-23.9,5.2-1.6,10.2,32.5-5.7,1.8-22.5-19.2,7.5,23.9-5.2,1.6-10.2-32.5Z"/>
      <path class="st1" d="M157.9,174l-10,3.1-1.5-4.7,25.5-8,1.5,4.7-10,3.1,8.7,27.8-5.4,1.7-8.7-27.8Z"/>
      <path class="st1" d="M175.4,163.3l21.2-6.6,1.5,4.7-15.8,4.9,2.6,8.2,12.7-4,1.5,4.7-12.7,4,3.2,10.1,16.3-5.1,1.5,4.8-21.8,6.8-10.2-32.5Z"/>
      <path class="st1" d="M202.2,154.9l12.2-3.8c6.3-2,11.5.4,13.3,6.1,1.2,3.8.1,7.6-2.8,10.2l13.5,11.9-6.4,2-12.5-11.3-6,1.9,4.3,13.8-5.4,1.7-10.2-32.5ZM218,165.3c3.6-1.1,5.1-3.4,4.2-6.4-.9-2.9-3.5-4-7.1-2.8l-6,1.9,2.9,9.2,6-1.9Z"/>
      <path class="st1" d="M232,145.6l12.8-4c6.5-2,11.8.5,13.7,6.4,1.8,5.9-1.1,11-7.6,13l-7.3,2.3,4.1,13.1-5.5,1.7-10.2-32.5ZM249.1,156.4c3.4-1.1,4.9-3.6,3.9-6.7-1-3.1-3.6-4.3-7-3.3l-7,2.2,3.1,10,7-2.2Z"/>
      <path class="st1" d="M259.8,136.9l12.2-3.8c6.3-2,11.5.4,13.3,6.1,1.2,3.8.1,7.6-2.8,10.2l13.5,11.9-6.4,2-12.5-11.3-6,1.9,4.3,13.8-5.4,1.7-10.2-32.5ZM275.6,147.3c3.6-1.1,5.1-3.4,4.2-6.4-.9-2.9-3.5-4-7.1-2.8l-6,1.9,2.9,9.2,6-1.9Z"/>
      <path class="st1" d="M289.6,127.6l5.4-1.7,10.2,32.5-5.4,1.7-10.2-32.5Z"/>
      <path class="st1" d="M308.2,152.5l11.2-29.1-17.5,5.5-1.5-4.7,23.9-7.5,1.4,4.5-11,29,18.3-5.7,1.5,4.8-24.8,7.8-1.4-4.5Z"/>
      <path class="st1" d="M329.3,115.2l21.2-6.6,1.5,4.7-15.8,4.9,2.6,8.2,12.7-4,1.5,4.7-12.7,4,3.2,10.1,16.3-5.1,1.5,4.8-21.8,6.8-10.2-32.5Z"/>
    </g>
    <g>
      <path class="st33" d="M89.8,190.1l21.2-6.6,1.5,4.7-15.8,4.9,2.6,8.2,12.7-4,1.5,4.7-12.7,4,3.2,10.1,16.3-5.1,1.5,4.8-21.8,6.8-10.2-32.5Z"/>
      <path class="st33" d="M116.5,181.7l5.7-1.8,22.4,19.3-7.5-23.9,5.2-1.6,10.2,32.5-5.7,1.8-22.5-19.2,7.5,23.9-5.2,1.6-10.2-32.5Z"/>
      <path class="st33" d="M157.9,174l-10,3.1-1.5-4.7,25.5-8,1.5,4.7-10,3.1,8.7,27.8-5.4,1.7-8.7-27.8Z"/>
      <path class="st33" d="M175.4,163.3l21.2-6.6,1.5,4.7-15.8,4.9,2.6,8.2,12.7-4,1.5,4.7-12.7,4,3.2,10.1,16.3-5.1,1.5,4.8-21.8,6.8-10.2-32.5Z"/>
      <path class="st33" d="M202.2,154.9l12.2-3.8c6.3-2,11.5.4,13.3,6.1,1.2,3.8.1,7.6-2.8,10.2l13.5,11.9-6.4,2-12.5-11.3-6,1.9,4.3,13.8-5.4,1.7-10.2-32.5ZM218,165.3c3.6-1.1,5.1-3.4,4.2-6.4-.9-2.9-3.5-4-7.1-2.8l-6,1.9,2.9,9.2,6-1.9Z"/>
      <path class="st33" d="M232,145.6l12.8-4c6.5-2,11.8.5,13.7,6.4,1.8,5.9-1.1,11-7.6,13l-7.3,2.3,4.1,13.1-5.5,1.7-10.2-32.5ZM249.1,156.4c3.4-1.1,4.9-3.6,3.9-6.7-1-3.1-3.6-4.3-7-3.3l-7,2.2,3.1,10,7-2.2Z"/>
      <path class="st33" d="M259.8,136.9l12.2-3.8c6.3-2,11.5.4,13.3,6.1,1.2,3.8.1,7.6-2.8,10.2l13.5,11.9-6.4,2-12.5-11.3-6,1.9,4.3,13.8-5.4,1.7-10.2-32.5ZM275.6,147.3c3.6-1.1,5.1-3.4,4.2-6.4-.9-2.9-3.5-4-7.1-2.8l-6,1.9,2.9,9.2,6-1.9Z"/>
      <path class="st33" d="M289.6,127.6l5.4-1.7,10.2,32.5-5.4,1.7-10.2-32.5Z"/>
      <path class="st33" d="M308.2,152.5l11.2-29.1-17.5,5.5-1.5-4.7,23.9-7.5,1.4,4.5-11,29,18.3-5.7,1.5,4.8-24.8,7.8-1.4-4.5Z"/>
      <path class="st33" d="M329.3,115.2l21.2-6.6,1.5,4.7-15.8,4.9,2.6,8.2,12.7-4,1.5,4.7-12.7,4,3.2,10.1,16.3-5.1,1.5,4.8-21.8,6.8-10.2-32.5Z"/>
    </g>
  </g>
  <g>
    <g>
      <path class="st33" d="M186.6,233.7h13.4c6.8,0,11.2,4,11.2,10.2s-4.4,10.2-11.2,10.2h-7.7v13.7h-5.7v-34.1ZM199.6,249.1c3.6,0,5.7-1.9,5.7-5.2s-2.1-5.2-5.7-5.2h-7.3v10.4h7.3Z"/>
      <path class="st33" d="M215.6,233.7h5.7v29.1h16.3v5h-22v-34.1Z"/>
      <path class="st33" d="M251.9,233.7h5.3l13.3,34.1h-5.9l-3-8h-14l-3,8h-5.9l13.3-34.1ZM249.4,254.8h10.3l-5.2-13.6-5.2,13.6Z"/>
      <path class="st33" d="M274,233.7h6l15.6,25.1v-25.1h5.5v34.1h-6l-15.7-25v25h-5.4v-34.1Z"/>
    </g>
    <g>
      <path class="st1" d="M186.6,233.7h13.4c6.8,0,11.2,4,11.2,10.2s-4.4,10.2-11.2,10.2h-7.7v13.7h-5.7v-34.1ZM199.6,249.1c3.6,0,5.7-1.9,5.7-5.2s-2.1-5.2-5.7-5.2h-7.3v10.4h7.3Z"/>
      <path class="st1" d="M215.6,233.7h5.7v29.1h16.3v5h-22v-34.1Z"/>
      <path class="st1" d="M251.9,233.7h5.3l13.3,34.1h-5.9l-3-8h-14l-3,8h-5.9l13.3-34.1ZM249.4,254.8h10.3l-5.2-13.6-5.2,13.6Z"/>
      <path class="st1" d="M274,233.7h6l15.6,25.1v-25.1h5.5v34.1h-6l-15.7-25v25h-5.4v-34.1Z"/>
    </g>
    <g>
      <path class="st33" d="M186.6,233.7h13.4c6.8,0,11.2,4,11.2,10.2s-4.4,10.2-11.2,10.2h-7.7v13.7h-5.7v-34.1ZM199.6,249.1c3.6,0,5.7-1.9,5.7-5.2s-2.1-5.2-5.7-5.2h-7.3v10.4h7.3Z"/>
      <path class="st33" d="M215.6,233.7h5.7v29.1h16.3v5h-22v-34.1Z"/>
      <path class="st33" d="M251.9,233.7h5.3l13.3,34.1h-5.9l-3-8h-14l-3,8h-5.9l13.3-34.1ZM249.4,254.8h10.3l-5.2-13.6-5.2,13.6Z"/>
      <path class="st33" d="M274,233.7h6l15.6,25.1v-25.1h5.5v34.1h-6l-15.7-25v25h-5.4v-34.1Z"/>
    </g>
  </g>
  <g class="st49">
    <g>
      <path class="st5" d="M199,319.7c-.3.5-1,.5-1.2,0l-.6-1.2c0-.2,0-.4,0-.6l.6-1.2c.3-.5,1-.5,1.2,0l.6,1.2c0,.2,0,.4,0,.6l-.6,1.2Z"/>
      <path class="st5" d="M199,326.7c-.3.5-1,.5-1.2,0l-.6-1.2c0-.2,0-.4,0-.6l.6-1.2c.3-.5,1-.5,1.2,0l.6,1.2c0,.2,0,.4,0,.6l-.6,1.2Z"/>
      <path class="st13" d="M191.5,324c0-.6.7-.9,1.2-.5l3.2,3.2c.4.4.1,1.2-.5,1.2h-3.2c-.4,0-.7-.3-.7-.7v-3.2ZM191.5,320.7c0,.2,0,.4.2.5l6.5,6.5c.1.1.3.2.5.2h3.6c.6,0,.9-.7.5-1.2l-10.1-10.1c-.4-.4-1.2-.1-1.2.5v3.6ZM191.5,313.7c0,.2,0,.4.2.5l13.5,13.5c.1.1.3.2.5.2h3.6c.6,0,.9-.7.5-1.2l-17.1-17.1c-.4-.4-1.2-.1-1.2.5v3.6ZM198.4,313.7c0,.2,0,.4.2.5l12.5,12.5c.4.4,1.2.1,1.2-.5v-3.6c0-.2,0-.4-.2-.5l-12.5-12.5c-.4-.4-1.2-.1-1.2.5v3.6ZM206.6,309.6c-.4-.4-1.2-.1-1.2.5v3.6c0,.2,0,.4.2.5l5.6,5.6c.4.4,1.2.1,1.2-.5v-3.6c0-.2,0-.4-.2-.5l-5.6-5.6Z"/>
      <path d="M221,324.1l-6.5-6.5c-.4-.4-1.2-.1-1.2.5v9.2c0,.4.3.7.7.7h10.1c.4,0,.7-.3.7-.7v-.8c0-.4-.3-.7-.7-.7-1.2-.2-2.3-.7-3.1-1.5ZM216.6,325.7c-.6,0-1.1-.5-1.1-1.1s.5-1.1,1.1-1.1,1.1.5,1.1,1.1-.5,1.1-1.1,1.1Z"/>
      <path class="st5" d="M191.5,327.2c0,.4.3.7.7.7h3.2c.6,0,.9-.7.5-1.2l-3.2-3.2c-.4-.4-1.2-.1-1.2.5v3.2Z"/>
      <path class="st5" d="M198.4,315.4l-5.8-5.8c-.4-.4-1.2-.1-1.2.5v3.6c0,.2,0,.4.2.5l6.7,6.7v-5.6Z"/>
      <path class="st5" d="M192.7,316.6c-.4-.4-1.2-.1-1.2.5v3.6c0,.2,0,.4.2.5l6.7,6.7v-5.6l-5.8-5.8Z"/>
      <path class="st42" d="M205.4,315.7c0-.2,0-.4-.2-.5l-5.6-5.6c-.4-.4-1.2-.1-1.2.5v3.6c0,.2,0,.4.2.5l6.7,6.7v-5.3Z"/>
      <path class="st42" d="M198.4,327.9h3.9c.6,0,.9-.7.5-1.2l-4.4-4.4v5.6Z"/>
      <path class="st42" d="M198.4,315.4v5.3c0,.2,0,.4.2.5l6.7,6.7v-5.3c0-.2,0-.4-.2-.5l-6.7-6.7Z"/>
      <path d="M232.9,325.1h2.9v-4.7h2.4c2.6,0,4.3-1.6,4.3-4s-1.7-4-4.3-4h-5.2v12.7ZM235.8,317.9v-3h2.1c1.1,0,1.7.6,1.7,1.5s-.7,1.5-1.7,1.5h-2.1Z"/>
      <path d="M247.7,325.3c2.8,0,4.8-2,4.8-4.7s-2-4.7-4.8-4.7-4.8,2-4.8,4.7,2,4.7,4.8,4.7ZM245.5,320.6c0-1.4.9-2.4,2.2-2.4s2.2,1,2.2,2.4-.9,2.4-2.2,2.4-2.2-1-2.2-2.4Z"/>
      <path d="M257,325.3c2.1,0,3.6-1.3,3.6-2.9,0-3.7-4.9-2.5-4.9-3.9s.4-.7,1-.7,1.4.4,1.6,1.2l2.1-.9c-.4-1.3-2-2.2-3.8-2.2s-3.3,1.2-3.3,2.6c0,3.5,4.8,2.5,4.8,3.9s-.5.8-1.2.8c-1,0-1.7-.7-1.9-1.6l-2.1.8c.5,1.4,1.8,2.7,4.1,2.7Z"/>
      <path d="M267.5,325l-.2-2.3c-.3.2-.7.2-1,.2-.7,0-1.1-.5-1.1-1.3v-3.5h2.2v-2.2h-2.2v-2.6h-2.7v2.6h-1.4v2.2h1.4v3.8c0,2.2,1.5,3.3,3.5,3.3s1,0,1.5-.2Z"/>
      <path d="M276.8,312.5v4.9h-5v-4.9h-2.9v12.7h2.9v-5.3h5v5.3h2.9v-12.7h-2.9Z"/>
      <path d="M286,325.3c2.8,0,4.8-2,4.8-4.7s-2-4.7-4.8-4.7-4.8,2-4.8,4.7,2,4.7,4.8,4.7ZM283.8,320.6c0-1.4.9-2.4,2.2-2.4s2.2,1,2.2,2.4-.9,2.4-2.2,2.4-2.2-1-2.2-2.4Z"/>
      <path d="M295.9,324.8c1,0,1.9-.3,2.4-.9v.9c0,1-.8,1.7-2.1,1.7s-1.7-.4-1.8-1.2l-2.4.4c.3,1.7,2.1,2.9,4.2,2.9s4.7-1.6,4.7-4.1v-8.5h-2.6v.8c-.5-.6-1.3-.9-2.4-.9-2.5,0-4.1,1.7-4.1,4.5s1.6,4.5,4.2,4.5ZM294.3,320.4c0-1.4.8-2.2,2-2.2s2,.9,2,2.2-.8,2.2-2,2.2-2-.9-2-2.2Z"/>
    </g>
  </g>
</svg>