<?xml version="1.0" encoding="UTF-8"?>
<svg id="Layer_1" xmlns="http://www.w3.org/2000/svg" xmlns:xlink="http://www.w3.org/1999/xlink" version="1.1" viewBox="0 0 500 450">
  <!-- Generator: Adobe Illustrator 29.0.0, SVG Export Plug-In . SVG Version: 2.1.0 Build 186)  -->
  <defs>
    <style>
      .st0, .st1 {
        fill: none;
      }

      .st2 {
        fill: #6f7e3d;
      }

      .st3 {
        fill: #dd6033;
      }

      .st4 {
        fill: #8f5808;
      }

      .st5 {
        fill: #f0bc6d;
      }

      .st6 {
        fill: #f0bc6e;
      }

      .st7 {
        fill: #010101;
      }

      .st8 {
        fill: #010000;
      }

      .st9 {
        fill: #a74827;
      }

      .st10 {
        fill: #54602f;
      }

      .st11 {
        fill: #c0a172;
      }

      .st12 {
        fill: #1d4aff;
      }

      .st13 {
        fill: #7085a1;
      }

      .st14 {
        fill: #5a93de;
      }

      .st15 {
        fill: #82ade7;
      }

      .st16 {
        fill: #efbb6e;
      }

      .st17 {
        fill: #9cbae0;
      }

      .st18 {
        fill: #f9bd2b;
      }

      .st19 {
        fill: #efbb6d;
      }

      .st20 {
        fill: #929e6c;
      }

      .st21 {
        fill: #a84927;
      }

      .st22 {
        fill: #eca740;
      }

      .st23 {
        fill: #4570aa;
      }

      .st24 {
        fill: #e38563;
      }

      .st25 {
        fill: #4470a9;
      }

      .st26 {
        fill: #5a93df;
      }

      .st27 {
        fill: #fd9d63;
      }

      .st28 {
        fill: #5991dc;
      }

      .st29 {
        fill: #9ab8de;
      }

      .st30 {
        fill: #5e6b34;
      }

      .st31 {
        fill: #919d6b;
      }

      .st32 {
        fill: #e68764;
      }

      .st33 {
        fill: #b27e30;
      }

      .st34 {
        fill: #4f271d;
      }

      .st35 {
        fill: #82aee8;
      }

      .st36 {
        fill: #578ed8;
      }

      .st37 {
        fill: #e28563;
      }

      .st38 {
        fill: #6a793a;
      }

      .st39 {
        fill: #b89a6d;
      }

      .st40 {
        fill: #446fa9;
      }

      .st41 {
        fill: #9ab7de;
      }

      .st42 {
        fill: #fff;
      }

      .st43 {
        fill: #fe7e32;
      }

      .st44 {
        fill: #db6032;
      }

      .st45 {
        fill: #fed596;
      }

      .st46 {
        fill: #a38960;
      }

      .st47 {
        fill: #bb4b17;
      }

      .st48 {
        fill: #b27f30;
      }

      .st49 {
        fill: #bfa171;
      }

      .st50 {
        fill: silver;
      }

      .st51 {
        fill: #5a94e0;
      }

      .st52 {
        fill: #94b0d5;
      }

      .st53 {
        fill: #f8641e;
      }

      .st54 {
        fill: #e58764;
      }

      .st55 {
        fill: #fefefe;
      }

      .st56 {
        fill: #4470aa;
      }

      .st57 {
        fill: #768ca9;
      }

      .st58 {
        fill: #f54e00;
      }

      .st59 {
        fill: #acacac;
      }

      .st60 {
        fill: #748aa7;
      }

      .st61 {
        fill: #4d261c;
      }

      .st62 {
        fill: #9cbae1;
      }

      .st63 {
        fill: #707f3d;
      }

      .st64 {
        fill: #4e271d;
      }

      .st65 {
        fill: #a64826;
      }

      .st66 {
        fill: #f3f3f3;
      }

      .st67 {
        fill: #436da5;
      }

      .st1 {
        stroke: #1d1d1b;
        stroke-linecap: round;
        stroke-linejoin: round;
        stroke-width: 10px;
      }

      .st68 {
        fill: #939f6c;
      }

      .st69 {
        fill: #49241b;
      }

      .st70 {
        fill: #a84827;
      }

      .st71 {
        fill: #5b94e1;
      }

      .st72 {
        fill: #8f5908;
      }

      .st73 {
        fill: #525d2e;
      }

      .st74 {
        clip-path: url(#clippath);
      }

      .st75 {
        fill: #436ea7;
      }

      .st76 {
        fill: #758ba9;
      }

      .st77 {
        fill: #fdfdfd;
      }

      .st78 {
        fill: #de6133;
      }
    </style>
    <clipPath id="clippath">
      <rect class="st0" x="190.4" y="322.4" width="109.2" height="20.9"/>
    </clipPath>
  </defs>
  <path d="M44,260.4c-1.9-12.4-.7-27-.5-39.7s-1.8-15.3,4-22.4,11.9-5.6,19-5.8c-.4-4.6.3-9.2.4-13.7.2-16.2-2.1-28.5,18.8-29.7s22.6,0,33.5,0,7.2,1.1,12.6-2.4l21.2-2.3,2.4-23,1.4-1.1,24.1,3.4,1.3-6,5-14c2-2.1,6.4.1,8.7,1-.7-5.2-2.1-9.3-.8-14.5s6.3-12.3,8.3-13.7c3.9-2.9,13.9-5,18.9-6.1,15.1-3.3,30.6-5.4,45.7-8.3s5.3-2.5,9-1.8,6,3.1,7.3,4.6c3.5,4.1,5.2,16.8,6.4,22.6,1.2,5.9,1.9,11.9,3.6,17.6.8.6,8.4-5.4,11.8-2l7.8,19.4c.8.7,17.1-3.2,21.3-1.6s3.1,7.8,3.7,11.3.7,1.5.8,2.2c.3,1.8.7,8,1.6,8.9,1.6,1.4,16.9.7,21.3,2.7,4.1,1.8,2.9,5.7,3.2,6,.6.6,14.5,0,16.8,0,9.8.2,22.4,1.7,32,1s1.8-1,3.5-1c3.7,0,7.3,2.4,8.9,5.7,3.2,6.6,1.7,13.4,1.7,20.1s.7,1.6.7,2.5c0,2-1.1,8.9-.2,10.3.9,1.1,2.1,0,3,0,3.9.2,7.1-.3,10.5-.1s6.8,2.5,8.3,5.7,2.5,11.7,2.4,15c-.4,8.9-.5,18.4-.5,27.5s3.6,25.2-10.3,27.6c-10.1,1.8-22.7-.6-32.9.6-7.3.9-17.6-1.3-24.5,0s-8.6,6.1-8.7,6.8,1.5,3.2,1.7,3.2c.9.1,2-1.1,3.1-1.4,2.2-.7,8.6-3,10.1-.8s1.9,5.1,2,5.5c.7,4.4-.2,10.9-1.9,15s-2.9,3.5-3,5.7c3.8.6,9.8,2.9,12.2,6s1.9,2.9,2.2,4.3c.7,4.2.5,16.1-.4,20.3s-3.9,3.1-4,3.6c-.7,2.6.3,10.5,0,13.9s-1.8,15.1-3.5,17-9.9,5.1-13.3,5.7c-6.9,1.1-24.6,1.1-30.4-2.5-1.5-1-3.4-3-3.7-4.8-1.2-6.8-1.2-14.5-2.1-21.4-.6-4.7-.8-8.7-5-11.7v7.7c0,.8-3.8,9.3-4.6,10.4-6.1,8.7-16.7,7.2-25.9,7.5-1.1,3.3-1.8,7.2-3.1,10.4s-2.8,6.5-3.7,6.8c-4.2,1.3-12.4-3.6-16.7-5.1s-5.3-1.6-7.7-2.3c-.8.2-8.1,11.6-10.1,13.5-4.7,4.2-11.4-3.5-15.2-6.2s-4.5-2.8-6.6-4.2c-3.1,2.2-6.4,4.3-9.6,6.4s-3.6,3.2-5.3,4.2-4.8,2.2-5.1,2.2c-2.7-.2-12.3-14.7-14.6-17.4-1.8.2-3.2,1.6-4.7,2.3-4.2,1.7-10.7,4.4-15,5.5s-5.2.2-6.2-1.9c-1.6-3.3-3-7.5-4.4-11.1s-.4-1.8-.5-2.8c-5.4-.4-11.3.9-16.5-1.3-6.8-2.8-9.3-6.6-11.1-13.3s-1.4-2.8-1.4-3.1v-8.7c0-.2-3.3-.5-3.5-.3-.8,1.3-.4,2.6-.9,4.2s-2.7,3-3,4c-.4,1.5,0,3.6-.2,5.3-.8,5.8-2.5,15.3-4.1,20.9s-3.6,7.7-8,10.5c-8,5-21.9,5-31,2.8-10-2.5-12.4-9.7-12.9-19.1s.9-13.8,0-18.5-3.6-3.6-4.4-5.1c-3.2-6.4-1.7-14,0-20.8s10.5-9.2,14.9-8.9c-1-2.8-3.3-4.8-4.4-7.8s-1.6-9.6-1.6-12.9,1-7.9,3-8.5c3.6-1.2,2.8,2,4.8,3.3l7.3,3c.7-1.5-2.4-9.4-3.1-9.9-1.4-.9-4.4-.1-5.7-.1-12.8-.1-26.1-.3-39-.5-2.9,0-7.1.8-9.6-1.1s-4.6-5-5.7-6.8l-1.5-4Z"/>
  <path class="st59" d="M45.5,264.4c-1-1.7-1.2-1.9-1.5-4,1.1.9,1.4,2.6,1.5,4Z"/>
  <path class="st22" d="M77,156.5c1.7,2.6,5.4,2.1,8.3,1.6,39.1,1.5,79.1,2,117.5,2l1.3-.6h1.2c6.3,11.8,23.2,8.2,34,5.6l17-4.7,1.8.6c13.2.7,27,.8,41.3.3,40.4.5,81.3,1.2,121.3,2,2.1,0,0-3.1-1.3-3.1-7.7-.3-15.4-.5-23.1-.5v-1.2c2.5-.2,5.2-.4,7.9-.5,1.5,0,3,0,4.5,0,3,.4,6,.3,9,0,6.4.5,5.8,5.9,6,11.2.6,14,0,29.2,0,43.2,1,4.6-4,5.4-7.4,5.7l-7.7.3c-2,1.1-3.9,1.1-5.5,0-24.8,1.2-50.9,1.5-76.1,0-36.2,1.6-72.6,1.9-109.1,1.1-46,1-91.5,1.2-136.4.6-4.3,0-7.1-.9-8.8-5.1-2.1-11.6-.6-33.4,0-45.7s-.5-1.6-.4-2.5c.2-3.3,1.2-7.1,3.5-9.5s1.3-.5,1.5-.7Z"/>
  <path class="st45" d="M344,238.9c-5.8,10-6.2,18.7-2.5,29.5,1.1,3.2.3,5.4-1.1,8.3-5.6,11.6-14.1,22.9-24.1,30.9s-11.6,5-19.8,4.2c-18.7.3-37.5,0-56.2,0-16.6,0-34.9,1.1-51.3,0-1.5.3-4.7,0-6.2-.5-3.2-1.4-12.2-10.3-14.4-13.2-9.8-12.3-19.1-27.5-21.4-43.2-1.5-5.5-1.6-11.5-1.7-17.1,65.9-.3,131.9-.2,198,.2l.6,1Z"/>
  <path class="st55" d="M334,328.3c4,13.9-4.8,18.5-17.4,18.6-49.3-.1-98.4.2-147.3.9-7.7-2-13.7-10.2-10.2-18,1.5-8.2,7.8-12,15.7-12.5,29-1.9,61.7.4,91,.4s16.4-.4,24.5-.4,22.7-1,32,0,9.8,6,11.7,11Z"/>
  <path class="st43" d="M208.5,92l.8-.2c-1.1-7.1-.3-9.2,7-11l9.3-1.2c12.4-3.1,24.8-5.9,37.3-8.5,5.1-1.1,13.7-2.9,15.3,3.9,3.8,14.1,6.6,29.1,9,43.8,1.9,5.1,2.7,10.1,2.6,15.1-.9.7-1.1,1.2-.8,1.6-2.4,1.3-2.4.6-4.7,1.1-15.7,2.9-31.3,5.7-46.9,8.6s-4.1,1.6-6.2,1.8-6.9-.4-8.3-1.1c-5.3-2.5-6.8-18-8-23.5-2.2-10.1-4.4-20.2-6.4-30.4Z"/>
  <path class="st11" d="M146.5,254.9c-.6-4.2-1.4-8.9-1.5-13.2s.4-8.5.5-12.8l203-.5c0,1.6.1,2.8-.4,4.4s-3.1,4.4-4.1,6.1l-198.5-.5c.7,5.5.3,11,1.5,16.5-.1.4-.3.4-.5,0Z"/>
  <path class="st33" d="M72.5,214.9c1.1.9,2.6,2.8,3.9,3.4s10.9,1.1,13.4,1.2c42.5.5,85.6-.9,128-1.1,35.5-.1,71.7,1.6,107-1s3.8,0,5.5,0c16.2.7,33,1.3,49.5,1,7.3-.1,15.9-1.6,23-1.1s1.7,1,2.5,1,2-.8,3.1-.9c4.2-.3,15.2.7,15.2-5,0,0,.5.5.5,1.2,0,4.5-1.7,7.9-6.4,8.7-6.1,1-15,0-21.4,0-95,.3-190,.8-285,1.5-9.9-1-22.4,1.3-32,0s-6.2-6.1-6.7-9Z"/>
  <path class="st22" d="M50,204.4c.3-.7.6-1,1-1.5,3.9.5,7.5,0,10.8-1.4l1.2.4c.6.4,1,.9,1.2,1.6.4,10,1.2,16.8,5.8,25.4s10.3,17,16.3,24.7c2.5,2.9,6.2,10.9-.8,9.3-6.9.2-13.8.2-20.7-.1-7.5,1.5-14.8.6-15.8-8.3s-.5-8.2-.5-12.3c0-11.6.3-23.2.7-34.8l.9-3.1Z"/>
  <path class="st22" d="M433,199.4l1.1-.6c4.3.9,8.3,1.1,11.9.6,1.1,2.4,1.4,4.5,1.5,7.2.7,14.1.3,30.1,0,44.2,1.3,3.3-5.7,4.3-8.3,4.7-8.8.5-17.8,1-26.8,1.6-13.4.5-5.8-7.7-.5-13.1l12.8-12.6c9.7-10.4,9.2-17.3,7.4-31l.9-1Z"/>
  <path class="st50" d="M334,328.3c3.1,7.8,0,17.5-7.5,21.7-4,2.2-4.5,1-8.2,1.2-25.4,1.4-51.4.4-77,.5-20.7,0-42,1.3-63,.5s-6.1-.2-8.4-.6c-6.3-1.1-10.5-7.8-11.7-13.8s-1-6,.9-8.1c-.4,2.1-1,6-.2,8s7,8.5,10,9c6.1.9,15.4-.4,21.9-.5,26.4-.2,52.7-.3,79-.5,15.9-.1,32.9.9,48.5,0,2.9-.2,8.2-.5,10.5-2s5-4.9,5.5-6c1.5-3.5.4-6-.2-9.4Z"/>
  <path class="st56" d="M190,365.7c-.9-1.8-1.3-3.3-2.1-5.2s-2.7-2.7-.2-3.3l116.5-.5c1.1.1-1.3,4.5-1.5,5-.7,2.3-.9,4.8-1.8,7-.7.3-1.2-.4-1.5-.5l.9-3c-.2-.2-6.6-.4-5.9,1-2-.2-3.4-1.5-5.1-2.1s-9.4-3.2-10.7-3.2-3.9,2.4-5.2,3.8l-.8.5c-6.9,0-13.9.1-21,.4l-2.7-.9c-1.7,0-3.4,0-5,0l-2.4.9c-8.1-.3-15.7-.5-22.6-.4-1.6-1.8-5-5.8-7.7-5.5s-5.4,2.8-7,3.5-5,1.8-7.3,2.5c-.2-.6-1-.6-2.5,0-1.8-.7-3.3-.7-4.5,0Z"/>
  <path class="st27" d="M289,135.5c-3,.3-.1-.8,0-2.7.3-4.1-2.2-10-2.9-14.1-2.3-12.6-3.9-24.3-7.3-36.7-.8-3-1.4-9.2-4.5-10.5s-9.3.3-12,.7c-12.8,2.2-25.6,6.2-38.2,8.7s-5,.2-7.2.8-6,2.2-6.3,2.5c-1.3,1.5-.2,8.3-.6,8.9s-1.4-.7-1.5-1c-1.3-6.5-3.3-11.1,4-14.2s14-3.1,20.6-4.4c12.4-2.5,24.9-4.7,37.5-7,3.7-.7,5.8-2.6,9.6,1.2s2.2,5.9,2.8,9.2c1.9,9.7,4.4,19.5,6.3,29.2s3.8,15.6,4.2,21.9c.2,3.6-1.4,6.1-4.5,7.7Z"/>
  <path class="st6" d="M174,155.5c9.2.2,18.5.3,28,.2,1.9,0,3.5,2.5,2,3.8-.1.8,1.2,1.4-.2,1.5-5.8.5-11.7,0-17.5,0-33.8,0-67.4-.5-101-1.9-1.1,0-2.4.5-4,.4s-6-1-4.3-3c.7-.6.9-1.1,2.1-1.6,4-1.5,16.3-.5,21.1-.4,24.3.4,49.1.9,73.7,1Z"/>
  <path class="st21" d="M94,354.3v-13c4.1.8,8.7,2.4,12.8,2.9s6.9.6,9.4.6c8.1,0,16-1.3,23.8-3.5v3.1c-.1,0-5.1,22-5.1,22-4.6,5.6-9.6,6.6-16.4,7.3l-1-1c1.5-6.9,2.3-13.9,2.4-20.8-6.7.2-13.3-.4-19.8-1.9l-.6-1.2c-2.3-.4-3.6-.1-3.8,1,.3,3-.2,4.5-1.7,4.5Z"/>
  <path class="st48" d="M436.5,196.4c0,1-.9,1.6-2.9,1.8.3.5-.2.9-.6,1.2.4,4.2,1,10.7,1,14.7,0,6.8-2.3,10.1-6.3,15.2-6,7.7-14.7,13.8-20.2,21.3s-2.9,4.9.2,5.3c7.3.9,16.2-.4,23.5-1s8.8.6,15.1-2.4,1.5.5,1.2-1.6c0,0,.5.4.5,1.2-.3,10.8-8.2,8.7-16.2,8.9s-3.3,0-5,0c-11.4.1-22.9-.1-34.3,0,.9-4.4,4.6-6,7.5-8.7,9.7-9,17.9-17.8,25.8-28.2s1.5-1.3,1.9-2.1c3.7-6.5.7-18.2,1.8-25.4h7Z"/>
  <path class="st33" d="M55,198.9c.1,0,.2-.7.8-.9,1.8-.6,9.6-1.4,10.4.4s.3,9.9.5,12.6c1.1,10.1,7.7,20,13.5,28.4s6.4,7.6,9.2,11.4,3.7,6.7,6,9.4,5.9,3.1,6,6.7c-4.5,1.4-9.2-.4-13.7.5-9.8-1-22.1,1.3-31.5,0-5.7-.8-7.4-9.6-7.7-14.2-1-14.3.8-29.6,0-44-.1-2,.8-3.2,1.5-4.7-.4,3.6-.9,7.6-1,11.2-.4,10.9-.7,24.7,0,35.5s.4,5.3.8,6.2c.5,1.3,5.1,4.8,6.5,5,3,.5,5.8-.5,8.5-.5,7.1,0,13.2.6,20.5.1s3.3,1.5,3.3-1.3-6.3-10.2-8.5-13.6c-3.9-5.9-13.7-20.7-15-27s-1.3-12.2-2.1-18.2l-1-.5c.7-2.6-1.3-3.1-5.9-1.7l-1-.8Z"/>
  <path class="st10" d="M137,246.9c5.8,10.3,4.2,28-6.5,34.7s-2.7.9-3.9,1.6c-6.8,4.1-8.2,7.6-9.1,15.4s-.4,16.8,0,25.5-.1,2.4-1.8,2.3-.7-3-.8-4.2c-.3-4.6-1.7-10.2-4.7-13.8s-2.4-1.8-3.1-2.7c-5.8-6.4-7.8-6.9-8.2-16.3h1.1c.9,1.1,1.7,2.3,2.4,3.5-.6.9-.5,1.4-.1,2.3.8,2,4.4,7.3,6.1,8.4,6.7,4.1,5.9-2.5,6-7,0-13.8-1.2-19.6-7.5-31.7.1-.8.9-.5.9,0s-1.7-1.6.1-2c.8,1,5.3,5,5.4,5.3,1,3-1.6,12,2.9,13.5s1.8-5.5,2.1-7.9c2,.8,2,4.3,1.9,6.4h.6c.7-.2,1.6-.2,2.7,0,1.8-.8,10.8-19.4,10.4-20.5-.8-.6-.9-1.2-.6-1.9,1.3-3.4,2.1-6.8,2.6-10.4l.9-.6Z"/>
  <path class="st21" d="M350.5,342.8c-.2-1-1.5-4.8-1-5.5,7.4,3,16.2,3.3,24.3,3,2.7,0,6.8-.3,9.4-.6s7.1-2.6,10.8-2.9l-2.7,25.5c-4.7,4-10,4.1-15.8,4.5l-.5-1c2.1-6.4,3.8-13.1,3.4-19.8-7.6.7-15.2.4-22.7-1-.3,0-5.4-2.6-4.3-2.6l-.9.4Z"/>
  <path class="st78" d="M350.5,342.8c-.2-1.5.5-1,1.4-.7,1.4.5,2.4,1.5,4.1,1.9,7.1,2,15.7.7,23,1.3,1.5,6.2-.8,13.1-2.4,19.2s-.4,1.6-1,2.2c-3.4.2-5.3,0-8.2,0h-7.5c-.3,0-3.1-1.2-3.8-1.5.7-.9.8-2.1.4-3.5-.5-5.1-1.3-10.8-2.1-15.9s-2.5-1-2.2.6l-1,.4c-1-1.1-.3-2.7-.5-4Z"/>
  <path class="st33" d="M174,155.5c9.5,0,24.5-1.2,33.3.5s2.7,3,3.8,3.7c3.1,2.2,7.6,2.3,11.2,2.8l36.5-6.6c37.5,1,74.9.9,112.1,1.5,11.1.2,22.1,0,33.2.6,0,0-.6.5-1.2.5-2.2.1-4.5-.1-6.8,0l-5.4.5c-37.5-.7-74.8-1-111.7-.8-6.7.9-13.4,2-20,3.3l-.8-.5c-6.3,1.3-11,3-17.1,4.6-9.2,2.5-23.7,5.4-32.1-.2-1.9-1.3-3.7-4-4.8-5.9s-.5-3.3-2.2-3.5c-8.3,0-16.7,0-25,0s-2.2.3-2.7-.5Z"/>
  <path class="st72" d="M394.9,228c5.4,0,11,.3,16.3.4s3.6-1.3,4.7.2l-24.7,23.7-11.2-13.6c0-.6,6.9-9.8,7.4-10.1s6.4-.6,7.4-.6Z"/>
  <path class="st78" d="M118.5,373.7c-6.7.7-11.3.8-17.5-2-.6-.8-.7-1.9-.4-3.2-1.1-5.9-1.7-12-1.8-18.2l.8-1.5c2.5.6,7.9,1.7,10.3,2s10.3-.5,11,.5-.1,8.4-.3,9.8c-.5,4.2-2.3,8.4-2,12.7Z"/>
  <path class="st71" d="M296.5,115c1.1-1.4,4.3-3.2,5.9-1.8,2.2,6.9,4.6,13.7,8.9,19.6h1.4c3.9-1.7,8.1-2.5,12.5-2.4,1.9-.7,4.3-1.5,4.8,1.1,0,6.8,2,13.3,5,19.2l-1,.6c-2.2,0-4.3,0-6.5,0-.4-.1-.4-.3,0-.5-.6-2.2-3.5-3.5-5.2-5-4.9-4.1-9.7-7.7-15.4-11.1s-7.4-3.5-7.6-3.9c-.6-1,0-3-.3-4.2-.8-4-1.8-7.6-2.5-11.8Z"/>
  <path class="st15" d="M296.5,115c-.2-1.2-1.3-3.6-.8-4.5s6.9-3.4,7.8-2.8,5.3,17.8,7.8,19.3,4.8.5,6.4.5c5-.3,10.7-1.4,15.7-2l2.5,19.7c.9,4.5,9.9,3.4,13.2,3.8s7.5,1.1,11.3,1.5l-.8,1.4c-8.6.1-17.1-.4-25.7-.4,0-2.6-2-3.9-2.8-6.5s-1.7-7.5-2.2-10.3,0-2.4-.1-3.6c-1.4-.8-2.4.3-3.7.4-2.4.3-5.5.1-7.8.7s-5.4,3.5-7.8.6c-.9-3.2-3.5-6.3-4.8-9.2s-2.8-9.5-3.2-9.8c-1.2-.9-3.3,2-5,1.3Z"/>
  <path class="st71" d="M196,110c.3.1.8,0,1.2.5,1.1,1.3,1,6.2,1.4,8.1.6,3.1,2.4,6,1.8,9.3-12.7,4.8-24,12.7-34.4,21.3l-12,.2c.2-1,2.2-.3,2.9-1.1s.2-2.7,1.1-3.4l1,.6c-.6,5.8,3,0,3.1-2.6.6-4.5,1.7-8.8,3.4-12.7,2.6.2,5.2.9,7.9,2,2.4.7,8.7,2.4,10.6.5,2.8-5.9,5.5-11.8,8-17.8,1.1-1.6,2.4-3.3,4.4-2-.7-1.3-.9-2.3-.4-3.2Z"/>
  <path class="st62" d="M168.5,313.3c-2.1-.7-6.5,3.2-8,2.3s-.8-1.7-1.3-2.3c-4.9-5.5-9.7-11.6-13.3-18.2s-6.4-12.9-6.4-14.6,4.4-7.4,4.5-10.2l2.7,6.5c3.2,10,8.8,19.8,15.3,28.1,1.4,1.8,5.2,5.1,6.2,6.8s.3.9.3,1.5Z"/>
  <path class="st4" d="M112,236.9c-2,.2-3.6-.6-5.6-.4-5.4.6-8,7.5-8.9,12.2s.4,5.6-1,4.2l-17-24c1.8.7,3.1,0,4.7,0,4,0,8.4.4,12.5.5s7.2-.9,9.9.6,6.9,5.3,5.3,6.9Z"/>
  <path class="st35" d="M196,110c1,1.3,1.6,2.8,1.5,4.5-1.4.4-2.3-1.8-3.2-.5-3.8,3.1-7,18.2-10,20s-13.8-1.4-18-3c-1.9.4-2.6,16.8-6.1,17.9s-1.8,0-2.6.1c.5-1.4.4-2.6.5-4,.2-2.4.8-4.3,1-6.2.4-4.2.3-9,.5-13.2l23.4,3.1c1.3-.6,2.2-3,2.7-4.3,2-5.3,3.2-11,5.4-16.3,1.6.8,3.4,1.1,5,2Z"/>
  <path class="st47" d="M215.5,146c1,.2,1.7,2.4,2.5,3.2,2.3,2.1,9.7,3.6,12.7,3.3s1.7-.8,2.5-1c12.5-2.3,25.2-4.6,37.6-6.9s11.4-2,17.1-3.1c.6.8-2.1,2.7-2.7,3-4.1,2.2-9.4,2.1-14,3-13.1,2.6-26.5,5.5-39.7,7.8-5.6,1-15.1,3.8-18.8-1.9s-4.1-13.7-5.3-19.4h1.3c1.4,4.3,3.7,8.3,6.7,12Z"/>
  <path class="st63" d="M351,257.9c.4-.3.9-.5,1.3-.3,2.8,6.4,5.9,12.5,9.5,18.6l-.2,1.2c5.7.3,6.1,1.9,7.5,7.3l.5.7c3.8,8.7,2.3,19.6,2,28.7,0,2.2.1,4.5,0,6.8h-3.5c-.3-7.4.4-14.9,0-22.2s-.5-12.9-5.8-17.2-7.9-4-11-7-4.1-4.9-5.2-8h1c2.7,2.7,4.8-5.6,3.2-7.4l.7-1.1Z"/>
  <path class="st17" d="M325.5,312.8c3.4-4.5,7.2-8.7,10.4-13.3,4.6-6.8,6.8-12.7,10.2-19.7s1.2-2.1,1.9-2.4c.6,2.5,4.9,2.4,4.4,5.6s-3.5,8.1-4.7,10.3-3.6,6.2-5.3,8.7-9.3,12.6-10.4,13.1-4.6-2.6-6.5-2.3Z"/>
  <path class="st71" d="M374.5,238.9c0,.3.8,1.8,1,2.2,1.2,2.3,5.3,7.7,7.1,9.9s5.7,5.1,5.5,6.5c-1.4,1.5-4.1,2.4-5.5,3.6s-.9,1.5-1.5,2c-2.1,1.6-4.3,3.3-6.5,4.7-.9-3.4-1.6-7.2-2.8-10.5s-2.2-3-2.2-4.5l-.7-1.1c1.4-4.5,2.2-9.1,2.6-13.8.7-.9,3.2-.6,3.1.9Z"/>
  <path class="st11" d="M189,311.8c-.8.8-1.7.5-2.6.4-3.9-.4-7.9,0-11.6-.9l-13-16c-7.8-12.4-13.2-25.8-15.3-40.4h.5c2.9,14,15.9,37,26.2,47s8.7,8,10.5,9,3.7.9,5.3,1Z"/>
  <path class="st10" d="M369.5,285.3c0,0-.6-.2-.7-.5-.9-1.9-1-4.1-3.2-5.8s-2.2-.2-4-1.7l.2-.7c2.3,0,3.2-.8,2.6-2.3-3.6-7-7.6-13.8-11.9-20.4l.6-1.1c-.5,0-.9-.1-1.1-.5.2-4-.3-7.7-1.7-11.1l.8-.8c2.5,2.3,4.8,6.3,7.2,9s6.1,4.9,8.4,10.1,2,8.4,1.4,15.1.3,7,1.5,10.7Z"/>
  <path class="st53" d="M207.5,134c-2-9.2-4-18.2-5.9-27.3s-2.7-11.3-2.6-14.4,2.7-6,3.4-5.2c1.1,9.6,3.7,19.1,5.1,28.6,2.9,7.4,2.9,16.4,5.1,23.9s2.7,3.7,2.8,6.5c0,0-.4.6-1,.3s-5.3-7.8-5.8-8.8,0-2.7-1.3-3.5Z"/>
  <path class="st3" d="M362.5,325.3c5.3.9,10.8,1.1,16.5.6l.5.4c1.6.6,1.6,6.5,0,7.2.5.4.6.6,0,.7l-5.1.5c-8.6,1.1-13,0-21-2,.9-2.4,1.4-5.1.8-7.6l.7-.9c2.6.6,5,.6,7.5,1Z"/>
  <path class="st49" d="M341.5,268.4c1.1,3.2,2.3,3.4.7,7.5-4,10.1-11.8,22.8-19,31s-4.3,4.6-5,5c-2.4,1.4-5.3,0-7.6,0s-2.5.5-4,.5c-3.3,0-7.2.4-10.3-.5,3.1,0,9.4.5,12-.2s8.2-5.5,10.2-7.3c7.7-6.8,17.2-19.9,21.3-29.2s1.7-4.5,1.5-6.8Z"/>
  <path class="st70" d="M109,331.3c5.1-.5,10.1.3,15.3,0s9.7-1.1,13.2-2.3,6.1-3.1,6.5-2.7c-.6,1.8-.1,5-.8,6.5-2.2,5-21.5,7.1-26.7,7-.2-1,.6-1.6,2.4-1.8-.3-1.6-.2-3.3.2-5.1-3.1,0-6.1-.1-9.2-.4l-.9-1.2Z"/>
  <path class="st3" d="M109,331.3c3.6.9,7.3.4,11,.5.3,1.7-.3,3.2-.4,4.7s.9,1.9,0,2.5c-1,0-2.4.6-3,.7-5.1.6-16.9-1.8-22-3.5l.4-1c2.9.7,1.1-4.8.2-6.4l.4-1.1c5,2,8.5,2.3,13.5,3.5Z"/>
  <path class="st40" d="M128,288.3l1.5-1.2,6-2.8c0,.8,0,1.6.4,2.4,5.2,12,12.9,22.8,21.3,32.7.7,1.6-1.5,3.3-2.1,4.3-1.8-1.8-3.6-3.6-5.5-5.5-.4-4.5-3.2-7.4-7-9.5.1-.6-.5-1.7-1.9-3.2l-9.6-17.2c-1.3.4-2.3.4-3-.2Z"/>
  <path class="st70" d="M362.5,325.3c9.5,1,20.2.8,29.3-2.5s4.5-2.1,6.7-3c-1.7,1.5-.6,10.1-1,10.5s-2.3,0-3.2.1-1.8,1.3-2.8,1.7c-5.4,1.7-11.3,2.8-17,2.7.1,0,.6-.4,1.2-.5s3.8.3,3.8-.7v-7.2c-5.2-.4-11.5.7-16.5-.3s-.5-.7-.5-.7Z"/>
  <path class="st68" d="M346,266.4c-3.7-9.7-2.1-18.5,3.5-27,1.2-.3,1,.5,1.5,1,.2,1.4,1.1,2.5,1.4,3.9.5,2.4.1,6.7.6,8.6-1.9,1.2-1.8,1.8-1.2,4.1l-.8.9c.3,1.3,1.1,2.3,1,3.7s-1.8,5.2-2,5.5c-1,1.5-3.4.9-4-.7Z"/>
  <path class="st23" d="M369.5,252.9c-2.9-1.7-3.2-4.6-3.3-7.7-.1-5.4,1-11.3-.2-16.8h15.5l-6.7,8c-.3.7-.4,1.7-.3,2.5l-2.5-.5c0,1.7.1,3.5,0,5.2-.3,2.5-2.5,7.5-2.4,9.3Z"/>
  <path class="st51" d="M244,364.7l-15.7,12c-3.5-3.5-5.9-7.8-9.3-11.5-.3-1.5.8-1,1.7-1,7.8-.3,15.7.5,23.3.5Z"/>
  <path class="st51" d="M273.5,364.7c-3,3.5-4.9,7.9-7.8,11.5l-16.7-11.5c7,0,14.5-.6,21.8-.5.8,0,2.2-.3,2.7.5Z"/>
  <path class="st25" d="M122,252.4c-.7-.6-1-1.7-.7-3.2l-1.2-6.6c0-3.2-1.1-5.1-2-1.2-3.5-2-.6-3-.5-4.7,0-3.2-3.9-5-5-7.7,4.3.3,8.5.7,12.7,0,2.5.2.8,5.9.7,7.7,0,2.7.9,9,.4,10.9s-3.1,3.9-4.4,4.9Z"/>
  <path class="st57" d="M203,138.5l-.7,1.3c-4,1.2-7.6,3-11,5.3-1.2,1.1-7.9,5.4-9.2,3.9s2.5,0,1.5,1c-3.1.1-6.2,0-9.2,0l-.2-1c7.3-4.7,14.4-10.3,22.4-13.8s6-2.8,6.6,3.4Z"/>
  <path class="st51" d="M128,288.3c.8-.3,2.8-1.3,3.4-.9s5.2,8.9,6,10.3c1.9,3.4,3,5.9,5.2,9.3s1.7,2.3,0,1.8c-2.3-1.3-5.8-2.6-8.5-3,1.4-3.3-1.8-7.7-4.8-8.9s-6.7-.4-6-3.6,2.6-4,4.8-5Z"/>
  <path class="st9" d="M122.3,308.4c6.1,2,15.9,1.9,20.5,6.9s1.9,3.9-.8,5.7-3.5-1.2-5.8-2.6-6.7-2.6-9.5-3-4,.2-4.7-.3-.9-6.4.3-6.7Z"/>
  <path class="st68" d="M137,246.9c.6,1.4-2,10.4-2.5,10.8s-.8.1-1,.2c-.4,1.3-1.3,2.4-2.8,3.5-1,1.8-2.3,3-3.7,3.5-3.8,3.6-7.5-.9-4.5-5,2.7-3.9,7-7.3,10-11.3s2.5-2.8,2.5-4.7c1,.4,1.5,2.1,2,3Z"/>
  <path class="st32" d="M99.5,348.8c.9,4.6.5,9.5,1,14.2s2,6,.5,8.7c-.4-.2-1.1,0-1.8-.5-3.9-2.6-4.5-7.1-4.7-11.5l-.5-5c0-.2,0-.3,0-.5s.4-.6.5-1.2c.4-2.7-.9-6.2,3.7-5.3s1.2,1,1.2,1Z"/>
  <path class="st14" d="M118,241.4c-.3-1.2-.9-1.9-1-3h4c-.9,4.1,2.3,10.6,1,14s-3.7,3.8-4.9,5.8-1.4,4-1.6,4.2c-1.1.9-4.9-4.2-5.3-5.5s-.3-2-.2-3c7.3.6,9.4-6.4,8-12.5Z"/>
  <path class="st44" d="M102.8,308.9c1.1-.2,4.6,4.6,5.2,5.7s.8.4,0,1c-2.2.5-4.1,0-6.4.6s-5.9,2-6.9,2.6-2.2,2.1-2.4,2.1-2.4-1.8-2.5-2c-3.2-5.3,10.6-8.2,13.1-9.9Z"/>
  <path class="st3" d="M363,304.3v7.5c-2.7-1-7.5.4-10.1,1.6s-2.8,2.3-3.7,2.4c-1.3.1-3-1.7-3.1-2.8-.6-5.1,13.1-8.1,16.9-8.7Z"/>
  <path class="st76" d="M327.5,151v.5c-7.5,0-15,0-22.5,0l1.7-.5-.7-1.5,1-.6c8.5,3.6,1.9-1-1.3-3.2s-6.6-4.3-10.2-4.7c.7-.7,1.8-4.3,2-4.5s1.1,0,1.5.2c.8.2,4.7,2.3,5.6,2.9,3.3,1.9,7.6,4.9,10.8,7.2s3.8,3.6,4.5,4c1.8.8,5.4,0,7.5.3Z"/>
  <path class="st65" d="M393.5,316.3c-.5-1.5-2.8-3.9-4.2-4.6s-5.6-1.6-7.1-1.9-5.6.9-5.7-1.5c5.1-2.5,5.9-4.3,11.9-2.7s13.7,5.9,5.1,10.6Z"/>
  <path class="st54" d="M355,324.3c1,2.3.4,4.9,0,7.3s.5,1.4-1.5,1.2c-.7-.2-1.9.1-3-.2s-3.7-1.7-5-2.5v-9c0,0-1-.9-.3-1.2,2.9,2,6.3,3.6,9.8,4.5Z"/>
  <path class="st24" d="M351,346.8c.1-4,3.8-2.7,4.3-1,.4,6,1.9,11.8,2.2,17.8s.3,2-1.5,1.8c-1.4-.6-2.8,0-3.4-2.4.1-5.1-1.8-11.2-1.6-16.1Z"/>
  <path class="st75" d="M361,288.3c0,3.5-1.2,7-3.6,10.3,2.4-.8,4.1-.6,5.1.6-2.5,1.1-6.2.9-8.6,1.6s-5.3,2.9-5.9,2.4c2-4.2,4.9-8.1,6.9-12.3s1.9-4.6,2.6-6.7c2.2.7,2.6,2.2,3.5,4Z"/>
  <path class="st37" d="M95.5,327.8c1.9,2.3,1.9,5.6,2,8.5h-3c-4.7-1.5-6-2.6-6.9-7.9s3.3-2.1,6-1,1.4.2,1.8.4Z"/>
  <path class="st20" d="M387.5,279.3c.6,2,1.4,5.7.2,7.5s-5.4,4.2-6.2,2.5c-.5,0-1.5,0-2,0-2.2,1.7-4.2-1.6-2.5-3.5,1.1-1.6,1.4-2.6,3.3-3.9s6-2.9,7.2-2.6Z"/>
  <path class="st2" d="M127,264.9l.6.9c-2.9,4.5-4.7,9.2-5.5,14.2l-1.1.4c-.2.7-.8,1.2-1.5,1,.7-2.6-.8-5.3-1-7.5-.5-4,1.7-10.7,4-14-1.7,3.7.7,6.4,4.5,5Z"/>
  <path class="st13" d="M140,228.9c.5,4.1-1.2,8.1,0,12-3.2-1.7-4.7-7.5-9-3.5l1-8.5h8Z"/>
  <path class="st29" d="M295.5,141c.5-.3,1.1-1,1.6-.9s4.3,1.8,4.9,2.1c2.3,1.2,7.8,5,9.7,6.8s1.4,1,1.3,2c-3.2.5-4.4-.2-7-1.5s-6.1-3.6-9.1-5.2-4.7-.9-1.4-3.3Z"/>
  <path class="st41" d="M203,138.5c0,.9.4,1.7.4,2.7-.3,1-5.5,2.6-6.8,3.2-5.7,3-5.9,5.3-13.1,5.6l-1.5-1c2.6,0,3.7-2.6,6.5-2.8,4-4,9.4-5.8,14.5-7.7Z"/>
  <path class="st60" d="M357,239.4c-.1-.2-.6-.4-.9-.8-1.6-2.6-2.1-7.1-2.1-10.2,1.3.3,5.6-.4,6.4,0s.6,8.3.6,9.9l-.5,1c-1.3-.2-2.5-.2-3.5,0Z"/>
  <path class="st73" d="M387.5,279.3c1.2.4,1.2,6.5,1,7.7s-2,6.5-2.6,7.4-7.8,8.4-8.9,7.3c.7-4.2,7.9-8,4.5-12.5,1.6-.2,5.7-2.7,6.2-4,.9-1.9-.5-4-.2-6Z"/>
  <path class="st31" d="M99,289.3c0-1.7,0-3.3,0-5,5.7,2.1,12,3.9,10,11.5-2-1.5-2.1-4.4-5.2-4s-1.2,1-1.3,1c-1.2.4-3-2.6-3.5-3.5Z"/>
  <path class="st19" d="M55,198.9c2.7-.7,5.2-1.2,8-.5.2,1.1-.1,2.4,0,3.5-2.9,2.3-6.8,2.1-10.3,2s-2,.5-1.7-1c1.5-2.2,1.4-2.5,4-4Z"/>
  <path class="st38" d="M108.5,248.4c-4.7,3.8-4.1,10.1-.5,14.5v2.5s-1-.5-1-.5c-3.5-6.7-7.4-14.3-2-21.5l1,.3c.3,2.4.7,3.6,2.5,4.7Z"/>
  <path class="st64" d="M134.5,324.3c-4.1.6-8.3,1.6-12.5,1.5l-.5-6c3,.1,6.1.9,8.9,1.9s5.1,1.6,4.1,2.6Z"/>
  <path class="st31" d="M108.5,248.4c-.7-.1-1.7.3-2.3-.5s-1.3-3.5-1.2-4.5c3.8-5.1,10.4.2,7.5,4.3s-2.6,1-4,.7Z"/>
  <path class="st16" d="M446,199.4c.3,1.6-.8.9-1.7,1-3.6.3-8,.6-11.3-1,0-.6-.8-1.6-.5-2.5,1.3.5,3.4-.5,4-.5s1.7.6,2.7.5c4,0,4.6-2.2,6.8,2.5Z"/>
  <path class="st34" d="M388,318.8c-3.8.6-7.5,1.9-11.5,1.5v-5.5c3.5,1,10.2-.2,11.5,4Z"/>
  <path class="st26" d="M362.5,299.3c-2.6-.3-4.6.2-7,1,1.7-4.1,4.3-7.6,5.5-12,1.9,3.9,1.6,6.7,1.5,11Z"/>
  <path class="st67" d="M340.5,329.8c-1.7-1.4-1.8-4.3-2.8-6.5s-2.2-3-2.2-3.7c.1-1.3,3.7-4.4,4.9-5.3v15.5Z"/>
  <path class="st61" d="M109.5,325.8l-6-.7-6-2.3c4.9-.6,13.7-6,12,3Z"/>
  <path class="st39" d="M298,151l-7.8.5c-2.1-.4-4.3.3-6.2-.8.7-.7,5.3-3.8,5.7-3.8,1.3,0,6.7,3.4,8.3,4Z"/>
  <path class="st28" d="M155,323.8c-.2.3.2,1.7-.8,1.9s-3.5-1-4.7-.4c-.1-2.3.2-4.8,0-7,1.3-1.3,3.7,2.2,4.5,3.2s1.2,1.1,1,2.3Z"/>
  <path class="st28" d="M294.5,366.2l-3-2h10c.2.2-.5,4.5-2,4-2-.5-3.3-.7-5-2Z"/>
  <path class="st69" d="M364,320.3c-.4.4-6.7-.6-7.7-1s-1.4-.4-1.3-1.5c3.5-.1,10-3.7,9,2.5Z"/>
  <path class="st36" d="M190,365.7c-.6-2.9,3.3-1,4.7-1s2.5-.7,3.8-.5c-.2.5-1,1.2-1.5,1.5-1.8,1-4.1,1.1-5.8,2.5-.8-.6-.8-1.7-1.2-2.5Z"/>
  <path class="st66" d="M129,304.3l-7-.5.5-3.5c1-.4,7.7,3,6.5,4Z"/>
  <path class="st46" d="M205,147c0,1,1.2,3-.3,3.5s-5.5-.5-6.7-.5l4.7-2.5,2.3-.5Z"/>
  <path class="st52" d="M361,238.4c0,1.8,0,3.7,0,5.5-1.7-1.1-2.9-2.9-4-4.5-.4-1.8,2.5-.7,4-1Z"/>
  <path class="st30" d="M379.5,289.3l-3,4.5c.5-2.2-1.8-5.4-.5-7.3s.9-.5,1-.7c-.3,1.8.7,3.2,2.5,3.5Z"/>
  <path class="st33" d="M417.5,158c-2.5.8-6.5.8-9,0,2.8,0,6.2-.2,9,0Z"/>
  <path class="st21" d="M94.5,359.7c-.8-1.1-.6-3.5-.5-5,1,1.2.4,3.4.5,5Z"/>
  <path class="st5" d="M396,158.5c0,0,.6.5,1.2.5,5.1.2,19.7-1,23.4.6s2,2.8,1.8,3.6c-.5,2-4,.8-5.2.8-51.7-.7-103.8-2.1-155.1-1.5s-4.6.1-4.2-1.5c11.8-2.4,16.4-4.1,29.3-4,35.9.2,72.6.4,108.7,1.5Z"/>
  <path class="st8" d="M246.5,97.5c.8-2.7.6-6,1.1-8.6s1.1-5.7,1.7-7.3c1.3-3.3,2.7-2.1,5.3-2.7,5.6-1.4,10.7-3.4,9.8,5.2-.7,6.8-3.6,14.6-5.2,21.2s-1.6,5.7-1.7,6.9c-.1,2.5,2.6,8.3,3.4,11.1,1.2,4.2,3.2,8-1.7,10.5s-6.3,2-7,2c-1.7.2-3.7-1.4-4.5-2.8-3.2-5.4-1.8-13.6-6.6-19.4s-9.5-9-13.7-13.8-6-6.5-5.8-10.2,8.9-3.9,10.9-5.5h1.5c4.7,3.8,8.1,9.1,12.5,13.3Z"/>
  <path class="st7" d="M133.5,257.9c3.3,2.1.9,3.5.1,5.4-1.9,4.7-4,9.2-6.3,13.6s-3,6.3-6.3,3.5c.4-1.6.3-3.4,1-5.3s3.7-7.9,5-10.2,3.6-5.5,6.5-7Z"/>
  <path class="st7" d="M353,252.9c.1.5,4.4,7,5.2,8.5,1.5,2.7,7.4,11.4,7.3,13.7s-2.1,2.4-4,2.2c-1.4-1.2-.9-1.7-1.7-3-2.1-3.4-4.5-7.2-6.2-10.8s-.8-4.5-2.6-5.6c-.5-2.4-1.6-5.5,2-5Z"/>
  <path class="st77" d="M259.5,83.1c-1.7,6-2.8,12.1-4.1,18.1s-3.1,8.5-1.6,15.9,3.5,9.2,3.3,11.7-3.8,2.3-4.8,1.3c-1.5-1.5-3.3-13.7-5-16.5-6-6.7-12.6-12.8-18.4-19.5s-2.6-1.1-1.8-2.4,4.5-1.3,4.9-1.3c2,0,4.2,4.1,5.6,5.5s1,.6,1.3.9c1.8,1.9,5.5,7.2,7.4,8.3s3.9-.3,4.7-2.4l3.1-18.3c.3-.6,5.1-1.7,5.5-1.3Z"/>
  <g class="st74">
    <g>
      <path class="st12" d="M198,334.4c-.3.5-1,.5-1.2,0l-.6-1.2c0-.2,0-.4,0-.6l.6-1.2c.3-.5,1-.5,1.2,0l.6,1.2c0,.2,0,.4,0,.6l-.6,1.2Z"/>
      <path class="st12" d="M198,341.3c-.3.5-1,.5-1.2,0l-.6-1.2c0-.2,0-.4,0-.6l.6-1.2c.3-.5,1-.5,1.2,0l.6,1.2c0,.2,0,.4,0,.6l-.6,1.2Z"/>
      <path class="st18" d="M190.4,338.7c0-.6.7-.9,1.2-.5l3.2,3.2c.4.4.1,1.2-.5,1.2h-3.2c-.4,0-.7-.3-.7-.7v-3.2ZM190.4,335.3c0,.2,0,.4.2.5l6.5,6.5c.1.1.3.2.5.2h3.6c.6,0,.9-.7.5-1.2l-10.1-10.1c-.4-.4-1.2-.1-1.2.5v3.6ZM190.4,328.4c0,.2,0,.4.2.5l13.5,13.5c.1.1.3.2.5.2h3.6c.6,0,.9-.7.5-1.2l-17.1-17.1c-.4-.4-1.2-.1-1.2.5v3.6ZM197.4,328.4c0,.2,0,.4.2.5l12.5,12.5c.4.4,1.2.1,1.2-.5v-3.6c0-.2,0-.4-.2-.5l-12.5-12.5c-.4-.4-1.2-.1-1.2.5v3.6ZM205.5,324.3c-.4-.4-1.2-.1-1.2.5v3.6c0,.2,0,.4.2.5l5.6,5.6c.4.4,1.2.1,1.2-.5v-3.6c0-.2,0-.4-.2-.5l-5.6-5.6Z"/>
      <path d="M220,338.8l-6.5-6.5c-.4-.4-1.2-.1-1.2.5v9.2c0,.4.3.7.7.7h10.1c.4,0,.7-.3.7-.7v-.8c0-.4-.3-.7-.7-.7-1.2-.2-2.3-.7-3.1-1.5ZM215.6,340.3c-.6,0-1.1-.5-1.1-1.1s.5-1.1,1.1-1.1,1.1.5,1.1,1.1-.5,1.1-1.1,1.1Z"/>
      <path class="st12" d="M190.4,341.9c0,.4.3.7.7.7h3.2c.6,0,.9-.7.5-1.2l-3.2-3.2c-.4-.4-1.2-.1-1.2.5v3.2Z"/>
      <path class="st12" d="M197.4,330l-5.8-5.8c-.4-.4-1.2-.1-1.2.5v3.6c0,.2,0,.4.2.5l6.7,6.7v-5.6Z"/>
      <path class="st12" d="M191.6,331.2c-.4-.4-1.2-.1-1.2.5v3.6c0,.2,0,.4.2.5l6.7,6.7v-5.6l-5.8-5.8Z"/>
      <path class="st58" d="M204.3,330.3c0-.2,0-.4-.2-.5l-5.6-5.6c-.4-.4-1.2-.1-1.2.5v3.6c0,.2,0,.4.2.5l6.7,6.7v-5.3Z"/>
      <path class="st58" d="M197.4,342.6h3.9c.6,0,.9-.7.5-1.2l-4.4-4.4v5.6Z"/>
      <path class="st58" d="M197.4,330v5.3c0,.2,0,.4.2.5l6.7,6.7v-5.3c0-.2,0-.4-.2-.5l-6.7-6.7Z"/>
      <path d="M231.9,339.8h2.9v-4.7h2.4c2.6,0,4.3-1.6,4.3-4s-1.7-4-4.3-4h-5.2v12.7ZM234.7,332.6v-3h2.1c1.1,0,1.7.6,1.7,1.5s-.7,1.5-1.7,1.5h-2.1Z"/>
      <path d="M246.6,339.9c2.8,0,4.8-2,4.8-4.7s-2-4.7-4.8-4.7-4.8,2-4.8,4.7,2,4.7,4.8,4.7ZM244.4,335.2c0-1.4.9-2.4,2.2-2.4s2.2,1,2.2,2.4-.9,2.4-2.2,2.4-2.2-1-2.2-2.4Z"/>
      <path d="M256,339.9c2.1,0,3.6-1.3,3.6-2.9,0-3.7-4.9-2.5-4.9-3.9s.4-.7,1-.7,1.4.4,1.6,1.2l2.1-.9c-.4-1.3-2-2.2-3.8-2.2s-3.3,1.2-3.3,2.6c0,3.5,4.8,2.5,4.8,3.9s-.5.8-1.2.8c-1,0-1.7-.7-1.9-1.6l-2.1.8c.5,1.4,1.8,2.7,4.1,2.7Z"/>
      <path d="M266.4,339.7l-.2-2.3c-.3.2-.7.2-1,.2-.7,0-1.1-.5-1.1-1.3v-3.5h2.2v-2.2h-2.2v-2.6h-2.7v2.6h-1.4v2.2h1.4v3.8c0,2.2,1.5,3.3,3.5,3.3s1,0,1.5-.2Z"/>
      <path d="M275.7,327.1v4.9h-5v-4.9h-2.9v12.7h2.9v-5.3h5v5.3h2.9v-12.7h-2.9Z"/>
      <path d="M284.9,339.9c2.8,0,4.8-2,4.8-4.7s-2-4.7-4.8-4.7-4.8,2-4.8,4.7,2,4.7,4.8,4.7ZM282.8,335.2c0-1.4.9-2.4,2.2-2.4s2.2,1,2.2,2.4-.9,2.4-2.2,2.4-2.2-1-2.2-2.4Z"/>
      <path d="M294.9,339.5c1,0,1.9-.3,2.4-.9v.9c0,1-.8,1.7-2.1,1.7s-1.7-.4-1.8-1.2l-2.4.4c.3,1.7,2.1,2.9,4.2,2.9s4.7-1.6,4.7-4.1v-8.5h-2.6v.8c-.5-.6-1.3-.9-2.4-.9-2.5,0-4.1,1.7-4.1,4.5s1.6,4.5,4.2,4.5ZM293.3,335c0-1.4.8-2.2,2-2.2s2,.9,2,2.2-.8,2.2-2,2.2-2-.9-2-2.2Z"/>
    </g>
  </g>
  <g>
    <g>
      <path class="st1" d="M93.3,189.2c0-11.5,7.9-17.2,16.5-17.2s13.4,4.3,14.6,10.9l-5.6,1.2c-1-4.5-4.4-7.2-9-7.2s-10.8,4.3-10.8,12.3,4.6,12.2,10.8,12.2,7.9-2.5,8.9-6.8l5.6,1.2c-1.6,6.5-7,10.5-14.5,10.5s-16.5-5.7-16.5-17.2Z"/>
      <path class="st1" d="M128,189.2c0-9.9,7.1-17.2,16.8-17.2s16.8,7.2,16.8,17.2-7.1,17.2-16.8,17.2-16.8-7.2-16.8-17.2ZM144.8,201.4c6.5,0,11.1-5.1,11.1-12.2s-4.7-12.3-11.1-12.3-11.1,5.2-11.1,12.3,4.7,12.2,11.1,12.2Z"/>
      <path class="st1" d="M166.8,172.4h6.5l10.7,25.5,10.7-25.5h6.5v33.6h-5.4v-23.1l-9.6,23.1h-4.4l-9.6-23.1v23.1h-5.4v-33.6Z"/>
      <path class="st1" d="M207.8,172.4h12.8c6.2,0,10.5,3.1,10.5,8.6s-2.1,5.6-4.2,6.6c3.3,1.2,5.8,3.9,5.8,8.5s-4.5,9.9-11.5,9.9h-13.3v-33.6ZM220.2,185.8c3.6,0,5.4-1.5,5.4-4.4s-1.8-4.4-5.5-4.4h-6.8v8.8h6.8ZM220.4,201c4.5,0,6.7-1.8,6.7-5.2s-2.2-5.2-6.7-5.2h-7.1v10.4h7.1Z"/>
      <path class="st1" d="M237.7,172.4h5.6v33.6h-5.6v-33.6Z"/>
      <path class="st1" d="M249.9,172.4h5.9l15.4,24.7v-24.7h5.4v33.6h-5.9l-15.5-24.7v24.7h-5.3v-33.6Z"/>
      <path class="st1" d="M293.4,172.4h5.2l13.1,33.6h-5.8l-3-7.9h-13.8l-3,7.9h-5.8l13.1-33.6ZM290.9,193.2h10.2l-5.1-13.4-5.1,13.4Z"/>
      <path class="st1" d="M318.8,177.3h-10.4v-4.9h26.4v4.9h-10.4v28.7h-5.6v-28.7Z"/>
      <path class="st1" d="M335.2,189.2c0-9.9,7.1-17.2,16.8-17.2s16.8,7.2,16.8,17.2-7.1,17.2-16.8,17.2-16.8-7.2-16.8-17.2ZM352,201.4c6.5,0,11.1-5.1,11.1-12.2s-4.7-12.3-11.1-12.3-11.1,5.2-11.1,12.3,4.7,12.2,11.1,12.2Z"/>
      <path class="st1" d="M374,172.4h12.6c6.5,0,10.7,3.8,10.7,9.6s-2.1,7.2-5.7,8.7l9.2,15.2h-6.6l-8.4-14.3h-6.2v14.3h-5.6v-33.6ZM385.8,186.8c3.7,0,5.8-1.7,5.8-4.8s-2.1-4.8-5.8-4.8h-6.1v9.5h6.1Z"/>
    </g>
    <g>
      <path class="st42" d="M93.3,189.2c0-11.5,7.9-17.2,16.5-17.2s13.4,4.3,14.6,10.9l-5.6,1.2c-1-4.5-4.4-7.2-9-7.2s-10.8,4.3-10.8,12.3,4.6,12.2,10.8,12.2,7.9-2.5,8.9-6.8l5.6,1.2c-1.6,6.5-7,10.5-14.5,10.5s-16.5-5.7-16.5-17.2Z"/>
      <path class="st42" d="M128,189.2c0-9.9,7.1-17.2,16.8-17.2s16.8,7.2,16.8,17.2-7.1,17.2-16.8,17.2-16.8-7.2-16.8-17.2ZM144.8,201.4c6.5,0,11.1-5.1,11.1-12.2s-4.7-12.3-11.1-12.3-11.1,5.2-11.1,12.3,4.7,12.2,11.1,12.2Z"/>
      <path class="st42" d="M166.8,172.4h6.5l10.7,25.5,10.7-25.5h6.5v33.6h-5.4v-23.1l-9.6,23.1h-4.4l-9.6-23.1v23.1h-5.4v-33.6Z"/>
      <path class="st42" d="M207.8,172.4h12.8c6.2,0,10.5,3.1,10.5,8.6s-2.1,5.6-4.2,6.6c3.3,1.2,5.8,3.9,5.8,8.5s-4.5,9.9-11.5,9.9h-13.3v-33.6ZM220.2,185.8c3.6,0,5.4-1.5,5.4-4.4s-1.8-4.4-5.5-4.4h-6.8v8.8h6.8ZM220.4,201c4.5,0,6.7-1.8,6.7-5.2s-2.2-5.2-6.7-5.2h-7.1v10.4h7.1Z"/>
      <path class="st42" d="M237.7,172.4h5.6v33.6h-5.6v-33.6Z"/>
      <path class="st42" d="M249.9,172.4h5.9l15.4,24.7v-24.7h5.4v33.6h-5.9l-15.5-24.7v24.7h-5.3v-33.6Z"/>
      <path class="st42" d="M293.4,172.4h5.2l13.1,33.6h-5.8l-3-7.9h-13.8l-3,7.9h-5.8l13.1-33.6ZM290.9,193.2h10.2l-5.1-13.4-5.1,13.4Z"/>
      <path class="st42" d="M318.8,177.3h-10.4v-4.9h26.4v4.9h-10.4v28.7h-5.6v-28.7Z"/>
      <path class="st42" d="M335.2,189.2c0-9.9,7.1-17.2,16.8-17.2s16.8,7.2,16.8,17.2-7.1,17.2-16.8,17.2-16.8-7.2-16.8-17.2ZM352,201.4c6.5,0,11.1-5.1,11.1-12.2s-4.7-12.3-11.1-12.3-11.1,5.2-11.1,12.3,4.7,12.2,11.1,12.2Z"/>
      <path class="st42" d="M374,172.4h12.6c6.5,0,10.7,3.8,10.7,9.6s-2.1,7.2-5.7,8.7l9.2,15.2h-6.6l-8.4-14.3h-6.2v14.3h-5.6v-33.6ZM385.8,186.8c3.7,0,5.8-1.7,5.8-4.8s-2.1-4.8-5.8-4.8h-6.1v9.5h6.1Z"/>
    </g>
  </g>
  <g>
    <g>
      <path class="st1" d="M190.3,252h13.2c6.7,0,11,3.9,11,10s-4.3,10-11,10h-7.6v13.5h-5.7v-33.6ZM203.2,267.2c3.6,0,5.7-1.9,5.7-5.1s-2.1-5.1-5.7-5.1h-7.2v10.3h7.2Z"/>
      <path class="st1" d="M218.9,252h5.6v28.7h16v4.9h-21.6v-33.6Z"/>
      <path class="st1" d="M254.6,252h5.2l13.1,33.6h-5.8l-3-7.9h-13.8l-3,7.9h-5.8l13.1-33.6ZM252.2,272.8h10.2l-5.1-13.4-5.1,13.4Z"/>
      <path class="st1" d="M276.4,252h5.9l15.4,24.7v-24.7h5.4v33.6h-5.9l-15.5-24.7v24.7h-5.3v-33.6Z"/>
    </g>
    <g>
      <path class="st42" d="M190.3,252h13.2c6.7,0,11,3.9,11,10s-4.3,10-11,10h-7.6v13.5h-5.7v-33.6ZM203.2,267.2c3.6,0,5.7-1.9,5.7-5.1s-2.1-5.1-5.7-5.1h-7.2v10.3h7.2Z"/>
      <path class="st42" d="M218.9,252h5.6v28.7h16v4.9h-21.6v-33.6Z"/>
      <path class="st42" d="M254.6,252h5.2l13.1,33.6h-5.8l-3-7.9h-13.8l-3,7.9h-5.8l13.1-33.6ZM252.2,272.8h10.2l-5.1-13.4-5.1,13.4Z"/>
      <path class="st42" d="M276.4,252h5.9l15.4,24.7v-24.7h5.4v33.6h-5.9l-15.5-24.7v24.7h-5.3v-33.6Z"/>
    </g>
  </g>
</svg>