<?xml version="1.0" encoding="UTF-8"?>
<svg id="Layer_1" xmlns="http://www.w3.org/2000/svg" xmlns:xlink="http://www.w3.org/1999/xlink" version="1.1" viewBox="0 0 500 450">
  <!-- Generator: Adobe Illustrator 29.0.0, SVG Export Plug-In . SVG Version: 2.1.0 Build 186)  -->
  <defs>
    <style>
      .st0, .st1 {
        fill: none;
      }

      .st2 {
        fill: #b8791a;
      }

      .st3 {
        fill: #eaa640;
      }

      .st4 {
        fill: #f0bb6d;
      }

      .st5 {
        fill: #eeba6c;
      }

      .st6 {
        fill: #010000;
      }

      .st7 {
        fill: #b49f7e;
      }

      .st8 {
        fill: #1d4aff;
      }

      .st9 {
        fill: #af7c2f;
      }

      .st10 {
        fill: #f5d9ae;
      }

      .st11 {
        fill: #8d5c12;
      }

      .st12 {
        fill: #efbb6e;
      }

      .st13 {
        fill: #8b5a12;
      }

      .st14 {
        fill: #fee0b3;
      }

      .st15 {
        fill: #8d5b12;
      }

      .st16 {
        fill: #b87818;
      }

      .st17 {
        fill: #fddfb2;
      }

      .st18 {
        fill: #f9bd2b;
      }

      .st19 {
        fill: #efbb6d;
      }

      .st20 {
        fill: #e5a340;
      }

      .st21 {
        fill: #f6f6f6;
      }

      .st22 {
        fill: #eca740;
      }

      .st23 {
        fill: #d8c7ae;
      }

      .st24 {
        fill: #8c5b12;
      }

      .st25 {
        fill: #c0a171;
      }

      .st26 {
        fill: #e6dfd4;
      }

      .st27 {
        fill: #b27e30;
      }

      .st28 {
        fill: #ecb96c;
      }

      .st29 {
        fill: #bea786;
      }

      .st30 {
        fill: #efbc6e;
      }

      .st31 {
        fill: #030200;
      }

      .st32 {
        fill: #eaa63f;
      }

      .st33 {
        fill: #ebb565;
      }

      .st34 {
        fill: #e7e7e7;
      }

      .st35 {
        fill: #020100;
      }

      .st36 {
        fill: #040301;
      }

      .st37 {
        fill: #eba741;
      }

      .st38 {
        fill: #fff;
      }

      .st39 {
        fill: #b97918;
      }

      .st40 {
        fill: #fed596;
      }

      .st41 {
        fill: #b17d30;
      }

      .st42 {
        fill: silver;
      }

      .st43 {
        fill: #ba7918;
      }

      .st44 {
        fill: #fefefe;
      }

      .st45 {
        fill: #efba6b;
      }

      .st46 {
        fill: #f54e00;
      }

      .st47 {
        fill: #e8a540;
      }

      .st48 {
        fill: #a2a2a2;
      }

      .st49 {
        fill: #edba6d;
      }

      .st50 {
        fill: #eba740;
      }

      .st51 {
        fill: #f3f3f3;
      }

      .st52 {
        fill: #fbfbfb;
      }

      .st53 {
        fill: #fcfcfc;
      }

      .st54 {
        fill: #eca842;
      }

      .st1 {
        stroke: #1d1d1b;
        stroke-linecap: round;
        stroke-linejoin: round;
        stroke-width: 10px;
      }

      .st55 {
        fill: #eeba6d;
      }

      .st56 {
        fill: #eebb6e;
      }

      .st57 {
        fill: #f8dbaf;
      }

      .st58 {
        fill: #c0a987;
      }

      .st59 {
        fill: #dadada;
      }

      .st60 {
        fill: #ebb76a;
      }

      .st61 {
        fill: #eebb6d;
      }

      .st62 {
        fill: #b17e30;
      }

      .st63 {
        clip-path: url(#clippath);
      }

      .st64 {
        fill: #bfa886;
      }

      .st65 {
        fill: #b17e2f;
      }
    </style>
    <clipPath id="clippath">
      <rect class="st0" x="189.2" y="305.6" width="109.2" height="20.9"/>
    </clipPath>
  </defs>
  <path d="M245.1,90.8c3.4-2.6,6.8-6,10.4-8.3s5.2-2.9,5.5-2.9c.5,0,2.4.4,2.9.6,1.1.4,4.7,4,5.7,5,1.5,1.6,7.6,10.4,8.5,10.8,1.6.6,6.8-2.5,8.7-3.2,3.4-1.3,11.1-4.6,14.3-3.3s3.1,5.6,4,8,1.3,2.5,1.9,4.1c2,6-.3,7.2,7.6,6.9s11.7-2.5,15.1-1.1c5.6,2.3,4.1,14.5,5.7,19.3s7.2,2.5,10.2,2.8,7.4.5,9.9,1.1,3.3,3.1,3.3,4.7c.2,4.2-.8,10.1-1,14.4s0,4.5.1,6.7c2.5,1.4,19.4,8.4,19.8,9.9s0,2.6-.4,3.9c-.7,2.7-8.3,15.7-7.5,16.7s1.2.1,1.7.5c1.4,1,2.6,2.9,4,4,3.3,2.7,7.1,5.3,10.5,8,1.5,1.4,1.6,3.5.9,5.4s-5.7,7.6-7.1,9.4-6,5-4.4,7.4c.8.5,2.5,3.6,3.2,3.3,1.8-.7.7-6,4.4-5.4,2.9.4,3.5,4.9,4.7,6.9s5,6.8,6.7,8.3,6,2.7,4,5.9-3.2,1.2-3,2.8c3.7.2,7.6-.3,11.3,0,5.2.3,19.6,2.9,23.5,6s1.8,1.6,2,2.5c1,3.2,1.1,13.8.7,17.3s-1.8,3.6-2,5,.3,7.3.8,8.2,1.3,1.1,1.7,1.8c.8,1.6,1.3,14.1,1.1,16.5-.4,4.6-3.3,5.1-3.5,6.5s.4,8.4.6,9.4c.3,1.4,1.6,2.2,1.9,4.1.4,2.9,0,6.1,0,8.9s1.7,7.9-2.1,10.5c-8.8,6.1-25.7,8.7-36.3,8.3s-10.1-1.6-12.4-.9-4.1,5.1-5.6,6.4c-9,7.8-23.6,8.2-34.8,5.8-9.9-2.2-17.6-10.8-20.5-20.3l-5,1.8c3.8,3.3,3.3,10.8-1.7,12.8-8.2,3.3-14.6-9.5-5.8-13.3,0-.2-3.7-1-4.4-.1-1.2,1.5-2.2,6.9-3.4,8.9-3.7,5.9-9.3,1.4-13.7-.2s-2.2-.3-3.3-.7c-1.6-.6-6.5-3.3-7.7-2.8-3.3,2.7-10.3,15.6-14.3,15.8l-18-12.5-16.7,12.3c-5.7,1.7-6.6-4.8-9.3-4.8s0,5-3.9,4.9c-2.4,0-3.6-4.5-5-6.5s-5.7-7.1-8-7.1-7,2.7-9.9,2.8c-.1,3.4,0,7.3-2.1,10.2-11.6,15.9-49.1,14-64.8,5.8s-9.3-9.8-9.6-17.4,1.3-4.6,0-5.5c-6.6.6-13.6,2.1-20.3,1.8s-15.4-1.4-20.4-4.6-3.2-4.6-3.7-7.8-1.3-8.3.7-11.1,2.7-2.2,2.8-2.4c0-.5-1-5-1.1-6.4,0-2.5.7-5.6.6-7.5s-1.3-2.1-1.5-3.5c-.6-3.8.6-9.2,0-13s-1.8-2.4-2.2-3.3-.5-15.7-.2-17.7,2.7-3.5,3-5.5.1-5.2-.1-6.4c-.4-1.8-2.2-2.4-2.6-3.4s-.5-15.8-.3-17.8,1.3-2.3,1.5-3.5c.7-3.9-.2-10.3.6-13.9s7.3-6,10.2-6.8c6.7-2.1,14.7-2.5,21.7-2.5-1.3-2.2-4.6-5.7-4.5-8.2s1.2-1.8,2.3-2.8c2.3-2.3,4.9-3.9,7.5-6s4.9-4.2,7.2-6.3l-6.3-15.6c-.3-2.1,1.1-5.3,3-6.2,5.2-2.5,10.9-3.6,16-6.5s2.1-1.1,2.3-1.7c.2-5.2-4.1-17.6-1.9-21.8s1.8-2,2.8-2.2c4.5-1,10.7-.9,15.3-1.7s3.1-.9,4.7-1c1.7-6.1.5-12.9,1.7-19s2.8-3.9,5.1-3.9c5.8.2,12.2,2.2,18,2.5s2.5,0,3.7,0c1.5-4.9,2.8-10.3,4.7-15.1s1.5-4.3,3.2-4.8c4.5-1.3,17.5,6.3,22.8,6.8l12-15.3c.4-.4,1-.6,1.6-.6,3.4.2,13.9,10.5,17.3,12.7,1,.6,2-.3,2.8-1Z"/>
  <path class="st40" d="M340.3,215c3.6,29.4-13.3,63.3-36,81.2-40.7.5-81.4.2-122.1.2-8.8-6.7-16.4-15.3-22.3-24.7-7.7-12.6-13.6-29.3-14.1-44.2l-.5-9c0-.7,0-1.3,0-2,5.9-64.2,71.8-106,132.5-83.1,34.3,13,59.9,44.5,62.5,81.6Z"/>
  <path class="st14" d="M154.3,306l-3.5,6.5c-.4-2.8-.8-5.4-2.6-7.7s-1.4-.8-1.5-1.1c0-.7,1.1-2,.9-3.3-.4-4.3-7.3-9.8-11.4-6.4v-10.8c0-.5-1.7-2.4-2.3-2.7l-15.2-7.1c4.8-5.5,12.3-8.8,1-13,.5-2.6,3-8.1,2.3-10.5s-5.1-4.9-6.6-6-10.3-6-10.7-7.4c-.8-3,12.6-12.3,12.9-16.9s-4-6.1-6-8.6-4.3-6.8-6.9-9.9l17.3-15.1-7.4-18.1c4-1.5,8.8-2.7,12.7-4.6s5.8-3,6.8-3.7c2-1.5,2.2-4.6,2-7s-3.1-16.1-2.5-16.8c3.3-.6,21.1-1.1,22.5-2.7,2.6-2.8,1.3-21.8,2.4-22.6s9.7,1.2,11.2,1.4c5.8.8,11.8,4,15.3-2.9l5.6-16.2,18.8,6.9c2.9.6,3.6-.5,5.4-2.4s9.7-12.8,10.5-12.9l17.1,12.4c7.3-2.3,12.2-8.7,19-12,4.7,2.8,7.3,8.1,10.8,12.2s1,.6,1.5,1.1.7,1.6,1.1,2c3.8,3.2,19.4-5.8,24.4-6.4v2.1c2.2,2.9,3.9,14.3,6,16.1,3.6,3.1,18.6-.1,23.5-.2.2,3.5,1.5,19.3,3.7,21s20.2,1.5,21.3,3l-1.2,23.4,19.5,9.6c.9,1.4-4.2,8.3-5,10s-2.8,6.9-2.7,8.1.7,1.8,1.1,2.2c1.8,2,16,12.4,16.3,13.4s-2.4,3.7-3,4.4c-2.2,2.7-9.3,9.3-9.8,12.3s-.2,1,.2,1.9c.8,1.9,6.4,8.1,6.5,9.4,0,2.9-7.4,6.7-7.7,9.6s2.6,3.1,4.4,3.9,1.4.1,1,1-10.1,3-11.6,6.9.2,10.3-.4,14.1-1.7,2.4-1.9,4.1.3,7.9,0,8.2c-.8,0-1.7,0-2.5,0-2.8-.3-5.5-.7-8.3-1.1,6.2-20.8,11.8-42.5,9.8-63.9-2.9-69.9-71.7-120.7-139.6-105.9-56.9,12.4-92.5,61.4-91.4,118.9,1.5,27.2,11,54.4,27.8,75.4.7,1.3.5,2.6-.8,4.1Z"/>
  <path class="st22" d="M312.8,296.5c-.8-.7,5.4-6.2,6-6.9,39.7-45,34.8-112.7-12.3-150.1-35.4-28.1-86.8-29.4-123.2-2.7-50.9,37.2-58.2,109.1-14.2,155.2.9.9,3.7,2.7,4.2,3.8s-3.3.7-4.1.9c-3,.6-4.4,2.6-7.1-.1-7.9-7.7-17.5-23.7-21.6-33.9-36.2-90.4,52.3-180.4,142.9-145.4,62,24,89.6,100.4,55.9,158.4s-8.5,9.8-12.4,15.1-3.6,7-5,7.5-7.1-2.7-9-1.7Z"/>
  <path class="st44" d="M172.8,301.5c46.2.5,93,.4,138.7,0,2.4-.3,4.2.2,5.5,1.3-2.1,9.2-3.8,18-3.3,27.4l-2.3.5c-30.1.5-62.1.9-91.4.8-.5-1.2-1.1-2.2-1.8-2.8-.9-1.6-1.1-4.4-3.7-4s-3.5,4-4.3,5.5l-.7.9c-5.3.2-10.5.3-15.8.1-6.4-6.4-13-11.8-22.6-12.7l-15.2-1.4c-.5-.6-.5-1.4-.2-2.4,1.5-6.4,7.4-12.3,14-13.3s1.9.3,3,.3Z"/>
  <path class="st25" d="M145.3,216.5c1.3-37.1,24.1-70.4,57.9-85.4,47.4-20.9,102.5-1.5,126.3,43.9,6.3,12,10.4,26.3,10.8,39.9-8.6-70.3-85.1-109.4-146.8-73.1-20.9,12.3-37.8,34-44.1,57.4s-2.2,11.6-4,17.2Z"/>
  <path class="st42" d="M172.8,301.5c.5-.8,1.9-.5,2.7-.5,43.6.4,88.5.1,132,0,5,0,8.6,0,13.2,2-.2,4.3-2.1,7.9-2.4,12.2-.5,6.3.6,10,1.4,15.6s.1,3.6.1,3.8c0,.5-1,.6-1.4.7-11.7,2-28.2-1.4-40.4.2-16.8-.9-34-.5-51-.5-1.6,0-4.7,1-6-.5s-2.2-4.9-2.7-6c1.6-.4,1.1,1.7,1.6,1.9s7.2,0,8.7,0c13.2,0,26.8-.4,40-.5,14.9,0,29.9.5,44.8-.5-1.7-9.3,1.2-18.5,3-27.5-3.8-.5-7.5,0-11.2,0-44.1,0-88.3,1.2-132.3-.5Z"/>
  <path class="st32" d="M133.3,349c.4-1,.7-2,1-3l1.1-.7c10.6,3.2,38,5.9,45.1-4s-5-9.1-8.6-10.1c-12.3-3.3-25.9-4.4-38.2-.7l-1.3-.5c-1.1-.9-.4-1.8,2-2.8l.5-.7c13.4-4.2,32.9-3,45.3,4.4,7.8,4.7,9.7,12.9.6,17.3-14.4,7-32.9,6.5-47.5.8Z"/>
  <path class="st65" d="M358.8,284.5c9.4-2.2,17,5,21.1,12.7,8.2,15.3,6.5,40-5.9,52.8-4,4.1-13,7.8-18.2,4.5,0-.5.1-.8.5-1,3.2-.6,8-1.8,9.5-4.5v-1.1c16.9-11,18.3-41.9,4.3-55.9l-.3-1.5c-1.2-2.5-6.5-4.8-10-5l-1-1Z"/>
  <path class="st32" d="M358.8,284.5c4.1,0,7.7,1.4,10.5,4.2s1.7,1.3.5,1.8l-1.2.4c-32.8-12.7-37.2,63.5-4,57.5l1.2.6c1.4-.2,1.2.3.5,1.3-1.5,2-8,4.3-10.5,4.2-5.1,0-11.7-8.8-13.7-13.1-6.3-13.3-5.9-29,.1-42.3,2.9-6.5,8.7-14.5,16.6-14.7Z"/>
  <path class="st42" d="M155.8,314.5c0,1.7-.3,1.4,1.2,1.5,12,.9,22.1.7,32,9s4.3,4.8,4.6,4.9c3.4,1.2,12.6-.7,16.7,0-.9,1.7-1,4-2.9,5.5l-16.3-.2c-1.2-.3-2.1-3.2-3.1-4.3-4.1-4.8-15.4-9.3-21.6-10.4s-9.3-.4-10.3-1.2c-1.7-1.2-.6-3.6-.3-5Z"/>
  <path class="st27" d="M80.8,310c15.7,4,32.8,4.7,48.6.9s4.3-2.3,6.9-2.4l-.5,10.5c-4.6.6-8.8,3.3-13.5,3,0-.9.9-1.5,2.4-1.8.1-.2,0-3.6-1.1-2.9-9.2.9-18.5,1.5-27.6.7-4.8-.5-11.3-1.2-14.7-4.4-1.4-.3-1.3-2.5-.5-3.5Z"/>
  <path class="st22" d="M402.8,259.5c-.6-2.9-3.2-4.1-7.8-3.5l-5.8.3-.9-.8c.5-2,1-3.3,2-5,3.7,2,11.8-2.1,1.7-1.1l-.7-.9c.5-.8,1.9-.5,2.7-.5,6.3,0,14.2.2,20.4,1.1s13.9,2.8,13.3,5.2c-7.6,4.9-16.3,4.9-25,5.3Z"/>
  <path class="st27" d="M77.8,276c10.2,2.9,20.2,3,30.7,3.6,4.6,7.1,6.3-.4,7.2-.6,3.5-.9,5.8,2.1,8.6,3.4s4.4,1.6,6.5,2.5,1.5-.1,1.1.9c-.9,2.4-16,5.2-19,4.8,0-1.7,4.4-2.5,4.5-.5-1.7-.4-1.5-6.3,0-7-.3.3-.6.5-1,.8s-.7.4-1,.4c-12.4,1.2-22.9,1.1-35.1-1.3-.8-.2-1.4-.7-1.9-1.4-1.4-.4-1.3-4.6-.5-5.5Z"/>
  <path class="st30" d="M324.8,306c2.5-8.7,7.1-18.4,16.1-21.7s6.9-1.7,9.9-1.8l-7.5,6.7c-3.9,4.6-7.8,12.9-9,18.8-1,6.8-11.5,4.8-9.5-2Z"/>
  <path class="st62" d="M414.8,323.5c-.3-.8.1-1.3,1.5-1.7v-4.2c-6.5,1.6-12.9,2.4-19.3,2.4.7,1.5.4,2.9-.4,4.2l.8,1.2c.8-1.2,4.4-1.4,5,0-3.7,2.1-8.9.1-13,0,1.3-3.9.3-7.5.5-11.5,12.3.4,25,.5,36.5-4.5v8.8c0,.6-4.5,2.5-5.1,3.4l-6.4,1.9Z"/>
  <path class="st15" d="M92.3,295.5c13.2,1.3,26.2.4,39-3-1.4,3.4,1.4,12.3-2.9,13.4-10.5,2.7-21.1,2.9-31.9,2.1-2.9-.2-6.4-.7-9.3-1.5,2.6-.5,5-.3,7,.5l1.4-.9c2.5,1.1,23.3,1.1,23.8-.4s-.8-4.6-1-4.7c-7.7.9-15.4.9-23.1,0l-.6-1.1c-.9-.6-1.2-1.6-1-2.9-1-.3-1.6-.5-1.5-1.6Z"/>
  <path class="st50" d="M334.3,308c-1.7,7.9-1.9,18.6,0,26.5,1.1,2.7-2.3,2.2-4.3,1.8-4.3-.8-5.1-2.9-6.2-6.8-1.4-7.8-1.2-15.9,1-23.5-.8,5.6,7.8,7.2,9.5,2Z"/>
  <path class="st58" d="M227.3,355.5c-.4.3-.3,1.4-1.5.8s-3.4-4.2-3.4-4.6c-.4-2.7,9.9-5.6,6.9-9.9s-2.5-.6-3-1.8h49c-1.7,1.7-3.5,3.6-5,5.5-6.7-.7-13.4-.7-20.3.1-.4,0-1.4-.6-1.6-.9s2.1.3.9,1.3c-4-1.8-4.2-3.9-8.5-1-1.6.2-3.2.3-5,0-.7,1.7-1.6,3.2-3.4,3.9-2.5.6-8.6,4.2-5.2,6.6Z"/>
  <path class="st43" d="M407.3,264.5l9.7-1.2c.7,1.2,1.1,2.7,1.1,4.6.9,2.2.9,4.1.3,5.6-3.5,1.1-15.6,3.4-18.7,2.5s-.5-1.4-1-2.1-3-2.3-3.3-2.5c.9-2.3,1.2-4.8.5-7,3.8,0,7.7.1,11.5,0Z"/>
  <path class="st39" d="M172.3,356.5c1.6-.3,1.6,7.4,1.4,7.7l-1.9,1.3c-7.8,2.1-13.9,2.3-22,2-.4-.1-.4-.3,0-.5l-1.1-.7v-7.1c-1.6-.2-2.4-.8-2.4-1.7,5.2.1,10.5.9,15.8.5s7.9-1,10.2-1.5Z"/>
  <path class="st58" d="M154.3,306c1.1-2.2-.2-4-1.5-5.8-3.4-4.8-6.7-8.3-9.6-13.9-10-19.3-15.5-38.1-15.9-59.9l2.3,17.4c4.7,21.4,14.8,40.4,29.6,56.4l-5,5.7Z"/>
  <path class="st12" d="M109.8,216.5c.8,1,.2,1.4-.9,1.5.3-.8-20,.3-17.4.9l17.9,2.5.4,1.1c-1.1,1.1-.3,2.1-3.3,2.5s-9.1-.2-11.4-.5c-3.5-.3-11.1-1.9-14.4-3.1s-3.9-1.6-3.9-2.1c1.1-2,3.4-2.8,5.5-3.5,7.5-2.5,16.3-2.2,24.2-2.8,1,.2,2.4,2.5,3.2,3.5Z"/>
  <path class="st50" d="M395.8,264.5c.5.6,1.6.1,1.5,1.2s-.4,3.1-.5,4.5.3,1.3-1.5,1.2c-3-1.4-6.5-1-9,1.2s-1.5,2.2-2,2.5c-1.8,1.1-10.1-1.5-12.5-2.2,1.7-2.7,2.2-6,1.4-9.9l1.1-.6c7,1.6,14.3,1.9,21.5,2Z"/>
  <path class="st24" d="M85.3,327c8.6,1.6,20,2,28.8,1.5s4.5-1.2,6.7-.8c-1.9,1.7-4.5,5-5,7.5s.2,2.1,0,2.9-10.7,2.2-12.3,2.3c-6.4.4-14.2.2-20.3-1.5.1-1,1.3-1.1,1.5,0l1.1-.8c2.5,1,20.6,1.3,21.9,0s.9-4.1.8-4.2c-7.5.1-14.9-.4-22.2-1.7l-1.1-1.3c-1-1.3-1-2.7,0-4Z"/>
  <path class="st50" d="M81.3,313.5c5,1.9,10.4,3.1,15.8,3.5,9.2.7,19.6,0,28.7-1-1.1,4.7,2,4.6-3.5,6s-15.5,1.6-22.8,1.5-2.2.3-2.7-.5l.2-.7c2.6-.2,5.4-.3,8.2-.3,1-.6-20.8-2.7-23.3-2.7-1.8-.2-2.5-5.5-.6-5.9Z"/>
  <path class="st22" d="M146.3,357.5c.7.2,2.9.6,3,.7,1,.7.2,7.1.5,8.8-6.7-.3-14-1.2-20-4.5-1.6-.5-2-.8-2.5-2.3s0-6.3.5-7.7c5.9,3.1,12.3,3.5,18.5,5Z"/>
  <path class="st15" d="M401.3,298l16-2.7,11.5-5.3c.5.5.8,10.5.3,11.5s-7.8,4-9.3,4.5c-1.6-.6-2.4-2.3-2.4-5-4,.2-8.1.7-12.3,1.4l-.9-.9-1-1.2c.3-.8-.4-1.6-2-2.3Z"/>
  <path class="st27" d="M78.3,243c4,1.2,11.1,2.5,15.3,3s13.7-.3,16.9.6,6.7,5.2,6.8,5.7-1.4,4.6-1.9,4.2c-1-3-3.9-10-7.2-5s-.7,2-1.3,3c-.7,0-.8-.4-.5-1-2,2.1-3.1-1.8-1-2.5,0,.4-.2,1-.5,1-1.6.1-13.4.2-14.1,0s-.6-.6-.7-1c-.2.4-.4.9-.7.8-.5,0-8.9-2.4-9.4-2.6-1.1-.2-1.5-.7-1.7-1.8-1.3-1.5-1.2-3,0-4.5Z"/>
  <path class="st22" d="M78.3,281.5c12.8,3.6,25.9,2.6,39,1.5v7c-1.7-.4-3.2.3-4.5.5-8.7,1.3-27.9.3-35.5-4,1-1.1,4.9-.5,6.5-.2,3.5,1.8,7.5,2.2,11.6,2.3s5.2-.2,3.9-1.1l-20.5-2.9c-1.6-.4-2.1-2.5-.4-3.1Z"/>
  <path class="st27" d="M397.8,285c.8-.9,1.4-3.1,2.3-3.4,1.9-.7,5.8-.3,7.9-.6,4.1-.6,9.6-1.4,13.4-2.6s3.1-2,4.9-1.9v8.8c0,.9-9,4.7-10.4,5.1s-1.6,0-2.1.1l-1-.5-.4-4.6c-4.6.4-9.3.5-13.9.3l-.7-.7Z"/>
  <path class="st61" d="M388.3,255.5c2.1-.8,10.9-.7,13.1.1s2.5,2.4,1.4,3.9c-10.2.4-19.5.4-29.5-2.2-.8-.2-6.2-2-6.4-2.3s-.2-1.3,0-1.6c.4-1.1,10.7-5.1,12.5-3.6,2.4,2.5,2.8,8.1,7.1,7.1s1.7-1.3,1.9-1.4Z"/>
  <path class="st62" d="M323.8,329.5c1.6,4.3,4.1,6.1,8.8,6,1,0,2,.5,1.7-1,.4,1.9,2.3,6.8,3.1,8.6,2,4.4,5.6,8.5,8.9,12.1-2.4.9-5.4-.8-7.6-1.9-8.5-4.4-13.3-14.8-14.9-23.9Z"/>
  <path class="st15" d="M418.8,340.5l-.8-.9c.5-1.1-.1-6.9-.6-7-1.4.4-8.8,2.5-8.8.6s0-.5.1-.8c-1.1-.5-1.9-1.1-2.5-2,3.6-.9,7.5-1.1,11.1-2.1s6.6-3.2,8.8-3.7,2.8.2,2.9,2.2-.4,8.3-.6,8.7-2.6,2.1-3.1,2.4c-1.4.7-5.1,2.2-6.6,2.6Z"/>
  <path class="st65" d="M406.3,330.5h2.5c0,.7,0,1.4,0,2,1.1.9.8,1.3-.5,1.5l-.4,1-13.4,1.1c-.3.3-2.4,6.1-.7,6.3l1.3-.8c4.1.4,8.1.2,12.1-.6-.1-1,.2-1.5,1-1.6,1.7-.4,2.3,2.5.5,3-6.5,1-9.8.9-16.3.5s-6.9.5-7.2-.8l3.4-11,17.5-.7Z"/>
  <path class="st17" d="M249.3,346c-.2-.2-1.1-1.4-1-1.5,2.7.4,5.7-.4,8.3-.4s7.4-.1,11-.1,3.2.2,2.8,1.5c-1.1,1.4-6.6,9.8-7.3,9.9-1.2-.6-2.5-1-3.7-1.7-1.9-1.2-8.6-6.2-10-7.7Z"/>
  <path class="st53" d="M385.3,248c-.5.4-.9-.2-1.2-.5-2.7-2.7-4.7-6-8.3-7.7,3-3.5,5-7.3,7.3-11.2,2,4,4.9,7.4,7.8,10.8.2,1.6-1.3,1.6-2,2.6s-3.1,5.8-3.6,6.2Z"/>
  <path class="st64" d="M358.3,213.5c.8.5.5,1.9.5,2.7.1,11.6,0,20.8-2,32.1s-4.3,19.5-7.6,28.9c2.4,1.7,5.3-.9,7.5,1.3-2.8.1-5.4-.5-7.7-.5s-4.3,1.5-6.3.7l4.3-7.2c8.7-18.6,12.1-37.4,11.2-58Z"/>
  <path class="st65" d="M389.8,292.5c-1.8-.1-5.6.4-7-.2s-6.2-7.1-8-8.5-2.7-1.8-3.3-2.2c-1.3-.6-7.4-2.1-7.6-2.9s.2-2.3,1.2-2.2,2.8,1.4,4.3,1.8c4.5,1.2,9.3,1.6,13.9,2.6l4.1,5.7c.2,1.2.9,2.3,2.1,3.5-.5.7-.3,1.3.6,2l-.3.5Z"/>
  <path class="st53" d="M215.3,334.5c1.2,3.9,4.2,6.6,6.5,9.7l-5.5,5-1.7,3.3c-2.3-3.2-4.8-6.2-7.7-8.7,3.1-2.2,5-6.4,7.4-8.9s.3-.5,1-.3Z"/>
  <path class="st24" d="M172.3,356.5c2.5-.6,8.4-3.2,10.8-4.4s2-1.3,2.9-2.1c1.6,0,.4,6.4-.3,7.7-2,3.5-10.1,6.8-13.9,7.8l1-1.7-.5-7.3Z"/>
  <path class="st39" d="M85.8,227.5c5.6,1.2,11.3,2.2,17,2-1.1,2.4-3.9,3.9-4,6.8s2.9,2.6,3,4.7c-5,.2-10.2-.4-15-1.5.2-.9.9-1.3,2.3-1,.3-.3.9-8.1.6-8.5-2.2-.4-3.5-1.2-3.9-2.5Z"/>
  <path class="st4" d="M77.8,276c.8,1.6.5,3.7.5,5.5s0,1.3,0,2l21.2,3.1c1.5.4.5,2.5-.5,2.8-2.2.8-10.6-.4-13.3-1s-.4-.9-.7-1c-2-.5-5.4-.3-7.7-1-1-.5-2.5-1-2.9-2.4s-.2-9.1.4-9.6c.9.2,2.2,1.3,3,1.5Z"/>
  <path class="st27" d="M401.3,298c1,0,2,0,3,0,0,1.2,0,2.3,0,3.5.4,0,.4.3,0,.5,0,.9-.4,1.3-.9,1.4l-8.6.5c0,1.3-.4,2-1.5,2.1.3.7.2,1.5-.5,2.5-1.1,0-3.6.4-4.3-.5-.9-1.2-1.4-8.6-3.2-10.5,5.3.5,10.7.3,16,.5Z"/>
  <path class="st2" d="M81.3,260l1.3.8c4.2.2,6,1.7,5.6,4.4l8.5.8.6,1c.8,1.1,1.9,2.4,3,3.2s5.5,2.4,4.5,3.3c-5.5,0-11.2-.1-16.5-1.2s-2.2-1-3-1.3c.7-1.3.7-2.8.6-4.3-4.5.2-8.3-2.7-5.1-6.7.2,0,.3,0,.5,0Z"/>
  <path class="st49" d="M134.8,326.5c1.5,1.1-2.2,2-2.5,3.5.1.4.1,1-.2,1.2-5.7,3.9-9.4,6.5-1.5,12,2,.7,3.3,1.7,3.7,2.9.7,1.7,1.2,3.5-1,3-.5-.2-1.5-.1-2.3-.5-3.3-1.5-10.6-6.3-10.6-10.3,0-7.1,8.8-10,14.4-11.8Z"/>
  <path class="st15" d="M407.3,264.5c3.5-1.3,7.6-1,11.1-1.6s6.5-2.1,9.9-2.9v8.2c0,1.3-8.5,4.8-10,5.2-.8-3.3-1.8-6.6-1.5-10-3.3.7-6.2.9-9.5,1Z"/>
  <path class="st3" d="M397.8,285c5.2.4,10.3-.6,15.5-1l.5,6.5c-2.1.5-4.2,1.4-6.5,1.5v-1.1c2.6-1.6-.9-1.3-2.2-.9-3.2-.5-21.9-.4-10.7,1.5h5.8s.6,1,.6,1c-3.4,1.3-7.6.2-11,0-.3-1.5-4.7-5.5-4-6.5.5.2,1,.4,1.5.5,3.6.9,7.6,1.6,10.5-1.5Z"/>
  <path class="st50" d="M78.3,247.5c2.1,1.2,4.4,1.2,6.5,1.7s4.9,1.8,5.2,1.8h15.2c.1,0-.2,2.1,0,2.5s.8,0,.9,0c0,1.6-1.5,3.9-3,4.5l-10.5-1,.5-1c1.9.3,8.2-.4,2.9-1.1-2.5.8-18-2.2-18.5-3-.8-1.2-.5-3.6.6-4.5Z"/>
  <path class="st60" d="M80.8,310c.7,1.1.5,2.3.5,3.5s-.5,4.5.8,4.9c7.7.4,15.5,1.3,23.2,2.3.7.5,2.2,1.8.7,2.2s-7.2.2-9.2,0c-3.7-.2-11.3-.6-14.5-1.8-6.6-2.3-2.9-6.9-4.5-12.2,1.2-.3,2.1.8,3,1Z"/>
  <path class="st55" d="M78.3,243c0,1.5,0,3,0,4.5s0,2.7,0,4c4.1,0,8.3,2,12.3,2.4s8.3-.7,8.7,1.4-5.1,1.7-6.5,1.7c-3.7,0-15.4-1.8-17.5-4.7s-1.3-10.1-.5-10.8c1.3,0,2.3,1.1,3.5,1.5Z"/>
  <path class="st16" d="M404.3,301.5l14-2c.2,2.2.5,4.5,1.5,6.5-5.2,1.6-10.2,2.1-15.5,2.5-1.3-1.9-1.5-4.6,0-6.5,0-.2,0-.3,0-.5Z"/>
  <path class="st43" d="M408.8,332.5c1.5,1.8,9.5-1.6,10-1-.3,2.9,1.1,6.2,0,9-2.8.8-7.1,1.6-10,2,.2-1.3,0-1.9-.5-3-1.3.2-1.4,0-.5-1-1.2-.7-1-4.3.5-4.5,0-.8.5-1.3.5-1.5Z"/>
  <path class="st54" d="M109.8,222.5l-23-3.2c2.4,0,4.6-1.9,6.8-2.2,3.8-.5,9.4,0,13.5,0s2.2.3,2.7-.5c1,1.1,1.9,2.2,3,3.3,0,.4-2.5,2.3-3,2.7Z"/>
  <path class="st49" d="M374.3,262.5c-.6,3,1.8,10.2-2.5,10.5-.6-.2-1.4,0-2.3-.4s-3.7-2.5-3.7-2.9v-8.5c0-.4.4-1.3,1.2-1.2,1.5,0,5.2,2,7.3,2.5Z"/>
  <path class="st50" d="M397.3,325.5c-.4,0-1,0-1.5,0-.2-1.3.4-2.5.5-3.8s-1.1-2.1.3-2.7c7,.8,13.8-1.9,20.7-2.5-.2,1.4.6,5.5-.5,6.3s-1.4.5-2,.7-.3,0-.5,0c-1.5-1.1-2.1-1.5-4.1-1.4-3.6.2-10.3,1.1-12.9,3.4Z"/>
  <path class="st50" d="M85.8,227.5l5,1.8-.5,10.2h-3.5c-2.5-.6-5.3-1.3-7.5-2.5l.3-1.2c5.1,1.2,9.7.5,1.4-1.6-2.1-1-1.8-6.6-.3-7.7,1.7.5,3.3.6,5,1Z"/>
  <path class="st52" d="M107.3,262.5l3.5-4c1.7,2.8,4.8,5.4,7.5,7.3l-6.3,7.7c-.4,0-3.6-4.7-4.3-5.5l-2.7-1.8,2.2-3.7Z"/>
  <path class="st56" d="M129.3,362.5c-1.7-.4-2.6-.3-4.3-1.5s-4.7-5.3-4.7-6.3v-7.2l7.5,5c1.6,3.1-1.1,7.8,2,10-.2.2-.3.2-.5,0Z"/>
  <path class="st55" d="M77.8,302.5c-1.2-.6-1-9.3-.8-9.7.6-.8,7.3,1.1,3.8,2.7,0,3.2,1.3,5.3,4.8,5.7,9-.1,11.9,7,1.2,4.8-3.2-.3-6.5-1.4-9-3.5Z"/>
  <path class="st29" d="M291.3,345.5c-2.3-.8-4.3-2-7-2.3l-7-3.2,22,.5c.2.2-1.4,6.1-2,6.5-1.1-1-6.1-2.6-6-1.5Z"/>
  <path class="st28" d="M80.8,226.5c.3,1.3-.4,5.7,0,6.4s5.7.3,5.5,3.3-5.5-.5-7,.8c-1-.5-3.1-1.7-3.4-2.9s.5-1.9.4-2.9c0-2.1-.8-3.9,0-6.3.6-.6,3.8,1.3,4.5,1.5Z"/>
  <path class="st41" d="M92.3,295.5c.6.2,1.4.9,2.5.5,0,1.3,0,2.7,0,4,.4,0,.4.3,0,.5l-.8.8-12.3-2.1c-.7-.9-1-2.1-.9-3.6-.1-.5.2-1.6,0-1.9s-3.3-.7-3.4-.6c.5,3.2-1,6.7.5,9.5-2.5-2.2-1.1-1.8-1-4.3s0-3.8,0-5.7c2.8-.5,4.9,1.3,7.4,1.9s5.4.5,8.1,1.1Z"/>
  <path class="st19" d="M400.8,292.5c-2.7,0-7.8.4-10.1-.6s-.9-2.6,1.4-2.9c4-.5,8.9,0,13,0s3-1.2,4,.5-.6,2.1-1.8,2.5c-2.2.8-4.2.4-6.5.5Z"/>
  <path class="st33" d="M80.8,260c.2,3-1.1,4.6,2.4,5.4s4.1-.7,3.6,4.4.3,1.3-1.5,1.2c-1.3-.4-2.8-.2-4.3-.9-5.6-2.4-2.9-5.8-3.7-10.6.2-.2,2.9.4,3.5.5Z"/>
  <path class="st55" d="M78.3,325c1.3.6,1.5,2.1,0,2.5l1.2,5c5.4-.5,8.4,6.5,2.2,5.7l-4.4-1.2c-.7-.4-1.5-.1-1.9-1.3s-.8-9.5-.6-10.4c.5-2.8,2.6-.5,3.5-.3Z"/>
  <path class="st57" d="M240.8,345c-4.6,3.1-9,7.2-13.5,10.5-4.8.1-.5-4.8,1.2-6s3.6-1,5-2.5,1.2-2.4,1.7-2.8c1.1-.7,4.3,0,5.5.8Z"/>
  <path class="st50" d="M80.8,295.5c0,.5.5,2.4.5,2.5.4.5,11.8,1.7,13.5,2.5,1.5.9.7,5.5-.5,6.5-2.3-.2-4.7-.3-7-.5s-.5-.3-.5-.5c1.7.2,7.1.7,5.8-2s-5.5-1.4-7.2-1.8c-4.7-1.2-4.9-1.5-4.6-6.7Z"/>
  <path class="st21" d="M140.8,309c1,.2,3.8-.3,4.4,0s1.5,10,1.1,10.4l-5.5.5v-11Z"/>
  <path class="st13" d="M97.3,267c-1.4,0-9.6-.7-10-1s.6-3-.7-4-4.4.3-5.3-2c2.2.4,5.2,1.6,7.3,2s7.7,0,9.4.6.6.4.8.7c-1.3,1-1.7,2.1-1.5,3.7Z"/>
  <path class="st5" d="M397.3,325.5c-.9-1,.6-2.1,1.4-2.4,1.3-.5,11-2.1,12.4-2.1s3.8.7,3.2,2.5c-3.6,1.3-8.1,1.7-12,2s-3.2.4-5,0Z"/>
  <path class="st51" d="M393.2,275.1c.1,0,1.7,1.9,1.8,2,2.3,5.3-6.5,8.1-7.1,1.5s3.5-4.5,5.3-3.5Z"/>
  <path class="st47" d="M404.3,308.5c-2.9.2-6.6,1.3-9.5,0l.6-1c11.8,0,5-2-1.3-.6l-.7-1c.5-1.1.4-2.9.5-3,.4-.4,9.1,0,10.5-1,0,2.2,0,4.3,0,6.5Z"/>
  <path class="st20" d="M78.3,327.5c1.2-.6,1.4,0,1.5,1.2l5.1,1.2.4,1.1c1.7,1.4,1.6,6.9-.5,8-.5,0-1,0-1.5,0-2.1-.4-4.1-1-6-2,2.6-.5,6.5,2.7,7.5-.8,0-1.6-5-3-6.5-2.7,0-2,0-4,0-6Z"/>
  <path class="st7" d="M201.8,340c-2.1,2.7-6.2,4.8-9.7,5s-.6,0-.8-.7-.2-4.3.8-4.3h9.8Z"/>
  <path class="st19" d="M394.8,308.5c-.7,0-1.3,0-2,0-1.4-1.6.4-2.2.5-2.5,1.6,0,9.2-1.4,9.5.3.6,3.1-6.1,2.3-8,2.2Z"/>
  <path class="st9" d="M85.3,327c0,1.3,0,2.7,0,4-1.3-.3-5.5-1.1-6.2-1.5s0-1.7-.8-2v-2.5c2.4.8,4.6,1.5,7,2Z"/>
  <path class="st19" d="M391.3,248.5c.5-.2,5.9-.1,6.7,0,.9,2.6-2.6,3.3-4.5,3.5s-3.9.7-3.2-1.5c.2-.4.6-1.8,1-2Z"/>
  <path class="st23" d="M149.8,367v.5c-5.1-.2-9.7-.8-14.6-2.1s-4.7-1.2-5.9-2.9c.2,0,.3,0,.5,0,3.2.9,6.7,2.1,9.9,2.9,3.4.8,6.9.7,10.1,1.6Z"/>
  <path class="st34" d="M141.7,302.9c-2.9,3-6.5-2.9-2.9-4.6s4.6,2.9,2.9,4.6Z"/>
  <path class="st59" d="M314.2,348.9c-1.5.4-2.9.8-3.9-.8-2.3-3.5,5.4-6.3,3.9.8Z"/>
  <path class="st10" d="M291.3,345.5c-.9-1.2-.5-1.1.8-1s2.9.4,4.5.5.5,1.2.7,2c-1.4.9-4.4-.9-6-1.5Z"/>
  <path class="st48" d="M107.8,268l-3.5-1.5c-.4-.6,2.4-3.4,3-4,.3,1.1-1.5,3.6-1.5,3.8s1.5,1.1,2,1.7Z"/>
  <path class="st26" d="M106.8,254.5c-.8,1.5-1.3,3.8-3.5,3.5l3-4.5c.4.3.6.4.5,1Z"/>
  <path class="st25" d="M145.8,227.5c-.9-2.6-.5-6.2-.5-9,1,2.7.4,6.1.5,9Z"/>
  <path class="st6" d="M134.3,346c-4.2-1.4-10-5-8.9-10.1s4.6-4.9,6.9-5.9c9.8-4.3,31.3-3,41.4.9s11.9,6.9,6.6,12.4c-8.4,8.6-35.3,6.5-46,2.8Z"/>
  <path class="st6" d="M369.8,290.5c14.5,11,13.8,43.4.5,55.3-.6.5-4.1,3.1-4.5,3.2-6.3,2.5-13.4,0-17.7-5-11-12.9-9.6-42.6,4.5-53s12.6-4,17.2-.5Z"/>
  <path class="st43" d="M94.8,300l8.8.9,15.9-.9,1.3,7c-2.9-.5-5.6.8-8.3,1-5.5.4-12.6-.5-18.2-1-.3-2.2.4-4.3.5-6.5s0-.3,0-.5Z"/>
  <path class="st43" d="M85.3,331c2.4.6,4.8,1.2,7.3,1.5,5,.6,11.4-.2,16,.5s1,.2,1.1.7-.8,4.9-1,5.2c-.9,1.2-13.9,1.2-16.2,1.1s-5.3-.6-7.7-1c.7-2.6.5-5.3.5-8Z"/>
  <path class="st37" d="M408.3,334c-.2,1.4,0,3-.5,4.5l-.7.7c-4.5-.9-10.3-.7-13.3,3.3-.8-.2-2.3.6-2-.8l2-6.5,14.5-1.2Z"/>
  <path class="st45" d="M407.8,338.5c.1,0,.4.8.5,1-.1.6.3,2.4-.3,2.5-4.9.6-9.4,1.5-14.2.5-1-4.9,11.9-5.5,14-4Z"/>
  <path class="st16" d="M160.8,333c2.7,0,14.2,2.8,15.3,5s.4,1.5-.3,2.3-7,3.1-7.8,3.2c-6.2,1-13.1.5-19.2,0l-4.4-2.2v-1.3c0,0,.2-1.1.2-1.1l6.2-2.4,1,.6c.8-1.1.9-2.3.3-3.5,0-.4,7.8-.8,8.7-.5Z"/>
  <path class="st13" d="M160.8,333c-2.9,0-3.1.5-5.3,1s-2.6-.1-2.7,0c-.2.3.7,1.6-1,3l-.8-.8c1.7-6.1-18,4.8-7.5,3l.7.8c1.5,1.5,3.9,1,4.5,3.5-5.1-.4-11.1-1.1-15.9-3.4s-3.5-2.5-1.4-4.1c5.6-4.4,19.5-3.6,26.5-3.5.8,0,2.2-.3,2.7.5Z"/>
  <path class="st43" d="M362.8,344c-1.2.2-3.1.3-4.1-.5s-5.6-8.9-2.4-8c3.2-.8,8.4-7.1,9.7-10.1s-.5-3.2-1.8-2.1c-2,1.7-5.6,8.1-6.8,10.6l-1.1.7c-.2.2-.4.3-.6.4-1.6.5-3.5-9.3-1.8-9.5,1.7.8,3.7-.8,4.4-2.4v-1.6c0,0,5.6-7.7,5.6-7.7,1.8-1.6,7.9-9.4,1.8-7l-9.3,12.4h-1.2c-2.4-.1-1.2-7.7-.4-8.7,1.5-1.1,2.9-2.3,3.9-3.9l-.2-1.2c2.1-2.1,4-4.2,3.7-7.3l-1.1-.2c-3.5,1.3-1.4-4.8.6-5.3,8.6.4,13.1,13.5,13.5,20.7.6,9-.6,19.5-6.5,26.5-1.9,2.2-3.2,3.6-6,4.2Z"/>
  <path class="st11" d="M361.8,292.5c.1,1.1-2.2,4.3-1.5,5s1.1-.1,2,.5c-3.5,2.7-6.1,5.7-8.2,9.7-1.6,3.2,2.6-.4,3.5-1.5l1.1.3c-.4,2-2.3,2.4-3,4.3s-1.4,6.5-.5,8.2l.5,1.1c-2,2.8-2,6.3,1.4,2.6l1.1.3c.2,2.4-4,3-4,3.3-.3,1.4.5,7.3,2,8.2,1.3.2,1.2.5,0,1,0,0-.4.3-.4.7s3.5,6.8,3.8,7.1c1,.9,1.8.8,3,.7-7.7,1.8-11.7-3.2-14.4-9.9-4.8-11.9-3.3-28.7,5.4-38.4s5.1-3.4,8-3.2Z"/>
  <path class="st35" d="M161.7,335.1c4.9-1,5.6,2.3,2.1,4.6s-8.8,3.1-10.1,2.7c-5.5-1.6,6.1-6.9,8-7.3Z"/>
  <path class="st35" d="M151.8,337c-.6.5-6.4,2.7-7.5,3-1.6.5-5.5,1.1-4.9-1.7s15.5-9.5,12.4-1.3Z"/>
  <path class="st35" d="M355.3,319l9.7-13c1.3-1.2,2.7-1.2,4.2-.4.9,3.9-2.7,6.3-4.6,9s-3.9,5.9-6.3,8.5-3.2,3.5-4.5,1.8.6-4.3,1.5-5.8Z"/>
  <path class="st31" d="M356.3,335.5c0-.3,0-.7,0-1,.2-1,.2-2.1.8-3l6.4-9.1c3-1.5,4.7.7,3.2,3.7s-7,9.3-7.9,9.6-2.1.6-2.5-.3Z"/>
  <path class="st36" d="M362.3,298c3,2-1.7,6.7-3.5,8.5s-3.6,3.4-4.3,3.5c-4.7.5,1.6-7.5,2.8-8.8s2.9-3.6,5-3.2Z"/>
  <g class="st63">
    <g>
      <path class="st8" d="M196.8,317.6c-.3.5-1,.5-1.2,0l-.6-1.2c0-.2,0-.4,0-.6l.6-1.2c.3-.5,1-.5,1.2,0l.6,1.2c0,.2,0,.4,0,.6l-.6,1.2Z"/>
      <path class="st8" d="M196.8,324.5c-.3.5-1,.5-1.2,0l-.6-1.2c0-.2,0-.4,0-.6l.6-1.2c.3-.5,1-.5,1.2,0l.6,1.2c0,.2,0,.4,0,.6l-.6,1.2Z"/>
      <path class="st18" d="M189.2,321.9c0-.6.7-.9,1.2-.5l3.2,3.2c.4.4.1,1.2-.5,1.2h-3.2c-.4,0-.7-.3-.7-.7v-3.2ZM189.2,318.5c0,.2,0,.4.2.5l6.5,6.5c.1.1.3.2.5.2h3.6c.6,0,.9-.7.5-1.2l-10.1-10.1c-.4-.4-1.2-.1-1.2.5v3.6ZM189.2,311.6c0,.2,0,.4.2.5l13.5,13.5c.1.1.3.2.5.2h3.6c.6,0,.9-.7.5-1.2l-17.1-17.1c-.4-.4-1.2-.1-1.2.5v3.6ZM196.1,311.6c0,.2,0,.4.2.5l12.5,12.5c.4.4,1.2.1,1.2-.5v-3.6c0-.2,0-.4-.2-.5l-12.5-12.5c-.4-.4-1.2-.1-1.2.5v3.6ZM204.3,307.5c-.4-.4-1.2-.1-1.2.5v3.6c0,.2,0,.4.2.5l5.6,5.6c.4.4,1.2.1,1.2-.5v-3.6c0-.2,0-.4-.2-.5l-5.6-5.6Z"/>
      <path d="M218.8,322l-6.5-6.5c-.4-.4-1.2-.1-1.2.5v9.2c0,.4.3.7.7.7h10.1c.4,0,.7-.3.7-.7v-.8c0-.4-.3-.7-.7-.7-1.2-.2-2.3-.7-3.1-1.5ZM214.4,323.6c-.6,0-1.1-.5-1.1-1.1s.5-1.1,1.1-1.1,1.1.5,1.1,1.1-.5,1.1-1.1,1.1Z"/>
      <path class="st8" d="M189.2,325.1c0,.4.3.7.7.7h3.2c.6,0,.9-.7.5-1.2l-3.2-3.2c-.4-.4-1.2-.1-1.2.5v3.2Z"/>
      <path class="st8" d="M196.1,313.3l-5.8-5.8c-.4-.4-1.2-.1-1.2.5v3.6c0,.2,0,.4.2.5l6.7,6.7v-5.6Z"/>
      <path class="st8" d="M190.4,314.5c-.4-.4-1.2-.1-1.2.5v3.6c0,.2,0,.4.2.5l6.7,6.7v-5.6l-5.8-5.8Z"/>
      <path class="st46" d="M203.1,313.6c0-.2,0-.4-.2-.5l-5.6-5.6c-.4-.4-1.2-.1-1.2.5v3.6c0,.2,0,.4.2.5l6.7,6.7v-5.3Z"/>
      <path class="st46" d="M196.1,325.8h3.9c.6,0,.9-.7.5-1.2l-4.4-4.4v5.6Z"/>
      <path class="st46" d="M196.1,313.3v5.3c0,.2,0,.4.2.5l6.7,6.7v-5.3c0-.2,0-.4-.2-.5l-6.7-6.7Z"/>
      <path d="M230.7,323h2.9v-4.7h2.4c2.6,0,4.3-1.6,4.3-4s-1.7-4-4.3-4h-5.2v12.7ZM233.5,315.8v-3h2.1c1.1,0,1.7.6,1.7,1.5s-.7,1.5-1.7,1.5h-2.1Z"/>
      <path d="M245.4,323.2c2.8,0,4.8-2,4.8-4.7s-2-4.7-4.8-4.7-4.8,2-4.8,4.7,2,4.7,4.8,4.7ZM243.2,318.5c0-1.4.9-2.4,2.2-2.4s2.2,1,2.2,2.4-.9,2.4-2.2,2.4-2.2-1-2.2-2.4Z"/>
      <path d="M254.8,323.2c2.1,0,3.6-1.3,3.6-2.9,0-3.7-4.9-2.5-4.9-3.9s.4-.7,1-.7,1.4.4,1.6,1.2l2.1-.9c-.4-1.3-2-2.2-3.8-2.2s-3.3,1.2-3.3,2.6c0,3.5,4.8,2.5,4.8,3.9s-.5.8-1.2.8c-1,0-1.7-.7-1.9-1.6l-2.1.8c.5,1.4,1.8,2.7,4.1,2.7Z"/>
      <path d="M265.2,322.9l-.2-2.3c-.3.2-.7.2-1,.2-.7,0-1.1-.5-1.1-1.3v-3.5h2.2v-2.2h-2.2v-2.6h-2.7v2.6h-1.4v2.2h1.4v3.8c0,2.2,1.5,3.3,3.5,3.3s1,0,1.5-.2Z"/>
      <path d="M274.5,310.4v4.9h-5v-4.9h-2.9v12.7h2.9v-5.3h5v5.3h2.9v-12.7h-2.9Z"/>
      <path d="M283.7,323.2c2.8,0,4.8-2,4.8-4.7s-2-4.7-4.8-4.7-4.8,2-4.8,4.7,2,4.7,4.8,4.7ZM281.5,318.5c0-1.4.9-2.4,2.2-2.4s2.2,1,2.2,2.4-.9,2.4-2.2,2.4-2.2-1-2.2-2.4Z"/>
      <path d="M293.6,322.7c1,0,1.9-.3,2.4-.9v.9c0,1-.8,1.7-2.1,1.7s-1.7-.4-1.8-1.2l-2.4.4c.3,1.7,2.1,2.9,4.2,2.9s4.7-1.6,4.7-4.1v-8.5h-2.6v.8c-.5-.6-1.3-.9-2.4-.9-2.5,0-4.1,1.7-4.1,4.5s1.6,4.5,4.2,4.5ZM292,318.2c0-1.4.8-2.2,2-2.2s2,.9,2,2.2-.8,2.2-2,2.2-2-.9-2-2.2Z"/>
    </g>
  </g>
  <g>
    <g>
      <path class="st38" d="M185.5,231.9h13.4c6.8,0,11.2,4,11.2,10.2s-4.4,10.2-11.2,10.2h-7.7v13.7h-5.8v-34.1ZM198.6,247.3c3.6,0,5.7-1.9,5.7-5.2s-2.1-5.2-5.7-5.2h-7.3v10.4h7.3Z"/>
      <path class="st38" d="M214.6,231.9h5.7v29.1h16.3v5h-22v-34.1Z"/>
      <path class="st38" d="M250.8,231.9h5.3l13.3,34.1h-5.9l-3-8h-14l-3,8h-5.9l13.3-34.1ZM248.3,253.1h10.3l-5.2-13.6-5.2,13.6Z"/>
      <path class="st38" d="M272.9,231.9h6l15.6,25.1v-25.1h5.5v34.1h-6l-15.7-25v25h-5.4v-34.1Z"/>
    </g>
    <g>
      <path class="st1" d="M185.5,231.9h13.4c6.8,0,11.2,4,11.2,10.2s-4.4,10.2-11.2,10.2h-7.7v13.7h-5.8v-34.1ZM198.6,247.3c3.6,0,5.7-1.9,5.7-5.2s-2.1-5.2-5.7-5.2h-7.3v10.4h7.3Z"/>
      <path class="st1" d="M214.6,231.9h5.7v29.1h16.3v5h-22v-34.1Z"/>
      <path class="st1" d="M250.8,231.9h5.3l13.3,34.1h-5.9l-3-8h-14l-3,8h-5.9l13.3-34.1ZM248.3,253.1h10.3l-5.2-13.6-5.2,13.6Z"/>
      <path class="st1" d="M272.9,231.9h6l15.6,25.1v-25.1h5.5v34.1h-6l-15.7-25v25h-5.4v-34.1Z"/>
    </g>
    <g>
      <path class="st38" d="M185.5,231.9h13.4c6.8,0,11.2,4,11.2,10.2s-4.4,10.2-11.2,10.2h-7.7v13.7h-5.8v-34.1ZM198.6,247.3c3.6,0,5.7-1.9,5.7-5.2s-2.1-5.2-5.7-5.2h-7.3v10.4h7.3Z"/>
      <path class="st38" d="M214.6,231.9h5.7v29.1h16.3v5h-22v-34.1Z"/>
      <path class="st38" d="M250.8,231.9h5.3l13.3,34.1h-5.9l-3-8h-14l-3,8h-5.9l13.3-34.1ZM248.3,253.1h10.3l-5.2-13.6-5.2,13.6Z"/>
      <path class="st38" d="M272.9,231.9h6l15.6,25.1v-25.1h5.5v34.1h-6l-15.7-25v25h-5.4v-34.1Z"/>
    </g>
  </g>
  <g>
    <g>
      <path class="st38" d="M182.7,172.7h22.6v5h-16.9v9h13.7v5h-13.7v15.2h-5.7v-34.1Z"/>
      <path class="st38" d="M215.1,172.7h12.8c6.6,0,10.9,3.8,10.9,9.8s-2.1,7.3-5.7,8.9l9.4,15.4h-6.7l-8.5-14.5h-6.3v14.5h-5.7v-34.1ZM227.1,187.3c3.8,0,5.9-1.8,5.9-4.8s-2.1-4.8-5.9-4.8h-6.2v9.6h6.2Z"/>
      <path class="st38" d="M251.3,172.7h22.3v5h-16.6v8.6h13.3v5h-13.3v10.6h17.1v5h-22.8v-34.1Z"/>
      <path class="st38" d="M284.2,172.7h22.3v5h-16.6v8.6h13.3v5h-13.3v10.6h17.1v5h-22.8v-34.1Z"/>
    </g>
    <g>
      <path class="st1" d="M182.7,172.7h22.6v5h-16.9v9h13.7v5h-13.7v15.2h-5.7v-34.1Z"/>
      <path class="st1" d="M215.1,172.7h12.8c6.6,0,10.9,3.8,10.9,9.8s-2.1,7.3-5.7,8.9l9.4,15.4h-6.7l-8.5-14.5h-6.3v14.5h-5.7v-34.1ZM227.1,187.3c3.8,0,5.9-1.8,5.9-4.8s-2.1-4.8-5.9-4.8h-6.2v9.6h6.2Z"/>
      <path class="st1" d="M251.3,172.7h22.3v5h-16.6v8.6h13.3v5h-13.3v10.6h17.1v5h-22.8v-34.1Z"/>
      <path class="st1" d="M284.2,172.7h22.3v5h-16.6v8.6h13.3v5h-13.3v10.6h17.1v5h-22.8v-34.1Z"/>
    </g>
    <g>
      <path class="st38" d="M182.7,172.7h22.6v5h-16.9v9h13.7v5h-13.7v15.2h-5.7v-34.1Z"/>
      <path class="st38" d="M215.1,172.7h12.8c6.6,0,10.9,3.8,10.9,9.8s-2.1,7.3-5.7,8.9l9.4,15.4h-6.7l-8.5-14.5h-6.3v14.5h-5.7v-34.1ZM227.1,187.3c3.8,0,5.9-1.8,5.9-4.8s-2.1-4.8-5.9-4.8h-6.2v9.6h6.2Z"/>
      <path class="st38" d="M251.3,172.7h22.3v5h-16.6v8.6h13.3v5h-13.3v10.6h17.1v5h-22.8v-34.1Z"/>
      <path class="st38" d="M284.2,172.7h22.3v5h-16.6v8.6h13.3v5h-13.3v10.6h17.1v5h-22.8v-34.1Z"/>
    </g>
  </g>
</svg>