<svg width="256" height="253" viewBox="0 0 256 253" fill="none" xmlns="http://www.w3.org/2000/svg">
<path fill-rule="evenodd" clip-rule="evenodd" d="M8.00067 0H246.86C248.975 0.0101602 251.001 0.857608 252.493 2.35699C253.985 3.85638 254.822 5.88567 254.822 8.00103V244.074C254.822 246.194 253.98 248.227 252.481 249.726C250.982 251.225 248.949 252.067 246.829 252.067H8.00067C5.88009 252.067 3.84625 251.225 2.34606 249.726C0.845861 248.227 0.00203706 246.194 0 244.074V8.00103C0 5.87902 0.84292 3.84393 2.34334 2.34345C3.84375 0.842963 5.87876 0 8.00067 0Z" fill="#E1E1E1"/>
<path fill-rule="evenodd" clip-rule="evenodd" d="M0.0383911 187.352H255.376V243.336C255.377 244.477 255.153 245.607 254.717 246.662C254.281 247.717 253.641 248.675 252.835 249.482C252.028 250.289 251.071 250.93 250.016 251.367C248.962 251.804 247.832 252.029 246.691 252.029L8.61547 252.759C7.50009 252.767 6.39414 252.554 5.36134 252.133C4.32853 251.712 3.38928 251.09 2.59772 250.304C1.80616 249.519 1.17794 248.584 0.749237 247.554C0.320539 246.524 0.0998475 245.42 0.099877 244.304L0.0383911 187.352Z" fill="#A7B7BE"/>
<path fill-rule="evenodd" clip-rule="evenodd" d="M82.2355 49.2974H175.454V142.005H82.2355V49.2974Z" fill="#7C7C7C"/>
<path fill-rule="evenodd" clip-rule="evenodd" d="M64.3282 147.623H195.229V187.974H64.3282V147.623Z" fill="#7C7C7C"/>
<path fill-rule="evenodd" clip-rule="evenodd" d="M93.9252 61.718H163.034V127.456H93.9252V61.718Z" fill="#A7B7BE"/>
</svg>
