<?xml version="1.0" encoding="UTF-8"?>
<svg id="Layer_1" xmlns="http://www.w3.org/2000/svg" xmlns:xlink="http://www.w3.org/1999/xlink" version="1.1" viewBox="0 0 500 450">
  <!-- Generator: Adobe Illustrator 29.0.0, SVG Export Plug-In . SVG Version: 2.1.0 Build 186)  -->
  <defs>
    <style>
      .st0, .st1 {
        fill: none;
      }

      .st2 {
        fill: #91a6c0;
      }

      .st3 {
        fill: #284970;
      }

      .st4 {
        fill: #28486f;
      }

      .st5 {
        fill: #f0bc6d;
      }

      .st6 {
        fill: #010101;
      }

      .st7 {
        fill: #010000;
      }

      .st8 {
        fill: #1d4aff;
      }

      .st9 {
        fill: #e58562;
      }

      .st10 {
        fill: #355f91;
      }

      .st11 {
        fill: #6484ab;
      }

      .st12 {
        fill: #e88f6e;
      }

      .st13 {
        fill: #c0dafd;
      }

      .st14 {
        fill: #f9bd2b;
      }

      .st15 {
        fill: #eca740;
      }

      .st16 {
        fill: #a8772d;
      }

      .st17 {
        fill: #4470a9;
      }

      .st18 {
        fill: #c0dbfe;
      }

      .st19 {
        fill: #f5d29c;
      }

      .st20 {
        fill: #416ba2;
      }

      .st21 {
        fill: #bf8733;
      }

      .st22 {
        fill: #90a4be;
      }

      .st23 {
        fill: #27486e;
      }

      .st24 {
        fill: #bebebe;
      }

      .st25 {
        fill: #de6033;
      }

      .st26 {
        fill: #a6762d;
      }

      .st27 {
        fill: #a84a27;
      }

      .st28 {
        fill: #fff;
      }

      .st29 {
        fill: #d6983b;
      }

      .st30 {
        fill: #c0a47a;
      }

      .st31 {
        fill: #f6dab0;
      }

      .st32 {
        fill: #a54826;
      }

      .st33 {
        fill: #bcbcbc;
      }

      .st34 {
        fill: #fed9a1;
      }

      .st35 {
        fill: #bababa;
      }

      .st36 {
        fill: #936828;
      }

      .st37 {
        fill: #bbb;
      }

      .st38 {
        fill: #355f92;
      }

      .st39 {
        fill: silver;
      }

      .st40 {
        fill: #e58663;
      }

      .st41 {
        fill: #fefefe;
      }

      .st42 {
        fill: #f54e00;
      }

      .st43 {
        fill: #345f92;
      }

      .st44 {
        fill: #bfbfbf;
      }

      .st45 {
        fill: #f7d9ac;
      }

      .st46 {
        fill: #82361c;
      }

      .st47 {
        fill: #966a28;
      }

      .st1 {
        stroke: #1d1d1b;
        stroke-linecap: round;
        stroke-linejoin: round;
        stroke-width: 10px;
      }

      .st48 {
        fill: #c0dbfd;
      }

      .st49 {
        fill: #f6d5a3;
      }

      .st50 {
        fill: #356092;
      }

      .st51 {
        fill: #5b94e1;
      }

      .st52 {
        fill: #fdddad;
      }

      .st53 {
        fill: #7b5721;
      }

      .st54 {
        fill: #b37e31;
      }

      .st55 {
        clip-path: url(#clippath);
      }

      .st56 {
        fill: #de6133;
      }
    </style>
    <clipPath id="clippath">
      <rect class="st0" x="185.3" y="266.7" width="109.2" height="20.9"/>
    </clipPath>
  </defs>
  <path d="M151.2,126.6c.4-5.5.6-11.6,1.5-17s.9-7.2,5.1-6.7l20.6,3.9c-.4-2.3,1.1-4,1.7-5.9,1.2-3.6,2.5-9,4.1-12.2,3.3-6.7,13.2.3,18.3,2.2s2.2.3,3.3.7,2.4,1.7,3.4,1.4c2.1-3.6,5-6.6,7.5-9.9s3.6-8.6,8.6-6.1,13.5,11.9,15.7,12.1,13.6-10.4,16.9-11.8,6,3.4,8.2,6,2.8,2.6,3.9,4,4.4,6.6,4.8,6.7l22.6-6.9c.5.1,1.1.2,1.5.5,1.5,1.1,3.8,11.2,5.2,12.1l18.5.3c1-2.7,3.8-3.8,5.3-6.2-3.3-3-6.5-6.1-9.8-9.2s-4.1-3-5.6-5.2-.5-4,2.3-4.7c5.8-1.4,12.9-1.3,18.8-2,17-2.1,34-4.7,51.1-6.3,1.4.4,4.6.7,5,2.2,0,6.7,0,13.5-.4,20.2-.8,15.8-2,32.1-3.5,48s.4,4.7-.1,6.3-4.5,5.8-6.3,3.5c-2.5-1.4-13-15.7-14.2-16s-5,3-5.1,4.1.5,1.6.5,2.5c0,4.7.2,10.3,0,14.9s-.9,3.4-1,5.2c.8,0,1.6.1,2.4.4,2.4.8,5.9,2.2,8.2,3.2,6,2.5,4.6,4.6,2.7,10s-5,10.4-6.8,15.7c4.3,2,8.3,5.1,12.2,7.9s6.6,3.1,6.6,6.8-12.2,14.3-13.9,17.8c0,1.2,1.6,1.5,2.2,2.3,2.4,3.1,8.2,10,9.7,13.1s1.3,2.4.8,4.3-4.5,3.7-5.7,4.7-2.9,3.1-4.5,4.4-6.3,3.6-6,5.9l4,9.2c.9.7,2.3-2.2,2.9-2.7,4.4-4,14.3-3.7,17.3,2.1s.8,12.1-.7,14-3.4,2-3.6,2.8.5,2.8.5,3.9c0,3.7-1.6,7.6-5,9.4,2.9,3.3,2.3,8.8.7,12.6s-2.9,4.2-3.1,5.3.8,2.7.8,3.9c.4,6-2.2,13.5-6.1,18s-5.9,4.1-6.5,4.9-.5,3.7-.9,5.1c-.9,3.1-3.1,6.8-5.8,8.5s-4.4,1.4-4.7,1.7c-.6.8,0,3-.2,4.2-.7,3.6-7.2,13.5-10.5,15.2s-11.3,3.2-15,.9c-4.4,12.7-19.9,18.3-31.9,13.4-1.6,5.2-8.3,8.8-13.6,9s-7.3-1.4-9.5-2.4-3.3-2.6-4.4-2.6-5.7,3.8-7.3,4.5c-6.6,2.9-13.9,3.7-19.8-1.1-2.8,2.4-5.1,4.9-9,5.4s-14-1.8-17.3-5.9-2.5-4.7-3.1-4.9c-1.8-.6-3.9.6-5.8.3-3.7-.6-7.8-3.5-9.7-6.7s-2.1-5.6-2.8-6.2-3.4-.6-4.9-1.5c-4.5-2.6-3.9-6.5-3.2-11s.9-2.2.9-2.3c-.1-.2-3.1-1.3-3.7-2s-1.9-3.5-2-3.9c-.4-1.2.2-2.7-1-3.5-.3,2.3-5.4,2.7-5.7,3s-.4,3.5-.4,4.3c-.3,3.9.3,11.7,1.3,15.5s4.5,9.3,4.5,10.8c.1,4.4-6.9,2.6-9.3,1.9-19-5.7-34.4-21.9-35.7-42.1,0-1.4.7-3.9.3-4.7s-9.4-7.5-10.9-8.9c-17.9-16.6-31.5-43.7-35.8-67.7s-1.4-9-.9-10c1.9-3.8,19.5,1.3,23.3,2,.1-1.2,2.2-5.2,2.1-5.7,0-1.1-15.2-12-16.6-14.5l.9-3.3,11.8-15.1-13.7-18.4c-.7-2.4,6.2-6.6,6.3-7.4s-1.6-4.3-1.8-5.5-.5-4-.6-5.3c-.5-9.8-.3-19.7-.5-29.7s-1.6-14.2.8-19.5,3-3,4-4.5h20.5c.7-.6-5.1-6.3-5.7-6.9s-2.5-1.3-2.9-2c-2.8-4.3,2.1-5.6,4.4-7.9s4.4-7.9,6.1-8.3c2.5-.6,3.4,3.8,4.4,5.3s2.1,3.1,2.3,3.4c1.5,1.6,8,4.5,4.8,7.3s-8.3,3.7-8.4,9.2h18.8Z"/>
  <path class="st6" d="M155.8,97.2c-1.2-1.4-2.3-4-3.9-5.8s-4-2.1-3.7-5.7,2.8-2.9,3.8-3.9c1.6-1.5,4.6-7.8,6.4-7.8s1.6,2.7,2.1,3.8c.9,1.9,3.1,3.8,4.8,5.1s4.5,1.5,4.2,3.6-5.9,5.7-6.9,7c-1.9,2.5-3,8.1-6.8,3.5Z"/>
  <path class="st50" d="M325.6,173.1c5.2,9.9,9.1,21,9.9,32.2,2.7,20.2-4,41.5-14.4,58.6l-1.4-.6c-4.1-3-7.4-3.3-12.1-4.5-44.1.8-88.3-1-132.3,0-3.4,0-11.4-.1-14.1.5-2.1.6-2.9.9-3.3-1.5-8.5-14.8-14-32.9-12-50,.1-1.5.1-3.5.5-5,0-1.9.7-2.9,2.1-3,44.1.4,88.2.5,132.3.5,11.7,0,19.5-3.1,21.2-15.8l1-.8-1-.6v-9.1l1-.7c-.4-.3-.7-.8-.4-1.1,1.7-1.7,18.3-.5,21.8-.2l1.4,1Z"/>
  <path class="st41" d="M385.5,263.3c3.3,2.9,1.2,8.1-2.4,9.9-.1,1.3-.2,2.4-1.1,3.5,0,.2,0,.3,0,.5-.9,4.6-1.9,8.5-6.6,10.7-.3.8-.7,1.4-1.3,1.6-.4,1.8,0,1.6,0,3,2.9,3.6.7,9.5-2,12.8,0,1.5-.2,2.7-.9,3.6-.3,2.9-.5,5.8-.7,8.8-1.9,8.2-2.7,9-8.6,14.3s-2,2-2.6,3.2c-.1.5.1,1.4,0,2,1.6,1.6-.7,3.7-2.2,4.9-4.5,1.6-6.7,4.5-6.6,8.5-5.1,8.2-12.8,17.9-23.6,13.3l-2.8.5c-.3.2-.7.7-1,1-2.5,10.8-19.3,14.1-28.5,9.9-1.8-1.7-4.5-2.2-6.7-1-1.2,2,.7,4,2,5.4,2.5,2.9-1,3.9-3.7,4.4s-9.2-.2-10.5-2c-.2-2.8-4.4-5.5-6.8-3.5-5.7,7.4-16.7,6.6-24.5,3.4-2.3-.9-3,0-2.2,3l-.9.8c-2.1,5.9-13.7,4.8-17.3.8-1.2-2.3-3-4.1-5.5-5.3-.4-.1-1.4-.4-1.5-.5-1.8-1-2.7-1.3-5.1-.7-4.4,0-12.1-6.4-5.8-9.4,1.6-.8,1.7-3.1-.2-3.1l-6.7.5c-4.1-.5-5.2-5.3-.9-6.6,0-1.8.4-3.1,1-4.1,5.9-2.6.3-3.9-3.3-4.8-1.4-.5-2.9-1.2-2.7-2.9,3.9-5.1,7.4-9.6,7.7-16.2.8-.3,1.7-.2,2.6.3.8.5,3.7,3.1,3.9,3.8.5,1.6-2.3,5.7.4,6.5s2.5-1.3,3.3-2.3c3.9-4.5,8.2-6.8,14.4-6.1s7.4,3.7,8.4,5.9.5,3.5,2.2,5c2.4.8,6.6,1.1,6.1-2.5l-.7-5.2c.1-.5.5-.9,1.1-1.2,4.6-1.9,8-1.4,11.4,2.2,2.1,2.2,0,2,3.9,3.3l1.6-.5c3.2,1.4,3.9-1.2,2-7.9l.8-1c1.6-1.4,3-2.3,5.3-2.9,3.9-.9,5.1-.5,8.1,2.1s4.4,5.7,6,6.5,1.2,0,2-.3c1-1,2-1.9,3-2.7l-.2-1.4c-4.9-8.8,4.1-7.6,9.5-6.2l.9-.7c2.6,2.1,2.7-.9,2.7-3.1-.5-2.3-.6-4.3-.1-6.2,5-3.9,12.3-4,16.8.5l1.5.7c2.8-.3,3.3,0,1.4,1.3.5,1.4-3.2,3.6-4.5,3.5-.8,5.1.7,7.6,3.9,11.5s4.1,5,6.2,4.9c4.2-.3,13-12.6,10.7-17.4-4.1-.9-6.2-4.3-8.2-7.8-1.2-2-2.1-2.2-2.6-.7h-1.1c-1.1.2-5.1-5.5-5.2-6.1-.1-.9.2-1.6.8-2.2.6-.5.5-.8,1.6-1.2s5.2-1.2,6.4-1.3l.8-.9c2.1.8,3.2-1.3,3.3-6.3l1.8-2.2c.2-.2.3-.3.5-.5,1.2-1.5,3.2-1.7,6-.7l2.4-1.1c3.6,4.2,3.7-2,3.5-4.9.6-3.1,1.8-6.7,4.4-8.6,2.2-.8,3.5-1.4,6-.8s3.2,2.4,4.7.2.4-3,2.7-5.4c.4-1.1,2-1,3.1-.9,5.1,2.2,7.1,2.3,6.2.4l.7-1c0-.3,2.2-5.1,2.5-5.6,2.2-3.5,5.6-4.1,9.3-2.8Z"/>
  <path class="st56" d="M107.1,171.2c-.3-2.2-.5-6.4-.5-8.7v-16.3c0-4-.4-8.1.5-12.1l15.6.9,31.2-.5c35.6.7,70.8,1,105.8.8,3.3.1,4.1-.1,5.9-2.7.8-.4,2.6-.4,2.8.6-1.1,12.3-.9,24.5.6,36.6,5.2,9.1,4.1,12.8-3.2,11.2-52.6,1-104.4,1.1-155.3.3-2.4-2.2-3.6-5.6-3.5-10.1Z"/>
  <path class="st41" d="M156.6,268.2c5.1-7,16.5-4.1,24-4.1,41.9,0,83.9-.6,126.3-.4,2.6-.6,13.8,5,12.1,7.8s-9.5,3-5.8,6.9,9,3.6,8.7,6.7-.8,1.4-.9,1.8c-2.2,3.1-7.3,4.6-11.2,4.7l-52.2-.8c-15.9.8-31.7.6-47.4-.8-9.6-6.2-21.1-6.4-32.1-3.8-5.7-4.7-11.5-9.3-17.4-13.7-3.6-.9-4.9-2.4-4.1-4.4Z"/>
  <path class="st56" d="M281,104.3c-1.2,2.3-.7,3.5,1.7,3.3,20.8,1,41.9,1.4,63.5,1.2,3.5.9,6.7.7,9.7-.5.5,3,0,3.2,0,5.7,0,10.6.2,21.3,0,32-2.2,5-6.7,9.5-12.6,7.4-21.1-.2-42-.3-62.7-.5l-.7-.6-.7-32.6c0-5.1,0-10.2,0-15.4.7,0,1.3,0,2,0Z"/>
  <path class="st34" d="M379.1,72.1c1.5-.4,3-.7,4.6-.6-2.6,19.9-4.6,39.9-6.1,59.9,0,2.3-.7,3.1-2.2,1.9-3.3-4.7-7.2-8.3-11.8-10.6-1.2.3-2.2.4-3.2.1l.3-8.1c0-7.2.6-14.4-8.6-14.9s-3.8.5-5.5.5c-5.7,0-11.4-.7-17.1-.5,4.2-5,6.6-5.7,1.3-10.9s-7-5.8-9.9-8.9-.9-.7-.7-1.5c3.6-.6,7.4-.6,11.1-1.1,15.3-2,32.6-4.8,47.9-5.4Z"/>
  <path class="st15" d="M361.2,162.2c2.7,1.1,5.5,1.7,8,3.3-1.7,7.7-8.3,15.2-7.1,23.3l17,11.3c.1.6-.2,1-.5,1.5-2,3-5.7,6.1-7.9,8.9s-6.3,7.2-3.5,11.4l10.9,14.9c-1.6,1.2-3.5,2.1-5,3.5s-1.9,2.6-2.9,3.5c-1.5,1.3-7.3,5.4-7.9,6.6-1.3,2.3,2.4,8.3,3.3,10.9s1.7,4.2,1.4,4.6c-2.2,1-5.2,1.8-7,3.4s-2.2,3.9-2.5,4-1.1-.9-2-1c-1.8-.1-3.8,1.5-5.8.9s-1.1-1.1-1.7-1.3c-1.1-.5-3.8-1.1-4-2.4s3.9-9.6,4.6-11.6c9.4-26.7,9.1-56.5-1.7-82.7l-.4-2.1c5.8-1.1,13.9-3.1,13.5-10.5l1.3-.3Z"/>
  <path class="st3" d="M146.2,202.9c0-2,.5-4.2,1-6.2s.9-4,2.2-4.2c9.1,0,18.2,0,27.3,0,30.9-.1,61.7-.4,92.6-.5,5.5,0,13.4,1.1,18.8-.5s4.3-2.5,5.4-5,1.3-3,1.3-3.2v-18.1h25.9c1.9,2.6,3.3,5.1,4.8,7.9-6.6.1-14.5-1.3-21.1-.5s-1.7.2-1.7.8v10.4c0,4.5-2.4,10-5.7,13.1-4.8,4.6-12.5,4.4-18.8,4.5-40.6.5-81.3-.5-121.9-.5-3.1,0-6.3,0-9.4,0-.1,0-.7,1.7-.8,2Z"/>
  <path class="st27" d="M244.8,132c9.5,0,19-.2,28.5,0,2.1.4.7,1.8.8,3.2.4,11.3-1.2,23.4,2.9,34.2s8.2,16.9,7.4,17.6c-5.5.9-11,0-16.6,0-42.5,0-85.6.6-128.3.5-9.9,0-19.8,0-29.7,0-1.3-.2-2-1.5-2.2-2.7-.6-3.9.2-9.4-.5-13.6.2,1.4.8,4.6,1.3,5.9s1.6,2.8,1.9,3.1c1.3.9,12.8.4,15.4.4,46.5.4,93.8.1,140.2-.5,1.4,0,4.4,1.1,5.5-.4s-2.7-7.6-3.3-9.7c-2.5-8.9-.6-24.9-1-34.7,0-1.8,1.6-2.4-1.5-2.7l-1.5.9c-2.5.1-18.7.5-19.4-.2s0-.8.1-1.2Z"/>
  <path class="st15" d="M158.6,126.6c-.4-.1-.9-.3-.9-.6.2-1.7,2.2-13.6,2.7-14.1,2.3-2.2,13.8,1.8,16.5,3.4,2.6.7,4.9.8,6.2-1.9,2.3-5.3,4.7-10.7,7.1-16,.6-.7,1.2-1,2-.6l8,3.5c3.1,1.1,10.3,3.4,13,1.2,2.6-4.7,5.7-9.1,9.2-13.1.9-.9,2-1,3-.3,2.9,3.4,12.4,14.1,16.9,10.9,2.2-2.7,14.6-12.6,16.8-11.8s.8.3,1,.7c2.1,4.3,4.7,8.9,7.7,12.6,2.6,1.9,3.6,1.4,5.8-.2s.8,0,1.2.3c-.8,1.7.1,8.5-1.3,8.9s-4.9-1.6-6-1.8c-27-5.9-57.5-2.6-81.8,11.1-2.8,1.6-9.8,7.3-11.9,7.9-3.5.9-11.5.4-15.4.2Z"/>
  <path class="st39" d="M321.1,287.1c-.2.6.2,1.4-.3,2.4-1.4,3.2-6.5,7.6-10.1,8.2-22.8.8-46,0-68.7-.2-6.8,0-19.9,1.1-25.8,0s-5.4-3.9-6.7-4.7c-7.1-4.1-16.8-6.3-24.9-4.7s-5.4,2.3-7.2,1.7c-6.5-5.1-12.4-10.9-19.3-15.5-2.1-1.4-3.9,0-2.8-4.2s.8-1.2,1.3-1.9c.3,2.6,3.4,2.7,4.9,3.8s2.6,1.8,3.8,2.7c4.6,3.3,8.4,7.6,13,10.8,7.8-2.1,16-2.3,23.9-.2s5.5,2.6,8.1,3.8c4.6,2.2,39.7.8,47.7.9,14.2.2,28.3.5,42.6.5s8.2.7,12.7,0,5-2.6,7.8-3.3Z"/>
  <path class="st27" d="M120.9,265.8c.8.4.8.9.8,1.6,0,4.8-7.2,11.6-10.8,14.5,1.7,2.3,3.2,4.7,4.6,7.2l.7,1.3c-5.2,32.8,44,32.5,36.8-1l.7-1.2c2.2-.3,4,4.2,4.3,6.2,1.9,11.8-3.4,22.4-15,26.2,5,4.7,10.9,8.3,17,11.5.7-.7,1.4-.8,2.1-.3-1.1,2.2-3.8,4.9-5.7,6.5-3.4,2.9-5,4.1-9.3,1.5s-10.7-7.6-14.5-10.9c-14-12.4-24.5-30.3-30.5-47.8,8.7-2.8,13.6-10.2,17.4-18.1l.9.7c-.5.9-.3,1.6.5,2.3Z"/>
  <path class="st5" d="M158.6,126.6c-.6,0-3.5.2-3.5-.3,1-3.1,1.5-6.3,1.9-9.5s.3-8.9,1.3-9.1,1.2.8,2,1c4.1.8,8.9,1.7,13,2.4s7.2,1.9,9.3-2.9l6.2-17.8,21.9,7.8c2.4-.4,1.7-2.5,2.5-3.7s.8-.4,1-.7c2.9-4.1,6.2-8,8.7-12.3l17.1,12.9c3.4.5,18.1-12.7,19.3-12.4,2.2,2.5,11.9,16.1,14,16.7,3.9,1.2,21.6-7.2,22.9-6.3l2,6.9c-5.4.7-10.7-.2-16.1,0s-5.7,0-7.2,1-.9,1.6-2.8,2c-5.7.9-7.4-4.9-9.6-8.7s-1.5-1.8-2.1-2.9c-1.4-2.5,0-4.2-4.3-1.6s-6.2,4.3-8.7,6.2c-4.3,3.3-4.8,7.4-11.1,3.7s-6.9-5.6-9.7-8.1-1.3-2.9-2.9-2.4-4.3,5-5,5.9-4.2,7.2-4.9,7.7-4.3,1.2-5.5,1.1-5.6-1.3-6.8-1.7c-3.3-1-7-2.8-10.1-4.2-.6.1-2.9,6.8-3.5,8s-1.2,1.5-1.6,2.3c-1.7,3.5-2,9.4-7.2,9s-7.8-3.3-11.1-3.8-6.8-.6-7.1-.4l-2.4,14.2Z"/>
  <path class="st51" d="M309.2,302.9l-2,2.2c-30,23.8-65.3,26.9-101.6,17s-1.5-.1-1.4-.8c4.2-1,8.3-2.4,12.6-3,6.3-.8,10.4.2,16.3.5,21.6,1,39.1-3.4,58.1-13.3s3.2-2.6,3.9-2.6h14.1Z"/>
  <path class="st15" d="M107.1,201.4c-1.1-1.1-1-1.7.4-1.9,6.4.5,12.9.7,19.4.4,1.1.2,1.5,1,1,2.5.2,5.4-1.4,10.7-1.4,16,0,9.4,1.7,21,4.1,30s3,8.4,4.2,12.6,0,.8-.7.7c-1.8-1-13.9-4.3-14.4-4.9-.9-1.3,2.6-6.4,1.5-9.4s-5.5-5.7-6.9-7-8.7-5.7-8.7-6.7c3-3.5,6.4-7,9.1-10.7s4-5.5,2.5-8.9-1.1-.9-1.5-1.5c-2.4-4.1-5.7-7.7-8.7-11.4Z"/>
  <path class="st51" d="M339.9,173.1c13.1,27.2,13.3,56.6,2.8,84.8-.7,1.9-1.7,4.6-2.6,6.3s0,1.2-1,1-5-8.5-4.7-10.1c11-25.8,9.1-56.9-2.9-82l.6-1c1.5-.3,7.2-.4,7.9,1Z"/>
  <path class="st51" d="M274.5,114.8c.4.7-1,6.4-.4,7.9-3.3-.9-6.5-2-9.8-2.8-17.1-4.1-35.8-3.4-52.6,1.6s-11,5-14.7,5.6-9.6-.8-14-.4c2.2-2.2,5.8-4.1,8.6-5.5,22.2-11.2,48.9-14.3,73.3-9.2,1.6.3,9.2,2,9.7,2.9Z"/>
  <path class="st9" d="M244.8,132c.5.8,1.9.5,2.7.5,5.7,0,12.6-.5,18.1,0,.3,1.3-.6,3-1.8,3.4s-6.7.4-8.4.4c-33.8.5-68-.6-101.5-.8s-28.1,1.1-42.1,0-4.1-.3-4.7-1.5c.6-2.7.2-2.7,3.8-2.8,44.6-.9,89.6.5,133.9.8Z"/>
  <path class="st27" d="M279,119.6l1,32.2c3.9.6,7.7,0,11.6,0,17.1.3,34.2.4,51.5.5,1.2,0,2.3.6,3.4.5,4.7-.1,5.9-4.7,9.2-7-.1,5.6.5,13.2-6.8,14.2s-25,.2-35.1.2-13.8-.3-20.8-.5-11,.7-13.3,0-.4-4.3-.4-5.6c-.1-11.3-.4-22.9-.4-34.4Z"/>
  <path class="st51" d="M141.3,202.4c0,.2,0,.3,0,.5-1.1,5-1.6,10.2-1.5,15.4.4,12.3,2.7,25.6,7.2,37.1s4.4,8,5.2,10.7-.5.1-1,1.2c-1.4,1.8-6.2-.8-7.9-2s-1.1-.9-1.5-1.5c-7.9-14.3-12.8-44.2-8.9-59.9l.6-3.1c1.3-1.7,8.4-1.7,7.8,1.6Z"/>
  <path class="st40" d="M281,104.3c6.6-.4,13.5.4,20,.5,17.2.2,34.6-.1,51.5,0s2.8,1,3.2,3.5c-1,3.6-7.1,1.6-9.7,1.5-15.8-.3-32.2,0-48-.6s-16.3.2-18.3-1.4-.5-3.4,1.2-3.5Z"/>
  <path class="st39" d="M289.9,379.7c1,1.1,6,4.4,5.9,5.1-.5,2.5-7.3,5.1-9.8,5.1s-10.8-2.7-11.4-5.2,1.4-4.7-1.3-5.1-3.6,5.6-5.3,7.3c-2.5,2.5-10.9,4.9-14.5,4.6-5.3-.5-8-6.9-12.1-5.9,0-1.2-1-4.3.8-4.9s7.1,2.1,9.4,2.4,9.9-.2,12.1-1.2c3.9-1.9,4.9-7.8,10.7-3.7s1.8,3.2,2.7,3.7,4.5,1.1,5.2,1.2c2.2.2,9,.2,7.6-3.4Z"/>
  <path class="st18" d="M145.7,354.9c-.7-1.3-.9-2.6.9-2.1,8.3,4.8,16.4,8.4,25.4,10.7l.9,4.3c.2,1.3-.1,2.9.2,4.5.7,3.3,2.2,6.2,3.2,9.4-13.1-3.4-26.3-13.8-30.7-26.7Z"/>
  <path class="st18" d="M197.2,294c7.2,1.2,15.6,6.8,20.6,12.1s5.4,6.5,4.6,7.3c-4.9-.5-9.6.8-14.4,1.5-1.8,1-3.3,1-4.3-.2-3.2-7.2-7.6-13.9-13.1-19.5-1.9-3.1,4.6-1.6,6.5-1.1Z"/>
  <path class="st30" d="M379.1,72.1c.7-.8,5.6-1.3,5.9-1l-4,68.9c-.9.2-1.2-.4-1.7-1-3.1-3.2-7.2-9.6-10.2-12.1-2.9-2.5-5.5-2-8.4.2-.7-.5-.9-10.9,0-12.4,0,2.6,0,5.3,0,7.9,5.1-3.5,9.1,4.1,12.1,7.4s2.4,2.5,3.7,3.5c.6-20.7,3.9-41.1,6.5-61.7-1.3,0-2.6.2-4,.2Z"/>
  <path class="st2" d="M145.7,354.9c0-.2-.7-.5-.9-1.3-.8-3.1-.8-7.4-1.6-10.6,9.1,5.3,19.1,9.9,29.7,10.9-1,4.5-.5,9.3,0,13.9-.1-.6-1.4-2.2-1.1-3.4l-11.7-3.5c-4.5-2.5-9.2-4.7-13.7-7.1s-.6.3-.8,1.1Z"/>
  <path class="st38" d="M276.5,302.9c-.2.3-.4.7-.7,1s-.5.5-.8.6c-11.4,3.9-24.5,6.1-36.5,6.4s-9.1,0-12.6-3c-.6-.9-3.5-4.4-3.5-4.7s.8-.7,1.2-.7c4.7-.8,12.7.5,17.8.5,11.6.1,23.2-.1,35,0Z"/>
  <path class="st2" d="M197.2,294c-2-.3-4.5-.7-6.4-.3,6.2,6.1,10.9,13.4,14.3,21.4.3.2,2.3-.2,3-.3-1.3,1.3-3.3.9-5.1,1.6s-4.6,3-6.3,2.1c-3.7-5.9-6.5-12.4-10.7-18.1s-4.6-4.4-5.2-5.7.3-.6.7-.7c5.1-.9,10.7-2.1,15.6,0Z"/>
  <path class="st9" d="M176.9,298c.7,1.1.7,3-.5,3.5-2.5-1-4.8-2.8-6.9-5.4l-18.4-14.5h-1.2c-8.7-5.6-17.8-10.3-27.4-14.2l-1.6-1.6c-.4-.2-1.3.2-1.8-.5s.4-1.8.3-2.5c10.9,2.6,22.9,8,32.4,14,6.8,4.2,20.8,14.9,25.1,21.2Z"/>
  <path class="st39" d="M359.2,337.1c.7,1.3,3.8,1.3,4,1.5,1,1-2.1,6-3.3,6.9-2.2,1.6-3.6,1.1-5.8,1.7-3,.8-1.6,4-1.9,6.5s-4.9,11.1-7.4,12.9-6.3,2.3-8.1,2.2c-4.7-.2-8-4.8-12.7-4.4,3.1-2.5,3.7-.8,7.2-.5s4.8.3,7.6-1.8,8.7-8.1,10.4-11.4.1-3.7,1.1-5.3c1.7-2.8,7.8-3.1,8.9-8.2Z"/>
  <path class="st39" d="M287.9,374.3c.7-1.1,3-1.6,4.2-1.5s2.2,1.4,3.6,1.9c7.3,3,17.5,1,23.4-4.1s2.3-3.4,4-5.2c-.3,5.1,5.4,3,2.6,8.8-2.6,5.4-11.5,8.8-17.2,8.6-3.7-.1-8.1-2.2-11.3-4.1s-6-5.6-9.3-4.4Z"/>
  <path class="st25" d="M151.2,281.6c14.6,9.8,11.2,31.9-3.8,39.2-.6.7,11,8.3,12.4,8.1,3.8-.7,12.3-18.9,13.2-23.8.6-2,1.5-3.1,3.6-3.8.3-1.1.8-2,.5-3.5.4.6.9.6.9,1.6s-1,4.4-1.3,5.6c-2,7.4-8.7,21.3-14.4,26.4s-1.2.9-1.8,1.4c-.7.1-10.2-5.7-11.5-6.7s-6.6-5-7-5.9.3-.7.6-.8c1.1-.6,2.4-.7,3.6-1.4,8.7-4.8,12.8-13.7,11.1-23.5s-1.7-4.1-3.4-6.7l-1.5-.5c-8.3-15.3-28.3-14.1-35.5,1.1l-1.1.3c-1.4,1-.7.2-1.3-.4-1.7-2.1-2.3-4.4-4.1-6.4v-.8c4.6-4.5,10.3-8.7,10.8-15.7,10.2,3.6,21,10.2,30.2,15.9Z"/>
  <path class="st43" d="M270.6,126.6c-2.1,2.2-6.7.6-9.2.6-8.2-.2-16.5,0-24.7,0s-17.4.3-26-.2c4.3-1.1,8.8-3.1,13.2-3.7,9.7-1.3,22.9-1.3,32.6,0s9.5,2.3,14.2,3.4Z"/>
  <path class="st2" d="M186.3,311.3c.5.9,1.9,1.6,2,2.7s-1.6,6.3-2,7.4c-2.5,6.5-8.1,15.7-13.2,20.5s-6.5,5.5-7.8,5.4c-1.6-1.3-6.6-1.9-7.8-2.7s-.6-.6-.5-1.2c3.4-1.5,7-5.5,9.4-8.4,5.4,3.1,6,2.5,8.9-2.4s6.6-12.9,9.2-19.9c.4-.6,1-1.1,1.7-1.4Z"/>
  <path class="st3" d="M276.5,302.9c2.5,0,5-.2,7.4.2l-10.1,4.7c-13,4.4-27.4,6.7-41.1,5.4s-4.3-1.9-6.7-5.4c2.7.3,4.9,1.8,7.7,2,5.1.4,16-.8,21.3-1.5s14.9-2.9,21.6-5.4Z"/>
  <path class="st52" d="M341.9,274.2c.2.8-.3,1-.7,1.5-1.5,1.6-3.9,2.6-5.7,4.7s-3.3,4.3-4,6.2c-2.1-.1-2.5-2.7-3.7-4-2.1-2.3-4.5-3.6-6.7-5.7l4.7-4.2c2.3-3.2,5.2-6.3,5.7-10.4l4,6.7c2.1,1.7,3.7,4.7,6.4,5.2Z"/>
  <path class="st13" d="M186.3,311.3c-2.6,5.8-4.6,11.8-7.6,17.4s-4.4,7.8-5.6,8.8-7.3,0-6.7-2.5c7.2-8.7,12.5-19.2,15.1-30.2.7-.9.7-.2,1.2.3,1.7,1.9,2.4,4.1,3.5,6.1Z"/>
  <path class="st39" d="M203.7,333.6c-3.1-.7-1.7,1.8-2.2,4s-1.8,4.7-2.5,5.9-4.6,5.8-4.7,6.2c-.5,2.3,7.6,2.3,8.3,4.5s-2.1,3-3.1,4.1-.7,2-1.2,3c0-.1,0-1.9,0-2.2-.5-2.6-6.7-2-8.4-5s-.2-5.4-.9-8.3l7.3-12.4c2.8-1.4,4.9-1.4,7.4.2Z"/>
  <path class="st54" d="M107.1,201.4c-.8-1-2.8-2-2.4-3.2s6.7-5.7,7.1-5.8c.8-.3.8,0,1,0h17.1l-2,9.9c0-.5,0-1,0-1.5-6.4-.1-12.9.3-19.3-.3s-1.7-.9-1.5.8Z"/>
  <path class="st4" d="M335.5,205.3c.7.8.9,2.2,1,3.2,1.4,16.8-1.5,32.7-8,48.4l-4.8,9.3c-.6.4-3.2-2.4-4-3,1.1,0,1.3-.7,1.8-1.5,9.3-16.3,15.4-37.7,14.1-56.5Z"/>
  <path class="st23" d="M145.7,207.8c-1,14.8,5,36.8,12.8,49.4s-.1,2.6,2.6,2.1c-1.2.3-4.9,2.6-6,1.8-4-8.7-7.1-17.4-8.7-26.9s-1.6-11.5-1.6-16.7-.2-6.6,1-9.7Z"/>
  <path class="st44" d="M198.2,361.4c-.7,1.3-2.4,1.1-1.4,4.1s9.3-.5,10.8,1.6c2.6,3.6-2.9,5.1-3,5.5-.5,3.2,4.2,6.1,7,6.4s3.6-1.1,5,.4.4,1.2.5,1.3c-2.1.2-1,2.5-3.2,3-4.7.9-8.9-2.7-10.5-6.8s-.3-3.3-.7-4.7c-.7-2.5-3.7-.6-5.5-.9-3.8-.8-4.3-5.5-2.6-8.3s3.5-1.3,3.7-1.5Z"/>
  <path class="st54" d="M361.2,162.2c-1,1.2-.2,2.8-.9,4.3-1.7,4.1-8.2,6.6-12.3,7.1s-1.3-.4-1.2,1.5c-.4-.9-5.4-9.6-5-9.9,6.1.4,12.1.3,16.1-4.9.8,1.1,2,1.5,3.2,2Z"/>
  <path class="st48" d="M100.1,257.3c1.9.4,14.1,2.5,14.3,3.8-1.6,4.1-4.2,8.2-7.4,11.1-1.7,1-2.9.9-3.6-.3l-5.4-13c-.2-1.6.8-1.7,2.1-1.6Z"/>
  <path class="st44" d="M359.2,335.1c1.5-5.2,3-3.8,5.7-6.9,2.7-3,4-7.3,4.6-11.2s0-6.6,1.5-8.1c.1,1.1-.4,2.3.5,3.2,1.3,1.3,4.1-.2,4.5,2,1.1,5.5-3.8,14.9-8.7,17.5s-6,.8-8.1,3.5Z"/>
  <path class="st32" d="M173,349c8.8-6.8,14.5-16.4,18.6-26.7.9,1,2,2.2,1.7,3.7-2.4,6.8-5.4,14-10.4,19.4s-4.8,4.7-6.1,4.7-2.6-.9-3.8-1Z"/>
  <path class="st44" d="M241.3,385.6c0,.6-.6,1.4-.5,2.2.1,1.3,1.7,2.2.5,3.5s-4.3,2.5-4.8,2.6c-3.3.7-10.7-1.1-13.3-3.4s-2-6.5-4.7-9.4c1.2.5,2.9.4,4,1.2s1.9,3.8,4,4.9c3,1.6,9.5,1.9,12.5.2s1.6-1.7,2.3-1.9Z"/>
  <path class="st46" d="M280.5,164.7h9.2c1.1,0,.2,2.5.2,3.2,0,2.5,0,5,0,7.5s1.1,6.1-.7,8.6l-8.7-19.3Z"/>
  <path class="st22" d="M100.1,257.3l-1.3,1,5.7,13.5,2.5.3c-1,.9-5.1,4-6.2,3.8s-.6-.6-.8-1c-1-1.8-3.1-10.7-3.6-13.2s-.4-3.5-.7-5.2c0-1,4,.6,4.5.7Z"/>
  <path class="st44" d="M371.1,308.9c-.7-5.4.6-3.6,2.2-7.4s1-5.5.7-8.9c1.3,1.3,2.9.6,4.2,2,2.4,2.4,1.4,8.4-.8,10.7s-5,2.3-6.5,3.7Z"/>
  <path class="st17" d="M132.8,203.9c-.2-1.6,1.3-11.2,2.3-11.4,2.8.4,5.4-.7,8.1,0-1.2,3.4-1.5,6.4-2,9.9-.5-2.2-7.2-1.8-7.7-1s-.6,2-.7,2.5Z"/>
  <path class="st17" d="M339.9,173.1h-8.4c-1.3-2.8-3-5.6-5-7.9h9.2c.5,0,3.2,4.9,3.7,5.8s.3,1.8.5,2.2Z"/>
  <path class="st44" d="M350.3,279.1c-1.2,3.1-3.1,5.3-3.5,8.7s.6,5.4-1.2,6.7-3.3-1-3.5-1c-.4,0-1.5.6-2.4.6-2.1,0-3.9-1.4-5.7.4.1-.2-.2-1,.8-1.4,2.3-1,3.3.4,4.9.4,3.2,0,4.4-8.1,5.8-10.6s2.3-2.9,4.9-3.8Z"/>
  <path class="st45" d="M129.9,108.7c.3.3,1.1,3.1,1.5,3.6s3.9,2.8,3.5,3.3c-1.8-.2-5.2,4.7-6.2,4.5l-4.2-4.7c0-.3,2.5-2.3,2.9-3s1.4-4.6,2.5-3.7Z"/>
  <path class="st44" d="M324.1,315.3c1.7,2.1-2.3,8-4.5,5.9l.5-1c-2,.1-2.2.2-3.5-1,3.5,1.4,5.7-.6,3.9-4.1s-4.8-1.2-2.4-6.5.7-1.1,1.4-1.8c-.5,1.1-.3,1.1.2,2,1.3,2.1,3.3,4,4.2,6.4Z"/>
  <path class="st33" d="M374.1,289.5c.1-.6-.2-1.2.3-2s3.4-2,4.4-3.5,1.6-5.2,3.3-6.9c.3,8.5,2.1,10-7.9,12.4Z"/>
  <path class="st39" d="M382,276.7c0-1.2-.2-3,.2-4s1.6-1.1,2.2-1.7c1.9-2.1,1.9-5.1,1-7.7,2.8.9,3.2,2.9,3,5.7-.4,5.5-3.2,4.3-6.4,7.7Z"/>
  <path class="st33" d="M296.8,327.7c1.1.8.8,1.2-.5,1-1.5-.3-5.7-.6-7.2-.5-6.4.4-.2,5.4-1.3,8.6s-3,2-3.9,2.3c3-2.6-.9-5.9-1-7.2,0-2.2,4.3-4.5,6.2-4.7,2.9-.3,4.7,1.9,7.6.5Z"/>
  <path class="st24" d="M296.3,328.7c0-.3.5-.7.5-1,.5-3.5-.6-6.1,3-8.9.7,2.2,2.5,10.5-.8,10.9s-2.1-.9-2.7-1Z"/>
  <path class="st35" d="M242.8,337.6c-.5,2.5,1.6,6.8.2,8.9s-5,1.6-6.7,0c2,.2,3.8.1,3.9-2.3.2-3.8-3.1-4.4,2.5-6.7Z"/>
  <path class="st37" d="M262.6,333.6c.2,2.3,1.7,7.5.7,9.4s-3.7.5-5.2,0c4-1.8-.2-5.4,3.2-8.9s1.1-.4,1.2-.5Z"/>
  <path class="st29" d="M207.6,328.2c1.3.4,9.9,2.1,9.9,2.7-2.2,1-4.2,1.7-6.2,3.2-.3,0-3.4-4.4-4.2-5-1.4-1-1.1-1.4.5-1Z"/>
  <path class="st33" d="M327.5,304.4c1.4-1,1.1-6.8,2.1-7.4s1.7.5,3.9-2c-1.5,2.1-.9,9.2-3.3,9.8s-2-.5-2.6-.4Z"/>
  <path class="st37" d="M373.6,271.7c0,.3.9,1.2.4,2.7-.9,2.7-8.3-2.7-10.3-1.2,0,0-.3-.6.3-1,3.6-2.1,6.2.6,9.6-.5Z"/>
  <path class="st20" d="M151.2,267.3c-.2.5,0,2.2-1.2,2.3s-6.4-2.8-7.2-3.6-.7-1.5-1-2.2c3.2,1,6,3.2,9.4,3.5Z"/>
  <path class="st21" d="M207.6,328.2c-1.3,0-1.1,0-.5,1-2.4-1.6-6.6-2.4-9.4-1.5,0-1.1.3-2.2,1.2-2.9,2.8,1.3,5.8,2.5,8.7,3.4Z"/>
  <path class="st26" d="M239.3,332.6c-1.9,3.9-3.9,3.2-6.4.2l6.4-.2Z"/>
  <path class="st17" d="M139.8,218.2c-.2-4.9-.6-10.8,1.5-15.4l-1.5,15.4Z"/>
  <path class="st47" d="M309.2,310.8c.4-1.4,2.7-2.3,3.3-3.1s-.3-1.5.6-1.3c.4,3.4-.3,5-4,4.5Z"/>
  <path class="st16" d="M324,299.9c-.1.2-3,.9-3.4.3l4-4.2c0,.7-.3,3.5-.6,3.9Z"/>
  <path class="st36" d="M257.2,331.7c-1.1,3.2-1.7,2.2-4,1l4-1Z"/>
  <path class="st53" d="M336.9,287.6c-.2-.1,1.7-2.9,2.5-3,.2,2.2,0,3.3-2.5,3Z"/>
  <path class="st53" d="M280.5,326.2c.2,1.3-1.9,2.8-2.5,1.2s1.5-1.2,2.5-1.2Z"/>
  <path class="st31" d="M157.1,91.4c0,0-.2-1.2-.6-1.6-.6-.9-2.4-2.2-2.4-3.1s3.2-4.3,3.7-4.2l4.7,4.2c-1.3.7-4.1,5.6-5.4,4.7Z"/>
  <path class="st6" d="M347.8,296c1.6-1.3,4.1-3.2,5.4-4.7s3.7-6.8,4.7-7.7,1.2-.6,2-.5c1.2.1,4.7,6.7,6.2,8.3,2.3,2.3,5.1,2.5,5,6.2-.9,2.5-2.7,4.8-5.4,6.7-5.2,7.2-7.3,9.4-12-.5l-4.5-2.9c-1.9-1.1-2-2.8-1.4-4.7Z"/>
  <path class="st6" d="M336,323.7c.5,2.9.7,5.9-2.7,6.8-3.3,5.5-8.2,13.4-12,2.9l-4-4.4c-2.1-1.1-2.8-2.5-2.1-4.3,1-1.7,2.9-2.3,4.5-3.5s.8-.1,1.2-.5c2.7-2.2,2.2-2.7,3.2-5.5,2.4-6.3,6.1,3.6,7.9,5.2s3,1.2,4,3.2Z"/>
  <path class="st39" d="M315.1,324.7c-.3,2.1,1.8,2.6,2.8,3.6s3.9,4.1,4.8,5.4.7,4,2.6,3.9c3.9-.3,4.8-5.1,7.4-7.8s1.5-.5,2.1-1.2c.9-1,1.3-3.5,1.2-4.9.7,1.4,1.2,4.9.6,6.3s-4.4,7.1-5.3,8.1-4.4,3.9-6,4c-2.4.1-5-2.7-6.4-4.5s-4.1-5.7-4.4-6.5c-.7-1.8-.2-4.7.7-6.4Z"/>
  <path class="st39" d="M371.1,297.5c0,1.1-1,4.7-1.5,5.7s-7.7,9.4-8.4,9.9c-1.7,1.1-3.2.9-4.9,0-2.7-1.5-9.5-9.8-9.5-12.8s.4-3.4,1-4.2c-.7,3.9,4.7,4.8,6.9,7.2s2.1,6.2,4.7,6.2,2.1-2,3.2-3.3,2.9-3.3,4-4.4,3.7-1.8,4.4-4.3Z"/>
  <path class="st7" d="M153.6,288.1c2.7,8.7.6,19.9-7.8,24.7-17,9.8-35.4-5.2-30.4-23.7s8.5-11.4,13.8-12.7c11.8-2.7,18.3,2.4,24.3,11.7Z"/>
  <path class="st56" d="M176.4,301.4c0,.4.2,1.1,0,1.4s-1.1,0-1.4.4c-1.2,1.7-2.2,6.5-3.2,8.6-2.2,5-6.6,13.9-10.4,17.3s-5.5-1.2-7.5-2.4-1.6-.5-2.4-1.1c-1.5-1-4.1-3.2-5.4-4.4s.9-1.2,1.8-1.7c3.8-2.2,8.4-6.8,9.8-11,2.1-6.1,3-11.9.2-18.1s-4.9-5.8-6.6-9c4.7,2.9,9.4,5.7,13.8,9.2s8,7,11.4,10.6Z"/>
  <path class="st49" d="M360.2,290.5c.2.1.9,3,1.5,3.7s2.4,1.3,3,2.5l-4.2,5.1c-1.3-.8-2.2-2.3-3.3-3.2s-3.3-1.1-2.4-2.7,1.8-1,2.6-2.1,1.7-4.2,2.8-3.4Z"/>
  <path class="st19" d="M326.1,330.7l-4-5.2c1.3-.4,3.6-4.5,4.7-4.2s3.7,4.3,3.7,4.6-3.7,4.3-4.4,4.8Z"/>
  <path class="st12" d="M125.6,307.7c-10.6-8.6-5-26.5,9-26.6,17.9-.2,20.8,23.8,4.7,29-4,1.3-10.4.3-13.7-2.4Z"/>
  <path class="st6" d="M125.5,305.3c-.3-.4-.3-1.4-.7-2s-1.4-1.3-1.8-2.2c-4.7-11.4,8.4-22.5,19-16.1,11.2,6.8,3.4,26.1-10.8,23.2s-5.5-2.5-5.8-2.9Z"/>
  <path class="st10" d="M139.3,289.1l-.8.8c-9.7-3-.9,6.8,2.2,1.8h1.1c1.7,2.6.9,4.6-.5,7.3-1.6,3.2-7.8,1.2-10-.5s-3.4-5.2-1.9-7.5c2.5-2.5,5-3.6,8.7-3s1,.8,1.2,1Z"/>
  <path class="st23" d="M141.3,299c-5.6,10.7-19.7,0-11.9-7.9,0,1.9.8,5.5,2.5,6.7s7.8,3.4,9.4,1.3Z"/>
  <path class="st11" d="M139.3,289.1c1.1.7,1.8,1.4,2.5,2.5-1.3,4.2-6.6,3-8.3-.4s3.4-2.6,5.8-2.1Z"/>
  <g class="st55">
    <g>
      <path class="st8" d="M192.9,278.7c-.3.5-1,.5-1.2,0l-.6-1.2c0-.2,0-.4,0-.6l.6-1.2c.3-.5,1-.5,1.2,0l.6,1.2c0,.2,0,.4,0,.6l-.6,1.2Z"/>
      <path class="st8" d="M192.9,285.6c-.3.5-1,.5-1.2,0l-.6-1.2c0-.2,0-.4,0-.6l.6-1.2c.3-.5,1-.5,1.2,0l.6,1.2c0,.2,0,.4,0,.6l-.6,1.2Z"/>
      <path class="st14" d="M185.3,283c0-.6.7-.9,1.2-.5l3.2,3.2c.4.4.1,1.2-.5,1.2h-3.2c-.4,0-.7-.3-.7-.7v-3.2ZM185.3,279.6c0,.2,0,.4.2.5l6.5,6.5c.1.1.3.2.5.2h3.6c.6,0,.9-.7.5-1.2l-10.1-10.1c-.4-.4-1.2-.1-1.2.5v3.6ZM185.3,272.7c0,.2,0,.4.2.5l13.5,13.5c.1.1.3.2.5.2h3.6c.6,0,.9-.7.5-1.2l-17.1-17.1c-.4-.4-1.2-.1-1.2.5v3.6ZM192.3,272.7c0,.2,0,.4.2.5l12.5,12.5c.4.4,1.2.1,1.2-.5v-3.6c0-.2,0-.4-.2-.5l-12.5-12.5c-.4-.4-1.2-.1-1.2.5v3.6ZM200.4,268.6c-.4-.4-1.2-.1-1.2.5v3.6c0,.2,0,.4.2.5l5.6,5.6c.4.4,1.2.1,1.2-.5v-3.6c0-.2,0-.4-.2-.5l-5.6-5.6Z"/>
      <path d="M214.9,283.1l-6.5-6.5c-.4-.4-1.2-.1-1.2.5v9.2c0,.4.3.7.7.7h10.1c.4,0,.7-.3.7-.7v-.8c0-.4-.3-.7-.7-.7-1.2-.2-2.3-.7-3.1-1.5ZM210.5,284.7c-.6,0-1.1-.5-1.1-1.1s.5-1.1,1.1-1.1,1.1.5,1.1,1.1-.5,1.1-1.1,1.1Z"/>
      <path class="st8" d="M185.3,286.2c0,.4.3.7.7.7h3.2c.6,0,.9-.7.5-1.2l-3.2-3.2c-.4-.4-1.2-.1-1.2.5v3.2Z"/>
      <path class="st8" d="M192.3,274.4l-5.8-5.8c-.4-.4-1.2-.1-1.2.5v3.6c0,.2,0,.4.2.5l6.7,6.7v-5.6Z"/>
      <path class="st8" d="M186.5,275.5c-.4-.4-1.2-.1-1.2.5v3.6c0,.2,0,.4.2.5l6.7,6.7v-5.6l-5.8-5.8Z"/>
      <path class="st42" d="M199.2,274.6c0-.2,0-.4-.2-.5l-5.6-5.6c-.4-.4-1.2-.1-1.2.5v3.6c0,.2,0,.4.2.5l6.7,6.7v-5.3Z"/>
      <path class="st42" d="M192.3,286.9h3.9c.6,0,.9-.7.5-1.2l-4.4-4.4v5.6Z"/>
      <path class="st42" d="M192.3,274.4v5.3c0,.2,0,.4.2.5l6.7,6.7v-5.3c0-.2,0-.4-.2-.5l-6.7-6.7Z"/>
      <path d="M226.8,284.1h2.9v-4.7h2.4c2.6,0,4.3-1.6,4.3-4s-1.7-4-4.3-4h-5.2v12.7ZM229.6,276.9v-3h2.1c1.1,0,1.7.6,1.7,1.5s-.7,1.5-1.7,1.5h-2.1Z"/>
      <path d="M241.5,284.2c2.8,0,4.8-2,4.8-4.7s-2-4.7-4.8-4.7-4.8,2-4.8,4.7,2,4.7,4.8,4.7ZM239.3,279.5c0-1.4.9-2.4,2.2-2.4s2.2,1,2.2,2.4-.9,2.4-2.2,2.4-2.2-1-2.2-2.4Z"/>
      <path d="M250.9,284.2c2.1,0,3.6-1.3,3.6-2.9,0-3.7-4.9-2.5-4.9-3.9s.4-.7,1-.7,1.4.4,1.6,1.2l2.1-.9c-.4-1.3-2-2.2-3.8-2.2s-3.3,1.2-3.3,2.6c0,3.5,4.8,2.5,4.8,3.9s-.5.8-1.2.8c-1,0-1.7-.7-1.9-1.6l-2.1.8c.5,1.4,1.8,2.7,4.1,2.7Z"/>
      <path d="M261.3,284l-.2-2.3c-.3.2-.7.2-1,.2-.7,0-1.1-.5-1.1-1.3v-3.5h2.2v-2.2h-2.2v-2.6h-2.7v2.6h-1.4v2.2h1.4v3.8c0,2.2,1.5,3.3,3.5,3.3s1,0,1.5-.2Z"/>
      <path d="M270.6,271.4v4.9h-5v-4.9h-2.9v12.7h2.9v-5.3h5v5.3h2.9v-12.7h-2.9Z"/>
      <path d="M279.8,284.2c2.8,0,4.8-2,4.8-4.7s-2-4.7-4.8-4.7-4.8,2-4.8,4.7,2,4.7,4.8,4.7ZM277.6,279.5c0-1.4.9-2.4,2.2-2.4s2.2,1,2.2,2.4-.9,2.4-2.2,2.4-2.2-1-2.2-2.4Z"/>
      <path d="M289.7,283.8c1,0,1.9-.3,2.4-.9v.9c0,1-.8,1.7-2.1,1.7s-1.7-.4-1.8-1.2l-2.4.4c.3,1.7,2.1,2.9,4.2,2.9s4.7-1.6,4.7-4.1v-8.5h-2.6v.8c-.5-.6-1.3-.9-2.4-.9-2.5,0-4.1,1.7-4.1,4.5s1.6,4.5,4.2,4.5ZM288.2,279.3c0-1.4.8-2.2,2-2.2s2,.9,2,2.2-.8,2.2-2,2.2-2-.9-2-2.2Z"/>
    </g>
  </g>
  <g>
    <g>
      <path class="st28" d="M120.4,166.9l5.2-1.6c.6,4.4,3.9,7.3,8,7.3s6.7-1.9,6.7-4.8c0-8.1-18.7-3.7-18.7-15.9s5-9.2,11.7-9.2,11.4,3.4,12.4,8.5l-5.1,2.1c-.7-3.5-3.4-5.7-7.3-5.7s-5.9,1.6-5.9,4.2c0,6.9,18.7,2.1,18.7,15.8s-5,9.9-12.7,9.9-12.1-4.4-13.1-10.6Z"/>
      <path class="st28" d="M158.2,148h-10.5v-5h26.7v5h-10.5v29.1h-5.7v-29.1Z"/>
      <path class="st28" d="M184.3,143h5.3l13.3,34.1h-5.9l-3-8h-14l-3,8h-5.9l13.3-34.1ZM181.8,164.2h10.3l-5.2-13.6-5.2,13.6Z"/>
      <path class="st28" d="M206.4,143h12.8c6.6,0,10.9,3.8,10.9,9.8s-2.1,7.3-5.7,8.9l9.4,15.4h-6.7l-8.5-14.5h-6.3v14.5h-5.7v-34.1ZM218.4,157.6c3.8,0,5.9-1.8,5.9-4.8s-2.1-4.8-5.9-4.8h-6.2v9.6h6.2Z"/>
      <path class="st28" d="M243.3,148h-10.5v-5h26.7v5h-10.5v29.1h-5.7v-29.1Z"/>
    </g>
    <g>
      <path class="st1" d="M120.4,166.9l5.2-1.6c.6,4.4,3.9,7.3,8,7.3s6.7-1.9,6.7-4.8c0-8.1-18.7-3.7-18.7-15.9s5-9.2,11.7-9.2,11.4,3.4,12.4,8.5l-5.1,2.1c-.7-3.5-3.4-5.7-7.3-5.7s-5.9,1.6-5.9,4.2c0,6.9,18.7,2.1,18.7,15.8s-5,9.9-12.7,9.9-12.1-4.4-13.1-10.6Z"/>
      <path class="st1" d="M158.2,148h-10.5v-5h26.7v5h-10.5v29.1h-5.7v-29.1Z"/>
      <path class="st1" d="M184.3,143h5.3l13.3,34.1h-5.9l-3-8h-14l-3,8h-5.9l13.3-34.1ZM181.8,164.2h10.3l-5.2-13.6-5.2,13.6Z"/>
      <path class="st1" d="M206.4,143h12.8c6.6,0,10.9,3.8,10.9,9.8s-2.1,7.3-5.7,8.9l9.4,15.4h-6.7l-8.5-14.5h-6.3v14.5h-5.7v-34.1ZM218.4,157.6c3.8,0,5.9-1.8,5.9-4.8s-2.1-4.8-5.9-4.8h-6.2v9.6h6.2Z"/>
      <path class="st1" d="M243.3,148h-10.5v-5h26.7v5h-10.5v29.1h-5.7v-29.1Z"/>
    </g>
    <g>
      <path class="st28" d="M120.4,166.9l5.2-1.6c.6,4.4,3.9,7.3,8,7.3s6.7-1.9,6.7-4.8c0-8.1-18.7-3.7-18.7-15.9s5-9.2,11.7-9.2,11.4,3.4,12.4,8.5l-5.1,2.1c-.7-3.5-3.4-5.7-7.3-5.7s-5.9,1.6-5.9,4.2c0,6.9,18.7,2.1,18.7,15.8s-5,9.9-12.7,9.9-12.1-4.4-13.1-10.6Z"/>
      <path class="st28" d="M158.2,148h-10.5v-5h26.7v5h-10.5v29.1h-5.7v-29.1Z"/>
      <path class="st28" d="M184.3,143h5.3l13.3,34.1h-5.9l-3-8h-14l-3,8h-5.9l13.3-34.1ZM181.8,164.2h10.3l-5.2-13.6-5.2,13.6Z"/>
      <path class="st28" d="M206.4,143h12.8c6.6,0,10.9,3.8,10.9,9.8s-2.1,7.3-5.7,8.9l9.4,15.4h-6.7l-8.5-14.5h-6.3v14.5h-5.7v-34.1ZM218.4,157.6c3.8,0,5.9-1.8,5.9-4.8s-2.1-4.8-5.9-4.8h-6.2v9.6h6.2Z"/>
      <path class="st28" d="M243.3,148h-10.5v-5h26.7v5h-10.5v29.1h-5.7v-29.1Z"/>
    </g>
  </g>
  <g>
    <g>
      <path class="st28" d="M180.8,209.9h13.4c6.8,0,11.2,4,11.2,10.2s-4.4,10.2-11.2,10.2h-7.7v13.7h-5.7v-34.1ZM193.9,225.3c3.6,0,5.7-1.9,5.7-5.2s-2.1-5.2-5.7-5.2h-7.3v10.4h7.3Z"/>
      <path class="st28" d="M209.9,209.9h5.7v29.1h16.3v5h-22v-34.1Z"/>
      <path class="st28" d="M246.1,209.9h5.3l13.3,34.1h-5.9l-3-8h-14l-3,8h-5.9l13.3-34.1ZM243.7,231h10.3l-5.2-13.6-5.2,13.6Z"/>
      <path class="st28" d="M268.3,209.9h6l15.6,25.1v-25.1h5.5v34.1h-6l-15.7-25v25h-5.4v-34.1Z"/>
    </g>
    <g>
      <path class="st1" d="M180.8,209.9h13.4c6.8,0,11.2,4,11.2,10.2s-4.4,10.2-11.2,10.2h-7.7v13.7h-5.7v-34.1ZM193.9,225.3c3.6,0,5.7-1.9,5.7-5.2s-2.1-5.2-5.7-5.2h-7.3v10.4h7.3Z"/>
      <path class="st1" d="M209.9,209.9h5.7v29.1h16.3v5h-22v-34.1Z"/>
      <path class="st1" d="M246.1,209.9h5.3l13.3,34.1h-5.9l-3-8h-14l-3,8h-5.9l13.3-34.1ZM243.7,231h10.3l-5.2-13.6-5.2,13.6Z"/>
      <path class="st1" d="M268.3,209.9h6l15.6,25.1v-25.1h5.5v34.1h-6l-15.7-25v25h-5.4v-34.1Z"/>
    </g>
    <g>
      <path class="st28" d="M180.8,209.9h13.4c6.8,0,11.2,4,11.2,10.2s-4.4,10.2-11.2,10.2h-7.7v13.7h-5.7v-34.1ZM193.9,225.3c3.6,0,5.7-1.9,5.7-5.2s-2.1-5.2-5.7-5.2h-7.3v10.4h7.3Z"/>
      <path class="st28" d="M209.9,209.9h5.7v29.1h16.3v5h-22v-34.1Z"/>
      <path class="st28" d="M246.1,209.9h5.3l13.3,34.1h-5.9l-3-8h-14l-3,8h-5.9l13.3-34.1ZM243.7,231h10.3l-5.2-13.6-5.2,13.6Z"/>
      <path class="st28" d="M268.3,209.9h6l15.6,25.1v-25.1h5.5v34.1h-6l-15.7-25v25h-5.4v-34.1Z"/>
    </g>
  </g>
  <g>
    <g>
      <path class="st28" d="M289.8,136.9v-22h5.4v22.1c0,4.8,3.2,7.4,7.8,7.4s7.8-2.6,7.8-7.4v-22.1h5.4v22c0,8-5.4,12.5-13.2,12.5s-13.3-4.5-13.3-12.5Z"/>
      <path class="st28" d="M323,115h13.4c6.8,0,11.2,4,11.2,10.2s-4.4,10.2-11.2,10.2h-7.7v13.7h-5.8v-34.1ZM336,130.4c3.6,0,5.7-1.9,5.7-5.2s-2.1-5.2-5.7-5.2h-7.3v10.4h7.3Z"/>
    </g>
    <g>
      <path class="st1" d="M289.8,136.9v-22h5.4v22.1c0,4.8,3.2,7.4,7.8,7.4s7.8-2.6,7.8-7.4v-22.1h5.4v22c0,8-5.4,12.5-13.2,12.5s-13.3-4.5-13.3-12.5Z"/>
      <path class="st1" d="M323,115h13.4c6.8,0,11.2,4,11.2,10.2s-4.4,10.2-11.2,10.2h-7.7v13.7h-5.8v-34.1ZM336,130.4c3.6,0,5.7-1.9,5.7-5.2s-2.1-5.2-5.7-5.2h-7.3v10.4h7.3Z"/>
    </g>
    <g>
      <path class="st28" d="M289.8,136.9v-22h5.4v22.1c0,4.8,3.2,7.4,7.8,7.4s7.8-2.6,7.8-7.4v-22.1h5.4v22c0,8-5.4,12.5-13.2,12.5s-13.3-4.5-13.3-12.5Z"/>
      <path class="st28" d="M323,115h13.4c6.8,0,11.2,4,11.2,10.2s-4.4,10.2-11.2,10.2h-7.7v13.7h-5.8v-34.1ZM336,130.4c3.6,0,5.7-1.9,5.7-5.2s-2.1-5.2-5.7-5.2h-7.3v10.4h7.3Z"/>
    </g>
  </g>
</svg>