<svg width="492" height="700" viewBox="0 0 492 700" fill="none" xmlns="http://www.w3.org/2000/svg">
<g clip-path="url(#clip0)">
<g filter="url(#filter0_dd)">
<ellipse rx="1224.21" ry="1204.5" transform="matrix(-1 0 0 1 -834.792 1149.5)" fill="#071E3D"/>
<ellipse rx="1224.21" ry="1204.5" transform="matrix(-1 0 0 1 -834.792 1149.5)" fill="url(#paint0_linear)"/>
</g>
<g opacity="0.3" filter="url(#filter1_df)">
<path d="M-324.188 82.1059L-130.982 253.279L-87.3271 292.798L-35.311 371.821L42.9191 403.196L96.3338 477.038L176.351 576.514L152.125 580.288L123.83 536.721L65.1082 481.904L84.6543 564.883L65.1525 613.14L22.6212 619.766L-75.9556 606.45L-87.7449 636.962L-32.8875 642.201L42.9924 700.963L97.9063 692.407L147.653 689.619L167.895 681.502L139.019 658.98L107.684 606.513L113.362 586.328L159.506 627.665L206.665 657.815L198.412 718.105L19.5481 723.916L-26.2608 684.732L-125.83 672.123L-234.182 659.778L-339.25 718.058L-389.094 713.141L-303.462 629.215L-206.254 577.122L-103.413 610.728L-205.252 516.308L-219.759 490.444L-200.916 487.509L-137.348 541.571L-73.0884 589.46L-0.583679 594.707L23.8672 578.214L-76.581 496.26L-68.3605 549.02L-2.51298 582.324L-70.5918 573.631L-114.737 538.048L-104.939 484.135L-68.8684 478.515L-9.89463 534.948L-45.1801 474.824L-174.897 424.45L-272.87 337.147L-366.123 227.051L-462.831 172.638L-465.595 222.147L-425.472 299.163L-395.619 356.273L-302.982 490.728L-178.943 561.287L-320.826 517.772L-407.688 413.297L-448.399 332.513L-430.222 587.203L-453.188 514.131L-498.661 282.443L-519.799 146.773L-452.985 122.577L-295.752 264.614L-179.594 394.302L-92.6529 432.039L-50.0453 443.598L12.3753 504.457L60.7906 585.144L34.3921 514.813L-23.5675 447.193L-97.0986 403.506L-100.454 381.971L-238.972 299.882L-340.154 202.602L-435.63 99.4696L-422.171 97.3725L-319.158 199.331L-222.143 284.026L-86.8193 363.303L-111.359 311.983L-94.0331 317.003L-126.453 282.351L-131.278 315.086L-219.911 259.415L-387.177 91.9202L-315.045 140.788L-266.397 191.11L-201.068 256.479L-173.584 266.534L-155.671 275.323L-139.667 261.249L-159.614 250.02L-205.766 226.33L-358.105 87.3905L-324.188 82.1059Z" fill="white"/>
<path d="M-324.188 82.1059L-130.982 253.279L-87.3271 292.798L-35.311 371.821L42.9191 403.196L96.3338 477.038L176.351 576.514L152.125 580.288L123.83 536.721L65.1082 481.904L84.6543 564.883L65.1525 613.14L22.6212 619.766L-75.9556 606.45L-87.7449 636.962L-32.8875 642.201L42.9924 700.963L97.9063 692.407L147.653 689.619L167.895 681.502L139.019 658.98L107.684 606.513L113.362 586.328L159.506 627.665L206.665 657.815L198.412 718.105L19.5481 723.916L-26.2608 684.732L-125.83 672.123L-234.182 659.778L-339.25 718.058L-389.094 713.141L-303.462 629.215L-206.254 577.122L-103.413 610.728L-205.252 516.308L-219.759 490.444L-200.916 487.509L-137.348 541.571L-73.0884 589.46L-0.583679 594.707L23.8672 578.214L-76.581 496.26L-68.3605 549.02L-2.51298 582.324L-70.5918 573.631L-114.737 538.048L-104.939 484.135L-68.8684 478.515L-9.89463 534.948L-45.1801 474.824L-174.897 424.45L-272.87 337.147L-366.123 227.051L-462.831 172.638L-465.595 222.147L-425.472 299.163L-395.619 356.273L-302.982 490.728L-178.943 561.287L-320.826 517.772L-407.688 413.297L-448.399 332.513L-430.222 587.203L-453.188 514.131L-498.661 282.443L-519.799 146.773L-452.985 122.577L-295.752 264.614L-179.594 394.302L-92.6529 432.039L-50.0453 443.598L12.3753 504.457L60.7906 585.144L34.3921 514.813L-23.5675 447.193L-97.0986 403.506L-100.454 381.971L-238.972 299.882L-340.154 202.602L-435.63 99.4696L-422.171 97.3725L-319.158 199.331L-222.143 284.026L-86.8193 363.303L-111.359 311.983L-94.0331 317.003L-126.453 282.351L-131.278 315.086L-219.911 259.415L-387.177 91.9202L-315.045 140.788L-266.397 191.11L-201.068 256.479L-173.584 266.534L-155.671 275.323L-139.667 261.249L-159.614 250.02L-205.766 226.33L-358.105 87.3905L-324.188 82.1059Z" fill="url(#paint1_linear)"/>
</g>
</g>
<defs>
<filter id="filter0_dd" x="-2158.94" y="-154.935" width="2648.29" height="2608.87" filterUnits="userSpaceOnUse" color-interpolation-filters="sRGB">
<feFlood flood-opacity="0" result="BackgroundImageFix"/>
<feColorMatrix in="SourceAlpha" type="matrix" values="0 0 0 0 0 0 0 0 0 0 0 0 0 0 0 0 0 0 127 0"/>
<feMorphology radius="7.68733" operator="dilate" in="SourceAlpha" result="effect1_dropShadow"/>
<feOffset/>
<feGaussianBlur stdDeviation="3.84367"/>
<feColorMatrix type="matrix" values="0 0 0 0 1 0 0 0 0 1 0 0 0 0 1 0 0 0 0.5 0"/>
<feBlend mode="normal" in2="BackgroundImageFix" result="effect1_dropShadow"/>
<feColorMatrix in="SourceAlpha" type="matrix" values="0 0 0 0 0 0 0 0 0 0 0 0 0 0 0 0 0 0 127 0"/>
<feMorphology radius="23.062" operator="dilate" in="SourceAlpha" result="effect2_dropShadow"/>
<feOffset/>
<feGaussianBlur stdDeviation="38.4367"/>
<feColorMatrix type="matrix" values="0 0 0 0 0.297014 0 0 0 0 0.491542 0 0 0 0 0.783333 0 0 0 1 0"/>
<feBlend mode="normal" in2="effect1_dropShadow" result="effect2_dropShadow"/>
<feBlend mode="normal" in="SourceGraphic" in2="effect2_dropShadow" result="shape"/>
</filter>
<filter id="filter1_df" x="-545.684" y="-5.68378" width="782.008" height="840.183" filterUnits="userSpaceOnUse" color-interpolation-filters="sRGB">
<feFlood flood-opacity="0" result="BackgroundImageFix"/>
<feColorMatrix in="SourceAlpha" type="matrix" values="0 0 0 0 0 0 0 0 0 0 0 0 0 0 0 0 0 0 127 0"/>
<feOffset dx="10.3419" dy="10.3419"/>
<feGaussianBlur stdDeviation="5.17094"/>
<feColorMatrix type="matrix" values="0 0 0 0 1 0 0 0 0 0.48 0 0 0 0 0 0 0 0 0.25 0"/>
<feBlend mode="normal" in2="BackgroundImageFix" result="effect1_dropShadow"/>
<feBlend mode="normal" in="SourceGraphic" in2="effect1_dropShadow" result="shape"/>
<feGaussianBlur stdDeviation="10.3419" result="effect2_foregroundBlur"/>
</filter>
<linearGradient id="paint0_linear" x1="323.252" y1="289.812" x2="705.697" y2="662.648" gradientUnits="userSpaceOnUse">
<stop stop-color="#4BA8B7"/>
<stop offset="0.173016" stop-color="#27808E"/>
<stop offset="0.623911" stop-color="#14163C"/>
<stop offset="1" stop-color="#01010A"/>
</linearGradient>
<linearGradient id="paint1_linear" x1="-209.245" y1="64.197" x2="-100.114" y2="764.618" gradientUnits="userSpaceOnUse">
<stop stop-color="white"/>
<stop offset="0.447917" stop-color="#80E0FF"/>
<stop offset="1" stop-color="#186254"/>
</linearGradient>
<clipPath id="clip0">
<rect width="492" height="700" fill="white"/>
</clipPath>
</defs>
</svg>
