<svg width="32" height="32" viewBox="0 0 32 32" fill="none" xmlns="http://www.w3.org/2000/svg">
<path d="M30.5375 15.6374L24.5 13.3749V6.59366C24.5 5.65616 23.9188 4.81866 23.0375 4.48741L16.7875 2.14366C16.2812 1.94991 15.7188 1.94991 15.2063 2.14366L8.95625 4.48741C8.075 4.81866 7.49375 5.65616 7.49375 6.59366V13.3749L1.45625 15.6374C0.58125 15.9687 0 16.8062 0 17.7437V24.6249C0 25.4749 0.48125 26.2562 1.24375 26.6374L7.49375 29.7624C8.125 30.0812 8.875 30.0812 9.50625 29.7624L16 26.5124L22.4937 29.7624C23.125 30.0812 23.875 30.0812 24.5063 29.7624L30.7563 26.6374C31.5188 26.2562 32 25.4749 32 24.6249V17.7437C32 16.8062 31.4188 15.9687 30.5375 15.6374ZM22.375 13.4249L17.0625 15.4187V11.1562L22.375 8.84366V13.4249ZM9.625 6.50616L16 4.11866L22.375 6.50616V6.54366L16 9.13116L9.625 6.54366V6.50616ZM14.875 24.6999L9.5625 27.3562V22.4124L14.875 19.9874V24.6999ZM14.875 17.6999L8.5 20.2874L2.125 17.6999V17.6624L8.5 15.2749L14.875 17.6624V17.6999ZM29.875 24.6999L24.5625 27.3562V22.4124L29.875 19.9874V24.6999ZM29.875 17.6999L23.5 20.2874L17.125 17.6999V17.6624L23.5 15.2749L29.875 17.6624V17.6999Z" fill="#BDBDBD"/>
</svg>
