<svg width="58" height="58" viewBox="0 0 58 58" fill="none" xmlns="http://www.w3.org/2000/svg">
<path d="M16.3914 28.7935C16.0229 29.5306 14.9711 29.5306 14.6026 28.7935L13.7212 27.0308C13.5804 26.7493 13.5804 26.4179 13.7212 26.1364L14.6026 24.3737C14.9711 23.6366 16.0229 23.6366 16.3914 24.3737L17.2728 26.1364C17.4135 26.4179 17.4135 26.7493 17.2728 27.0308L16.3914 28.7935ZM16.3914 38.7906C16.0229 39.5276 14.9711 39.5276 14.6026 38.7906L13.7212 37.0278C13.5804 36.7463 13.5804 36.4149 13.7212 36.1334L14.6026 34.3707C14.9711 33.6336 16.0229 33.6336 16.3914 34.3707L17.2728 36.1334C17.4135 36.4149 17.4135 36.7463 17.2728 37.0278L16.3914 38.7906Z" fill="#1D4AFF"/>
<path d="M5.5 34.996C5.5 34.1051 6.57714 33.6589 7.20711 34.2889L11.7905 38.8723C12.4205 39.5023 11.9743 40.5794 11.0834 40.5794H6.5C5.94771 40.5794 5.5 40.1317 5.5 39.5794V34.996ZM5.5 30.1682C5.5 30.4334 5.60536 30.6878 5.79289 30.8753L15.2041 40.2865C15.3916 40.474 15.646 40.5794 15.9112 40.5794H21.0804C21.9713 40.5794 22.4175 39.5023 21.7875 38.8723L7.20711 24.2919C6.57714 23.6619 5.5 24.1081 5.5 24.999V30.1682ZM5.5 20.1712C5.5 20.4364 5.60536 20.6908 5.79289 20.8783L25.2011 40.2865C25.3886 40.474 25.643 40.5794 25.9082 40.5794H31.0774C31.9683 40.5794 32.4145 39.5023 31.7845 38.8723L7.20711 14.2949C6.57715 13.6649 5.5 14.1111 5.5 15.002V20.1712ZM15.497 20.1712C15.497 20.4364 15.6024 20.6908 15.7899 20.8783L33.7839 38.8723C34.4139 39.5023 35.491 39.0561 35.491 38.1652V32.996C35.491 32.7308 35.3856 32.4764 35.1981 32.2889L17.2041 14.2949C16.5741 13.6649 15.497 14.1111 15.497 15.002V20.1712ZM27.2011 14.2949C26.5711 13.6649 25.494 14.1111 25.494 15.002V20.1712C25.494 20.4364 25.5994 20.6908 25.7869 20.8783L33.7839 28.8753C34.4139 29.5053 35.491 29.0591 35.491 28.1682V22.999C35.491 22.7338 35.3856 22.4794 35.1981 22.2919L27.2011 14.2949Z" fill="#F9BD2B"/>
<path d="M48.0248 35.1186L38.6121 25.7059C37.9821 25.0759 36.905 25.5221 36.905 26.413V39.5794C36.905 40.1317 37.3527 40.5794 37.905 40.5794H52.4856C53.0379 40.5794 53.4856 40.1317 53.4856 39.5794V38.3804C53.4856 37.8281 53.036 37.387 52.4883 37.3157C50.8076 37.0969 49.2355 36.3293 48.0248 35.1186ZM41.7035 37.3804C40.8206 37.3804 40.104 36.6638 40.104 35.7808C40.104 34.8979 40.8206 34.1813 41.7035 34.1813C42.5865 34.1813 43.3031 34.8979 43.3031 35.7808C43.3031 36.6638 42.5865 37.3804 41.7035 37.3804Z" fill="black"/>
<path d="M5.5 39.5794C5.5 40.1317 5.94771 40.5794 6.5 40.5794H11.0834C11.9743 40.5794 12.4205 39.5023 11.7905 38.8723L7.20711 34.2889C6.57714 33.6589 5.5 34.1051 5.5 34.996V39.5794ZM15.497 22.5848L7.20711 14.2949C6.57714 13.6649 5.5 14.1111 5.5 15.002V20.1712C5.5 20.4364 5.60536 20.6908 5.79289 20.8783L15.497 30.5824V22.5848ZM7.20711 24.2919C6.57714 23.6619 5.5 24.1081 5.5 24.999V30.1682C5.5 30.4334 5.60536 30.6878 5.79289 30.8753L15.497 40.5794V32.5818L7.20711 24.2919Z" fill="#1D4AFF"/>
<path d="M25.494 22.999C25.494 22.7338 25.3887 22.4794 25.2011 22.2919L17.2041 14.2949C16.5742 13.6649 15.497 14.1111 15.497 15.002V20.1712C15.497 20.4364 15.6024 20.6908 15.7899 20.8783L25.494 30.5824V22.999ZM15.497 40.5794H21.0804C21.9713 40.5794 22.4175 39.5023 21.7875 38.8723L15.497 32.5818V40.5794ZM15.497 22.5848V30.1682C15.497 30.4334 15.6024 30.6878 15.7899 30.8753L25.494 40.5794V32.996C25.494 32.7308 25.3887 32.4764 25.2011 32.2889L15.497 22.5848Z" fill="#F54E00"/>
</svg>
