<svg width="238" height="30" viewBox="0 0 238 30" fill="none" xmlns="http://www.w3.org/2000/svg">
<g clip-path="url(#clip0)">
<g clip-path="url(#clip1)">
<path d="M11.3914 17.2058C11.0229 17.9428 9.97106 17.9428 9.60253 17.2058L8.72117 15.443C8.5804 15.1615 8.5804 14.8301 8.72117 14.5486L9.60253 12.7859C9.97106 12.0488 11.0229 12.0488 11.3914 12.7859L12.2728 14.5486C12.4135 14.8301 12.4135 15.1615 12.2728 15.443L11.3914 17.2058Z" fill="#1D4AFF"/>
<path d="M11.3914 27.2028C11.0229 27.9398 9.97106 27.9398 9.60253 27.2028L8.72117 25.44C8.5804 25.1585 8.5804 24.8271 8.72117 24.5456L9.60253 22.7829C9.97106 22.0458 11.0229 22.0458 11.3914 22.7829L12.2728 24.5456C12.4135 24.8271 12.4135 25.1585 12.2728 25.44L11.3914 27.2028Z" fill="#1D4AFF"/>
<path d="M0.5 23.4082C0.5 22.5173 1.57714 22.0711 2.20711 22.7011L6.79049 27.2845C7.42046 27.9145 6.97429 28.9916 6.08339 28.9916H1.5C0.947715 28.9916 0.5 28.5439 0.5 27.9916V23.4082ZM0.5 18.5804C0.5 18.8456 0.605357 19.1 0.792893 19.2875L10.2041 28.6987C10.3916 28.8862 10.646 28.9916 10.9112 28.9916H16.0804C16.9713 28.9916 17.4175 27.9145 16.7875 27.2845L2.20711 12.7041C1.57714 12.0741 0.5 12.5203 0.5 13.4112V18.5804ZM0.5 8.58339C0.5 8.8486 0.605357 9.10296 0.792893 9.29049L20.2011 28.6987C20.3886 28.8862 20.643 28.9916 20.9082 28.9916H26.0774C26.9683 28.9916 27.4145 27.9145 26.7845 27.2845L2.20711 2.70711C1.57715 2.07715 0.5 2.52331 0.5 3.41421V8.58339ZM10.497 8.58339C10.497 8.8486 10.6024 9.10296 10.7899 9.29049L28.7839 27.2845C29.4139 27.9145 30.491 27.4683 30.491 26.5774V21.4082C30.491 21.143 30.3856 20.8886 30.1981 20.7011L12.2041 2.7071C11.5741 2.07714 10.497 2.52331 10.497 3.41421V8.58339ZM22.2011 2.70711C21.5711 2.07714 20.494 2.52331 20.494 3.41421V8.58339C20.494 8.8486 20.5994 9.10296 20.7869 9.29049L28.7839 17.2875C29.4139 17.9175 30.491 17.4713 30.491 16.5804V11.4112C30.491 11.146 30.3856 10.8916 30.1981 10.7041L22.2011 2.70711Z" fill="#F7A501"/>
<path d="M43.0249 23.5309L33.6121 14.1181C32.9822 13.4882 31.905 13.9343 31.905 14.8252V27.9916C31.905 28.5439 32.3527 28.9916 32.905 28.9916H47.4857C48.0379 28.9916 48.4857 28.5439 48.4857 27.9916V26.7926C48.4857 26.2403 48.0361 25.7993 47.4884 25.728C45.8076 25.5092 44.2356 24.7415 43.0249 23.5309ZM36.7036 25.7926C35.8207 25.7926 35.1041 25.076 35.1041 24.1931C35.1041 23.3101 35.8207 22.5936 36.7036 22.5936C37.5865 22.5936 38.3031 23.3101 38.3031 24.1931C38.3031 25.076 37.5865 25.7926 36.7036 25.7926Z" fill="#2D2D2D"/>
<path d="M0.5 27.9916C0.5 28.5439 0.947715 28.9916 1.5 28.9916H6.08339C6.97429 28.9916 7.42046 27.9145 6.7905 27.2845L2.20711 22.7011C1.57714 22.0712 0.5 22.5173 0.5 23.4082V27.9916Z" fill="#1D4AFF"/>
<path d="M10.497 10.997L2.20711 2.70711C1.57714 2.07714 0.5 2.52331 0.5 3.41421V8.58339C0.5 8.8486 0.605357 9.10296 0.792893 9.29049L10.497 18.9946V10.997Z" fill="#1D4AFF"/>
<path d="M2.20711 12.7041C1.57714 12.0741 0.5 12.5203 0.5 13.4112V18.5804C0.5 18.8456 0.605357 19.1 0.792893 19.2875L10.497 28.9916V20.994L2.20711 12.7041Z" fill="#1D4AFF"/>
<path d="M20.4941 11.4112C20.4941 11.146 20.3887 10.8916 20.2012 10.7041L12.2042 2.70711C11.5742 2.07714 10.4971 2.52331 10.4971 3.41421V8.58339C10.4971 8.8486 10.6024 9.10296 10.79 9.29049L20.4941 18.9946V11.4112Z" fill="#F96132"/>
<path d="M10.4971 28.9916H16.0805C16.9714 28.9916 17.4175 27.9145 16.7876 27.2845L10.4971 20.994V28.9916Z" fill="#F96132"/>
<path d="M10.4971 10.997V18.5804C10.4971 18.8456 10.6024 19.1 10.79 19.2875L20.4941 28.9916V21.4082C20.4941 21.143 20.3887 20.8887 20.2012 20.7011L10.4971 10.997Z" fill="#F96132"/>
</g>
<path d="M60.1497 25H64.2577V18.188H67.6897C71.4597 18.188 73.8777 15.9521 73.8777 12.494C73.8777 9.03605 71.4597 6.80005 67.6897 6.80005H60.1497V25ZM64.2577 14.678V10.3101H67.2737C68.8337 10.3101 69.7697 11.142 69.7697 12.494C69.7697 13.8461 68.8337 14.678 67.2737 14.678H64.2577Z" fill="black"/>
<path d="M81.3096 25.208C85.3136 25.208 88.2256 22.348 88.2256 18.448C88.2256 14.548 85.3136 11.688 81.3096 11.688C77.2536 11.688 74.3936 14.548 74.3936 18.448C74.3936 22.348 77.2536 25.208 81.3096 25.208ZM78.1896 18.448C78.1896 16.368 79.4376 14.938 81.3096 14.938C83.1556 14.938 84.4036 16.368 84.4036 18.448C84.4036 20.528 83.1556 21.958 81.3096 21.958C79.4376 21.958 78.1896 20.528 78.1896 18.448Z" fill="black"/>
<path d="M94.7995 25.208C97.8675 25.208 99.9475 23.284 99.9475 21.022C99.9475 15.718 92.9015 17.434 92.9015 15.354C92.9015 14.7821 93.4995 14.4181 94.3575 14.4181C95.2415 14.4181 96.3075 14.964 96.6455 16.16L99.7135 14.886C99.1155 12.988 96.9055 11.688 94.2275 11.688C91.3415 11.688 89.5475 13.404 89.5475 15.458C89.5475 20.424 96.4895 19.046 96.4895 21.1C96.4895 21.828 95.8135 22.3221 94.7995 22.3221C93.3435 22.3221 92.3295 21.3081 92.0175 20.0861L88.9495 21.282C89.6255 23.258 91.6015 25.208 94.7995 25.208Z" fill="black"/>
<path d="M109.83 24.8701L109.57 21.5681C109.128 21.8021 108.556 21.88 108.088 21.88C107.152 21.88 106.528 21.2041 106.528 20.034V15.068H109.7V11.896H106.528V8.10005H102.706V11.896H100.626V15.068H102.706V20.528C102.706 23.7001 104.864 25.208 107.698 25.208C108.478 25.208 109.206 25.0781 109.83 24.8701Z" fill="black"/>
<path d="M123.156 6.80005V13.872H115.928V6.80005H111.82V25H115.928V17.382H123.156V25H127.29V6.80005H123.156Z" fill="black"/>
<path d="M136.408 25.208C140.412 25.208 143.324 22.348 143.324 18.448C143.324 14.548 140.412 11.688 136.408 11.688C132.352 11.688 129.492 14.548 129.492 18.448C129.492 22.348 132.352 25.208 136.408 25.208ZM133.288 18.448C133.288 16.368 134.536 14.938 136.408 14.938C138.254 14.938 139.502 16.368 139.502 18.448C139.502 20.528 138.254 21.958 136.408 21.958C134.536 21.958 133.288 20.528 133.288 18.448Z" fill="black"/>
<path d="M150.701 24.584C152.131 24.584 153.405 24.09 154.081 23.232V24.48C154.081 25.936 152.911 26.9501 151.117 26.9501C149.843 26.9501 148.725 26.326 148.543 25.26L145.059 25.806C145.527 28.276 148.049 29.9401 151.117 29.9401C155.147 29.9401 157.825 27.574 157.825 24.064V11.896H154.055V13.014C153.353 12.208 152.157 11.688 150.623 11.688C146.983 11.688 144.695 14.184 144.695 18.136C144.695 22.088 146.983 24.584 150.701 24.584ZM148.413 18.136C148.413 16.186 149.557 14.938 151.325 14.938C153.119 14.938 154.263 16.186 154.263 18.136C154.263 20.086 153.119 21.334 151.325 21.334C149.557 21.334 148.413 20.086 148.413 18.136Z" fill="black"/>
</g>
<path d="M175.51 25.208C179.8 25.208 182.842 23.05 183.7 19.436L179.566 18.5C179.15 20.45 177.616 21.672 175.484 21.672C172.702 21.672 170.492 19.696 170.492 15.9C170.492 12.104 172.728 10.102 175.484 10.102C177.59 10.102 179.254 11.48 179.67 13.664L183.752 12.806C183.232 9.036 180.06 6.592 175.51 6.592C170.648 6.592 166.358 9.764 166.358 15.9C166.358 22.036 170.57 25.208 175.51 25.208ZM185.917 25H189.739V6.592H185.917V25ZM198.703 25.208C202.707 25.208 205.619 22.348 205.619 18.448C205.619 14.548 202.707 11.688 198.703 11.688C194.647 11.688 191.787 14.548 191.787 18.448C191.787 22.348 194.647 25.208 198.703 25.208ZM195.583 18.448C195.583 16.368 196.831 14.938 198.703 14.938C200.549 14.938 201.797 16.368 201.797 18.448C201.797 20.528 200.549 21.958 198.703 21.958C196.831 21.958 195.583 20.528 195.583 18.448ZM220.276 11.896H216.454V17.642C216.454 20.346 215.518 21.828 213.698 21.828C212.32 21.828 211.436 20.866 211.436 19.436V11.896H207.64V20.45C207.64 23.336 209.564 25.208 212.45 25.208C214.244 25.208 215.674 24.402 216.454 23.258V25H220.276V11.896ZM228.481 25.208C229.963 25.208 231.289 24.636 231.965 23.7V25H235.787V6.592H231.965V13.144C231.237 12.26 230.015 11.688 228.429 11.688C224.633 11.688 222.319 14.34 222.319 18.448C222.319 22.556 224.633 25.208 228.481 25.208ZM226.037 18.448C226.037 16.342 227.285 14.938 229.105 14.938C230.977 14.938 232.199 16.342 232.199 18.448C232.199 20.554 230.977 21.958 229.105 21.958C227.285 21.958 226.037 20.554 226.037 18.448Z" fill="black"/>
<defs>
<clipPath id="clip0">
<rect width="157" height="30" fill="white" transform="translate(0.5)"/>
</clipPath>
<clipPath id="clip1">
<rect width="50" height="30" fill="white" transform="translate(0.5)"/>
</clipPath>
</defs>
</svg>
