<svg fill="none" height="30" viewBox="0 0 236 30" width="236" xmlns="http://www.w3.org/2000/svg" xmlns:xlink="http://www.w3.org/1999/xlink"><clipPath id="a"><path d="m0 0h157v30h-157z"/></clipPath><g clip-path="url(#a)"><path d="m10.8919 17.2058c-.3685.7371-1.42035.7371-1.78888 0l-.88137-1.7627c-.14076-.2815-.14076-.6129 0-.8944l.88137-1.7628c.36853-.737 1.42038-.737 1.78888 0l.8813 1.7628c.1408.2815.1408.6129 0 .8944z" fill="#1d4aff"/><path d="m10.8919 27.2026c-.3685.7371-1.42035.7371-1.78888 0l-.88137-1.7627c-.14076-.2815-.14076-.6129 0-.8944l.88137-1.7627c.36852-.7371 1.42038-.7371 1.78888 0l.8813 1.7627c.1408.2815.1408.6129 0 .8944z" fill="#1d4aff"/><path d="m0 23.4082c0-.8909 1.07714-1.3371 1.70711-.7071l4.58338 4.5834c.62997.63.1838 1.7071-.7071 1.7071h-4.583391c-.552284 0-.999999-.4477-.999999-1zm0-4.8278c0 .2652.105357.5196.292893.7071l9.411217 9.4112c.18753.1875.44189.2929.70709.2929h5.1692c.8909 0 1.3371-1.0771.7071-1.7071l-14.58039-14.5804c-.62997-.63-1.70711-.1838-1.70711.7071zm0-9.99701c0 .26521.105357.51957.292893.7071l19.408207 19.40821c.1875.1875.4419.2929.7071.2929h5.1692c.8909 0 1.3371-1.0771.7071-1.7071l-24.57739-24.57739c-.62996-.62996-1.70711-.1838-1.70711.7071zm9.997 0c0 .26521.1054.51957.2929.7071l17.994 17.99401c.63.63 1.7071.1838 1.7071-.7071v-5.1692c0-.2652-.1054-.5196-.2929-.7071l-17.994-17.994c-.63-.62996-1.7071-.18379-1.7071.70711zm11.7041-5.87628c-.63-.62997-1.7071-.1838-1.7071.7071v5.16918c0 .26521.1054.51957.2929.7071l7.997 7.99701c.63.63 1.7071.1838 1.7071-.7071v-5.1692c0-.2652-.1054-.5196-.2929-.7071z" fill="#f9bd2b"/><path d="m42.5242 23.5308-9.4128-9.4128c-.63-.63-1.7071-.1838-1.7071.7071v13.1664c0 .5523.4477 1 1 1h14.5806c.5523 0 1-.4477 1-1v-1.199c0-.5523-.4496-.9933-.9972-1.0646-1.6808-.2189-3.2529-.9865-4.4635-2.1971zm-6.3213 2.2617c-.883 0-1.5996-.7166-1.5996-1.5995 0-.883.7166-1.5996 1.5996-1.5996.8829 0 1.5995.7166 1.5995 1.5996 0 .8829-.7166 1.5995-1.5995 1.5995z" fill="#000"/><path d="m0 27.9915c0 .5523.447715 1 1 1h4.58339c.8909 0 1.33707-1.0771.70711-1.7071l-4.58339-4.5834c-.62997-.63-1.70711-.1838-1.70711.7071z" fill="#1d4aff"/><path d="m9.997 10.997-8.28989-8.28989c-.62997-.62997-1.70711-.1838-1.70711.7071v5.16918c0 .26521.105357.51957.292893.7071l9.704107 9.70411z" fill="#1d4aff"/><path d="m1.70711 12.7042c-.62997-.63-1.70711-.1838-1.70711.7071v5.1692c0 .2652.105357.5195.292893.7071l9.704107 9.7041v-7.9976z" fill="#1d4aff"/><path d="m19.9931 11.4112c0-.2652-.1054-.5196-.2929-.7071l-7.997-7.99699c-.63-.62997-1.70711-.1838-1.70711.7071v5.16918c0 .26521.10541.51957.29291.7071l9.7041 9.70411z" fill="#f54e00"/><path d="m9.99609 28.9915h5.58341c.8909 0 1.3371-1.0771.7071-1.7071l-6.29051-6.2905z" fill="#f54e00"/><path d="m9.99609 10.9971v7.5834c0 .2652.10541.5195.29291.7071l9.7041 9.7041v-7.5834c0-.2652-.1054-.5196-.2929-.7071z" fill="#f54e00"/><g fill="#000"><path d="m59.6504 25h4.108v-6.812h3.432c3.77 0 6.188-2.2359 6.188-5.694 0-3.45795-2.418-5.69395-6.188-5.69395h-7.54zm4.108-10.322v-4.3679h3.016c1.56 0 2.496.8319 2.496 2.1839 0 1.3521-.936 2.184-2.496 2.184z"/><path d="m80.8103 25.208c4.004 0 6.916-2.86 6.916-6.76s-2.912-6.76-6.916-6.76c-4.056 0-6.916 2.86-6.916 6.76s2.86 6.76 6.916 6.76zm-3.12-6.76c0-2.08 1.248-3.51 3.12-3.51 1.846 0 3.094 1.43 3.094 3.51s-1.248 3.51-3.094 3.51c-1.872 0-3.12-1.43-3.12-3.51z"/><path d="m94.3003 25.208c3.068 0 5.148-1.924 5.148-4.186 0-5.304-7.046-3.588-7.046-5.668 0-.5719.598-.9359 1.456-.9359.884 0 1.95.5459 2.288 1.7419l3.068-1.274c-.598-1.898-2.808-3.198-5.486-3.198-2.886 0-4.68 1.716-4.68 3.77 0 4.966 6.942 3.588 6.942 5.642 0 .728-.676 1.2221-1.69 1.2221-1.456 0-2.47-1.014-2.782-2.236l-3.068 1.1959c.676 1.976 2.652 3.926 5.85 3.926z"/><path d="m109.331 24.8701-.26-3.302c-.442.234-1.014.3119-1.482.3119-.936 0-1.56-.6759-1.56-1.846v-4.966h3.172v-3.172h-3.172v-3.79595h-3.822v3.79595h-2.08v3.172h2.08v5.46c0 3.1721 2.158 4.68 4.992 4.68.78 0 1.508-.1299 2.132-.3379z"/><path d="m122.657 6.80005v7.07195h-7.228v-7.07195h-4.108v18.19995h4.108v-7.618h7.228v7.618h4.134v-18.19995z"/><path d="m135.909 25.208c4.004 0 6.916-2.86 6.916-6.76s-2.912-6.76-6.916-6.76c-4.056 0-6.916 2.86-6.916 6.76s2.86 6.76 6.916 6.76zm-3.12-6.76c0-2.08 1.248-3.51 3.12-3.51 1.846 0 3.094 1.43 3.094 3.51s-1.248 3.51-3.094 3.51c-1.872 0-3.12-1.43-3.12-3.51z"/><path d="m150.202 24.584c1.43 0 2.704-.494 3.38-1.352v1.248c0 1.456-1.17 2.4701-2.964 2.4701-1.274 0-2.392-.6241-2.574-1.6901l-3.484.546c.468 2.47 2.99 4.1341 6.058 4.1341 4.03 0 6.708-2.3661 6.708-5.8761v-12.168h-3.77v1.118c-.702-.806-1.898-1.326-3.432-1.326-3.64 0-5.928 2.496-5.928 6.448s2.288 6.448 6.006 6.448zm-2.288-6.448c0-1.95 1.144-3.198 2.912-3.198 1.794 0 2.938 1.248 2.938 3.198s-1.144 3.198-2.938 3.198c-1.768 0-2.912-1.248-2.912-3.198z"/></g></g><g fill="#000"><path d="m166.639 25h6.214c4.992 0 9.438-2.86 9.438-9.1 0-6.23995-4.446-9.09995-9.438-9.09995h-6.214zm4.03-3.5359v-11.154h1.742c2.938 0 5.746 1.3779 5.746 5.5899s-2.808 5.5641-5.746 5.5641z"/><path d="m183.702 18.448c0 3.25 2.21 6.76 6.734 6.76 3.12 0 5.46-1.43 6.24-3.8999l-3.588-.962c-.286 1.092-1.248 1.6899-2.548 1.6899-1.612 0-2.704-.884-3.068-2.496h9.412c.026-.286.052-.91.052-1.43 0-2.912-2.002-6.422-6.734-6.422-4.524 0-6.5 3.51-6.5 6.76zm3.822-1.6119c.364-1.5341 1.3-2.3141 2.678-2.3141 1.69 0 2.522.988 2.652 2.3141z"/><path d="m198.996 25h3.822v-6.708c0-2.08.91-3.406 2.47-3.406 1.326 0 2.106.8841 2.106 2.3141v7.7999h3.77v-6.708c0-2.106.91-3.406 2.496-3.406 1.352 0 2.132.8841 2.132 2.3141v7.7999h3.796v-8.9179c0-2.496-1.872-4.3941-4.706-4.3941-2.132 0-3.718 1.092-4.42 2.34-.65-1.5079-1.924-2.34-3.952-2.34-1.742 0-2.938.806-3.692 1.976v-1.768h-3.822z"/><path d="m228.564 25.208c4.004 0 6.916-2.86 6.916-6.76s-2.912-6.76-6.916-6.76c-4.056 0-6.916 2.86-6.916 6.76s2.86 6.76 6.916 6.76zm-3.12-6.76c0-2.08 1.248-3.51 3.12-3.51 1.846 0 3.094 1.43 3.094 3.51s-1.248 3.51-3.094 3.51c-1.872 0-3.12-1.43-3.12-3.51z"/></g></svg>