<svg xmlns="http://www.w3.org/2000/svg" viewBox="0 0 160 28" aria-hidden="true" width="160"><g clip-path="url(#logo-landscape-color-gradient-clip0_56_1021)"><path fill="#111" d="M51.66 25.22A1.9 1.9 0 0 0 50 23.33l-.34-.04c-1-.13-1.94-.6-2.65-1.33L33.28 7.75V28H49a2.66 2.66 0 0 0 2.67-2.67zM39.2 23.54h-.09a1.78 1.78 0 1 1 .1 0"/><path fill="url(#logo-landscape-color-gradient-paint0_linear_56_1021)" d="M21.96 2.67v4.96l11.3 11.6h.02V7.75L26.63.85a2.8 2.8 0 0 0-2-.85 2.67 2.67 0 0 0-2.67 2.67"/><path fill="url(#logo-landscape-color-gradient-paint1_linear_56_1021)" d="M21.96 7.63v11.05L31.03 28h2.25v-8.75z"/><path fill="url(#logo-landscape-color-gradient-paint2_linear_56_1021)" d="M21.96 28h9.07l-9.07-9.32z"/><path fill="url(#logo-landscape-color-gradient-paint3_linear_56_1021)" d="M10.74 2.66v4.5l11.22 11.52V7.63L15.3.8a2.66 2.66 0 0 0-4.56 1.86"/><path fill="url(#logo-landscape-color-gradient-paint4_linear_56_1021)" d="M10.74 28h8.96l-8.96-9.32z"/><path fill="url(#logo-landscape-color-gradient-paint5_linear_56_1021)" d="M10.74 7.16v11.52L19.7 28h2.26v-9.32z"/><path fill="url(#logo-landscape-color-gradient-paint6_linear_56_1021)" d="M10.74 7.16 4.54.8A2.66 2.66 0 0 0 0 2.66V7.5l10.74 11.18z"/><path fill="url(#logo-landscape-color-gradient-paint7_linear_56_1021)" d="M9.19 28h1.55v-9.32L0 7.5v10.73z"/><path fill="url(#logo-landscape-color-gradient-paint8_linear_56_1021)" d="M0 25.41A2.6 2.6 0 0 0 2.58 28H9.2L0 18.23z"/></g><path fill="#111" d="M64.9 22.88c-.67 0-1.23-.56-1.23-1.24V5.24c0-.69.56-1.24 1.24-1.24h6.55c3.89 0 6.39 2.32 6.39 5.9 0 3.6-2.5 5.91-6.4 5.91h-3.53v5.83c0 .68-.56 1.24-1.24 1.24zm3.02-11.94c0 .68.55 1.23 1.23 1.23h1.88c1.6 0 2.58-.86 2.58-2.26s-.97-2.27-2.58-2.27h-1.88c-.68 0-1.23.55-1.23 1.23zM84.71 23.1c-4.18 0-7.14-2.97-7.14-7.02s2.96-7.01 7.14-7.01c4.14 0 7.14 2.97 7.14 7.01 0 4.05-3 7.01-7.14 7.01m-3.22-7.02c0 2.16 1.3 3.64 3.22 3.64 1.9 0 3.2-1.48 3.2-3.64s-1.3-3.64-3.2-3.64c-1.93 0-3.22 1.48-3.22 3.64m16.34 7.03a6.2 6.2 0 0 1-5.54-3.01c-.34-.57-.01-1.26.6-1.5l.77-.3c.7-.27 1.45.15 1.92.73a2.8 2.8 0 0 0 2.25 1.08c1.05 0 1.75-.51 1.75-1.27 0-2.13-7.17-.7-7.17-5.85 0-2.13 1.85-3.91 4.83-3.91 2.27 0 4.2.9 5.17 2.31.36.53.05 1.2-.54 1.44l-.85.35c-.68.29-1.45-.14-2-.63a2.5 2.5 0 0 0-1.64-.64c-.89 0-1.5.38-1.5.97 0 2.16 7.27.38 7.27 5.88 0 2.35-2.15 4.34-5.32 4.34m14.64-1.31c.04.57-.3 1.1-.86 1.2q-.6.1-1.27.11c-2.92 0-5.15-1.56-5.15-4.85v-5.66h-.91c-.69 0-1.24-.56-1.24-1.24v-.82c0-.68.55-1.23 1.24-1.23h.91v-2.7c0-.69.55-1.24 1.23-1.24h1.48c.68 0 1.24.55 1.24 1.23v2.7h2.04c.68 0 1.23.56 1.23 1.24v.82c0 .68-.55 1.24-1.23 1.24h-2.04v5.15c0 1.2.64 1.91 1.6 1.91.75 0 1.6.5 1.66 1.25zM125.5 5.23c0-.68.55-1.23 1.23-1.23h1.8c.68 0 1.23.55 1.23 1.23v16.41c0 .68-.55 1.24-1.23 1.24h-1.8c-.68 0-1.23-.56-1.23-1.24v-5.43c0-.68-.56-1.23-1.24-1.23h-5c-.67 0-1.23.55-1.23 1.23v5.43c0 .68-.55 1.24-1.23 1.24h-1.77c-.69 0-1.24-.56-1.24-1.24V5.24c0-.69.55-1.24 1.24-1.24h1.77c.68 0 1.23.55 1.23 1.23v4.87c0 .68.56 1.23 1.24 1.23h5c.67 0 1.23-.55 1.23-1.23zm12.87 17.87c-4.19 0-7.14-2.97-7.14-7.02s2.95-7.01 7.14-7.01c4.13 0 7.14 2.97 7.14 7.01 0 4.05-3 7.01-7.14 7.01m-3.22-7.02c0 2.16 1.29 3.64 3.22 3.64 1.9 0 3.2-1.48 3.2-3.64s-1.3-3.64-3.2-3.64c-1.93 0-3.22 1.48-3.22 3.64m17.17 6.37c-3.84 0-6.2-2.58-6.2-6.68s2.36-6.69 6.12-6.69c1.58 0 2.82.54 3.54 1.37 0-.64.52-1.15 1.16-1.15h1.5c.68 0 1.24.55 1.24 1.23V21.9c0 3.64-2.77 6.09-6.93 6.09-2.64 0-4.9-1.2-5.85-3.09-.31-.62.16-1.29.85-1.4l1.14-.17c.67-.11 1.29.4 1.78.85.5.46 1.26.7 2.08.7 1.85 0 3.06-1.04 3.06-2.55v-1.3c-.7.9-2.01 1.4-3.49 1.4m-2.36-6.68c0 2.02 1.18 3.31 3 3.31 1.86 0 3.04-1.29 3.04-3.31s-1.18-3.32-3.03-3.32c-1.83 0-3.01 1.3-3.01 3.32"/><defs><linearGradient id="logo-landscape-color-gradient-paint0_linear_56_1021" x1="21.96" x2="33.28" y1="9.62" y2="9.62" gradientUnits="userSpaceOnUse"><stop stop-color="#ffd849"/><stop offset=".96" stop-color="#fbae01"/></linearGradient><linearGradient id="logo-landscape-color-gradient-paint1_linear_56_1021" x1="21.96" x2="33.28" y1="17.81" y2="17.81" gradientUnits="userSpaceOnUse"><stop stop-color="#ffb700"/><stop offset="1" stop-color="#f9aa01"/></linearGradient><linearGradient id="logo-landscape-color-gradient-paint2_linear_56_1021" x1="21.96" x2="31.03" y1="23.34" y2="23.34" gradientUnits="userSpaceOnUse"><stop stop-color="#ff9500"/><stop offset="1" stop-color="#f8aa00"/></linearGradient><linearGradient id="logo-landscape-color-gradient-paint3_linear_56_1021" x1="10.74" x2="21.96" y1="9.34" y2="9.34" gradientUnits="userSpaceOnUse"><stop stop-color="#ff651e"/><stop offset="1" stop-color="#e4400a"/></linearGradient><linearGradient id="logo-landscape-color-gradient-paint4_linear_56_1021" x1="10.74" x2="19.7" y1="23.34" y2="23.34" gradientUnits="userSpaceOnUse"><stop stop-color="#c42c00"/><stop offset="1" stop-color="#d63600"/></linearGradient><linearGradient id="logo-landscape-color-gradient-paint5_linear_56_1021" x1="10.74" x2="21.96" y1="17.58" y2="17.58" gradientUnits="userSpaceOnUse"><stop stop-color="#ef3c00"/><stop offset="1" stop-color="#d63601"/></linearGradient><linearGradient id="logo-landscape-color-gradient-paint6_linear_56_1021" x1="0" x2="10.74" y1="9.34" y2="9.34" gradientUnits="userSpaceOnUse"><stop stop-color="#3f80ff"/><stop offset="1" stop-color="#084fe0"/></linearGradient><linearGradient id="logo-landscape-color-gradient-paint7_linear_56_1021" x1="0" x2="10.74" y1="17.75" y2="17.75" gradientUnits="userSpaceOnUse"><stop stop-color="#0255ff"/><stop offset="1" stop-color="#0145d2"/></linearGradient><linearGradient id="logo-landscape-color-gradient-paint8_linear_56_1021" x1="0" x2="9.19" y1="23.11" y2="23.11" gradientUnits="userSpaceOnUse"><stop stop-color="#0041c6"/><stop offset="1" stop-color="#0045d0"/></linearGradient><clipPath id="logo-landscape-color-gradient-clip0_56_1021"><path fill="#fff" d="M0 0h51.67v28H0z"/></clipPath></defs></svg>