<svg width="157" height="30" viewBox="0 0 157 30" fill="none" xmlns="http://www.w3.org/2000/svg">
<g clip-path="url(#clip0)">
<path d="M10.8914 17.2057C10.5229 17.9427 9.47106 17.9427 9.10253 17.2057L8.22117 15.443C8.0804 15.1614 8.0804 14.8301 8.22117 14.5485L9.10253 12.7858C9.47106 12.0488 10.5229 12.0488 10.8914 12.7858L11.7728 14.5485C11.9135 14.8301 11.9135 15.1614 11.7728 15.443L10.8914 17.2057Z" fill="#1D4AFF"/>
<path d="M10.8914 27.2028C10.5229 27.9398 9.47106 27.9398 9.10253 27.2028L8.22117 25.44C8.0804 25.1585 8.0804 24.8271 8.22117 24.5456L9.10253 22.7829C9.47106 22.0458 10.5229 22.0458 10.8914 22.7829L11.7728 24.5456C11.9135 24.8271 11.9135 25.1585 11.7728 25.44L10.8914 27.2028Z" fill="#1D4AFF"/>
<path d="M0 23.4082C0 22.5173 1.07714 22.0711 1.70711 22.7011L6.29049 27.2845C6.92046 27.9145 6.47429 28.9916 5.58339 28.9916H0.999999C0.447715 28.9916 0 28.5439 0 27.9916V23.4082ZM0 18.5804C0 18.8456 0.105357 19.1 0.292893 19.2875L9.70411 28.6987C9.89164 28.8862 10.146 28.9916 10.4112 28.9916H15.5804C16.4713 28.9916 16.9175 27.9145 16.2875 27.2845L1.70711 12.7041C1.07714 12.0741 0 12.5203 0 13.4112V18.5804ZM0 8.58339C0 8.8486 0.105357 9.10296 0.292893 9.29049L19.7011 28.6987C19.8886 28.8862 20.143 28.9916 20.4082 28.9916H25.5774C26.4683 28.9916 26.9145 27.9145 26.2845 27.2845L1.70711 2.70711C1.07715 2.07715 0 2.52331 0 3.41421V8.58339ZM9.997 8.58339C9.997 8.8486 10.1024 9.10296 10.2899 9.29049L28.2839 27.2845C28.9139 27.9145 29.991 27.4683 29.991 26.5774V21.4082C29.991 21.143 29.8856 20.8886 29.6981 20.7011L11.7041 2.7071C11.0741 2.07714 9.997 2.52331 9.997 3.41421V8.58339ZM21.7011 2.70711C21.0711 2.07714 19.994 2.52331 19.994 3.41421V8.58339C19.994 8.8486 20.0994 9.10296 20.2869 9.29049L28.2839 17.2875C28.9139 17.9175 29.991 17.4713 29.991 16.5804V11.4112C29.991 11.146 29.8856 10.8916 29.6981 10.7041L21.7011 2.70711Z" fill="#F7A501"/>
<path d="M42.5249 23.5309L33.1121 14.1181C32.4822 13.4882 31.405 13.9343 31.405 14.8252V27.9916C31.405 28.5439 31.8527 28.9916 32.405 28.9916H46.9857C47.5379 28.9916 47.9857 28.5439 47.9857 27.9916V26.7926C47.9857 26.2403 47.5361 25.7993 46.9884 25.728C45.3076 25.5092 43.7356 24.7415 42.5249 23.5309ZM36.2036 25.7926C35.3207 25.7926 34.6041 25.076 34.6041 24.1931C34.6041 23.3101 35.3207 22.5936 36.2036 22.5936C37.0865 22.5936 37.8031 23.3101 37.8031 24.1931C37.8031 25.076 37.0865 25.7926 36.2036 25.7926Z" fill="#2D2D2D"/>
<path d="M0 27.9916C0 28.5439 0.447715 28.9916 1 28.9916H5.58339C6.47429 28.9916 6.92046 27.9145 6.2905 27.2845L1.70711 22.7011C1.07714 22.0712 0 22.5173 0 23.4082V27.9916Z" fill="#1D4AFF"/>
<path d="M9.997 10.997L1.70711 2.70711C1.07714 2.07714 0 2.52331 0 3.41421V8.58339C0 8.8486 0.105357 9.10296 0.292893 9.29049L9.997 18.9946V10.997Z" fill="#1D4AFF"/>
<path d="M1.70711 12.7041C1.07714 12.0741 0 12.5203 0 13.4112V18.5803C0 18.8456 0.105357 19.0999 0.292893 19.2874L9.997 28.9916V20.9939L1.70711 12.7041Z" fill="#1D4AFF"/>
<path d="M19.9939 11.4112C19.9939 11.146 19.8886 10.8916 19.7011 10.7041L11.7041 2.70711C11.0741 2.07714 9.99695 2.52331 9.99695 3.41421V8.58339C9.99695 8.8486 10.1023 9.10296 10.2898 9.29049L19.9939 18.9946V11.4112Z" fill="#F96132"/>
<path d="M9.99707 28.9916H15.5805C16.4714 28.9916 16.9175 27.9145 16.2876 27.2845L9.99707 20.994V28.9916Z" fill="#F96132"/>
<path d="M9.99707 10.9971V18.5805C9.99707 18.8457 10.1024 19.1 10.29 19.2876L19.9941 28.9917V21.4083C19.9941 21.1431 19.8887 20.8887 19.7012 20.7012L9.99707 10.9971Z" fill="#F96132"/>
<path d="M59.6497 25H63.7577V18.188H67.1897C70.9597 18.188 73.3777 15.952 73.3777 12.494C73.3777 9.03605 70.9597 6.80005 67.1897 6.80005H59.6497V25ZM63.7577 14.678V10.3101H66.7737C68.3337 10.3101 69.2697 11.142 69.2697 12.494C69.2697 13.8461 68.3337 14.678 66.7737 14.678H63.7577Z" fill="black"/>
<path d="M80.8096 25.208C84.8136 25.208 87.7256 22.348 87.7256 18.448C87.7256 14.548 84.8136 11.688 80.8096 11.688C76.7536 11.688 73.8936 14.548 73.8936 18.448C73.8936 22.348 76.7536 25.208 80.8096 25.208ZM77.6896 18.448C77.6896 16.368 78.9376 14.938 80.8096 14.938C82.6556 14.938 83.9036 16.368 83.9036 18.448C83.9036 20.528 82.6556 21.958 80.8096 21.958C78.9376 21.958 77.6896 20.528 77.6896 18.448Z" fill="black"/>
<path d="M94.2995 25.208C97.3675 25.208 99.4475 23.284 99.4475 21.022C99.4475 15.718 92.4015 17.4341 92.4015 15.354C92.4015 14.7821 92.9995 14.4181 93.8575 14.4181C94.7415 14.4181 95.8075 14.964 96.1455 16.16L99.2135 14.886C98.6155 12.988 96.4055 11.688 93.7275 11.688C90.8415 11.688 89.0475 13.404 89.0475 15.458C89.0475 20.424 95.9895 19.046 95.9895 21.1C95.9895 21.828 95.3135 22.3221 94.2995 22.3221C92.8435 22.3221 91.8295 21.3081 91.5175 20.0861L88.4495 21.282C89.1255 23.258 91.1015 25.208 94.2995 25.208Z" fill="black"/>
<path d="M109.33 24.8701L109.07 21.5681C108.628 21.8021 108.056 21.88 107.588 21.88C106.652 21.88 106.028 21.2041 106.028 20.034V15.068H109.2V11.896H106.028V8.10005H102.206V11.896H100.126V15.068H102.206V20.528C102.206 23.7 104.364 25.208 107.198 25.208C107.978 25.208 108.706 25.0781 109.33 24.8701Z" fill="black"/>
<path d="M122.656 6.80005V13.872H115.428V6.80005H111.32V25H115.428V17.382H122.656V25H126.79V6.80005H122.656Z" fill="black"/>
<path d="M135.908 25.208C139.912 25.208 142.824 22.348 142.824 18.448C142.824 14.548 139.912 11.688 135.908 11.688C131.852 11.688 128.992 14.548 128.992 18.448C128.992 22.348 131.852 25.208 135.908 25.208ZM132.788 18.448C132.788 16.368 134.036 14.938 135.908 14.938C137.754 14.938 139.002 16.368 139.002 18.448C139.002 20.528 137.754 21.958 135.908 21.958C134.036 21.958 132.788 20.528 132.788 18.448Z" fill="black"/>
<path d="M150.201 24.584C151.631 24.584 152.905 24.0901 153.581 23.232V24.48C153.581 25.936 152.411 26.9501 150.617 26.9501C149.343 26.9501 148.225 26.326 148.043 25.26L144.559 25.806C145.027 28.276 147.549 29.9401 150.617 29.9401C154.647 29.9401 157.325 27.574 157.325 24.064V11.896H153.555V13.014C152.853 12.208 151.657 11.688 150.123 11.688C146.483 11.688 144.195 14.184 144.195 18.136C144.195 22.088 146.483 24.584 150.201 24.584ZM147.913 18.136C147.913 16.186 149.057 14.938 150.825 14.938C152.619 14.938 153.763 16.186 153.763 18.136C153.763 20.086 152.619 21.334 150.825 21.334C149.057 21.334 147.913 20.086 147.913 18.136Z" fill="black"/>
</g>
<defs>
<clipPath id="clip0">
<rect width="157" height="30" fill="white"/>
</clipPath>
</defs>
</svg>
