<svg width="200" height="200" viewBox="0 0 200 200" fill="none" xmlns="http://www.w3.org/2000/svg">
<rect width="200" height="200" fill="white"/>
<path d="M98.7298 0.00163588C90.573 0.0395369 82.7835 0.73519 75.9295 1.948C55.7385 5.51508 52.0726 12.9813 52.0726 26.7502V44.9348H99.7864V50.9964H52.0726H34.1661C20.2992 50.9964 8.15688 59.3312 4.35893 75.1869C-0.0219582 93.3612 -0.216275 104.702 4.35893 123.679C7.75059 137.805 15.8503 147.87 29.7173 147.87H46.1223V126.07C46.1223 110.322 59.7485 96.43 75.9295 96.43H123.588C136.854 96.43 147.444 85.507 147.444 72.1839V26.7502C147.444 13.8195 136.536 4.10608 123.588 1.948C115.391 0.583587 106.887 -0.0362651 98.7298 0.00163588ZM72.9265 14.6272C77.855 14.6272 81.8798 18.7177 81.8798 23.7473C81.8798 28.759 77.855 32.8118 72.9265 32.8118C67.9804 32.8118 63.9733 28.759 63.9733 23.7473C63.9733 18.7177 67.9804 14.6272 72.9265 14.6272Z" fill="url(#paint0_linear)"/>
<path d="M153.395 50.9965V72.184C153.395 88.6104 139.468 102.436 123.588 102.436H75.9295C62.8751 102.436 52.0726 113.609 52.0726 126.682V172.116C52.0726 185.047 63.3168 192.652 75.9295 196.362C91.033 200.803 105.516 201.606 123.588 196.362C135.6 192.884 147.444 185.885 147.444 172.116V153.931H99.7863V147.87H147.444H171.301C185.168 147.87 190.336 138.197 195.158 123.679C200.14 108.733 199.928 94.3601 195.158 75.187C191.731 61.3824 185.186 50.9965 171.301 50.9965H153.395ZM126.591 166.054C131.537 166.054 135.544 170.107 135.544 175.119C135.544 180.148 131.537 184.239 126.591 184.239C121.662 184.239 117.637 180.148 117.637 175.119C117.637 170.107 121.662 166.054 126.591 166.054Z" fill="url(#paint1_linear)"/>
<defs>
<linearGradient id="paint0_linear" x1="1" y1="1.35279e-07" x2="111.023" y2="93.7545" gradientUnits="userSpaceOnUse">
<stop stop-color="#5A9FD4"/>
<stop offset="1" stop-color="#306998"/>
</linearGradient>
<linearGradient id="paint1_linear" x1="125.444" y1="173.59" x2="85.972" y2="118.278" gradientUnits="userSpaceOnUse">
<stop stop-color="#FFD43B"/>
<stop offset="1" stop-color="#FFE873"/>
</linearGradient>
</defs>
</svg>
