<?xml version="1.0" encoding="UTF-8" standalone="no"?>
<!-- Created with Inkscape (http://www.inkscape.org/) -->

<svg
   version="1.1"
   id="svg2"
   width="84.106667"
   height="80.133331"
   viewBox="0 0 84.106667 80.133331"
   sodipodi:docname="bug-sno-blue.eps"
   xmlns:inkscape="http://www.inkscape.org/namespaces/inkscape"
   xmlns:sodipodi="http://sodipodi.sourceforge.net/DTD/sodipodi-0.dtd"
   xmlns="http://www.w3.org/2000/svg"
   xmlns:svg="http://www.w3.org/2000/svg">
  <defs
     id="defs6" />
  <sodipodi:namedview
     id="namedview4"
     pagecolor="#ffffff"
     bordercolor="#000000"
     borderopacity="0.25"
     inkscape:showpageshadow="2"
     inkscape:pageopacity="0.0"
     inkscape:pagecheckerboard="0"
     inkscape:deskcolor="#d1d1d1" />
  <g
     id="g8"
     inkscape:groupmode="layer"
     inkscape:label="ink_ext_XXXXXX"
     transform="matrix(1.3333333,0,0,-1.3333333,0,80.133333)">
    <g
       id="g10"
       transform="scale(0.1)">
      <path
         d="m 630.813,525 c 0,-16.996 -10.997,-31.004 -30,-31.004 -18.993,0 -30,14.008 -30,31.004 0,17 11.007,31 30,31 19.003,0 30,-14 30,-31 z m -5.997,0 c 0,13.996 -10,25 -24.003,25 -13.993,0 -23.993,-10 -23.993,-25 0,-14 10,-25 23.993,-25 15,0 24.003,11 24.003,25 z m -35.996,13.996 h 13 c 7,0 12,-3.996 12,-10 0,-3.996 -2,-5.992 -5,-7.996 l 5,-7.004 v -0.992 h -7 l -5,6.996 h -6.007 v -6.996 h -6.993 z m 13,-5.992 h -6.007 V 526 h 6.007 c 2.996,0 3.993,1 3.993,2.996 1.007,2.004 -0.997,4.008 -3.993,4.008 z m -402.004,-243 c 1,3.992 2.004,8 2.004,11.996 0,3 -1.004,6.004 -1.004,9 -3,9 -8,17.004 -17,22.004 L 55.8164,406 c -18,10 -41,4 -50.99999,-14 -10,-18.004 -4.000004,-41 13.99999,-51 l 71,-41 -71,-41.004 C 0.816406,248.996 -5.18359,226 4.81641,208.004 c 9.99999,-18 32.99999,-24.008 50.99999,-14.008 l 126.9996,73 c 9.004,7 15,14.004 17,23.008 z m 35,-69.004 c -7,0.996 -15,-0.996 -22,-5 L 85.8164,143.004 c -18,-10 -23.9961,-33 -13.9961,-51.0079 10,-18 32.9957,-23.9922 50.9957,-13.9922 l 71,40.9921 V 36.9961 c 0,-20.9961 17,-36.99219375 38.004,-36.99219375 20.996,0 36.996,16.99219375 36.996,36.99219375 V 183.996 c 0,20 -15,36.008 -34,37.004 z m 130,160 c 7.004,-1 15,1 22.004,5 l 127,72.996 c 18,10 23.996,33.004 13.996,51.004 -10,18.004 -33,23.996 -50.996,13.996 l -71.007,-40.992 v 80.992 C 405.813,585 388.82,601 367.816,601 c -20.996,0 -38,-16 -38,-37.004 V 418.004 c 0,-20 15.997,-36.004 35,-37.004 z M 85.8164,458.996 212.816,386 c 7,-4 14.004,-5 22,-5 19,1 35,17.996 35,37.004 v 145.992 c 0,21.004 -17,37.004 -37,37.004 -20.996,0 -38,-17.004 -38,-37.004 V 482 l -71,41.004 c -18,10 -40.9996,3.996 -50.9996,-14.008 -10.9961,-16.996 -5,-40 13,-50 z M 324.816,301 c 0,2.004 -1,5 -2.996,7.004 l -15,15 C 304.816,325 302.816,326 299.816,326 v 0 c -2,0 -5,-1 -7,-2.996 l -15,-15 c -2,-2.004 -3,-5 -3,-7.004 v 0 c 0,-2.004 1,-5 3,-7.004 l 15,-15 c 2,-2 4.004,-2.996 7,-2.996 v 0 c 2.004,0 5,0.996 7.004,2.996 l 15,15 c 1.996,2.004 2.996,5 2.996,7.004 z m 42.004,-14.004 -53.004,-53 c -1,-0.992 -4,-2.996 -6,-2.996 h -4 -8 -3.996 c -2.004,0 -5,0.996 -7.004,2.996 l -52.996,53 c -1.004,1.008 -2.004,4.004 -2.004,6.008 v 3.996 8 3.996 c 0,2.004 1,5 3,7.004 l 53,52.996 c 2,2.004 5,3.004 7,3.004 h 4.004 7.996 4 c 2,0 5,-1 7,-3.004 L 368.82,316 c 1.993,-2.004 3,-4 3,-7.004 V 305 v -8 -3.996 c -2.004,-2.004 -3,-5 -5,-6.008 z m 147,-143 -127,73 c -7.004,4.004 -15,5 -22.004,4.004 -19.003,-0.996 -35,-17.996 -35,-37.004 V 38.0039 C 329.816,16.9961 346.82,1 366.82,1 c 20.996,0 37.996,17.0039 37.996,37.0039 v 82.0001 l 70.997,-41.0079 c 18.007,-10 41.007,-3.9922 51.007,14.0078 10.996,17.0001 5,40.0001 -13,50.9921 z M 580.813,342 509.816,301 580.813,260.004 c 18.007,-10 24.003,-33.008 14.003,-51.008 -10,-17.996 -32.996,-23.992 -50.996,-13.992 l -127,73 c -8,5 -14.004,12.996 -17.004,20.992 -0.996,4.008 -2,8.004 -2,12.004 0,2.996 1.004,6 1.004,9 3,8.996 8.996,17 16.993,22 l 127.003,73 c 17.997,10 41.004,3.996 51.004,-14 11.993,-16 5,-39 -13.007,-49"
         style="fill:#56b9eb;fill-opacity:1;fill-rule:evenodd;stroke:none"
         id="path12" />
    </g>
  </g>
</svg>
