<svg width="54" height="25" viewBox="0 0 54 25" fill="none" xmlns="http://www.w3.org/2000/svg">
<path d="M23.8646 16.1138L23.6159 18.1451C23.3879 18.2073 22.5174 18.2073 22.2686 18.2073C19.885 18.2073 18.9315 16.9844 18.9315 14.4556V9.14945H16.8174V7.86436C18.2061 7.86436 19.6777 7.24254 19.6777 4.79673H21.0665V7.34618H23.6988V9.14945H21.0665V14.4142C21.0665 15.7615 21.5846 16.1138 22.7039 16.1138H23.8646ZM29.0923 18H27.1854L24.4079 7.34618H26.5428L28.2632 14.8702L30.1494 7.34618H32.1185L33.9839 14.8287L35.7043 7.34618H37.8392L35.0617 18H32.9475L31.1443 10.8491L29.0923 18ZM39.0171 7.34618H41.152V18H39.0171V7.34618ZM38.9964 3.18H41.152V5.37709H38.9964V3.18ZM46.9645 7.13891C48.0838 7.13891 49.1823 7.65709 50.0114 8.48618L50.2187 7.34618H52.1463V17.4196C52.1463 20.3422 50.4882 22.2905 47.7729 22.2905C42.7154 22.2905 42.4874 18.228 45.9903 17.5855C43.7103 17.1087 42.4253 14.9945 42.4253 13.1084V11.7196C42.4253 9.58473 44.0834 7.13891 46.9645 7.13891ZM44.5602 13.1084C44.5602 14.2898 45.4722 15.7407 47.2754 15.7407C48.8922 15.7407 50.0114 14.2898 50.0114 13.1084V11.5953C50.0114 10.4138 48.8922 9.08727 47.2754 9.08727C45.4722 9.08727 44.5602 10.5382 44.5602 11.7196V13.1084ZM50.0114 16.3418C49.2445 17.1709 48.1874 17.6891 46.9645 17.6891C44.8503 17.6891 44.726 20.3422 47.7729 20.3422C49.4103 20.3422 50.0114 19.2644 50.0114 17.6476V16.3418Z" fill="black"/>
<path d="M4.07784 2.0166C4.11489 2.01667 4.15094 2.0272 4.18233 2.0459L4.2585 2.09082C4.28909 2.10917 4.31435 2.13451 4.33272 2.16504L4.35518 2.20312L4.37862 2.24121C4.38867 2.25792 4.39922 2.27461 4.40987 2.29102L4.43428 2.3291L4.45772 2.36621C4.47775 2.39714 4.4897 2.43211 4.4919 2.46875L4.49483 2.51367L4.49678 2.55859C4.49762 2.57255 4.49996 2.58598 4.50362 2.59863L4.51631 2.6416L4.52901 2.68359C4.5349 2.70379 4.54013 2.72447 4.54561 2.74512L4.55733 2.78906L4.56905 2.83203C4.57806 2.86609 4.57893 2.90119 4.57198 2.93555L4.56319 2.98047L4.55342 3.02539C4.55218 3.03149 4.55257 3.03748 4.5544 3.04395L4.56709 3.08789L4.57979 3.13281C4.58876 3.16458 4.59111 3.19759 4.5876 3.23047L4.57784 3.32031C4.57618 3.33578 4.57672 3.35135 4.57784 3.36621L4.58076 3.41113L4.58369 3.45508C4.5847 3.46829 4.58732 3.48177 4.59151 3.49512L4.60616 3.53906L4.61983 3.58203C4.6269 3.60452 4.63227 3.62761 4.63741 3.65039L4.64717 3.69434L4.65791 3.7373V3.73828C4.66455 3.76803 4.66567 3.79874 4.6628 3.8291L4.65498 3.91895C4.65311 3.93875 4.65127 3.9588 4.6501 3.97852L4.64717 4.02344L4.64522 4.06836C4.64431 4.08371 4.64438 4.09938 4.64619 4.11426L4.65205 4.1582L4.65694 4.20215C4.65842 4.21425 4.66159 4.22755 4.6667 4.24023L4.70186 4.32617C4.71487 4.35869 4.72001 4.39356 4.71748 4.42871L4.71162 4.51855C4.71118 4.5248 4.71169 4.53109 4.71455 4.53809L4.74971 4.62402C4.76537 4.66238 4.76824 4.7033 4.7585 4.74316L4.74678 4.78906L4.73604 4.83496C4.73278 4.84828 4.73175 4.86055 4.73213 4.87207L4.73311 4.91699L4.73506 4.96191C4.73533 4.9685 4.73674 4.97591 4.74092 4.98438L4.76241 5.02734L4.78389 5.06934C4.79822 5.09817 4.80779 5.12904 4.81123 5.16113L4.81514 5.20508L4.82002 5.25C4.8232 5.28 4.82183 5.3101 4.81612 5.33984L4.79854 5.43164C4.79726 5.43844 4.79794 5.44407 4.79951 5.44922L4.81221 5.49219L4.82588 5.53516C4.83444 5.56328 4.83905 5.59272 4.83955 5.62207L4.84053 5.66699V5.71191C4.84082 5.72958 4.84245 5.74723 4.84444 5.76465L4.84932 5.80957L4.8542 5.85352C4.85644 5.87306 4.85929 5.89263 4.86201 5.91211L4.86787 5.95703L4.87471 6.00098C4.87781 6.02317 4.87979 6.04599 4.88155 6.06836L4.88545 6.1123L4.88838 6.15723C4.88994 6.1771 4.89231 6.19697 4.89424 6.2168L4.89815 6.26172L4.90303 6.30566C4.90472 6.32298 4.90735 6.34033 4.91084 6.35742L4.92842 6.44531C4.9324 6.46477 4.9367 6.48452 4.94112 6.50391L4.95088 6.54688L4.96065 6.59082C4.96735 6.62029 4.96986 6.65049 4.96748 6.68066L4.96358 6.72656L4.95967 6.77148C4.95901 6.77993 4.95996 6.78815 4.9626 6.7959L4.97823 6.83887L4.99287 6.88184C5.00267 6.91051 5.00777 6.94043 5.0085 6.9707L5.01045 7.06055C5.01065 7.06775 5.01259 7.07503 5.01631 7.08301L5.03584 7.125L5.05635 7.16797C5.07076 7.19864 5.07916 7.23154 5.07979 7.26562V7.31055L5.08076 7.35645C5.08106 7.37231 5.08306 7.38791 5.08565 7.40332L5.09248 7.44824L5.1003 7.49219C5.10294 7.5076 5.10696 7.52291 5.11201 7.53809L5.12569 7.58105L5.14034 7.62402C5.14898 7.65007 5.15511 7.67687 5.15791 7.7041L5.16182 7.74902L5.1667 7.79297C5.16906 7.81589 5.17099 7.83913 5.17159 7.8623L5.17354 7.95215C5.17406 7.97251 5.17466 7.99334 5.17549 8.01367L5.1794 8.10352C5.17999 8.11749 5.18178 8.13118 5.18526 8.14453L5.19698 8.18848L5.20772 8.23145C5.21112 8.2444 5.21649 8.25742 5.22334 8.27051L5.26631 8.35254C5.28207 8.38268 5.29147 8.41606 5.29366 8.4502L5.29659 8.49512L5.29951 8.53906V8.54004C5.30044 8.55378 5.30352 8.56703 5.30733 8.58008L5.31905 8.62305L5.33174 8.66602C5.33901 8.69088 5.34445 8.71644 5.34737 8.74219L5.35225 8.78711L5.35713 8.83105C5.35925 8.84989 5.36178 8.86906 5.36494 8.8877L5.38057 8.97559C5.38273 8.9883 5.38589 9.00132 5.39131 9.01367L5.40987 9.05469L5.42744 9.09668C5.4376 9.11985 5.44657 9.14323 5.45284 9.16699L5.46358 9.20801L5.46651 9.21777L5.50264 9.22266L5.50459 9.22168C5.50595 9.22145 5.50838 9.22086 5.51143 9.21973L5.55147 9.20508L5.55733 9.20215V9.19043L5.55635 9.14453C5.55586 9.12585 5.55438 9.10756 5.55244 9.08984L5.54756 9.04492L5.54268 9.00098C5.54008 8.97741 5.53804 8.95336 5.5378 8.92969V8.84082C5.53759 8.82015 5.53689 8.799 5.53682 8.77832V8.68848C5.53676 8.67463 5.53501 8.66056 5.53194 8.64648L5.52217 8.60254L5.51241 8.55762C5.50685 8.53215 5.50376 8.50634 5.50264 8.48047L5.50069 8.43555L5.49873 8.3916C5.49761 8.36558 5.49918 8.33942 5.50264 8.31348L5.51436 8.22363C5.51599 8.21148 5.51602 8.19935 5.51436 8.1875L5.50752 8.14258L5.50166 8.09863C5.498 8.07324 5.49637 8.04708 5.49678 8.02148V7.97754L5.49776 7.93262C5.498 7.91735 5.49715 7.90199 5.49483 7.88672L5.48799 7.8418L5.48116 7.79785C5.47714 7.77173 5.4755 7.74521 5.47627 7.71875L5.47725 7.67383L5.4792 7.62891C5.48019 7.59525 5.48813 7.56282 5.50166 7.53223L5.52119 7.4873L5.54073 7.44336C5.54136 7.44185 5.54163 7.44083 5.5417 7.44043V7.43848L5.53194 7.39453L5.52217 7.34961C5.51745 7.32761 5.51317 7.30522 5.50948 7.2832L5.50166 7.23828L5.49483 7.19336C5.48811 7.15322 5.49411 7.11415 5.51045 7.07812L5.52998 7.03418L5.55049 6.99023C5.55443 6.98154 5.5555 6.97421 5.55537 6.96875L5.55342 6.9248L5.55244 6.87988C5.55211 6.86669 5.55027 6.85295 5.54659 6.83887L5.52315 6.74902C5.51486 6.7174 5.51239 6.6849 5.51631 6.65234L5.52217 6.6084L5.52705 6.56348C5.52989 6.53997 5.53367 6.5165 5.53877 6.49316L5.54854 6.44922L5.5583 6.4043C5.56052 6.39409 5.56142 6.38407 5.56026 6.37402L5.5544 6.3291L5.54951 6.28418C5.54591 6.25448 5.54631 6.22478 5.55147 6.19531L5.55928 6.15039L5.56709 6.10645C5.56871 6.09724 5.5689 6.08779 5.56709 6.07812L5.54951 5.98828C5.54343 5.9565 5.54369 5.92443 5.54951 5.89258L5.55733 5.84766L5.56514 5.80371C5.56595 5.79934 5.56635 5.79378 5.56416 5.78711L5.54951 5.74219L5.53389 5.69727C5.52395 5.66726 5.51866 5.63612 5.51924 5.60449L5.52022 5.55957L5.52119 5.51562C5.52168 5.49031 5.52472 5.46453 5.52901 5.43945L5.53584 5.39551L5.54366 5.35059C5.54761 5.32746 5.55234 5.3042 5.5583 5.28125L5.58174 5.19336C5.58261 5.19001 5.58221 5.18638 5.58076 5.18164L5.55342 5.0918C5.54432 5.06226 5.54017 5.03182 5.54073 5.00098L5.54268 4.91113C5.54311 4.88933 5.54327 4.86748 5.54463 4.8457L5.54756 4.80078L5.55049 4.75684C5.55232 4.72766 5.5586 4.69877 5.56807 4.6709L5.58272 4.62695L5.59737 4.58203C5.59907 4.57686 5.59918 4.5726 5.59834 4.56836L5.58955 4.52344L5.58076 4.47949C5.57333 4.44229 5.57639 4.40475 5.58858 4.36914L5.60323 4.3252L5.61885 4.28027C5.6207 4.27468 5.62065 4.27015 5.61983 4.26562L5.61201 4.2207L5.60323 4.17578C5.59719 4.14267 5.59856 4.10897 5.60616 4.07617L5.61592 4.03223L5.62666 3.98828C5.62875 3.97926 5.62902 3.96988 5.62764 3.96094L5.6208 3.91602L5.61299 3.87207C5.61007 3.85326 5.60727 3.83367 5.60323 3.81445L5.58369 3.72266C5.57458 3.679 5.58176 3.63582 5.60323 3.59766L5.62666 3.55664L5.6501 3.51465C5.6506 3.51375 5.65096 3.51306 5.65108 3.5127C5.6511 3.51258 5.65126 3.51137 5.65108 3.50977L5.64522 3.46191L5.63936 3.41504C5.63421 3.37403 5.64159 3.33349 5.6628 3.29688L5.68623 3.25684L5.70869 3.21777C5.72038 3.1977 5.73294 3.17804 5.7458 3.15918L5.77119 3.12207L5.79561 3.08496C5.81089 3.06259 5.82868 3.04206 5.84834 3.02344L5.88155 2.99316L5.91377 2.96191C5.93382 2.94303 5.95631 2.92612 5.98018 2.91211L6.01924 2.88965L6.0583 2.86621C6.08922 2.84818 6.1234 2.83812 6.15889 2.83594L6.20576 2.83301L6.25166 2.83008C6.28636 2.82798 6.3208 2.83345 6.35323 2.8457L6.39815 2.8623L6.44209 2.87988C6.46408 2.88828 6.4836 2.90056 6.49971 2.91602L6.53877 2.97168L6.55733 3.01562L6.57686 3.05957C6.5834 3.07471 6.59003 3.08827 6.59737 3.09863L6.62276 3.13281L6.64717 3.16797C6.65969 3.18567 6.67233 3.20451 6.68428 3.22363L6.70772 3.26172L6.73213 3.30078C6.75369 3.33553 6.76255 3.37469 6.75948 3.41504L6.75655 3.46094L6.75264 3.50781C6.75201 3.51673 6.7531 3.52469 6.75557 3.53223L6.77022 3.5752L6.78389 3.61816C6.79453 3.65012 6.79859 3.68328 6.79561 3.7168L6.7917 3.76172L6.7878 3.80762C6.78747 3.81195 6.78812 3.81648 6.79073 3.82227L6.82979 3.9082C6.84447 3.94099 6.85053 3.97639 6.84834 4.0127L6.84639 4.05762L6.84346 4.10352C6.84229 4.12245 6.84163 4.14135 6.84151 4.16016L6.84053 4.20508V4.25C6.84038 4.27239 6.84007 4.29491 6.83858 4.31738L6.83565 4.36328L6.83174 4.4082C6.83131 4.4155 6.83272 4.42278 6.83565 4.43066L6.85127 4.47363L6.86787 4.51758C6.87782 4.54445 6.88449 4.57225 6.88741 4.60059L6.89229 4.64551L6.89619 4.68945C6.89823 4.70947 6.90068 4.73001 6.90303 4.75L6.90791 4.79395L6.91377 4.83789C6.91652 4.86137 6.91732 4.88551 6.91768 4.90918L6.91963 4.99902C6.91993 5.01982 6.9204 5.04072 6.92061 5.06152V5.15137C6.92079 5.16564 6.92247 5.18024 6.92549 5.19434L6.93526 5.23828L6.94502 5.28125C6.95132 5.31068 6.95255 5.34109 6.94991 5.37109L6.94209 5.46094C6.94076 5.47603 6.94059 5.49131 6.94209 5.50586L6.94698 5.5498L6.95186 5.59473C6.9533 5.60846 6.95612 5.62278 6.96065 5.63672L6.97432 5.67969L6.98897 5.72363C6.99706 5.74863 7.00311 5.77412 7.00655 5.7998L7.01241 5.84375L7.01826 5.88672C7.02049 5.90342 7.02291 5.92075 7.02705 5.9375L7.0378 5.98047L7.04854 6.02441C7.05651 6.05688 7.05835 6.09021 7.05342 6.12305L7.04561 6.16992L7.03877 6.2168C7.03801 6.22193 7.03872 6.22497 7.03975 6.22754L7.0583 6.26953L7.07588 6.31152C7.08452 6.33159 7.09322 6.35187 7.10127 6.37207L7.13448 6.45605C7.14779 6.48954 7.15244 6.52495 7.14912 6.56055L7.14522 6.60645L7.14034 6.65332C7.13915 6.66605 7.14007 6.67773 7.14229 6.68848L7.15108 6.73242L7.16084 6.77539C7.16285 6.78502 7.1665 6.79529 7.17256 6.80566L7.196 6.84668L7.22041 6.88672C7.23969 6.91959 7.24929 6.95662 7.24873 6.99512L7.24776 7.04102V7.08691C7.24751 7.10233 7.24817 7.11744 7.25069 7.13184L7.26631 7.21973C7.26942 7.23742 7.27347 7.25507 7.27803 7.27246L7.28877 7.31543L7.30049 7.3584C7.30483 7.37495 7.30988 7.39193 7.31612 7.4082L7.33272 7.4502L7.34834 7.49219C7.36078 7.52465 7.36573 7.55915 7.36299 7.59375L7.36006 7.63867L7.35616 7.68457C7.35534 7.69516 7.35633 7.70599 7.35909 7.7168L7.3708 7.76074L7.38155 7.80566C7.3912 7.84358 7.38964 7.88203 7.37764 7.91895L7.34834 8.00879V8.0127L7.37764 8.10254C7.38709 8.13199 7.39162 8.16246 7.39131 8.19336V8.23828L7.39034 8.28223C7.39003 8.31099 7.38618 8.34023 7.37862 8.36816L7.3669 8.41211L7.3542 8.45703C7.35035 8.47134 7.34809 8.48536 7.34737 8.49902L7.34346 8.58887C7.34269 8.60438 7.34273 8.62016 7.34444 8.63574L7.34932 8.67969L7.3542 8.72461C7.3563 8.74376 7.35902 8.76305 7.36201 8.78223L7.36885 8.82715L7.37569 8.87109C7.37956 8.89592 7.38224 8.9213 7.38252 8.94629V8.99121L7.3835 9.03613C7.38373 9.05825 7.38253 9.08042 7.38155 9.10254L7.37764 9.19238C7.37681 9.21092 7.3764 9.22952 7.37666 9.24805L7.37862 9.33789C7.37893 9.36018 7.37861 9.38299 7.37764 9.40527L7.37569 9.44922L7.37373 9.49414C7.373 9.51107 7.37346 9.52849 7.37471 9.5459L7.37764 9.59082V9.59766L7.38252 9.59961L7.42451 9.60938C7.428 9.61004 7.43024 9.60907 7.43233 9.6084L7.51241 9.58301H7.51143C7.51171 9.5828 7.51253 9.58216 7.51338 9.58105L7.54073 9.54492L7.56807 9.50781C7.57473 9.49895 7.58033 9.48966 7.58369 9.47949L7.59737 9.43652L7.61201 9.39355C7.61873 9.37326 7.62545 9.35302 7.63252 9.33301L7.64717 9.29102L7.6628 9.24805C7.67033 9.22675 7.6784 9.20525 7.68721 9.18457L7.70479 9.14453L7.72237 9.10352C7.72892 9.08812 7.73425 9.07186 7.73897 9.05566L7.76436 8.96973C7.77107 8.94662 7.77858 8.92352 7.7878 8.90137L7.80537 8.86035L7.82198 8.81934C7.83041 8.79911 7.84003 8.77869 7.84932 8.75879L7.86787 8.71777L7.88643 8.67773C7.8909 8.66815 7.89386 8.65777 7.89522 8.64648L7.90108 8.60156L7.90596 8.55566C7.91085 8.51501 7.92848 8.47908 7.95479 8.44922L7.98701 8.41211L8.01631 8.37793L8.01534 8.33594L8.01338 8.28809C8.01211 8.25512 8.01683 8.22265 8.02803 8.19141L8.04268 8.14941L8.0583 8.10742C8.06385 8.09192 8.06849 8.07575 8.07198 8.05957L8.08076 8.0166L8.09053 7.97266C8.09763 7.93971 8.11135 7.90926 8.13057 7.88184L8.15694 7.84277L8.18428 7.80469C8.18936 7.79741 8.1919 7.7907 8.19307 7.78418L8.20869 7.69629C8.21314 7.67145 8.2202 7.64689 8.22823 7.62305L8.2419 7.58008L8.25655 7.53809C8.25995 7.52793 8.26214 7.51689 8.26241 7.50488V7.45898L8.26338 7.41211C8.26422 7.37174 8.27734 7.33426 8.30049 7.30176L8.32784 7.2627L8.35616 7.22461C8.35806 7.22187 8.35808 7.21974 8.35811 7.21777L8.36006 7.12598C8.3605 7.09969 8.36223 7.0734 8.3669 7.04785L8.37569 7.00391L8.3835 6.95996C8.38878 6.93108 8.39784 6.90332 8.41084 6.87695L8.43135 6.83594L8.45088 6.7959C8.45811 6.78127 8.46458 6.76606 8.46944 6.75098L8.48311 6.70801L8.49678 6.66602C8.50173 6.6506 8.50576 6.63432 8.5085 6.61816L8.51534 6.57422L8.52315 6.53027C8.52677 6.50891 8.53065 6.48704 8.53487 6.46582L8.55244 6.37793C8.55787 6.35071 8.56641 6.32415 8.57784 6.29883L8.61494 6.2168L8.67354 6.08008C8.68045 6.06368 8.68681 6.04616 8.69209 6.0293L8.70479 5.9873L8.71846 5.94434C8.72558 5.92167 8.73438 5.89966 8.74385 5.87793L8.77901 5.7959C8.79007 5.7706 8.80444 5.74668 8.821 5.72461L8.87373 5.6543C8.88114 5.6444 8.88705 5.63274 8.89229 5.62012L8.90987 5.57812L8.92744 5.53516C8.94388 5.49557 8.97267 5.46431 9.01045 5.44434L9.09248 5.40137C9.10101 5.39681 9.108 5.39073 9.11397 5.38379L9.14424 5.34961L9.17354 5.31543L9.22627 5.27441C9.24637 5.26462 9.26898 5.2586 9.29268 5.25781L9.33662 5.25684L9.38155 5.25488C9.39465 5.25442 9.4094 5.25204 9.42451 5.24805L9.47041 5.23633L9.51631 5.22363C9.55446 5.21361 9.59317 5.21802 9.62666 5.23535L9.65889 5.25684L9.69405 5.28809L9.73018 5.31934C9.75943 5.34498 9.78069 5.378 9.7917 5.41602L9.81709 5.50391C9.81917 5.51086 9.82267 5.51815 9.82881 5.52539L9.89131 5.59766C9.91902 5.63037 9.93417 5.67077 9.93428 5.71484L9.93526 5.76074V5.86816L9.93721 5.95801C9.93777 5.9926 9.93064 6.02618 9.9167 6.05762L9.89815 6.10059L9.87862 6.14258C9.8735 6.15411 9.87108 6.16523 9.86983 6.17578L9.86397 6.21973L9.85909 6.26367C9.8559 6.29021 9.85006 6.31634 9.84151 6.3418L9.82686 6.38477L9.81319 6.42676C9.81146 6.43188 9.81002 6.43828 9.81123 6.44727L9.81807 6.49512L9.82393 6.54297C9.82852 6.57683 9.82677 6.61132 9.81709 6.64453L9.80537 6.68652L9.79268 6.72949C9.78703 6.74888 9.78146 6.76862 9.77608 6.78809L9.76436 6.83105L9.75166 6.87402C9.74483 6.89873 9.73613 6.92287 9.7253 6.94629L9.70674 6.9873L9.68721 7.0293C9.67817 7.04877 9.66836 7.06854 9.65889 7.08789L9.63936 7.12793L9.61885 7.16895C9.61283 7.18124 9.60889 7.19434 9.60616 7.20703L9.59737 7.25L9.5876 7.29395C9.58418 7.30985 9.58201 7.32611 9.58076 7.34277L9.57686 7.3877L9.57393 7.43359C9.57172 7.46271 9.56539 7.49116 9.55537 7.51855L9.52412 7.60254C9.5202 7.61325 9.51795 7.62474 9.51729 7.63672L9.51534 7.68262L9.51241 7.72754C9.51075 7.75756 9.50516 7.78723 9.49483 7.81543L9.46358 7.89941C9.45478 7.92338 9.44387 7.94712 9.43135 7.96973L9.40889 8.00977L9.38741 8.0498C9.38389 8.05614 9.38187 8.06265 9.38155 8.06934L9.37959 8.11426L9.37764 8.16016C9.3765 8.18378 9.37403 8.20726 9.3708 8.23047L9.36397 8.27539L9.35811 8.31934C9.3534 8.35315 9.34175 8.3852 9.32393 8.41406L9.29951 8.45312L9.27608 8.49023L9.29366 8.58594C9.30013 8.62295 9.29754 8.66101 9.28389 8.69727L9.26729 8.73926L9.25166 8.78125C9.24611 8.7959 9.2421 8.81097 9.23897 8.82617L9.2292 8.87012L9.22041 8.91406C9.21339 8.94829 9.19881 8.97999 9.17842 9.00781L9.1501 9.0459L9.12178 9.08496C9.11763 9.09067 9.11639 9.09497 9.11592 9.09863L9.11006 9.14355L9.10518 9.18848C9.10184 9.21617 9.09526 9.24337 9.08565 9.26953L9.0544 9.35352C9.05265 9.35835 9.05243 9.36464 9.05342 9.37305L9.0583 9.41992L9.06416 9.46777C9.06819 9.50223 9.06548 9.53695 9.0544 9.57031L9.03975 9.6123L9.02608 9.65527C9.01724 9.68181 9.0047 9.70735 8.98994 9.73145L8.96553 9.77051L8.94209 9.81055C8.93954 9.81471 8.93823 9.81817 8.93819 9.82227V9.86816L8.93721 9.91406C8.93699 9.94497 8.93254 9.97565 8.92256 10.0049L8.90791 10.0469L8.89326 10.0898C8.88684 10.1086 8.88078 10.1276 8.87471 10.1465L8.86104 10.1895L8.84737 10.2314C8.84351 10.2434 8.84126 10.2563 8.84053 10.2695L8.8376 10.3145L8.83565 10.3604C8.83356 10.3982 8.82103 10.4335 8.80049 10.4648L8.77412 10.5049L8.74971 10.542L8.75557 10.5889L8.76045 10.6367C8.76567 10.6793 8.7572 10.721 8.73409 10.7578L8.70869 10.7979L8.68428 10.8369L8.6833 10.8389V10.8408L8.68623 10.8877L8.69014 10.9346C8.69312 10.9769 8.68144 11.0176 8.65791 11.0527L8.63155 11.0928L8.60518 11.1318C8.59969 11.1401 8.59682 11.148 8.59541 11.1553L8.58662 11.1992L8.57881 11.2432C8.57599 11.2579 8.57412 11.2728 8.57393 11.2881L8.57295 11.333V11.3779C8.57263 11.4035 8.57043 11.429 8.56612 11.4541L8.5583 11.498L8.55049 11.543C8.54682 11.5641 8.54318 11.5854 8.53877 11.6064L8.52901 11.6504L8.52022 11.6943C8.51637 11.7127 8.5131 11.7315 8.51045 11.75L8.50362 11.7939L8.49776 11.8379C8.49507 11.8567 8.49262 11.8756 8.49092 11.8945L8.48701 11.9395L8.48311 11.9834C8.48083 12.0087 8.47667 12.0338 8.47041 12.0586L8.45869 12.1025L8.44795 12.1465C8.44705 12.1501 8.44712 12.1544 8.44893 12.1611L8.46162 12.208L8.47334 12.2539C8.48234 12.2869 8.48552 12.3213 8.48018 12.3555L8.46651 12.4434C8.46384 12.4605 8.46145 12.4778 8.46065 12.4951L8.45869 12.5391L8.45674 12.584C8.45522 12.6164 8.44723 12.648 8.43428 12.6777L8.39717 12.7637C8.39196 12.7757 8.38885 12.7876 8.38741 12.7988L8.37569 12.8867C8.37417 12.8985 8.37484 12.9109 8.37666 12.9238L8.38252 12.9697L8.38936 13.0156C8.39419 13.0498 8.39164 13.0841 8.38155 13.1172L8.36885 13.1602L8.35518 13.2041C8.35259 13.2126 8.35142 13.2215 8.35225 13.2305L8.35713 13.2754L8.36104 13.3203C8.36343 13.3464 8.3631 13.3726 8.36104 13.3984L8.35811 13.4434L8.3542 13.4873C8.35178 13.5174 8.34496 13.5471 8.33369 13.5752L8.29854 13.6611C8.29312 13.6746 8.28986 13.6882 8.2878 13.7012L8.28096 13.7461L8.27412 13.79C8.27264 13.7998 8.27219 13.8101 8.27412 13.8213L8.28291 13.8672L8.29073 13.9131C8.29554 13.9405 8.2977 13.9686 8.29659 13.9961L8.29463 14.04L8.29268 14.085C8.29183 14.106 8.2909 14.1274 8.28975 14.1484L8.28682 14.1924L8.28487 14.2373C8.28351 14.2619 8.28065 14.2864 8.27608 14.3105L8.26729 14.3545L8.25948 14.3984C8.25663 14.4134 8.25476 14.4291 8.25459 14.4443L8.25362 14.4893V14.5332C8.25333 14.559 8.25034 14.585 8.2458 14.6104L8.23018 14.6982C8.22567 14.7234 8.2191 14.7482 8.21065 14.7725L8.18135 14.8584C8.17646 14.8724 8.17267 14.8869 8.17061 14.9014L8.16475 14.9453L8.15791 14.9893C8.15382 15.0178 8.14589 15.0457 8.13448 15.0723L8.1169 15.1143L8.09834 15.1562C8.09754 15.1583 8.09664 15.161 8.09737 15.166L8.11299 15.2617C8.1193 15.3021 8.1136 15.3427 8.09444 15.3799L8.07295 15.4209L8.05244 15.4619C8.04666 15.4731 8.04197 15.4839 8.03975 15.4951L8.03194 15.5391L8.02315 15.583C8.01793 15.6098 8.00948 15.636 7.99873 15.6611L7.98116 15.7031L7.96358 15.7441C7.95869 15.7556 7.95537 15.7673 7.95381 15.7793L7.94795 15.8242L7.94209 15.8682C7.9397 15.8868 7.93843 15.9059 7.93721 15.9248L7.93135 16.0146C7.92973 16.0396 7.92658 16.0645 7.92159 16.0889L7.91182 16.1328L7.90303 16.1768C7.89757 16.2031 7.88936 16.2291 7.87862 16.2539L7.86104 16.2949L7.84248 16.3369C7.84083 16.3408 7.83985 16.3452 7.84053 16.3516L7.84639 16.3984L7.85127 16.4453C7.85512 16.4811 7.85081 16.5169 7.8376 16.5508L7.8044 16.6348C7.79599 16.6563 7.78713 16.6782 7.77705 16.6992L7.75752 16.7402L7.73701 16.7812C7.73226 16.7912 7.72945 16.8013 7.72823 16.8115L7.72334 16.8564L7.71748 16.9004L7.70576 17.0059L7.70088 17.0508C7.69788 17.0781 7.69219 17.1049 7.6833 17.1309L7.66866 17.1738L7.65401 17.2158C7.64661 17.2373 7.63842 17.2591 7.62959 17.2803L7.61201 17.3213L7.59444 17.3633C7.59326 17.3661 7.59255 17.3697 7.59346 17.376L7.6003 17.4229L7.60713 17.4707C7.61391 17.5168 7.60293 17.5611 7.57588 17.5986L7.51924 17.6768C7.51253 17.686 7.50937 17.6947 7.50752 17.7021L7.49678 17.7451L7.48604 17.7891C7.4836 17.7992 7.48226 17.8101 7.48311 17.8223L7.48701 17.8691L7.48994 17.915C7.49205 17.9448 7.4903 17.9748 7.48409 18.0039L7.47432 18.0479L7.46553 18.0908C7.45957 18.1187 7.44986 18.1462 7.43721 18.1719L7.4167 18.2129L7.39717 18.2539C7.39509 18.2582 7.39395 18.2621 7.39424 18.2676L7.39717 18.3145L7.4001 18.3604C7.40192 18.3912 7.39892 18.4223 7.39131 18.4521L7.37959 18.4961L7.36885 18.54C7.36128 18.5698 7.34902 18.5981 7.33272 18.624L7.3083 18.6631L7.28389 18.7012C7.2796 18.708 7.27729 18.7153 7.27608 18.7236L7.26924 18.7686L7.26241 18.8145C7.25604 18.8579 7.23502 18.8951 7.20381 18.9238L7.13155 18.9902C7.12364 18.9975 7.11924 19.0043 7.1169 19.0098L7.09932 19.0498L7.08272 19.0908C7.0736 19.1121 7.06337 19.133 7.05244 19.1533L7.03096 19.1924L7.01045 19.2305C7.0031 19.2442 6.9964 19.259 6.99092 19.2744L6.97627 19.3174L6.96065 19.3604C6.95012 19.3899 6.93462 19.4171 6.91475 19.4414L6.88643 19.4756L6.85811 19.5107C6.84845 19.5226 6.83958 19.5353 6.83174 19.5488L6.80928 19.5889L6.78682 19.6279C6.77478 19.6489 6.76096 19.6689 6.74678 19.6885L6.72041 19.7256L6.69405 19.7617C6.66941 19.7957 6.63556 19.8192 6.59737 19.832L6.55049 19.8477L6.50752 19.8613L6.46651 19.9434C6.44788 19.9801 6.41845 20.0097 6.38057 20.0283L6.33955 20.0488L6.29854 20.0684H6.29756C6.27688 20.0784 6.25628 20.0885 6.23604 20.0967L6.19698 20.1123L6.15694 20.1279C6.14247 20.1338 6.12674 20.1414 6.11006 20.1504L6.06807 20.1738L6.0251 20.1963C5.98241 20.2194 5.93387 20.2235 5.88741 20.2051L5.84444 20.1875L5.80147 20.1709C5.78075 20.1626 5.75983 20.1542 5.73994 20.1455L5.69893 20.127L5.65791 20.1094C5.65008 20.106 5.64116 20.1038 5.63155 20.1035L5.58565 20.1025L5.53975 20.1006C5.49998 20.0995 5.4627 20.087 5.43037 20.0645L5.39131 20.0381L5.35323 20.0107C5.3411 20.0023 5.32821 19.996 5.31612 19.9912L5.2751 19.9746L5.23311 19.958L5.21748 19.957L5.16866 19.9639L5.1208 19.9707C5.07925 19.9765 5.03721 19.9691 4.99971 19.9473L4.96065 19.9248L4.92061 19.9014C4.91133 19.896 4.90178 19.8924 4.89229 19.8906L4.84834 19.8828L4.8044 19.874C4.78616 19.8707 4.76734 19.8684 4.74873 19.8662L4.70381 19.8604L4.65889 19.8555C4.63297 19.8524 4.60662 19.8473 4.58174 19.8398L4.53975 19.8262L4.49678 19.8135C4.47166 19.8059 4.44701 19.7963 4.42354 19.7842L4.38252 19.7627L4.34248 19.7422C4.32539 19.7334 4.30805 19.7246 4.29073 19.7168L4.20869 19.6797C4.19694 19.6744 4.18414 19.6712 4.17159 19.6689L4.12764 19.6611L4.08272 19.6533C4.05302 19.6481 4.02454 19.6379 3.99776 19.624L3.95772 19.6035L3.9167 19.582C3.90513 19.576 3.89265 19.5721 3.88057 19.5693L3.8376 19.5596L3.79366 19.5498C3.77388 19.5453 3.75391 19.5405 3.73409 19.5361L3.69014 19.5264L3.64717 19.5166C3.62363 19.5115 3.59966 19.5058 3.57686 19.498L3.49287 19.4688C3.4771 19.4634 3.46041 19.4594 3.44405 19.4561L3.4001 19.4463L3.35616 19.4375C3.33969 19.4341 3.32255 19.4322 3.30537 19.4307L3.25948 19.4268L3.21455 19.4219C3.18188 19.419 3.15004 19.4104 3.1208 19.3955L3.04073 19.3545C3.02687 19.3474 3.01208 19.3414 2.99776 19.3369L2.95479 19.3232L2.91182 19.3105C2.89321 19.3048 2.87396 19.2991 2.85518 19.2939L2.81221 19.2822L2.76924 19.2695C2.75411 19.2654 2.73791 19.2629 2.72139 19.2607L2.62959 19.249C2.58667 19.2436 2.54847 19.2234 2.51924 19.1914L2.48799 19.1572L2.45772 19.124C2.44067 19.1053 2.42493 19.085 2.41084 19.0645L2.38545 19.0283L2.36006 18.9912C2.35202 18.9795 2.34265 18.9678 2.33174 18.957L2.29854 18.9248L2.26631 18.8926C2.24153 18.8682 2.22262 18.8394 2.21065 18.8066L2.1794 18.7207C2.1758 18.7109 2.17018 18.7022 2.16377 18.6943L2.13545 18.6592L2.10713 18.625C2.0831 18.5957 2.06845 18.5611 2.06221 18.5244L2.0544 18.4775L2.04561 18.4307C2.04438 18.4234 2.04231 18.4185 2.03975 18.415L2.01241 18.3789L1.98409 18.3438C1.96784 18.3229 1.95317 18.3008 1.94112 18.2773L1.92159 18.2373L1.90108 18.1973C1.89411 18.1837 1.88587 18.1706 1.87666 18.1582L1.84932 18.1221L1.82295 18.0859C1.80559 18.0627 1.79054 18.0378 1.77998 18.0107L1.76436 17.9688L1.74776 17.9268C1.74188 17.9116 1.73505 17.8967 1.72725 17.8828L1.70479 17.8438L1.6833 17.8047C1.67202 17.7847 1.66172 17.764 1.65205 17.7432L1.63252 17.7031L1.61397 17.6621C1.61041 17.6545 1.60494 17.647 1.59737 17.6396L1.56416 17.6074L1.52998 17.5742C1.50859 17.5536 1.49008 17.5305 1.4753 17.5049L1.43037 17.4268C1.42012 17.4089 1.40934 17.3909 1.39912 17.373L1.37764 17.334L1.35518 17.2959C1.33713 17.2643 1.32775 17.229 1.32588 17.1934L1.32295 17.1455L1.321 17.1016L1.28877 17.0723L1.25264 17.04C1.22379 17.0139 1.20229 16.981 1.19209 16.9424L1.18135 16.8984L1.16963 16.8545C1.16576 16.8397 1.16031 16.8249 1.15401 16.8115L1.13545 16.7715L1.11592 16.7314C1.10445 16.7071 1.09595 16.6815 1.08955 16.6553L1.06807 16.5674C1.06358 16.5489 1.05795 16.5306 1.05244 16.5127L1.03975 16.4697L1.02705 16.4277C1.02512 16.4215 1.02151 16.4143 1.01534 16.4072L0.983109 16.3721L0.951859 16.3359C0.926804 16.3075 0.909865 16.2733 0.90303 16.2354L0.895218 16.1914L0.887405 16.1465C0.883638 16.1255 0.879216 16.104 0.875687 16.083L0.868851 16.0391L0.861038 15.9941C0.858274 15.9777 0.854184 15.9617 0.849319 15.9463L0.835648 15.9043L0.822952 15.8613C0.821161 15.8557 0.817087 15.8493 0.810257 15.8418L0.77803 15.8057L0.744827 15.7695C0.718837 15.7409 0.700731 15.7063 0.694046 15.667L0.68721 15.6221L0.679398 15.5781C0.676473 15.5607 0.672336 15.543 0.667679 15.5264L0.644241 15.4404C0.63748 15.4162 0.631854 15.3913 0.628616 15.3662L0.616898 15.2764C0.6152 15.2635 0.612717 15.251 0.608109 15.2393L0.591507 15.1973L0.574905 15.1562C0.567566 15.1377 0.55928 15.1189 0.551468 15.1006L0.516312 15.0186C0.508756 15.0008 0.501224 14.9825 0.492874 14.9648L0.453812 14.8828C0.441318 14.8565 0.432502 14.8285 0.427444 14.7998L0.411819 14.7119C0.407522 14.6875 0.405044 14.6627 0.404007 14.6377L0.400101 14.5459C0.399605 14.5347 0.397173 14.5233 0.393265 14.5127L0.37764 14.4707L0.362015 14.4277C0.351766 14.3999 0.345599 14.3703 0.34346 14.3408L0.34053 14.2969L0.336624 14.252C0.335426 14.2356 0.333085 14.2193 0.329788 14.2031L0.31221 14.1152C0.305011 14.0801 0.306224 14.0449 0.31514 14.0107L0.327835 13.9639L0.339554 13.917C0.342583 13.9054 0.344202 13.8955 0.34346 13.8867L0.338577 13.8418L0.334671 13.7979C0.333065 13.7805 0.330228 13.7623 0.326859 13.7451L0.319046 13.7021L0.310257 13.6582C0.3078 13.6457 0.303655 13.6322 0.297562 13.6191L0.27803 13.5771L0.257523 13.5352C0.239622 13.4968 0.235834 13.4551 0.244827 13.4141L0.254593 13.3682L0.264359 13.3213C0.266152 13.313 0.266678 13.3064 0.265335 13.3008L0.254593 13.2578L0.243851 13.2139C0.23958 13.1963 0.233981 13.1786 0.228226 13.1611L0.214554 13.1172L0.199905 13.0742C0.190173 13.0445 0.185578 13.0137 0.186234 12.9824L0.188187 12.8926C0.188537 12.8766 0.188304 12.8602 0.186234 12.8447L0.179398 12.8008L0.173538 12.7559C0.171276 12.7392 0.167927 12.7226 0.163773 12.7061L0.15303 12.6621L0.142288 12.6191C0.13623 12.5952 0.131424 12.5704 0.128616 12.5459L0.123734 12.501L0.118851 12.457C0.116889 12.4398 0.113814 12.4223 0.110062 12.4053L0.0905304 12.3174C0.0853096 12.2936 0.0820099 12.2694 0.0797882 12.2451L0.075882 12.2012L0.0709991 12.1562C0.0682324 12.1259 0.0704139 12.0954 0.0768585 12.0654L0.0876007 12.0195L0.0973663 11.9746L0.0524445 11.8906C0.034784 11.8576 0.0255745 11.8214 0.0270538 11.7832L0.029007 11.7383L0.0309601 11.6924C0.0314448 11.6797 0.029835 11.667 0.0270538 11.6543L0.0172882 11.6094L0.00752258 11.5654C0.00113378 11.5364 -0.00132418 11.5062 0.000686646 11.4766L0.00361633 11.4326L0.00654602 11.3877C0.00786992 11.3682 0.00889287 11.3485 0.00947571 11.3291L0.0114288 11.2852L0.0124054 11.2402C0.0129557 11.2218 0.0131791 11.203 0.0124054 11.1846L0.0104523 11.1406L0.00849915 11.0957C0.00712372 11.0626 0.0121637 11.0301 0.0231476 10.999L0.0387726 10.9541L0.0543976 10.9102L0.0387726 10.8662L0.0231476 10.8213C0.0110315 10.7876 0.00584549 10.7518 0.0104523 10.7158L0.0163116 10.6719L0.022171 10.627C0.0251749 10.6035 0.029714 10.5799 0.0348663 10.5566L0.044632 10.5127L0.0543976 10.4678C0.0573292 10.4545 0.058667 10.4415 0.0583038 10.4287L0.0563507 10.3838L0.0553741 10.3398C0.0548068 10.3205 0.0538348 10.3006 0.0524445 10.2812L0.0495148 10.2373L0.0456085 10.1924C0.0444403 10.1762 0.042217 10.1599 0.0387726 10.1436L0.0299835 10.0986L0.0202179 10.0537C0.0140549 10.0245 0.0119029 9.99455 0.0143585 9.96484L0.0182648 9.9209L0.022171 9.87598C0.0238388 9.85583 0.0246741 9.83558 0.0260773 9.81543L0.0299835 9.77051L0.0329132 9.72656C0.0343797 9.70551 0.0359337 9.68414 0.037796 9.66309L0.0456085 9.57324C0.0464771 9.56314 0.0452992 9.55283 0.0426788 9.54199L0.0319366 9.49707L0.0211945 9.45312C0.0140674 9.42392 0.0115957 9.39249 0.0163116 9.36133L0.0211945 9.3252L0.0270538 9.29004C0.0283213 9.28173 0.0291108 9.27457 0.0299835 9.26953C0.0303775 9.26726 0.0313454 9.26449 0.0319366 9.26172C0.0319193 9.25822 0.0319842 9.25386 0.0319366 9.24902L0.0309601 9.2041V9.15918C0.0307237 9.13472 0.0321497 9.11021 0.0348663 9.08594L0.0397491 9.04199L0.044632 8.99707C0.0474825 8.97163 0.0524599 8.9466 0.0592804 8.92188L0.0709991 8.87793L0.0827179 8.83496C0.0896822 8.80976 0.0988268 8.7853 0.110062 8.76172L0.129593 8.72168L0.149124 8.68066C0.158326 8.66137 0.167755 8.64211 0.177444 8.62305L0.21846 8.54297C0.22991 8.52045 0.242748 8.4985 0.257523 8.47754L0.28389 8.43945L0.311234 8.40137C0.330381 8.37433 0.353887 8.35117 0.381546 8.33301L0.421585 8.30762L0.460648 8.28125C0.496951 8.25748 0.538793 8.24742 0.581741 8.25195L0.629593 8.25684L0.676468 8.2627C0.692557 8.26438 0.708054 8.26397 0.722366 8.2627L0.81221 8.25488C0.852426 8.25131 0.891817 8.25971 0.926468 8.28027L1.00459 8.32715C1.03345 8.34441 1.05845 8.36698 1.07784 8.39453L1.10323 8.43164L1.12959 8.46875C1.13561 8.47719 1.14314 8.48463 1.15205 8.49121L1.18819 8.51855L1.2253 8.5459C1.25788 8.57003 1.28145 8.60277 1.29366 8.6416L1.321 8.72754C1.32514 8.74068 1.33083 8.75326 1.3376 8.76465L1.36006 8.80371L1.3835 8.8418C1.39834 8.86677 1.40918 8.89383 1.4167 8.92188L1.44014 9.00781C1.44617 9.03034 1.45095 9.05323 1.45479 9.07617L1.4626 9.12012L1.46944 9.16406C1.47224 9.18081 1.47657 9.19738 1.48116 9.21387L1.50459 9.2998C1.51221 9.32712 1.51672 9.35542 1.51729 9.38379L1.51924 9.47363C1.51946 9.48317 1.52128 9.49275 1.5251 9.50293L1.54073 9.54688L1.55733 9.58984C1.56797 9.61803 1.57486 9.64776 1.57686 9.67773L1.57979 9.72168L1.58272 9.7666C1.58439 9.79213 1.58417 9.8181 1.58174 9.84375L1.57686 9.88867L1.57295 9.93359C1.57198 9.94385 1.57238 9.95404 1.57491 9.96387L1.58662 10.0078L1.59737 10.0508C1.60327 10.0738 1.60832 10.0978 1.61201 10.1211L1.62569 10.209C1.62937 10.2323 1.63205 10.2558 1.6335 10.2793L1.63643 10.3232L1.63936 10.3682C1.64064 10.3889 1.64206 10.41 1.64326 10.4307L1.64522 10.4746L1.64815 10.5195C1.64912 10.5361 1.65092 10.5529 1.65401 10.5693L1.6628 10.6133L1.67061 10.6572C1.67614 10.6868 1.67701 10.7171 1.67354 10.7471L1.66377 10.8369C1.66231 10.8495 1.66186 10.8622 1.66377 10.874L1.67159 10.918L1.67842 10.9619C1.68306 10.9906 1.68348 11.0198 1.68037 11.0488L1.67549 11.0947L1.67061 11.1396C1.67046 11.141 1.67053 11.1427 1.67256 11.1465L1.69502 11.1885L1.71846 11.2305C1.73712 11.265 1.74542 11.3038 1.7419 11.3438L1.73799 11.3896L1.73409 11.4346C1.73275 11.4494 1.73257 11.4644 1.73409 11.4785L1.73897 11.5234L1.74385 11.5674C1.74632 11.5899 1.74773 11.613 1.74873 11.6357L1.75069 11.6807L1.75362 11.7256C1.75408 11.7358 1.75557 11.7459 1.75948 11.7559L1.77608 11.7988L1.79268 11.8408C1.80061 11.8609 1.80881 11.8807 1.81612 11.9004L1.83174 11.9424L1.84639 11.9834C1.85119 11.9963 1.85772 12.0072 1.86397 12.0166L1.88643 12.0508L1.90205 12.0752L1.93819 12.082L1.95088 12.084L1.96162 12.0674L1.98701 12.0254C1.99019 12.0202 1.99088 12.0161 1.99092 12.0127V11.9658L1.98994 11.9189V11.7646C1.98992 11.758 1.98886 11.7505 1.98506 11.7422L1.96455 11.6992L1.94502 11.6562C1.93044 11.6245 1.92292 11.59 1.92354 11.5547L1.92451 11.5107L1.92549 11.4658C1.92589 11.4432 1.92656 11.4202 1.92842 11.3975L1.93233 11.3516L1.93623 11.3066C1.93748 11.2914 1.93674 11.2764 1.93526 11.2617L1.93135 11.2178L1.92647 11.1729C1.92462 11.1546 1.9218 11.1363 1.91866 11.1182L1.91182 11.0742L1.90401 11.0303C1.90004 11.0074 1.89726 10.984 1.89522 10.9609L1.89131 10.917L1.88741 10.8721C1.88594 10.8554 1.88308 10.8388 1.87959 10.8223L1.86983 10.7783L1.86104 10.7344C1.85539 10.7078 1.85222 10.6805 1.85225 10.6533V10.5635C1.85227 10.5494 1.85123 10.5353 1.84834 10.5215L1.83858 10.4775L1.82979 10.4336C1.82277 10.4002 1.82275 10.3662 1.82979 10.333L1.84932 10.2412C1.851 10.2331 1.8508 10.2261 1.84932 10.2197L1.83955 10.1758L1.82881 10.1318C1.82287 10.1062 1.81926 10.0799 1.81807 10.0537L1.81612 10.0098L1.81416 9.96484C1.81337 9.94731 1.8118 9.92949 1.80928 9.91211L1.80342 9.86816L1.79659 9.82422C1.793 9.79952 1.79086 9.77401 1.79073 9.74902V9.66016C1.79062 9.63971 1.78998 9.61907 1.78975 9.59863V9.55371L1.78877 9.50879C1.78857 9.49181 1.78789 9.4748 1.78584 9.45801L1.77998 9.41309L1.77412 9.36914C1.77225 9.35396 1.76984 9.33848 1.76534 9.32324L1.75166 9.2793L1.73897 9.23633C1.73202 9.21292 1.72655 9.18887 1.72237 9.16504L1.71455 9.12109L1.70674 9.07617C1.7021 9.04941 1.70078 9.0223 1.70186 8.99512L1.70284 8.9502L1.70479 8.90527C1.70559 8.88523 1.70641 8.86472 1.70674 8.84473L1.70772 8.80078L1.70869 8.75586C1.70885 8.74641 1.70717 8.73645 1.70381 8.72656L1.68819 8.68262L1.67354 8.63965C1.66534 8.61598 1.65812 8.5916 1.65303 8.56738L1.64424 8.52344L1.63448 8.47949C1.62925 8.45453 1.62597 8.42873 1.62471 8.40332L1.62276 8.35938L1.6208 8.31445C1.61951 8.28793 1.621 8.26091 1.62471 8.23438L1.63057 8.18945L1.63741 8.14453C1.63953 8.12934 1.64005 8.1141 1.63936 8.09961L1.63741 8.05469L1.63448 8.00977C1.63345 7.98916 1.63244 7.96828 1.63155 7.94727L1.62959 7.90137L1.62764 7.85645C1.62716 7.84506 1.62555 7.83365 1.62178 7.82324L1.60616 7.78027L1.59053 7.73828C1.58398 7.72046 1.57673 7.70242 1.56905 7.68457L1.55049 7.6416L1.53194 7.59961C1.51877 7.56896 1.51254 7.53638 1.51241 7.50293V7.45801L1.51143 7.41211C1.51139 7.38774 1.51345 7.36331 1.51631 7.33887L1.52119 7.29297L1.52705 7.24707C1.52877 7.23236 1.52833 7.21778 1.52705 7.2041L1.51924 7.11621C1.51832 7.10634 1.51545 7.09534 1.51045 7.08398L1.4919 7.04102L1.47237 6.99805C1.45962 6.96921 1.45156 6.93863 1.44893 6.90723L1.44502 6.8623L1.44209 6.81738C1.43975 6.78863 1.44085 6.75993 1.446 6.73145L1.45381 6.68652L1.4626 6.6416C1.46433 6.63206 1.46341 6.62247 1.46162 6.61328L1.45381 6.56934L1.44502 6.52441C1.43779 6.48731 1.44075 6.45041 1.45284 6.41504L1.46748 6.37012L1.48311 6.32617C1.48479 6.32122 1.48484 6.31736 1.48409 6.31348L1.46455 6.22363C1.45763 6.19068 1.45775 6.15708 1.46455 6.12402L1.47432 6.0791L1.48311 6.03516C1.48666 6.01799 1.48923 6.00051 1.49092 5.9834L1.4958 5.93945L1.49971 5.89551C1.50188 5.87347 1.50423 5.85103 1.50752 5.8291L1.52119 5.74121C1.52318 5.72801 1.52331 5.71403 1.52217 5.7002L1.51924 5.65527L1.51534 5.61035C1.51291 5.58095 1.51446 5.55135 1.52022 5.52246L1.5378 5.43457C1.54254 5.41085 1.54884 5.38746 1.55635 5.36426L1.57002 5.32031L1.58369 5.27734C1.58464 5.27435 1.58493 5.27108 1.58369 5.26562L1.57295 5.21875L1.56221 5.17285C1.55204 5.12955 1.55794 5.0861 1.57881 5.04688L1.62373 4.96289V4.96191L1.61592 4.91602L1.60713 4.86914C1.60111 4.83574 1.60201 4.8018 1.61006 4.76855L1.6208 4.72559L1.63057 4.68164C1.63449 4.66546 1.63754 4.64922 1.63936 4.63281L1.64424 4.58789L1.64912 4.54395C1.65223 4.51568 1.65871 4.48772 1.66866 4.46094L1.68526 4.41895L1.70088 4.37598C1.70394 4.36774 1.70516 4.35899 1.70479 4.35059L1.70088 4.26074C1.69967 4.23394 1.70077 4.20708 1.70479 4.18066L1.71162 4.13574L1.71846 4.0918C1.72175 4.07032 1.7251 4.04878 1.7292 4.02734L1.73799 3.9834L1.74678 3.93848C1.75208 3.91099 1.7606 3.88391 1.77217 3.8584L1.80928 3.77637C1.81949 3.7539 1.83143 3.73196 1.84444 3.71094L1.86787 3.67285L1.89131 3.63379C1.91122 3.6017 1.93925 3.57701 1.97237 3.55957L2.0544 3.5166C2.06117 3.51301 2.06769 3.50784 2.07295 3.50098L2.10127 3.46387L2.12959 3.42578C2.15441 3.39347 2.18777 3.37008 2.22627 3.35742L2.27119 3.34277L2.31709 3.32812C2.35679 3.31512 2.39851 3.31442 2.43819 3.32715L2.48311 3.3418L2.52901 3.35742C2.56222 3.36811 2.59295 3.38523 2.61885 3.40918L2.65205 3.43945L2.68526 3.4707C2.70864 3.49235 2.72869 3.51728 2.74287 3.5459L2.76241 3.58594L2.78194 3.625C2.79362 3.64864 2.80254 3.67384 2.80928 3.69922L2.821 3.74121L2.83174 3.78223C2.83686 3.80149 2.84217 3.82136 2.84737 3.84082L2.85811 3.88379L2.86983 3.92578C2.87418 3.94207 2.87985 3.95931 2.88643 3.97656L2.90303 4.01953L2.91963 4.06348C2.93169 4.09532 2.93735 4.12892 2.93526 4.16309L2.93233 4.20898L2.9294 4.25391C2.92788 4.27781 2.92462 4.30157 2.92061 4.3252L2.9128 4.37012L2.90596 4.41504C2.90336 4.43042 2.90201 4.44578 2.90205 4.46094V4.5498C2.90213 4.57472 2.90053 4.6002 2.89717 4.625L2.89131 4.66895L2.88545 4.71387C2.88429 4.7226 2.88409 4.73176 2.88643 4.74121L2.89815 4.78516L2.90889 4.83008C2.91734 4.86441 2.9175 4.89999 2.90987 4.93457L2.9001 4.97852L2.89034 5.02344C2.88824 5.03304 2.88797 5.04257 2.88936 5.05176L2.89619 5.0957L2.90303 5.14062C2.90663 5.16462 2.90901 5.18879 2.90987 5.21289L2.91084 5.25781L2.9128 5.30176C2.91353 5.32241 2.91404 5.34361 2.91475 5.36426L2.9167 5.4082L2.91768 5.45312C2.9183 5.47122 2.91948 5.48967 2.92159 5.50781L2.92744 5.55176L2.93233 5.59668C2.93526 5.62199 2.93628 5.64746 2.93526 5.67285L2.9333 5.71777L2.93135 5.76172C2.93033 5.78668 2.92802 5.81215 2.92354 5.83691L2.91573 5.88184L2.90694 5.92578C2.9037 5.94367 2.90172 5.9617 2.9001 5.97949L2.89619 6.02441L2.89229 6.06836C2.89104 6.08215 2.89053 6.09648 2.89229 6.11035L2.89815 6.15527L2.90401 6.19922C2.90631 6.21719 2.90902 6.23584 2.9128 6.25391L2.93233 6.34375C2.93797 6.3708 2.94064 6.3983 2.94014 6.42578L2.93819 6.51562C2.93752 6.54773 2.93097 6.57933 2.91963 6.60938L2.90205 6.65527L2.88936 6.68652L2.90987 6.71582L2.93721 6.75684C2.96351 6.79546 2.97352 6.84104 2.96455 6.8877L2.95576 6.93457L2.94698 6.98047L2.96944 7.01953L2.99385 7.06055C3.01203 7.09195 3.02187 7.12727 3.02315 7.16406L3.02705 7.25391C3.02752 7.26661 3.02933 7.27894 3.03291 7.29102L3.04561 7.33496L3.0583 7.37793C3.06665 7.40592 3.07154 7.43464 3.07198 7.46387L3.07295 7.50879V7.55371C3.07313 7.56526 3.07525 7.57691 3.07881 7.58789L3.09248 7.63086L3.10713 7.67383C3.11779 7.70677 3.12102 7.74119 3.1169 7.77539L3.10518 7.86719C3.10438 7.87381 3.10507 7.87935 3.10713 7.88477L3.12373 7.92773L3.14034 7.96973C3.15289 8.00278 3.15732 8.03809 3.15401 8.07324L3.14912 8.11816L3.14522 8.16406C3.14391 8.17793 3.14438 8.19137 3.14619 8.2041L3.15205 8.24902L3.15889 8.29297C3.16105 8.30766 3.16476 8.32232 3.16963 8.33691L3.18428 8.37988L3.19795 8.42285C3.20604 8.44706 3.21217 8.4721 3.21651 8.49707L3.23213 8.58496C3.23491 8.60087 3.23874 8.617 3.24385 8.63281L3.2585 8.67578L3.27217 8.71875C3.28175 8.74846 3.28653 8.77934 3.28584 8.81055L3.28389 8.85547L3.28291 8.90137C3.28258 8.91679 3.28358 8.93236 3.28584 8.94727L3.29951 9.03516C3.30294 9.05781 3.30569 9.08065 3.30733 9.10352L3.31319 9.19336C3.31444 9.21071 3.3171 9.22797 3.32002 9.24512L3.32784 9.28906L3.33467 9.33301C3.33964 9.36214 3.34089 9.39243 3.3376 9.42188L3.33272 9.4668L3.32686 9.5127C3.32582 9.52232 3.32651 9.53134 3.32881 9.54004L3.34053 9.58398L3.35225 9.62695C3.35808 9.64891 3.36344 9.6712 3.36787 9.69336L3.38545 9.78125C3.39036 9.80591 3.39296 9.83135 3.39424 9.85645L3.39717 9.90039L3.39912 9.94531C3.4003 9.96833 3.40072 9.9915 3.4001 10.0146L3.39912 10.0596L3.39717 10.1045C3.39669 10.1228 3.39714 10.1411 3.39815 10.1592L3.40108 10.2031L3.40303 10.248C3.40399 10.2652 3.40603 10.2828 3.40889 10.2998L3.4167 10.3438L3.42354 10.3877C3.42594 10.4018 3.43001 10.4161 3.43526 10.4297L3.45186 10.4717L3.46748 10.5137C3.4732 10.5285 3.47926 10.5405 3.48506 10.5498L3.48799 10.5547C3.48888 10.5534 3.49061 10.5514 3.4919 10.5488L3.52803 10.4766L3.51241 10.4395L3.49385 10.3945C3.47679 10.3547 3.47274 10.3114 3.48604 10.2686L3.49971 10.2246L3.51436 10.1797C3.51724 10.1703 3.5179 10.1615 3.51729 10.1533L3.51338 10.1084L3.51045 10.0635C3.50869 10.0411 3.50697 10.0184 3.50655 9.99609L3.50557 9.95215L3.50459 9.90723C3.50426 9.88968 3.50369 9.87202 3.50166 9.85449L3.49678 9.80957L3.48311 9.70703L3.47725 9.66211L3.47041 9.61816C3.46545 9.58382 3.46856 9.54959 3.47823 9.5166L3.4919 9.47168L3.50459 9.42578L3.50557 9.4248L3.50459 9.42383L3.47139 9.33594C3.45959 9.30483 3.45368 9.27172 3.45479 9.23828L3.45674 9.19434L3.45772 9.14941C3.45826 9.1331 3.45839 9.1167 3.45674 9.10059L3.45186 9.05566L3.44698 9.01172C3.44364 8.97959 3.44677 8.94722 3.45479 8.91602L3.46651 8.87012L3.47823 8.8252V8.82129L3.44307 8.73535C3.42937 8.70161 3.42367 8.66532 3.42744 8.62891L3.43233 8.58398L3.43721 8.53809C3.43807 8.52958 3.43757 8.52155 3.43526 8.51367L3.42159 8.46973L3.40889 8.42676C3.40004 8.39773 3.39495 8.36725 3.39522 8.33691L3.39619 8.29199V8.24707C3.39623 8.23965 3.39466 8.23239 3.39131 8.22461L3.37373 8.18262L3.35518 8.13965C3.33917 8.10267 3.33518 8.06353 3.34248 8.02441L3.35127 7.97754L3.36006 7.93164L3.33662 7.88965L3.31416 7.84766C3.29248 7.80791 3.28644 7.76371 3.29756 7.71973L3.321 7.62793C3.32419 7.61535 3.32545 7.6039 3.32491 7.59375L3.32198 7.5498L3.31905 7.50488C3.31836 7.49383 3.31651 7.48205 3.31221 7.46973L3.28096 7.38184C3.26971 7.34986 3.26555 7.31624 3.26826 7.28223L3.27119 7.2373L3.2751 7.19238C3.27659 7.17417 3.27788 7.15591 3.27803 7.1377V7.04785C3.27827 7.02098 3.28214 6.9941 3.2878 6.96777L3.29659 6.92383L3.30635 6.87988C3.30784 6.87275 3.30819 6.86455 3.30635 6.85547L3.28682 6.76367C3.27982 6.72907 3.28057 6.69363 3.28975 6.65918L3.30147 6.61621L3.32881 6.51367L3.33955 6.46973L3.3503 6.42676C3.35463 6.40948 3.35837 6.3916 3.36104 6.37402L3.36787 6.33008L3.37471 6.28516C3.37769 6.26549 3.37998 6.24539 3.38252 6.22559L3.38838 6.18164L3.39424 6.13672C3.39591 6.12368 3.39572 6.11066 3.39424 6.09766L3.38448 6.00781C3.38237 5.98976 3.37924 5.97126 3.37569 5.95312L3.3669 5.90918L3.35811 5.86426C3.35126 5.82923 3.35251 5.794 3.36201 5.75977L3.37471 5.71484L3.38741 5.6709C3.38859 5.66663 3.38859 5.6625 3.38741 5.6582L3.37471 5.61426L3.36201 5.56934C3.3512 5.53063 3.35234 5.49101 3.36494 5.45312L3.37959 5.40918L3.39424 5.36426C3.39695 5.3561 3.39793 5.3491 3.39717 5.34277L3.39131 5.29785L3.38643 5.25391C3.38283 5.22445 3.38355 5.19433 3.38838 5.16504L3.39522 5.12109L3.40303 5.07617C3.40529 5.06241 3.40581 5.04868 3.40498 5.03516L3.40205 4.99023L3.39912 4.94629C3.3978 4.92474 3.39687 4.90241 3.39619 4.88086L3.39522 4.83691L3.39326 4.79199C3.39264 4.77194 3.39225 4.7515 3.39131 4.73145L3.38936 4.6875L3.38741 4.64258C3.38667 4.62687 3.38383 4.61071 3.38057 4.59473L3.37178 4.55078L3.36299 4.50586C3.35623 4.47277 3.356 4.43927 3.36299 4.40625L3.37276 4.36133L3.38252 4.31738C3.38462 4.30754 3.38481 4.29755 3.3835 4.28809L3.36983 4.19824C3.36591 4.17107 3.36582 4.14353 3.36787 4.11621L3.3708 4.07227L3.37373 4.02734C3.37522 4.0076 3.37672 3.98751 3.37764 3.96777L3.37959 3.92383L3.38155 3.87891C3.38266 3.85493 3.38567 3.83051 3.38936 3.80664L3.39619 3.7627L3.40303 3.71777C3.40508 3.70444 3.40511 3.69089 3.40401 3.67773L3.4001 3.63379L3.39717 3.58887C3.39539 3.56777 3.39373 3.54649 3.39229 3.52539L3.38936 3.48145L3.38545 3.43652C3.38375 3.41166 3.38373 3.38619 3.38545 3.36133L3.38936 3.31738L3.39229 3.27246C3.39377 3.25104 3.39509 3.22943 3.39717 3.20801L3.40205 3.16406L3.40596 3.11914C3.40626 3.11608 3.4063 3.11109 3.40303 3.10352L3.38252 3.05762L3.36299 3.0127C3.34162 2.96437 3.3447 2.9127 3.37178 2.86719L3.39619 2.82422L3.42159 2.78223C3.42783 2.77172 3.43041 2.76324 3.43135 2.75684L3.43819 2.71387L3.44405 2.6709L3.45967 2.59961L3.47237 2.55762L3.48409 2.51562C3.49078 2.49275 3.49911 2.47013 3.5085 2.44824L3.5251 2.4082L3.54268 2.36914C3.54935 2.3536 3.5555 2.33633 3.56123 2.31836L3.57588 2.27344L3.58955 2.22949C3.60081 2.19423 3.62059 2.16336 3.64717 2.1377L3.68135 2.10449L3.71455 2.07227C3.74662 2.04143 3.78747 2.02437 3.83174 2.02246L3.87862 2.02051L3.92549 2.01758C3.9485 2.01659 3.97164 2.01659 3.99287 2.0166H4.07784Z" fill="black"/>
</svg>
