<?xml version="1.0" encoding="UTF-8"?>
<svg id="Layer_1" xmlns="http://www.w3.org/2000/svg" xmlns:xlink="http://www.w3.org/1999/xlink" version="1.1" viewBox="0 0 500 450">
  <!-- Generator: Adobe Illustrator 29.0.0, SVG Export Plug-In . SVG Version: 2.1.0 Build 186)  -->
  <defs>
    <style>
      .st0, .st1, .st2 {
        fill: none;
      }

      .st3 {
        fill: #f1f1f1;
      }

      .st4 {
        fill: #91a6c0;
      }

      .st5 {
        fill: #5e6729;
      }

      .st6 {
        fill: #1d4aff;
      }

      .st7 {
        fill: #8f8f8f;
      }

      .st8 {
        fill: #707070;
      }

      .st9 {
        fill: #f9bd2b;
      }

      .st10 {
        fill: #030303;
      }

      .st11 {
        fill: #eca740;
      }

      .st12 {
        fill: #c1c1c1;
      }

      .st13 {
        fill: #c0dbfe;
      }

      .st14 {
        fill: #9da567;
      }

      .st15 {
        fill: #d4d4d4;
      }

      .st16 {
        fill: #b7baa4;
      }

      .st17 {
        fill: #bea071;
      }

      .st18 {
        fill: #7d8837;
      }

      .st19 {
        fill: #020202;
      }

      .st20 {
        fill: #ecc68b;
      }

      .st21 {
        fill: #fff;
      }

      .st22 {
        fill: #5c613a;
      }

      .st23 {
        fill: #e4c087;
      }

      .st24 {
        fill: #fed596;
      }

      .st25 {
        fill: #7a8342;
      }

      .st26 {
        fill: silver;
      }

      .st27 {
        fill: #fefefe;
      }

      .st28 {
        fill: #f54e00;
      }

      .st29 {
        fill: #efbb6c;
      }

      .st30 {
        fill: #eba740;
      }

      .st31 {
        fill: #010100;
      }

      .st32 {
        fill: #bfbfbf;
      }

      .st33 {
        fill: #f7cf92;
      }

      .st1 {
        stroke-width: 8px;
      }

      .st1, .st2 {
        stroke: #1d1d1b;
        stroke-linecap: round;
        stroke-linejoin: round;
      }

      .st34 {
        fill: #c2c2c2;
      }

      .st2 {
        stroke-width: 10px;
      }

      .st35 {
        fill: #eaa03d;
      }

      .st36 {
        fill: #b7c080;
      }

      .st37 {
        fill: #7e8938;
      }

      .st38 {
        fill: #be9f71;
      }

      .st39 {
        fill: #a1ad59;
      }

      .st40 {
        fill: #b17e30;
      }

      .st41 {
        clip-path: url(#clippath);
      }

      .st42 {
        fill: #f7d092;
      }

      .st43 {
        fill: #7b8537;
      }

      .st44 {
        fill: #fdfdfd;
      }
    </style>
    <clipPath id="clippath">
      <rect class="st0" x="188.5" y="336.4" width="109.2" height="20.9"/>
    </clipPath>
  </defs>
  <path d="M130,160.5c.2-1.4-.5-3.8,1.1-4.7l23.1-3.8,1.8-19.7c.2-3.7,3.7-3.5,6.6-3.2s17.8,4.5,18.8,3.7c.7-.9.4-2.2.7-3.3,1.4-4.1,3.6-11.5,5.4-15.1s1.1-2.2,2.3-2.7l23.7,7.3,11.1-15.5c1.6-1.7,4.2-.7,6,0l14,11.5c3.4-2.4,6.7-5,10-7.5,5.6-4.3,6.7-8.4,13.1-1.8,3.9,4,7.2,9.5,11.2,13.1s.4.8.5,1.2c4.1-1.6,8.2-3.2,12.3-4.9s9.2-5.4,11.1-2.8l6.8,17.1c.6,1.5,1.7,2.4,3.4,2.5,5.5,0,12.1-2,17.5-1.8s4.2,5,4.8,8.6,2,9.1,2.5,13.7c7.2.7,14.4,1.5,21.2,3.6,1.7,3.3-1.1,23.2,0,24.1l17.3,7.3c14-4,28.5-6.8,42.4-11.4,1.4-.3,2.8-.7,4-1.5,12-4.3,20.6-8.9,31-16.3s11.6-10.3,15.9-10.6,14.3,5.8,15.5,11.7,0,4.9.1,7.1c-.3,6-4.4,12.3-8,17.2,1.2,0,1.8.3,2,1.3,2.9,1,5.9,5.4,6,8.5-.3,3.8-1.3,6.4-3.2,9.8s-5.6,8-9,11.5c.9.3,1.5.6,1.3,1.7,4.1,2.9,3.1,3.6,3.5,8-1.5,9.4-9.8,17.8-17.9,22.2,1.2,2,1.6,3.1,1.4,5.3,0,.9,0,2.1,0,3,.2,3.4-2,5.8-4.2,8.2-5.6,5.8-13.3,9.2-20.8,11.6-.2,8-10.4,10.8-16.9,12,1.4.8,2.9,3.3,1.7,4.6.6,3.6,0,6.6-1.8,8.9-12.7,9.7-21.7,23.7-25.8,39.3-.9.5-1.3,1.4-1.3,2.9-.1,3.4-.6,7.9-2.7,11.2-2.7,14-10.7,28.5-20.4,39.1-12.2,13.2-27,19-44.3,21.6-2.3-.9-4.7-1-7.4-.4-3.5.5-7,.5-10.5,0-3,1.2-7.3-1.8-9.9-3.7-6.1-5.9-11.3-12.8-15.6-20.4-3.4-3.6-6.5-7.5-9.3-11.5l-3.1,4.8c-3.2,3.9-5.7,6.1-10.5,2.3-4.1-3.6-8.4-7-12.8-10.1-3.8,2.4-7.6,5-11.2,7.7-8.3,5.4-10.1,3.7-16-3.5l-1.6-1.3c-5.7,7.1-11.1,14.5-16,22.2-4.4,6.5-10.7,12.4-19,12.9-30.2,2-55.1-9.6-71.1-35.6-7.1-11.5-9.7-21.2-12.9-33.9s.2-.6.6-1c-.8-.8-1.1-1.9-.8-3.3-.4-.2-.7-.4-.8-.7-4.4-15.6-11.7-28.9-24.8-38.7-3-3.1-3.2-4-3.1-8.3,0-.5,0-1,0-1.5-.8-.8-.6-2.2.6-4.3-4.4-1.9-8.2-4.5-8.2-9.7-6.1-1.4-11.4-3.8-16.4-7.6-6.3-4.7-10.3-8.7-8.6-17-.2-1,.3-2,1.7-3.1-9.4-5.5-20.3-15.2-18-27.2.3-.7,1.3-2,2-2.5,0-1,.8-1.9,2.3-2.5-3.1-3.4-6.3-6.9-8.7-10.9s-2.6-4.5-3-6.8.2-.3.6-.6c-.7-1.9-1.5-4.4-.1-6.2.9-1.5,2.4-3.7,4-4.5.4-1.2,1.4-1.8,3.1-1.8-5.5-7.6-10.5-16.6-7.1-26.2,2.6-5.4,8.7-10.6,15.1-9.9s15.7,10.7,20.2,13.8c20.2,13.5,43.1,18.4,66.5,24.1l2-.3,15.6-7.7c.6-1.8-.3-3.8-.4-5.4l-.5-.4c-.4-4.4-.9-8.8-1.5-13.1Z"/>
  <path class="st32" d="M461.5,255c.2,2.7,1.3,3.9.2,6.9s-3.7,6-4.5,6.6c-2.5,2-9.5,6.6-12.4,8s-6.3,1.7-7.8,2.8-1.7,3.7-2.3,4.7c-2.9,4.5-8.3,5.7-13.1,7.1-.4,6.2,2.2,9.1-2.5,14.2-7,7.6-13.9,12.3-19.1,21.9-2.3,4.2-4.2,9.5-5.9,13.8l-1-1-.5,3,1-1c.4,1.7-.7,1.5-1.2,1.9-1.4,1.4,1.1.9,1.2,1.1.5.5-2.8,8.4-2.5,10l-1-1.5-.5,3c.9.3.2-1.2.7-1s.9,1.1.7,1.7c-1.4,3-2.1,6.9-3.2,9.8-2.7,6.7-6.6,14.4-10.6,20.4s-4.9,7.7-5.2,8-1.5.2-2.2.8-2.9,4.5-3.2,4.8-1.3,0-1.8.2-.8,1.8-1.4,2.4c-11.9,11.7-37.9,17.1-54.5,16.1s-7.2-1.3-10.5-3.5c-6.4-4.4-9.9-11.4-14.1-17.4s-6.5-7.9-9.5-12.5-2.2-3-2.4-3c-1.9,1-1.9,3.3-2.8,4.6s-4.2,4.2-5,4.6c-3.8,1.6-9.4-5.4-12.3-7.6s-4.4-2.3-6-4.5c-1,.7-4.6,2.2-5.2,2.7-1.6,1.4-.7,1.1-3.3,2.7s-8.6,5.9-9.4,6c-6,.3-6.4-5.3-10-7.5s-3,2.2-4.3,3.8-4.4,4.1-5.4,5.6-1.8,4.2-3.1,5.9c-6.1,8.6-12.3,18-23.7,18.8-14.6.9-30.4-1.8-43.4-8.1-1.2-.6-2.4-.8-2.8-1s-.6-1.4-1.3-1.9c-1.7-1.2-2.7-1.5-4.8-3.2-8.1-6.6-13.8-13.4-19.3-22.7-5.6-9.5-8-16.6-10.7-27.8-.6-2.6-2.1-5.8-2.5-8.6s0-1.3,1.5-1.2c0-.8-1.2-.5-1.5-1.3s.6-2.2.5-3.2c-.6-.5-.4,2-1.2.5-1.5-2.6-2.9-7.3-4.3-10.2-3.6-7.2-8.2-13.4-13.7-19.3s-8.3-6.2-9.4-9.6,0-6.4.2-8.5c.9.7.3,2.1.6,3.1,1.2,3.8,6.3,6.6,9.1,9.4,5.3,5.4,10.1,11.7,13.5,18.5,6.5,12.7,6.3,24.5,11.2,37.3,13.1,34.4,39.9,54.6,77.9,52.2,14.1-.9,19.4-14.1,26.5-24s6.6-7.2,8.7-11.5c4.6,1.8,6.2,9,11.7,8.5s5.3-2.8,6.5-3.6c3.6-2.3,7.1-5.8,11-7.4,4.3,1.3,13.3,11.9,17.1,12.1s8.3-9.5,9.5-9.5c2.6,2,3.8,5.2,5.8,7.7s3,2.8,3.9,4.1c7.8,10.2,10.8,21.3,25.1,25.2,4.2.4,8.4.5,12.7.2.1,0-1.7.2-2.2-.2,2-1.1,4.5-.3,6.7-.5,6.8-.9,17.2-3.6,23.6-6.4,22.4-9.5,36.9-34.6,42.3-57.2,5-21,8.2-30.5,23.6-46.2,2.4-2.4,5.8-3.4,6.9-7.3s.6-6.2-.7-8.1-2.4-1.2-1.4-2.3,5.1-1.1,6.3-1.5c3.9-1.3,9.2-3.7,10.6-7.9s0-2.1.2-2.6,6.3-2.2,7.5-2.7c7.1-3.2,15.7-8.8,18.4-16.4Z"/>
  <path class="st32" d="M264.5,13.5c.8,1.1,1.2,1,1.5,2.8s.7,9.3.3,10.7c-1.2,4-7.6,10.3-10.9,12.8-14.1,10.8-43.7,20.2-61.6,21.2s-23.5,1-30-5.5-3.1-4.4-3.3-7.7l1.5-.3c1.6,3.1,7.1,6,10.4,6.9,21.9,6.1,69.6-7.8,86.4-23.4s8.7-10.4,5.7-17.5Z"/>
  <path class="st26" d="M20,221.5c-.8,11.2,9.7,21.7,19,26.5.4,1.6-1.3,2.2-1.9,3.3-4.9,9.4,11.4,19.6,18.4,22.4,1.5.6,5.8,1.2,6.5,2s.4,2.3.7,3.3c1.4,3.9,4.9,5,8.2,6.7,0,.5-1.8,3.8-1.9,4.8-4.6-1-6.7-4.8-7.6-8.9-8.8-3.5-24.8-10-25.7-20.9l.2-9.1c-1.7-.6-5.7-3.1-6.9-4.3s-.6-1.5-1-2c-4.2-4.7-9.3-10.2-9-17s.5-5.6,1-6.8Z"/>
  <path class="st26" d="M478,224.5c0,.7.5,1.4.5,2.2.2,8.1-8.9,18.3-15.3,22.8s-1.5.4-1.7.6c-.3.3,0,1.4,0,1.9-.2-1.4-3-5-2.4-5.9,1.5-.9,3.5-1.8,4.9-2.9,6.3-4.7,11-11.5,14-18.7Z"/>
  <path class="st12" d="M485.5,193.5c0,1.3-.5,2.3-.5,3.5l1-.5c.4.6-.7,5.6-1.1,6.6s-1.3,1.4-1.7,2.4,0,2.3-.3,2.5-1.1-.1-1.3.1,0,1.3-.4,1.9-3.9,5.1-4.2,5.3c-.9.7-1.8.5-2.5,1.2-.9-.6-2.3-.8-3-1.8,6.7-5.8,11.2-12.9,14-21.2Z"/>
  <path class="st26" d="M13,192c-.8,2.6-.3,4.7.6,7.1,2.3,6.5,6.8,11.6,11.4,16.6s.9.7,1.5.7c-.8,1.2-3.4,1.7-4.5,2.5l-5.7-7.6c-.8-2.1-5.6-10.9-4.6-12.5s1.2-.4,1.3-.5c.2-.2-1.7-3-.9-5.7s.8-.7.9-.8Z"/>
  <path class="st34" d="M13,159.5c-2.5,9.6,3,18.8,8.5,26.3.2,1.1-.2.6-.7.7-1.1.3-2.8.5-3.8,1,.8-.9.2-1.3-.1-2.1-3.4-8-6.1-11.6-5.4-20.7s.6-3.2,1.5-5.2Z"/>
  <path class="st34" d="M479.5,185c-.7-.3-4-.1-3.5-1.2,4.7-4.8,6.8-11.3,9.5-17.3,0,.2.8.8.9,1.4.4,2.5-2.1,9-3.3,11.5s-2.4,4.3-3.6,5.7Z"/>
  <path class="st15" d="M132,174c-2.4-.1-1.3-3.1-1.6-4.7s-1.4-5.2-1.3-7.2.8-1.3.9-1.6c2.3,4,1.8,9.1,2,13.5Z"/>
  <path class="st7" d="M423,174.5c-1,1.1-2.6,1.4-4,1.5,1-.3,2.7-1,4-1.5Z"/>
  <path class="st13" d="M147,264c-14.4-92.5,97.6-151,165.6-84.5,20.7,20.3,33.6,51.5,28.9,79.5-1.9,21.4-13.3,42.7-28.5,57.8-1.8,1.8-10.1,9.1-11.9,9.6s-5.3.6-6.4.6c-33.9.4-68.1.4-101.9,0-1,0-5.1-.4-5.9-.6s-5.5-3.9-6.6-4.9c-15.8-13.2-30.5-36.9-33.3-57.5Z"/>
  <path class="st24" d="M331,135c-.7,3.2.8,5.7,1.3,8.5s.4,10.9,2.2,12.8l20.6,3.4c.7.5.5,2.7.5,3.6-.3,5.1-1.5,10.9-1.6,16s.8,3.8,2.9,5.1c5.1,3.2,12.6,4.9,18.1,7.6l-8.3,21.2.8,2.1c5,4.7,11.2,8.2,17,12,0,1.2-13,13-13.5,16s9.8,14.5,9,15.2c-4.7-.5-8.9-1.3-13.5.3s-6,3.8-6.5,3.2c-.4-3.7.9-7.6,1-11.2,1.5-32.5-11.8-66.2-35.3-88.2-16.2-15.3-31.9-24.9-54.3-30.2-38.3-9.1-75.5,1.5-104.6,26.2s-37.3,50.4-39.3,79.2,0,14.3.5,21.2c-2,.3-3.3-1.2-5-1.7-3.8-1.2-7.6-.9-11.5-.3,1.8-3.4,6.3-7.2,7.9-10.3s.7-1.5.6-2.4c-.2-3.3-14.7-16.9-14.5-18,4-3.8,9-6.7,13-10.5s3.8-4.1,2.8-9.3-5.4-13.1-4.7-13.9l20.4-9.9c1.7-2.4.3-4.5,0-7s.1-3.3,0-4.9-2.7-9.8-1.5-10.6l19.6-2.9c3.6-1.2,3.3-4,3.8-7.2.8-5.5,1.3-11.2,1.6-16.7l21.6,4.4c.6-.2,1.1-.5,1.6-.9,2.8-2.3,6-16.1,7.8-20l22.1,6.9c3.1-.9,13-16.7,14.5-16.4,4.3,3.5,8.3,7.5,12.9,10.7s2.5,2,4.2,1.8c3.5-.4,16.4-12.6,17.5-12.5l14.7,16.9c7.9.4,14.9-5.1,22.3-6.9,1,.3,1.6,4.8,2.1,5.9,1,2.6,3.5,8.4,4.8,10.7s1.3,1.9,1.9,2.1c3.6,1.5,21.6-2.1,22.5-1.2Z"/>
  <path class="st27" d="M386.5,190c22.8-6.1,45.5-10.8,65.2-24.6,4.3-3.1,13.3-12.5,18.1-12.9s9.5,3.8,10.9,8.2c1.5,4.8-4.1,15.6-7.1,19.6s-3.6,3.5-5,5.3l-1.1-.2c.5-4.5-.3-8.4-2.4-11.8-2.7-1.8-5-1.6-7.5.3-4.9,3.6.5,4.1,4,3.2.5,3.7-.9,6.9-2.8,10s-9.9,10.7-9.6,13.7c.8,7.2,12.8-5.4,10.7,4.4s-7.3,10.7-9.4,13.1-6.3,4.9-6.8,8.2c-.9,5.6,7,1.5,9.8,2,2.3,2.3-7.8,9.6-9.5,10.7-3.4,2.2-6.5,3-9.7,4.8s-5,4.6-1.1,6.2,8.3-1,5.2,2.7-12.5,6.4-16.4,7.9-6.9,1-7.4,4.1,6.3,3.9,5.4,4.6c-.5,0-1.1-.1-1.5,0-4.9,2-9.4,2-13.5,0l-10.6-5.5c-2.9-3.9-5.4-7.9-7.7-12.2-4.5-3.6-5.4-6.7-2.7-9.3,7-6.2,17.7-16.4,5.1-23.4-4.2-2.2-8-4.7-11.5-7.8,1.9-6.8,4-13.7,6.7-20.3l2.2-1.1Z"/>
  <path class="st27" d="M331,351c-3.5,7.9-9.3,10.8-17.7,11-18.9.4-37.8.7-56.7,0h-87.5c-9.1-2.2-14.4-10.1-11.6-19,3.9-10.8,10.5-11.3,20.8-11.5,35.7-.7,72.2.5,108.1.3,9.2,0,20.4-1.1,29.4-.3,10.6.9,16.2,9.4,15.2,19.5Z"/>
  <path class="st27" d="M105.5,190.5l1.1.6c2.1,5.9,3.8,11.9,5.1,17.9-5.5,4.4-10.8,9-15.9,13.8-2.2,4.7,0,9.1,3.4,12.5,3.8,3.3,6.9,6.9,9.1,11-6.5,9.2-13.4,17.7-24.6,20.5-.6-.9-1.3-1.8-2.2-2.4-3.8-1.4-21.3-7-22.4-10.3s6.5-.2,7.4-4.5-3.7-3.6-5.4-4.4c-2.4-1.2-5.5-2.8-7.7-4.3s-5.4-4.6-8-6.5c-.8-1.4-1-2.8-.8-4.4,2.9-.7,6.5,3.3,8.7.5s-3.7-7.6-5.6-9.7-9.6-11.5-10.1-14.2c-1.4-7.5,5.8-1.2,8.6-1.6s2.3-1.9,2.3-3.2c-.2-2.7-7.4-9.7-9.2-12.3s-3.9-7.4-2.8-11c1.7.7,6.5,2.1,5.4-1.1s-3.9-3.2-5.9-3.4c-4.7.7-8.6,3.2-7.4,8.5.9,2.4.7,5.5-1.6,2.5-2.3-2.7-4.6-5.2-6.3-8.5-3.4-6.4-6.6-13.7-.2-19.3s10.5-2.4,16,2c24.6,19.7,39.2,22.9,69,31.3Z"/>
  <path class="st11" d="M145.5,194c.6,0,.5.5.4.5-.5-.9,9.3-14.3,11-16.4,35.9-43.6,96.3-51.5,145-25.1,20.9,11.3,33.6,30,44.3,50.5h.7c.7,1.5,1.9,3.6,2.5,4.8,4.7,10.6,7.2,30.7,6.5,42.4s-1.5,16-2.8,18.2-4.2,4.9-5.6,7.4c-4.2,7.5-5.5,14.9-7.7,22.8s-5.4,13.1-10.9,19.5-7.8,8.4-9,8.7-1.9-.6-2.9-.7c-2.1-.1-4.7.1-6.9-.1s1-1.5,1.5-2c54-45.7,45.1-134-16.3-168.7s-130.3-3.7-150.1,58.3c-6.9,21.6-5,36.2-1.9,57.9,1.3,4.4,1.1,5.6-.5,3.5-3.9-7.3-9.7-9-10.5-18.3-2-24.1,2.3-42.2,13-63.2Z"/>
  <path class="st39" d="M383,278.5c2,1.4,4.3,2.5,6.4,3.8l13.6,10.9-6.7,5.3c-10,9.5-16.4,20.5-18.8,34.2l-2.2,6.3c-.5-5.4-3.4-10.5-7.5-14s-11.6-4-18.3-2l3.5-17.5c.9,1.2,1,2.7.4,4.6,6.7-12.9,16.4-22.4,28.7-29.2.7-.5,1-1.3.9-2.4Z"/>
  <path class="st39" d="M107.5,277c.7.6.6,1.1.1,1.7,13.3,8.3,22.8,21.2,30.1,35-.2-.8,0-1.3.8-1.7l2.5,10c-2.7-.2-4.9-2-7.7-2-9,0-15.6,6.7-17.7,15-.6,2.3-.9,2.3-1.5,0-2-13.8-9.8-28.1-19.7-37.5s-6.6-4.4-6.8-5.7l14.3-11.3c2.2-.8,3.9-2.3,5.8-3.5Z"/>
  <path class="st37" d="M347.6,329.6c1.7-2.2,8.3-3.9,11-3.6,15.1,1.5,13.8,25.1,7.5,34.9s-18.1,14.6-24.9,3.5c-2.5-4-4-14.3-2.7-18.6s5.8-8.5,6.9-10.6,1.2-4.4,2.1-5.6Z"/>
  <path class="st37" d="M127.2,363.8c-3.6-3.9-7.2-12.3-7.7-17.6-.8-10.4,4.1-24.6,17-21s5.5,2.5,6.2,3.3c1.2,1.6,2.5,6.1,3.7,8.3s4.6,6.7,4.9,7.6-.4,3.7-.3,5.3c.2,5.6,1.3,7.3-1.7,12.7-5.1,9.2-15.5,8.5-22.1,1.3Z"/>
  <path class="st4" d="M147,264c-1.9-7.4-1.9-16.1-1.5-23.8,2.1-48.6,42.7-89.8,91.3-92.8,61.9-3.7,110.2,46.2,105.8,107.8,0,1.1-.3,2.8-1,3.8.4-4.2,1.5-15.7.4-19.1s-.9-2.9-1.5-6c-4.7-24.2-16.7-44.8-35.8-60.2-69.3-55.6-169.4,2.7-157.5,90.3Z"/>
  <path class="st29" d="M145.5,194c10.4-20.3,25.6-36.2,45.9-46.9,39.4-20.7,88.1-16.4,122.3,11.5,16.4,13.3,24.8,25.6,33.3,44.9l-.5,1.8c-11.5-19.3-21.3-37.2-41.3-49.2-46.3-27.6-106.9-22.2-143.7,18.2-5.9,6.5-9.7,13.3-15,20s-1.1,1.3-1-.2Z"/>
  <path class="st26" d="M331,351c-.7,7.5-5.7,15-13.9,15.2s-14.5-.7-21.3-.7c-40.3-.4-81.2-.4-121.1.2-4.2,0-5.6,1-9.8-1.3-7.3-4-10.1-13.8-7.4-21.4.3,2.2-.9,4.5-.5,6.7s2.8,5.1,3.3,5.7c2.3,3.1,5.4,4.3,8.9,5.6,28-.1,56.2,0,84,0,19.3,0,41,1.2,60,0,2.6-.2,7.7-.8,9.9-2.1s5.6-5.9,7.8-7.9Z"/>
  <path class="st14" d="M379.5,349l1.7-5.2c1.8-2.4,5.9-2.6,4.8,1.2-.5,2.1-.5,4.8-1.1,7.1-5.3,19.7-21,43.4-40.5,51-8.2,3.2-20.5,5.7-29.1,5.9-9,.2-11.1-.2-17.3-6.5l-1.8-3.1c-.5-1.9.9-6.6,3.3-5.9,2.2,3.2,4.4,6.4,6.7,9.5.9.5,4.3.9,5.5,1,40.6,2.5,53.8-23.3,67.8-55Z"/>
  <path class="st39" d="M330,365.5c1.5-1.4,2.6-3.3,3.7-5,3,6.6,6.1,12.9,13.7,14.8s5.8.1,9.5-.3l-.5,1.3c-14.6,6.2-29.4,12.3-45.3,13.6-2.9,0-4.8.9-5.6,2.6-1.3-1.1-2.7-3.1-3.7-4.5-2.3-3.4-4.5-7-6.8-10.5-1-1.2-.8-1.9.4-2h17.4c8.1.4,13.7-4,17.2-10Z"/>
  <path class="st14" d="M105.5,349v-1.1c3.6.3,6.3,2.7,8,7.1,7.9,20,21.9,40.5,44,45.8,5.5,1.3,19.8,3,25,1.5,3.6-1,4.6-6.5,7.5-8.8,1-1.1,2.3.2,2.8,1.3,1.4,2.7.7,4.4-.8,6.7-2.7,2.7-4.4,5.1-8.5,5.8-9.3,1.6-26.3-1-35.2-4.3-22.6-8.4-37-31.5-42.8-54Z"/>
  <path class="st37" d="M385.5,266.5c8.4,4.9,14.6,11,22.3,16.9s4.9,2.7,6.9,5.1c5.5,6.8-3.1,10.4-7,14.5-12.4,12.9-17.6,24.9-21.7,42,.4-2.2-1.7-2.2-3.2-1.4s-2.6,3.8-3.3,5.4c1.1-3.4,1-7.2,1.6-10.6,3-15.6,7.9-25.4,18.8-36.7s12.1-7.8,5.8-13.2c-5.3-4.5-13.4-10.2-19.3-14,.7-2.5.1-4.8-1.8-7l.8-1Z"/>
  <path class="st26" d="M105.5,190.5c1.1.3,4.5.5,5.2,1.5,1.4,4.7,3.9,9.6,5.3,14.2s1.8,3.9-.8,6.3-9.6,6.8-12.5,10-2.3,3.6-2.1,4.7c.5,3.8,14.7,16.2,14.4,18-2.7,3.5-5.7,6.9-8.4,10.2s-3,4.9-3.6,5.5c-1.1,1-4.5,2.4-5.8,3.4-3.6,2.7-7.1,5.6-10.5,8.5-1.7.8-6.2-1.8-8.5-1.3-1.2-1,4.1-2.1,4.5-2.8,1.2-1.8,0-2.9-1-4.2,1.1.4,1.9,1.3,2.4,1.4.8.2,9.6-4.5,10.9-5.5,5.3-3.8,8.1-9.8,12.7-14.3-4.3-7.8-17.3-13.4-12.5-23.9,4.9-5.1,10.5-9.2,16-13.6l-5.5-18.2Z"/>
  <path class="st37" d="M97.5,270.5c.5.4.6,1,.4,1.8,1.7,2.2,1.7,3.6,0,4.2l-.6.8c-4.8,3-8.6,6.1-11.4,9.2-2.1,1.6-4.9,2.7-3.8,6,4.5,5.4,10.1,9.6,14.5,15,12.2,14.6,10.2,31,16.7,47.5-1.8-.5-2.4-3.1-3.1-3.9s-2.4-1.6-2.9-1.9c-.8-.5-1-1.1-2-.2-5-19.7-8.2-32.3-23-47.3-3.7-3.7-12.7-8.1-7-14.4s4.1-3,5.7-4.3c5.5-4.4,10.6-8.4,16.3-12.5Z"/>
  <path class="st26" d="M386.5,190c-.7.4-1,.8-1.3,1.5-2.7,6.3-4.4,13.3-6.8,19.7,1.1.7,2.2,1.6,3.3,2.3,3,1.9,9.6,5.3,11.8,7.7s3.3,6.9,1.2,10.7-3.6,5-4.4,6.1c-1.5,1.7-6.3,5.6-7,7s3.4,4.9,4.3,6.2c2.5,3.7,4.5,8.5,7.5,12,5,1.9,11.4,7.1,16.8,7.3s4.5-1.3,6.7-1c-4.5,1.4-8.9,3-13.4,4.4-2.4.2-4.9-3.3-6.7-4.6s-7.4-4.4-9.2-6.3-4.9-7.5-7-10.5-6.1-7.2-6.2-7.8c.5-2.2,3.3-3.6,4.3-4.8s2.5-3.6,3.6-5.1c3-3.8,8.7-7.4,2.7-11.7l-14-9.5-.6-1.7c2.8-6.7,5.9-13.4,8-20.3.3-.4,5.3-1.3,6.4-1.6Z"/>
  <path class="st39" d="M153.5,366l1.9-2.6c4.3,6.6,9.9,13.9,18.7,13.3l13.1-.3c5.5-.6,7.6.3,6.3,2.6-2.7,4-5.7,8-8.5,12-2,.3-4.2,0-6.6-.9-12.9-1.3-24.2-5.4-35.4-12-2.5-.8-4.5-2-6-3.6,3.7.4,7.3-.5,10.5-2.3s4.2-4.2,6-6.2Z"/>
  <path class="st26" d="M468.5,185.5c-1,1.3-2.2,2.2-1,4-1,1-1.8,2.2-2.3,3.6,7.3,3.5,6.1,13.4,1.9,18.9s-.4-.4.4,0c0,0,.2.7,0,.9-1.5,1.4-5.3,2-4.4,5.6-.3,1.2-1.2,2.4-2.5,3.5,5.3,5,2.9,12.8-1.6,17.5l.6.5c-1.4,2.8-7.8,3.7-6.1,7.4s1.6,1.3,2,1.8,0,.8.1.8c-1.7,1.6-4-1.5-4.1-3.4l-3.1,1.8c1.5,6.9.3,9.1-4.9,13s-8.3,5-12.8,6.6c.3,8.1-7.4,11.3-14.2,12.6,1.7-.5,2.9-.4,3.6.5-4.5,2.4-8,.8-10.5-3.2.3-1.1,10.9-3.2,12.5-4,2.6-1.5,5.1-5.6,2-8,0-.7,5.1-2,6.1-2.4,1.7-.7,5.2-2.4,6.7-3.3,4.9-2.8,10.3-8.5,4.7-13.4,5.4-3.9,17.1-9.8,17-17.5,0-1.9-.7-2.4-1.5-3.7l-1.4-1.6c-2.3-.8-2.9-1.4-1.6-1.9,2.9-3,10.2-12.6,10.9-16.4.9-5.6-1.4-9.7-7.4-9.6,5.5-5.7,11.4-14.4,7.5-22.5,1.5,1,2.7,3.3,3.1,5.1s-.6,4.9.4,6.9Z"/>
  <path class="st36" d="M357,375c1.7-.7,3.3-2.1,4.3-2.5,1.9-.8-1.2,4-1.5,4.5-8.5,12.2-23,20.6-37.9,21.6s-9.8.4-12,0-3.6-4.5-4.2-6-.3-1.3-1-1.8c0-1.5,14.9-2.9,16.7-3.3,7.6-1.5,18.5-4.9,25.3-8.2s6.5-2.7,10.5-4.3Z"/>
  <path class="st36" d="M137,374.5c8.4,2.9,16.1,8.6,24.9,11.4,7.3,2.3,15.8,2.2,23.1,5.1-.2.3-.2,1.1-.6,1.7-2.1,3-2.2,4.4-6.3,4.8-18.6,1.5-36.7-6.3-47.4-21.5-5.1-7.3-.9-3.5,2.7-2.2s2.4.4,3.5.8Z"/>
  <path class="st27" d="M40.5,226.5c-5.8,6.9,1.8,16.1,7.8,20.1,5,1.2,6.3,3.5,3.8,7-1.5,6.7,11.8,14.4,17.3,16.2l.8,1.1c.2,4.6,2.3,6.1,5.9,8.4v1.2c-.3.1-.4.4-.6.5-1.1.8-2.4.7-4-.5-5.2-1.8-4.8-4.1-6.1-8.9-6.6-.9-20.1-7.6-23.4-13.3s-1.6-3-1.4-3.9c.4-2.6,5.2-4.5,4.2-7.4s-6.6-4.4-8-5.5c-3.8-2.9-11.5-11.7-12.2-16.3s5.9-2.7,10-4.7c.9-5.6,7,4.4,6.8,5s-.4.8-.8,1Z"/>
  <path class="st36" d="M107.5,277c1.8-1.2,8.9-6.5,10.3-6.5s1.3,1.4,2,2c13.1,12.7,16.5,21.5,18.8,39.5s.4,3.9,1,6c-2.6-.1-2.1-2.7-2.8-4-5.7-10.5-12-20-21-28s-6.5-4.7-9.5-7l1.3-2Z"/>
  <path class="st36" d="M383,278.5c.4.6,1.2,1.1.8,2-.9,1.9-8.8,5.9-11,7.5-8.7,6.5-15.6,17-20.5,26.5,0-2.9.4-6.1.8-9,1.6-12.1,8.4-24.1,17.8-32s.6-1.3.8-1.4c2.1-1.2,6.2,3,7.9,4.1s2.4,1.6,3.5,2.3Z"/>
  <path class="st14" d="M385.5,266.5c0,1.5,1.4,2.2,1.9,3.4s1.2,4.7-.9,4.6c-3.2-2.1-11-7.6-14.7-7.3s-2.3.7-3.1,1.3c-2.3,1.8-6.8,6.4-8.7,8.8-13.7,17-11,30.3-17,49.2-1.4,1.9-2.8-.6-2.6-2.3,1.3-8.9,3-17.8,5.1-26.7,1.7-12,12.5-34.9,26.8-35,5.7,0,8.7,1.4,13.2,4Z"/>
  <path class="st14" d="M139.5,280.5c3.2,8.5,5.9,18,6.4,27.1s-2,7.4-2.4.9c-.7-13.2-10.7-34.4-22.2-41.5s-4.9-1-6.7-.2c-4.2,1.7-12.1,7.4-16,10.2-.7.4-1,.3-.5-.5,0-.3.5-.7.3-1.5-.4-1.4-2.3-2.4-.8-4.5,2.8-2,5.6-4.8,8.7-6.5,15.8-8.5,26.7,3.3,33.3,16.5Z"/>
  <path class="st30" d="M148.5,286.5c3,7.3,7.4,14,11.9,20.3s10.6,13.3,17.6,18.9c.2,1.1-.5.7-1.2.7-3,.2-5.9,0-8.8.8-5.8-4.8-10.5-10.6-14.8-16.8-.4-5.6-2.2-11-3.2-16.5-.4-1.5-.9-3-1.5-4.5-.1-.6-.5-.8-.5-2-.5-1.3-.3-1.6.5-1Z"/>
  <path class="st25" d="M153.5,366l1.8-3.5c1,1.3,2,2.7,3.2,3.8,4,3.4,11.7,6.4,16.8,4.2h23.8c.6.5-4.9,7.6-5.5,8.5,0-1.7.3-1.4-1.2-1.5-6.9-.5-14.7.6-21.5,0s-13.1-7.8-15.5-13.5c-.5.8-1.1,1.3-1.7,2Z"/>
  <path class="st44" d="M455.5,250c1.8,2.5,2.1,2.6.5,5.8-2.4,4.7-13.8,11.4-18.9,13.1s-4,.4-4.6.9-1.2,4.6-1.7,5.8c-.7,1.7-3.6,3-5.3,3.7s-4.4,1.5-5.5,1.8c-1.6.3-7,1.5-7-1,5.3-.5,14.4-2.8,16.2-8.5s0-3.4.8-4.2,6-2.4,7.4-3.1,7.8-4.9,8.7-5.8,1.8-3.5,1.9-4.6c.2-1.7-1-5.3-.7-5.7.4-.6,5.1-3.3,5.3-3-.4,2.6.6,4.1,3,5Z"/>
  <path class="st26" d="M40.5,227c-.1,1-.8,1.8-1,2.8-.9,6.4,3.6,9.5,8,12.9,2.5,2,5.6,4.1,8.4,5.3-5.5,7.4.9,11.8,7.1,15.1s1.8.4,2.7.8c2.5,1.1,4.6,2.9,7.6,3.1.5,1.3-1.2,2-1.3,2.7-.6,4,5.2,7.6,8.8,7.3l-2.5,2.2c-.7.6-1.7.8-2.5,1.3l-4.7-3.5c-2.2-2.4-1.3-5-2.3-6.2s-3.3-1.3-4.5-2c-5-2.7-13.5-8.2-13.5-14.5s2.1-3.6,1.3-4.8-3.6-1.5-4.5-2.1c-5.2-3.2-11.7-11-10.2-17.6s1.8-2.6,2.9-3.4c.5,0,.4.2,0,.5Z"/>
  <path class="st27" d="M30,192l.8-1.1c.7-.5,5,6,5.3,6.8-6.1,3.4-6.7,11.3-3,16.8,0,1.2-.8,1-1.7.4-4.9-4.5-10.1-9-12.7-15.5s-2.4-5,0-7.5c3.4-3.5,5.4.2,8.6.5s1.8-.3,2.7-.5Z"/>
  <path class="st32" d="M36,174c-2.9,1-4,1.6-4.5,4.8-1,7.5,4.2,13.7,8.5,19.2-5.1-.5-7.8,3.4-7.5,8.2s5.6,11.2,8,14.1,3.1,2.9,4.5,4.5c-2.7-.2-2.5,1.6-4.5,2.2,0-.2,0-.3,0-.5,0-1.5-3.5-6.3-4.5-6.8s-1,.5-1.5.8c.6-2.9-1.1-3.8-3-5.5,1.9,0,.5-.4.3-1-.4-1.1-1.6-3.3-1.7-4.3-.7-4.2.9-10.7,5.5-12-1.1-1.2-2.2-2.5-3.2-3.8s-.2-2.3-2.3-2c2.4-3.8-.7-3.7-2.5-5.7s-.4-1.1-.5-1.3l1.5.7c-2.6-6.9-.5-12.3,7.5-11.7Z"/>
  <path class="st25" d="M330,365.5c.8,1,.4,1.2-.2,2-1,1.4-4.4,5.3-5.8,6.2-5.1,3.7-20.6,2.5-27.3,2.7s-2-.5-1.7,1c-.6-.9-5.2-6.4-4.5-7,2-.6,3.9,0,5.7,0,4.8,0,12.1-.7,16.5,0s1.8,1,3.4,1c4.4-.1,10.7-2.9,13.8-6Z"/>
  <path class="st44" d="M467.5,189.5c.6.1,1.2,1.1,2.7,1,2.6-.1,6.4-3.1,9.1-.3s-.9,8.9-2.4,11.5c-2.4,4-6.1,7.2-9.4,10.3-.9.6-1.3.9-.8-.5,1.4-3.7,3.4-7.6,2.7-11.6s-3.1-5.1-5.9-6.6c1.4-1.2,1.7-4.2,4-3.8Z"/>
  <path class="st37" d="M288,376.5c3.9,5.6,7.6,11.4,11.5,17-2.9,2.9-2.9,5.4-1.5,9-6.5-6.7-13.4-17.8-19-25.5l-.7-1.2c0-1.5,8.6-.5,9.7.7Z"/>
  <path class="st18" d="M143.5,308.5l1.5,5.5c.2-11.4-1.9-22.7-5.5-33.5,8.1,16.3,6.4,34,14.4,48.8,2.1,3.9,4.8,4.7-.6,8.7-1.5-.4-6.4-12.8-7-15s-2-7.8-2.6-10.9-.1-2.4-.1-3.6Z"/>
  <path class="st37" d="M201,377.5c.9-1.5,8.9-1.3,9.1-.5l-.6,1.5c-5.4,7.3-11.3,16.9-17.5,23,.9-3.1,1.3-6.3-2-8,3.6-5.4,7.3-10.7,11-16Z"/>
  <path class="st44" d="M463,218.5c.5,0,1.4.9,2.3,1,4,.4,8.4-1.7,7.7,4.2s-8.9,13.9-13.5,16.3-2.2,1.5-3,1.3c3.6-4.8,7.6-9.4,5.4-15.9s-2.5-2.6-2.3-3.5,2.5-3.4,3.4-3.3Z"/>
  <path class="st43" d="M343,326.5c-.8,2.6-4.4,12.2-6.2,13.5s-4.2-2.9-4.1-4.3,4-5.2,4.7-6.6c4.1-8.1,4.1-15.3,5.7-23.8s1.7-5.3,2.4-7.9c-1.1,7.7-3.5,17-4,24.8s-.6,4.3,1.5,4.2Z"/>
  <path class="st38" d="M223.5,376.5c-1.5-1.6-5.5-4.4-1.9-6.1s2.7.2,4.1.1c4.8-.2,9.2-.3,14,0,.5,0,1.7-.3,1.2.7s-7.2,4.9-8.5,5.8l-.4-.6c-3.4,0-6.3,0-8.6,0Z"/>
  <path class="st17" d="M256.5,376c-2.3-1.8-5.3-3-7-5.5,2.1-.8,4,0,5.8,0,2.8,0,6.2-.4,9.1-.3s5-.2,5,1.6-3.4,5.6-4.4,6.7c-.6-.4-.7-1.1-.4-1.9-2.8.1-5.5,0-8.1-.6Z"/>
  <path class="st5" d="M201,377.5c1.1-1.6,3.2-5.9,5-6.7s6.9-.4,9-.8c.7.7-4.7,7.5-5.5,8.5.3-1.5-.8-1-1.7-1-2.3,0-4.5,0-6.8,0Z"/>
  <path class="st5" d="M288,376.5c-2.5.4-4.9-.4-7.2-.5s-2-.4-1.8,1c-.7-1-5.6-6-4.5-7,2.3.8,7.2,0,9,.8s3.7,4.6,4.5,5.7Z"/>
  <path class="st20" d="M325.5,330c-.2-.8.2-.8.5-1.3,1.3-1.9,4.5-4.3,6.3-6.2s2.1-3.4,3.7-4.5c0,2.3-5.3,14.4-7.2,14s-1.9-2.3-3.3-2Z"/>
  <path class="st42" d="M256.5,376c2.9-1.1,6.5-.2,9.5-.5.3.3-.8,2.5-1,3s-1.3,3-1.7,3c-2.7-1.2-4.6-3.8-6.8-5.5Z"/>
  <path class="st33" d="M223.5,376.5c-.3-1.5.8-1,1.7-1,2.2,0,4.8-.1,7,0s.6.8.2,1.5c-1.1.7-4.4,3.6-5.2,3.4-1.5-1-2.6-2.6-3.8-3.9Z"/>
  <path class="st40" d="M148.5,286.5c-.5.1-.5.6-.5,1-2.3-3.7-2.9-8.2-5-12l1,.5c0-1.3-.3-2.7-.5-4l5,14.5Z"/>
  <path class="st16" d="M98.5,277c-4.2,3-8.3,6.3-12.5,9.5-1.4-.6.2-1.2.6-1.6,3.5-3.1,7.3-6.1,11.4-8.4,0,0,.4.3.5.5Z"/>
  <path class="st23" d="M156.5,323.5c.5-.5,5.5,4.5,5.8,5s0,1.4-.5,1.5c-1.9.5-4.7-5-5.2-6.5Z"/>
  <path class="st3" d="M317.5,414c1.7,0,3.5,0,5.3,0s1.9-.4,1.7.5c-5-.4-10.8.5-15.8,0s-1.2-.4-1.7-.5c3.5,0,7,0,10.5,0Z"/>
  <path class="st22" d="M114,335c.3.2.4,1,.8,1s.4-.8.8-1c-.3,1.3.4,4.1-1.5,5-.2-1.6.2-3.5,0-5Z"/>
  <path class="st8" d="M454,222c-.3,1.3,1.1.9,2,1.7s.6,1.3,1,1.8c-1.5-1.2-2.2-2.5-4.5-2-.4-1.4,1.2-1.2,1.5-1.5Z"/>
  <path class="st40" d="M150,294c-1.2-1-1.2-3-1.5-4.5,1.3.7,1.2,3.1,1.5,4.5Z"/>
  <path class="st26" d="M75.5,281c-.2.1-.2,1-1.2,1s-2.1-.9-2.8-1.5c1.1.4,2.9,1,4,.5Z"/>
  <path class="st31" d="M256.5,13c-2.2-.4-4.4-.7-6.6-1.2s-1.2-.7-1.4-.8c2.4-.8,3,0,4.8.5s1.7-.1,2.4,0,.7,1.4.8,1.4Z"/>
  <path class="st31" d="M261,20.5c.4-2.5-.1-3.2-1.5-5s-.7-1-1-1.5c.3.1,1-.2,1.5.2s1.8,2.9,1.9,3.1c.6,2.1-.2,2.1-.9,3.1Z"/>
  <path class="st19" d="M420.5,233c-.4-3.6,1.9-3.1,3.6-4.1,3.1-1.8,10.3-5.5,8.4-9.7-4.4-.1-8.5.5-3.5-4.2,7.4-4.4,11.7,3.7,8.6,10.2-2.3,4.8-9.3,8.4-14.1,10.2-1.3,0-2.3-.8-3-2.4Z"/>
  <path class="st19" d="M438.5,185.5c6.3-1.2,7.7,6.3,5.7,10.9s-9.9,12.3-14.2,9.6c-.4-.4-.9-1.1-.9-1.7.2-2.6,6.5-6.1,8.4-8.1s2.3-3.9,1.4-6.2c-7.4,1.1-7.2-3.3-.4-4.6Z"/>
  <path class="st26" d="M429,215c2.7-2.6,5.1-2.8,8.5-.7,6.4,4,2.5,13.5-1.9,17.5s-7.7,4.8-9.4,5.1c-2.6.5-5.3-1.2-5.6-3.9.7.3,1.2,1.2,1.9,1.4,2.1.6,11-5.3,12.7-7.2,5-5.7,2.6-15.2-6-12.3Z"/>
  <path class="st26" d="M430,206c2.4.4,4.2-.9,6-2.3s6.3-5.3,7.3-7.7c1.8-4.4.7-10.1-4.7-10.5.4,0,.7-.5,1.7-.6,9.1,0,9,11.7,3.6,17.1-1.6,1.5-6.7,4.9-8.6,5.4s-4-.1-5.1-1.4Z"/>
  <path class="st19" d="M66.5,216.5c3.7.3,6.6,4,3.1,4.7s-6.2-2.3-4.3,3.2,3.6,3.5,4.8,4.2c2.7,1.8,7.5,2.3,7,6.3-4,3.9-12.2-2.1-15.2-5.6s-3.6-15.7,4.7-12.9Z"/>
  <path class="st10" d="M59,187.5c1.8,0,3.4.1,4.4,1.8,2.7,4.6-4.4,2.2-4.9,2.7.1,1.3-.3,2.9.1,4.2.6,2,8.7,6.8,9.6,8.9s.4,2.1-.7,3c-.8.1-1.5.4-2,.9-4.7-2.4-11.6-7.7-12.7-13.1s1.2-9.5,6.2-8.3Z"/>
  <path class="st26" d="M59,187.5c-4.7.2-6.3,5.6-4.8,9.6s5.1,6.5,7.6,8.4,3.3,2.9,5.7,2.5c-.4.3-1.1.4-1.3.7-1.2,1.4-.6,3.3-4.2,2.1s-5.4-3.1-6.2-3.8c-2.8-2.2-6.2-7.1-6.3-10.7-.2-5.1,3.9-11.2,9.5-8.8Z"/>
  <path class="st32" d="M66.5,216.5c-5.7-.5-7.1,4.3-5.9,9.1s7.1,7.7,10.4,9.1,4.1,2.1,6,.2c-.3,2.4-2.1,1.2-3.7,1.5s-1.4.9-2.5,1c-3.8.3-10-5.4-11.9-8.7s-1.8-6-.8-9.5,5.5-6.4,8.4-2.9Z"/>
  <g>
    <g>
      <path class="st21" d="M184.8,263.4h13.4c6.8,0,11.2,4,11.2,10.2s-4.4,10.2-11.2,10.2h-7.7v13.7h-5.7v-34.1ZM197.8,278.8c3.6,0,5.7-1.9,5.7-5.2s-2.1-5.2-5.7-5.2h-7.3v10.4h7.3Z"/>
      <path class="st21" d="M213.8,263.4h5.7v29.1h16.3v5h-22v-34.1Z"/>
      <path class="st21" d="M250,263.4h5.3l13.3,34.1h-5.9l-3-8h-14l-3,8h-5.9l13.3-34.1ZM247.6,284.5h10.3l-5.2-13.6-5.2,13.6Z"/>
      <path class="st21" d="M272.2,263.4h6l15.6,25.1v-25.1h5.5v34.1h-6l-15.7-25v25h-5.4v-34.1Z"/>
    </g>
    <g>
      <path class="st2" d="M184.8,263.4h13.4c6.8,0,11.2,4,11.2,10.2s-4.4,10.2-11.2,10.2h-7.7v13.7h-5.7v-34.1ZM197.8,278.8c3.6,0,5.7-1.9,5.7-5.2s-2.1-5.2-5.7-5.2h-7.3v10.4h7.3Z"/>
      <path class="st2" d="M213.8,263.4h5.7v29.1h16.3v5h-22v-34.1Z"/>
      <path class="st2" d="M250,263.4h5.3l13.3,34.1h-5.9l-3-8h-14l-3,8h-5.9l13.3-34.1ZM247.6,284.5h10.3l-5.2-13.6-5.2,13.6Z"/>
      <path class="st2" d="M272.2,263.4h6l15.6,25.1v-25.1h5.5v34.1h-6l-15.7-25v25h-5.4v-34.1Z"/>
    </g>
    <g>
      <path class="st21" d="M184.8,263.4h13.4c6.8,0,11.2,4,11.2,10.2s-4.4,10.2-11.2,10.2h-7.7v13.7h-5.7v-34.1ZM197.8,278.8c3.6,0,5.7-1.9,5.7-5.2s-2.1-5.2-5.7-5.2h-7.3v10.4h7.3Z"/>
      <path class="st21" d="M213.8,263.4h5.7v29.1h16.3v5h-22v-34.1Z"/>
      <path class="st21" d="M250,263.4h5.3l13.3,34.1h-5.9l-3-8h-14l-3,8h-5.9l13.3-34.1ZM247.6,284.5h10.3l-5.2-13.6-5.2,13.6Z"/>
      <path class="st21" d="M272.2,263.4h6l15.6,25.1v-25.1h5.5v34.1h-6l-15.7-25v25h-5.4v-34.1Z"/>
    </g>
  </g>
  <g>
    <g>
      <path class="st21" d="M166.2,221.2c0-11.6,8-17.4,16.8-17.4s13.6,4.3,14.8,11.1l-5.7,1.2c-1-4.6-4.4-7.4-9.2-7.4s-11,4.4-11,12.5,4.7,12.4,11,12.4,8-2.6,9.1-6.9l5.7,1.2c-1.7,6.6-7.1,10.7-14.8,10.7s-16.8-5.8-16.8-17.4Z"/>
      <path class="st21" d="M229.8,204.1v34.1h-5.7v-15.3h-16.1v15.3h-5.7v-34.1h5.7v13.8h16.1v-13.8h5.7Z"/>
      <path class="st21" d="M236.5,204.1h22.3v5h-16.6v8.6h13.4v5h-13.4v10.6h17.1v5h-22.8v-34.1Z"/>
      <path class="st21" d="M274.8,204.1h5.3l13.3,34.1h-5.9l-3-8h-14l-3,8h-5.9l13.3-34.1ZM272.3,225.3h10.3l-5.2-13.6-5.2,13.6Z"/>
      <path class="st21" d="M296.9,204.1h13.4c6.8,0,11.2,4,11.2,10.2s-4.4,10.2-11.2,10.2h-7.7v13.7h-5.8v-34.1ZM310,219.5c3.6,0,5.7-1.9,5.7-5.2s-2.1-5.2-5.7-5.2h-7.3v10.4h7.3Z"/>
    </g>
    <g>
      <path class="st2" d="M166.2,221.2c0-11.6,8-17.4,16.8-17.4s13.6,4.3,14.8,11.1l-5.7,1.2c-1-4.6-4.4-7.4-9.2-7.4s-11,4.4-11,12.5,4.7,12.4,11,12.4,8-2.6,9.1-6.9l5.7,1.2c-1.7,6.6-7.1,10.7-14.8,10.7s-16.8-5.8-16.8-17.4Z"/>
      <path class="st2" d="M229.8,204.1v34.1h-5.7v-15.3h-16.1v15.3h-5.7v-34.1h5.7v13.8h16.1v-13.8h5.7Z"/>
      <path class="st2" d="M236.5,204.1h22.3v5h-16.6v8.6h13.4v5h-13.4v10.6h17.1v5h-22.8v-34.1Z"/>
      <path class="st2" d="M274.8,204.1h5.3l13.3,34.1h-5.9l-3-8h-14l-3,8h-5.9l13.3-34.1ZM272.3,225.3h10.3l-5.2-13.6-5.2,13.6Z"/>
      <path class="st2" d="M296.9,204.1h13.4c6.8,0,11.2,4,11.2,10.2s-4.4,10.2-11.2,10.2h-7.7v13.7h-5.8v-34.1ZM310,219.5c3.6,0,5.7-1.9,5.7-5.2s-2.1-5.2-5.7-5.2h-7.3v10.4h7.3Z"/>
    </g>
    <g>
      <path class="st21" d="M166.2,221.2c0-11.6,8-17.4,16.8-17.4s13.6,4.3,14.8,11.1l-5.7,1.2c-1-4.6-4.4-7.4-9.2-7.4s-11,4.4-11,12.5,4.7,12.4,11,12.4,8-2.6,9.1-6.9l5.7,1.2c-1.7,6.6-7.1,10.7-14.8,10.7s-16.8-5.8-16.8-17.4Z"/>
      <path class="st21" d="M229.8,204.1v34.1h-5.7v-15.3h-16.1v15.3h-5.7v-34.1h5.7v13.8h16.1v-13.8h5.7Z"/>
      <path class="st21" d="M236.5,204.1h22.3v5h-16.6v8.6h13.4v5h-13.4v10.6h17.1v5h-22.8v-34.1Z"/>
      <path class="st21" d="M274.8,204.1h5.3l13.3,34.1h-5.9l-3-8h-14l-3,8h-5.9l13.3-34.1ZM272.3,225.3h10.3l-5.2-13.6-5.2,13.6Z"/>
      <path class="st21" d="M296.9,204.1h13.4c6.8,0,11.2,4,11.2,10.2s-4.4,10.2-11.2,10.2h-7.7v13.7h-5.8v-34.1ZM310,219.5c3.6,0,5.7-1.9,5.7-5.2s-2.1-5.2-5.7-5.2h-7.3v10.4h7.3Z"/>
    </g>
  </g>
  <g>
    <g>
      <path d="M89.7,145.3l7-9.3c3.6-4.8,8.6-5.9,12.7-2.8,2.8,2.1,3.9,5.3,3,8.8l15.8,1.2-3.7,4.9-14.6-1.3-3.5,4.6,10,7.5-3.1,4.1-23.5-17.7ZM106.3,144.1c2.1-2.7,2-5.2,0-6.8-2.1-1.6-4.5-.9-6.6,1.8l-3.4,4.5,6.6,5,3.4-4.5Z"/>
      <path d="M110.8,119.4l3.7-3.7,20.8,20.8-3.7,3.7-20.8-20.8Z"/>
      <path d="M122.6,108l7.8-5.8c6.9-5.2,15.6-5.4,21.4,2.3s3.1,16.1-3.9,21.2l-7.8,5.8-17.6-23.6ZM145.1,122.4c4.5-3.3,7-8.8,2.5-14.8s-10.4-5.2-14.9-1.9l-3.4,2.6,12.4,16.7,3.4-2.6Z"/>
      <path d="M151.6,88.1l4.6-2.5,14.1,25.8-4.6,2.5-14.1-25.8Z"/>
      <path d="M169.8,94.5c-3.5-9.4,1.6-16.6,9-19.4,6.7-2.5,12.9-.8,16,4.3l-4.5,2.8c-2.2-3.4-6-4.5-10-3-5.3,2-8,7-5.6,13.6,2.4,6.5,7.7,8.5,13.1,6.5,4.1-1.5,6-4.6,5.7-8.4l5.2-.8c.6,5.8-2.9,10.9-9.4,13.3-7.5,2.8-16,.7-19.6-8.7Z"/>
      <path d="M205.4,86.8l-3-18.7,4.9-.8,3,18.8c.6,4.1,3.9,5.8,8.1,5.2,4.2-.7,6.7-3.4,6-7.4l-3-18.8,4.9-.8,3,18.7c1.1,6.8-3.1,11.4-10.2,12.6-7.1,1.1-12.5-1.9-13.6-8.8Z"/>
      <path d="M238,63.7h5.2c0,0-.4,25.1-.4,25.1l14.8.2v4.3c0,0-20.1-.3-20.1-.3l.4-29.4Z"/>
      <path d="M262.2,78.7c1.6-8.5,9.2-13.6,18-11.9,8.8,1.7,14.1,9.1,12.5,17.7-1.6,8.5-9.2,13.6-18,11.9-8.8-1.7-14.1-9.1-12.5-17.7ZM275.5,92.1c5.9,1.1,10.9-2.5,12.1-8.6,1.2-6.1-2.2-11.4-8.1-12.5-5.9-1.1-11,2.5-12.1,8.7-1.2,6.1,2.2,11.3,8.1,12.4Z"/>
      <path d="M298.9,91l7.3-17.5,4.5,1.9-7.3,17.6c-1.6,3.8.2,7,4.1,8.6,3.9,1.6,7.4.6,9-3.2l7.3-17.6,4.5,1.9-7.3,17.5c-2.7,6.4-8.6,8.1-15.2,5.4-6.6-2.8-9.7-8.2-7-14.6Z"/>
      <path d="M326.1,104.8l4.7,1.4c-1.6,3.5-.4,7.2,2.7,9.2,3.1,2,6,1.9,7.4-.2,3.8-5.8-12.5-11.9-6.7-20.8,2.5-3.9,8.1-4.1,13.2-.8,4.9,3.2,7.1,8.1,5.4,12.3l-4.9-1c1.1-2.8,0-5.8-2.9-7.7-2.8-1.8-5.3-1.8-6.5,0-3.2,5,13.3,10.8,6.8,20.7-2.8,4.3-8.5,4.6-14.3.8-5.1-3.3-7.2-9.2-5-14.2Z"/>
      <path d="M364.9,106.8l3.8,3.5-17,18.4,10.9,10-2.9,3.2-14.7-13.6,19.9-21.6Z"/>
      <path d="M374.5,140.9l6.7-19.2,3.6,4.4-5,13.8,14.6-1.8,3.6,4.4-20.1,2.3-9.5,7.6-3.2-4.1,9.5-7.6Z"/>
    </g>
    <g>
      <path class="st1" d="M89.7,145.3l7-9.3c3.6-4.8,8.6-5.9,12.7-2.8,2.8,2.1,3.9,5.3,3,8.8l15.8,1.2-3.7,4.9-14.6-1.3-3.5,4.6,10,7.5-3.1,4.1-23.5-17.7ZM106.3,144.1c2.1-2.7,2-5.2,0-6.8-2.1-1.6-4.5-.9-6.6,1.8l-3.4,4.5,6.6,5,3.4-4.5Z"/>
      <path class="st1" d="M110.8,119.4l3.7-3.7,20.8,20.8-3.7,3.7-20.8-20.8Z"/>
      <path class="st1" d="M122.6,108l7.8-5.8c6.9-5.2,15.6-5.4,21.4,2.3s3.1,16.1-3.9,21.2l-7.8,5.8-17.6-23.6ZM145.1,122.4c4.5-3.3,7-8.8,2.5-14.8s-10.4-5.2-14.9-1.9l-3.4,2.6,12.4,16.7,3.4-2.6Z"/>
      <path class="st1" d="M151.6,88.1l4.6-2.5,14.1,25.8-4.6,2.5-14.1-25.8Z"/>
      <path class="st1" d="M169.8,94.5c-3.5-9.4,1.6-16.6,9-19.4,6.7-2.5,12.9-.8,16,4.3l-4.5,2.8c-2.2-3.4-6-4.5-10-3-5.3,2-8,7-5.6,13.6,2.4,6.5,7.7,8.5,13.1,6.5,4.1-1.5,6-4.6,5.7-8.4l5.2-.8c.6,5.8-2.9,10.9-9.4,13.3-7.5,2.8-16,.7-19.6-8.7Z"/>
      <path class="st1" d="M205.4,86.8l-3-18.7,4.9-.8,3,18.8c.6,4.1,3.9,5.8,8.1,5.2,4.2-.7,6.7-3.4,6-7.4l-3-18.8,4.9-.8,3,18.7c1.1,6.8-3.1,11.4-10.2,12.6-7.1,1.1-12.5-1.9-13.6-8.8Z"/>
      <path class="st1" d="M238,63.7h5.2c0,0-.4,25.1-.4,25.1l14.8.2v4.3c0,0-20.1-.3-20.1-.3l.4-29.4Z"/>
      <path class="st1" d="M262.2,78.7c1.6-8.5,9.2-13.6,18-11.9,8.8,1.7,14.1,9.1,12.5,17.7-1.6,8.5-9.2,13.6-18,11.9-8.8-1.7-14.1-9.1-12.5-17.7ZM275.5,92.1c5.9,1.1,10.9-2.5,12.1-8.6,1.2-6.1-2.2-11.4-8.1-12.5-5.9-1.1-11,2.5-12.1,8.7-1.2,6.1,2.2,11.3,8.1,12.4Z"/>
      <path class="st1" d="M298.9,91l7.3-17.5,4.5,1.9-7.3,17.6c-1.6,3.8.2,7,4.1,8.6,3.9,1.6,7.4.6,9-3.2l7.3-17.6,4.5,1.9-7.3,17.5c-2.7,6.4-8.6,8.1-15.2,5.4-6.6-2.8-9.7-8.2-7-14.6Z"/>
      <path class="st1" d="M326.1,104.8l4.7,1.4c-1.6,3.5-.4,7.2,2.7,9.2,3.1,2,6,1.9,7.4-.2,3.8-5.8-12.5-11.9-6.7-20.8,2.5-3.9,8.1-4.1,13.2-.8,4.9,3.2,7.1,8.1,5.4,12.3l-4.9-1c1.1-2.8,0-5.8-2.9-7.7-2.8-1.8-5.3-1.8-6.5,0-3.2,5,13.3,10.8,6.8,20.7-2.8,4.3-8.5,4.6-14.3.8-5.1-3.3-7.2-9.2-5-14.2Z"/>
      <path class="st1" d="M364.9,106.8l3.8,3.5-17,18.4,10.9,10-2.9,3.2-14.7-13.6,19.9-21.6Z"/>
      <path class="st1" d="M374.5,140.9l6.7-19.2,3.6,4.4-5,13.8,14.6-1.8,3.6,4.4-20.1,2.3-9.5,7.6-3.2-4.1,9.5-7.6Z"/>
    </g>
    <g>
      <path class="st21" d="M89.7,145.3l7-9.3c3.6-4.8,8.6-5.9,12.7-2.8,2.8,2.1,3.9,5.3,3,8.8l15.8,1.2-3.7,4.9-14.6-1.3-3.5,4.6,10,7.5-3.1,4.1-23.5-17.7ZM106.3,144.1c2.1-2.7,2-5.2,0-6.8-2.1-1.6-4.5-.9-6.6,1.8l-3.4,4.5,6.6,5,3.4-4.5Z"/>
      <path class="st21" d="M110.8,119.4l3.7-3.7,20.8,20.8-3.7,3.7-20.8-20.8Z"/>
      <path class="st21" d="M122.6,108l7.8-5.8c6.9-5.2,15.6-5.4,21.4,2.3s3.1,16.1-3.9,21.2l-7.8,5.8-17.6-23.6ZM145.1,122.4c4.5-3.3,7-8.8,2.5-14.8s-10.4-5.2-14.9-1.9l-3.4,2.6,12.4,16.7,3.4-2.6Z"/>
      <path class="st21" d="M151.6,88.1l4.6-2.5,14.1,25.8-4.6,2.5-14.1-25.8Z"/>
      <path class="st21" d="M169.8,94.5c-3.5-9.4,1.6-16.6,9-19.4,6.7-2.5,12.9-.8,16,4.3l-4.5,2.8c-2.2-3.4-6-4.5-10-3-5.3,2-8,7-5.6,13.6,2.4,6.5,7.7,8.5,13.1,6.5,4.1-1.5,6-4.6,5.7-8.4l5.2-.8c.6,5.8-2.9,10.9-9.4,13.3-7.5,2.8-16,.7-19.6-8.7Z"/>
      <path class="st21" d="M205.4,86.8l-3-18.7,4.9-.8,3,18.8c.6,4.1,3.9,5.8,8.1,5.2,4.2-.7,6.7-3.4,6-7.4l-3-18.8,4.9-.8,3,18.7c1.1,6.8-3.1,11.4-10.2,12.6-7.1,1.1-12.5-1.9-13.6-8.8Z"/>
      <path class="st21" d="M238,63.7h5.2c0,0-.4,25.1-.4,25.1l14.8.2v4.3c0,0-20.1-.3-20.1-.3l.4-29.4Z"/>
      <path class="st21" d="M262.2,78.7c1.6-8.5,9.2-13.6,18-11.9,8.8,1.7,14.1,9.1,12.5,17.7-1.6,8.5-9.2,13.6-18,11.9-8.8-1.7-14.1-9.1-12.5-17.7ZM275.5,92.1c5.9,1.1,10.9-2.5,12.1-8.6,1.2-6.1-2.2-11.4-8.1-12.5-5.9-1.1-11,2.5-12.1,8.7-1.2,6.1,2.2,11.3,8.1,12.4Z"/>
      <path class="st21" d="M298.9,91l7.3-17.5,4.5,1.9-7.3,17.6c-1.6,3.8.2,7,4.1,8.6,3.9,1.6,7.4.6,9-3.2l7.3-17.6,4.5,1.9-7.3,17.5c-2.7,6.4-8.6,8.1-15.2,5.4-6.6-2.8-9.7-8.2-7-14.6Z"/>
      <path class="st21" d="M326.1,104.8l4.7,1.4c-1.6,3.5-.4,7.2,2.7,9.2,3.1,2,6,1.9,7.4-.2,3.8-5.8-12.5-11.9-6.7-20.8,2.5-3.9,8.1-4.1,13.2-.8,4.9,3.2,7.1,8.1,5.4,12.3l-4.9-1c1.1-2.8,0-5.8-2.9-7.7-2.8-1.8-5.3-1.8-6.5,0-3.2,5,13.3,10.8,6.8,20.7-2.8,4.3-8.5,4.6-14.3.8-5.1-3.3-7.2-9.2-5-14.2Z"/>
      <path class="st21" d="M364.9,106.8l3.8,3.5-17,18.4,10.9,10-2.9,3.2-14.7-13.6,19.9-21.6Z"/>
      <path class="st21" d="M374.5,140.9l6.7-19.2,3.6,4.4-5,13.8,14.6-1.8,3.6,4.4-20.1,2.3-9.5,7.6-3.2-4.1,9.5-7.6Z"/>
    </g>
  </g>
  <g class="st41">
    <g>
      <path class="st6" d="M196.1,348.3c-.3.5-1,.5-1.2,0l-.6-1.2c0-.2,0-.4,0-.6l.6-1.2c.3-.5,1-.5,1.2,0l.6,1.2c0,.2,0,.4,0,.6l-.6,1.2Z"/>
      <path class="st6" d="M196.1,355.3c-.3.5-1,.5-1.2,0l-.6-1.2c0-.2,0-.4,0-.6l.6-1.2c.3-.5,1-.5,1.2,0l.6,1.2c0,.2,0,.4,0,.6l-.6,1.2Z"/>
      <path class="st9" d="M188.5,352.7c0-.6.7-.9,1.2-.5l3.2,3.2c.4.4.1,1.2-.5,1.2h-3.2c-.4,0-.7-.3-.7-.7v-3.2ZM188.5,349.3c0,.2,0,.4.2.5l6.5,6.5c.1.1.3.2.5.2h3.6c.6,0,.9-.7.5-1.2l-10.1-10.1c-.4-.4-1.2-.1-1.2.5v3.6ZM188.5,342.4c0,.2,0,.4.2.5l13.5,13.5c.1.1.3.2.5.2h3.6c.6,0,.9-.7.5-1.2l-17.1-17.1c-.4-.4-1.2-.1-1.2.5v3.6ZM195.5,342.4c0,.2,0,.4.2.5l12.5,12.5c.4.4,1.2.1,1.2-.5v-3.6c0-.2,0-.4-.2-.5l-12.5-12.5c-.4-.4-1.2-.1-1.2.5v3.6ZM203.6,338.3c-.4-.4-1.2-.1-1.2.5v3.6c0,.2,0,.4.2.5l5.6,5.6c.4.4,1.2.1,1.2-.5v-3.6c0-.2,0-.4-.2-.5l-5.6-5.6Z"/>
      <path d="M218.1,352.7l-6.5-6.5c-.4-.4-1.2-.1-1.2.5v9.2c0,.4.3.7.7.7h10.1c.4,0,.7-.3.7-.7v-.8c0-.4-.3-.7-.7-.7-1.2-.2-2.3-.7-3.1-1.5ZM213.7,354.3c-.6,0-1.1-.5-1.1-1.1s.5-1.1,1.1-1.1,1.1.5,1.1,1.1-.5,1.1-1.1,1.1Z"/>
      <path class="st6" d="M188.5,355.8c0,.4.3.7.7.7h3.2c.6,0,.9-.7.5-1.2l-3.2-3.2c-.4-.4-1.2-.1-1.2.5v3.2Z"/>
      <path class="st6" d="M195.5,344l-5.8-5.8c-.4-.4-1.2-.1-1.2.5v3.6c0,.2,0,.4.2.5l6.7,6.7v-5.6Z"/>
      <path class="st6" d="M189.7,345.2c-.4-.4-1.2-.1-1.2.5v3.6c0,.2,0,.4.2.5l6.7,6.7v-5.6l-5.8-5.8Z"/>
      <path class="st28" d="M202.4,344.3c0-.2,0-.4-.2-.5l-5.6-5.6c-.4-.4-1.2-.1-1.2.5v3.6c0,.2,0,.4.2.5l6.7,6.7v-5.3Z"/>
      <path class="st28" d="M195.5,356.5h3.9c.6,0,.9-.7.5-1.2l-4.4-4.4v5.6Z"/>
      <path class="st28" d="M195.5,344v5.3c0,.2,0,.4.2.5l6.7,6.7v-5.3c0-.2,0-.4-.2-.5l-6.7-6.7Z"/>
      <path d="M230,353.8h2.9v-4.7h2.4c2.6,0,4.3-1.6,4.3-4s-1.7-4-4.3-4h-5.2v12.7ZM232.8,346.6v-3h2.1c1.1,0,1.7.6,1.7,1.5s-.7,1.5-1.7,1.5h-2.1Z"/>
      <path d="M244.7,353.9c2.8,0,4.8-2,4.8-4.7s-2-4.7-4.8-4.7-4.8,2-4.8,4.7,2,4.7,4.8,4.7ZM242.5,349.2c0-1.4.9-2.4,2.2-2.4s2.2,1,2.2,2.4-.9,2.4-2.2,2.4-2.2-1-2.2-2.4Z"/>
      <path d="M254.1,353.9c2.1,0,3.6-1.3,3.6-2.9,0-3.7-4.9-2.5-4.9-3.9s.4-.7,1-.7,1.4.4,1.6,1.2l2.1-.9c-.4-1.3-2-2.2-3.8-2.2s-3.3,1.2-3.3,2.6c0,3.5,4.8,2.5,4.8,3.9s-.5.8-1.2.8c-1,0-1.7-.7-1.9-1.6l-2.1.8c.5,1.4,1.8,2.7,4.1,2.7Z"/>
      <path d="M264.5,353.7l-.2-2.3c-.3.2-.7.2-1,.2-.7,0-1.1-.5-1.1-1.3v-3.5h2.2v-2.2h-2.2v-2.6h-2.7v2.6h-1.4v2.2h1.4v3.8c0,2.2,1.5,3.3,3.5,3.3s1,0,1.5-.2Z"/>
      <path d="M273.8,341.1v4.9h-5v-4.9h-2.9v12.7h2.9v-5.3h5v5.3h2.9v-12.7h-2.9Z"/>
      <path d="M283,353.9c2.8,0,4.8-2,4.8-4.7s-2-4.7-4.8-4.7-4.8,2-4.8,4.7,2,4.7,4.8,4.7ZM280.8,349.2c0-1.4.9-2.4,2.2-2.4s2.2,1,2.2,2.4-.9,2.4-2.2,2.4-2.2-1-2.2-2.4Z"/>
      <path d="M292.9,353.5c1,0,1.9-.3,2.4-.9v.9c0,1-.8,1.7-2.1,1.7s-1.7-.4-1.8-1.2l-2.4.4c.3,1.7,2.1,2.9,4.2,2.9s4.7-1.6,4.7-4.1v-8.5h-2.6v.8c-.5-.6-1.3-.9-2.4-.9-2.5,0-4.1,1.7-4.1,4.5s1.6,4.5,4.2,4.5ZM291.4,349c0-1.4.8-2.2,2-2.2s2,.9,2,2.2-.8,2.2-2,2.2-2-.9-2-2.2Z"/>
    </g>
  </g>
  <path class="st31" d="M264.4,12.5c-3.1-4-10.3-6.9-15.3-7-24.5-.4-65,7.2-82.4,25.5-3.5,3.7-7.4,10.4-4.8,15.5l-.5,1c7.2,8.7,20.3,8.9,30.9,8,19.9-1.7,44-9,60.8-19.9,8-5.2,16.3-13,11.3-23.1ZM257,21.7c-2.8,4.9-16.2,11.4-21.7,13.8-13.3,5.7-48,16-61.3,11.4-6.5-2.3-6.7-6.5-2.4-11.4.7-.8,4.3-4,5-4.5,15.4-9.9,54.8-21.1,72.7-19.5,3.8.3,6.2,1.2,8.8,4,.1,2.8.5,3.4-1.1,6.2Z"/>
  <path class="st35" d="M259.1,14.6c.7-.8-.2-1.3-1-1.5-.5-.2-1.6-.7-2-1l-.7-.7-7.3-1.3c-19.9-3.8-56.2,8.7-72.5,20.5-2.3,1.7-4.3,2.4-6.5,5-7.8,9-.8,12.8,8.3,13.9,24.3,2.9,68.6-9.2,83.2-29.9,1.2-1.7.3-4.7-1.5-5ZM250.7,26.3c-16.2,10.9-43.7,19-62.9,20.6-6.8.6-23.8.4-15.9-10l-.2-1.3c1.5.5,5.6-3,5-4.5l1.6.2c19.6-10.2,43.2-17.5,65.3-18.8,4.6-.3,10-.2,13.4,3.2h1.3c0-.1-1,.5-1,.5.9,4.7-2.9,7.7-6.5,10.1Z"/>
  <g>
    <path class="st31" d="M177.5,42.5h.3v-.3c-.2,0-.3.2-.3.3Z"/>
    <path class="st31" d="M258.1,15.5c-2.6-2.8-5-3.7-8.8-4-18-1.6-57.4,9.6-72.7,19.5-.7.5-4.3,3.7-5,4.5-4.3,4.9-4.1,9.1,2.4,11.4,13.3,4.6,48-5.7,61.3-11.4,5.5-2.4,18.9-8.9,21.7-13.8,1.6-2.8,1.2-3.4,1.1-6.2ZM250.2,22c-.3.2-.6.3-.9.4,0,0,0,0,0,.1-13.4,9.6-36.6,16.9-53,19l-1,.2c-5.5,1.5-13,2-18.6,1.3-7-.8-.3-5.9,2.3-7.7,10.9-7.6,30.2-13.7,43.3-16.7,8.2-1.9,17-3.6,25.4-2.5,5.7.7,7.8,1.6,2.5,6Z"/>
  </g>
  <path class="st32" d="M249,22.5c-.6-.6-1.5-.7-2.3-.8-16.8-1.5-49.5,8.4-64.1,17.1s-3.9,2.2-5.1,3.7h12.8c.4,0,4.5-.8,5.8-1-5.6,1.6-13.5,2.2-19.3,1.5s-.3-5.9,2.3-7.7c10.9-7.6,30.2-13.7,43.3-16.7s17-3.6,25.4-2.5,7.8,1.6,2.5,6-1,.3-1.2.5Z"/>
</svg>