<svg xmlns="http://www.w3.org/2000/svg" fill="none" viewBox="0 0 74 80" height="80" width="74">
<path fill="#7AD144" d="M0.49377 25.3515L12.6573 47.9265C13.5003 49.4959 15.5477 50.7031 17.2337 50.7031H42.0426C43.7286 50.7031 44.4512 49.4959 43.6082 47.9265L31.3242 25.2307C30.4812 23.6613 28.4338 22.4541 26.7478 22.4541H1.93895H1.81851C0.373338 22.5749 -0.34925 23.7821 0.49377 25.3515Z"></path>
<path fill="#7AD144" d="M47.58 51.5478L54.9264 64.9478C55.4082 65.9136 56.6124 66.638 57.6962 66.638L72.389 66.3966C73.3524 66.3966 73.834 65.6722 73.3524 64.7064L66.006 51.3064C65.5244 50.3406 64.32 49.6162 63.2362 49.6162L48.423 49.737C47.4596 49.9784 46.978 50.7026 47.58 51.5478Z"></path>
<path fill="#04A6E5" d="M47.5852 0.845052L32.8926 19.3155C31.929 20.5226 31.8086 22.8164 32.6516 24.3858L44.9356 46.84C45.7786 48.4094 47.2238 48.6508 48.3078 47.323L63.1208 28.8524C64.0842 27.6452 64.2046 25.3516 63.3616 23.7822L50.9572 1.32794C50.4756 0.482888 49.753 0 49.0304 0C48.5486 0 48.0668 0.241444 47.5852 0.845052Z"></path>
<path fill="#04A6E5" d="M44.2101 51.7896L35.4185 62.7752C34.8165 63.4996 34.6961 64.8276 35.2981 65.7932L42.6445 79.1934C43.1261 80.1592 44.0897 80.28 44.6919 79.4348L53.4833 68.4492C54.0855 67.7248 54.2059 66.397 53.6037 65.4312L46.2575 52.031C46.0165 51.5482 45.5349 51.186 45.1735 51.3066C44.6919 51.3066 44.4509 51.4274 44.2101 51.7896Z"></path>
</svg>
