<svg xmlns="http://www.w3.org/2000/svg" fill="none" viewBox="0 0 500 500" height="500" width="500">
<path fill="#F47020" d="M254.934 312.314C267.934 314.86 280.684 317.223 293.866 315.269C311.298 312.678 326.866 306.201 339.411 294.178C365.616 269.064 395.591 238.86 421.591 213.496C421.591 213.496 406.525 196.996 398.798 189.519C415.025 189.519 457.182 189.382 470.455 189.632C470.864 202.041 470.455 245.044 470.455 260.316C463.591 253.93 448.864 238.496 448.864 238.496C426 261.632 395.98 289.269 372.661 311.951C342.207 341.564 289.661 336.655 254.934 312.314C254.957 312.337 254.934 312.314 254.957 312.337L254.934 312.314Z"></path>
<path fill="#EC441F" d="M297.78 301.051C297.793 301.048 297.805 301.045 297.818 301.042V301.065C297.805 301.06 297.793 301.056 297.78 301.051ZM213.531 275.097C235.545 295.497 267.882 308.1 297.78 301.051C285.934 296.82 277.173 288.806 268.75 280.201C260.273 271.565 251.705 262.997 242.909 254.679C239.25 251.224 239.659 249.11 243.227 245.747C248.641 240.656 253.909 235.406 259.175 230.156C264.63 224.718 270.084 219.281 275.705 214.02C297.5 193.633 327.5 194.27 349 215.315C351.061 217.338 353.598 219.74 356.282 222.281C361.68 227.39 367.675 233.064 371.591 237.36L395.455 211.223C394.92 210.689 390.039 205.945 385.159 201.201C380.277 196.457 375.398 191.713 374.864 191.179C338.841 155.315 285.068 154.883 248.727 190.247C247.92 191.03 247.077 191.85 246.2 192.701C236.436 202.182 222.66 215.559 214.318 224.86C213.963 225.257 213.669 225.624 213.428 225.962C213.202 225.62 212.911 225.253 212.544 224.86C204.76 216.506 192.153 204.109 182.783 194.895C181.293 193.43 179.884 192.045 178.59 190.77C155.909 168.429 128.681 159.77 97.5678 166.179C61.0678 173.701 33.545 203.406 29.545 237.883C24.9996 276.974 43.1132 311.27 77.0678 327.86C110.931 344.383 150.659 337.747 177.613 311.02C179.968 308.692 182.701 306.016 185.626 303.153C194.972 294.003 206.285 282.927 213.531 275.097ZM66.0905 264.792C72.1814 286.087 92.7041 301.36 115.204 301.314L115.227 301.292C128.227 301.496 139.954 297.61 149.431 288.769C156.055 282.6 162.441 276.164 168.827 269.728C173.616 264.901 178.405 260.074 183.295 255.36C186.977 251.814 187.863 249.587 183.545 245.564C177.572 240.013 171.81 234.238 166.048 228.464C160.606 223.01 155.164 217.557 149.545 212.292C133.204 197.019 107.909 194.996 88.6814 206.905C68.9541 219.11 59.7723 242.678 66.0905 264.792Z" clip-rule="evenodd" fill-rule="evenodd"></path>
</svg>
