<svg xmlns="http://www.w3.org/2000/svg" fill="none" viewBox="0 0 115 80" height="80" width="115">
<g clip-path="url(#clip0_2718_36)">
<path fill="#00A1E0" d="M47.5626 8.72501C51.2476 4.88626 56.3813 2.50252 62.0563 2.50252C69.6001 2.50252 76.1838 6.71001 79.6888 12.9563C82.8248 11.5554 86.2216 10.8334 89.6563 10.8375C103.264 10.8375 114.294 21.965 114.294 35.6938C114.294 49.4225 103.264 60.55 89.6563 60.55C87.9926 60.55 86.3701 60.3838 84.8013 60.0675C81.7151 65.5713 75.8301 69.2913 69.0788 69.2913C66.2526 69.2913 63.5788 68.6413 61.2001 67.4775C58.0701 74.84 50.7788 80 42.2826 80C33.4351 80 25.8926 74.4 22.9988 66.5488C21.7095 66.8208 20.3953 66.9578 19.0776 66.9575C8.5413 66.9588 5.29884e-05 58.3288 5.29884e-05 47.6825C-0.00785145 44.3086 0.868721 40.9916 2.54239 38.0621C4.21605 35.1325 6.62835 32.6929 9.5388 30.9863C8.33136 28.2041 7.71011 25.2029 7.7138 22.17C7.7138 9.92501 17.6526 1.50866e-05 29.9126 1.50866e-05C33.3279 -0.00396964 36.6979 0.781442 39.7596 2.29494C42.8213 3.80843 45.4918 6.00905 47.5626 8.72501Z" clip-rule="evenodd" fill-rule="evenodd"></path>
<path fill="white" d="M16.555 41.4875L17.0175 40.2037C17.0912 39.9837 17.2575 40.0562 17.325 40.0975C17.4537 40.1737 17.5462 40.2425 17.7125 40.34C19.075 41.2012 20.3375 41.21 20.7312 41.21C21.7512 41.21 22.3837 40.67 22.3837 39.9412V39.9037C22.3837 39.1112 21.4087 38.8112 20.2825 38.4662L20.0325 38.3862C18.4862 37.9462 16.8325 37.31 16.8325 35.3525V35.3125C16.8325 33.455 18.3312 32.1587 20.4762 32.1587L20.7112 32.1562C21.9712 32.1562 23.1887 32.5225 24.0712 33.0575C24.1512 33.1075 24.2287 33.2 24.1837 33.3225L23.7087 34.6062C23.625 34.825 23.3962 34.68 23.3962 34.68C22.4755 34.2002 21.4567 33.9389 20.4187 33.9162C19.5087 33.9162 18.9237 34.3987 18.9237 35.0537V35.095C18.9237 35.8587 19.9262 36.185 21.0887 36.5637L21.2887 36.6262C22.83 37.1137 24.475 37.7887 24.475 39.645V39.6837C24.475 41.69 23.0175 42.9362 20.6737 42.9362C19.5225 42.9362 18.4212 42.7587 17.2562 42.14C17.0362 42.0125 16.8187 41.9025 16.6037 41.7462C16.5812 41.7137 16.4825 41.675 16.5537 41.4875H16.555ZM50.8763 41.4875L51.34 40.2037C51.4075 39.9937 51.6038 40.0712 51.6463 40.0975C51.7738 40.1762 51.8687 40.2425 52.0337 40.34C53.3988 41.2012 54.6587 41.21 55.0562 41.21C56.0725 41.21 56.7063 40.67 56.7063 39.9412V39.9037C56.7063 39.1112 55.7325 38.8112 54.6063 38.4662L54.3563 38.3862C52.8075 37.9462 51.1538 37.31 51.1538 35.3525V35.3125C51.1538 33.455 52.6538 32.1587 54.7988 32.1587L55.0325 32.1562C56.2925 32.1562 57.5112 32.5225 58.395 33.0575C58.4725 33.1075 58.5513 33.2 58.5075 33.3225C58.4637 33.4362 58.0737 34.4862 58.0325 34.6062C57.9462 34.825 57.72 34.68 57.72 34.68C56.7989 34.2 55.7796 33.9387 54.7412 33.9162C53.8312 33.9162 53.2463 34.3987 53.2463 35.0537V35.095C53.2463 35.8587 54.2475 36.185 55.4112 36.5637L55.6112 36.6262C57.1525 37.1137 58.7962 37.7887 58.7962 39.645V39.6837C58.7962 41.69 57.34 42.9362 54.9963 42.9362C53.8438 42.9362 52.7425 42.7587 51.5788 42.14C51.3587 42.0125 51.1413 41.9025 50.925 41.7462C50.9025 41.7137 50.8037 41.675 50.8763 41.4875ZM76.2638 35.4512C76.4563 36.0962 76.5513 36.805 76.5513 37.5537C76.5513 38.3037 76.4563 39.01 76.2638 39.655C76.0877 40.2769 75.7856 40.856 75.3762 41.3562C74.9661 41.8421 74.4517 42.2292 73.8713 42.4887C73.2713 42.7637 72.5662 42.9012 71.7738 42.9012C70.9812 42.9012 70.2738 42.7637 69.6763 42.4887C69.0958 42.2292 68.5814 41.8421 68.1712 41.3562C67.7623 40.8561 67.4598 40.2775 67.2825 39.6562C67.086 38.9729 66.9891 38.2648 66.995 37.5537C66.995 36.8037 67.0913 36.0962 67.2825 35.4512C67.475 34.8012 67.7738 34.2287 68.17 33.7512C68.5812 33.2634 69.0957 32.8732 69.6763 32.6087C70.275 32.3287 70.9787 32.1875 71.7738 32.1875C72.5687 32.1875 73.2725 32.3287 73.8713 32.6087C74.4688 32.8875 74.9762 33.2712 75.3762 33.7512C75.7737 34.2287 76.0738 34.8012 76.2638 35.4512ZM74.3087 37.5537C74.3087 36.42 74.0988 35.5287 73.6813 34.9037C73.2687 34.2837 72.6437 33.9837 71.7738 33.9837C70.9037 33.9837 70.2838 34.2837 69.8763 34.9037C69.4675 35.5287 69.2588 36.42 69.2588 37.5537C69.2588 38.6862 69.4675 39.5837 69.8787 40.2137C70.2837 40.8412 70.9037 41.145 71.7738 41.145C72.6437 41.145 73.2687 40.84 73.6813 40.2137C74.0962 39.5837 74.3087 38.6862 74.3087 37.5537ZM92.3363 40.8412L92.8162 42.1687C92.8787 42.3312 92.7375 42.4025 92.7375 42.4025C91.9963 42.69 90.9675 42.895 89.9662 42.895C88.2688 42.895 86.9687 42.4062 86.1012 41.4412C85.2387 40.4787 84.7987 39.17 84.7987 37.5462C84.7987 36.795 84.9075 36.0837 85.12 35.44C85.3325 34.79 85.6513 34.2175 86.0713 33.74C86.5074 33.2491 87.0453 32.8592 87.6475 32.5975C88.2725 32.3187 89.0075 32.1787 89.8275 32.1787C90.3812 32.1787 90.8738 32.2125 91.2962 32.275C91.7475 32.345 92.3487 32.5075 92.6025 32.6062C92.6488 32.6237 92.7775 32.6862 92.725 32.8375C92.54 33.3587 92.4137 33.6987 92.2425 34.1737C92.1675 34.3762 92.015 34.3087 92.015 34.3087C91.3712 34.1062 90.7538 34.0137 89.9475 34.0137C88.9788 34.0137 88.2513 34.3362 87.7763 34.9675C87.2962 35.6037 87.0275 36.4375 87.0238 37.5462C87.02 38.7625 87.325 39.6637 87.865 40.2212C88.4037 40.7775 89.1562 41.0587 90.1038 41.0587C90.4875 41.0587 90.85 41.0337 91.1763 40.9825C91.4987 40.9312 91.8012 40.8312 92.0863 40.72C92.0863 40.72 92.27 40.6512 92.3363 40.8412ZM102.349 35.0825C102.775 36.575 102.553 37.8637 102.545 37.935C102.529 38.105 102.354 38.1075 102.354 38.1075L95.73 38.1025C95.7712 39.1087 96.0125 39.8212 96.5 40.305C96.9787 40.7787 97.7387 41.0825 98.7675 41.0837C100.34 41.0875 101.011 40.7712 101.488 40.595C101.488 40.595 101.669 40.53 101.738 40.71L102.169 41.9237C102.256 42.1275 102.186 42.1987 102.113 42.24C101.698 42.4687 100.691 42.8962 98.7763 42.9012C97.8475 42.905 97.0387 42.7725 96.3725 42.5137C95.7394 42.2792 95.1691 41.9015 94.7063 41.41C94.2638 40.9278 93.9353 40.3524 93.745 39.7262C93.5399 39.0402 93.4392 38.3272 93.4463 37.6112C93.4463 36.8612 93.5425 36.1487 93.7363 35.4975C93.93 34.8412 94.2313 34.2625 94.6325 33.7762C95.0484 33.28 95.5698 32.8828 96.1588 32.6137C96.7663 32.3275 97.5188 32.1875 98.3463 32.1875C99.055 32.1875 99.7025 32.34 100.241 32.5725C100.656 32.75 101.074 33.0712 101.501 33.5312C101.771 33.8212 102.182 34.4562 102.349 35.0825ZM95.7613 36.4662H100.486C100.438 35.8587 100.319 35.3137 100.046 34.9037C99.6313 34.2837 99.0588 33.9425 98.19 33.9425C97.32 33.9425 96.7025 34.2837 96.2938 34.9037C96.0263 35.3137 95.855 35.8362 95.7613 36.4662ZM49.2925 35.0825C49.7175 36.575 49.4987 37.8637 49.4912 37.935C49.4737 38.105 49.2987 38.1075 49.2987 38.1075L42.6737 38.1025C42.7162 39.1087 42.9563 39.8212 43.445 40.305C43.9237 40.7787 44.6825 41.0825 45.7113 41.0837C47.2838 41.0875 47.9575 40.7712 48.4325 40.595C48.4325 40.595 48.6138 40.53 48.6813 40.71L49.1138 41.9237C49.2013 42.1275 49.1313 42.1987 49.0588 42.24C48.6413 42.4687 47.6337 42.8962 45.7212 42.9012C44.7913 42.905 43.9825 42.7725 43.3175 42.5137C42.6842 42.2789 42.1136 41.9012 41.65 41.41C41.2088 40.9273 40.8812 40.352 40.6913 39.7262C40.4847 39.0405 40.3832 38.3274 40.39 37.6112C40.39 36.8612 40.4875 36.1487 40.68 35.4975C40.8601 34.8691 41.1654 34.2836 41.5775 33.7762C41.9933 33.2804 42.5142 32.8833 43.1025 32.6137C43.7125 32.3275 44.465 32.1875 45.29 32.1875C45.942 32.186 46.5876 32.3169 47.1875 32.5725C47.6025 32.75 48.02 33.0712 48.4463 33.5312C48.7163 33.8212 49.1275 34.4562 49.2925 35.0825ZM42.7037 36.4662H47.4312C47.3813 35.8587 47.2625 35.3137 46.9912 34.9037C46.5787 34.2837 46.0038 33.9425 45.135 33.9425C44.265 33.9425 43.6462 34.2837 43.24 34.9037C42.97 35.3137 42.8 35.8362 42.7037 36.4662ZM31.0212 36.15C31.0212 36.15 31.5437 36.1962 32.1137 36.2787V35.9987C32.1137 35.115 31.93 34.6987 31.5687 34.42C31.1987 34.1375 30.6462 33.9912 29.9312 33.9912C29.9312 33.9912 28.3187 33.9712 27.0437 34.6637C26.985 34.6987 26.9362 34.7187 26.9362 34.7187C26.9362 34.7187 26.7762 34.775 26.7187 34.6112L26.25 33.3512C26.1775 33.17 26.3088 33.0875 26.3088 33.0875C26.905 32.6225 28.35 32.3412 28.35 32.3412C28.9366 32.2382 29.5307 32.1834 30.1262 32.1775C31.4487 32.1775 32.4725 32.485 33.1687 33.0937C33.8662 33.705 34.2213 34.69 34.2213 36.0175L34.225 42.0775C34.225 42.0775 34.2387 42.2525 34.0725 42.2925C34.0725 42.2925 33.8287 42.36 33.61 42.4112C33.3888 42.4625 32.5912 42.625 31.94 42.735C31.275 42.8464 30.6018 42.9025 29.9275 42.9025C29.2837 42.9025 28.6937 42.8425 28.1737 42.7237C27.6891 42.6222 27.2302 42.4232 26.825 42.1387C26.4557 41.8706 26.1592 41.5144 25.9625 41.1025C25.7587 40.6862 25.6562 40.1775 25.6562 39.59C25.6562 39.0137 25.7775 38.5 26.0112 38.0625C26.2462 37.6275 26.5687 37.2587 26.9737 36.97C27.3921 36.6754 27.86 36.4582 28.355 36.3287C28.8712 36.1912 29.42 36.12 29.9875 36.12C30.4037 36.12 30.7512 36.1287 31.0212 36.15ZM28.385 40.805C28.3812 40.8037 28.9787 41.2737 30.3275 41.1912C31.275 41.1337 32.115 40.9537 32.115 40.9537V37.9412C32.115 37.9412 31.2675 37.8025 30.3162 37.7887C28.9675 37.7725 28.3925 38.2687 28.3962 38.2675C27.9987 38.55 27.805 38.9687 27.805 39.5487C27.805 39.92 27.8712 40.21 28.005 40.4125C28.0887 40.5462 28.125 40.5962 28.385 40.805ZM84.4538 32.7362C84.3913 32.9175 84.07 33.825 83.9538 34.1262C83.9113 34.2412 83.8413 34.32 83.7125 34.3062C83.7125 34.3062 83.3325 34.2187 82.985 34.2187C82.7463 34.2187 82.405 34.2487 82.0975 34.3437C81.7891 34.4385 81.5085 34.6072 81.28 34.835C81.0375 35.0687 80.8412 35.3975 80.6987 35.81C80.5537 36.225 80.4788 36.885 80.4788 37.5475V42.4825C80.4789 42.5089 80.4739 42.535 80.4639 42.5594C80.4539 42.5838 80.4392 42.606 80.4206 42.6247C80.402 42.6434 80.3799 42.6583 80.3556 42.6684C80.3312 42.6785 80.3051 42.6837 80.2787 42.6837H78.54C78.5134 42.6841 78.487 42.6792 78.4623 42.6693C78.4376 42.6594 78.4151 42.6448 78.3961 42.6262C78.377 42.6076 78.3618 42.5855 78.3514 42.561C78.3409 42.5366 78.3353 42.5103 78.335 42.4837V32.6025C78.335 32.4912 78.4162 32.4025 78.5275 32.4025H80.2238C80.3363 32.4025 80.4163 32.4912 80.4163 32.6025V33.41C80.67 33.07 81.125 32.77 81.5362 32.585C81.9487 32.3975 82.41 32.26 83.2438 32.31C83.6775 32.3362 84.2412 32.455 84.355 32.4987C84.3772 32.5076 84.3975 32.5209 84.4145 32.5377C84.4316 32.5546 84.4451 32.5746 84.4543 32.5967C84.4635 32.6189 84.4682 32.6426 84.4681 32.6665C84.468 32.6905 84.4631 32.7142 84.4538 32.7362ZM68.1162 28.1575C68.1625 28.1762 68.2887 28.2375 68.2388 28.3875L67.73 29.7787C67.6875 29.8837 67.66 29.9462 67.4438 29.8812C67.1577 29.7913 66.8598 29.7449 66.56 29.7437C66.2975 29.7437 66.06 29.7775 65.85 29.8475C65.6399 29.9148 65.4494 30.0323 65.295 30.19C65.0896 30.3885 64.9308 30.6302 64.83 30.8975C64.5862 31.5975 64.4925 32.3437 64.48 32.3912H66.5975C66.7762 32.3912 66.8325 32.4737 66.815 32.605L66.5675 33.9825C66.5275 34.1825 66.3462 34.175 66.3462 34.175H64.1637L62.6725 42.62C62.5443 43.3774 62.3494 44.1219 62.09 44.845C61.8563 45.4562 61.615 45.9025 61.2275 46.3287C60.8968 46.7102 60.4762 47.0032 60.0037 47.1812C59.545 47.35 58.9875 47.4362 58.3787 47.4362C58.0887 47.4362 57.7762 47.43 57.4075 47.3425C57.202 47.2956 56.9996 47.2363 56.8013 47.165C56.72 47.1362 56.6538 47.0325 56.7012 46.9C56.7463 46.7687 57.1387 45.695 57.1912 45.5537C57.2587 45.3837 57.4313 45.4487 57.4313 45.4487C57.5487 45.4987 57.6312 45.5312 57.7875 45.5625C57.9463 45.5937 58.1587 45.6212 58.32 45.6212C58.6087 45.6212 58.8713 45.5862 59.1 45.5087C59.375 45.42 59.5375 45.2587 59.705 45.0437C59.88 44.8175 60.0225 44.5112 60.1687 44.1C60.315 43.6837 60.4487 43.1337 60.5638 42.4675L62.0488 34.1762H60.5863C60.4113 34.1762 60.3512 34.0937 60.3713 33.9612L60.6162 32.5837C60.655 32.3837 60.8413 32.3912 60.8413 32.3912H62.3425L62.4237 31.9437C62.6488 30.6137 63.095 29.6025 63.755 28.9387C64.4188 28.27 65.3625 27.9325 66.56 27.9325C66.9025 27.9325 67.205 27.955 67.4613 28.0012C67.7125 28.0487 67.9038 28.0925 68.1162 28.1575ZM38.5212 42.4825C38.5212 42.595 38.4438 42.6837 38.3313 42.6837H36.575C36.4625 42.6837 36.3862 42.5937 36.3862 42.4837V28.3425C36.3862 28.2337 36.4638 28.1437 36.5738 28.1437H38.3313C38.4438 28.1437 38.5212 28.2337 38.5212 28.3437V42.4825Z" clip-rule="evenodd" fill-rule="evenodd"></path>
</g>
<defs>
<clipPath id="clip0_2718_36">
<rect fill="white" height="80" width="115"></rect>
</clipPath>
</defs>
</svg>
