<svg xmlns="http://www.w3.org/2000/svg" fill="none" viewBox="0 0 82 80" height="80" width="82">
<g clip-path="url(#clip0_3374_1018)">
<path fill="#2D4E7C" d="M80.0489 32.5499C80.553 32.8502 80.4465 33.4041 80.5064 33.8159C80.726 35.3131 80.84 36.8386 80.9256 38.3366C82.0269 57.5907 67.9756 75.5464 49.0451 79.2054C31.4246 82.6115 14.2907 75.0307 5.87224 59.2784C-2.08376 44.3895 -0.935897 29.5713 9.06213 15.9808C17.5405 4.45643 29.4333 -0.580009 43.7142 0.0621269C44.6807 0.10538 45.6414 0.282549 46.603 0.412307C46.7826 0.436429 47.0696 0.433934 47.023 0.719235C46.9631 1.08855 46.7036 0.8989 46.4732 0.882264C36.763 0.18024 27.9977 2.74047 20.4783 8.9256C10.3988 17.2151 5.92464 28.0533 7.01677 41.0099C8.46158 58.1422 22.2276 72.0138 39.3124 73.8745C57.9917 75.909 74.6773 64.2824 79.2155 45.979C80.2885 41.6504 80.5879 37.2287 79.8768 32.7828C79.8684 32.732 79.9608 32.6655 80.0481 32.5499H80.0489Z"></path>
<path fill="#E33E4B" d="M9.77902 41.2365C8.06388 31.1087 12.1529 17.0849 24.4259 8.77038C37.4225 -0.0340419 54.8433 1.08637 66.8002 11.7515C77.8588 21.6148 81.3048 38.3386 74.8743 51.8234C68.0204 66.1958 53.0251 73.8898 37.2678 70.9935C49.3519 71.8769 59.4323 68.0673 66.7994 58.2348C71.7676 51.6047 73.7306 44.0579 72.7641 35.8308C70.8967 19.9404 57.7263 8.10495 41.7411 7.98933C32.6747 7.92362 24.9108 11.1834 18.6342 17.7578C12.3775 24.3114 9.62098 32.2283 9.77902 41.2373V41.2365Z"></path>
<path fill="#2D4E7C" d="M50.8835 48.9751C50.8835 43.4737 50.8818 37.9723 50.8835 32.4709C50.8843 30.4405 51.2844 30.0254 53.2666 30.0188C55.6529 30.0105 58.0402 30.0022 60.4265 30.0221C62.0593 30.0354 62.5817 30.5753 62.5875 32.233C62.6158 40.8894 62.6308 49.5457 62.6632 58.2021C62.6657 58.791 62.5734 59.2701 62.1359 59.7317C59.2238 62.806 55.8052 65.105 51.875 66.6779C51.0224 67.019 50.866 66.826 50.8702 65.9651C50.901 60.3023 50.886 54.6387 50.886 48.9759H50.8818L50.8835 48.9751Z"></path>
<path fill="#E33E4B" d="M35.7789 53.2785C35.7789 48.8667 35.7773 44.4549 35.7789 40.0432C35.7797 38.1492 36.2672 37.6435 38.1171 37.6376C40.5051 37.6302 42.8932 37.6268 45.2812 37.6385C46.9356 37.6468 47.4222 38.1658 47.5054 39.8094C47.9512 48.6205 47.596 57.4382 47.7033 66.2518C47.7241 67.9819 47.6892 68.0069 45.9391 68.2464C42.9955 68.6498 40.0676 68.5941 37.1206 68.1108C35.9419 67.9179 35.7348 67.4537 35.7481 66.3924C35.803 62.0222 35.7714 57.6503 35.7714 53.2785H35.7781H35.7789Z"></path>
<path fill="#2D4E7C" d="M32.1948 66.791C28.5774 65.5042 25.5206 63.4056 22.6917 60.8853C21.113 59.4788 20.3427 57.9558 20.48 55.7449C20.6871 52.4028 20.5282 49.0383 20.5365 45.6837C20.5399 44.189 21.0672 43.65 22.5835 43.6392C25.1296 43.62 27.6765 43.6192 30.2226 43.6433C31.6159 43.6566 32.2123 44.2023 32.2206 45.5107C32.2613 52.461 32.278 59.4106 32.2988 66.361C32.2988 66.4757 32.2455 66.5897 32.1956 66.7918L32.1948 66.791Z"></path>
</g>
<defs>
<clipPath id="clip0_3374_1018">
<rect transform="translate(0.63623 0.0078125)" fill="white" height="80.0004" width="81"></rect>
</clipPath>
</defs>
</svg>
