<svg xmlns="http://www.w3.org/2000/svg" fill="none" viewBox="0 0 82 80" height="80" width="82">
<g clip-path="url(#clip0_3096_610)">
<path fill="#7099A6" d="M39.5546 3.69811V7.41132H32.9131V9.82642H39.5546V17.2226H42.1508V9.82642H48.9584V7.41132H42.1508V0H39.5546V3.69811Z"></path>
<path fill="#EB912C" d="M17.849 13.1172V18.5059H7.79614V21.887H17.849V32.8304H21.5773V21.887H31.7811V18.5059H21.5773V7.72852H17.849V13.1172Z"></path>
<path fill="#59879B" d="M59.9774 13.1172V18.5059H49.9246V22.053H59.9774V32.8304H63.8566V22.053H73.9095V18.5059H63.8566V7.72852H59.9774V13.1172Z"></path>
<path fill="#E8762C" d="M38.5887 31.4718V37.5096H27.4038V42.0077H38.5887V54.0831H43.117V42.0077H54.3019V37.5096H43.117V25.4341H38.5887V31.4718Z"></path>
<path fill="#5B6591" d="M71.4792 34.5207V38.3093H64.6716V41.3735H71.4792V48.9357H74.8754V41.3735H81.6829V38.3093H74.8754V30.7471H71.4792V34.5207Z"></path>
<path fill="#7099A6" d="M6.66422 34.8526V38.4753H0.0227051V41.0413H6.66422V48.2866H9.26044V41.0413L16.068 40.7998V38.4753H9.26044V31.23H6.66422V34.8526Z"></path>
<path fill="#C72035" d="M17.849 51.9097V57.2984H7.79614V60.8455H17.849V71.6229H21.7282V60.8455H31.7811V57.2984H21.7282V46.521H17.849V51.9097Z"></path>
<path fill="#26579A" d="M59.9774 51.9097V57.2984H49.9246V60.6795H59.9774V71.6229H63.8566V60.6795H73.9095V57.2984H63.8566V46.521H59.9774V51.9097Z"></path>
<path fill="#576EB2" d="M39.2377 65.6002V69.3738H32.4302V72.4379H39.2377V80.0002H42.6339V72.4379H49.4415V69.3738H42.6339V61.8115H39.2377V65.6002Z"></path>
</g>
<defs>
<clipPath id="clip0_3096_610">
<rect fill="white" height="80" width="82"></rect>
</clipPath>
</defs>
</svg>
