<svg xmlns="http://www.w3.org/2000/svg" viewBox="0 0 32 32"><title>file_type_tfs</title><path d="M10.175,18.342a8.171,8.171,0,1,1,8.171-8.171A8.181,8.181,0,0,1,10.175,18.342Zm0-11.673a3.5,3.5,0,1,0,3.5,3.5A3.506,3.506,0,0,0,10.175,6.669Z" style="fill:#68217a"/><path d="M28.089,24.023a4.2,4.2,0,1,1-1.231-2.971A4.189,4.189,0,0,1,28.089,24.023Z" style="fill:#68217a"/><path d="M30,6.21a4.2,4.2,0,1,1-1.231-2.971A4.189,4.189,0,0,1,30,6.21Z" style="fill:#68217a"/><path d="M10.416,25.8a4.2,4.2,0,1,1-1.231-2.971A4.189,4.189,0,0,1,10.416,25.8Z" style="fill:#68217a"/><rect x="15.758" y="6.37" width="8.189" height="2.801" transform="translate(-1.301 5.119) rotate(-14.233)" style="fill:#68217a"/><rect x="3.834" y="18.591" width="7.601" height="2.802" transform="translate(-13.621 22.479) rotate(-75.774)" style="fill:#68217a"/><rect x="17.171" y="14.085" width="2.801" height="9.292" transform="translate(-7.805 18.485) rotate(-44.709)" style="fill:#68217a"/></svg>