<svg xmlns="http://www.w3.org/2000/svg" viewBox="0 0 32 32"><title>file_type_subversion</title><path d="M25.073,9.064H5.843V23.092h19.23V9.064Z" style="fill:#809cc9"/><path d="M25.239,8.908l.3,1.173a72.281,72.281,0,0,0-7.267,1.4,38.3,38.3,0,0,0-5.526,1.763q-2.1.877-1.957,1.425c.081.322.665.468,1.757.437q.839-.015,2.731-.183t4.883-.486a65.056,65.056,0,0,1,7.568-.5q2.06.056,2.26.842.269,1.065-3.906,2.854a76.258,76.258,0,0,1-10.8,3.443Q9.7,22.479,5.667,23.084l-.293-1.16a83.643,83.643,0,0,0,8.586-1.645,36.491,36.491,0,0,0,5.486-1.745q1.925-.847,1.778-1.428-.127-.5-1.776-.515-.844.009-2.327.119t-3.694.343q-3.424.367-5.687.556t-3.38.183q-2.14-.02-2.342-.824-.274-1.085,3.615-2.744a74.988,74.988,0,0,1,10.65-3.372Q20.933,9.678,25.239,8.908Z" style="fill:#fff"/><path d="M6.671,18.9a.176.176,0,0,1,.13.056.179.179,0,0,1,.055.131.183.183,0,0,1-.055.134.189.189,0,0,1-.267,0,.185.185,0,0,1-.055-.134.177.177,0,0,1,.055-.133A.19.19,0,0,1,6.671,18.9Z" style="fill:#fff"/><path d="M6.671,20.108a.176.176,0,0,1,.13.057.189.189,0,0,1,0,.266.19.19,0,0,1-.133.054.186.186,0,0,1-.074-.015.191.191,0,0,1-.06-.04.179.179,0,0,1-.041-.06.187.187,0,0,1-.014-.074.182.182,0,0,1,.055-.133A.189.189,0,0,1,6.671,20.108Z" style="fill:#fff"/><path d="M7.322,18.9a.175.175,0,0,1,.13.056.179.179,0,0,1,.055.131.183.183,0,0,1-.055.134.189.189,0,0,1-.267,0,.185.185,0,0,1-.055-.134.177.177,0,0,1,.055-.133A.19.19,0,0,1,7.322,18.9Z" style="fill:#fff"/><path d="M7.322,20.108a.175.175,0,0,1,.13.057.189.189,0,0,1,0,.266.189.189,0,0,1-.133.054.187.187,0,0,1-.074-.015.191.191,0,0,1-.06-.04.179.179,0,0,1-.04-.06A.187.187,0,0,1,7.13,20.3a.182.182,0,0,1,.055-.133A.189.189,0,0,1,7.322,20.108Z" style="fill:#fff"/></svg>