<svg xmlns="http://www.w3.org/2000/svg" viewBox="0 0 32 32"><title>file_type_mojolicious</title><path d="M13.985,23.11a6.7,6.7,0,0,1-4.075-1.416,6.27,6.27,0,0,1-2.708.815,4.926,4.926,0,0,1-4.138-1.38,3.5,3.5,0,0,1-1.036-2.834,3.8,3.8,0,0,1,1.45-2.28,4.906,4.906,0,0,1,1.084-.709A4.932,4.932,0,0,1,4.587,12.1c.853-2.26,3.358-3.24,5.325-3.193a6.14,6.14,0,0,1,4.047,1.764,5.807,5.807,0,0,1,2.385-1.5,5.707,5.707,0,0,1,4.673.523,5.405,5.405,0,0,1,1.778,1.848c2.721-.668,5.233-.053,6.446,1.594a3.511,3.511,0,0,1,.73,2.566c-.251,1.731-2.022,3.141-4.346,3.489a4.4,4.4,0,0,1-1.147,2.3,4.515,4.515,0,0,1-3.564,1.3,5.128,5.128,0,0,1-2.884-1.075,6.707,6.707,0,0,1-3.989,1.393Z"/><path d="M9.969,20.916l.176.149a5.938,5.938,0,0,0,7.681,0l.207-.175.206.176a4.521,4.521,0,0,0,2.7,1.09,3.9,3.9,0,0,0,3.079-1.1,3.8,3.8,0,0,0,1.008-2.183l.029-.25.25-.029c2.156-.249,3.815-1.475,4.033-2.98a2.883,2.883,0,0,0-.613-2.1c-1.092-1.483-3.451-1.991-6.009-1.3l-.246.067-.119-.225a4.811,4.811,0,0,0-1.677-1.827,5.06,5.06,0,0,0-4.14-.456,5.219,5.219,0,0,0-2.33,1.566l-.232.269-.242-.26A5.579,5.579,0,0,0,9.9,9.541a4.872,4.872,0,0,0-4.714,2.781,4.393,4.393,0,0,0,.073,3.043l.109.289-.286.117a4.3,4.3,0,0,0-1.185.724,3.192,3.192,0,0,0-1.236,1.889A2.886,2.886,0,0,0,3.533,20.7a4.328,4.328,0,0,0,3.631,1.174,5.654,5.654,0,0,0,2.609-.837Z" style="fill:#fff"/></svg>