<svg xmlns="http://www.w3.org/2000/svg" viewBox="0 0 32 32"><title>file_type_haxe</title><path d="M16,5.5,5.5,16,16,26.5,26.5,16,16,5.5" style="fill:#f68712"/><path d="M2,2,16,5.5,5.5,16,2,2" style="fill:#fab20b"/><path d="M30,2,26.5,16,16,5.5,30,2" style="fill:#f47216"/><path d="M30,30,16,26.5,26.5,16,30,30" style="fill:#f25c19"/><path d="M2,30,5.5,16,16,26.5,2,30" style="fill:#f89c0e"/><path d="M16,5.5,2,2H9l7,3.5" style="fill:#fbc707"/><path d="M16,5.5,30,2H23L16,5.5" style="fill:#fbc707"/><path d="M16,26.5,30,30H23l-7-3.5" style="fill:#f68712"/><path d="M16,26.5,2,30H9l7-3.5" style="fill:#f25c19"/><path d="M5.5,16,2,30V23l3.5-7" style="fill:#fff200"/><path d="M5.5,16,2,2V9l3.5,7" style="fill:#fff200"/><path d="M26.5,16,30,2V9l-3.5,7" style="fill:#f1471d"/><path d="M26.5,16,30,30V23l-3.5-7" style="fill:#f1471d"/></svg>