<svg xmlns="http://www.w3.org/2000/svg" viewBox="0 0 32 32"><title>file_type_dockertest</title><path d="M18.191,13.064H20.7v2.566h1.27a5.5,5.5,0,0,0,1.744-.292,4.462,4.462,0,0,0,.848-.383,3.149,3.149,0,0,1-.589-1.623,3.427,3.427,0,0,1,.616-2.416l.264-.3.314.253A4,4,0,0,1,26.742,13.4a3.837,3.837,0,0,1,2.913.271l.345.2-.181.354a3.629,3.629,0,0,1-3.648,1.74c-2.173,5.413-6.9,7.976-12.642,7.976A7.958,7.958,0,0,1,6.3,20.2l-.025-.043L6.05,19.7a7.28,7.28,0,0,1-.579-3.693l.035-.38H7.649V13.064h2.51v-2.51h5.02V8.044H18.19v5.02Z" style="fill:#3a4e55"/><path d="M26.324,14.014a3.311,3.311,0,0,0-1.418-2.821,3.072,3.072,0,0,0,.289,3.821A5.279,5.279,0,0,1,21.97,16.05H5.884a6.779,6.779,0,0,0,.667,3.737l.183.335a6.2,6.2,0,0,0,.379.569h0q.992.064,1.829.045h0a8.972,8.972,0,0,0,2.669-.389.193.193,0,1,1,.126.365c-.09.031-.184.061-.281.088h0a8.4,8.4,0,0,1-1.845.3c.044,0-.046.007-.046.007l-.082.007c-.291.016-.6.02-.925.02-.351,0-.7-.007-1.083-.026l-.01.007a7.882,7.882,0,0,0,6.063,2.41c5.56,0,10.276-2.465,12.365-8,1.482.152,2.906-.226,3.553-1.49a3.5,3.5,0,0,0-3.122-.022" style="fill:#d80000"/><path d="M26.324,14.014a3.311,3.311,0,0,0-1.418-2.821,3.072,3.072,0,0,0,.289,3.821A5.279,5.279,0,0,1,21.97,16.05H6.837a5.223,5.223,0,0,0,2.106,4.686h0a8.972,8.972,0,0,0,2.669-.389.193.193,0,1,1,.126.365c-.09.031-.184.061-.281.088h0a8.83,8.83,0,0,1-1.894.314l-.019-.022c1.892.971,4.636.967,7.782-.241a21.867,21.867,0,0,0,9.1-6.889l-.1.048" style="fill:#ea2828"/><path d="M5.914,17.724a6.431,6.431,0,0,0,.637,2.061l.183.335a6.2,6.2,0,0,0,.379.569q.992.064,1.829.045a8.972,8.972,0,0,0,2.669-.389.193.193,0,1,1,.126.365h0c-.09.031-.184.061-.281.088h0a8.826,8.826,0,0,1-1.891.307h-.1c-.291.016-.6.026-.922.026-.351,0-.709-.007-1.1-.026a7.913,7.913,0,0,0,6.076,2.413c4.76,0,8.9-1.807,11.3-5.8Z" style="fill:#b70909"/><path d="M6.981,17.724a4.832,4.832,0,0,0,1.961,3.01,8.972,8.972,0,0,0,2.669-.389.193.193,0,1,1,.126.365h0c-.09.031-.184.061-.281.088h0a8.959,8.959,0,0,1-1.9.307c1.892.971,4.628.957,7.773-.252a20.544,20.544,0,0,0,5.377-3.13Z" style="fill:#c60505"/><path d="M12.4,13.664h.172v1.813H12.4Zm-.33,0h.179v1.813h-.179Zm-.33,0h.179v1.813h-.179Zm-.33,0h.179v1.813h-.179Zm-.33,0h.178v1.813h-.178Zm-.323,0h.172v1.813h-.172Zm-.181-.181h2.176v2.176H10.578V13.483Z" style="fill:#ed2929"/><path d="M14.91,11.154h.172v1.813H14.91Zm-.33,0h.179v1.813h-.178V11.154Zm-.33,0h.179v1.813h-.178V11.154Zm-.33,0H14.1v1.813h-.179V11.154Zm-.33,0h.179v1.813H13.59Zm-.323,0h.172v1.813h-.172Zm-.181-.181h2.176v2.176H13.088V10.972Z" style="fill:#ed2929"/><path d="M17.42,13.664h.172v1.813H17.42Zm-.33,0h.179v1.813H17.09Zm-.33,0h.179v1.813H16.76Zm-.33,0h.179v1.813H16.43Zm-.33,0h.179v1.813H16.1Zm-.323,0h.172v1.813h-.172Zm-.177-.181h2.176v2.176H15.6Z" style="fill:#ed2929"/><path d="M17.42,8.643h.172v1.813H17.42Zm-.33,0h.179v1.813H17.09Zm-.33,0h.179v1.813H16.76Zm-.33,0h.179v1.813H16.43Zm-.33,0h.179v1.813H16.1Zm-.323,0h.172v1.813h-.172ZM15.6,8.462h2.176v2.176H15.6Z" style="fill:#ed2929"/><path d="M9.89,13.664h.172v1.813H9.89Zm-.33,0h.179v1.813H9.56Zm-.33,0h.179v1.813H9.231V13.664Zm-.33,0h.179v1.813H8.9V13.664Zm-.33,0h.179v1.813H8.571V13.664Zm-.323,0h.172v1.813h-.17V13.664Zm-.181-.181h2.175v2.176H8.067V13.483Z" style="fill:#d10000"/><path d="M12.4,11.154h.172v1.813H12.4Zm-.33,0h.179v1.813h-.179Zm-.33,0h.179v1.813h-.179Zm-.33,0h.179v1.813h-.179Zm-.33,0h.178v1.813h-.178Zm-.323,0h.172v1.813h-.172Zm-.181-.181h2.176v2.176H10.578V10.972Z" style="fill:#d10000"/><path d="M17.42,11.154h.172v1.813H17.42Zm-.33,0h.179v1.813H17.09Zm-.33,0h.179v1.813H16.76Zm-.33,0h.179v1.813H16.43Zm-.33,0h.179v1.813H16.1Zm-.323,0h.172v1.813h-.172Zm-.181-.181h2.176v2.176H15.6V10.972Z" style="fill:#d10000"/><path d="M19.93,13.664h.17v1.813h-.17Zm-.33,0h.178v1.813H19.6Zm-.33,0h.179v1.813H19.27Zm-.33,0h.179v1.813H18.94Zm-.33,0h.179v1.813H18.61Zm-.323,0h.172v1.813h-.172Zm-.181-.181h2.176v2.176H18.107V13.483Z" style="fill:#d10000"/><path d="M14.91,13.664h.172v1.813H14.91Zm-.33,0h.179v1.813h-.178V13.664Zm-.33,0h.179v1.813h-.178V13.664Zm-.33,0H14.1v1.813h-.179V13.664Zm-.33,0h.179v1.813H13.59Zm-.323,0h.172v1.813h-.172Zm-.181-.181h2.176v2.176H13.088V13.483Z" style="fill:#d10000"/><path d="M12.617,19.185a.6.6,0,1,1-.6.6.6.6,0,0,1,.6-.6h0" style="fill:#d5eef2"/><path d="M12.617,19.355a.431.431,0,0,1,.156.029.175.175,0,1,0,.241.236.43.43,0,1,1-.4-.265" style="fill:#3a4e55"/><path d="M2,17.941H29.92c-.608-.154-1.923-.362-1.707-1.159-1.1,1.279-3.771.9-4.444.267-.749,1.087-5.111.674-5.415-.173-.939,1.1-3.85,1.1-4.789,0-.3.847-4.666,1.26-5.415.173-.673.631-3.338,1.012-4.444-.267.217.8-1.1,1-1.707,1.159" style="fill:#3a4e55"/><path d="M14.212,23.51A5.287,5.287,0,0,1,11.456,20.8a9.2,9.2,0,0,1-1.987.3q-.436.024-.917.025-.554,0-1.168-.033a7.942,7.942,0,0,0,6.145,2.43q.344,0,.683-.013" style="fill:#e0c1c1"/><path d="M12.008,21.765a5.206,5.206,0,0,1-.552-.966,9.2,9.2,0,0,1-1.987.3,6.325,6.325,0,0,0,2.539.664" style="fill:#efd5d5"/></svg>