<svg xmlns="http://www.w3.org/2000/svg" viewBox="0 0 32 32"><title>file_type_maxscript</title><path d="M14.4,7.568,20.212,2H7.273L4.848,7.536l9.557.032ZM4.848,7.536l6.844,2.6L14.4,7.568m-.013,3.622-2.7-1.053L5.263,16.1l6.286,5.823,2.808-1.1L14.4,7.568m0,0,12.8,8.376L20.212,2M27.2,15.944,14.391,11.19m-.035,9.636-.032,3.685M20.228,30l-8.679-8.073L4.8,24.464,7.257,30Zm0,0L27.2,15.944,14.325,24.512M27.2,15.944,14.357,20.826" style="fill:none;stroke:#1d1d1b;stroke-miterlimit:22.92558479309082;stroke-width:0.028349999338388443px"/><polygon points="14.391 11.19 27.2 15.944 14.405 7.568 14.391 11.19 14.391 11.19" style="fill:#181b17;fill-rule:evenodd"/><polygon points="27.2 15.944 14.357 20.826 14.325 24.509 14.326 24.511 27.2 15.944 27.2 15.944" style="fill:#1a1d1a;fill-rule:evenodd"/><polygon points="14.405 7.568 27.2 15.944 20.212 2 14.405 7.568 14.405 7.568" style="fill:#005f5e;fill-rule:evenodd"/><polygon points="27.2 15.944 14.326 24.511 20.228 30 27.2 15.944 27.2 15.944" style="fill:#004242;fill-rule:evenodd"/><polygon points="14.357 20.826 27.2 15.944 14.391 11.19 14.357 20.826 14.357 20.826" style="fill:#005152;fill-rule:evenodd"/><polygon points="14.357 20.826 14.391 11.19 11.692 10.137 5.263 16.104 11.549 21.927 14.357 20.826 14.357 20.826" style="fill:#00696b;fill-rule:evenodd"/><polygon points="11.692 10.137 14.391 11.19 14.405 7.568 11.692 10.137 11.692 10.137" style="fill:#1b2725;fill-rule:evenodd"/><polygon points="14.357 20.826 11.549 21.927 14.325 24.509 14.357 20.826 14.357 20.826" style="fill:#1c2624;fill-rule:evenodd"/><polygon points="14.325 24.512 4.8 24.464 7.257 30 20.228 30 14.326 24.511 14.325 24.512 14.325 24.512" style="fill:#006466;fill-rule:evenodd"/><polygon points="4.848 7.536 14.405 7.568 20.212 2 7.273 2 4.848 7.536 4.848 7.536" style="fill:#00767a;fill-rule:evenodd"/><polygon points="14.405 7.568 4.848 7.536 11.692 10.137 14.405 7.568 14.405 7.568" style="fill:#1e3938;fill-rule:evenodd"/><polygon points="11.549 21.927 4.8 24.464 14.325 24.512 14.325 24.509 11.549 21.927 11.549 21.927" style="fill:#20302e;fill-rule:evenodd"/></svg>