<svg id="Layer_3" data-name="Layer 3" xmlns="http://www.w3.org/2000/svg" viewBox="0 0 32 32"><title>file_type_velocity</title><path d="M16.245,24.187A8.352,8.352,0,1,1,24.6,15.835,8.362,8.362,0,0,1,16.245,24.187Zm0-14.762a6.41,6.41,0,1,0,6.41,6.41A6.417,6.417,0,0,0,16.245,9.425Z"/><polygon points="29.132 8.551 25.451 6.531 25.451 7.474 15.821 7.474 15.821 9.424 25.451 9.424 25.451 10.571 29.132 8.551" style="fill:#262692"/><polygon points="8.984 2 6.964 5.687 7.906 5.687 7.906 15.328 9.857 15.328 9.857 5.687 11.004 5.687 8.984 2" style="fill:#262693"/><polygon points="23.705 30 21.685 26.243 22.628 26.243 22.628 16.417 24.578 16.417 24.578 26.243 25.725 26.243 23.705 30" style="fill:#262693"/><polygon points="2.868 23.32 6.634 21.3 6.634 22.242 16.484 22.242 16.484 24.192 6.634 24.192 6.634 25.34 2.868 23.32" style="fill:#262692"/></svg>