<svg xmlns="http://www.w3.org/2000/svg" viewBox="0 0 32 32"><title>file_type_julia2</title><path d="M7.448,21.983V13.775l-2.432.669v8.729a2.66,2.66,0,0,1-.106.929.336.336,0,0,1-.308.239.405.405,0,0,1-.212-.074,1.282,1.282,0,0,1-.287-.3,2.813,2.813,0,0,0-.377-.409.874.874,0,0,0-.611-.207,1.22,1.22,0,0,0-.812.255.789.789,0,0,0-.3.627A.907.907,0,0,0,2.542,25a3.115,3.115,0,0,0,1.561.319,7.065,7.065,0,0,0,1.37-.122,2.361,2.361,0,0,0,1.057-.483,2.292,2.292,0,0,0,.68-1.014,5.094,5.094,0,0,0,.239-1.715Z" style="fill:#252525"/><path d="M10.825,14.008H8.4v5.618a2.241,2.241,0,0,0,.218.977,2.489,2.489,0,0,0,.6.8,2.9,2.9,0,0,0,.892.536,3.045,3.045,0,0,0,1.1.2,2.55,2.55,0,0,0,1.051-.244,4.347,4.347,0,0,0,1.019-.648v.743H15.71V14.008H13.289v5.756a2.764,2.764,0,0,1-.648.706,1.139,1.139,0,0,1-.648.281,1.155,1.155,0,0,1-.457-.09,1.263,1.263,0,0,1-.372-.239,1.06,1.06,0,0,1-.25-.356,1.091,1.091,0,0,1-.09-.441Z" style="fill:#252525"/><path d="M19.074,21.983V10.132l-2.411.669V21.983Z" style="fill:#252525"/><path d="M20.038,14.444v7.54h2.421V13.775Z" style="fill:#252525"/><path d="M27.568,17.863v2.3q-.372.276-.674.457a1.165,1.165,0,0,1-.6.181.468.468,0,0,1-.276-.09,1,1,0,0,1-.234-.239,1.138,1.138,0,0,1-.165-.356,1.576,1.576,0,0,1-.058-.43.968.968,0,0,1,.181-.552,2.306,2.306,0,0,1,.473-.5,4.572,4.572,0,0,1,.648-.43,7.612,7.612,0,0,1,.706-.345ZM30,21.983V16a2.083,2.083,0,0,0-.191-.9,1.779,1.779,0,0,0-.595-.69,3.006,3.006,0,0,0-1.025-.441,6.225,6.225,0,0,0-1.481-.154,5.735,5.735,0,0,0-1.327.149,4.6,4.6,0,0,0-1.1.4,2.373,2.373,0,0,0-.759.611,1.216,1.216,0,0,0-.281.77.958.958,0,0,0,.319.738,1.178,1.178,0,0,0,.828.292,1.364,1.364,0,0,0,.547-.1.8.8,0,0,0,.335-.255.986.986,0,0,0,.165-.372,1.978,1.978,0,0,0,.048-.435,1.031,1.031,0,0,1,.223-.669.975.975,0,0,1,.8-.276,1.008,1.008,0,0,1,.781.319,1.594,1.594,0,0,1,.292,1.083v.786l-.265.064q-.488.149-.988.313t-.961.361a7.884,7.884,0,0,0-.865.43,3.511,3.511,0,0,0-.706.531,2.319,2.319,0,0,0-.478.669,1.918,1.918,0,0,0-.175.828,2.034,2.034,0,0,0,.165.823,1.876,1.876,0,0,0,.473.653,2.255,2.255,0,0,0,.749.435,2.907,2.907,0,0,0,.993.159,3.679,3.679,0,0,0,.7-.058,2.509,2.509,0,0,0,.536-.165,2.209,2.209,0,0,0,.43-.25q.191-.143.393-.313v.637Z" style="fill:#252525"/><circle cx="6.204" cy="11.672" r="1.5" style="fill:#6682df"/><path d="M6.2,13.287a1.615,1.615,0,1,1,1.615-1.615A1.617,1.617,0,0,1,6.2,13.287Zm0-3a1.385,1.385,0,1,0,1.385,1.385A1.386,1.386,0,0,0,6.2,10.287Z" style="fill:#4063d8"/><circle cx="21.417" cy="11.672" r="1.5" style="fill:#d5635c"/><path d="M21.417,13.287a1.615,1.615,0,1,1,1.615-1.615A1.617,1.617,0,0,1,21.417,13.287Zm0-3A1.385,1.385,0,1,0,22.8,11.672,1.386,1.386,0,0,0,21.417,10.287Z" style="fill:#cb3c33"/><circle cx="23.385" cy="8.297" r="1.5" style="fill:#60ad51"/><path d="M23.385,9.912A1.615,1.615,0,1,1,25,8.3,1.617,1.617,0,0,1,23.385,9.912Zm0-3A1.385,1.385,0,1,0,24.77,8.3,1.386,1.386,0,0,0,23.385,6.912Z" style="fill:#389826"/><circle cx="25.354" cy="11.672" r="1.5" style="fill:#aa79c1"/><path d="M25.354,13.287a1.615,1.615,0,1,1,1.615-1.615A1.617,1.617,0,0,1,25.354,13.287Zm0-3a1.385,1.385,0,1,0,1.385,1.385A1.386,1.386,0,0,0,25.354,10.287Z" style="fill:#9558b2"/></svg>