<svg xmlns="http://www.w3.org/2000/svg" viewBox="0 0 32 32"><title>file_type_light_font</title><path d="M12.677,17.781l-2.626-6.256L7.357,17.781ZM19.4,24.292H12.331V22.927l.458-.023a1.847,1.847,0,0,0,.972-.2.313.313,0,0,0,.145-.263,4.158,4.158,0,0,0-.419-1.4l-.812-1.931H7.322L6.4,21.259a3.319,3.319,0,0,0-.349,1.157c0,.036,0,.119.154.241a2.481,2.481,0,0,0,1.191.247l.448.033v1.354H2V22.981l.4-.07A2.188,2.188,0,0,0,3.4,22.593a6.318,6.318,0,0,0,1.18-2.066L10.155,7.491H11.2l5.512,13.174A5.255,5.255,0,0,0,17.761,22.5a1.959,1.959,0,0,0,1.19.4l.454.027Z"/><path d="M25.841,21.56V17.575a22.542,22.542,0,0,0-2.226.97,3.845,3.845,0,0,0-1.29,1.05,2.03,2.03,0,0,0-.388,1.2,1.951,1.951,0,0,0,.491,1.362,1.49,1.49,0,0,0,1.13.544A4.142,4.142,0,0,0,25.841,21.56Zm-3.333,2.949a2.833,2.833,0,0,1-2.139-.893,3.206,3.206,0,0,1-.833-2.285,2.959,2.959,0,0,1,.415-1.577,5,5,0,0,1,1.791-1.625,23.876,23.876,0,0,1,3.617-1.588v-.074a2.905,2.905,0,0,0-.383-1.833,1.325,1.325,0,0,0-1.075-.412,1.155,1.155,0,0,0-.816.26.687.687,0,0,0-.277.536l.023.646a1.62,1.62,0,0,1-.4,1.158,1.481,1.481,0,0,1-2.1-.019,1.634,1.634,0,0,1-.391-1.134,2.8,2.8,0,0,1,1.182-2.177,4.813,4.813,0,0,1,3.125-.932,5.381,5.381,0,0,1,2.508.524,2.628,2.628,0,0,1,1.213,1.346,6.391,6.391,0,0,1,.244,2.2v3.55a14.665,14.665,0,0,0,.051,1.749.661.661,0,0,0,.054.2c.085-.078.284-.225.864-.806L30,20.495v1.967l-.1.128c-.958,1.283-1.883,1.907-2.83,1.907a1.6,1.6,0,0,1-1.257-.557,1.788,1.788,0,0,1-.358-.74,9.688,9.688,0,0,1-1.433.977A3.579,3.579,0,0,1,22.508,24.509Z"/></svg>