<svg xmlns="http://www.w3.org/2000/svg" viewBox="0 0 32 32"><title>file_type_darcs</title><path d="M27.1,13.224c-1.8,0-2.515,1.222-3.952,1.868s-2.515.359-3.018-.575-.072-1.8,1.653-2.731,2.012.359,4.024-.862,1.006-3.521.575-4.312a2.936,2.936,0,0,0-4.312-.5c-1.94,1.509-1.15,3.737-1.725,4.887a2.361,2.361,0,0,1-2.8,1.15c-.719-.359-.791-1.8-.5-3.018s1.509-1.222,2.228-3.378a3.08,3.08,0,0,0-2.515-3.737,2.9,2.9,0,0,0-3.306,2.371c-.423,2.959,1.15,2.659,1.8,4.384.329.877.5,2.371-.431,3.09s-2.587-.575-2.946-1.509-.072-3.737-1.078-4.527a3.214,3.214,0,0,0-4.24-.144c-1.725,1.294-.9,4.229,0,4.743,2.012,1.15,3.719.831,4.491,1.258,1.047.579,1.473,1.329,1.114,2.336-.634,1.776-1.8.934-2.731,1.006s-2.156-2.084-3.88-2.515a3.359,3.359,0,0,0-3.449,2.659c0,2.336.893,3.385,3.467,3.512,1.413.07,2.722-2.165,4.191-2.185.794-.011,1.755-.344,2.155.7.673,1.748-.423,2.1-1.133,2.717-1.048.9-2.869.088-4.309,1.071a2.959,2.959,0,0,0-.4,4.672,2.836,2.836,0,0,0,4.336-.28c1.234-1.773.539-3.466,1.569-4.656.131-.151,1.534-1.877,2.724-.7.66.655.791,2.017.183,3.478-.385.925-1.748.549-2.1,2.981a2.878,2.878,0,0,0,2.408,3.49,3.233,3.233,0,0,0,3.51-2.325c.675-2.613-1.537-3.392-2.03-4.546-.5-1.172-.6-1.739.59-3.032.659-.719,2.53.372,2.964,1.286.675,1.42-.183,2.783,1.006,4.352a2.976,2.976,0,0,0,4.694-.011c.824-.916,1.462-2.32-.158-4.15-.783-.885-2.452-.765-4.333-1.29-.924-.258-1.992-1.6-1.633-2.542.265-.7,1.232-1.115,2.569-.817,1.94.431,2.6,2.148,4.168,2.371A2.943,2.943,0,0,0,29.9,16.53,2.8,2.8,0,0,0,27.1,13.224Zm-11.14,5.029a2.229,2.229,0,1,1,2.229-2.229A2.229,2.229,0,0,1,15.956,18.253Z" style="fill:#72ff01"/></svg>