<svg xmlns="http://www.w3.org/2000/svg" xmlns:xlink="http://www.w3.org/1999/xlink" viewBox="0 0 32 32"><defs><radialGradient id="a" cx="10.925" cy="-543.261" r="12.833" gradientTransform="matrix(1.293, 0, 0, -1.234, -0.634, -658.475)" gradientUnits="userSpaceOnUse"><stop offset="0" stop-color="#fff" stop-opacity="0.98"/><stop offset="1" stop-color="#e5f3fc"/></radialGradient></defs><title>file_type_cfm</title><rect x="3.167" y="3.517" width="25.667" height="24.967" style="fill:url(#a)"/><path d="M2,2.35v27.3H30V2.35ZM3.167,3.517H28.834V28.483H3.167ZM11.073,21.09a.185.185,0,0,1-.128.2,5.745,5.745,0,0,1-2.025.275c-2.859,0-5.387-1.869-5.387-6.267,0-3.775,2.236-6.3,5.644-6.3a4.988,4.988,0,0,1,1.9.257c.092.037.11.092.11.2V11.03c0,.147-.073.147-.128.128a4.316,4.316,0,0,0-1.861-.348c-2.144,0-3.573,1.631-3.573,4.434,0,3.463,1.961,4.489,3.573,4.489a4.993,4.993,0,0,0,1.75-.238c.073-.037.128-.037.128.092v1.5Zm.711-6.647c-.073,0-.073-.037-.073-.128V12.8c0-.092.018-.11.092-.11h1.019v-.568a3.76,3.76,0,0,1,.366-1.756,2.4,2.4,0,0,1,2.364-1.356,2.026,2.026,0,0,1,.741.092.143.143,0,0,1,.11.165v1.466c0,.092-.037.128-.128.11a2.335,2.335,0,0,0-.5-.055c-.641,0-.953.458-.953,1.338v.565h1.455c.092,0,.127.018.127.092v1.529c0,.092-.018.11-.11.128H14.821v6.845c0,.073-.018.123-.128.123H12.95a.116.116,0,0,1-.128-.128v-6.84H11.784Zm9.005-2.378a15.574,15.574,0,0,0-3.686.653c-.091,0-.107.053-.107.149.032.374.005.918.005,1.558h.011v6.8c0,.133.027.171.107.171h1.627c.091,0,.123-.037.123-.149V14.2a2.754,2.754,0,0,1,1.446-.384c.929,0,1.436.838,1.436,2.06v5.358a.193.193,0,0,0,.038.13.079.079,0,0,0,.068.038h0l.017,0H23.5c.091,0,.123-.037.123-.149V14.2a2.754,2.754,0,0,1,1.446-.384c.929,0,1.436.838,1.436,2.06v5.358c0,.112.048.171.139.171h1.612c.075,0,.123-.053.123-.149V15.893c0-3.047-1.355-3.72-2.545-3.816a12.021,12.021,0,0,0-3.385.478,2.6,2.6,0,0,0-1.37-.478c-.093-.007-.19-.011-.29-.012Z" style="fill:#28434f"/></svg>