<svg xmlns="http://www.w3.org/2000/svg" viewBox="0 0 32 32"><title>file_type_cfc2</title><path d="M24.037,2.072h0l5.564,5.8V29.928H8.814V30H29.67V7.945L24.037,2.072" style="fill:#909090"/><path d="M23.965,2H8.742V29.928H29.6V7.873L23.965,2" style="fill:#27434f"/><path d="M23.893,2.072V7.945h5.633L23.893,2.072" style="fill:#4c4442"/><path d="M23.965,2V7.873H29.6L23.965,2Z" style="fill:#e5f3fc"/><path d="M2.384,10.264H8.742V3.432H2.384Z" style="fill:#909090"/><path d="M8.742,10.264H22.461V3.432H8.742v6.832Z" style="fill:#4c4442"/><path d="M22.407,10.211H2.33V3.378H22.407v6.832" style="fill:#e5f3fc"/><path d="M14.953,14.686a3.907,3.907,0,0,1,1.692.2c.054.032.068.063.068.158v1.374c0,.126-.054.126-.095.095a3.561,3.561,0,0,0-1.611-.273c-1.751,0-2.945,1.358-2.945,3.648,0,2.906,1.683,3.617,2.9,3.617a3.5,3.5,0,0,0,1.643-.244c.068-.032.1-.016.1.079V24.68a.19.19,0,0,1-.081.189,4.142,4.142,0,0,1-1.928.23c-2.172.016-4.248-1.408-4.248-5.167,0-2.985,1.765-5.246,4.506-5.246" style="fill:#e5f3fc"/><path d="M21.482,14.376c-1.625,0-2.582,1.12-2.582,3.079V17.7H18a.08.08,0,0,0-.091.091V18.9a.106.106,0,0,0,.091.121l.9.015v6.017c0,.091.03.121.106.121H20.54c.091,0,.121-.046.121-.121v-6l1.291-.03c.076,0,.091-.03.091-.106V17.788c0-.061-.015-.091-.091-.091H20.662v-.349c0-1.276.516-1.484,1.108-1.484a1.548,1.548,0,0,1,.268.024v-1.46a2.968,2.968,0,0,0-.556-.052" style="fill:#e5f3fc"/><path d="M28.019,24.848a.133.133,0,0,1-.064.132,3.486,3.486,0,0,1-1.631.2c-2.095,0-3.167-1.661-3.167-3.735a3.5,3.5,0,0,1,3.424-3.794,3.225,3.225,0,0,1,1.342.179c.051.029.064.059.064.147l-.013,1.191c0,.088-.039.1-.09.074a2.646,2.646,0,0,0-1.2-.179c-1.157,0-1.889.955-1.889,2.337,0,1.633.9,2.323,1.851,2.323a3.113,3.113,0,0,0,1.284-.136c.064-.015.09.015.09.074v1.191" style="fill:#e6f3fc"/><path d="M9.653,4.437a1.824,1.824,0,0,1,.79.092c.025.015.032.029.032.074v.641c0,.059-.025.059-.044.044a1.662,1.662,0,0,0-.752-.127c-.817,0-1.375.634-1.375,1.7,0,1.356.785,1.688,1.356,1.688a1.635,1.635,0,0,0,.767-.114c.032-.015.044-.007.044.037V9.1a.088.088,0,0,1-.038.088,1.933,1.933,0,0,1-.9.107C8.519,9.3,7.55,8.639,7.55,6.885a2.2,2.2,0,0,1,2.1-2.448" style="fill:#27434f"/><path d="M12.006,9.237c0,.045-.013.06-.051.06h-.686c-.026,0-.038-.022-.038-.06V4.489c0-.045.006-.052.045-.052h2.468c.038,0,.051.007.058.052l.058.6c.006.045-.006.067-.045.067H12.006V6.576h1.622c.038,0,.051.015.051.052v.619a.046.046,0,0,1-.051.052H12.006V9.237" style="fill:#27434f"/><path d="M16.435,4.424a1.824,1.824,0,0,1,.79.092c.025.015.032.029.032.074v.641c0,.059-.025.059-.044.044a1.662,1.662,0,0,0-.752-.127c-.817,0-1.375.634-1.375,1.7,0,1.356.785,1.688,1.356,1.688a1.635,1.635,0,0,0,.767-.114c.032-.015.044-.007.044.037v.627a.088.088,0,0,1-.038.088,1.933,1.933,0,0,1-.9.107c-1.014.007-1.983-.657-1.983-2.411a2.2,2.2,0,0,1,2.1-2.448" style="fill:#27434f"/></svg>