<svg xmlns="http://www.w3.org/2000/svg" viewBox="0 0 32 32"><title>file_type_coveralls</title><path d="M15.676,2.771l.109-.272.387,1.191,2.8,8.636.177.128,10.4-.028-1.339.981-3.775,2.7-3.389,2.444.128.518L23.8,27.037l.468,1.466L15.8,22.378l-.252.143L8.282,27.8l-1.025.729L10.365,19.1l.171-.5-.172-.145L3.9,13.8l-.568-.393L2,12.426l10.232.026.317-.013,3.127-9.668Z" style="fill:#be564a"/><path d="M16.191,3.471l.129.271,2.826,8.712-.177-.128-2.8-8.636.019-.219Z" style="fill:#dce1e2"/><path d="M2.447,13.4l.886.011L3.9,13.8l6.463,4.647.172.145-.171.5L2.447,13.4Z" style="fill:#dce1e2"/><path d="M24.436,16.109l3.775-2.7L30,13.4l-8.543,6.152L24.738,29.5l-8.521-6.173L7.706,29.5,8.282,27.8l7.265-5.276.252-.143L24.264,28.5,23.8,27.037l-2.621-7.965-.128-.518,3.389-2.444Z" style="fill:#dce1e2"/></svg>