<svg xmlns="http://www.w3.org/2000/svg" viewBox="0 0 32 32"><title>file_type_objectivec</title><path d="M11.29,15.976a8.892,8.892,0,0,0,1.039,4.557,4.818,4.818,0,0,0,5.579,2.13,3.789,3.789,0,0,0,2.734-3.181c.095-.535.1-.54.1-.54,1.537.222,4.014.582,5.55.8l-.1.389A9.958,9.958,0,0,1,23.8,24.9a8.35,8.35,0,0,1-4.747,2.378,12.925,12.925,0,0,1-7.322-.725,8.98,8.98,0,0,1-5.106-5.524A14.353,14.353,0,0,1,6.642,10.9a9.323,9.323,0,0,1,7.929-6.24,11.812,11.812,0,0,1,5.9.491,8.467,8.467,0,0,1,5.456,6.1c.083.311.1.369.1.369-1.709.311-3.821.705-5.518,1.075C20.186,11,19.387,9.666,17.678,9.25a4.656,4.656,0,0,0-5.853,3.158,9.28,9.28,0,0,0-.341,1.273A10.89,10.89,0,0,0,11.29,15.976Z" style="fill:#c2c2c2"/><polygon points="2.033 30 2.033 2 7.967 2 7.967 4.227 4.723 4.227 4.723 27.773 7.967 27.773 7.967 30 2.033 30" style="fill:#c2c2c2"/><polygon points="29.967 29.999 24.033 29.999 24.033 27.771 27.277 27.771 27.277 4.226 24.033 4.226 24.033 1.999 29.967 1.999 29.967 29.999" style="fill:#c2c2c2"/></svg>