<svg xmlns="http://www.w3.org/2000/svg" viewBox="0 0 32 32"><title>file_type_ng_smart_component_ts</title><defs><clipPath id="a"><path d="m0 0h223v236h-223z" fill="#fff" /></clipPath><linearGradient id="b"><stop offset="0" stop-color="#93000e" /><stop offset="1" stop-color="#4a0007" /></linearGradient><linearGradient id="c"><stop offset="0" stop-color="#93000e" /><stop offset="1" stop-color="#93000e" stop-opacity="0" /></linearGradient></defs><g transform="matrix(.11923 0 0 .11923 2.7608 1.986)" clip-path="url(#a)"><path d="m222.08 39.192-8.019 125.92-76.671-165.12zm-53.105 162.82-57.933 33.056-57.934-33.056 11.783-28.556h92.301zm-57.933-139.34 30.357 73.803h-60.715zm-103.1 102.44-7.937-125.92 84.69-39.192z" fill="url(#b)" /><path d="m222.08 39.192-8.019 125.92-76.671-165.12zm-53.105 162.82-57.933 33.056-57.934-33.056 11.783-28.556h92.301zm-57.933-139.34 30.357 73.803h-60.715zm-103.1 102.44-7.937-125.92 84.69-39.192z" fill="url(#c)" /></g><path d="M27.039,19.647a2.814,2.814,0,0,1,1.414.815,3.723,3.723,0,0,1,.542.725c.007.029-.976.689-1.572,1.059-.022.014-.108-.079-.2-.222a1.281,1.281,0,0,0-1.062-.639c-.685-.047-1.127.312-1.123.912a.829.829,0,0,0,.1.423c.151.312.431.5,1.31.879,1.618.7,2.311,1.156,2.742,1.809a3.281,3.281,0,0,1,.262,2.756,3.031,3.031,0,0,1-2.5,1.791,6.931,6.931,0,0,1-1.723-.018,4.154,4.154,0,0,1-2.3-1.2,3.994,3.994,0,0,1-.589-.872,1.689,1.689,0,0,1,.208-.133c.1-.057.481-.276.84-.484l.65-.377.136.2a3.035,3.035,0,0,0,.858.822,2.1,2.1,0,0,0,2.2-.111.983.983,0,0,0,.126-1.252c-.176-.251-.535-.463-1.554-.9a5.6,5.6,0,0,1-2.128-1.31,2.981,2.981,0,0,1-.621-1.13,4.527,4.527,0,0,1-.039-1.443A2.756,2.756,0,0,1,25.324,19.6,5.727,5.727,0,0,1,27.039,19.647Z" style="fill:#007acc" /><path d="M21.731,20.591l.007.926H18.8v8.362H16.714V21.517H13.772v-.908a8.9,8.9,0,0,1,.025-.933c.011-.014,1.8-.022,3.973-.018l3.951.011Z" style="fill:#007acc" /></svg>
