<svg version="1.1" viewBox="0 0 32 32" xml:space="preserve" xmlns="http://www.w3.org/2000/svg"><title>file_type_vcxproj</title><g transform="matrix(1.1549 0 0 1.1549 6.6699 14.758)"><path d="m0.41 9.37-4.01-3.01a1 1 0 0 1-0.4-0.8v-9.04a1 1 0 0 1 0.4-0.8l4.01-3.01a0.9 0.9 0 0 0-0.27 0.8v15.06a0.91 0.91 0 0 0 0.27 0.8z" fill="#5e438f"/><path d="m19.64-6.82a1 1 0 0 0-1.25 0.11l-0.07 0.07-16.54 15.86-0.07 0.07a1 1 0 0 1-1.3 0.08l-4.01-3.01a1 1 0 0 0 1.36-0.15c4.85-5.61 9.68-11.24 14.52-16.86 0.2-0.23 0.47-0.35 0.77-0.35 0.2 0 0.39 0.05 0.55 0.16z" fill="#7252aa"/><path d="m19.65 8.9-6.03 4.02c-0.42 0.28-0.99 0.2-1.32-0.18l-14.53-16.87a1 1 0 0 0-1.37-0.15l4.02-3.01a1 1 0 0 1 0.6-0.2c0.26 0 0.51 0.1 0.7 0.28l0.06 0.07 16.54 15.86 0.07 0.07a1 1 0 0 0 1.25 0.11z" fill="#ae7fe2"/><path d="m20.09-5.99v14.05a1 1 0 0 1-0.45 0.84l-6.02 4.02a1 1 0 0 0 0.44-0.84v-22.08a1.02 1.02 0 0 0-0.46-0.84l6.04 4.02a1.01 1.01 0 0 1 0.45 0.83z" fill="#d59dff"/></g><g transform="translate(-.23045 -.47454)"><g fill="#efeef0"><path d="m15.553 32a7.185 7.185 0 0 1-5.541-2.244 8.131 8.131 0 0 1-2.012-5.706 8.587 8.587 0 0 1 2.222-6.086 7.631 7.631 0 0 1 5.809-2.415 9.876 9.876 0 0 1 3.571 0.583l0.955 0.372v6.569l-2.3-1.456a3.636 3.636 0 0 0-2-0.548 2.127 2.127 0 0 0-1.684 0.668 2.975 2.975 0 0 0-0.663 2.1 2.9 2.9 0 0 0 0.62 2.008 1.918 1.918 0 0 0 1.572 0.618 3.976 3.976 0 0 0 2.165-0.607l2.293-1.427v6.292l-0.815 0.419a9.177 9.177 0 0 1-4.192 0.86z"/><polygon points="19.334 27.909 19.334 26.152 17.578 26.152 17.578 21.394 19.334 21.395 19.334 19.638 24.092 19.638 24.092 21.396 25.85 21.396 25.85 26.152 24.092 26.152 24.092 27.909"/><polygon points="25.485 27.909 25.485 26.152 23.728 26.152 23.728 21.394 25.485 21.395 25.485 19.638 30.243 19.638 30.243 21.396 32 21.396 32 26.152 30.243 26.152 30.243 27.909"/></g><g fill="#984c93"><path d="m19.057 29.808a7.682 7.682 0 0 1-3.5 0.689 5.721 5.721 0 0 1-4.436-1.759 6.657 6.657 0 0 1-1.621-4.688 7.107 7.107 0 0 1 1.817-5.06 6.162 6.162 0 0 1 4.714-1.941 8.364 8.364 0 0 1 3.026 0.481v2.82a5.129 5.129 0 0 0-2.8-0.78 3.61 3.61 0 0 0-2.787 1.152 4.428 4.428 0 0 0-1.06 3.12 4.349 4.349 0 0 0 1 3.007 3.428 3.428 0 0 0 2.693 1.12 5.489 5.489 0 0 0 2.958-0.834z"/><polygon points="20.834 21.137 22.592 21.137 22.592 22.895 24.35 22.895 24.35 24.652 22.592 24.652 22.592 26.409 20.834 26.409 20.834 24.652 19.078 24.652 19.078 22.894 20.834 22.895"/><polygon points="26.985 21.137 28.743 21.137 28.743 22.895 30.5 22.895 30.5 24.652 28.743 24.652 28.743 26.409 26.985 26.409 26.985 24.652 25.228 24.652 25.228 22.894 26.985 22.895"/></g></g></svg>
