<svg version="1.1" viewBox="0 0 32 32" xmlns="http://www.w3.org/2000/svg"><title>file_type_godot</title><path d="M28.166,21.029v1.652a.374.374,0,0,1-.26.357l-2.6.841a.367.367,0,0,1-.335-.054.374.374,0,0,1-.155-.3v-1.8l-2.438.464V24.02a.375.375,0,0,1-.325.371l-3.525.483c-.016,0-.034,0-.051,0A.374.374,0,0,1,18.1,24.5V22.557l-1.819.008h-.267l-1.819-.008V24.5a.375.375,0,0,1-.375.376c-.017,0-.034,0-.052,0l-3.525-.483a.375.375,0,0,1-.324-.371V22.184l-2.439-.464v1.8a.374.374,0,0,1-.154.3.37.37,0,0,1-.336.054l-2.6-.841a.374.374,0,0,1-.259-.357V21.029l-1.608-.541a4.558,4.558,0,0,0-.124,1.04c0,4.317,6.082,7.65,13.6,7.674h.019c7.517-.024,13.6-3.356,13.6-7.674a4.54,4.54,0,0,0-.1-.95Z" fill="#bf4747"/><path d="M3.711,13.373V20.1l.907.306a.374.374,0,0,1,.256.355v1.65l1.855.6V21.267a.376.376,0,0,1,.445-.369l3.189.609a.374.374,0,0,1,.305.368v1.818l2.775.379v-1.89a.374.374,0,0,1,.376-.375h0l2.327.009,2.326-.009a.374.374,0,0,1,.377.375v1.89l2.775-.379V21.874a.373.373,0,0,1,.3-.368l3.189-.609a.377.377,0,0,1,.446.369v1.741l1.855-.6V20.76a.374.374,0,0,1,.255-.355l.618-.208V13.373h.017A26.792,26.792,0,0,0,30,10.931a19.02,19.02,0,0,0-2.509-3.288A24.507,24.507,0,0,0,25,9.091a13.01,13.01,0,0,0-1.279-1.052,15.365,15.365,0,0,0-1.375-.894,28.353,28.353,0,0,0,.232-3.071A15.968,15.968,0,0,0,18.847,2.8a26.44,26.44,0,0,0-1.385,2.7,9.46,9.46,0,0,0-1.453-.116h-.018a9.457,9.457,0,0,0-1.454.116,26.275,26.275,0,0,0-1.385-2.7A15.961,15.961,0,0,0,9.422,4.075a28.142,28.142,0,0,0,.232,3.071,15.312,15.312,0,0,0-1.376.894A13.06,13.06,0,0,0,7,9.091a24.553,24.553,0,0,0-2.49-1.448A19.02,19.02,0,0,0,2,10.931a26.792,26.792,0,0,0,1.694,2.443Z" fill="#bf4747"/><path d="m12.462 16.6a2.739 2.739 0 1 1-2.74-2.738 2.739 2.739 0 0 1 2.74 2.738" fill="#fff"/><path d="m11.8 16.764a1.819 1.819 0 1 1-1.819-1.819 1.817 1.817 0 0 1 1.819 1.819" fill="#414042"/><path d="M16.166,19.59a.844.844,0,0,1-.882-.8V16.267a.886.886,0,0,1,1.764,0v2.522a.845.845,0,0,1-.883.8" fill="#fff"/><path d="m19.871 16.6a2.739 2.739 0 1 0 2.74-2.738 2.739 2.739 0 0 0-2.74 2.738" fill="#fff"/><path d="m20.531 16.764a1.818 1.818 0 1 0 1.817-1.819 1.817 1.817 0 0 0-1.817 1.819" fill="#414042"/></svg>
