<svg xmlns="http://www.w3.org/2000/svg" viewBox="0 0 32 32"><title>file_type_helm</title><path d="M15.813,2.073a.421.421,0,0,1,.451-.015,1.206,1.206,0,0,1,.432.553,4.381,4.381,0,0,1,.325,1.349,6.267,6.267,0,0,1-.169,2.2,10.027,10.027,0,0,1,4.553,1.6,5.9,5.9,0,0,1,.945-1.7,4.584,4.584,0,0,1,1.283-1.177.935.935,0,0,1,.743-.14.575.575,0,0,1,.289.573,3.228,3.228,0,0,1-.368,1.3,6.149,6.149,0,0,1-1.663,2.1,10.136,10.136,0,0,1,1.825,2.208l-1.369.832a8.421,8.421,0,0,0-14.269-.2l-1.345-.869A10.156,10.156,0,0,1,9.308,8.578,6.333,6.333,0,0,1,7.876,6.731a3.486,3.486,0,0,1-.427-1.38.639.639,0,0,1,.232-.587.731.731,0,0,1,.65.038,3.688,3.688,0,0,1,1.123.885,6.33,6.33,0,0,1,1.2,1.9,10.035,10.035,0,0,1,4.591-1.46,6.318,6.318,0,0,1-.161-2.161,4.459,4.459,0,0,1,.313-1.329A1.287,1.287,0,0,1,15.813,2.073Z" style="fill:#277a9f"/><path d="M2.549,12.6H4.477q0,1.357,0,2.714H6.652q0-1.356,0-2.713H8.581q0,3.644,0,7.288H6.652q0-1.447,0-2.892H4.477q0,1.447,0,2.893H2.549Z" style="fill:#277a9f"/><path d="M10.153,12.6h4.709v1.614H12.082v1.144h2.377q0,.807,0,1.614H12.082v1.3h2.892q0,.807,0,1.614H10.153Z" style="fill:#277a9f"/><path d="M16.416,12.6h1.928v5.673H21.1q0,.807,0,1.614H16.416Z" style="fill:#277a9f"/><path d="M22.366,12.6h2.063q.482,1.307.963,2.615c.212.544.349,1.111.526,1.666a.392.392,0,0,0,.078-.16c.112-.391.228-.782.351-1.171q.519-1.475,1.041-2.949h2.064v7.288H27.7a33.054,33.054,0,0,1,.08-3.356c.044-.475.122-.947.162-1.423a.617.617,0,0,0-.111.227c-.445,1.332-.938,2.648-1.436,3.961-.342-.007-.684,0-1.026,0q-.442-1.187-.883-2.374c-.172-.5-.338-1.01-.506-1.515a.746.746,0,0,0-.131-.292,25.97,25.97,0,0,1,.242,2.761q0,1.007,0,2.014H22.366Z" style="fill:#277a9f"/><path d="M7.667,21.8q.656-.458,1.314-.915a8.422,8.422,0,0,0,13.833-.012l1.316.912a10.261,10.261,0,0,1-1.379,1.6,6.272,6.272,0,0,1,1.486,1.892,3.491,3.491,0,0,1,.427,1.377.62.62,0,0,1-.26.6.87.87,0,0,1-.743-.112,4.412,4.412,0,0,1-1.252-1.117,6.248,6.248,0,0,1-.949-1.616A9.967,9.967,0,0,1,16.9,26.041a6.086,6.086,0,0,1,.144,1.5,5.016,5.016,0,0,1-.308,1.748,1.38,1.38,0,0,1-.446.635.431.431,0,0,1-.507-.017,1.573,1.573,0,0,1-.467-.736,5.764,5.764,0,0,1-.251-2.212,5.659,5.659,0,0,1,.124-.892,10.024,10.024,0,0,1-4.606-1.494,6.44,6.44,0,0,1-1.348,1.964,2.942,2.942,0,0,1-1.057.716.531.531,0,0,1-.614-.124,1.139,1.139,0,0,1-.068-.864A5.449,5.449,0,0,1,8.5,24.282a6.044,6.044,0,0,1,.688-.759A10.423,10.423,0,0,1,7.667,21.8Z" style="fill:#277a9f"/></svg>