<svg xmlns="http://www.w3.org/2000/svg" viewBox="0 0 32 32"><title>file_type_meteor</title><path d="M2,2.273l23.979,25.4a1.119,1.119,0,0,0,1.442-.1,1.064,1.064,0,0,0,.144-1.344L2,2.273Z" style="fill:#df4f4f"/><path d="M9.593,4.674,27.853,24.36a1.119,1.119,0,0,0,1.442-.1,1.064,1.064,0,0,0,.144-1.344L9.593,4.674Z" style="fill:#df4f4f"/><path d="M4.259,9.811,22.519,29.5a1.119,1.119,0,0,0,1.442-.1,1.064,1.064,0,0,0,.144-1.344L4.259,9.811Z" style="fill:#df4f4f"/><path d="M16.011,6.738,28.769,20.492a.782.782,0,0,0,1.007-.067.743.743,0,0,0,.1-.939L16.011,6.738Z" style="fill:#df4f4f"/><path d="M6.016,15.765,18.773,29.518a.782.782,0,0,0,1.007-.067.743.743,0,0,0,.1-.939L6.016,15.765Z" style="fill:#df4f4f"/><path d="M22.567,9.715l5.782,6.252a.4.4,0,0,0,.5-.031.335.335,0,0,0,.05-.44l-6.33-5.781Z" style="fill:#df4f4f"/><path d="M9.208,22.1l5.782,6.252a.4.4,0,0,0,.5-.031.335.335,0,0,0,.05-.44L9.208,22.1Z" style="fill:#df4f4f"/></svg>