<svg xmlns="http://www.w3.org/2000/svg" viewBox="0 0 32 32"><title>file_type_qlikview</title><path d="M29.935,26.485c-.482-.408-.958-.823-1.436-1.235-.828-.714-1.655-1.429-2.487-2.138-.122-.1-.115-.179-.031-.305a12.772,12.772,0,0,0,2.15-8.749,12.755,12.755,0,0,0-4.81-8.739,12.976,12.976,0,0,0-8.253-2.906c-.143.007-.353.018-.564.026a12.467,12.467,0,0,0-3.591.672A12.748,12.748,0,0,0,4.746,7.521a12.755,12.755,0,0,0-2.3,11.3A12.635,12.635,0,0,0,7.2,25.926,13.09,13.09,0,0,0,19.607,27.8a12.873,12.873,0,0,0,3.269-1.758c.091-.068.159-.126.279-.024.754.643,1.516,1.277,2.275,1.914l1.87,1.574c.083.07.151.14.261.007q1.186-1.424,2.389-2.834C30.02,26.6,30.018,26.555,29.935,26.485ZM15.116,23.55a8.045,8.045,0,1,1,8.055-8.042A8.05,8.05,0,0,1,15.116,23.55Z" style="fill:#6eb43f;fill-rule:evenodd"/><path d="M15.106,20.671A5.161,5.161,0,1,1,20.278,15.5,5.167,5.167,0,0,1,15.106,20.671Z" style="fill:#5f6062;fill-rule:evenodd"/></svg>