<svg xmlns="http://www.w3.org/2000/svg" viewBox="0 0 32 32"><title>file_type_ng_smart_component_js</title><defs><linearGradient id="a"><stop offset="0" stop-color="#93000e" /><stop offset="1" stop-color="#4a0007" /></linearGradient></defs><g transform="matrix(.11923 0 0 .11923 2.7608 1.986)"><path d="m222.08 39.192-8.019 125.92-76.671-165.12zm-53.105 162.82-57.933 33.056-57.934-33.056 11.783-28.556h92.301zm-57.933-139.34 30.357 73.803h-60.715zm-103.1 102.44-7.937-125.92 84.69-39.192z" fill="url(#a)" /><path d="m222.08 39.192-8.019 125.92-76.671-165.12zm-53.105 162.82-57.933 33.056-57.934-33.056 11.783-28.556h92.301zm-57.933-139.34 30.357 73.803h-60.715zm-103.1 102.44-7.937-125.92 84.69-39.192z" fill="#4a0007" fill-opacity=".3" /></g><path d="M15.271,27.926l1.664-1.01c.322.57.614,1.053,1.316,1.053.673,0,1.1-.263,1.1-1.287V19.72H21.4v6.991A2.781,2.781,0,0,1,18.344,29.8a3.178,3.178,0,0,1-3.072-1.872" style="fill:#f7df1e" /><path d="M22.513,27.706l1.667-.965A2.229,2.229,0,0,0,26.2,27.984c.848,0,1.39-.424,1.39-1.009,0-.7-.556-.951-1.492-1.36l-.512-.22c-1.477-.629-2.457-1.419-2.457-3.086a2.737,2.737,0,0,1,2.755-2.719q.123,0,.245.013a3.024,3.024,0,0,1,2.908,1.638l-1.594,1.024a1.394,1.394,0,0,0-1.316-.878.891.891,0,0,0-.976.8q0,.04,0,.081c0,.614.38.863,1.258,1.243l.512.219c1.74.747,2.72,1.507,2.72,3.219,0,1.843-1.448,2.852-3.393,2.852a3.933,3.933,0,0,1-3.73-2.092" style="fill:#f7df1e" /></svg>
