<svg xmlns="http://www.w3.org/2000/svg" viewBox="0 0 32 32"><title>file_type_wolfram</title><path d="M30,20.55,25.94,16,30,11.45l-5.948-1.294.595-6.067L19.071,6.543,15.993,1.279,12.929,6.543,7.353,4.089l.595,6.067L2,11.45,6.059,16,2,20.55l5.948,1.294-.595,6.067,5.576-2.454,3.078,5.264,3.063-5.264,5.591,2.454-.61-6.067Z" style="fill:#d10"/><path d="M19.353,11.45a6.968,6.968,0,0,1-3.42.862,5.446,5.446,0,0,1-3.212-.862A7.1,7.1,0,0,1,12.5,14.8a6.225,6.225,0,0,1-1.874,2.914,7.454,7.454,0,0,1,3.138,1.19,9.659,9.659,0,0,1,2.216,2.721,8.194,8.194,0,0,1,2.141-2.691,7.605,7.605,0,0,1,3.242-1.2,12.562,12.562,0,0,1-1.933-2.944A6.718,6.718,0,0,1,19.353,11.45Zm-1.9,6.543a5.233,5.233,0,0,0-1.457,1.636,6.236,6.236,0,0,0-1.5-1.621,5.191,5.191,0,0,0-1.948-.848,6.839,6.839,0,0,0,1.115-2.007,6.18,6.18,0,0,0,.223-2.082,6.317,6.317,0,0,0,2.082.446,6.552,6.552,0,0,0,2.171-.461,4.521,4.521,0,0,0,.074,2.156,6.71,6.71,0,0,0,1.249,1.933A7.031,7.031,0,0,0,17.45,17.993Zm4.238-4.015c-.357-1.175.654-6.706.654-6.706S18.55,9.844,15.888,9.844s-6.23-2.572-6.23-2.572,1.175,4.015.461,6.587-4.387,5.472-4.387,5.472,4.788.283,6.6,1.5,3.658,5.948,3.658,5.948,2.454-5.2,3.48-5.948,6.8-1.5,6.8-1.5-4.223-4.178-4.58-5.353Zm-2.84,5.963a9.444,9.444,0,0,0-2.84,4.178s-1.413-3.152-2.974-4.223S8.3,18.543,8.3,18.543s2.454-2.171,3.048-4.1a11.923,11.923,0,0,0-.1-4.952,11.3,11.3,0,0,0,4.669,1.621c2.037,0,4.848-1.621,4.848-1.621s-.818,3.033-.164,4.922,3.108,4.134,3.108,4.134a10.557,10.557,0,0,0-4.862,1.4Z" style="fill:#fff"/></svg>