<svg xmlns="http://www.w3.org/2000/svg" viewBox="0 0 32 32"><title>file_type_snyk</title><path d="M22.576,8.655a34.508,34.508,0,0,0-2.251-4.609l-.177-.307c-.173-.316-.3-.543-.352-.628L19.153,2l-.92,5.954-.031.216q-1.03-.055-2.19-.055t-2.2.055l-.029-.217-.322-2.087L12.86,2,12.2,3.11c-.058.1-.237.413-.47.838l-.056.1a34.589,34.589,0,0,0-2.27,4.613,20.038,20.038,0,0,0-2.8.663V23.793L16,30l9.392-6.206V9.322A19.765,19.765,0,0,0,22.576,8.655Z" style="fill:#fff"/><path d="M20.042,19.89H15.991V13.566l-4.106,6.139-.637,6.3,4.682,3.12.064.042,4.789-3.185Z" style="fill:#3b3b63"/><path d="M15.924,29.105,7.208,23.343V9.9A29,29,0,0,1,15.936,8.78a28.715,28.715,0,0,1,8.7,1.123v13.44Z" style="fill:#dbdbdb"/><path d="M16.049,8.78h-.012V29.105l8.716-5.763V9.9a28.76,28.76,0,0,0-8.7-1.122" style="fill:#c6c6c6"/><path d="M20.758,25.973l-.739-6.082H15.97v9.264Z" style="fill:#3b3b63"/><path d="M11.248,26.008l4.745,3.162v-15.6l-4.108,6.14Z" style="fill:#53537a"/><path d="M18.036,24.212c0,1.042-1.051,1.559-2.014,1.559s-2.036-.516-2.036-1.56" style="fill:#bc9375"/><path d="M17.445,23.62c0,1.223-.71,1.55-1.434,1.55s-1.434-.328-1.434-1.55" style="fill:#073251"/><path d="M16.011,24.749c-.774,0-1.15-.525-1.15-1.607h.368c0,1.265.528,1.265.781,1.265s.781,0,.781-1.265h.369c0,1.082-.377,1.608-1.15,1.608" style="fill:#fff"/><path d="M22.151,10.677c0-1.32-2.4-5.472-2.4-5.472l-.814,5.266-.73,1.111-2.188.082-.009.018v-.018l-2.188-.082-.73-1.111-.813-5.265S9.87,9.358,9.87,10.678l1.015,2.534s-.513,4.259-.279,4.816a19.809,19.809,0,0,0,1.855,2.422,8.721,8.721,0,0,0,.439,2.695,1.743,1.743,0,0,0,1.682,1.133,1.6,1.6,0,0,0,1.423-.869,1.627,1.627,0,0,0,1.433.87,1.745,1.745,0,0,0,1.684-1.131,8.723,8.723,0,0,0,.437-2.695,19.882,19.882,0,0,0,1.855-2.422c.234-.558-.279-4.816-.279-4.816l1.016-2.536Z" style="fill:#c49a7e"/><path d="M16.011,11.673l0,.009v-.018l-2.188-.082-.73-1.111-.814-5.265s-2.4,4.152-2.4,5.472l1.015,2.535s-.513,4.258-.279,4.816a19.892,19.892,0,0,0,1.854,2.422,8.751,8.751,0,0,0,.439,2.695,1.745,1.745,0,0,0,1.682,1.132,1.605,1.605,0,0,0,1.424-.869l0,.009Z" style="fill:#d8b7a0"/><path d="M21.158,13.462c-.187-.362.078-1.218.078-1.218-1.517-1.443-1.9-4.452-1.9-4.452-.282.947-.9,3.744-.9,3.744a8.372,8.372,0,0,0-2.422-.393h-.01c-.071,0-.141,0-.209,0v11.8l.1.129v-.064h.059v0h.118v0h.06v.064l1.05-1.42.228-3.992,1.307,1.384L20.4,19.5l.628-.415a2.892,2.892,0,0,0,.422-.8c.234-.558-.291-4.829-.291-4.829" style="fill:#3b3b63"/><path d="M16.023,11.142h0a8.376,8.376,0,0,0-2.424.393s-.616-2.795-.9-3.745c0,0-.38,3.01-1.9,4.452a2.321,2.321,0,0,1,.079,1.218s-.525,4.273-.291,4.83a2.922,2.922,0,0,0,.421.8l.63.415,1.684-.455,1.306-1.384.229,3.991L15.9,23.077v-.064h.06v0h.059V11.141Z" style="fill:#53537a"/><path d="M19.065,16.133H17.1v.018a1.3,1.3,0,0,0,2.581,0v-.018h-.615Z" style="fill:#333152"/><path d="M17.591,16.133v.018a.739.739,0,0,0,1.475,0v-.018H17.591Z" style="fill:#fff"/><path d="M18.556,16.133H18.21l-.009,0c.043.009.066.1.057.158a.193.193,0,0,1-.194.157.314.314,0,0,0,.273.234.321.321,0,0,0,.37-.255c.018-.121-.046-.295-.151-.295m-4.238,0H12.351v.018a1.3,1.3,0,0,0,2.582,0v-.018h-.615Z" style="fill:#333152"/><path d="M12.843,16.133v.018a.739.739,0,0,0,1.475,0v-.018H12.843Z" style="fill:#fff"/><path d="M13.809,16.133h-.346l-.009,0c.043.009.066.1.057.158a.194.194,0,0,1-.195.157.315.315,0,0,0,.273.234.321.321,0,0,0,.37-.255c.018-.121-.046-.295-.15-.295" style="fill:#333152"/><path d="M18.917,15.59c.082-.085.783-.821-.155-.821a2.29,2.29,0,0,0-1.618.819h1.773Z" style="fill:#c49a7e"/><path d="M14.873,15.59a2.284,2.284,0,0,0-1.619-.821c-.938,0-.237.737-.155.819h1.774Z" style="fill:#d8b7a0"/><path d="M11.9,16.126h3.587v-.312H11.9Z" style="fill:#53537a"/><path d="M21.222,11.7a9.233,9.233,0,0,1-1.4-3.767L20.015,6.7a15.506,15.506,0,0,1,1.641,3.913Zm-.266,6.177a18.058,18.058,0,0,1-1.78,2.3l-.109.127v.16A8.284,8.284,0,0,1,18.658,23a1.265,1.265,0,0,1-1.22.831,1.132,1.132,0,0,1-.981-.6l-.038-.54h-.826l-.036.537a1.119,1.119,0,0,1-.974.6,1.262,1.262,0,0,1-1.22-.83,8.328,8.328,0,0,1-.41-2.537V20.3l-.109-.126a18.561,18.561,0,0,1-1.775-2.292,27.983,27.983,0,0,1,.307-4.609l.013-.107-.184-.459a6.287,6.287,0,0,0,1.382-2.264l.03.2,1,1.53.391-.155a6.271,6.271,0,0,1,1.994-.4,6.393,6.393,0,0,1,2,.4l.391.155,1-1.53.04-.255a6.393,6.393,0,0,0,1.382,2.3l-.193.483.013.107a28.384,28.384,0,0,1,.31,4.6ZM15.4,24.583a2.044,2.044,0,0,0,.355-.189.966.966,0,0,0,.257.025.953.953,0,0,0,.255-.025,2.044,2.044,0,0,0,.355.189,1.135,1.135,0,0,1-1.222,0Zm.623.971c-.54,0-1.307-.222-1.5-.813l.059,0a2.37,2.37,0,0,0,.3-.021,1.363,1.363,0,0,0,1.133.461,1.364,1.364,0,0,0,1.134-.461,2.328,2.328,0,0,0,.294.021l.061,0a1.517,1.517,0,0,1-1.478.814Zm-5.657-14.94A15.533,15.533,0,0,1,12.008,6.7l.206,1.335a8.912,8.912,0,0,1-1.4,3.689l-.446-1.111Zm12.266.073c0-1.393-2.205-5.25-2.458-5.686l-.7-1.223-1.011,6.546-.464.71a7.055,7.055,0,0,0-1.987-.335,6.951,6.951,0,0,0-1.979.334l-.466-.71-.353-2.294V8.017h0l-.656-4.24L11.831,5c-.253.434-2.476,4.292-2.476,5.686v.082l1.02,2.51c-.164,1.369-.473,4.343-.23,4.924a10.44,10.44,0,0,0,1.233,1.715L10.71,25.67l.92.6.484-4.186a6.32,6.32,0,0,0,.325,1.225A2.193,2.193,0,0,0,13.5,24.491a2.293,2.293,0,0,0,2.526,1.971,2.278,2.278,0,0,0,2.5-1.973,2.2,2.2,0,0,0,1.056-1.18,6.353,6.353,0,0,0,.334-1.275l.489,4.2.918-.621L20.66,19.9a10.369,10.369,0,0,0,1.215-1.7c.244-.581-.079-3.554-.241-4.924l1-2.511v-.082Z" style="fill:#333152"/><path d="M17.168,21.131H14.862a2.537,2.537,0,0,0-.311.665c0,.483,1.42,1.25,1.42,1.25s1.5-.792,1.5-1.252a1.9,1.9,0,0,0-.3-.665" style="fill:#333152"/><path d="M16.724,22.6c-.129-.211-.295-.25-.371-.087a.827.827,0,0,0,.1.677c.127.212.295.25.371.087a.826.826,0,0,0-.1-.677" style="fill:#c49a7e"/><path d="M15.3,22.6a.82.82,0,0,0-.1.677c.076.164.241.125.371-.087a.82.82,0,0,0,.1-.677c-.076-.164-.241-.124-.371.087" style="fill:#d8b7a0"/></svg>