<svg xmlns="http://www.w3.org/2000/svg" viewBox="0 0 32 32"><title>file_type_bower2</title><path d="M29.465,15.715c-1.44-1.384-8.642-2.248-10.914-2.5a6.669,6.669,0,0,0,.281-.806,9.094,9.094,0,0,1,.99-.367c.042.124.241.6.354.826,4.569.126,4.8-3.4,4.99-4.36a5.447,5.447,0,0,1,1.74-3.521c-2.335-.68-5.693,1.055-6.818,3.637a7.015,7.015,0,0,0-1.265-.348,6.137,6.137,0,0,0-5.966-4.585A11.154,11.154,0,0,0,2,15.232c0,6.1,4.163,11.442,6.515,11.442a2.316,2.316,0,0,0,2.118-1.459c.174.473.708,1.943.883,2.317.259.553,1.457,1.032,1.981.458a1.93,1.93,0,0,0,2.585-.4,1.914,1.914,0,0,0,2.471-1.423c.637-.034.95-.928.81-1.641a17.5,17.5,0,0,0-1.625-3.056c.846.688,2.988.883,3.248,0,1.364,1.07,3.489.509,3.657-.362,1.657.431,3.558-.515,3.245-1.66C30.552,19.265,30.212,16.433,29.465,15.715Z" style="fill:#ee4d26"/><path d="M20.658,16.158h0c-.616-.047-1.109-.081-1.406-.1.49.07,2.652.468,4.713.866.262.418-.905,1.376-1.927.9.478,1.077-1.623,1.972-2.643,1.2a.658.658,0,0,1-.332.609,1.833,1.833,0,0,1-.73.285,1.834,1.834,0,0,0,.73-.285.658.658,0,0,0,.332-.609c1.02.768,3.121-.128,2.643-1.2,1.022.476,2.189-.482,1.927-.9,1.743.336,3.413.671,3.937.805a2.032,2.032,0,0,1-2.337.69c.646.88-.608,1.936-2.355,1.354.385.864-1.171,1.642-2.939.741.022.864-2.193.964-3.069.009v.005q-.038-.081-.076-.169c-.112-.274-.25-.609-.351-.875l-.021-.057a1.57,1.57,0,0,0,1.578.494,1.57,1.57,0,0,1-1.578-.495h0l.021.057c.13.348.244.633.351.875.082.2.15.367.181.454.318.884-1.134,4.227-4.407,4.227a9.737,9.737,0,0,1-8.912-5.912c1.909.937,4.261.489,4.813-.1a7.8,7.8,0,0,0,2.38.4c2.421,0,4.609-1.7,5.816-4.253a3.964,3.964,0,0,0,.773-.841,58.716,58.716,0,0,1,8.714,1.4c-1.209.129-4.276.43-5.826.422h0ZM17.409,12.3a9.482,9.482,0,0,1,2.239-.99c-.015-.105-.026-.212-.033-.319-.624.15-1.8.654-2.476-.041,1.423.429,2.134-.383,3.18-.383a6.724,6.724,0,0,1,2.214.449,7.469,7.469,0,0,0-4.7-2.1A3.29,3.29,0,0,0,17.409,12.3Zm3.739-.777a4.627,4.627,0,0,1,.047-.533,4.837,4.837,0,0,0-.839-.11,3.157,3.157,0,0,0,.291,1.216,4.378,4.378,0,0,0,2.282-.633,7.638,7.638,0,0,0-1.54-.434C21.335,11.149,21.2,11.442,21.149,11.527Zm.9-1.852a10.185,10.185,0,0,1,2.2-3.148,5.71,5.71,0,0,0-2.575,2.9,9.02,9.02,0,0,0-.906-.506,5.878,5.878,0,0,1,4.8-3.308c-1.4,1.269-.9,3.906-2.053,5.3A15.066,15.066,0,0,0,22.053,9.675Zm-11.669.338a2.439,2.439,0,1,0,2.439-2.439A2.439,2.439,0,0,0,10.384,10.013Z" style="fill:#fff"/><circle cx="12.823" cy="10.013" r="1.46" style="fill:#ee4d26"/><ellipse cx="12.823" cy="9.365" rx="0.851" ry="0.529" style="fill:#fff"/></svg>