<svg xmlns="http://www.w3.org/2000/svg" viewBox="0 0 32 32"><title>file_type_tcl</title><path d="M21.942,2.876c.04,2.468-.033,4.91-2.169,7.23l-.079.089h.119l.873.013c-1.418,2.95-2.341,5.892-4.38,8.83l-.073.106.126-.023,1.078-.2a5.851,5.851,0,0,1-3.484,3.65c-.39-5.455,2.333-10.27,4.645-15.071l.007-.013-.086-.06c-3.786,4.233-5.491,10.2-6.136,15.127a4.582,4.582,0,0,1-2.145-2.988l.9.377.093.04-.02-.1c-.681-3.028.376-5.2,1.4-8.056l.737.493.086.06,0-.1c-.058-2.32,1.5-4.649,3.577-6.727l.288.77.04.1.056-.1.631-1.051,0-.007A6.1,6.1,0,0,1,21.942,2.876Z" style="fill:#c3b15f"/><path d="M21.948,2.875a6.131,6.131,0,0,0-3.926,2.388l0,.007-.631,1.051-.056.1-.04-.1L17,5.544c-2.072,2.078-3.635,4.407-3.577,6.727l0,.1-.086-.06-.737-.493c-1.025,2.856-2.083,5.029-1.4,8.056l.02.1-.093-.04-.886-.374c0,.018.007.035.01.053a4.533,4.533,0,0,0,2.126,2.932c.05-.381.105-.771.169-1.164-1.543-3.614-.2-6.271.407-8.661l.939.542c-.13-2.238,1.184-4.651,2.893-6.757l.5.873C18.555,4.769,19.56,3.72,21.948,2.875Z" style="fill:#eff1cb;stroke:#eff1cb"/><path d="M22.518,2l-.056.01c-2.082.363-4.121,1.128-5.015,2.959l-.377-.658-.033-.06-.05.05a20.85,20.85,0,0,0-2.939,3.5A5.939,5.939,0,0,0,12.835,11l-.532-.664-.053-.066-.036.076a27.535,27.535,0,0,0-1.693,4.7,6.73,6.73,0,0,0-.159,3.719l-.876-.509-.073-.043-.007.086a5.529,5.529,0,0,0,2.017,4.843l-.972.241-.2.05.2.053a4.258,4.258,0,0,1,1.455.6,1.325,1.325,0,0,1,.516,1.3V28.1l.01.013,1.217,1.745.1.139V25.719a3.466,3.466,0,0,1,.621-1.484A1.639,1.639,0,0,1,15.5,23.7l.182-.023-.165-.076-.641-.3a9.112,9.112,0,0,0,3.693-5.322l.02-.086-.083.023-.793.215a11.669,11.669,0,0,0,2.089-3.5C20.512,13,21.18,11.166,21.728,9.7l.03-.079-.083.007-.612.043a6.655,6.655,0,0,0,1.382-3.527,17.039,17.039,0,0,0,.079-4.086Zm-.575.876c.04,2.468-.033,4.91-2.169,7.23l-.079.089h.119l.873.013c-1.418,2.95-2.341,5.892-4.38,8.83l-.073.106.126-.023,1.078-.2a5.851,5.851,0,0,1-3.484,3.65c-.39-5.455,2.333-10.27,4.645-15.071l.007-.013-.086-.06c-3.786,4.233-5.491,10.2-6.136,15.127a4.582,4.582,0,0,1-2.145-2.988l.9.377.093.04-.02-.1c-.681-3.028.376-5.2,1.4-8.056l.737.493.086.06,0-.1c-.058-2.32,1.5-4.649,3.577-6.727l.288.77.04.1.056-.1.631-1.051,0-.007A6.1,6.1,0,0,1,21.942,2.876Z"/></svg>