<svg xmlns="http://www.w3.org/2000/svg" viewBox="0 0 32 32"><title>file_type_light_stylelint</title><path d="M16.19,29.289c3.063-10.949,2.974-11,5.187-18.806l.532.308c.29.166.526.029.526-.3V6.763c.588-2.057,1.047-3.647,1.183-4.123h2.4L30,6.329,27.383,8.59l1.979,2.14L16.322,29.289c-.063.105-.152.081-.132,0Zm1.425-23.6c.119,0,.214.065.214.147V7.743c0,.08-.1.145-.214.145h-3.22c-.119,0-.215-.065-.215-.146V5.834c0-.081.1-.147.214-.147h3.221Zm3.976-2.113L18.048,5.621a.392.392,0,0,1,.066.213V7.743a.391.391,0,0,1-.1.259l3.579,2.066c.244.141.444.026.444-.255V3.832C22.034,3.55,21.835,3.435,21.591,3.576ZM13.9,7.743V5.834a.388.388,0,0,1,.066-.213L10.417,3.574c-.244-.14-.444-.025-.444.256V9.812c0,.281.2.4.445.255L14,8a.391.391,0,0,1-.1-.259Zm1.783,21.546h.132c-3.062-10.949-2.974-11-5.187-18.806l-.532.308c-.289.166-.526.029-.526-.3V6.763C8.976,4.708,8.517,3.116,8.381,2.64h-2.4L2,6.329,4.616,8.59,2.637,10.731ZM15.9,11.873a.967.967,0,1,0-.967-.967A.967.967,0,0,0,15.9,11.873Zm0,5.75a.967.967,0,1,0-.967-.967A.967.967,0,0,0,15.9,17.623Zm0,5.752a.967.967,0,1,0-.967-.967A.967.967,0,0,0,15.9,23.375Z"/></svg>