<svg xmlns="http://www.w3.org/2000/svg" viewBox="0 0 32 32"><title>file_type_grunt</title><path d="M6.957,8.806s.48,1.849.548,2.466-1.233,1.986-1.233,2.671a2.674,2.674,0,0,0,1.781,2.534,3.142,3.142,0,0,1,1.712,3.151,13.977,13.977,0,0,1-.548,2.808s-.342,4.589,1.507,5.411,1.438.822,1.849.822S16,29.9,17.779,29.424A4.88,4.88,0,0,0,20.04,28.4a2.324,2.324,0,0,0,2.329-1.439,18.6,18.6,0,0,0,.685-6.37c-.206-1.507-.479-3.493.753-4.178s2.535-1.506,2.329-2.191a5.29,5.29,0,0,0-1.3-1.644,6.753,6.753,0,0,1-.069-2.123c.205-.411,1.438-1.439.753-2.192A2.9,2.9,0,0,0,23.6,7.5l-1.575.137a9.647,9.647,0,0,0-6.165-2.26,9.275,9.275,0,0,0-5.685,2.26,3.51,3.51,0,0,0-2.192,0C6.956,8.053,6.752,7.642,6.957,8.806ZM13.05,5.749a1.585,1.585,0,0,1-.957-.585A3.311,3.311,0,0,0,9.428,3.718,11.965,11.965,0,0,0,6.561,4.1l1.245.786c.132,0,.362,0,.742.01a1.906,1.906,0,0,1,1.8,1.6l5.5-.758m3.1.01a1.585,1.585,0,0,0,.957-.585,3.309,3.309,0,0,1,2.665-1.447,11.965,11.965,0,0,1,2.867.383l-1.245.786c-.132,0-.362,0-.743.01a1.906,1.906,0,0,0-1.8,1.6l-5.5-.758" style="fill:#fba919"/><path d="M13.216,19s-1.357,2.074-2.352,3.546c-.154.228,1,.243,1,.243Zm.646-4.3s-.409,1.019-.633,1.56c-.243.588-1.17.88-1.17.88a2.651,2.651,0,0,0,.481-1.78c0-.536.692-.749.692-.749l.631.088Zm-.413.581a2.14,2.14,0,0,1-2.393.438C9.5,15.162,9.34,13.167,9.34,12.609s2.952.558,3.351.8,1.156,1.2.758,1.875ZM7.573,4.625A3.3,3.3,0,0,1,9.966,5.1,4.371,4.371,0,0,1,11.2,6.46L9.589,7.74a2.078,2.078,0,0,1-1.019-1.4c-.239-1.037-.08-1.516-1-1.715ZM13.03,12.4a3.336,3.336,0,0,0-2.451-1.324,3.162,3.162,0,0,0-2.046.382s2.272.1,2.927.956c1.219,1.6,3,1.731,3.282,1.379a1.52,1.52,0,0,1-1.078-.513A5.951,5.951,0,0,1,13.03,12.4ZM9.2,15.5s-2.521-.867-2.042-1.744.1-1.356.1-1.356S5.843,13.455,6.2,14.572c.22.685.59,1.181,2.621,2.132.974,1.809.2,5.065.247,5.081.077.026,1.367-.638,1.279-3.684-.027-.935-.1-2.213-1.155-2.6Zm3.3-9.318c-1.057.537-2.5,1.285-2.5,1.285l.57.285c-.054.088-.081.141-.081.141l.585.266s1.428,1.034,2.3,1.7a14.823,14.823,0,0,0-1.148-2.309A1.534,1.534,0,0,1,12.5,6.186Zm3.511,21.886c-3.249,0-4.349-1.649-4.349-1.649l.508,1.236A5.688,5.688,0,0,0,16,29.859m-3.984-4.55s.3,1.827,1.5,1.827c1.017,0,1.317-1.543,1.317-1.862l-2.812.035Zm-1.992-2.755a13.088,13.088,0,0,0,.6-2.553,28.767,28.767,0,0,0,.091-3.176s-.319,1.237-.6,1.436a6.439,6.439,0,0,0-.8,1.556s-.278,2.019-.41,2.7c.366.073.674-.142,1.117.04Zm-2.89-8s.678-.24.878-1.715a6.658,6.658,0,0,0-.239-2.753,9.513,9.513,0,0,1-.2,2.433c-.239.4-.439.518-.718,1.037a.771.771,0,0,0,.279,1ZM18.784,19s1.356,2.074,2.352,3.546c.154.228-1,.243-1,.243Zm-.646-4.3s.409,1.019.633,1.56c.243.588,1.17.88,1.17.88a2.652,2.652,0,0,1-.48-1.78c0-.536-.692-.749-.692-.749l-.631.088Zm.413.581a2.141,2.141,0,0,0,2.394.438c1.556-.557,1.715-2.552,1.715-3.111s-2.952.558-3.351.8-1.157,1.2-.758,1.875ZM24.427,4.625a3.3,3.3,0,0,0-2.394.479A4.382,4.382,0,0,0,20.8,6.46l1.614,1.279a2.075,2.075,0,0,0,1.019-1.4c.239-1.037.08-1.516,1-1.715ZM18.97,12.4a3.336,3.336,0,0,1,2.451-1.324,3.164,3.164,0,0,1,2.045.382s-2.272.1-2.927.956c-1.219,1.6-3,1.731-3.281,1.379a1.52,1.52,0,0,0,1.078-.513A5.951,5.951,0,0,0,18.97,12.4Zm3.835,3.1s2.52-.867,2.042-1.744-.1-1.356-.1-1.356,1.408,1.051,1.049,2.168c-.22.685-.59,1.181-2.621,2.132-.974,1.809-.2,5.065-.247,5.081-.077.026-1.367-.638-1.279-3.684C21.677,17.165,21.752,15.888,22.805,15.5ZM19.5,6.186c1.057.537,2.5,1.285,2.5,1.285l-.57.285c.054.088.081.141.081.141l-.585.266s-1.428,1.034-2.3,1.7a14.823,14.823,0,0,1,1.148-2.309A1.535,1.535,0,0,0,19.5,6.186ZM15.991,28.073c3.248,0,4.349-1.649,4.349-1.649l-.507,1.236A5.684,5.684,0,0,1,16,29.859m3.984-4.55s-.3,1.827-1.5,1.827c-1.017,0-1.317-1.543-1.317-1.862Zm1.992-2.755a13.16,13.16,0,0,1-.6-2.553,28.524,28.524,0,0,1-.091-3.176s.319,1.237.6,1.436a6.385,6.385,0,0,1,.8,1.556s.278,2.019.41,2.7c-.366.073-.674-.142-1.117.04Zm2.89-8s-.678-.24-.878-1.715a6.658,6.658,0,0,1,.239-2.753,9.513,9.513,0,0,0,.2,2.433c.239.4.439.518.718,1.037a.773.773,0,0,1-.279.995ZM16,11.3a3.028,3.028,0,0,1-1.78-.4s.695,1.218,1.779,1.218h0c1.085,0,1.779-1.218,1.779-1.218A3.037,3.037,0,0,1,16,11.3Z" style="fill:#e78724"/><path d="M13.582,14.283a2.166,2.166,0,0,1-1.888.505c-1.144-.239-1.835-.745-1.888-1.622a1.8,1.8,0,0,1,.24-1.223,6.635,6.635,0,0,1,1.888.931c.612.532,1.064,1.383,1.649,1.409ZM11.8,23.817a1.991,1.991,0,0,1,0-.788,3.621,3.621,0,0,0-.953-.338c-.253-.16-1.55.164-2.491-.974C7.182,20.291,7.43,19.44,7.43,19.44c-.3.336-.6.208-1.056,1.774s.217,2.658,1.48,3.754a4.02,4.02,0,0,0,2.167.813c-.243-.244.415-.269.869-.438a1.217,1.217,0,0,1,.3-1.009,1.55,1.55,0,0,1,.6-.358l.034-.082C11.815,23.869,11.807,23.843,11.8,23.817Zm6.618-9.534a2.166,2.166,0,0,0,1.888.505c1.144-.239,1.835-.745,1.888-1.622a1.8,1.8,0,0,0-.239-1.223,6.635,6.635,0,0,0-1.888.931C19.456,13.4,19,14.257,18.418,14.283ZM20.2,23.817a1.991,1.991,0,0,0,0-.788,3.621,3.621,0,0,1,.953-.338c.253-.16,1.551.164,2.492-.974,1.179-1.426.93-2.277.93-2.277.3.336.6.208,1.056,1.774s-.217,2.658-1.48,3.754a4.012,4.012,0,0,1-2.167.813c.243-.244-.415-.269-.869-.438a1.217,1.217,0,0,0-.3-1.009,1.55,1.55,0,0,0-.6-.358l-.034-.082a.649.649,0,0,0,.019-.076Z" style="fill:#fff"/><path d="M12.681,14.017a2.041,2.041,0,0,1-1.368.055,1.532,1.532,0,0,1-1.008-1.3s-.58,1.7,1.046,2.029a2.381,2.381,0,0,0,2.075-.493l-.745-.293Zm-1.8,11.316c-.026-.077-.046-.155-.066-.234s-.125-.33,0-.052a1.038,1.038,0,0,1-.071-.219c-2.046,0-3.827-1.408-3.483-4.361-.268-.356-.643.717-.643.717S5.6,24.158,8.242,25.311a4.094,4.094,0,0,0,1.844.549.925.925,0,0,0,.858-.365c-.024-.054-.046-.108-.065-.163Zm8.439-11.316a2.041,2.041,0,0,0,1.368.055,1.532,1.532,0,0,0,1.008-1.3s.579,1.7-1.046,2.029a2.381,2.381,0,0,1-2.075-.493l.745-.293Zm1.8,11.316c.027-.077.046-.155.066-.234s.126-.33,0-.052a1.038,1.038,0,0,0,.071-.219c2.046,0,3.827-1.408,3.482-4.361.268-.356.643.717.643.717s1.024,2.975-1.621,4.127a4.094,4.094,0,0,1-1.844.549.923.923,0,0,1-.858-.365,1.728,1.728,0,0,0,.065-.163Z" style="fill:#c9c9c9"/><path d="M9.131,13.4v-.009l0,.009ZM8.85,12.354a.784.784,0,0,1,.356-.622c-.234-.087-.463-.187-.706-.253a4.743,4.743,0,0,1,4.544,1.737,1.574,1.574,0,0,0,1.942.479,1.183,1.183,0,0,1-.473.832,1.154,1.154,0,0,1-.689.211,2.98,2.98,0,0,1-.754,1.8,2.752,2.752,0,0,0,.146-1.381,4.489,4.489,0,0,0-.184-.451c-1.054.92-2.608.072-2.982-.342a3.4,3.4,0,0,1-.687-1.879,2.555,2.555,0,0,0-.231.9A1.727,1.727,0,0,1,8.85,12.354Zm1.553-.073a1.931,1.931,0,0,0,.379,1.91,1.869,1.869,0,0,0,2.068.077A8.666,8.666,0,0,0,10.4,12.281ZM14.244,24.89H12.635a.7.7,0,0,0-.518.157.378.378,0,0,0-.048.431,2.845,2.845,0,0,0,.75.992,1.007,1.007,0,0,0,.643.23h0a.809.809,0,0,0,.6-.244,3.965,3.965,0,0,0,.713-1.057.327.327,0,0,0-.048-.364A.668.668,0,0,0,14.244,24.89ZM22.869,13.4v-.009l0,.009Zm-5.854.294a1.576,1.576,0,0,0,1.941-.479A4.743,4.743,0,0,1,23.5,11.479c-.243.066-.472.166-.706.253a.783.783,0,0,1,.355.622,1.726,1.726,0,0,1-.281,1.038,2.542,2.542,0,0,0-.231-.9,3.382,3.382,0,0,1-.687,1.877c-.374.414-1.929,1.262-2.982.342a4.526,4.526,0,0,0-.183.451,2.749,2.749,0,0,0,.146,1.38,2.974,2.974,0,0,1-.754-1.8,1.15,1.15,0,0,1-.69-.211A1.185,1.185,0,0,1,17.015,13.7Zm2.135.573a1.869,1.869,0,0,0,2.069-.077,1.929,1.929,0,0,0,.379-1.91A8.653,8.653,0,0,0,19.15,14.268Zm.733,10.777a.7.7,0,0,0-.517-.157h-1.61a.667.667,0,0,0-.484.145.329.329,0,0,0-.049.364,3.981,3.981,0,0,0,.713,1.057h0a.809.809,0,0,0,.6.244,1.007,1.007,0,0,0,.643-.23,2.845,2.845,0,0,0,.75-.992A.378.378,0,0,0,19.883,25.045ZM16,12.265h0c.7-.008,1.494-.974,1.494-.974a2.688,2.688,0,0,1-2.987,0S15.3,12.258,16,12.265Zm8.6,7.086a3.979,3.979,0,0,1,1.129,3.874,3.708,3.708,0,0,1-2.594,2.992,4.558,4.558,0,0,1-3.65,2.706A5.237,5.237,0,0,1,16,30a5.24,5.24,0,0,1-3.489-1.078,4.557,4.557,0,0,1-3.647-2.706,3.7,3.7,0,0,1-2.593-2.991A3.979,3.979,0,0,1,7.4,19.351a3.86,3.86,0,0,0,1.335,2.368,30.193,30.193,0,0,0,.213-3.387,1.835,1.835,0,0,0-.666-1.426c-.14-.08-.294-.163-.452-.249-.984-.527-2.21-1.182-2.21-2.391a1.754,1.754,0,0,1,.845-1.521c.042-.032.082-.062.118-.091a.823.823,0,0,0,.236-.238,4.315,4.315,0,0,0,.091-2.057,2.843,2.843,0,0,1-.643-2.141,1.462,1.462,0,0,1,.772-.93A2.648,2.648,0,0,1,8.1,7.051a.807.807,0,0,1,.052-.331,1.459,1.459,0,0,0,.05-.441,1.618,1.618,0,0,0-.118-.615A2.778,2.778,0,0,0,6.5,4.7L5.83,4.57l.444-.52A3.737,3.737,0,0,1,8.8,3.092a4.268,4.268,0,0,1,1.317.214,6.385,6.385,0,0,1,2.7,2.167c.106-.034.214-.058.321-.088A2.894,2.894,0,0,1,14.68,2.717c.023.247-.023,1.212.391,1.508C15.192,3.437,15.6,2.569,17.21,2a2.7,2.7,0,0,0,.1,2.037c1.1-1,1.841-.833,1.841-.833a3.371,3.371,0,0,0-.467,2.13c.167.043.336.085.5.137a6.376,6.376,0,0,1,2.7-2.164A4.269,4.269,0,0,1,23.2,3.092a3.737,3.737,0,0,1,2.532.956l.444.52L25.5,4.7a2.777,2.777,0,0,0-1.589.965,1.618,1.618,0,0,0-.118.615,1.462,1.462,0,0,0,.05.441.793.793,0,0,1,.052.328,2.647,2.647,0,0,1,1.066.238,1.462,1.462,0,0,1,.772.93,2.843,2.843,0,0,1-.643,2.141,4.315,4.315,0,0,0,.091,2.057.827.827,0,0,0,.237.238c.036.029.075.059.118.091a1.755,1.755,0,0,1,.844,1.521c0,1.209-1.226,1.864-2.21,2.391-.162.087-.316.169-.455.25h0a1.835,1.835,0,0,0-.666,1.426,29.957,29.957,0,0,0,.212,3.387A3.86,3.86,0,0,0,24.6,19.351ZM20.153,5.836c.086.038.176.065.262.1a4.044,4.044,0,0,1,.4.207A2.63,2.63,0,0,1,21.93,4.923,2.8,2.8,0,0,1,24.012,4.5a2.917,2.917,0,0,1,.521-.311,3.54,3.54,0,0,0-1.35-.274,3.134,3.134,0,0,0-.966.15A4.868,4.868,0,0,0,20.153,5.836Zm2.576,1.31A1.434,1.434,0,0,0,23,6.21a2.106,2.106,0,0,1,.239-.974c.044-.065.109-.11.158-.171a1.794,1.794,0,0,0-1.1.378,2.761,2.761,0,0,0-.728,1.245,4.22,4.22,0,0,1,.557.614C22.327,7.247,22.525,7.183,22.729,7.146ZM9.873,7.3a4.111,4.111,0,0,1,.557-.613A2.752,2.752,0,0,0,9.7,5.442a1.8,1.8,0,0,0-1.1-.378c.05.061.115.107.159.172A2.119,2.119,0,0,1,9,6.21a1.43,1.43,0,0,0,.273.936C9.477,7.183,9.674,7.247,9.873,7.3Zm1.715-1.359c.084-.04.173-.067.258-.1A4.871,4.871,0,0,0,9.782,4.062a3.134,3.134,0,0,0-.966-.15,3.54,3.54,0,0,0-1.35.274,2.939,2.939,0,0,1,.52.31,2.8,2.8,0,0,1,2.083.426,2.626,2.626,0,0,1,1.113,1.23A4.084,4.084,0,0,1,11.588,5.944ZM9.723,18.089a36.478,36.478,0,0,1-.191,4.141,6.983,6.983,0,0,0,2.138.373,7.814,7.814,0,0,0,.336-.718L12,21.88c.036-.1,1.071-2.788,1.443-3.4a24.692,24.692,0,0,1-1.285,4.88,2.471,2.471,0,0,1,.649-.02H19.2a2.534,2.534,0,0,1,.64.018,24.739,24.739,0,0,1-1.284-4.878c.372.612,1.406,3.3,1.443,3.4l0,.005a7.814,7.814,0,0,0,.336.718,6.983,6.983,0,0,0,2.138-.373,36.248,36.248,0,0,1-.191-4.141,2.288,2.288,0,0,1,1.043-1.87c.149-.085.3-.169.46-.253.812-.439,1.653-.893,1.653-1.669a1.071,1.071,0,0,0-.486-1l-.027-.022a1.257,1.257,0,0,1-.1-.091c.04.269.078.539.129.807a5.063,5.063,0,0,1-.86-2.425,6.018,6.018,0,0,1,.279-2.354c0,.285.019.568.041.852.018-.06.026-.123.048-.182a2.119,2.119,0,0,0,.512-1.454A.667.667,0,0,0,24.6,8a1.818,1.818,0,0,0-.825-.159,6.481,6.481,0,0,0-1.8.326,13.417,13.417,0,0,0-3.5,2.063l-.023.018-.3.211.19-.318a6.978,6.978,0,0,1,2.922-2.518,2.839,2.839,0,0,0-1.2-.853A9.216,9.216,0,0,0,16,5.909a9.208,9.208,0,0,0-4.066.864,2.884,2.884,0,0,0-1.2.851,6.972,6.972,0,0,1,2.922,2.518l.19.318-.3-.211-.023-.018a13.417,13.417,0,0,0-3.5-2.063,6.481,6.481,0,0,0-1.8-.326A1.818,1.818,0,0,0,7.4,8a.666.666,0,0,0-.367.427,2.121,2.121,0,0,0,.511,1.454c.022.06.03.123.048.183.022-.284.045-.568.041-.853a6.018,6.018,0,0,1,.279,2.354,5.063,5.063,0,0,1-.86,2.425c.051-.268.089-.538.13-.808-.035.03-.064.065-.1.092l-.027.022a1.071,1.071,0,0,0-.486,1c0,.776.841,1.23,1.653,1.669.16.084.311.168.46.253A2.288,2.288,0,0,1,9.723,18.089ZM8.646,25.254h.7a3.479,3.479,0,0,0,.118.353,3.822,3.822,0,0,0,1.126.152,1.664,1.664,0,0,1,.142-1.614h-.022a7.625,7.625,0,0,0,.531-.766C9.753,23.31,7.789,22.772,7.2,20.9a3.972,3.972,0,0,0,.2,3.23A3.826,3.826,0,0,0,8.646,25.254Zm2.932,2.614a7.781,7.781,0,0,1-.656-1.241,9.912,9.912,0,0,1-1.016-.135A3.834,3.834,0,0,0,11.578,27.868ZM16,29.243A4.677,4.677,0,0,0,20.642,25.7l0,0a1.256,1.256,0,0,0-.047-1.261,1.72,1.72,0,0,0-1.348-.4h-6.5a1.723,1.723,0,0,0-1.347.4,1.256,1.256,0,0,0-.047,1.261A4.676,4.676,0,0,0,16,29.243ZM22.1,26.492a9.715,9.715,0,0,1-1.018.135,7.788,7.788,0,0,1-.66,1.244A3.838,3.838,0,0,0,22.1,26.492ZM24.8,20.9c-.592,1.87-2.553,2.411-4.037,2.482.138.215.278.429.436.63h0v0c.034.043.058.092.093.134H21.28a1.669,1.669,0,0,1,.134,1.614,3.827,3.827,0,0,0,1.126-.152c.041-.116.087-.23.117-.351h.693a3.834,3.834,0,0,0,1.25-1.128A3.972,3.972,0,0,0,24.8,20.9Z" style="fill:#463014"/></svg>