<svg xmlns="http://www.w3.org/2000/svg" viewBox="0 0 32 32"><title>file_type_lua</title><path d="M16.5,30l-.011-.321c.4-.014.8-.045,1.19-.094l.039.319C17.312,29.952,16.9,29.984,16.5,30Zm-1.222-.011c-.4-.021-.814-.061-1.216-.118l.045-.318c.393.055.793.094,1.188.115ZM18.92,29.7l-.067-.314c.387-.083.776-.184,1.155-.3l.094.307C19.714,29.511,19.316,29.615,18.92,29.7Zm-6.063-.053c-.4-.091-.791-.2-1.177-.326l.1-.306c.377.122.764.23,1.15.319Zm8.4-.665-.121-.3c.364-.148.728-.314,1.08-.493l.006,0,.145.286,0,0C22,28.661,21.626,28.831,21.253,28.982Zm-10.718-.088c-.374-.158-.745-.335-1.1-.524l.15-.284c.35.186.713.358,1.078.512Zm12.893-1.021-.17-.273c.337-.21.668-.437.984-.675l.193.257C24.111,27.425,23.772,27.658,23.428,27.873ZM8.379,27.751c-.341-.22-.676-.459-1-.708l.2-.253c.312.243.64.476.972.691Zm17-1.346-.215-.239c.294-.265.58-.546.851-.836l.235.219C25.972,25.846,25.679,26.134,25.378,26.4ZM6.454,26.252c-.3-.276-.585-.569-.856-.87l.239-.215c.265.294.547.58.836.85ZM27.041,24.62l-.253-.2c.244-.312.476-.639.692-.972l.27.175C27.529,23.966,27.29,24.3,27.041,24.62ZM4.82,24.439c-.244-.324-.476-.662-.692-1.007l.272-.17c.21.337.438.668.676.984Zm23.547-1.867-.284-.151c.186-.35.358-.713.513-1.078l.3.125C28.735,21.843,28.558,22.214,28.368,22.572Zm-24.841-.2-.006-.012c-.183-.359-.352-.728-.5-1.1l.3-.121c.147.362.312.724.491,1.074l.006.012ZM29.32,20.325l-.306-.1c.122-.377.23-.764.319-1.15l.313.072C29.555,19.543,29.446,19.939,29.32,20.325ZM2.608,20.107c-.12-.388-.223-.786-.308-1.182l.314-.067c.083.387.184.776.3,1.155ZM29.87,17.946l-.318-.045c.056-.393.094-.793.115-1.188l.321.017C29.967,17.135,29.927,17.544,29.87,17.946ZM2.1,17.72c-.05-.4-.082-.812-.1-1.218l.321-.011c.014.4.046.8.094,1.19Zm27.582-2.2c-.014-.4-.045-.8-.093-1.19l.319-.039c.049.4.082.813.1,1.218ZM2.331,15.3,2.01,15.28c.021-.405.061-.814.117-1.216l.318.045C2.39,14.5,2.352,14.9,2.331,15.3Zm27.057-2.144c-.083-.387-.184-.776-.3-1.155L29.4,11.9c.119.388.223.786.307,1.183ZM2.663,12.934l-.313-.072c.091-.4.2-.791.326-1.177l.306.1C2.859,12.161,2.752,12.548,2.663,12.934Zm26.026-2.062c-.149-.366-.315-.732-.5-1.086l.286-.146c.185.363.355.736.507,1.111ZM3.4,10.665l-.3-.125c.158-.374.334-.745.524-1.1l.284.15C3.724,9.937,3.552,10.3,3.4,10.665ZM4.513,8.557l-.27-.174c.22-.341.458-.676.707-1l.254.2C4.961,7.9,4.728,8.224,4.513,8.557ZM5.977,6.676l-.235-.219c.276-.3.569-.585.87-.857l.215.239C6.533,6.1,6.247,6.386,5.977,6.676Zm1.77-1.6-.193-.257c.323-.244.662-.477,1.007-.692l.17.272C8.394,4.614,8.063,4.841,7.747,5.079Zm15.705-.558-.018-.012.175-.27.018.011Zm-1.047-.616c-.35-.186-.713-.358-1.078-.512l.125-.3c.374.158.745.334,1.1.524ZM9.769,3.815l-.146-.286.018-.009c.356-.181.724-.349,1.093-.5l.121.3c-.361.147-.72.311-1.068.488Zm10.44-.838c-.377-.122-.764-.229-1.151-.317l.072-.313c.4.091.792.2,1.178.325Zm-8.229-.06-.094-.307c.388-.119.786-.223,1.182-.308l.067.314C12.747,2.7,12.359,2.8,11.98,2.917Zm5.9-.473c-.393-.055-.793-.092-1.188-.113l.016-.321c.405.021.814.059,1.216.115Zm-3.572-.026-.04-.319c.4-.05.812-.083,1.218-.1l.012.321C15.106,2.337,14.705,2.369,14.312,2.418Z" style="fill:gray"/><circle cx="16" cy="15.998" r="10.708" style="fill:navy"/><circle cx="20.435" cy="11.562" r="3.136" style="fill:#fff"/><circle cx="26.708" cy="5.29" r="3.137" style="fill:navy"/><path d="M13.1,21.352v-.79H9.629V14.326h-.9v7.026H13.1" style="fill:#fff"/><path d="M17.916,21.352V16.3h-.8v2.785c0,1.031-.54,1.706-1.378,1.706A.95.95,0,0,1,14.7,19.8V16.3h-.8v3.817c0,.838.626,1.378,1.609,1.378a1.863,1.863,0,0,0,1.687-.925v.781h.723" style="fill:#fff"/><path d="M23.791,21.333v-.607a.664.664,0,0,1-.173.019c-.279,0-.434-.145-.434-.4V17.536c0-.9-.655-1.378-1.9-1.378-1.224,0-1.976.472-2.024,1.638h.81c.067-.617.434-.9,1.185-.9.723,0,1.128.27,1.128.752v.212c0,.337-.2.482-.838.559a5.763,5.763,0,0,0-1.619.308,1.327,1.327,0,0,0-.887,1.311c0,.916.636,1.455,1.658,1.455a2.363,2.363,0,0,0,1.715-.742.855.855,0,0,0,.829.665,1.967,1.967,0,0,0,.549-.087m-1.407-1.725a1.366,1.366,0,0,1-1.513,1.185c-.626,0-.993-.222-.993-.771,0-.53.357-.761,1.214-.887a4,4,0,0,0,1.291-.279v.752" style="fill:#fff"/></svg>