<svg xmlns="http://www.w3.org/2000/svg" viewBox="0 0 32 32"><title>file_type_actionscript</title><path d="M2,15.281c1.918,0,2.11-1.055,2.11-1.918a17.119,17.119,0,0,0-.192-2.205,18.723,18.723,0,0,1-.192-2.205c0-2.4,1.63-3.452,3.836-3.452h.575V6.938H7.658c-1.534,0-2.11.767-2.11,2.205a14.412,14.412,0,0,0,.192,1.918,14.306,14.306,0,0,1,.192,2.014c0,1.726-.671,2.493-1.918,2.877v.1c1.151.288,1.918,1.151,1.918,2.877a14.306,14.306,0,0,1-.192,2.014,13,13,0,0,0-.192,1.918c0,1.438.575,2.3,2.11,2.3h.479V26.6H7.562c-2.205,0-3.836-.959-3.836-3.644a18.723,18.723,0,0,1,.192-2.205,15.68,15.68,0,0,0,.192-2.11c0-.863-.288-1.918-2.11-1.918Z" style="fill:#c41718"/><path d="M9.479,18.062,8.233,21.8H6.6L10.63,9.911h1.822L16.479,21.8H14.945L13.7,18.062Zm3.932-1.151L12.26,13.459a9.364,9.364,0,0,1-.575-2.205h0c-.192.671-.384,1.438-.575,2.11L9.959,16.815h3.452Z" style="fill:#c41718"/><path d="M17.918,19.979a5.941,5.941,0,0,0,2.781.767c1.534,0,2.493-.863,2.493-2.014s-.671-1.726-2.205-2.4c-1.918-.671-3.164-1.726-3.164-3.356,0-1.822,1.534-3.26,3.836-3.26a5.135,5.135,0,0,1,2.589.575l-.384,1.247a5.519,5.519,0,0,0-2.3-.479c-1.63,0-2.205.959-2.205,1.822,0,1.151.767,1.63,2.4,2.3,2.014.767,3.068,1.726,3.068,3.452,0,1.822-1.342,3.452-4.123,3.452a5.807,5.807,0,0,1-3.068-.767Z" style="fill:#c41718"/><path d="M30,16.623c-1.918,0-2.11,1.151-2.11,1.918a15.68,15.68,0,0,0,.192,2.11,15.738,15.738,0,0,1,.192,2.205c0,2.685-1.63,3.644-3.836,3.644h-.575V25.062h.479c1.438,0,2.11-.863,2.11-2.3a13,13,0,0,0-.192-1.918,14.306,14.306,0,0,1-.192-2.014c0-1.726.767-2.589,1.918-2.877v-.1c-1.151-.288-1.918-1.151-1.918-2.877a14.306,14.306,0,0,1,.192-2.014,13,13,0,0,0,.192-1.918c0-1.438-.575-2.205-2.11-2.3h-.479V5.4h.575c2.205,0,3.836,1.055,3.836,3.452a17.119,17.119,0,0,1-.192,2.205,17.119,17.119,0,0,0-.192,2.205c0,.959.288,1.918,2.11,1.918Z" style="fill:#c41718"/></svg>