<svg xmlns="http://www.w3.org/2000/svg" xmlns:xlink="http://www.w3.org/1999/xlink" viewBox="0 0 32 32"><defs><linearGradient id="a" x1="-231.477" y1="266.014" x2="-231.5" y2="265.909" gradientTransform="matrix(161.096, 0, 0, -241.217, 37302.352, 64171.913)" gradientUnits="userSpaceOnUse"><stop offset="0" stop-color="#114a8b"/><stop offset="1" stop-color="#0669bc"/></linearGradient><linearGradient id="b" x1="-231.889" y1="265.964" x2="-231.896" y2="265.962" gradientTransform="matrix(224.69, 0, 0, -241.214, 52119.718, 64171.207)" gradientUnits="userSpaceOnUse"><stop offset="0" stop-opacity="0.3"/><stop offset="0.071" stop-opacity="0.2"/><stop offset="0.321" stop-opacity="0.1"/><stop offset="0.623" stop-opacity="0.05"/><stop offset="1" stop-opacity="0"/></linearGradient><linearGradient id="c" x1="-232.026" y1="266.018" x2="-231.998" y2="265.914" gradientTransform="matrix(169.755, 0, 0, -241.217, 39406.126, 64171.912)" gradientUnits="userSpaceOnUse"><stop offset="0" stop-color="#3ccbf4"/><stop offset="1" stop-color="#2892df"/></linearGradient></defs><title>file_type_azure</title><path d="M11.343,2.834h8.27L11.028,28.269a1.319,1.319,0,0,1-1.249.9H3.343A1.316,1.316,0,0,1,2.1,27.429l8-23.7a1.319,1.319,0,0,1,1.249-.9Z" style="fill:url(#a)"/><path d="M23.36,19.894H10.247a.607.607,0,0,0-.414,1.051l8.427,7.865a1.325,1.325,0,0,0,.9.356h7.426Z" style="fill:#0078d4"/><path d="M11.343,2.834a1.308,1.308,0,0,0-1.252.914L2.106,27.407a1.315,1.315,0,0,0,1.241,1.759h6.6a1.411,1.411,0,0,0,1.083-.921l1.592-4.693,5.688,5.306a1.346,1.346,0,0,0,.847.309h7.4l-3.245-9.272-9.459,0L19.643,2.834Z" style="fill:url(#b)"/><path d="M21.906,3.729a1.317,1.317,0,0,0-1.248-.9H11.442a1.317,1.317,0,0,1,1.248.9l8,23.7a1.317,1.317,0,0,1-1.248,1.738h9.217A1.317,1.317,0,0,0,29.9,27.429Z" style="fill:url(#c)"/></svg>