<svg xmlns="http://www.w3.org/2000/svg" viewBox="0 0 32 32"><title>file_type_mocha</title><path d="M27.573,23.545,16.751,29.8a1.493,1.493,0,0,1-1.5,0L4.427,23.545a1.5,1.5,0,0,1-.751-1.293V9.748a1.484,1.484,0,0,1,.751-1.293L15.249,2.2a1.493,1.493,0,0,1,1.5,0L27.573,8.455a1.5,1.5,0,0,1,.751,1.293v12.5a1.57,1.57,0,0,1-.751,1.293Z" style="fill:#8d6748"/><path d="M22.772,12.994a.653.653,0,0,0-.651-.651H9.879a.653.653,0,0,0-.651.651c0,2.214.326,9.833,3.581,13.544a.591.591,0,0,0,.456.2h5.47a.591.591,0,0,0,.456-.2C22.447,22.891,22.772,15.273,22.772,12.994ZM17.953,24.845H14.112a.591.591,0,0,1-.456-.2c-2.214-2.6-2.474-7.814-2.54-9.637a.653.653,0,0,1,.651-.651h8.6a.653.653,0,0,1,.651.651c0,1.823-.326,6.967-2.54,9.637A.866.866,0,0,1,17.953,24.845Z" style="fill:#fff"/><path d="M17.237,11.04A2.716,2.716,0,0,0,18.149,7.2c-.847-1.3-1.237-2.409-.912-2.865-.847,1.042-2.279,2.149-.716,4.493A3.673,3.673,0,0,1,17.237,11.04Z" style="fill:#fff"/><path d="M14.633,11.236a1.831,1.831,0,0,0,.586-2.6c-.586-.847-.847-1.628-.586-1.888-.586.716-1.5,1.433-.456,3.06A2.632,2.632,0,0,1,14.633,11.236Z" style="fill:#fff"/><path d="M19.972,18.789a10.453,10.453,0,0,1-1.888,5.079.563.563,0,0,1-.391.2H14.437a.464.464,0,0,1-.391-.2,9.335,9.335,0,0,1-1.628-3.647s3.777.521,5.926-.26C19.907,19.375,19.972,18.789,19.972,18.789Z" style="fill:#fff"/></svg>