<svg xmlns="http://www.w3.org/2000/svg" viewBox="0 0 32 32"><title>file_type_verilog</title><path d="M29.007,17.4h.037a1.449,1.449,0,0,0,.938-.316,1.473,1.473,0,0,0,.519-1.031V15.9a1.413,1.413,0,0,0-1.376-1.3h-.009c-.687,0-1.374,0-2.062,0H25.5V11.956l3.513,0h.034A1.411,1.411,0,0,0,30.5,10.6l0-.09,0-.032a1.412,1.412,0,0,0-.646-1.1,1.455,1.455,0,0,0-.835-.225H25.456a2.96,2.96,0,0,0-.278-1.034,2.909,2.909,0,0,0-1.7-1.461,2.684,2.684,0,0,0-.629-.13V4.947c0-.69,0-1.38,0-2.063A1.414,1.414,0,0,0,21.481,1.5h-.116a1.4,1.4,0,0,0-1.319,1.388q0,1.154,0,2.306V6.5H17.4V4.981c0-.7,0-1.4,0-2.087A1.41,1.41,0,0,0,16.053,1.5H15.9a1.408,1.408,0,0,0-1.3,1.383c0,.688,0,1.376,0,2.064V6.508q-1.319,0-2.639,0V4.888c0-.666,0-1.332,0-1.989a1.366,1.366,0,0,0-.4-.975,1.4,1.4,0,0,0-.984-.424H10.5A1.41,1.41,0,0,0,9.159,2.881c0,.683,0,1.366,0,2.049v1.6a2.933,2.933,0,0,0-2.466,1.9,2.878,2.878,0,0,0-.161.726H4.957c-.693,0-1.386,0-2.073,0H2.876A1.413,1.413,0,0,0,1.5,10.5v.095a1.417,1.417,0,0,0,.575,1.091,1.463,1.463,0,0,0,.887.273h.017l3.522,0V14.6H4.948c-.686,0-1.375,0-2.057,0A1.428,1.428,0,0,0,1.5,15.913V16.1a1.4,1.4,0,0,0,1.386,1.3c.711,0,1.423,0,2.135,0H6.5V20.05l-.292,0c-.613-.007-1.226,0-1.838,0H3.087a1.633,1.633,0,0,0-.918.211A1.437,1.437,0,0,0,1.5,21.4V21.5a1.417,1.417,0,0,0,1.375,1.337h.005q.645,0,1.29,0H6.546a2.832,2.832,0,0,0,1.978,2.5,2.712,2.712,0,0,0,.631.128v1.62c0,.678,0,1.354,0,2.025a1.4,1.4,0,1,0,2.8-.092l0-3.527H14.6v3.516A1.414,1.414,0,0,0,15.947,30.5H16.1a1.411,1.411,0,0,0,1.3-1.385q.006-1.066,0-2.131V25.5h2.644V29.1A1.423,1.423,0,0,0,21.4,30.5h.119a1.408,1.408,0,0,0,1.16-.741,1.643,1.643,0,0,0,.167-.833V25.474a2.671,2.671,0,0,0,.62-.128,2.928,2.928,0,0,0,1.886-1.888,2.834,2.834,0,0,0,.123-.613h1.581c.687,0,1.375,0,2.057,0h.008A1.422,1.422,0,0,0,30.5,21.481v-.118a1.409,1.409,0,0,0-1.382-1.318h0c-.718,0-1.436,0-2.154,0H25.5V17.4Z" style="fill:#c5c5c5;opacity:0.3"/><path d="M10.515,2h.056a.91.91,0,0,1,.886.893c.006,1.108,0,2.216,0,3.324-.6,0-1.2,0-1.8,0,0-1.111,0-2.222,0-3.333A.907.907,0,0,1,10.515,2Z" style="fill:#1a348f"/><path d="M15.937,2h.116a.912.912,0,0,1,.846.889c.006,1.109,0,2.219,0,3.329H15.1c0-1.11,0-2.22,0-3.33A.911.911,0,0,1,15.937,2Z" style="fill:#1a348f"/><path d="M21.392,2h.089a.907.907,0,0,1,.859.881c.007,1.112,0,2.225,0,3.337h-1.8c0-1.109,0-2.217,0-3.326A.912.912,0,0,1,21.392,2Z" style="fill:#1a348f"/><path d="M2,10.518a.908.908,0,0,1,.882-.859c1.112-.007,2.223,0,3.334,0q0,.9,0,1.8c-1.079,0-2.158,0-3.237,0a.983.983,0,0,1-.6-.173A.924.924,0,0,1,2,10.571Z" style="fill:#1a348f"/><path d="M25.786,9.655h3.233a1,1,0,0,1,.561.143.924.924,0,0,1,.42.716v.058a.933.933,0,0,1-.3.651.957.957,0,0,1-.677.234c-1.079,0-2.158,0-3.237,0Q25.786,10.556,25.786,9.655Z" style="fill:#1a348f"/><path d="M2,15.944a.913.913,0,0,1,.888-.842c1.109-.007,2.219,0,3.328,0q0,.9,0,1.8c-1.109,0-2.217,0-3.326,0A.915.915,0,0,1,2,16.063Z" style="fill:#1a348f"/><path d="M25.786,15.1c1.109,0,2.218,0,3.326,0a.914.914,0,0,1,.889.835v.117a.946.946,0,0,1-.331.641.973.973,0,0,1-.651.207H25.786Q25.785,16,25.786,15.1Z" style="fill:#1a348f"/><path d="M2.433,20.678a1.121,1.121,0,0,1,.643-.136c1.043.006,2.086-.006,3.129.006.028.6,0,1.2.012,1.8-1.11,0-2.221,0-3.331,0A.911.911,0,0,1,2,21.483V21.4A.925.925,0,0,1,2.433,20.678Z" style="fill:#1a348f"/><path d="M25.786,20.543c1.108,0,2.216,0,3.324,0a.914.914,0,0,1,.89.847v.09a.911.911,0,0,1-.888.859c-1.109.007-2.218,0-3.326,0C25.786,21.743,25.785,21.143,25.786,20.543Z" style="fill:#1a348f"/><path d="M9.656,25.781h1.8c0,1.081,0,2.162,0,3.243a.957.957,0,0,1-.235.677.931.931,0,0,1-.653.3h-.052a.907.907,0,0,1-.86-.882C9.651,28.006,9.658,26.894,9.656,25.781Z" style="fill:#1a348f"/><path d="M15.1,25.781h1.8c0,1.11,0,2.22,0,3.33a.914.914,0,0,1-.836.889h-.116a.94.94,0,0,1-.619-.306.962.962,0,0,1-.228-.673Q15.1,27.4,15.1,25.781Z" style="fill:#1a348f"/><path d="M20.547,29.106c0-1.108,0-2.217,0-3.325h1.8c0,1.048,0,2.1,0,3.144a1.178,1.178,0,0,1-.105.59.92.92,0,0,1-.756.484H21.4A.911.911,0,0,1,20.547,29.106Z" style="fill:#1a348f"/><path d="M24.732,8.349A2.429,2.429,0,0,0,23.31,7.131,3.245,3.245,0,0,0,22.254,7c-4.3.008-8.6-.011-12.905.01A2.436,2.436,0,0,0,7.157,8.606,3.611,3.611,0,0,0,7,9.934q0,6.25,0,12.5a2.673,2.673,0,0,0,.268,1.219A2.431,2.431,0,0,0,8.688,24.87,3.756,3.756,0,0,0,9.927,25H22.07a3.762,3.762,0,0,0,1.243-.127A2.429,2.429,0,0,0,24.875,23.3,3.8,3.8,0,0,0,25,22.071q0-6.25,0-12.5A2.686,2.686,0,0,0,24.732,8.349Z" style="fill:#1a348f"/><path d="M7.5,8.307l.084-.2q.968,0,1.935.024h.394q.179,0,.394-.012.776-.036,2.807-.036.406,0,.788.006t.741.018a.234.234,0,0,1,.108.108l-.024.191q-.072.119-.358.119h-.1a10.3,10.3,0,0,0-1.1.054,2.179,2.179,0,0,0-1,.245.432.432,0,0,0-.155.346,4.05,4.05,0,0,0,.394,1.4l1.818,4.217.634,1.4q.921,2.222,1.819,4.539.1.251.179.454l.8-1.959q.62-1.481,1.252-3.154l.823-2.246q.024-.072.131-.478a17.026,17.026,0,0,0,1.157-4,.561.561,0,0,0-.161-.364,1.165,1.165,0,0,0-.52-.3,7.723,7.723,0,0,0-.932-.143l-.884-.108a.337.337,0,0,1-.108-.2l.036-.1,3.87-.036H23.6a3.1,3.1,0,0,1,.885.084l.012.1a.641.641,0,0,1-.072.251,2.449,2.449,0,0,1-.526.119,3.6,3.6,0,0,0-1.244.281,1.815,1.815,0,0,0-.5.687l-3.134,7.765q-1.466,3.5-2.086,5.423l-.345,1.039a.531.531,0,0,1-.263.1,1.383,1.383,0,0,1-.3-.036q-1.422-3.676-2.318-5.681L10.055,9.92a3.247,3.247,0,0,0-.591-.89,5.463,5.463,0,0,0-1.379-.424,4.347,4.347,0,0,1-.466-.119A.326.326,0,0,1,7.5,8.307Z" style="fill:#c5c2ff"/></svg>