<svg xmlns="http://www.w3.org/2000/svg" viewBox="0 0 32 32"><title>file_type_source</title><path d="M14.194,27a1.2,1.2,0,0,1-.276-.033,1.388,1.388,0,0,1-.968-1.618L16.562,6.105a1.383,1.383,0,0,1,.592-.91,1.192,1.192,0,0,1,.928-.163,1.39,1.39,0,0,1,.969,1.617L15.436,25.9a1.378,1.378,0,0,1-.59.908A1.2,1.2,0,0,1,14.194,27Z" style="fill:#06cc14"/><path d="M21.437,24.273l-.091,0a1.242,1.242,0,0,1-.891-.5,1.461,1.461,0,0,1,.136-1.893L26.8,15.807l-6.185-5.652a1.462,1.462,0,0,1-.187-1.888,1.25,1.25,0,0,1,.881-.533,1.2,1.2,0,0,1,.945.316l7.294,6.668a1.463,1.463,0,0,1,.191,1.889,1.415,1.415,0,0,1-.189.218l-7.265,7.1A1.222,1.222,0,0,1,21.437,24.273Z" style="fill:#06cc14"/><path d="M10.563,24.277a1.219,1.219,0,0,1-.852-.355l-7.271-7.1a1.2,1.2,0,0,1-.182-.21,1.459,1.459,0,0,1,.188-1.886l7.3-6.67a1.175,1.175,0,0,1,.938-.317,1.254,1.254,0,0,1,.887.53,1.462,1.462,0,0,1-.187,1.89L5.2,15.809l6.212,6.069a1.457,1.457,0,0,1,.133,1.893,1.235,1.235,0,0,1-.893.5C10.622,24.275,10.593,24.277,10.563,24.277Z" style="fill:#06cc14"/></svg>