<svg xmlns="http://www.w3.org/2000/svg" viewBox="0 0 32 32"><title>file_type_lime</title><path d="M6.687,10.259Q11.114,7.8,15.54,5.348c-.029,3.372-.008,6.745-.025,10.117C12.5,13.785,9.507,12.072,6.489,10.4A2.12,2.12,0,0,1,6.687,10.259Z" style="fill:#919c47"/><path d="M16.286,5.735c2.979,1.633,5.941,3.3,8.922,4.928a3.172,3.172,0,0,1-.322.2c-2.877,1.551-5.731,3.147-8.617,4.68C16.278,12.275,16.277,9,16.286,5.735Z" style="fill:#919c47"/><path d="M6.218,11.1c2.936,1.647,5.864,3.309,8.806,4.947a2.1,2.1,0,0,1-.258.216q-3.714,2.12-7.426,4.246c-.381.223-.776.424-1.136.683C6.231,17.831,6.2,14.466,6.218,11.1Z" style="fill:#919c47"/><path d="M16.811,16.129q4.485-2.455,8.979-4.894c0,3.189.006,6.378,0,9.568C22.809,19.219,19.8,17.689,16.811,16.129Z" style="fill:#919c47"/><path d="M6.894,21.645c2.868-1.689,5.766-3.326,8.641-5-.006,3.343,0,6.687,0,10.031Q11.21,24.163,6.894,21.645Z" style="fill:#919c47"/><path d="M16.287,16.652Q20.757,19,25.248,21.3c-2.978,1.817-5.976,3.6-8.956,5.418C16.277,23.365,16.288,20.009,16.287,16.652Z" style="fill:#919c47"/><path d="M8.42,7.568C11.212,5.7,14.029,3.863,16.827,2c0,.709,0,1.428-.051,2.129C17.807,4.8,18.9,5.39,19.954,6.022,22.3,7.417,24.666,8.766,27,10.18c.144,1.844.04,3.7.162,5.544.037,1.22.006,2.441.1,3.659-.011.683.044,1.369.006,2.052-.739.613-1.571,1.116-2.341,1.694Q20.058,26.57,15.183,30a13.531,13.531,0,0,1-.125-1.846c-1.479-.917-2.991-1.781-4.489-2.666-1.939-1.175-3.912-2.291-5.84-3.482-.033-1.408.058-2.816.056-4.224q.045-2.493.054-4.987c.067-.967.043-1.937.076-2.9Q6.651,8.7,8.42,7.568m-.595,1.1q-1.193.8-2.458,1.495c.03,3.834.073,7.669.09,11.5,3.345,1.989,6.723,3.924,10.076,5.9,0,.44-.007.882,0,1.322,3.665-2.511,7.347-5,11.011-7.508.013-3.612.064-7.224.087-10.836a5.727,5.727,0,0,1-.873-.452c-3.159-1.831-6.307-3.681-9.47-5.5-.018-.494,0-.99-.013-1.484Q12.058,5.9,7.826,8.672Z" style="fill:#88ac29"/><path d="M7.826,8.672q4.227-2.784,8.454-5.565c.015.494,0,.99.013,1.484,3.163,1.824,6.31,3.674,9.47,5.5a5.727,5.727,0,0,0,.873.452c-.023,3.612-.073,7.224-.087,10.836-3.665,2.511-7.347,5-11.011,7.508-.011-.44-.006-.882,0-1.322-3.353-1.975-6.731-3.91-10.076-5.9-.017-3.835-.06-7.67-.09-11.5q1.263-.689,2.458-1.495M6.687,10.259a2.12,2.12,0,0,0-.2.144c3.018,1.67,6.013,3.382,9.026,5.062.228.153.5.327.754.124v-.044c2.886-1.533,5.74-3.129,8.617-4.68a3.172,3.172,0,0,0,.322-.2c-2.981-1.632-5.943-3.295-8.922-4.928a5.334,5.334,0,0,0-.745-.388q-4.424,2.461-8.853,4.911m-.469.844c-.013,3.364.013,6.728-.013,10.092a2.832,2.832,0,0,0,.689.45q4.31,2.527,8.637,5.028c.006-3.344,0-6.688,0-10.031.1-.356-.282-.444-.51-.592-2.942-1.638-5.87-3.3-8.806-4.947m10.593,5.027a5.326,5.326,0,0,0-.506.269c0,.063-.013.19-.018.253,0,3.357-.009,6.713.006,10.069,2.98-1.816,5.978-3.6,8.956-5.418.183-.155.59-.2.538-.5.009-3.19,0-6.379,0-9.568Q21.291,13.664,16.811,16.129Z" style="fill:#fffffd"/><path d="M15.54,5.348a5.334,5.334,0,0,1,.745.388c-.008,3.27-.008,6.54-.017,9.81v.044c-.258.2-.526.029-.754-.124C15.533,12.093,15.511,8.72,15.54,5.348Z" style="fill:#c8cea3"/><path d="M15.024,16.049c.228.148.613.236.51.592-2.874,1.677-5.773,3.314-8.641,5a2.832,2.832,0,0,1-.689-.45c.36-.259.755-.46,1.136-.683q3.713-2.122,7.426-4.246A2.1,2.1,0,0,0,15.024,16.049Z" style="fill:#c8cea3"/><path d="M16.3,16.4a5.326,5.326,0,0,1,.506-.269c2.991,1.559,6,3.09,8.976,4.674.052.3-.356.344-.538.5q-4.492-2.3-8.962-4.651C16.291,16.589,16.3,16.462,16.3,16.4Z" style="fill:#c8cea3"/></svg>