<svg xmlns="http://www.w3.org/2000/svg" viewBox="0 0 32 32"><title>file_type_scilab</title><path d="M16.087,9.207a.656.656,0,1,1-.08,1.194A.661.661,0,0,1,16.087,9.207Z" style="fill:#c91121"/><path d="M12.67,10.29a.708.708,0,0,1,1.014.427.7.7,0,1,1-1.014-.427Z" style="fill:#c91121"/><path d="M19.179,10.523a.65.65,0,1,1-.227,1.119A.652.652,0,0,1,19.179,10.523Z" style="fill:#cd1925"/><path d="M16.007,11.313a.682.682,0,0,1,.991.556.689.689,0,0,1-1.073.63A.7.7,0,0,1,16.007,11.313Z" style="fill:#cd1925"/><path d="M9.364,11.688a.739.739,0,1,1-.216,1.218A.74.74,0,0,1,9.364,11.688Z" style="fill:#c91121"/><path d="M21.6,12.154a.658.658,0,0,1,1.025.469.649.649,0,0,1-.92.652A.658.658,0,0,1,21.6,12.154Z" style="fill:#e0403c"/><path d="M13.065,12.314a.712.712,0,0,1,.944.693.727.727,0,1,1-.944-.693Z" style="fill:#cd1925"/><path d="M18.779,12.652a.7.7,0,0,1,1.034.616.687.687,0,1,1-1.034-.616Z" style="fill:#e0403c"/><path d="M15.9,13.482A.714.714,0,1,1,16,14.7.719.719,0,0,1,15.9,13.482Z" style="fill:#e0403c"/><path d="M5.914,13.6a.79.79,0,1,1-.008,1.4A.8.8,0,0,1,5.914,13.6Z" style="fill:#c91121"/><path d="M10,13.7a.769.769,0,1,1-.091,1.39A.769.769,0,0,1,10,13.7Z" style="fill:#cd1925"/><path d="M23.986,13.795a.659.659,0,0,1,.861.849.65.65,0,0,1-1.131.134A.665.665,0,0,1,23.986,13.795Z" style="fill:#ec7480"/><path d="M21.207,14.181a.689.689,0,0,1,1,.6.679.679,0,0,1-1.067.543A.691.691,0,0,1,21.207,14.181Z" style="fill:#ec7480"/><path d="M13.189,14.491a.741.741,0,1,1,.071,1.325A.743.743,0,0,1,13.189,14.491Z" style="fill:#e0403c"/><path d="M18.676,14.723a.7.7,0,1,1-.389,1.031A.717.717,0,0,1,18.676,14.723Z" style="fill:#ec7480"/><path d="M7.029,15.46a.8.8,0,1,1-.109,1.478A.812.812,0,0,1,7.029,15.46Z" style="fill:#cd1925"/><path d="M15.9,15.65a.719.719,0,1,1,.184,1.263A.72.72,0,0,1,15.9,15.65Z" style="fill:#ec7480"/><path d="M25.943,15.639a.656.656,0,1,1-.047,1.182A.658.658,0,0,1,25.943,15.639Z" style="fill:#f6b3c3"/><path d="M10.485,15.829a.786.786,0,0,1,1.135.5.772.772,0,1,1-1.135-.5Z" style="fill:#e0403c"/><path d="M23.361,15.84a.668.668,0,1,1-.107,1.19A.674.674,0,0,1,23.361,15.84Z" style="fill:#f6b3c3"/><path d="M2.465,16.14a.832.832,0,1,1-.2,1.362A.834.834,0,0,1,2.465,16.14Z" style="fill:#c91121"/><path d="M20.841,16.271a.681.681,0,1,1-.289,1.056A.691.691,0,0,1,20.841,16.271Z" style="fill:#f6b3c3"/><path d="M13.673,16.588a.742.742,0,1,1-.31,1.3A.743.743,0,0,1,13.673,16.588Z" style="fill:#ec7480"/><path d="M18.278,16.984a.711.711,0,0,1,1.068.488.7.7,0,1,1-1.068-.488Z" style="fill:#f6b3c3"/><path d="M7.823,17.52a.805.805,0,1,1,.118,1.42A.807.807,0,0,1,7.823,17.52Z" style="fill:#e0403c"/><path d="M25.291,17.616a.654.654,0,1,1-.438,1.022A.657.657,0,0,1,25.291,17.616Z" style="fill:#fae9f1"/><path d="M27.563,17.625a.659.659,0,0,1,.981.492.655.655,0,1,1-.981-.492Z" style="fill:#fae9f1"/><path d="M4.11,17.742a.837.837,0,0,1,1.057.884.84.84,0,1,1-1.057-.884Z" style="fill:#cd1925"/><path d="M16,17.812a.715.715,0,1,1-.028,1.268A.721.721,0,0,1,16,17.812Z" style="fill:#f6b3c3"/><path d="M11.149,17.936a.777.777,0,0,1,1.07.687.768.768,0,1,1-1.07-.687Z" style="fill:#ec7480"/><path d="M22.61,18.007a.666.666,0,1,1-.032,1.106A.669.669,0,0,1,22.61,18.007Z" style="fill:#fae9f1"/><path d="M20.3,18.5a.682.682,0,0,1,1.006.517A.674.674,0,1,1,20.3,18.5Z" style="fill:#fae9f1"/><path d="M13.787,18.887a.727.727,0,1,1-.191,1.176A.733.733,0,0,1,13.787,18.887Z" style="fill:#f6b3c3"/><path d="M18.162,19.188a.681.681,0,1,1-.21,1.142A.682.682,0,0,1,18.162,19.188Z" style="fill:#fae9f1"/><path d="M26.806,19.526a.653.653,0,1,1-.432,1.024A.655.655,0,0,1,26.806,19.526Z" style="fill:#f1f1f1"/><path d="M29,19.687a.652.652,0,1,1,.05,1.136A.659.659,0,0,1,29,19.687Z" style="fill:#f1f1f1"/><path d="M24.159,19.829a.647.647,0,1,1,.314,1.15A.645.645,0,0,1,24.159,19.829Z" style="fill:#f1f1f1"/><path d="M15.967,20.163a.684.684,0,1,1-.114,1.1A.69.69,0,0,1,15.967,20.163Z" style="fill:#fae9f1"/><path d="M21.964,20.178a.662.662,0,0,1,1,.483.655.655,0,1,1-1-.483Z" style="fill:#f1f1f1"/><path d="M19.961,20.739a.653.653,0,1,1-.147,1.161A.65.65,0,0,1,19.961,20.739Z" style="fill:#f1f1f1"/><path d="M17.877,21.582a.658.658,0,1,1-.057,1.149A.663.663,0,0,1,17.877,21.582Z" style="fill:#f1f1f1"/></svg>