<svg xmlns="http://www.w3.org/2000/svg" viewBox="0 0 32 32"><title>file_type_nim</title><path d="M16.111,6.405s-1.073.847-2.167,1.69a15.361,15.361,0,0,0-4.527.651c-1.1-.7-2.07-1.469-2.07-1.469S6.52,8.7,6,9.535a11.382,11.382,0,0,0-2.236,1.482C2.961,10.7,2.03,10.31,2,10.3c1.063,2.145,1.778,4.292,3.722,5.583,3.1-4.889,17.48-4.439,20.639-.028C28.4,14.787,29.2,12.5,30,10.38c-.088.029-1.181.395-1.889.665a11.489,11.489,0,0,0-1.986-1.51c-.537-.984-1.319-2.313-1.319-2.313s-.927.689-2,1.44a21.265,21.265,0,0,0-4.681-.512c-1-.826-2.014-1.746-2.014-1.746Z" style="fill:#f3d400"/><path d="M3.1,14.854l2.554,6.185c4.435,5.85,15.759,6.257,20.7.113,1.168-2.633,2.745-6.333,2.745-6.333a13.379,13.379,0,0,1-4.6,3.869,12.217,12.217,0,0,1-2.983.793l-5.465-2.832-5.5,2.775a15.679,15.679,0,0,1-2.983-.764A14.076,14.076,0,0,1,3.1,14.854Z" style="fill:#ffe953"/></svg>