<svg xmlns="http://www.w3.org/2000/svg" viewBox="0 0 32 32"><title>file_type_ng_directive_ts</title><defs><clipPath id="a"><path d="m0 0h223v236h-223z" fill="#fff" /></clipPath><linearGradient id="b"><stop offset="0" stop-color="#1dbf34" /><stop offset="1" stop-color="#168f27" /></linearGradient><linearGradient id="c"><stop offset="0" stop-color="#1dbf34" /><stop offset="1" stop-color="#1dbf34" stop-opacity="0" /></linearGradient></defs><g transform="matrix(.11923 0 0 .11923 2.7608 1.986)" clip-path="url(#a)"><path d="m222.08 39.192-8.019 125.92-76.671-165.12zm-53.105 162.82-57.933 33.056-57.934-33.056 11.783-28.556h92.301zm-57.933-139.34 30.357 73.803h-60.715zm-103.1 102.44-7.937-125.92 84.69-39.192z" fill="url(#b)" /><path d="m222.08 39.192-8.019 125.92-76.671-165.12zm-53.105 162.82-57.933 33.056-57.934-33.056 11.783-28.556h92.301zm-57.933-139.34 30.357 73.803h-60.715zm-103.1 102.44-7.937-125.92 84.69-39.192z" fill="url(#c)" /></g><path d="M27.41,19.65a2.81,2.81,0,0,1,1.41.81,3.72,3.72,0,0,1,.54.72s-1,.69-1.57,1.06a.5.5,0,0,1-.2-.22,1.28,1.28,0,0,0-1.06-.64.92.92,0,0,0-1.12.91.83.83,0,0,0,.1.42,2.23,2.23,0,0,0,1.31.88c1.62.7,2.31,1.16,2.74,1.81a3.28,3.28,0,0,1,.26,2.76A3,3,0,0,1,27.31,30a6.93,6.93,0,0,1-1.72,0,4.15,4.15,0,0,1-2.3-1.2,4,4,0,0,1-.59-.87l.21-.13.84-.48.65-.38.14.2a3,3,0,0,0,.86.82,2.1,2.1,0,0,0,2.2-.11,1,1,0,0,0,.13-1.25,3.72,3.72,0,0,0-1.55-.9A5.6,5.6,0,0,1,24,24.32a3,3,0,0,1-.62-1.13,4.53,4.53,0,0,1,0-1.44A2.76,2.76,0,0,1,25.7,19.6,5.73,5.73,0,0,1,27.41,19.65Zm-5.31.94v.93H19.16v8.36H17.08V21.52H14.14v-.91a8.9,8.9,0,0,1,0-.93h8v.92Z" style="fill:#007acc" /></svg>
