<svg version="1.1" viewBox="0 0 32 32" xml:space="preserve" xmlns="http://www.w3.org/2000/svg"><title>file_type_fsproj</title><g transform="matrix(1.1549 0 0 1.1549 6.6699 14.758)"><path d="m0.41 9.37-4.01-3.01a1 1 0 0 1-0.4-0.8v-9.04a1 1 0 0 1 0.4-0.8l4.01-3.01a0.9 0.9 0 0 0-0.27 0.8v15.06a0.91 0.91 0 0 0 0.27 0.8z" fill="#5e438f"/><path d="m19.64-6.82a1 1 0 0 0-1.25 0.11l-0.07 0.07-16.54 15.86-0.07 0.07a1 1 0 0 1-1.3 0.08l-4.01-3.01a1 1 0 0 0 1.36-0.15c4.85-5.61 9.68-11.24 14.52-16.86 0.2-0.23 0.47-0.35 0.77-0.35 0.2 0 0.39 0.05 0.55 0.16z" fill="#7252aa"/><path d="m19.65 8.9-6.03 4.02c-0.42 0.28-0.99 0.2-1.32-0.18l-14.53-16.87a1 1 0 0 0-1.37-0.15l4.02-3.01a1 1 0 0 1 0.6-0.2c0.26 0 0.51 0.1 0.7 0.28l0.06 0.07 16.54 15.86 0.07 0.07a1 1 0 0 0 1.25 0.11z" fill="#ae7fe2"/><path d="m20.09-5.99v14.05a1 1 0 0 1-0.45 0.84l-6.02 4.02a1 1 0 0 0 0.44-0.84v-22.08a1.02 1.02 0 0 0-0.46-0.84l6.04 4.02a1.01 1.01 0 0 1 0.45 0.83z" fill="#d59dff"/></g><g transform="translate(.053181 -.42916)"><polygon points="30.019 26.319 30.02 28.201 21.622 28.2 21.622 26.318 19.739 26.317 19.739 17.92 21.622 17.921 21.62 16.039 30.018 16.039 30.018 17.922 31.9 17.922 31.899 21.686 31.9 21.686 31.9 26.319" fill="#efeef0"/><polygon points="9.9 31.96 9.9 16.039 20.324 16.039 20.324 21.204 15.64 21.204 15.64 21.688 19.946 21.688 19.946 26.844 15.64 26.844 15.64 31.96" fill="#efeef0"/><polygon points="14.265 19.83 14.265 23.062 18.571 23.062 18.571 25.469 14.265 25.469 14.265 30.585 11.275 30.585 11.275 17.414 18.95 17.414 18.95 19.83" fill="#378bba"/><path d="m23 17.414h1.883v1.886h1.882v-1.886h1.882v1.886h1.881v1.882h-1.885v1.881h1.881v1.883h-1.881v1.882h-1.882v-1.883h-1.881v1.882h-1.88v-1.882h-1.883v-1.885h1.883v-1.878h-1.886v-1.882h1.886zm1.883 5.648h1.882v-1.883h-1.886z" fill="#30b9db"/></g></svg>
