<svg xmlns="http://www.w3.org/2000/svg" viewBox="0 0 32 32"><title>file_type_light_babel2</title><path d="M13.016,4.025A26.109,26.109,0,0,1,10.17,5.82V6a.762.762,0,0,0,.281-.11c.123,0,.2.037.2.158l.2-.11h.1v.086A10.967,10.967,0,0,1,8.95,7.58l.11.171h-.1l-.209-.072c0,.062-.086.1-.281.11v.1l.219.243A.781.781,0,0,1,8.4,8.069a1.9,1.9,0,0,0-1.271.942l.11.171a2.611,2.611,0,0,1,.634-.5l.024.267a.851.851,0,0,0-.281.11l.233.342A6.837,6.837,0,0,1,9.3,8.192c.267.072.4.147.4.243h.2a15.493,15.493,0,0,1,4.25-2.3v.185c-.267.391-.439.586-.535.6a.741.741,0,0,0,.134.353,32.729,32.729,0,0,1-1.9,4.815,136.039,136.039,0,0,1-7.364,15.34.725.725,0,0,0,.11.267,2.557,2.557,0,0,0,.942-.353h.11v.185h.185l.206-.142c0,.062.072.086.2.072v.185a1.642,1.642,0,0,1-.318.843,4.395,4.395,0,0,0-.647,1.428V30h.185a11.737,11.737,0,0,0,1.819-2.627,29.214,29.214,0,0,0,5.35-2.017,5.013,5.013,0,0,0,2.822-.966v-.1l-.465.134h-.11v-.1a4.237,4.237,0,0,0,1.872-.61c1.771-1.367,3.1-2.332,4.012-2.908,2.8-2.052,4.117-4.031,3.959-5.911a11.058,11.058,0,0,0-1.846-2.308c-.024-.267.4-.623,1.257-1.113l2.431-2.14a6.315,6.315,0,0,0,.976-3.37L27.484,5.6c-.1-1.086-.88-1.966-2.37-2.637a9.2,9.2,0,0,0-4.721-.942,28.928,28.928,0,0,0-7.366,2Zm2.14,7.682c.185-1,.391-1.575.623-1.709L17.807,5.45c-.024-.281.4-.5,1.295-.647l.294-.024.024.267c.88-.134,1.418-.209,1.624-.233,1.6-.134,2.442.185,2.517.976h.185l-.037-.465h.2a1.217,1.217,0,0,1,.757.952,1.426,1.426,0,0,1-.415.952c-.123,0-.2-.072-.209-.267h-.2l-.048.551c-.818,1.222-1.4,1.846-1.771,1.872q-.495.677-.623.7a11.181,11.181,0,0,1-2.1,1.565,27.388,27.388,0,0,0-4.216,1.637.7.7,0,0,0-.391-.062V13.05a2.263,2.263,0,0,1,.476-1.337Zm-6.6-3.443V8.35a.851.851,0,0,0-.281.11h-.1V8.288Zm5.879-.136.024.267c-.086,0-.209.134-.353.391V8.6a.907.907,0,0,0,.267-.476Zm-.9,1.9.037.366h-.1l-.029-.364Zm-.233.661c-.024.3-.1.465-.267.476h-.1a.934.934,0,0,0,.158-.465Zm-.4.952v.086l-.171.294h-.185V11.94a.243.243,0,0,0,.267-.294h.088Zm-.415.856-.048.452h-.1l-.037-.452Zm2.14,1.367v.171l-.38.037v-.171ZM12.81,16.481A21.476,21.476,0,0,0,18,14.943l.575-.048a3.325,3.325,0,0,1,2.675.685l.037.366c-.439,1.271-.928,2-1.452,2.236l-2.442,1.942a23.881,23.881,0,0,1-2.942,1.808,21.859,21.859,0,0,1-5.4,2.48h-.11c.1-.342,1.38-2.98,3.873-7.942Zm2.637-1.038v.086l-.391.037v-.086Zm-6.083,5.9c-.123.623-.267.942-.391.952v-.086a1.041,1.041,0,0,1,.4-.867Zm2.442,3.445a31.3,31.3,0,0,0,5.839-3.055v.171c0,.072-.267.3-.818.709a14.845,14.845,0,0,0-2.859,1.624c-1.76.61-2.627.99-2.613,1.137a29.423,29.423,0,0,0-3.079,1.356,1.126,1.126,0,0,1-.5-.134.8.8,0,0,1,.428-.781,1.554,1.554,0,0,1,.781.123,7.543,7.543,0,0,1,1.514-.489v-.185l-.575.048a8.223,8.223,0,0,1,1.674-.781l.294-.024V24.6c-.489.037-.77.2-.832.452a.16.16,0,0,0,.2.158,2.362,2.362,0,0,0,.535-.415Zm-3-2.22v.086a.171.171,0,0,1-.171.209v-.086a.182.182,0,0,1,.153-.207Zm4.569,1.246a4.336,4.336,0,0,0-1.308.575h-.1v-.185a1.854,1.854,0,0,0,1.2-.551.183.183,0,0,1,.209.169ZM8.624,25.145l.294-.024v.1a.762.762,0,0,0-.281.11H8.453A.212.212,0,0,1,8.624,25.145Z" style="fill:#fbc02d"/></svg>