<svg xmlns="http://www.w3.org/2000/svg" viewBox="0 0 32 32"><title>file_type_autoit</title><circle cx="16" cy="16" r="12.551" style="fill:#5d83ac"/><path d="M2,16A14,14,0,1,1,16,30,14,14,0,0,1,2,16ZM16,4.789A11.211,11.211,0,1,0,27.211,16,11.211,11.211,0,0,0,16,4.789Z" style="fill:#f0f0f0"/><path d="M24.576,20.156l-6.4-9.264a3.131,3.131,0,0,0-.819-.819,2.36,2.36,0,0,0-2.442.023,3.543,3.543,0,0,0-.812.8L7.533,20.156h3.752l4.808-6.8,1.838,2.71q.26.368.544.789t.5.7q-.368-.031-.865-.031h-3.53l-1.914,2.634Z" style="fill:#f0f0f0"/></svg>