<svg xmlns="http://www.w3.org/2000/svg" viewBox="0 0 32 32"><title>file_type_slim</title><path d="M14.9,4.845c.322-.057.647-.1.973-.121,0,.365,0,.73,0,1.1l.241-.063c.022-.344.006-.689.009-1.033q.491.038.975.123c-.047.169-.1.336-.143.5l.26.061c.037-.167.074-.333.109-.5.309.107.61.233.907.369-.09.205-.331.431-.082.627.107-.16.213-.322.312-.487.268.189.528.388.779.6a9.8,9.8,0,0,0-.742.744c.045.072.091.141.141.209.261-.258.519-.518.772-.784.183.261.471.483.544.8-.127.079-.26.145-.39.215l.119.241c.154-.089.311-.175.467-.259.123.3.241.595.359.893L20,8.212c.029.086.058.172.088.258.162-.048.327-.094.492-.139.046.324.09.649.12.976-.364,0-.727,0-1.089,0,.006.063.018.19.026.253.357-.006.713-.006,1.071,0-.04.314-.084.626-.121.94l-.5-.115L20,10.628c.168.048.335.094.5.14-.111.3-.235.6-.374.892l-.409-.266-.18.23c.151.085.3.171.457.254a9.279,9.279,0,0,1-.593.762c-.243-.239-.469-.5-.727-.72-.083.041-.159.1-.238.142q.389.385.774.774a4.7,4.7,0,0,1-6.42.005c.244-.258.494-.51.751-.753l-.2-.2c-.247.252-.5.5-.745.752a8.846,8.846,0,0,1-.591-.76l.456-.256q-.092-.112-.181-.224-.208.129-.418.253-.2-.438-.364-.889c.168-.043.336-.088.5-.133l-.09-.26-.475.143a8.484,8.484,0,0,1-.135-.961c.357,0,.714,0,1.071.007,0-.065,0-.2,0-.262-.358.006-.715.006-1.073.009.029-.326.071-.651.112-.976q.25.063.5.135c.03-.086.058-.171.088-.255-.172-.043-.342-.088-.513-.132.119-.3.236-.6.358-.893.157.087.316.171.47.263.037-.085.076-.169.116-.25l-.441-.233c.19-.263.385-.52.585-.776.254.252.509.5.753.766.061-.059.126-.116.183-.181a10.53,10.53,0,0,0-.754-.756,8.689,8.689,0,0,1,.79-.6l.233.438.246-.122q-.138-.221-.275-.441a8.108,8.108,0,0,1,.921-.379c.036.166.074.33.112.5l.255-.054C15,5.183,14.948,5.013,14.9,4.845Zm1.123,3.841a.751.751,0,0,0-.69.979A.714.714,0,0,0,16.6,9.8a.8.8,0,0,0-.082-.911c.275-.715.537-1.435.811-2.15.055-.161.2-.482-.1-.427C16.8,7.09,16.443,7.9,16.027,8.686Z" style="fill:#f9f8f5"/><path d="M15.111,3.921A5.568,5.568,0,1,1,11.262,6.5,5.551,5.551,0,0,1,15.111,3.921Zm.231.447a5.052,5.052,0,0,0-2.33.924,5.1,5.1,0,0,0-.783,7.571,5.12,5.12,0,0,0,7.54,0,5.1,5.1,0,0,0-4.427-8.5Z" style="fill:#f9f8f5"/><path d="M6.515,11.153c.646-.033,1.293-.011,1.939-.012a1.5,1.5,0,0,1,1.35.989,6.8,6.8,0,0,0,3.674,3.582,6.922,6.922,0,0,0,4.2.283,6.77,6.77,0,0,0,4.466-3.71,1.865,1.865,0,0,1,.706-.93,3.369,3.369,0,0,1,1.729-.218c.47.027,1.02-.105,1.415.223.355.307.236.818.182,1.223q-.884,6.525-1.755,13.054a2.046,2.046,0,0,1-1.775,1.751c-4.328.009-8.656,0-12.984.006a2.04,2.04,0,0,1-2.078-1.766q-.863-6.538-1.742-13.074a1.526,1.526,0,0,1,.032-.99A.8.8,0,0,1,6.515,11.153Zm.158.472a3,3,0,0,0,.242.227c.188.05.3-.115.419-.225C7.113,11.621,6.893,11.621,6.673,11.625Zm1.122,0a3.035,3.035,0,0,0,.24.218c.189.064.3-.111.426-.218C8.24,11.621,8.017,11.621,7.8,11.628Zm15.757,0c.119.107.229.273.415.222a3,3,0,0,0,.244-.226C23.991,11.621,23.772,11.621,23.552,11.629Zm1.125,0c.116.11.227.269.414.228a3.222,3.222,0,0,0,.242-.231C25.114,11.621,24.895,11.621,24.677,11.628Zm-18.445.229q.029.281.069.559c.213-.015.506-.077.419-.363C6.7,11.8,6.409,11.834,6.232,11.857Zm1.31-.03c-.4,0-.315.7.09.571C7.982,12.358,7.89,11.761,7.542,11.828Zm1.127,0c-.391,0-.324.684.073.575C9.1,12.382,9.024,11.764,8.669,11.826Zm16.883.005c-.328-.022-.374.525-.053.569C25.843,12.524,25.935,11.747,25.552,11.831Zm-2.387.03c-.209.113-.175.515.088.534a.286.286,0,0,0,.316-.43C23.514,11.805,23.294,11.808,23.165,11.86Zm1.133,0c-.321.165-.058.705.274.518C24.928,12.245,24.643,11.646,24.3,11.858Zm-17.349.549c-.18.036-.328.266-.209.428a.3.3,0,0,0,.526,0C7.411,12.643,7.165,12.349,6.949,12.407Zm1.123,0c-.356.049-.294.638.067.575C8.568,13.01,8.466,12.311,8.072,12.408Zm1.125,0c-.351.053-.3.623.059.578C9.689,13.03,9.585,12.328,9.2,12.406Zm13.217.367c.129.161.389.323.559.128.2-.184.015-.5-.229-.51C22.561,12.434,22.505,12.633,22.415,12.773Zm1.4-.361a.293.293,0,1,0,.152.566C24.33,12.914,24.169,12.3,23.815,12.412Zm1.123,0a.3.3,0,1,0,.329.427C25.411,12.63,25.158,12.341,24.938,12.411Zm-18.563.511c.016.225.04.45.076.673.12-.092.316-.173.279-.357C6.744,13.033,6.517,12.992,6.375,12.922Zm1.007.052a1.124,1.124,0,0,0-.089.528,1.914,1.914,0,0,0,.546,0,1.121,1.121,0,0,0-.085-.53Zm1.141-.027c-.072.17-.223.439.005.555a.288.288,0,0,0,.441-.311C8.96,12.962,8.682,12.982,8.523,12.948Zm1.024.549c.145-.007.373.138.45-.05a5.052,5.052,0,0,0-.335-.527A.943.943,0,0,0,9.547,13.5Zm12.435.033c.157,0,.316-.01.473-.026a.567.567,0,0,0-.119-.539A4.428,4.428,0,0,0,21.981,13.529Zm1.155-.554c-.123.189-.171.539.131.57.341.065.42-.354.229-.57Zm1.123,0c-.036.131-.151.267-.082.406a.292.292,0,0,0,.532,0c.084-.138-.058-.271-.09-.4Zm1.034.2c-.088.222.129.323.271.433q.055-.33.1-.661C25.529,12.985,25.3,12.987,25.293,13.175ZM6.769,13.66c-.143.137,0,.318.032.468.17-.029.414.041.479-.174C7.439,13.666,6.952,13.372,6.769,13.66ZM7.955,13.6a.285.285,0,0,0-.1.362.307.307,0,0,0,.554-.009C8.54,13.7,8.175,13.416,7.955,13.6Zm1.024.357c.068.215.313.144.482.172.027-.146.165-.326.031-.459C9.319,13.371,8.808,13.661,8.978,13.955Zm13.537-.282c-.127.136,0,.3.029.451.188-.009.478.028.507-.229C23.133,13.6,22.66,13.4,22.516,13.673Zm1.172-.068c-.075.092-.159.224-.083.341a.3.3,0,0,0,.57-.051A.307.307,0,0,0,23.688,13.6Zm1.075.072c-.119.135,0,.3.028.446.189-.007.484.034.508-.228A.3.3,0,0,0,24.763,13.676Zm-14.706-.034a4.235,4.235,0,0,0,.111.476c.119,0,.237,0,.355-.005A3.759,3.759,0,0,0,10.057,13.642Zm11.453.526a.435.435,0,0,0,.431-.529A2.288,2.288,0,0,0,21.509,14.169ZM6.488,14.1a1.946,1.946,0,0,0,.191.59,3.877,3.877,0,0,0,.04-.461Zm.8.515c.147.028.317.153.451.022.244-.14.081-.611-.214-.531C7.259,14.105,7.287,14.424,7.289,14.612Zm1.23.022c.135.135.307,0,.455-.028-.009-.186.026-.491-.236-.5C8.445,14.019,8.265,14.493,8.52,14.635Zm1.174-.525a.316.316,0,0,0-.047.528.29.29,0,0,0,.447-.325C10.067,14.123,9.854,14.07,9.694,14.11Zm12.371.032c-.216.056-.127.307-.156.469.145.029.31.152.446.032.247-.128.077-.4-.016-.575Zm1.122,0c-.207.059-.125.3-.156.462.144.03.309.164.445.041.248-.129.083-.4-.011-.577Zm1.126-.026a.31.31,0,0,0,.015.553c.2.13.5-.144.39-.36A.3.3,0,0,0,24.313,14.117Zm1,.557c.211-.137.169-.4.2-.617A.525.525,0,0,0,25.313,14.674ZM10.636,14.28c.016.109.033.22.051.33.123.045.247.087.372.128A4.076,4.076,0,0,0,10.636,14.28Zm10.711.062a.611.611,0,0,0-.326.321c.036.136.222,0,.275-.058S21.46,14.387,21.347,14.343ZM6.8,14.705c-.035.145-.17.322-.029.454a.3.3,0,0,0,.477-.007c.136-.132,0-.3-.031-.445C7.074,14.705,6.935,14.7,6.8,14.705Zm1.125,0c-.033.144-.169.32-.031.451a.3.3,0,0,0,.519-.071c.077-.121-.055-.255-.073-.378C8.2,14.705,8.06,14.705,7.921,14.705Zm1.123,0c-.034.145-.172.324-.026.454a.3.3,0,0,0,.474-.006c.134-.131,0-.306-.03-.449C9.323,14.705,9.184,14.705,9.044,14.707Zm1.062.153c-.177.3.341.59.514.29.138-.14,0-.312-.041-.46C10.41,14.718,10.173,14.65,10.106,14.861ZM21.42,14.7c-.031.147-.165.316-.033.452.146.265.626.076.539-.222C21.9,14.666,21.61,14.7,21.42,14.7Zm1.149.036a.305.305,0,0,0-.06.413c.139.268.633.086.542-.215C23.035,14.7,22.746,14.637,22.569,14.732Zm1.1-.035c-.024.144-.15.319-.028.454.148.259.622.075.537-.221C24.155,14.665,23.855,14.7,23.665,14.7Zm1.13,0c-.028.146-.155.314-.035.452.137.264.636.084.538-.218C25.28,14.665,24.983,14.7,24.8,14.694Zm-13.626.141c-.009.3.239.531.526.391C11.525,15.09,11.351,14.956,11.169,14.835Zm9.153.4a.361.361,0,0,0,.512-.38A5.625,5.625,0,0,0,20.323,15.233Zm-12.861.019a.307.307,0,0,0-.077.521.284.284,0,0,0,.46-.148A.3.3,0,0,0,7.462,15.252Zm1.119,0c-.367.131-.122.734.232.562C9.155,15.678,8.926,15.088,8.581,15.256Zm1.124,0c-.365.128-.122.73.231.559C10.287,15.679,10.045,15.085,9.705,15.259Zm1.128,0c-.36.119-.133.729.22.562C11.416,15.69,11.173,15.091,10.833,15.257Zm9.962.072c0,.137,0,.274,0,.412.217.152.568.118.576-.206C21.352,15.218,21.01,15.181,20.795,15.329Zm1.113,0c.026.168-.048.4.157.479.3.189.6-.335.3-.513C22.228,15.157,22.056,15.3,21.908,15.329Zm1.137,0c0,.137,0,.275,0,.413.143.034.332.187.457.033a.294.294,0,0,0-.01-.478C23.356,15.16,23.188,15.292,23.045,15.328Zm1.279-.063a.3.3,0,0,0-.009.542c.214.149.519-.147.4-.368A.275.275,0,0,0,24.324,15.264ZM11.8,15.311c.013.147-.071.365.085.46.146.158.342-.009.5-.048A5.159,5.159,0,0,0,11.8,15.311Zm7.829.408c.153.038.345.209.491.06.16-.1.091-.309.1-.46C20.013,15.446,19.816,15.577,19.627,15.719Zm-12.815.143a1.372,1.372,0,0,0-.013.479l.233.114c.144-.107.388-.266.238-.472C7.2,15.793,6.97,15.822,6.812,15.862Zm1.046.127c-.145.231.125.371.275.491a2.687,2.687,0,0,0,.291-.259c.034-.138-.062-.265-.093-.393C8.166,15.855,7.93,15.786,7.858,15.989Zm1.225-.128a.3.3,0,0,0-.024.483c.216.237.641-.1.458-.363C9.454,15.8,9.233,15.813,9.084,15.861Zm1.121,0a.3.3,0,0,0,.048.524c.218.153.559-.178.393-.4C10.58,15.8,10.359,15.812,10.2,15.861Zm.992.189c-.057.219.18.307.308.43.148-.119.424-.276.266-.5A.317.317,0,0,0,11.2,16.05Zm1.257-.177a.284.284,0,0,0-.015.472c.2.207.559-.04.5-.3C12.835,15.9,12.622,15.755,12.454,15.873Zm6.845-.012a.273.273,0,0,0-.121.481c.217.235.652-.089.467-.359A.246.246,0,0,0,19.3,15.861Zm1.072.521c.164.127.32-.073.47-.128-.047-.179-.093-.48-.348-.42A.287.287,0,0,0,20.371,16.382Zm.965-.333c-.089.2.174.309.283.431.134-.121.381-.205.308-.431A.308.308,0,0,0,21.335,16.049Zm1.29.333c.16.123.315-.073.463-.126-.04-.183-.09-.484-.348-.421A.285.285,0,0,0,22.625,16.382Zm1.117,0c.164.126.322-.063.47-.121-.042-.183-.09-.486-.351-.424A.287.287,0,0,0,23.742,16.38Zm1.012-.106c.084.181.308.129.463.11-.019-.169.142-.506-.121-.543C24.846,15.735,24.582,16.067,24.754,16.274ZM13.416,16.2a.617.617,0,0,0,.548.236A1.372,1.372,0,0,0,13.416,16.2Zm5.071,0c-.131,0-.3.042-.344.184C18.183,16.624,18.693,16.309,18.486,16.2Zm-11.2.256a.876.876,0,0,0,.107.517H7.74a.942.942,0,0,0,.108-.516A.763.763,0,0,0,7.288,16.452Zm1.123,0a.952.952,0,0,0,.107.519h.347a.99.99,0,0,0,.108-.519A.845.845,0,0,0,8.411,16.45ZM9.65,16.43c-.221.115-.1.376,0,.538h.337a.845.845,0,0,0,.11-.515C9.95,16.43,9.784,16.314,9.65,16.43Zm1.012.015a.982.982,0,0,0,.1.522h.354a1.041,1.041,0,0,0,.105-.518A.855.855,0,0,0,10.662,16.446Zm1.125,0a.865.865,0,0,0,.109.521h.342a.955.955,0,0,0,.107-.522A.879.879,0,0,0,11.787,16.447Zm1.238.522h.336c.169-.207.172-.547-.141-.6C12.878,16.365,12.829,16.751,13.024,16.969Zm5.509-.517a3.613,3.613,0,0,0,.024.393c.106.123.274.121.42.153a.9.9,0,0,0,.114-.554A.836.836,0,0,0,18.533,16.452Zm1.129,0c0,.131.006.261.018.391.106.121.272.12.417.151.078-.168.219-.347.08-.526C20.028,16.325,19.832,16.4,19.663,16.455Zm1.117.005a1.144,1.144,0,0,0,.107.508h.351c.073-.158.2-.328.066-.495C21.151,16.319,20.952,16.4,20.779,16.46Zm1.13,0q0,.193.021.386c.1.123.269.124.413.157a.736.736,0,0,0,.116-.557A.775.775,0,0,0,21.91,16.456Zm1.128,0c0,.13.006.261.017.39a.733.733,0,0,0,.416.152c.079-.169.223-.348.08-.527C23.4,16.324,23.208,16.4,23.038,16.456Zm1.123-.005c0,.131.006.261.018.391.105.123.272.124.418.157a.76.76,0,0,0,.11-.563A.908.908,0,0,0,24.161,16.451Zm-10.119-.018a.86.86,0,0,0,.1.537l.346,0c.05-.1.1-.207.137-.314C14.562,16.387,14.24,16.479,14.042,16.432Zm3.367.063a.885.885,0,0,0,.105.473h.347c.086-.164.183-.338.064-.516A3.374,3.374,0,0,0,17.409,16.5Zm-2.312.12a.45.45,0,0,0,.488.376c.063-.107.127-.216.189-.324C15.549,16.646,15.324,16.627,15.1,16.615Zm1.124.057a.494.494,0,0,0,.5.32c.063-.125.126-.249.185-.376Q16.563,16.635,16.222,16.672Zm-9.333.255a2.018,2.018,0,0,0,.131.674c.149-.089.357-.219.283-.427C7.238,17,7.046,16.971,6.889,16.928Zm1.076.083c-.382.2.079.784.358.47C8.648,17.288,8.238,16.773,7.965,17.011Zm1.122,0c-.381.213.094.786.368.464C9.762,17.267,9.356,16.774,9.087,17.012Zm1.125,0c-.38.214.094.791.372.462C10.889,17.27,10.476,16.776,10.212,17.012ZM11.344,17a.287.287,0,0,0,.011.51c.154.158.344-.018.449-.146C11.9,17.114,11.568,16.837,11.344,17Zm1.113.011c-.264.175-.1.508.16.572.138-.051.338-.147.318-.324C12.953,17.038,12.63,16.85,12.457,17.016Zm1.128,0c-.274.165-.1.529.172.573.126-.062.33-.148.3-.321C14.082,17.042,13.758,16.851,13.585,17.015Zm1.123,0c-.375.216.1.787.373.462C15.391,17.268,14.976,16.773,14.708,17.013Zm1.127,0c-.267.17-.106.515.159.574.136-.05.339-.147.314-.322A.3.3,0,0,0,15.835,17.014Zm1.12,0c-.259.169-.1.526.171.57.132-.052.334-.146.308-.32A.3.3,0,0,0,16.955,17.016Zm1.128,0c-.371.213.093.774.369.467C18.768,17.271,18.356,16.769,18.084,17.016Zm1.117.005c-.354.221.105.768.378.458C19.9,17.266,19.464,16.761,19.2,17.021Zm1.128,0c-.359.222.1.778.377.459C21.018,17.266,20.6,16.764,20.329,17.018Zm1.127,0c-.363.216.1.772.372.463C22.141,17.269,21.727,16.764,21.456,17.018Zm1.123,0a.286.286,0,0,0,.007.483c.156.183.486-.021.468-.23A.3.3,0,0,0,22.579,17.019Zm1.124,0c-.348.219.091.763.369.468C24.395,17.28,23.978,16.756,23.7,17.019Zm1.016.158c-.119.22.176.353.328.439.035-.229.055-.46.075-.691C24.97,16.974,24.766,16.991,24.719,17.177Zm-15.166.389c-.059.23-.024.614.315.533.283,0,.229-.342.219-.528A1.4,1.4,0,0,0,9.553,17.567Zm1.122,0c-.012.186-.069.538.216.531.339.085.365-.3.319-.529A1.565,1.565,0,0,0,10.675,17.567Zm1.121.005c-.012.187-.061.534.224.527.337.084.354-.3.317-.53A1.457,1.457,0,0,0,11.8,17.572Zm-4.5.122a.284.284,0,0,0,.322.406c.277,0,.228-.343.212-.529C7.66,17.54,7.356,17.454,7.3,17.693Zm1.167-.1a.352.352,0,0,0,.077.494c.167.038.412.025.431-.193C9.077,17.591,8.684,17.4,8.465,17.594Zm4.459-.025c-.011.186-.065.534.218.529.292.085.438-.292.281-.5C13.273,17.483,13.091,17.546,12.924,17.57Zm1.122,0c0,.187-.065.538.222.529.3.082.432-.3.28-.506A.675.675,0,0,0,14.046,17.57Zm1.125,0c0,.189-.063.534.224.527a.283.283,0,0,0,.312-.411C15.644,17.452,15.342,17.542,15.171,17.572Zm1.139-.008c-.016.188-.086.547.207.534a.282.282,0,0,0,.314-.408C16.779,17.458,16.477,17.544,16.311,17.564Zm1.116,0c0,.187-.079.529.206.531a.286.286,0,0,0,.327-.409C17.9,17.453,17.6,17.545,17.427,17.568Zm1.118.008c0,.187-.06.528.221.522a.283.283,0,0,0,.319-.406C19.021,17.451,18.717,17.541,18.545,17.576Zm1.165.033c-.013.044-.041.132-.055.176-.086.363.513.447.578.109A.309.309,0,0,0,19.71,17.609Zm1.1-.039c-.016.191-.077.537.215.53a.285.285,0,0,0,.315-.408C21.28,17.455,20.977,17.541,20.807,17.57Zm1.158.036a.308.308,0,0,0,.433.434C22.692,17.761,22.25,17.318,21.965,17.605Zm1.118,0a.313.313,0,0,0,.44.439C23.821,17.756,23.375,17.318,23.083,17.6Zm1.129,0a.315.315,0,0,0,.437.448A.315.315,0,0,0,24.212,17.6Zm-17.169.455c.022.225.055.45.1.672a1.59,1.59,0,0,0,.18-.336C7.285,18.24,7.145,18.156,7.043,18.054Zm1,.046c-.1.069-.246.154-.218.3-.025.25.365.437.519.207C8.6,18.419,8.309,18.005,8.041,18.1Zm1.127,0c-.161.081-.319.3-.173.46a.287.287,0,0,0,.473.049C9.718,18.418,9.438,18.012,9.169,18.1Zm1.125,0c-.2.08-.328.364-.126.51.19.256.616-.025.51-.3A.347.347,0,0,0,10.294,18.1Zm1.123,0c-.191.082-.328.352-.131.5.188.265.615-.011.522-.3C11.719,18.182,11.588,18.033,11.417,18.1Zm1.121,0c-.157.082-.316.3-.166.459a.286.286,0,0,0,.469.05C13.1,18.421,12.813,18.006,12.538,18.1Zm1.124,0c-.1.072-.246.165-.217.31,0,.242.363.42.521.2C14.223,18.418,13.936,18,13.662,18.1Zm1.129-.005c-.433.144-.126.809.246.56C15.357,18.491,15.108,18.006,14.791,18.1Zm1.121.007c-.441.141-.106.814.259.548C16.48,18.482,16.226,17.993,15.912,18.1Zm1,.093c-.215.166-.014.388.093.546.154-.05.349-.076.42-.246C17.528,18.216,17.106,17.928,16.917,18.2Zm1.089.043c-.172.17.049.349.127.5.172-.047.46-.106.424-.347C18.572,18.118,18.139,17.964,18.006,18.239Zm1.119.01c-.159.171.057.342.136.493.173-.046.457-.108.421-.349A.3.3,0,0,0,19.125,18.249Zm1.287-.144c-.185.083-.313.343-.128.5.2.273.626-.015.518-.309C20.712,18.172,20.576,18.031,20.412,18.105Zm.961.146c-.158.169.066.336.134.492.173-.049.461-.105.424-.351A.3.3,0,0,0,21.372,18.251Zm1.286-.146a.313.313,0,0,0,.189.6A.313.313,0,0,0,22.658,18.105Zm1.124,0a.313.313,0,0,0,.192.595C24.351,18.579,24.153,17.972,23.782,18.105Zm.872.268q.1.172.205.343a4.942,4.942,0,0,0,.134-.669A4.44,4.44,0,0,0,24.654,18.373ZM7.31,18.7c-.017.181-.1.5.165.53a.285.285,0,0,0,.375-.343C7.826,18.608,7.5,18.67,7.31,18.7Zm1.1.339c.041.27.363.182.548.159,0-.178.075-.481-.17-.523A.292.292,0,0,0,8.409,19.043ZM9.6,18.694c-.029.1-.056.192-.085.288l.089.237a.7.7,0,0,0,.441-.04c.1-.145.035-.326.024-.486A4.225,4.225,0,0,0,9.6,18.694Zm1.071.176a.292.292,0,0,0,.428.343c.207-.086.1-.353.093-.517C11.007,18.678,10.7,18.609,10.667,18.87Zm1.141.243c.094.2.354.1.522.1.005-.182.081-.484-.17-.535A.3.3,0,0,0,11.808,19.113Zm1.165-.382a.681.681,0,0,0-.036.484.916.916,0,0,0,.473-.026c.107-.147.046-.331.032-.495A.757.757,0,0,0,12.973,18.731Zm1.245-.053c-.318.079-.217.641.127.571C14.782,19.242,14.624,18.5,14.218,18.677Zm1.127,0c-.321.077-.224.64.121.572C15.907,19.255,15.75,18.508,15.345,18.675Zm1,.061a.4.4,0,0,0-.01.446.966.966,0,0,0,.48.044,2.566,2.566,0,0,0,.006-.531C16.668,18.694,16.487,18.628,16.35,18.737Zm1.065.32c.049.248.355.166.533.166.021-.187.094-.509-.172-.549A.294.294,0,0,0,17.414,19.057Zm1.121-.167a.286.286,0,0,0,.37.347c.272-.034.188-.361.161-.546C18.878,18.677,18.554,18.608,18.535,18.89Zm1.307-.212c-.215.05-.232.339-.129.5.159.116.461.105.513-.121A.3.3,0,0,0,19.842,18.678Zm.943.366c.049.254.353.182.537.18.024-.187.1-.511-.171-.55A.293.293,0,0,0,20.786,19.044Zm1.185-.3c-.124.159-.089.481.154.5a.288.288,0,0,0,.33-.421C22.4,18.623,22.108,18.624,21.971,18.741Zm1.133,0c-.142.144-.092.488.151.5a.286.286,0,0,0,.323-.421C23.525,18.626,23.229,18.614,23.1,18.744Zm1.12,0c-.138.15-.087.477.151.5a.278.278,0,0,0,.357-.331C24.725,18.654,24.387,18.586,24.224,18.746Zm-16.438.668c.051.174.094.475.347.415a.288.288,0,0,0,.142-.547C8.108,19.124,7.941,19.35,7.786,19.414Zm1.123.009c.053.169.1.457.346.407a.291.291,0,0,0,.14-.553C9.224,19.128,9.062,19.356,8.909,19.423Zm1.323-.144c-.285.12-.158.611.15.55a.3.3,0,0,0,.3-.392C10.59,19.295,10.39,19.141,10.232,19.279Zm1.123,0a.277.277,0,0,0-.122.4.308.308,0,0,0,.538.005C11.953,19.452,11.575,19.089,11.355,19.282Zm1.124,0a.289.289,0,0,0,.143.547c.218.048.362-.2.307-.39C12.839,19.295,12.64,19.14,12.48,19.282Zm1.128,0a.29.29,0,0,0,.138.549c.251.057.3-.236.351-.412C13.943,19.35,13.779,19.134,13.608,19.28Zm1.124,0a.289.289,0,0,0,.144.548c.25.059.294-.24.346-.411C15.068,19.35,14.9,19.127,14.732,19.281Zm1.123,0a.289.289,0,0,0,.143.547c.253.062.3-.24.347-.415C16.191,19.348,16.026,19.13,15.855,19.282Zm2.248,0a.289.289,0,0,0,.138.545c.258.066.31-.237.351-.419C18.439,19.342,18.271,19.131,18.1,19.284Zm1.127,0a.29.29,0,0,0,.136.547c.26.065.308-.242.351-.424C19.562,19.342,19.4,19.132,19.23,19.282Zm2.241.005a.289.289,0,0,0,.145.542c.259.064.313-.239.345-.424C21.807,19.336,21.639,19.128,21.471,19.288Zm1.144-.011a.29.29,0,0,0,.125.553c.262.061.32-.241.347-.429C22.938,19.341,22.779,19.146,22.615,19.276Zm1.12,0a.29.29,0,0,0,.132.55c.262.063.316-.245.342-.432C24.059,19.335,23.9,19.14,23.735,19.279Zm-16.509.11c-.09.123-.066.2.072.216C7.387,19.483,7.363,19.41,7.226,19.39Zm9.676.351c.237.252.577-.007.562-.31-.118-.085-.237-.169-.356-.251C16.935,19.3,16.675,19.536,16.9,19.74Zm3.592.089c.261.063.3-.242.346-.422-.146-.044-.3-.277-.451-.144C20.083,19.358,20.171,19.867,20.494,19.829Zm4.26-.155a.264.264,0,0,0,.064-.337C24.65,19.295,24.569,19.67,24.755,19.674Zm-17.438.675a.633.633,0,0,0,.483-.032c.154-.212,0-.6-.293-.5C7.222,19.824,7.329,20.164,7.317,20.349Zm1.231-.525c-.188.1-.226.475.005.539a.287.287,0,0,0,.42-.327C8.963,19.818,8.72,19.768,8.548,19.824Zm1.062.052c-.291.292.141.707.441.444C10.281,20.025,9.89,19.618,9.61,19.876Zm1.127,0c-.251.234.042.672.349.483C11.478,20.185,11.052,19.558,10.737,19.875Zm1.121,0a.3.3,0,0,0,.246.519c.266-.008.332-.354.169-.521A.318.318,0,0,0,11.858,19.878Zm1.186-.055c-.183.106-.219.471.008.539.212.127.52-.083.424-.329C13.458,19.815,13.217,19.772,13.045,19.823Zm1.122,0c-.18.106-.209.467.009.537a.289.289,0,0,0,.425-.329C14.584,19.812,14.339,19.773,14.167,19.824Zm1.123,0c-.256.169-.147.627.189.577C15.942,20.353,15.712,19.608,15.29,19.824Zm1,.514c.171.03.357.1.513-.019.156-.213.009-.593-.289-.509C16.233,19.814,16.3,20.151,16.288,20.338Zm1.128.007a.7.7,0,0,0,.507-.022c.167-.2.009-.59-.279-.514C17.356,19.808,17.421,20.154,17.416,20.345Zm1.246-.518c-.308.192-.058.725.285.54C19.319,20.23,19.021,19.625,18.662,19.827Zm1.13,0c-.312.181-.064.73.279.541C20.446,20.232,20.15,19.629,19.792,19.826Zm1.122,0c-.313.187-.058.724.281.541C21.566,20.23,21.274,19.625,20.914,19.827Zm1,.514c.168.024.353.092.506-.02.175-.2.007-.6-.283-.511C21.855,19.816,21.923,20.15,21.917,20.341Zm1.247-.514c-.307.184-.058.726.281.541C23.824,20.229,23.521,19.628,23.164,19.827Zm1.043.485c.146.115.328.055.495.036-.017-.191.079-.549-.223-.542C24.187,19.742,24.072,20.1,24.207,20.312Zm-16.382.259a.909.909,0,0,0,.092.387h.424c.033-.125.126-.249.089-.383a2.7,2.7,0,0,0-.3-.255A3.035,3.035,0,0,0,7.825,20.571Zm1.222.387.42,0c.153-.221.1-.56-.208-.589A.348.348,0,0,0,9.047,20.958Zm1.117,0h.428c.154-.221.1-.565-.211-.588C10.066,20.388,10.013,20.733,10.164,20.957Zm1.043-.389c-.046.136.052.263.087.389h.42a.776.776,0,0,0,.092-.384,2.75,2.75,0,0,0-.3-.254A2.469,2.469,0,0,0,11.207,20.568Zm1.212.39h.422c.158-.225.1-.563-.214-.591A.352.352,0,0,0,12.419,20.958Zm1.038-.382c-.046.133.054.256.086.381h.423a.784.784,0,0,0,.089-.387,2.837,2.837,0,0,0-.3-.252A2.1,2.1,0,0,0,13.458,20.576Zm1.208.38.424,0c.159-.224.107-.566-.208-.59C14.568,20.387,14.506,20.735,14.665,20.956Zm1.055-.385c-.084.123.05.26.071.385l.422,0c.043-.14.182-.339.034-.46A.3.3,0,0,0,15.72,20.571Zm1.092.074a3.3,3.3,0,0,0,.109.326c.128,0,.254-.013.381-.029a.671.671,0,0,0,.16-.378c-.116-.081-.233-.158-.349-.235C17.009,20.427,16.852,20.5,16.812,20.645Zm1.145-.065c-.054.134.062.264.09.391.13,0,.26-.013.388-.028a.793.793,0,0,0,.152-.379q-.175-.121-.353-.236A1.967,1.967,0,0,0,17.957,20.579Zm1.177-.069c-.145.137,0,.31.039.46.188-.01.485.033.5-.23A.3.3,0,0,0,19.134,20.51Zm1.238-.1c-.243.1-.174.374-.076.558.129,0,.256-.012.384-.027a.691.691,0,0,0,.156-.4C20.69,20.48,20.536,20.3,20.372,20.412Zm1.13,0c-.244.1-.184.375-.082.56.129,0,.256-.012.384-.027a.687.687,0,0,0,.156-.4C21.816,20.482,21.663,20.3,21.5,20.41Zm1.025,0a.628.628,0,0,0,.015.56c.165-.031.418.056.483-.158l.061-.277A.67.67,0,0,0,22.527,20.41Zm1.226,0c-.294.1-.207.6.109.557.266.064.324-.239.346-.432C24.066,20.475,23.915,20.306,23.753,20.409ZM7.4,20.952c.035.209.072.419.112.627l.34-.144a1.062,1.062,0,0,0-.1-.495Zm1.106-.007a1.128,1.128,0,0,0-.1.518.723.723,0,0,0,.572,0,1.124,1.124,0,0,0-.1-.517Zm1.126,0a1.053,1.053,0,0,0-.1.515.694.694,0,0,0,.572,0,1.123,1.123,0,0,0-.1-.517Zm1.128,0a1,1,0,0,0-.1.52.7.7,0,0,0,.569-.006,1.084,1.084,0,0,0-.1-.514Zm1.121,0a1.129,1.129,0,0,0-.1.518.705.705,0,0,0,.575,0,1.178,1.178,0,0,0-.105-.513Zm1.123,0a1.141,1.141,0,0,0-.1.511c.15.029.323.157.462.03.22-.12.086-.377,0-.543Zm1.125,0a1.139,1.139,0,0,0-.1.512c.149.029.322.157.461.028.22-.119.086-.375,0-.541Zm1.127,0a1.113,1.113,0,0,0-.1.511c.149.03.321.156.461.031.218-.118.087-.376.006-.541Zm1.17.027c-.2.075-.116.322-.146.487.147.028.317.152.455.03.235-.126.079-.4,0-.571Zm1.13,0c-.212.068-.122.32-.151.484.147.032.313.156.452.034.239-.121.084-.4,0-.573Zm1.12,0c-.2.073-.119.318-.149.481.147.031.316.165.454.037.242-.124.086-.4,0-.572Zm1.124,0c-.2.077-.118.318-.147.482.148.034.316.167.455.036.244-.127.088-.4-.005-.569Zm1.126,0c-.2.076-.12.318-.149.483.147.03.32.16.458.034.236-.131.081-.393,0-.57Zm1.125,0c-.2.075-.12.317-.149.482.146.031.315.161.454.036.243-.127.087-.4,0-.572Zm1.124,0c-.2.073-.118.316-.148.48.148.032.317.166.456.036.243-.127.085-.4-.006-.571Zm1.125,0c-.2.084-.126.314-.147.48.108.042.217.08.328.114a1.994,1.994,0,0,0,.122-.639Zm-15.1.558a.291.291,0,0,0-.256.333c0,.259.409.354.55.147A.3.3,0,0,0,9.2,21.526Zm1.125,0a.3.3,0,0,0-.191.484.316.316,0,0,0,.548-.147A.3.3,0,0,0,10.329,21.527Zm1.126,0a.3.3,0,0,0-.193.483.315.315,0,0,0,.548-.147A.3.3,0,0,0,11.456,21.526Zm1.123,0c-.424.033-.267.741.14.575C13.1,22.036,12.935,21.433,12.579,21.527Zm1.12,0a.3.3,0,0,0-.19.478c.135.205.546.115.552-.14A.3.3,0,0,0,13.7,21.527Zm.936.478c.152.219.411.059.586-.039-.046-.168-.065-.442-.3-.439A.3.3,0,0,0,14.635,22Zm1.153-.467c-.031.149-.173.333-.027.468.152.217.407.059.582-.036-.017-.068-.051-.205-.068-.273C16.217,21.475,15.956,21.551,15.787,21.538Zm1.1.463c.146.221.408.064.584-.026-.036-.175-.059-.449-.294-.449A.3.3,0,0,0,16.883,22Zm1.156-.465c-.035.151-.174.33-.029.468.147.22.407.062.58-.034l-.066-.272C18.465,21.476,18.207,21.549,18.039,21.536Zm1.126,0c-.033.15-.175.329-.031.465.144.221.407.064.58-.027-.016-.069-.048-.206-.063-.276C19.594,21.476,19.333,21.552,19.165,21.537Zm1.122,0c-.032.15-.167.324-.029.462.139.22.4.065.577-.021l-.057-.281C20.715,21.477,20.459,21.549,20.287,21.539Zm1.127,0c-.033.151-.175.327-.03.463.14.218.4.064.576-.021l-.061-.288C21.835,21.476,21.581,21.55,21.414,21.539Zm1.122,0c-.033.15-.164.322-.029.46.126.211.383.086.547-.007,0-.085,0-.254,0-.339A.749.749,0,0,0,22.536,21.539Zm-14.589.029a.306.306,0,0,0-.061.44.31.31,0,1,0,.061-.44Zm15.718-.032c-.034.15-.171.323-.034.462.124.212.384.086.548-.006v-.342A.823.823,0,0,0,23.665,21.536Zm-16.1.492c.019.214.042.426.059.641l.223-.105A.452.452,0,0,0,7.57,22.027Zm.938.591c.139.147.318.009.473-.028-.014-.19.027-.5-.241-.516C8.441,21.983,8.264,22.467,8.508,22.618ZM9.7,22.083a.322.322,0,0,0,0,.578.3.3,0,0,0,.392-.377C10.076,22.095,9.854,22.038,9.7,22.083Zm1.121,0a.331.331,0,0,0,.012.588.31.31,0,1,0-.012-.588Zm.961.51c.13.015.276.151.4.068.323-.1.181-.675-.16-.587C11.756,22.083,11.776,22.4,11.779,22.592Zm1.295-.509a.326.326,0,0,0,.008.586.3.3,0,0,0,.39-.379A.3.3,0,0,0,13.073,22.083Zm.957.507c.15.034.331.176.468.031.254-.154.071-.629-.229-.547C14,22.082,14.042,22.4,14.03,22.59Zm1.291-.5a.323.323,0,0,0,.006.577.3.3,0,0,0,.4-.375A.292.292,0,0,0,15.32,22.087Zm1.12,0a.326.326,0,0,0,.012.578.3.3,0,0,0,.393-.383A.3.3,0,0,0,16.44,22.088Zm.962.5a2.741,2.741,0,0,0,.326.1c.158-.024.221-.2.317-.306-.11-.135-.185-.384-.406-.311C17.372,22.092,17.414,22.4,17.4,22.589Zm1.129-.425c.019.174-.055.429.168.5.221.13.362-.125.472-.274a2.634,2.634,0,0,0-.234-.314A1.035,1.035,0,0,0,18.531,22.164Zm1.121.421c.148.036.337.189.471.035a.307.307,0,0,0-.232-.546C19.623,22.093,19.665,22.392,19.652,22.585Zm1.288-.476c-.219.054-.131.313-.166.476a2.971,2.971,0,0,0,.338.11c.141-.042.208-.19.3-.291-.074-.123-.147-.244-.224-.364Zm.979.056c0,.14-.006.28-.007.421.17.075.392.18.524-.02.161-.18-.028-.36-.105-.527C22.192,22.076,22.055,22.119,21.919,22.165Zm1.124,0c0,.141,0,.282,0,.424.126.031.248.126.383.09a2.122,2.122,0,0,0,.244-.28c-.074-.121-.148-.24-.225-.358C23.308,22.078,23.175,22.12,23.043,22.165Zm1.122.019c0,.123,0,.245,0,.368l.2.131c.032-.216.069-.429.1-.644Zm-10.621.494a.914.914,0,0,0-.1.4,2.88,2.88,0,0,0,.294.238l.351-.231q-.06-.2-.132-.4C13.821,22.677,13.682,22.677,13.544,22.678Zm1.127,0a.916.916,0,0,0-.1.389,3.083,3.083,0,0,0,.294.244l.353-.228c-.04-.137-.085-.273-.134-.407C14.945,22.676,14.808,22.677,14.672,22.679Zm1.124,0a.888.888,0,0,0-.1.388,2.666,2.666,0,0,0,.293.241l.352-.22c-.039-.139-.082-.277-.13-.412C16.073,22.677,15.935,22.677,15.8,22.68Zm1.124,0c-.036.128-.123.252-.1.39a2.952,2.952,0,0,0,.288.241c.12-.074.238-.148.357-.223q-.06-.208-.135-.411C17.195,22.676,17.057,22.677,16.92,22.679Zm-8.995,0c-.048.133-.092.269-.132.406l.349.227a3.1,3.1,0,0,0,.289-.227c.037-.144-.052-.275-.1-.4C8.2,22.678,8.061,22.677,7.925,22.678ZM9.08,22.7a.73.73,0,0,0-.165.386l.351.231a3.3,3.3,0,0,0,.3-.237.992.992,0,0,0-.105-.412C9.33,22.668,9.2,22.679,9.08,22.7Zm1.1-.016c-.049.131-.094.264-.135.4.114.08.231.157.348.235a2.962,2.962,0,0,0,.288-.227c.043-.143-.053-.275-.092-.406C10.449,22.678,10.312,22.678,10.176,22.679Zm1.119,0a.905.905,0,0,0-.1.394,3.057,3.057,0,0,0,.3.24c.118-.079.235-.156.352-.237-.041-.134-.086-.267-.135-.4C11.57,22.678,11.433,22.678,11.3,22.679Zm1.127,0a.814.814,0,0,0-.1.4,3.142,3.142,0,0,0,.294.237c.118-.078.234-.155.351-.235-.04-.135-.084-.268-.132-.4Zm5.628-.012a1,1,0,0,0-.107.4,2.513,2.513,0,0,0,.294.245q.175-.109.349-.221c-.015-.064-.046-.194-.062-.259C18.464,22.613,18.217,22.7,18.05,22.667Zm1.119.013a.946.946,0,0,0-.1.387,2.782,2.782,0,0,0,.291.243l.353-.221c-.039-.14-.081-.277-.129-.413C19.446,22.677,19.307,22.678,19.169,22.68Zm1.134-.016a3.063,3.063,0,0,0-.118.337c.028.15.2.211.294.311l.354-.217c-.038-.137-.026-.317-.165-.4C20.548,22.678,20.425,22.668,20.3,22.664Zm1.121,0c-.036.129-.13.253-.1.392a1.958,1.958,0,0,0,.292.25l.343-.217c-.014-.067-.042-.2-.056-.27C21.833,22.613,21.59,22.7,21.424,22.668Zm1.126,0a3.31,3.31,0,0,0-.114.325c.027.159.2.224.3.321l.342-.215c-.036-.139-.026-.315-.162-.4C22.8,22.678,22.674,22.669,22.55,22.665Zm1.054.172c-.151.211.114.362.252.476l.349-.214c-.013-.067-.04-.2-.054-.271A.3.3,0,0,0,23.6,22.837Zm-15.188.45a.722.722,0,0,0,.1.528h.347a.885.885,0,0,0,.105-.523A.675.675,0,0,0,8.416,23.286Zm1.121.005a.716.716,0,0,0,.112.523l.336,0a.81.81,0,0,0,.11-.526A.649.649,0,0,0,9.537,23.291Zm1.126,0a.773.773,0,0,0,.105.527h.341a.705.705,0,0,0,.107-.525A.679.679,0,0,0,10.664,23.287Zm1.122,0a.8.8,0,0,0,.107.524h.346a.814.814,0,0,0,.106-.528A.686.686,0,0,0,11.786,23.29Zm1.124,0a2.628,2.628,0,0,0,.017.4.685.685,0,0,0,.418.151.727.727,0,0,0,.122-.558A.656.656,0,0,0,12.91,23.292Zm1.124,0a.867.867,0,0,0,.109.524h.344a.76.76,0,0,0,.106-.528A.69.69,0,0,0,14.034,23.291Zm1.125,0a.856.856,0,0,0,.109.525h.344a.7.7,0,0,0,.1-.532A.7.7,0,0,0,15.159,23.29Zm1.124.005a.865.865,0,0,0,.11.521l.341,0a.7.7,0,0,0,.106-.529A.662.662,0,0,0,16.283,23.3Zm1.126,0a3.32,3.32,0,0,0,.019.4c.107.124.276.119.423.148a.711.711,0,0,0,.109-.561A.675.675,0,0,0,17.409,23.292Zm1.125.006a3.228,3.228,0,0,0,.018.4.683.683,0,0,0,.419.148c.113-.164.237-.431.024-.572C18.859,23.128,18.685,23.263,18.534,23.3Zm1.123,0a3.472,3.472,0,0,0,.021.4.677.677,0,0,0,.417.148.649.649,0,0,0,.112-.562A.665.665,0,0,0,19.657,23.3Zm1.125,0a3.154,3.154,0,0,0,.019.392c.105.126.274.121.421.149.1-.169.243-.432.022-.571C21.106,23.131,20.934,23.263,20.783,23.3Zm1.123,0a.9.9,0,0,0,.115.515l.332,0c.073-.129.208-.272.108-.426C22.372,23.135,22.09,23.209,21.906,23.3Zm1.127,0a3.882,3.882,0,0,0,.02.392c.105.124.271.122.418.151.109-.175.255-.436.017-.577C23.351,23.131,23.182,23.263,23.033,23.3ZM7.8,23.691c.154-.055.115-.333-.017-.394C7.634,23.344,7.655,23.644,7.8,23.691Zm16.418-.408c-.14.076-.168.369-.012.44C24.36,23.664,24.383,23.338,24.219,23.283ZM7.956,23.83a.343.343,0,0,0,.181.607c.124-.073.337-.154.3-.332A.33.33,0,0,0,7.956,23.83Zm1.129,0c-.371.228.069.815.365.5C9.768,24.116,9.4,23.644,9.085,23.829Zm.948.4c.158.068.329.309.5.132.293-.115.147-.6-.154-.556C10.127,23.762,10.087,24.053,10.033,24.225Zm1.317.131c.168.172.341-.059.5-.126-.052-.173-.093-.47-.343-.429C11.206,23.759,11.058,24.24,11.35,24.356Zm.931-.131a3.819,3.819,0,0,0,.354.208.7.7,0,0,0,.3-.221c.051-.194-.088-.448-.311-.411C12.379,23.769,12.33,24.054,12.281,24.225Zm1.276-.432c-.056.168-.222.41,0,.531.172.208.372,0,.542-.1A.43.43,0,0,0,13.558,23.793Zm1.119,0c-.048.167-.218.408,0,.525.209.275.67-.1.468-.37C15.069,23.755,14.839,23.823,14.677,23.8Zm1.15.047c-.263.188-.1.529.172.595.205-.056.419-.266.275-.483C16.2,23.773,15.974,23.772,15.826,23.842Zm1.1-.047a1.253,1.253,0,0,0-.111.41.833.833,0,0,0,.306.232c.208-.053.42-.266.277-.484C17.323,23.753,17.088,23.824,16.926,23.8Zm1.152.044c-.264.194-.105.526.17.6.131-.056.335-.144.311-.319A.312.312,0,0,0,18.078,23.839Zm1.127,0c-.266.189-.108.528.166.6.129-.06.34-.141.312-.319A.31.31,0,0,0,19.2,23.84Zm1.034.114c-.177.223.109.394.255.519.1-.113.336-.167.312-.348C20.869,23.8,20.368,23.666,20.239,23.955Zm1.224.393c.162.185.341-.037.5-.107-.031-.19-.09-.5-.354-.434A.291.291,0,0,0,21.463,24.348Zm1.026-.4c-.174.219.107.4.248.524.1-.112.343-.165.317-.349C23.13,23.805,22.617,23.667,22.489,23.952Zm1.211-.1c-.366.221.1.785.374.475C24.388,24.11,24,23.605,23.7,23.852Zm-15.284.562a.936.936,0,0,0,.083.527h.39a1.148,1.148,0,0,0,.081-.524A.947.947,0,0,0,8.416,24.414Zm1.124,0a.932.932,0,0,0,.082.526l.394,0a1.136,1.136,0,0,0,.079-.522A.9.9,0,0,0,9.541,24.415Zm1.122,0a1.18,1.18,0,0,0,.08.525h.391a.975.975,0,0,0,.085-.525A.929.929,0,0,0,10.663,24.415Zm1.126,0a.979.979,0,0,0,.082.523h.393a1.132,1.132,0,0,0,.081-.527A.963.963,0,0,0,11.789,24.418Zm1.124,0a1.061,1.061,0,0,0,.082.524h.392a.978.978,0,0,0,.081-.526A.942.942,0,0,0,12.913,24.416Zm1.122,0a1.2,1.2,0,0,0,.084.523h.391a.944.944,0,0,0,.083-.527A.952.952,0,0,0,14.035,24.418Zm1.128,0a1.072,1.072,0,0,0,.09.545c.17-.021.442.018.471-.218l-.012-.331A.93.93,0,0,0,15.163,24.416Zm1.122,0a1.3,1.3,0,0,0,.087.545c.176-.02.442.014.482-.223-.005-.082-.014-.246-.019-.328A.968.968,0,0,0,16.285,24.418Zm1.124,0a1.273,1.273,0,0,0,.091.545c.174-.022.433.013.479-.217l-.02-.335A.934.934,0,0,0,17.409,24.419Zm1.126,0a1.168,1.168,0,0,0,.092.544c.176-.019.442.011.478-.225-.006-.082-.017-.244-.024-.326A.924.924,0,0,0,18.535,24.419Zm1.126,0a1.219,1.219,0,0,0,.089.547l.339-.038c.2-.1.136-.34.116-.515A.95.95,0,0,0,19.662,24.416Zm1.124,0a1.116,1.116,0,0,0,.1.547l.334-.041c.211-.082.122-.348.116-.515A.981.981,0,0,0,20.786,24.418Zm1.125,0a1.206,1.206,0,0,0,.089.544l.34-.037c.207-.092.132-.345.113-.517A.944.944,0,0,0,21.911,24.419Zm1.127,0a3.826,3.826,0,0,0,.015.4c.081.157.261.124.407.113.205-.105.145-.346.119-.527A.982.982,0,0,0,23.038,24.416Zm-15.071.558a2.328,2.328,0,0,0,.077.615.632.632,0,0,0,.394-.249C8.512,25.087,8.2,24.813,7.967,24.974Zm1.125.008c-.319.173-.071.671.259.565.094-.079.251-.162.214-.31C9.577,25.02,9.268,24.822,9.092,24.983Zm1.117.008a.284.284,0,0,0-.041.465c.159.226.534.035.521-.208C10.709,25.025,10.384,24.812,10.209,24.991Zm1.13-.007c-.4.214.1.82.378.47C12.014,25.239,11.606,24.752,11.339,24.984Zm1.118.006c-.384.216.1.8.378.471C13.149,25.249,12.725,24.736,12.457,24.99Zm1.128,0c-.392.217.094.805.378.471C14.268,25.242,13.854,24.743,13.585,24.988Zm1.126,0c-.4.219.1.809.383.468C15.386,25.234,14.979,24.746,14.711,24.988Zm1.124,0c-.394.219.1.806.38.472C16.511,25.237,16.107,24.743,15.835,24.987Zm1.128,0c-.4.216.093.809.38.473C17.633,25.236,17.234,24.747,16.964,24.987Zm1.187-.05c-.147.093-.313.306-.157.465a.293.293,0,0,0,.473.058C18.718,25.259,18.446,24.83,18.151,24.937Zm1.124,0c-.146.093-.313.317-.152.47a.292.292,0,0,0,.466.057C19.844,25.263,19.573,24.83,19.275,24.937Zm1.127,0a.321.321,0,0,0,.193.611A.321.321,0,0,0,20.4,24.937Zm1.121,0c-.172.1-.32.368-.111.51a.294.294,0,0,0,.518-.2A.314.314,0,0,0,21.523,24.937Zm.973.15c-.169.176.059.36.153.5.166-.052.448-.1.4-.342A.3.3,0,0,0,22.5,25.087Zm1.074.248a.641.641,0,0,0,.4.255,5.347,5.347,0,0,0,.1-.552C23.9,24.749,23.48,25.071,23.57,25.335Zm-15.143.2c-.016.2-.092.54.209.55.356.079.37-.307.32-.547A2.134,2.134,0,0,0,8.428,25.536Zm1.122,0a5.134,5.134,0,0,0,0,.517.985.985,0,0,0,.5-.025.971.971,0,0,0,.036-.487A2.134,2.134,0,0,0,9.55,25.536Zm1.129,0a.925.925,0,0,0,.032.493.874.874,0,0,0,.5.021c.007-.172.005-.343,0-.514A2.851,2.851,0,0,0,10.679,25.534Zm1.121,0a2.238,2.238,0,0,0-.013.361c.038.228.343.221.5.129.1-.149.04-.332.035-.5A2.579,2.579,0,0,0,11.8,25.539Zm1.129,0c-.005.162-.061.343.036.492a1.013,1.013,0,0,0,.488.038,3.843,3.843,0,0,0,0-.531A2.851,2.851,0,0,0,12.929,25.535Zm1.121,0a.944.944,0,0,0,.036.483.858.858,0,0,0,.493.036,4.467,4.467,0,0,0,.005-.523A2.387,2.387,0,0,0,14.05,25.54Zm3.39-.007c-.005.16-.078.344.028.489.144.091.324.041.484.048a3.458,3.458,0,0,0,.006-.534A3.133,3.133,0,0,0,17.44,25.532Zm-2.265,0c-.046.233-.042.616.306.556.313.005.246-.355.223-.559A4.555,4.555,0,0,0,15.175,25.534Zm1.132,0c-.019.2-.1.55.209.553.352.078.38-.314.307-.556A4.828,4.828,0,0,0,16.308,25.533Zm2.253.006a.8.8,0,0,0,.025.481c.148.093.332.038.5.044a.908.908,0,0,0-.029-.5A.731.731,0,0,0,18.561,25.54Zm1.126-.005c-.017.193-.105.545.2.551.353.086.4-.314.313-.557C20.027,25.522,19.858,25.524,19.687,25.534Zm1.114,0c-.044.231-.045.61.3.555.313,0,.254-.355.223-.56A4.11,4.11,0,0,0,20.8,25.536Zm1.161.482a.457.457,0,0,0,.46.015.727.727,0,0,0,.027-.5l-.315-.028C21.883,25.521,21.849,25.847,21.962,26.019Zm1.074-.285a.291.291,0,0,0,.414.333c.237-.053.142-.366.122-.533C23.383,25.5,23.043,25.454,23.036,25.734Zm-14.843.354c-.052.122.106.326.238.284C8.5,26.242,8.332,26.036,8.193,26.087Zm.717.172c.043.179.1.475.351.418.244.047.287-.244.34-.41a2.893,2.893,0,0,0-.345-.219A3.314,3.314,0,0,0,8.91,26.259Zm1.124,0c.048.175.1.473.348.416.244.046.292-.243.344-.411a2.959,2.959,0,0,0-.352-.218A3.276,3.276,0,0,0,10.034,26.261Zm1.32-.143c-.284.12-.165.6.142.559.25.053.31-.237.353-.415C11.7,26.188,11.527,25.954,11.354,26.118Zm1.076.041a.289.289,0,0,0,.2.518c.251.057.3-.24.348-.414C12.813,26.16,12.6,25.938,12.43,26.159Zm.976.112c.049.168.1.451.342.406.25.052.311-.239.347-.419a3.235,3.235,0,0,0-.34-.209A2.661,2.661,0,0,0,13.406,26.271Zm1.123,0c.051.167.105.449.345.407.251.056.306-.241.345-.42a3.363,3.363,0,0,0-.342-.208A2.827,2.827,0,0,0,14.529,26.27Zm1.206.265c.079.184.3.126.461.158q.084-.215.15-.435A3.113,3.113,0,0,0,16,26.048C15.8,26.1,15.58,26.331,15.735,26.535Zm1.234-.408a.293.293,0,0,0,.151.549c.25.051.32-.237.346-.422C17.311,26.181,17.136,25.945,16.97,26.127Zm1.133-.006a.281.281,0,0,0-.12.408.313.313,0,0,0,.57-.065C18.64,26.229,18.3,25.933,18.1,26.121Zm1.008.412c.082.178.3.133.456.162.078-.16.215-.411.012-.539C19.367,25.876,18.91,26.279,19.111,26.533Zm1.231-.4c-.354.188-.024.7.312.528C21.035,26.487,20.654,25.85,20.342,26.13Zm1.118,0c-.308.17-.071.643.248.539.222-.005.205-.274.255-.425C21.807,26.17,21.624,25.944,21.46,26.134Zm1.134-.01c-.116.09-.235.281-.107.412.112.224.53.188.563-.073C23.142,26.221,22.795,25.931,22.594,26.124Zm.966.291c.164.06.325-.194.258-.333C23.658,26.029,23.459,26.274,23.56,26.415Zm-14.083.562c.228,0,.457.005.685,0-.075-.16-.164-.374-.381-.326C9.588,26.637,9.55,26.844,9.477,26.977Zm1.13,0q.336,0,.671,0c-.068-.14-.115-.346-.314-.332C10.75,26.605,10.67,26.816,10.607,26.977Zm1.129-.04a1.957,1.957,0,0,0,.673.035c-.077-.137-.129-.343-.326-.327C11.9,26.62,11.786,26.777,11.737,26.938Zm1.437-.291c-.2-.019-.251.191-.323.331.228,0,.456,0,.684,0C13.461,26.823,13.387,26.606,13.173,26.646Zm.806.331c.222,0,.444,0,.665-.006-.031-.077-.093-.228-.125-.3A.4.4,0,0,0,13.98,26.977Zm1.122,0c.222.005.444,0,.666,0l-.115-.307A.4.4,0,0,0,15.1,26.977Zm1.127,0c.219,0,.437,0,.656,0l-.107-.315A.41.41,0,0,0,16.229,26.977Zm1.3-.308a1.87,1.87,0,0,0-.178.307c.222.005.442,0,.664,0-.04-.106-.08-.211-.12-.316A2.313,2.313,0,0,0,17.53,26.67Zm.952.309c.221,0,.441,0,.662,0-.04-.107-.081-.215-.122-.321C18.769,26.616,18.528,26.692,18.482,26.978Zm1.3-.307a.944.944,0,0,0-.173.307c.221,0,.441,0,.663,0l-.123-.315A2.106,2.106,0,0,0,19.781,26.672Zm1.121,0a1.122,1.122,0,0,0-.169.3c.219,0,.437,0,.657,0-.038-.106-.075-.212-.112-.316A1.712,1.712,0,0,0,20.9,26.674Zm1.126,0a1.254,1.254,0,0,0-.17.308c.22,0,.44,0,.661,0-.039-.106-.078-.211-.116-.316A2.087,2.087,0,0,0,22.028,26.67Zm-13.261.018" style="fill:#f9f8f5"/><path d="M15.768,9.172c.154,0,.309,0,.463,0,.071.2.049.52-.227.523S15.72,9.374,15.768,9.172Z" style="fill:#f9f8f5"/><path d="M15.318,2.291A7.18,7.18,0,0,1,21.729,5.1c.531.654.792,1.487,1.373,2.1a3.183,3.183,0,0,0,2.4,1.2A3.34,3.34,0,0,1,28.127,9.45a3.056,3.056,0,0,1,.525,2.312q-.966,7.149-1.924,14.3a4.346,4.346,0,0,1-4.39,3.68H9.667a4.364,4.364,0,0,1-4.374-3.62Q4.32,19.1,3.36,12.074A3.211,3.211,0,0,1,3.831,9.7,3.654,3.654,0,0,1,6.593,8.414a3.316,3.316,0,0,0,2.463-1.36C9.521,6.5,9.764,5.8,10.2,5.231A7.167,7.167,0,0,1,15.318,2.291Zm-.207,1.63a5.571,5.571,0,1,0,4.085.942A5.586,5.586,0,0,0,15.111,3.921Zm-8.6,7.232a.8.8,0,0,0-.638.411,1.526,1.526,0,0,0-.032.99q.872,6.538,1.742,13.074a2.04,2.04,0,0,0,2.078,1.766c4.329-.007,8.657,0,12.984-.006a2.046,2.046,0,0,0,1.775-1.751q.869-6.527,1.755-13.054c.054-.406.173-.917-.182-1.223-.4-.328-.945-.2-1.415-.223a3.369,3.369,0,0,0-1.729.218,1.865,1.865,0,0,0-.706.93,6.77,6.77,0,0,1-4.466,3.71,6.922,6.922,0,0,1-4.2-.283A6.8,6.8,0,0,1,9.8,12.13a1.5,1.5,0,0,0-1.35-.989C7.807,11.142,7.16,11.12,6.515,11.153Z" style="fill:#171717"/><path d="M22.548,30q-.108,0-.217-.006H9.674a4.639,4.639,0,0,1-4.633-3.837q-.623-4.5-1.238-8.988-.348-2.53-.7-5.06a3.432,3.432,0,0,1,.52-2.561A3.944,3.944,0,0,1,6.578,8.159h.013A3.041,3.041,0,0,0,8.856,6.895a5.637,5.637,0,0,0,.595-.933A6.984,6.984,0,0,1,10,5.076a7.419,7.419,0,0,1,11.932-.129,6.777,6.777,0,0,1,.636,1,5.216,5.216,0,0,0,.721,1.083,2.977,2.977,0,0,0,2.2,1.123,3.559,3.559,0,0,1,2.835,1.134,3.271,3.271,0,0,1,.581,2.5Q28.5,14.8,28.1,17.808c-.364,2.716-.741,5.524-1.116,8.286A4.605,4.605,0,0,1,22.548,30ZM9.661,29.483H22.352a4.066,4.066,0,0,0,4.122-3.458c.376-2.762.752-5.57,1.116-8.286q.4-3.006.808-6.013a2.853,2.853,0,0,0-.468-2.114A3.165,3.165,0,0,0,25.5,8.666a3.47,3.47,0,0,1-2.587-1.289A5.673,5.673,0,0,1,22.12,6.2a6.266,6.266,0,0,0-.59-.933l-.007-.009a6.919,6.919,0,0,0-6.179-2.71h0A6.905,6.905,0,0,0,10.41,5.38a6.51,6.51,0,0,0-.511.829,6.1,6.1,0,0,1-.647,1.01A3.542,3.542,0,0,1,6.6,8.67,3.446,3.446,0,0,0,4.036,9.855a3.014,3.014,0,0,0-.423,2.186q.348,2.528.7,5.059.617,4.492,1.238,8.984a4.109,4.109,0,0,0,4.108,3.4Zm-.109-1.83a2.3,2.3,0,0,1-2.218-2c-.407-3.082-.827-6.223-1.233-9.26q-.254-1.9-.509-3.807c-.007-.062-.017-.122-.026-.183a1.407,1.407,0,0,1,.086-.962,1.047,1.047,0,0,1,.831-.544l.019,0c.464-.024.932-.02,1.385-.016.189,0,.377,0,.566,0a1.746,1.746,0,0,1,1.587,1.149,6.516,6.516,0,0,0,3.532,3.441,6.669,6.669,0,0,0,4.048.272,6.554,6.554,0,0,0,4.293-3.567,2.1,2.1,0,0,1,.807-1.044,2.385,2.385,0,0,1,1.4-.255c.157,0,.306.008.45,0H24.6c.109.006.226,0,.35,0a1.7,1.7,0,0,1,1.214.282A1.368,1.368,0,0,1,26.45,12.5c-.006.041-.012.082-.017.121-.627,4.624-1.2,8.894-1.755,13.054a2.3,2.3,0,0,1-2,1.971H22.65c-2.285,0-4.608,0-6.854,0q-3.061,0-6.122,0C9.633,27.652,9.592,27.654,9.552,27.654ZM6.538,11.408a.554.554,0,0,0-.43.265L6.1,11.7a.972.972,0,0,0-.026.631c.011.067.021.133.029.2q.253,1.9.508,3.8c.406,3.037.826,6.178,1.234,9.268a1.794,1.794,0,0,0,1.807,1.544h.017q3.066-.005,6.131,0c2.242,0,4.56,0,6.84,0a1.8,1.8,0,0,0,1.535-1.521c.555-4.168,1.129-8.438,1.756-13.062.005-.041.012-.083.018-.126.058-.4.084-.7-.114-.869a1.288,1.288,0,0,0-.869-.161c-.124,0-.253.007-.38,0-.159.007-.32,0-.476,0a1.933,1.933,0,0,0-1.115.178l-.012.007a1.656,1.656,0,0,0-.6.811,6.982,6.982,0,0,1-4.637,3.854,7.184,7.184,0,0,1-4.362-.294,7.03,7.03,0,0,1-3.813-3.718l0-.01A1.249,1.249,0,0,0,8.452,11.4c-.188,0-.379,0-.57,0C7.44,11.389,6.983,11.386,6.538,11.408ZM16,15.233a5.731,5.731,0,0,1-2.633-.635,5.819,5.819,0,0,1,1.7-10.929A5.819,5.819,0,1,1,16,15.233ZM16,4.1a5.131,5.131,0,0,0-.848.07h0A5.308,5.308,0,1,0,17.642,14.46a5.371,5.371,0,0,0,3.127-2.723A5.314,5.314,0,0,0,16,4.1Z" style="fill:#c2c2c2"/><path d="M15.342,4.368a5.1,5.1,0,0,1,4.427,8.5,5.12,5.12,0,0,1-7.54,0,5.1,5.1,0,0,1,3.113-8.5Zm-.438.477c.045.169.092.338.138.508l-.255.054c-.039-.166-.077-.33-.112-.5a8.108,8.108,0,0,0-.921.379q.136.221.275.441l-.246.122-.233-.438a8.689,8.689,0,0,0-.79.6,10.53,10.53,0,0,1,.754.756c-.057.064-.122.122-.183.181-.244-.263-.5-.514-.753-.766-.2.255-.394.513-.585.776l.441.233c-.041.082-.08.166-.116.25-.154-.092-.313-.176-.47-.263-.122.3-.239.595-.358.893.171.044.341.089.513.132-.03.085-.058.17-.088.255q-.248-.072-.5-.135c-.042.325-.084.65-.112.976.358,0,.715,0,1.073-.009,0,.065,0,.2,0,.262-.357,0-.714,0-1.071-.007a8.484,8.484,0,0,0,.135.961l.475-.143.09.26c-.169.045-.337.09-.5.133q.167.451.364.889.21-.124.418-.253.089.112.181.224l-.456.256a8.846,8.846,0,0,0,.591.76c.248-.25.5-.5.745-.752l.2.2c-.258.243-.507.5-.751.753a4.7,4.7,0,0,0,6.42-.005q-.383-.389-.774-.774c.079-.047.155-.1.238-.142.258.224.483.481.727.72a9.279,9.279,0,0,0,.593-.762c-.153-.084-.306-.17-.457-.254l.18-.23.409.266c.139-.292.263-.59.374-.892-.169-.046-.336-.092-.5-.14l.085-.245.5.115c.037-.314.081-.626.121-.94-.358,0-.714,0-1.071,0-.007-.063-.019-.19-.026-.253.363,0,.726,0,1.089,0-.03-.327-.074-.652-.12-.976-.165.045-.329.091-.492.139-.03-.086-.059-.172-.088-.258l.512-.131c-.118-.3-.236-.6-.359-.893-.156.084-.313.17-.467.259l-.119-.241c.131-.069.264-.136.39-.215-.073-.318-.361-.541-.544-.8-.252.266-.511.526-.772.784-.05-.068-.1-.138-.141-.209a9.8,9.8,0,0,1,.742-.744c-.25-.213-.511-.412-.779-.6-.1.166-.2.327-.312.487-.249-.2-.008-.422.082-.627-.3-.136-.6-.262-.907-.369-.036.168-.073.334-.109.5l-.26-.061c.047-.168.1-.335.143-.5q-.484-.084-.975-.123c0,.344.013.689-.009,1.033l-.241.063c0-.366,0-.731,0-1.1C15.55,4.75,15.225,4.788,14.9,4.845Z" style="fill:#4f4f4f"/><path d="M16.027,8.686c.416-.782.769-1.6,1.2-2.37.308-.055.158.266.1.427-.275.715-.537,1.435-.811,2.15A.8.8,0,0,1,16.6,9.8a.714.714,0,0,1-1.262-.139A.751.751,0,0,1,16.027,8.686Zm-.259.485c-.048.2-.049.524.236.524s.3-.323.227-.523C16.077,9.169,15.922,9.169,15.768,9.172Z" style="fill:#a2a2a2"/><path d="M6.673,11.625c.22,0,.44,0,.661,0-.119.109-.231.275-.419.225A3,3,0,0,1,6.673,11.625Z" style="fill:#51555a"/><path d="M7.8,11.628c.222-.007.445-.007.666,0-.123.106-.237.282-.426.218A3.035,3.035,0,0,1,7.8,11.628Z" style="fill:#51555a"/><path d="M23.552,11.629c.22-.008.439-.008.659,0a3,3,0,0,1-.244.226C23.781,11.9,23.67,11.737,23.552,11.629Z" style="fill:#51555a"/><path d="M24.677,11.628c.218-.007.437-.007.656,0a3.222,3.222,0,0,1-.242.231C24.9,11.9,24.794,11.739,24.677,11.628Z" style="fill:#51555a"/><path d="M6.232,11.857c.178-.024.472-.058.488.2.087.286-.206.347-.419.363Q6.261,12.137,6.232,11.857Z" style="fill:#51555a"/><path d="M7.542,11.828c.348-.066.44.53.09.571C7.227,12.527,7.142,11.83,7.542,11.828Z" style="fill:#51555a"/><path d="M8.669,11.826c.356-.061.435.557.073.575C8.345,12.509,8.277,11.825,8.669,11.826Z" style="fill:#51555a"/><path d="M25.552,11.831c.383-.084.291.693-.053.569C25.178,12.356,25.224,11.808,25.552,11.831Z" style="fill:#51555a"/><path d="M23.165,11.86c.13-.052.349-.055.4.1a.286.286,0,0,1-.316.43C22.99,12.375,22.955,11.974,23.165,11.86Z" style="fill:#51555a"/><path d="M24.3,11.858c.345-.213.631.386.274.518C24.24,12.563,23.977,12.023,24.3,11.858Z" style="fill:#51555a"/><path d="M6.949,12.407c.216-.058.462.236.317.431a.3.3,0,0,1-.526,0C6.621,12.673,6.769,12.443,6.949,12.407Z" style="fill:#51555a"/><path d="M8.072,12.408c.394-.1.5.6.067.575C7.778,13.046,7.716,12.457,8.072,12.408Z" style="fill:#51555a"/><path d="M9.2,12.406c.388-.078.492.624.059.578C8.9,13.029,8.847,12.459,9.2,12.406Z" style="fill:#51555a"/><path d="M22.415,12.773c.091-.14.146-.339.33-.382.244.012.428.326.229.51C22.8,13.1,22.543,12.934,22.415,12.773Z" style="fill:#51555a"/><path d="M23.815,12.412c.355-.111.515.5.152.566A.293.293,0,1,1,23.815,12.412Z" style="fill:#51555a"/><path d="M24.938,12.411c.221-.071.473.219.329.427a.3.3,0,1,1-.329-.427Z" style="fill:#51555a"/><path d="M6.375,12.922c.142.069.369.111.355.317.037.184-.159.265-.279.357C6.415,13.372,6.391,13.147,6.375,12.922Z" style="fill:#51555a"/><path d="M7.381,12.974h.372a1.121,1.121,0,0,1,.085.53,1.914,1.914,0,0,1-.546,0A1.124,1.124,0,0,1,7.381,12.974Z" style="fill:#51555a"/><path d="M8.523,12.948c.159.035.437.014.447.244a.288.288,0,0,1-.441.311C8.3,13.387,8.451,13.117,8.523,12.948Z" style="fill:#51555a"/><path d="M9.547,13.5a.943.943,0,0,1,.114-.577,5.052,5.052,0,0,1,.335.527C9.92,13.634,9.692,13.489,9.547,13.5Z" style="fill:#51555a"/><path d="M21.981,13.529a4.428,4.428,0,0,1,.355-.564.567.567,0,0,1,.119.539C22.3,13.519,22.139,13.528,21.981,13.529Z" style="fill:#51555a"/><path d="M23.136,12.975h.36c.191.217.112.636-.229.57C22.965,13.514,23.013,13.164,23.136,12.975Z" style="fill:#51555a"/><path d="M24.259,12.975h.361c.032.131.174.264.09.4a.292.292,0,0,1-.532,0C24.108,13.242,24.223,13.106,24.259,12.975Z" style="fill:#51555a"/><path d="M25.293,13.175c0-.188.236-.19.37-.228q-.044.331-.1.661C25.422,13.5,25.205,13.4,25.293,13.175Z" style="fill:#51555a"/><path d="M6.769,13.66c.183-.288.67.006.511.294-.065.215-.31.145-.479.174C6.768,13.978,6.626,13.8,6.769,13.66Z" style="fill:#51555a"/><path d="M7.955,13.6c.221-.183.586.1.454.353a.307.307,0,0,1-.554.009A.285.285,0,0,1,7.955,13.6Z" style="fill:#51555a"/><path d="M8.978,13.955c-.171-.294.34-.585.513-.287.134.133,0,.313-.031.459C9.291,14.1,9.047,14.17,8.978,13.955Z" style="fill:#51555a"/><path d="M22.516,13.673c.144-.27.617-.075.535.222-.029.256-.319.22-.507.229C22.514,13.977,22.389,13.809,22.516,13.673Z" style="fill:#51555a"/><path d="M23.688,13.6a.307.307,0,0,1,.487.29.3.3,0,0,1-.57.051C23.528,13.828,23.613,13.7,23.688,13.6Z" style="fill:#51555a"/><path d="M24.763,13.676a.3.3,0,0,1,.535.218c-.024.262-.319.221-.508.228C24.764,13.977,24.644,13.811,24.763,13.676Z" style="fill:#51555a"/><path d="M10.057,13.642a3.759,3.759,0,0,1,.466.471c-.118,0-.236,0-.355.005A4.235,4.235,0,0,1,10.057,13.642Z" style="fill:#51555a"/><path d="M21.509,14.169a2.288,2.288,0,0,1,.431-.529A.435.435,0,0,1,21.509,14.169Z" style="fill:#51555a"/><path d="M6.488,14.1l.231.129a3.877,3.877,0,0,1-.04.461A1.946,1.946,0,0,1,6.488,14.1Z" style="fill:#51555a"/><path d="M7.289,14.612c0-.188-.031-.507.237-.509.294-.08.458.391.214.531C7.606,14.766,7.436,14.64,7.289,14.612Z" style="fill:#51555a"/><path d="M8.52,14.635c-.254-.142-.075-.616.219-.531.262.013.227.318.236.5C8.826,14.638,8.655,14.77,8.52,14.635Z" style="fill:#51555a"/><path d="M9.694,14.11c.16-.04.373.013.4.2a.29.29,0,0,1-.447.325A.316.316,0,0,1,9.694,14.11Z" style="fill:#51555a"/><path d="M22.065,14.141l.273-.075c.093.172.264.448.016.575-.136.121-.3,0-.446-.032C21.938,14.448,21.849,14.2,22.065,14.141Z" style="fill:#51555a"/><path d="M23.187,14.142l.277-.075c.094.174.26.449.011.577-.136.123-.3-.011-.445-.041C23.062,14.445,22.98,14.2,23.187,14.142Z" style="fill:#51555a"/><path d="M24.313,14.117a.3.3,0,0,1,.406.193c.105.216-.187.489-.39.36A.31.31,0,0,1,24.313,14.117Z" style="fill:#51555a"/><path d="M25.313,14.674a.525.525,0,0,1,.2-.617C25.481,14.271,25.523,14.537,25.313,14.674Z" style="fill:#51555a"/><path d="M10.636,14.28a4.076,4.076,0,0,1,.423.458c-.125-.041-.249-.083-.372-.128C10.669,14.5,10.652,14.39,10.636,14.28Z" style="fill:#51555a"/><path d="M21.347,14.343c.113.045-.006.2-.051.263s-.239.194-.275.058A.611.611,0,0,1,21.347,14.343Z" style="fill:#51555a"/><path d="M6.8,14.705c.139,0,.278,0,.418,0,.033.144.167.313.031.445a.3.3,0,0,1-.477.007C6.626,15.027,6.761,14.85,6.8,14.705Z" style="fill:#51555a"/><path d="M7.921,14.705c.139,0,.277,0,.416,0,.017.123.149.258.073.378a.3.3,0,0,1-.519.071C7.752,15.025,7.888,14.849,7.921,14.705Z" style="fill:#51555a"/><path d="M9.044,14.707c.14,0,.279,0,.419,0,.032.143.164.318.03.449a.3.3,0,0,1-.474.006C8.872,15.031,9.01,14.852,9.044,14.707Z" style="fill:#51555a"/><path d="M10.106,14.861c.067-.211.3-.143.473-.17.038.148.179.32.041.46C10.447,15.45,9.929,15.158,10.106,14.861Z" style="fill:#51555a"/><path d="M21.42,14.7c.19.007.477-.03.506.23.088.3-.392.486-.539.222C21.256,15.012,21.39,14.843,21.42,14.7Z" style="fill:#51555a"/><path d="M22.569,14.732c.177-.1.466-.033.481.2.091.3-.4.482-.542.215A.305.305,0,0,1,22.569,14.732Z" style="fill:#51555a"/><path d="M23.665,14.7c.19,0,.489-.032.509.233.086.3-.388.479-.537.221C23.515,15.016,23.642,14.841,23.665,14.7Z" style="fill:#51555a"/><path d="M24.8,14.694c.187.009.484-.029.5.234.1.3-.4.481-.538.218C24.64,15.008,24.768,14.84,24.8,14.694Z" style="fill:#51555a"/><path d="M11.169,14.835c.182.121.356.254.526.391C11.409,15.366,11.16,15.134,11.169,14.835Z" style="fill:#51555a"/><path d="M20.323,15.233a5.625,5.625,0,0,1,.512-.38A.361.361,0,0,1,20.323,15.233Z" style="fill:#51555a"/><path d="M7.462,15.252a.3.3,0,0,1,.383.373.284.284,0,0,1-.46.148A.307.307,0,0,1,7.462,15.252Z" style="fill:#51555a"/><path d="M8.581,15.256c.345-.168.574.422.232.562C8.459,15.99,8.214,15.387,8.581,15.256Z" style="fill:#51555a"/><path d="M9.705,15.259c.34-.174.581.42.231.559C9.583,15.989,9.34,15.387,9.705,15.259Z" style="fill:#51555a"/><path d="M10.833,15.257c.339-.167.582.433.22.562C10.7,15.986,10.474,15.376,10.833,15.257Z" style="fill:#51555a"/><path d="M20.795,15.329c.216-.147.557-.11.573.205-.008.324-.36.359-.576.206C20.792,15.6,20.793,15.466,20.795,15.329Z" style="fill:#51555a"/><path d="M21.908,15.329c.148-.032.32-.172.456-.034.307.178,0,.7-.3.513C21.86,15.733,21.933,15.5,21.908,15.329Z" style="fill:#51555a"/><path d="M23.045,15.328c.143-.036.311-.168.444-.033a.294.294,0,0,1,.01.478c-.125.154-.314,0-.457-.033C23.042,15.6,23.043,15.465,23.045,15.328Z" style="fill:#51555a"/><path d="M24.324,15.264a.275.275,0,0,1,.392.174c.118.221-.188.517-.4.368A.3.3,0,0,1,24.324,15.264Z" style="fill:#51555a"/><path d="M11.8,15.311a5.159,5.159,0,0,1,.586.412c-.158.039-.355.206-.5.048C11.727,15.676,11.811,15.458,11.8,15.311Z" style="fill:#51555a"/><path d="M19.627,15.719c.189-.142.386-.273.586-.4,0,.151.065.363-.1.46C19.972,15.929,19.78,15.757,19.627,15.719Z" style="fill:#51555a"/><path d="M6.812,15.862c.158-.04.387-.069.458.122.15.206-.094.365-.238.472L6.8,16.341A1.372,1.372,0,0,1,6.812,15.862Z" style="fill:#51555a"/><path d="M7.858,15.989c.072-.2.308-.134.473-.161.031.129.127.255.093.393a2.687,2.687,0,0,1-.291.259C7.983,16.36,7.713,16.22,7.858,15.989Z" style="fill:#51555a"/><path d="M9.084,15.861c.149-.048.37-.058.434.121.183.264-.242.6-.458.363A.3.3,0,0,1,9.084,15.861Z" style="fill:#51555a"/><path d="M10.2,15.861c.154-.049.375-.057.441.125.166.222-.176.553-.393.4A.3.3,0,0,1,10.2,15.861Z" style="fill:#51555a"/><path d="M11.2,16.05a.317.317,0,0,1,.573-.067c.158.222-.118.379-.266.5C11.377,16.357,11.14,16.269,11.2,16.05Z" style="fill:#51555a"/><path d="M12.454,15.873c.168-.119.381.024.483.168.06.265-.3.512-.5.3A.284.284,0,0,1,12.454,15.873Z" style="fill:#51555a"/><path d="M19.3,15.861a.246.246,0,0,1,.346.123c.185.27-.25.594-.467.359A.273.273,0,0,1,19.3,15.861Z" style="fill:#51555a"/><path d="M20.371,16.382a.287.287,0,0,1,.122-.548c.255-.06.3.241.348.42C20.691,16.31,20.534,16.509,20.371,16.382Z" style="fill:#51555a"/><path d="M21.335,16.049a.308.308,0,0,1,.591,0c.074.226-.174.311-.308.431C21.509,16.358,21.246,16.249,21.335,16.049Z" style="fill:#51555a"/><path d="M22.625,16.382a.285.285,0,0,1,.114-.547c.259-.063.309.238.348.421C22.94,16.31,22.785,16.5,22.625,16.382Z" style="fill:#51555a"/><path d="M23.742,16.38a.287.287,0,0,1,.12-.545c.261-.062.309.241.351.424C24.064,16.317,23.906,16.506,23.742,16.38Z" style="fill:#51555a"/><path d="M24.754,16.274c-.172-.206.092-.539.342-.432.263.037.1.374.121.543C25.061,16.4,24.837,16.455,24.754,16.274Z" style="fill:#51555a"/><path d="M13.416,16.2a1.372,1.372,0,0,1,.548.236A.617.617,0,0,1,13.416,16.2Z" style="fill:#51555a"/><path d="M18.486,16.2c.206.113-.3.429-.344.184C18.185,16.237,18.356,16.2,18.486,16.2Z" style="fill:#51555a"/><path d="M7.288,16.452a.763.763,0,0,1,.56,0,.942.942,0,0,1-.108.516H7.4A.876.876,0,0,1,7.288,16.452Z" style="fill:#51555a"/><path d="M8.411,16.45a.845.845,0,0,1,.563,0,.99.99,0,0,1-.108.519H8.519A.952.952,0,0,1,8.411,16.45Z" style="fill:#51555a"/><path d="M9.65,16.43c.134-.116.3,0,.445.024a.845.845,0,0,1-.11.515H9.647C9.552,16.806,9.429,16.546,9.65,16.43Z" style="fill:#51555a"/><path d="M10.662,16.446a.855.855,0,0,1,.562.005,1.041,1.041,0,0,1-.105.518h-.354A.982.982,0,0,1,10.662,16.446Z" style="fill:#51555a"/><path d="M11.787,16.447a.879.879,0,0,1,.559,0,.955.955,0,0,1-.107.522H11.9A.865.865,0,0,1,11.787,16.447Z" style="fill:#51555a"/><path d="M13.024,16.969c-.2-.218-.146-.6.2-.606.313.058.31.4.141.6Z" style="fill:#51555a"/><path d="M18.533,16.452a.836.836,0,0,1,.558-.007.9.9,0,0,1-.114.554c-.146-.033-.314-.031-.42-.153A3.613,3.613,0,0,1,18.533,16.452Z" style="fill:#51555a"/><path d="M19.663,16.455c.17-.051.366-.13.515.016.139.179,0,.359-.08.526-.145-.032-.311-.031-.417-.151C19.669,16.715,19.663,16.586,19.663,16.455Z" style="fill:#51555a"/><path d="M20.779,16.46c.173-.055.372-.141.524.013.13.167.006.336-.066.495h-.351A1.144,1.144,0,0,1,20.779,16.46Z" style="fill:#51555a"/><path d="M21.91,16.456a.775.775,0,0,1,.551-.013.736.736,0,0,1-.116.557c-.144-.034-.31-.035-.413-.157Q21.911,16.649,21.91,16.456Z" style="fill:#51555a"/><path d="M23.038,16.456c.17-.053.364-.132.513.015.143.179,0,.359-.08.527a.733.733,0,0,1-.416-.152C23.044,16.716,23.038,16.586,23.038,16.456Z" style="fill:#51555a"/><path d="M24.161,16.451a.908.908,0,0,1,.547-.014A.76.76,0,0,1,24.6,17c-.146-.034-.313-.035-.418-.157C24.167,16.711,24.161,16.582,24.161,16.451Z" style="fill:#51555a"/><path d="M14.042,16.432c.2.047.52-.045.585.221-.041.106-.087.211-.137.314l-.346,0A.86.86,0,0,1,14.042,16.432Z" style="fill:#51555a"/><path d="M17.409,16.5a3.374,3.374,0,0,1,.517-.044c.119.178.021.353-.064.516h-.347A.885.885,0,0,1,17.409,16.5Z" style="fill:#51555a"/><path d="M15.1,16.615c.226.012.452.031.678.052-.062.108-.126.217-.189.324A.45.45,0,0,1,15.1,16.615Z" style="fill:#51555a"/><path d="M16.222,16.672q.34-.038.683-.056c-.059.127-.122.251-.185.376A.494.494,0,0,1,16.222,16.672Z" style="fill:#51555a"/><path d="M6.889,16.928c.157.043.349.071.414.247.074.208-.134.338-.283.427A2.018,2.018,0,0,1,6.889,16.928Z" style="fill:#51555a"/><path d="M7.965,17.011c.273-.238.684.277.358.47C8.043,17.795,7.583,17.212,7.965,17.011Z" style="fill:#51555a"/><path d="M9.087,17.012c.269-.238.675.255.368.464C9.181,17.8,8.706,17.224,9.087,17.012Z" style="fill:#51555a"/><path d="M10.212,17.012c.264-.236.678.259.372.462C10.306,17.8,9.832,17.225,10.212,17.012Z" style="fill:#51555a"/><path d="M11.344,17c.224-.168.552.109.46.364-.1.128-.294.3-.449.146A.287.287,0,0,1,11.344,17Z" style="fill:#51555a"/><path d="M12.457,17.016c.173-.166.5.022.478.248.02.177-.18.273-.318.324C12.355,17.524,12.193,17.191,12.457,17.016Z" style="fill:#51555a"/><path d="M13.585,17.015c.173-.164.5.028.475.252.027.173-.178.259-.3.321C13.486,17.544,13.311,17.179,13.585,17.015Z" style="fill:#51555a"/><path d="M14.708,17.013c.268-.24.683.255.373.462C14.807,17.8,14.333,17.228,14.708,17.013Z" style="fill:#51555a"/><path d="M15.835,17.014a.3.3,0,0,1,.473.252c.026.175-.178.272-.314.322C15.729,17.529,15.569,17.183,15.835,17.014Z" style="fill:#51555a"/><path d="M16.955,17.016a.3.3,0,0,1,.478.25c.027.174-.176.268-.308.32C16.857,17.542,16.7,17.184,16.955,17.016Z" style="fill:#51555a"/><path d="M18.084,17.016c.272-.247.685.255.369.467C18.177,17.789,17.713,17.228,18.084,17.016Z" style="fill:#51555a"/><path d="M19.2,17.021c.264-.26.7.245.378.458C19.306,17.789,18.847,17.242,19.2,17.021Z" style="fill:#51555a"/><path d="M20.329,17.018c.268-.253.689.248.377.459C20.43,17.8,19.97,17.24,20.329,17.018Z" style="fill:#51555a"/><path d="M21.456,17.018c.271-.253.685.251.372.463C21.551,17.789,21.093,17.233,21.456,17.018Z" style="fill:#51555a"/><path d="M22.579,17.019a.3.3,0,0,1,.475.253c.018.208-.312.413-.468.23A.286.286,0,0,1,22.579,17.019Z" style="fill:#51555a"/><path d="M23.7,17.019c.275-.263.692.262.369.468C23.794,17.782,23.355,17.238,23.7,17.019Z" style="fill:#51555a"/><path d="M24.719,17.177c.047-.186.251-.2.4-.251-.019.231-.04.462-.075.691C24.895,17.53,24.6,17.4,24.719,17.177Z" style="fill:#51555a"/><path d="M9.553,17.567a1.4,1.4,0,0,1,.533.005c.01.186.064.531-.219.528C9.529,18.181,9.494,17.8,9.553,17.567Z" style="fill:#51555a"/><path d="M10.675,17.567a1.565,1.565,0,0,1,.534,0c.046.229.02.614-.319.529C10.605,18.1,10.663,17.753,10.675,17.567Z" style="fill:#51555a"/><path d="M11.8,17.572a1.457,1.457,0,0,1,.541,0c.037.227.02.614-.317.53C11.735,18.106,11.784,17.759,11.8,17.572Z" style="fill:#51555a"/><path d="M7.3,17.693c.057-.239.362-.153.533-.124.016.186.065.529-.212.529A.284.284,0,0,1,7.3,17.693Z" style="fill:#51555a"/><path d="M8.465,17.594c.219-.193.611,0,.508.3-.019.218-.265.231-.431.193A.352.352,0,0,1,8.465,17.594Z" style="fill:#51555a"/><path d="M12.924,17.57c.167-.024.348-.087.5.029.157.208.011.586-.281.5C12.859,18.1,12.913,17.756,12.924,17.57Z" style="fill:#51555a"/><path d="M14.046,17.57a.675.675,0,0,1,.5.024c.152.211.016.588-.28.506C13.981,18.107,14.046,17.757,14.046,17.57Z" style="fill:#51555a"/><path d="M15.171,17.572c.171-.03.473-.12.535.116a.283.283,0,0,1-.312.411C15.108,18.106,15.167,17.761,15.171,17.572Z" style="fill:#51555a"/><path d="M16.311,17.564c.167-.019.468-.105.521.127a.282.282,0,0,1-.314.408C16.225,18.11,16.294,17.752,16.311,17.564Z" style="fill:#51555a"/><path d="M17.427,17.568c.169-.022.478-.114.533.123a.286.286,0,0,1-.327.409C17.348,18.1,17.426,17.755,17.427,17.568Z" style="fill:#51555a"/><path d="M18.545,17.576c.173-.035.476-.125.54.116a.283.283,0,0,1-.319.406C18.484,18.1,18.543,17.763,18.545,17.576Z" style="fill:#51555a"/><path d="M19.71,17.609a.309.309,0,0,1,.523.285c-.065.337-.664.253-.578-.109C19.669,17.74,19.7,17.652,19.71,17.609Z" style="fill:#51555a"/><path d="M20.807,17.57c.17-.029.473-.114.529.123a.285.285,0,0,1-.315.408C20.73,18.106,20.791,17.761,20.807,17.57Z" style="fill:#51555a"/><path d="M21.965,17.605c.285-.287.728.155.433.434A.308.308,0,0,1,21.965,17.605Z" style="fill:#51555a"/><path d="M23.083,17.6c.292-.285.738.152.44.439A.313.313,0,0,1,23.083,17.6Z" style="fill:#51555a"/><path d="M24.212,17.6a.313.313,0,0,1,.437.448A.313.313,0,0,1,24.212,17.6Z" style="fill:#51555a"/><path d="M7.043,18.054c.1.1.242.186.28.336a1.59,1.59,0,0,1-.18.336C7.1,18.5,7.065,18.279,7.043,18.054Z" style="fill:#51555a"/><path d="M8.041,18.1c.268-.1.556.319.3.506-.154.23-.544.043-.519-.207C7.8,18.254,7.944,18.17,8.041,18.1Z" style="fill:#51555a"/><path d="M9.169,18.1c.27-.084.55.322.3.509A.287.287,0,0,1,9,18.556C8.85,18.391,9.007,18.177,9.169,18.1Z" style="fill:#51555a"/><path d="M10.294,18.1a.347.347,0,0,1,.384.206c.106.279-.32.56-.51.3C9.966,18.463,10.1,18.179,10.294,18.1Z" style="fill:#51555a"/><path d="M11.417,18.1c.172-.067.3.082.391.207.093.284-.334.56-.522.3C11.089,18.452,11.226,18.182,11.417,18.1Z" style="fill:#51555a"/><path d="M12.538,18.1c.275-.093.559.322.3.509a.286.286,0,0,1-.469-.05C12.222,18.4,12.38,18.181,12.538,18.1Z" style="fill:#51555a"/><path d="M13.662,18.1c.274-.1.561.317.3.507-.158.223-.522.045-.521-.2C13.416,18.266,13.563,18.173,13.662,18.1Z" style="fill:#51555a"/><path d="M14.791,18.1c.317-.09.566.4.246.56C14.665,18.905,14.358,18.24,14.791,18.1Z" style="fill:#51555a"/><path d="M15.912,18.1c.314-.11.568.379.259.548C15.806,18.918,15.471,18.244,15.912,18.1Z" style="fill:#51555a"/><path d="M16.917,18.2c.189-.268.611.019.513.3-.071.171-.266.2-.42.246C16.9,18.584,16.7,18.362,16.917,18.2Z" style="fill:#51555a"/><path d="M18.006,18.239c.133-.275.566-.121.551.155.036.241-.252.3-.424.347C18.055,18.589,17.834,18.409,18.006,18.239Z" style="fill:#51555a"/><path d="M19.125,18.249a.3.3,0,0,1,.557.143c.036.241-.248.3-.421.349C19.182,18.592,18.966,18.42,19.125,18.249Z" style="fill:#51555a"/><path d="M20.412,18.105c.165-.075.3.066.39.187.108.293-.322.581-.518.309C20.1,18.449,20.227,18.188,20.412,18.105Z" style="fill:#51555a"/><path d="M21.372,18.251a.3.3,0,0,1,.558.141c.037.245-.251.3-.424.351C21.439,18.588,21.214,18.42,21.372,18.251Z" style="fill:#51555a"/><path d="M22.658,18.105a.313.313,0,0,1,.189.6A.313.313,0,0,1,22.658,18.105Z" style="fill:#51555a"/><path d="M23.782,18.105c.371-.133.569.474.192.595A.313.313,0,0,1,23.782,18.105Z" style="fill:#51555a"/><path d="M24.654,18.373a4.44,4.44,0,0,1,.339-.326,4.942,4.942,0,0,1-.134.669Q24.755,18.545,24.654,18.373Z" style="fill:#51555a"/><path d="M7.31,18.7c.192-.034.516-.1.54.187a.285.285,0,0,1-.375.343C7.21,19.2,7.292,18.885,7.31,18.7Z" style="fill:#51555a"/><path d="M8.409,19.043a.292.292,0,0,1,.378-.364c.244.042.173.345.17.523C8.772,19.225,8.45,19.313,8.409,19.043Z" style="fill:#51555a"/><path d="M9.6,18.694a4.225,4.225,0,0,1,.469,0c.011.16.08.341-.024.486a.7.7,0,0,1-.441.04l-.089-.237C9.54,18.886,9.567,18.79,9.6,18.694Z" style="fill:#51555a"/><path d="M10.667,18.87c.029-.261.34-.191.521-.174.011.165.114.431-.093.517A.292.292,0,0,1,10.667,18.87Z" style="fill:#51555a"/><path d="M11.808,19.113a.3.3,0,0,1,.353-.437c.25.051.175.354.17.535C12.162,19.213,11.9,19.31,11.808,19.113Z" style="fill:#51555a"/><path d="M12.973,18.731a.757.757,0,0,1,.469-.036c.014.164.076.347-.032.495a.916.916,0,0,1-.473.026A.681.681,0,0,1,12.973,18.731Z" style="fill:#51555a"/><path d="M14.218,18.677c.406-.175.564.564.127.571C14,19.318,13.9,18.756,14.218,18.677Z" style="fill:#51555a"/><path d="M15.345,18.675c.4-.168.562.579.121.572C15.121,19.315,15.024,18.752,15.345,18.675Z" style="fill:#51555a"/><path d="M16.35,18.737c.138-.108.319-.043.476-.042a2.566,2.566,0,0,1-.006.531.966.966,0,0,1-.48-.044A.4.4,0,0,1,16.35,18.737Z" style="fill:#51555a"/><path d="M17.414,19.057a.294.294,0,0,1,.362-.383c.266.04.193.362.172.549C17.769,19.222,17.463,19.3,17.414,19.057Z" style="fill:#51555a"/><path d="M18.535,18.89c.018-.282.342-.213.531-.2.027.185.11.512-.161.546A.286.286,0,0,1,18.535,18.89Z" style="fill:#51555a"/><path d="M19.842,18.678a.3.3,0,0,1,.384.376c-.052.226-.354.237-.513.121C19.61,19.018,19.628,18.729,19.842,18.678Z" style="fill:#51555a"/><path d="M20.786,19.044a.293.293,0,0,1,.366-.37c.267.039.194.363.171.55C21.138,19.226,20.835,19.3,20.786,19.044Z" style="fill:#51555a"/><path d="M21.971,18.741c.137-.116.427-.118.484.08a.288.288,0,0,1-.33.421C21.882,19.222,21.847,18.9,21.971,18.741Z" style="fill:#51555a"/><path d="M23.1,18.744c.125-.13.421-.118.474.075a.286.286,0,0,1-.323.421C23.012,19.232,22.962,18.888,23.1,18.744Z" style="fill:#51555a"/><path d="M24.224,18.746c.162-.159.5-.092.508.165a.278.278,0,0,1-.357.331C24.137,19.223,24.086,18.9,24.224,18.746Z" style="fill:#51555a"/><path d="M7.786,19.414c.155-.064.322-.29.489-.132a.288.288,0,0,1-.142.547C7.88,19.889,7.837,19.588,7.786,19.414Z" style="fill:#51555a"/><path d="M8.909,19.423c.153-.067.315-.3.486-.146a.291.291,0,0,1-.14.553C9.009,19.88,8.962,19.592,8.909,19.423Z" style="fill:#51555a"/><path d="M10.232,19.279c.157-.138.358.015.447.157a.3.3,0,0,1-.3.392C10.074,19.89,9.947,19.4,10.232,19.279Z" style="fill:#51555a"/><path d="M11.355,19.282c.22-.193.6.17.416.4a.308.308,0,0,1-.538-.005A.277.277,0,0,1,11.355,19.282Z" style="fill:#51555a"/><path d="M12.48,19.282c.16-.142.36.012.45.156.055.187-.089.438-.307.39A.289.289,0,0,1,12.48,19.282Z" style="fill:#51555a"/><path d="M13.608,19.28c.172-.146.335.069.488.137-.046.176-.1.469-.351.412A.29.29,0,0,1,13.608,19.28Z" style="fill:#51555a"/><path d="M14.732,19.281c.172-.154.336.068.491.137-.052.171-.1.47-.346.411A.289.289,0,0,1,14.732,19.281Z" style="fill:#51555a"/><path d="M15.855,19.282c.171-.152.336.065.491.132-.048.175-.094.477-.347.415A.289.289,0,0,1,15.855,19.282Z" style="fill:#51555a"/><path d="M18.1,19.284c.168-.153.336.057.488.126-.041.182-.093.485-.351.419A.289.289,0,0,1,18.1,19.284Z" style="fill:#51555a"/><path d="M19.23,19.282c.166-.15.332.059.486.123-.043.182-.091.489-.351.424A.29.29,0,0,1,19.23,19.282Z" style="fill:#51555a"/><path d="M21.471,19.288c.168-.159.335.048.491.118-.033.185-.087.488-.345.424A.289.289,0,0,1,21.471,19.288Z" style="fill:#51555a"/><path d="M22.615,19.276c.165-.13.323.064.472.124-.028.188-.086.491-.347.429A.29.29,0,0,1,22.615,19.276Z" style="fill:#51555a"/><path d="M23.735,19.279c.164-.139.324.055.474.118-.027.187-.081.5-.342.432A.29.29,0,0,1,23.735,19.279Z" style="fill:#51555a"/><path d="M7.226,19.39c.137.02.161.093.072.216C7.159,19.585,7.136,19.512,7.226,19.39Z" style="fill:#51555a"/><path d="M16.9,19.74c-.227-.2.033-.438.206-.561.119.083.238.167.356.251C17.48,19.733,17.139,19.993,16.9,19.74Z" style="fill:#51555a"/><path d="M20.494,19.829c-.323.038-.412-.471-.1-.566.155-.133.3.1.451.144C20.8,19.587,20.755,19.892,20.494,19.829Z" style="fill:#51555a"/><path d="M24.755,19.674c-.186,0-.1-.379.064-.337A.264.264,0,0,1,24.755,19.674Z" style="fill:#51555a"/><path d="M7.317,20.349c.012-.185-.1-.525.19-.537.3-.1.448.293.293.5A.633.633,0,0,1,7.317,20.349Z" style="fill:#51555a"/><path d="M8.548,19.824c.172-.056.415-.006.425.212a.287.287,0,0,1-.42.327C8.322,20.3,8.36,19.926,8.548,19.824Z" style="fill:#51555a"/><path d="M9.61,19.876c.28-.259.671.149.441.444C9.751,20.583,9.319,20.168,9.61,19.876Z" style="fill:#51555a"/><path d="M10.737,19.875c.315-.317.741.31.349.483C10.779,20.548,10.486,20.109,10.737,19.875Z" style="fill:#51555a"/><path d="M11.858,19.878a.318.318,0,0,1,.415,0c.164.168.1.513-.169.521A.3.3,0,0,1,11.858,19.878Z" style="fill:#51555a"/><path d="M13.045,19.823c.173-.051.413-.008.432.209.1.246-.213.456-.424.329C12.826,20.294,12.862,19.929,13.045,19.823Z" style="fill:#51555a"/><path d="M14.167,19.824c.173-.051.417-.012.434.207a.289.289,0,0,1-.425.329C13.957,20.291,13.987,19.93,14.167,19.824Z" style="fill:#51555a"/><path d="M15.29,19.824c.422-.216.652.529.189.577C15.143,20.451,15.033,19.993,15.29,19.824Z" style="fill:#51555a"/><path d="M16.288,20.338c.007-.187-.055-.524.224-.528.3-.084.446.3.289.509C16.645,20.435,16.459,20.368,16.288,20.338Z" style="fill:#51555a"/><path d="M17.416,20.345c.005-.191-.06-.538.228-.537.288-.076.446.31.279.514A.7.7,0,0,1,17.416,20.345Z" style="fill:#51555a"/><path d="M18.662,19.827c.359-.2.657.4.285.54C18.6,20.552,18.354,20.019,18.662,19.827Z" style="fill:#51555a"/><path d="M19.792,19.826c.358-.2.654.406.279.541C19.728,20.556,19.481,20.007,19.792,19.826Z" style="fill:#51555a"/><path d="M20.914,19.827c.36-.2.652.4.281.541C20.856,20.551,20.6,20.014,20.914,19.827Z" style="fill:#51555a"/><path d="M21.917,20.341c.006-.191-.062-.525.223-.531.29-.085.458.308.283.511C22.269,20.433,22.084,20.365,21.917,20.341Z" style="fill:#51555a"/><path d="M23.164,19.827c.358-.2.66.4.281.541C23.105,20.553,22.857,20.011,23.164,19.827Z" style="fill:#51555a"/><path d="M24.207,20.312c-.135-.209-.02-.57.272-.506.3-.007.205.351.223.542C24.535,20.368,24.353,20.428,24.207,20.312Z" style="fill:#51555a"/><path d="M7.825,20.571a3.035,3.035,0,0,1,.31-.252,2.7,2.7,0,0,1,.3.255c.037.134-.056.259-.089.383H7.917A.909.909,0,0,1,7.825,20.571Z" style="fill:#51555a"/><path d="M9.047,20.958a.348.348,0,0,1,.212-.591c.309.029.362.368.208.589Z" style="fill:#51555a"/><path d="M10.164,20.957c-.151-.225-.1-.569.218-.588.313.022.365.367.211.588Z" style="fill:#51555a"/><path d="M11.207,20.568a2.469,2.469,0,0,1,.3-.249,2.75,2.75,0,0,1,.3.254.776.776,0,0,1-.092.384h-.42C11.259,20.831,11.161,20.7,11.207,20.568Z" style="fill:#51555a"/><path d="M12.419,20.958a.352.352,0,0,1,.208-.592c.312.028.372.366.214.591Z" style="fill:#51555a"/><path d="M13.458,20.576a2.1,2.1,0,0,1,.3-.259,2.837,2.837,0,0,1,.3.252.784.784,0,0,1-.089.387h-.423C13.512,20.833,13.412,20.709,13.458,20.576Z" style="fill:#51555a"/><path d="M14.665,20.956c-.159-.222-.1-.569.216-.587.316.024.368.366.208.59Z" style="fill:#51555a"/><path d="M15.72,20.571a.3.3,0,0,1,.526-.073c.148.121.009.32-.034.46l-.422,0C15.77,20.831,15.636,20.694,15.72,20.571Z" style="fill:#51555a"/><path d="M16.812,20.645c.04-.149.2-.218.3-.316.116.077.233.154.349.235a.671.671,0,0,1-.16.378c-.127.015-.253.025-.381.029A3.3,3.3,0,0,1,16.812,20.645Z" style="fill:#51555a"/><path d="M17.957,20.579a1.967,1.967,0,0,1,.278-.251q.178.115.353.236a.793.793,0,0,1-.152.379c-.129.014-.259.024-.388.028C18.019,20.843,17.9,20.713,17.957,20.579Z" style="fill:#51555a"/><path d="M19.134,20.51a.3.3,0,0,1,.544.23c-.019.263-.317.22-.5.23C19.134,20.819,18.989,20.647,19.134,20.51Z" style="fill:#51555a"/><path d="M20.372,20.412c.165-.114.318.068.465.128a.691.691,0,0,1-.156.4c-.128.014-.255.024-.384.027C20.2,20.786,20.129,20.513,20.372,20.412Z" style="fill:#51555a"/><path d="M21.5,20.41c.161-.111.314.073.459.129a.687.687,0,0,1-.156.4c-.128.014-.255.022-.384.027C21.318,20.785,21.258,20.51,21.5,20.41Z" style="fill:#51555a"/><path d="M22.527,20.41a.67.67,0,0,1,.56.125l-.061.277c-.065.215-.319.128-.483.158A.628.628,0,0,1,22.527,20.41Z" style="fill:#51555a"/><path d="M23.753,20.409c.161-.1.313.066.456.125-.022.193-.081.5-.346.432C23.546,21.008,23.459,20.5,23.753,20.409Z" style="fill:#51555a"/><path d="M7.4,20.952l.348-.011a1.062,1.062,0,0,1,.1.495l-.34.144C7.473,21.371,7.436,21.162,7.4,20.952Z" style="fill:#51555a"/><path d="M8.507,20.945h.368a1.124,1.124,0,0,1,.1.517.723.723,0,0,1-.572,0A1.128,1.128,0,0,1,8.507,20.945Z" style="fill:#51555a"/><path d="M9.634,20.944H10a1.123,1.123,0,0,1,.1.517.694.694,0,0,1-.572,0A1.053,1.053,0,0,1,9.634,20.944Z" style="fill:#51555a"/><path d="M10.762,20.944h.363a1.084,1.084,0,0,1,.1.514.7.7,0,0,1-.569.006A1,1,0,0,1,10.762,20.944Z" style="fill:#51555a"/><path d="M11.883,20.944h.367a1.178,1.178,0,0,1,.105.513.705.705,0,0,1-.575,0A1.129,1.129,0,0,1,11.883,20.944Z" style="fill:#51555a"/><path d="M13.006,20.945l.364,0c.082.166.216.423,0,.543-.139.128-.312,0-.462-.03A1.141,1.141,0,0,1,13.006,20.945Z" style="fill:#51555a"/><path d="M14.131,20.945h.362c.084.166.218.422,0,.541-.139.13-.312,0-.461-.028A1.139,1.139,0,0,1,14.131,20.945Z" style="fill:#51555a"/><path d="M15.258,20.944h.363c.081.165.212.423-.006.541-.14.126-.312,0-.461-.031A1.113,1.113,0,0,1,15.258,20.944Z" style="fill:#51555a"/><path d="M16.428,20.971l.306-.054c.082.174.238.446,0,.571-.138.123-.308,0-.455-.03C16.312,21.293,16.224,21.045,16.428,20.971Z" style="fill:#51555a"/><path d="M17.558,20.971l.3-.055c.085.173.24.453,0,.573-.139.123-.3,0-.452-.034C17.437,21.29,17.347,21.039,17.558,20.971Z" style="fill:#51555a"/><path d="M18.678,20.971l.3-.054c.086.175.242.449,0,.572-.138.128-.307-.006-.454-.037C18.56,21.288,18.475,21.043,18.678,20.971Z" style="fill:#51555a"/><path d="M19.8,20.97l.3-.051c.093.174.249.442.005.569-.139.131-.307,0-.455-.036C19.685,21.287,19.6,21.046,19.8,20.97Z" style="fill:#51555a"/><path d="M20.929,20.971l.3-.053c.085.177.24.439,0,.57-.138.127-.311,0-.458-.034C20.809,21.288,20.725,21.046,20.929,20.971Z" style="fill:#51555a"/><path d="M22.054,20.971l.3-.054c.087.177.243.446,0,.572-.139.126-.308-.005-.454-.036C21.934,21.287,21.85,21.045,22.054,20.971Z" style="fill:#51555a"/><path d="M23.178,20.972l.3-.055c.091.175.249.445.006.571-.139.13-.308,0-.456-.036C23.06,21.287,22.974,21.044,23.178,20.972Z" style="fill:#51555a"/><path d="M24.3,20.968l.3-.044a1.994,1.994,0,0,1-.122.639c-.111-.035-.22-.073-.328-.114C24.177,21.281,24.108,21.051,24.3,20.968Z" style="fill:#51555a"/><path d="M9.2,21.526a.3.3,0,0,1,.293.48c-.141.206-.55.111-.55-.147A.291.291,0,0,1,9.2,21.526Z" style="fill:#51555a"/><path d="M10.329,21.527a.3.3,0,0,1,.357.337.316.316,0,0,1-.548.147A.3.3,0,0,1,10.329,21.527Z" style="fill:#51555a"/><path d="M11.456,21.526a.3.3,0,0,1,.355.336.315.315,0,0,1-.548.147A.3.3,0,0,1,11.456,21.526Z" style="fill:#51555a"/><path d="M12.579,21.527c.357-.094.519.51.14.575C12.312,22.267,12.155,21.559,12.579,21.527Z" style="fill:#51555a"/><path d="M13.7,21.527a.3.3,0,0,1,.362.338c-.006.255-.417.345-.552.14A.3.3,0,0,1,13.7,21.527Z" style="fill:#51555a"/><path d="M14.635,22a.3.3,0,0,1,.288-.478c.232,0,.251.272.3.439C15.046,22.064,14.787,22.223,14.635,22Z" style="fill:#51555a"/><path d="M15.787,21.538c.169.013.429-.062.487.159.017.067.051.2.068.273-.176.1-.43.252-.582.036C15.615,21.871,15.757,21.687,15.787,21.538Z" style="fill:#51555a"/><path d="M16.883,22a.3.3,0,0,1,.289-.474c.235,0,.259.274.294.449C17.291,22.065,17.029,22.221,16.883,22Z" style="fill:#51555a"/><path d="M18.039,21.536c.169.013.426-.059.485.162l.066.272c-.174.1-.433.253-.58.034C17.865,21.866,18,21.687,18.039,21.536Z" style="fill:#51555a"/><path d="M19.165,21.537c.169.015.429-.06.486.162.015.069.047.206.063.276-.174.091-.436.247-.58.027C18.99,21.866,19.132,21.687,19.165,21.537Z" style="fill:#51555a"/><path d="M20.287,21.539c.172.01.428-.061.492.159l.057.281c-.174.087-.438.241-.577.021C20.12,21.863,20.255,21.689,20.287,21.539Z" style="fill:#51555a"/><path d="M21.414,21.539c.167.011.421-.062.485.153l.061.288c-.174.086-.436.239-.576.021C21.239,21.866,21.381,21.69,21.414,21.539Z" style="fill:#51555a"/><path d="M22.536,21.539a.749.749,0,0,1,.519.113c0,.085,0,.254,0,.339-.164.093-.421.218-.547.007C22.373,21.861,22.5,21.689,22.536,21.539Z" style="fill:#51555a"/><path d="M7.947,21.567a.31.31,0,1,1-.061.44A.306.306,0,0,1,7.947,21.567Z" style="fill:#51555a"/><path d="M23.665,21.536a.823.823,0,0,1,.514.113v.342c-.164.092-.424.218-.548.006C23.495,21.859,23.632,21.686,23.665,21.536Z" style="fill:#51555a"/><path d="M7.57,22.027a.452.452,0,0,1,.282.535l-.223.105C7.612,22.453,7.59,22.241,7.57,22.027Z" style="fill:#51555a"/><path d="M8.508,22.618c-.244-.151-.067-.635.232-.544.268.011.227.326.241.516C8.826,22.627,8.647,22.765,8.508,22.618Z" style="fill:#51555a"/><path d="M9.7,22.083c.157-.045.379.011.4.2a.3.3,0,0,1-.392.377A.322.322,0,0,1,9.7,22.083Z" style="fill:#51555a"/><path d="M10.818,22.082a.31.31,0,1,1,.012.588A.331.331,0,0,1,10.818,22.082Z" style="fill:#51555a"/><path d="M11.779,22.592c0-.19-.022-.509.242-.518.341-.089.483.484.16.587C12.054,22.744,11.908,22.608,11.779,22.592Z" style="fill:#51555a"/><path d="M13.073,22.083a.3.3,0,0,1,.4.206.3.3,0,0,1-.39.379A.326.326,0,0,1,13.073,22.083Z" style="fill:#51555a"/><path d="M14.03,22.59c.012-.19-.033-.508.239-.516.3-.083.483.392.229.547C14.361,22.766,14.18,22.624,14.03,22.59Z" style="fill:#51555a"/><path d="M15.32,22.087a.292.292,0,0,1,.4.2.3.3,0,0,1-.4.375A.323.323,0,0,1,15.32,22.087Z" style="fill:#51555a"/><path d="M16.44,22.088a.3.3,0,0,1,.406.2.3.3,0,0,1-.393.383A.326.326,0,0,1,16.44,22.088Z" style="fill:#51555a"/><path d="M17.4,22.589c.012-.19-.03-.5.237-.514.221-.074.3.176.406.311-.1.107-.158.282-.317.306A2.741,2.741,0,0,1,17.4,22.589Z" style="fill:#51555a"/><path d="M18.531,22.164a1.035,1.035,0,0,1,.406-.092,2.634,2.634,0,0,1,.234.314c-.11.149-.251.4-.472.274C18.476,22.593,18.551,22.338,18.531,22.164Z" style="fill:#51555a"/><path d="M19.652,22.585c.012-.193-.03-.493.239-.511a.307.307,0,0,1,.232.546C19.99,22.774,19.8,22.621,19.652,22.585Z" style="fill:#51555a"/><path d="M20.94,22.109l.251-.068c.077.12.15.241.224.364-.094.1-.161.249-.3.291a2.971,2.971,0,0,1-.338-.11C20.809,22.422,20.721,22.163,20.94,22.109Z" style="fill:#51555a"/><path d="M21.919,22.165c.136-.046.273-.089.412-.127.078.168.267.347.105.527-.132.2-.355.1-.524.02C21.913,22.445,21.916,22.305,21.919,22.165Z" style="fill:#51555a"/><path d="M23.043,22.165c.132-.045.265-.087.4-.124.077.118.151.237.225.358a2.122,2.122,0,0,1-.244.28c-.135.036-.258-.059-.383-.09C23.04,22.447,23.041,22.306,23.043,22.165Z" style="fill:#51555a"/><path d="M24.165,22.185l.3-.145c-.032.215-.069.428-.1.644l-.2-.131C24.165,22.43,24.164,22.307,24.165,22.185Z" style="fill:#51555a"/><path d="M13.544,22.678c.138,0,.277,0,.416,0q.072.2.132.4l-.351.231a2.88,2.88,0,0,1-.294-.238A.914.914,0,0,1,13.544,22.678Z" style="fill:#51555a"/><path d="M14.672,22.679c.137,0,.274,0,.411,0,.049.134.094.27.134.407l-.353.228a3.083,3.083,0,0,1-.294-.244A.916.916,0,0,1,14.672,22.679Z" style="fill:#51555a"/><path d="M15.8,22.68c.139,0,.277,0,.415,0,.048.135.091.273.13.412l-.352.22a2.666,2.666,0,0,1-.293-.241A.888.888,0,0,1,15.8,22.68Z" style="fill:#51555a"/><path d="M16.92,22.679c.137,0,.275,0,.412,0q.075.2.135.411c-.119.075-.237.149-.357.223a2.952,2.952,0,0,1-.288-.241C16.8,22.932,16.884,22.807,16.92,22.679Z" style="fill:#51555a"/><path d="M7.925,22.678c.136,0,.273,0,.411,0,.044.129.133.26.1.4a3.1,3.1,0,0,1-.289.227l-.349-.227C7.833,22.947,7.877,22.811,7.925,22.678Z" style="fill:#51555a"/><path d="M9.08,22.7c.125-.016.25-.028.376-.032a.992.992,0,0,1,.105.412,3.3,3.3,0,0,1-.3.237l-.351-.231A.73.73,0,0,1,9.08,22.7Z" style="fill:#51555a"/><path d="M10.176,22.679c.136,0,.273,0,.41,0,.039.131.135.263.092.406a2.962,2.962,0,0,1-.288.227c-.118-.078-.234-.155-.348-.235C10.082,22.943,10.127,22.81,10.176,22.679Z" style="fill:#51555a"/><path d="M11.3,22.679c.138,0,.275,0,.413,0,.049.131.094.264.135.4-.116.081-.234.158-.352.237a3.057,3.057,0,0,1-.3-.24A.905.905,0,0,1,11.3,22.679Z" style="fill:#51555a"/><path d="M12.422,22.679h.413c.048.132.092.265.132.4-.116.08-.233.157-.351.235a3.142,3.142,0,0,1-.294-.237A.814.814,0,0,1,12.422,22.679Z" style="fill:#51555a"/><path d="M18.05,22.667c.167.029.414-.054.474.165.016.064.047.194.062.259q-.175.112-.349.221a2.513,2.513,0,0,1-.294-.245A1,1,0,0,1,18.05,22.667Z" style="fill:#51555a"/><path d="M19.169,22.68c.138,0,.277,0,.416,0,.048.136.09.273.129.413l-.353.221a2.782,2.782,0,0,1-.291-.243A.946.946,0,0,1,19.169,22.68Z" style="fill:#51555a"/><path d="M20.3,22.664c.122,0,.244.014.366.031.139.084.127.264.165.4l-.354.217c-.1-.1-.267-.16-.294-.311A3.063,3.063,0,0,1,20.3,22.664Z" style="fill:#51555a"/><path d="M21.424,22.668c.166.029.409-.055.476.156.014.067.042.2.056.27l-.343.217a1.958,1.958,0,0,1-.292-.25C21.295,22.921,21.389,22.8,21.424,22.668Z" style="fill:#51555a"/><path d="M22.55,22.665c.124,0,.246.013.369.029.137.088.127.264.162.4l-.342.215c-.108-.1-.277-.161-.3-.321A3.31,3.31,0,0,1,22.55,22.665Z" style="fill:#51555a"/><path d="M23.6,22.837a.3.3,0,0,1,.548-.008c.014.067.041.2.054.271l-.349.214C23.718,23.2,23.453,23.047,23.6,22.837Z" style="fill:#51555a"/><path d="M8.416,23.286a.675.675,0,0,1,.557.005.885.885,0,0,1-.105.523H8.521A.722.722,0,0,1,8.416,23.286Z" style="fill:#51555a"/><path d="M9.537,23.291a.649.649,0,0,1,.559,0,.81.81,0,0,1-.11.526l-.336,0A.716.716,0,0,1,9.537,23.291Z" style="fill:#51555a"/><path d="M10.664,23.287a.679.679,0,0,1,.554,0,.705.705,0,0,1-.107.525h-.341A.773.773,0,0,1,10.664,23.287Z" style="fill:#51555a"/><path d="M11.786,23.29a.686.686,0,0,1,.56,0,.814.814,0,0,1-.106.528h-.346A.8.8,0,0,1,11.786,23.29Z" style="fill:#51555a"/><path d="M12.91,23.292a.656.656,0,0,1,.557-.006.727.727,0,0,1-.122.558.685.685,0,0,1-.418-.151A2.628,2.628,0,0,1,12.91,23.292Z" style="fill:#51555a"/><path d="M14.034,23.291a.69.69,0,0,1,.56-.005.76.76,0,0,1-.106.528h-.344A.867.867,0,0,1,14.034,23.291Z" style="fill:#51555a"/><path d="M15.159,23.29a.7.7,0,0,1,.555-.008.7.7,0,0,1-.1.532h-.344A.856.856,0,0,1,15.159,23.29Z" style="fill:#51555a"/><path d="M16.283,23.3a.662.662,0,0,1,.558-.01.7.7,0,0,1-.106.529l-.341,0A.865.865,0,0,1,16.283,23.3Z" style="fill:#51555a"/><path d="M17.409,23.292a.675.675,0,0,1,.552-.01.711.711,0,0,1-.109.561c-.147-.03-.316-.025-.423-.148A3.32,3.32,0,0,1,17.409,23.292Z" style="fill:#51555a"/><path d="M18.534,23.3c.15-.036.325-.171.461-.028.214.141.09.409-.024.572a.683.683,0,0,1-.419-.148A3.228,3.228,0,0,1,18.534,23.3Z" style="fill:#51555a"/><path d="M19.657,23.3a.665.665,0,0,1,.551-.015.649.649,0,0,1-.112.562.677.677,0,0,1-.417-.148A3.472,3.472,0,0,1,19.657,23.3Z" style="fill:#51555a"/><path d="M20.783,23.3c.151-.038.324-.17.463-.03.221.139.081.4-.022.571-.147-.029-.316-.024-.421-.149A3.154,3.154,0,0,1,20.783,23.3Z" style="fill:#51555a"/><path d="M21.906,23.3c.184-.093.466-.167.556.086.1.154-.036.3-.108.426l-.332,0A.9.9,0,0,1,21.906,23.3Z" style="fill:#51555a"/><path d="M23.033,23.3c.149-.038.318-.17.456-.034.238.141.092.4-.017.577-.147-.03-.313-.028-.418-.151A3.882,3.882,0,0,1,23.033,23.3Z" style="fill:#51555a"/><path d="M7.8,23.691c-.146-.047-.168-.346-.017-.394C7.917,23.358,7.956,23.636,7.8,23.691Z" style="fill:#51555a"/><path d="M24.219,23.283c.164.055.141.381-.012.44C24.052,23.652,24.079,23.359,24.219,23.283Z" style="fill:#51555a"/><path d="M7.956,23.83a.33.33,0,0,1,.484.275c.034.178-.18.26-.3.332A.343.343,0,0,1,7.956,23.83Z" style="fill:#51555a"/><path d="M9.085,23.829c.312-.185.684.287.365.5C9.154,24.644,8.714,24.057,9.085,23.829Z" style="fill:#51555a"/><path d="M10.033,24.225c.054-.173.094-.463.343-.424.3-.04.448.44.154.556C10.362,24.534,10.191,24.294,10.033,24.225Z" style="fill:#51555a"/><path d="M11.35,24.356c-.292-.116-.144-.6.156-.555.25-.041.291.256.343.429C11.692,24.3,11.518,24.528,11.35,24.356Z" style="fill:#51555a"/><path d="M12.281,24.225c.049-.172.1-.457.342-.423.223-.037.362.217.311.411a.7.7,0,0,1-.3.221A3.819,3.819,0,0,1,12.281,24.225Z" style="fill:#51555a"/><path d="M13.558,23.793a.43.43,0,0,1,.541.435c-.17.1-.37.3-.542.1C13.336,24.2,13.5,23.961,13.558,23.793Z" style="fill:#51555a"/><path d="M14.677,23.8c.162.028.392-.04.469.155.2.273-.259.645-.468.37C14.459,24.2,14.629,23.962,14.677,23.8Z" style="fill:#51555a"/><path d="M15.826,23.842c.148-.071.378-.069.447.111.144.218-.069.427-.275.483C15.723,24.372,15.564,24.03,15.826,23.842Z" style="fill:#51555a"/><path d="M16.926,23.8c.162.029.4-.042.471.157.143.219-.068.431-.277.484a.833.833,0,0,1-.306-.232A1.253,1.253,0,0,1,16.926,23.8Z" style="fill:#51555a"/><path d="M18.078,23.839a.312.312,0,0,1,.48.28c.025.175-.18.263-.311.319C17.972,24.365,17.814,24.033,18.078,23.839Z" style="fill:#51555a"/><path d="M19.2,23.84a.31.31,0,0,1,.477.28c.029.178-.183.259-.312.319C19.1,24.368,18.939,24.029,19.2,23.84Z" style="fill:#51555a"/><path d="M20.239,23.955c.129-.288.631-.154.567.171.025.182-.215.235-.312.348C20.348,24.349,20.062,24.177,20.239,23.955Z" style="fill:#51555a"/><path d="M21.463,24.348a.291.291,0,0,1,.147-.542c.264-.068.323.244.354.434C21.8,24.311,21.626,24.533,21.463,24.348Z" style="fill:#51555a"/><path d="M22.489,23.952c.128-.284.641-.146.565.175.027.185-.218.237-.317.349C22.6,24.347,22.315,24.17,22.489,23.952Z" style="fill:#51555a"/><path d="M23.7,23.852c.3-.247.688.258.374.475C23.8,24.637,23.334,24.073,23.7,23.852Z" style="fill:#51555a"/><path d="M8.416,24.414a.947.947,0,0,1,.554,0,1.148,1.148,0,0,1-.081.524H8.5A.936.936,0,0,1,8.416,24.414Z" style="fill:#51555a"/><path d="M9.541,24.415a.9.9,0,0,1,.555,0,1.136,1.136,0,0,1-.079.522l-.394,0A.932.932,0,0,1,9.541,24.415Z" style="fill:#51555a"/><path d="M10.663,24.415a.929.929,0,0,1,.556,0,.975.975,0,0,1-.085.525h-.391A1.18,1.18,0,0,1,10.663,24.415Z" style="fill:#51555a"/><path d="M11.789,24.418a.963.963,0,0,1,.556,0,1.132,1.132,0,0,1-.081.527H11.87A.979.979,0,0,1,11.789,24.418Z" style="fill:#51555a"/><path d="M12.913,24.416a.942.942,0,0,1,.555,0,.978.978,0,0,1-.081.526h-.392A1.061,1.061,0,0,1,12.913,24.416Z" style="fill:#51555a"/><path d="M14.035,24.418a.952.952,0,0,1,.558,0,.944.944,0,0,1-.083.527h-.391A1.2,1.2,0,0,1,14.035,24.418Z" style="fill:#51555a"/><path d="M15.163,24.416a.93.93,0,0,1,.549,0l.012.331c-.029.236-.3.2-.471.218A1.072,1.072,0,0,1,15.163,24.416Z" style="fill:#51555a"/><path d="M16.285,24.418a.968.968,0,0,1,.55-.006c.005.082.014.246.019.328-.04.237-.307.2-.482.223A1.3,1.3,0,0,1,16.285,24.418Z" style="fill:#51555a"/><path d="M17.409,24.419a.934.934,0,0,1,.55-.007l.02.335c-.046.23-.306.194-.479.217A1.273,1.273,0,0,1,17.409,24.419Z" style="fill:#51555a"/><path d="M18.535,24.419a.924.924,0,0,1,.547-.007c.006.082.017.244.024.326-.036.236-.3.205-.478.225A1.168,1.168,0,0,1,18.535,24.419Z" style="fill:#51555a"/><path d="M19.662,24.416a.95.95,0,0,1,.545-.006c.019.175.085.415-.116.515l-.339.038A1.219,1.219,0,0,1,19.662,24.416Z" style="fill:#51555a"/><path d="M20.786,24.418a.981.981,0,0,1,.546-.009c.005.167.094.433-.116.515l-.334.041A1.116,1.116,0,0,1,20.786,24.418Z" style="fill:#51555a"/><path d="M21.911,24.419a.944.944,0,0,1,.543-.01c.018.172.094.425-.113.517l-.34.037A1.206,1.206,0,0,1,21.911,24.419Z" style="fill:#51555a"/><path d="M23.038,24.416a.982.982,0,0,1,.541-.009c.027.181.087.422-.119.527-.146.01-.326.044-.407-.113A3.826,3.826,0,0,1,23.038,24.416Z" style="fill:#51555a"/><path d="M7.967,24.974c.231-.161.546.112.471.366a.632.632,0,0,1-.394.249A2.328,2.328,0,0,1,7.967,24.974Z" style="fill:#51555a"/><path d="M9.092,24.983c.176-.16.485.038.472.255.038.147-.12.231-.214.31C9.021,25.654,8.773,25.155,9.092,24.983Z" style="fill:#51555a"/><path d="M10.209,24.991c.175-.179.5.034.48.256.013.243-.362.434-.521.208A.284.284,0,0,1,10.209,24.991Z" style="fill:#51555a"/><path d="M11.339,24.984c.267-.232.674.255.378.47C11.435,25.8,10.936,25.2,11.339,24.984Z" style="fill:#51555a"/><path d="M12.457,24.99c.268-.253.692.26.378.471C12.552,25.791,12.073,25.205,12.457,24.99Z" style="fill:#51555a"/><path d="M13.585,24.988c.269-.244.683.254.378.471C13.679,25.793,13.193,25.2,13.585,24.988Z" style="fill:#51555a"/><path d="M14.711,24.988c.268-.242.674.246.383.468C14.812,25.8,14.312,25.206,14.711,24.988Z" style="fill:#51555a"/><path d="M15.835,24.987c.272-.243.675.25.38.472C15.932,25.793,15.441,25.205,15.835,24.987Z" style="fill:#51555a"/><path d="M16.964,24.987c.271-.24.669.249.38.473C17.057,25.8,16.563,25.2,16.964,24.987Z" style="fill:#51555a"/><path d="M18.151,24.937c.3-.106.567.322.316.523a.293.293,0,0,1-.473-.058C17.838,25.242,18,25.03,18.151,24.937Z" style="fill:#51555a"/><path d="M19.275,24.937c.3-.106.569.326.314.527a.292.292,0,0,1-.466-.057C18.963,25.253,19.129,25.03,19.275,24.937Z" style="fill:#51555a"/><path d="M20.4,24.937a.321.321,0,0,1,.193.611A.321.321,0,0,1,20.4,24.937Z" style="fill:#51555a"/><path d="M21.523,24.937a.314.314,0,0,1,.407.311.294.294,0,0,1-.518.2C21.2,25.3,21.352,25.036,21.523,24.937Z" style="fill:#51555a"/><path d="M22.5,25.087a.3.3,0,0,1,.558.158c.043.239-.239.29-.4.342C22.556,25.447,22.328,25.263,22.5,25.087Z" style="fill:#51555a"/><path d="M23.57,25.335c-.09-.265.334-.587.5-.3a5.347,5.347,0,0,1-.1.552A.641.641,0,0,1,23.57,25.335Z" style="fill:#51555a"/><path d="M8.428,25.536a2.134,2.134,0,0,1,.529,0c.05.24.036.625-.32.547C8.336,26.076,8.411,25.735,8.428,25.536Z" style="fill:#51555a"/><path d="M9.55,25.536a2.134,2.134,0,0,1,.535.005.971.971,0,0,1-.036.487.985.985,0,0,1-.5.025A5.134,5.134,0,0,1,9.55,25.536Z" style="fill:#51555a"/><path d="M10.679,25.534a2.851,2.851,0,0,1,.528,0c.008.171.01.342,0,.514a.874.874,0,0,1-.5-.021A.925.925,0,0,1,10.679,25.534Z" style="fill:#51555a"/><path d="M11.8,25.539a2.579,2.579,0,0,1,.525-.006c.005.164.065.346-.035.5-.16.092-.466.1-.5-.129A2.238,2.238,0,0,1,11.8,25.539Z" style="fill:#51555a"/><path d="M12.929,25.535a2.851,2.851,0,0,1,.528,0,3.843,3.843,0,0,1,0,.531,1.013,1.013,0,0,1-.488-.038C12.868,25.879,12.924,25.7,12.929,25.535Z" style="fill:#51555a"/><path d="M14.05,25.54a2.387,2.387,0,0,1,.533,0,4.467,4.467,0,0,1-.005.523.858.858,0,0,1-.493-.036A.944.944,0,0,1,14.05,25.54Z" style="fill:#51555a"/><path d="M17.44,25.532a3.133,3.133,0,0,1,.518,0,3.458,3.458,0,0,1-.006.534c-.16-.007-.34.043-.484-.048C17.362,25.877,17.435,25.693,17.44,25.532Z" style="fill:#51555a"/><path d="M15.175,25.534a4.555,4.555,0,0,1,.528,0c.024.2.09.564-.223.559C15.133,26.151,15.129,25.767,15.175,25.534Z" style="fill:#51555a"/><path d="M16.308,25.533a4.828,4.828,0,0,1,.516,0c.074.242.045.634-.307.556C16.21,26.083,16.288,25.73,16.308,25.533Z" style="fill:#51555a"/><path d="M18.561,25.54a.731.731,0,0,1,.492.027.908.908,0,0,1,.029.5c-.164-.006-.347.049-.5-.044A.8.8,0,0,1,18.561,25.54Z" style="fill:#51555a"/><path d="M19.687,25.534c.171-.01.34-.012.512-.006.083.243.04.643-.313.557C19.582,26.079,19.67,25.728,19.687,25.534Z" style="fill:#51555a"/><path d="M20.8,25.536a4.11,4.11,0,0,1,.526-.005c.032.205.09.563-.223.56C20.756,26.147,20.757,25.767,20.8,25.536Z" style="fill:#51555a"/><path d="M21.962,26.019c-.112-.172-.079-.5.172-.511l.315.028a.727.727,0,0,1-.027.5A.457.457,0,0,1,21.962,26.019Z" style="fill:#51555a"/><path d="M23.036,25.734c.007-.28.347-.229.535-.2.02.168.115.48-.122.533A.291.291,0,0,1,23.036,25.734Z" style="fill:#51555a"/><path d="M8.193,26.087c.139-.051.3.154.238.284C8.3,26.413,8.141,26.209,8.193,26.087Z" style="fill:#51555a"/><path d="M8.91,26.259a3.314,3.314,0,0,1,.345-.211,2.893,2.893,0,0,1,.345.219c-.053.166-.1.457-.34.41C9.007,26.734,8.953,26.438,8.91,26.259Z" style="fill:#51555a"/><path d="M10.034,26.261a3.276,3.276,0,0,1,.341-.213,2.959,2.959,0,0,1,.352.218c-.052.168-.1.457-.344.411C10.13,26.734,10.082,26.436,10.034,26.261Z" style="fill:#51555a"/><path d="M11.354,26.118c.173-.164.342.071.495.144-.043.178-.1.468-.353.415C11.19,26.723,11.07,26.238,11.354,26.118Z" style="fill:#51555a"/><path d="M12.43,26.159c.169-.221.382,0,.544.1-.049.174-.1.471-.348.414A.289.289,0,0,1,12.43,26.159Z" style="fill:#51555a"/><path d="M13.406,26.271a2.661,2.661,0,0,1,.349-.223,3.235,3.235,0,0,1,.34.209c-.037.18-.1.471-.347.419C13.507,26.722,13.455,26.439,13.406,26.271Z" style="fill:#51555a"/><path d="M14.529,26.27a2.827,2.827,0,0,1,.348-.222,3.363,3.363,0,0,1,.342.208c-.04.179-.094.476-.345.42C14.635,26.719,14.581,26.437,14.529,26.27Z" style="fill:#51555a"/><path d="M15.735,26.535c-.155-.2.067-.436.268-.486a3.113,3.113,0,0,1,.343.209q-.066.221-.15.435C16.037,26.661,15.814,26.719,15.735,26.535Z" style="fill:#51555a"/><path d="M16.97,26.127c.167-.182.341.054.5.127-.027.185-.1.473-.346.422A.293.293,0,0,1,16.97,26.127Z" style="fill:#51555a"/><path d="M18.1,26.121c.2-.188.537.108.451.342a.313.313,0,0,1-.57.065A.281.281,0,0,1,18.1,26.121Z" style="fill:#51555a"/><path d="M19.111,26.533c-.2-.253.256-.657.468-.376.2.128.065.378-.012.539C19.408,26.666,19.192,26.711,19.111,26.533Z" style="fill:#51555a"/><path d="M20.342,26.13c.312-.28.693.357.312.528C20.319,26.832,19.989,26.318,20.342,26.13Z" style="fill:#51555a"/><path d="M21.46,26.134c.164-.19.346.036.5.113-.05.151-.034.42-.255.425C21.39,26.777,21.152,26.3,21.46,26.134Z" style="fill:#51555a"/><path d="M22.594,26.124c.2-.193.548.1.456.339-.033.261-.451.3-.563.073C22.359,26.405,22.478,26.214,22.594,26.124Z" style="fill:#51555a"/><path d="M23.56,26.415c-.1-.141.1-.386.258-.333C23.885,26.221,23.724,26.476,23.56,26.415Z" style="fill:#51555a"/><path d="M9.477,26.977c.073-.134.11-.34.3-.33.218-.048.307.166.381.326C9.934,26.982,9.705,26.98,9.477,26.977Z" style="fill:#51555a"/><path d="M10.607,26.977c.062-.161.143-.372.358-.332.2-.014.245.192.314.332Q10.943,26.982,10.607,26.977Z" style="fill:#51555a"/><path d="M11.737,26.938c.049-.16.158-.318.347-.292.2-.016.249.19.326.327A1.957,1.957,0,0,1,11.737,26.938Z" style="fill:#51555a"/><path d="M13.173,26.646c.214-.04.287.177.361.33-.228.005-.456,0-.684,0C12.922,26.837,12.973,26.627,13.173,26.646Z" style="fill:#51555a"/><path d="M13.98,26.977a.4.4,0,0,1,.541-.311c.032.077.094.228.125.3C14.423,26.981,14.2,26.981,13.98,26.977Z" style="fill:#51555a"/><path d="M15.1,26.977a.4.4,0,0,1,.551-.307l.115.307C15.545,26.979,15.324,26.982,15.1,26.977Z" style="fill:#51555a"/><path d="M16.229,26.977a.41.41,0,0,1,.549-.313l.107.315C16.666,26.978,16.448,26.98,16.229,26.977Z" style="fill:#51555a"/><path d="M17.53,26.67a2.313,2.313,0,0,1,.367-.006c.04.105.08.209.12.316-.222,0-.442,0-.664,0A1.87,1.87,0,0,1,17.53,26.67Z" style="fill:#51555a"/><path d="M18.482,26.978c.046-.286.287-.363.541-.32.041.106.082.214.122.321C18.924,26.979,18.7,26.98,18.482,26.978Z" style="fill:#51555a"/><path d="M19.781,26.672a2.106,2.106,0,0,1,.368-.008l.123.315c-.222,0-.442,0-.663,0A.944.944,0,0,1,19.781,26.672Z" style="fill:#51555a"/><path d="M20.9,26.674a1.712,1.712,0,0,1,.376-.01c.038.1.075.209.112.316-.22,0-.438,0-.657,0A1.122,1.122,0,0,1,20.9,26.674Z" style="fill:#51555a"/><path d="M22.028,26.67a2.087,2.087,0,0,1,.375-.006c.039.105.078.209.116.316-.221,0-.441,0-.661,0A1.254,1.254,0,0,1,22.028,26.67Z" style="fill:#51555a"/></svg>