<svg xmlns="http://www.w3.org/2000/svg" viewBox="0 0 32 32"><title>file_type_lolcode</title><path d="M21.3,3.73a3.94,3.94,0,0,1,1.041-.62,8.435,8.435,0,0,1,.556,3.385,24.865,24.865,0,0,1-.643,5.019c-.368-.18-.736-.364-1.1-.554a11.754,11.754,0,0,0,.273-3.747,3.08,3.08,0,0,0-.255-.865,5.142,5.142,0,0,0-2.016,2.07c-.319-.24-.652-.459-.985-.676A15.716,15.716,0,0,1,21.3,3.73Z" style="fill:#ededed"/><path d="M19.451,8.6a4.574,4.574,0,0,1,1.509-1.563,6.685,6.685,0,0,1,.09,2.671C20.517,9.343,19.975,8.987,19.451,8.6Z" style="fill:#ededed"/><path d="M16.461,10.076c-.038-1.134-.031-2.269-.026-3.4-.9.493-1.758,1.071-2.648,1.589-.453.27-.908.536-1.36.808.224-.163.457-.312.69-.462-.861-1.224-1.971-2.5-3.53-2.748a10.964,10.964,0,0,0-.365,5.147c.318-.195.633-.4.962-.572-.474.319-.964.615-1.446.92-.957.6-1.922,1.192-2.892,1.777a1.232,1.232,0,0,0-.391.32c-.1,1.395-.34,4.392-.34,4.392-.254,3.668-.522,7.336-.826,11,4.062.343,8.118.742,12.179,1.076C16.458,23.3,16.472,16.69,16.461,10.076Z" style="fill:#ededed"/><path d="M21.1,2.977A5.884,5.884,0,0,1,22.706,2a10.064,10.064,0,0,1,.772,4.606,24.591,24.591,0,0,1-.508,4.459c1.2.846,2.433,1.645,3.618,2.509q.44,6.38.907,12.758c.066.839.094,1.68.216,2.513-3.029.279-6.057.591-9.085.886a19.137,19.137,0,0,0-2.158.27v-.083c-.01-6.614,0-13.227-.007-19.841-.038-1.134-.031-2.269-.026-3.4v-.1c.406.292.826.562,1.243.839A16.274,16.274,0,0,1,21.1,2.977Zm.2.752a15.716,15.716,0,0,0-3.128,4.011c.334.217.666.437.985.676a5.142,5.142,0,0,1,2.016-2.07,3.08,3.08,0,0,1,.255.865,11.754,11.754,0,0,1-.273,3.747c.364.19.731.374,1.1.554a24.865,24.865,0,0,0,.643-5.019,8.435,8.435,0,0,0-.556-3.385A3.94,3.94,0,0,0,21.3,3.73ZM19.451,8.6c.524.383,1.066.739,1.6,1.108a6.685,6.685,0,0,0-.09-2.671A4.574,4.574,0,0,0,19.451,8.6Z" style="fill:#8d2701"/><path d="M9.219,5.062a3.581,3.581,0,0,1,2.205.748A12.9,12.9,0,0,1,13.788,8.26c-.453.27-.908.536-1.36.808.224-.163.457-.312.69-.462-.861-1.224-1.971-2.5-3.53-2.748a10.964,10.964,0,0,0-.365,5.147c.318-.195.633-.4.962-.572-.474.319-.964.615-1.446.92A14.1,14.1,0,0,1,9.219,5.062Z" style="fill:#8d2701"/><path d="M10.507,8.476a2.455,2.455,0,0,1,1.517.88l-.36.2A2.69,2.69,0,0,0,10.739,9a3.318,3.318,0,0,0-.165,1.281l-.344.11A7.021,7.021,0,0,1,10.507,8.476Z" style="fill:#8d2701"/><path d="M12.139,10.693a.487.487,0,0,1,.542.01,1.552,1.552,0,0,1,.062.6c-.039.784.024,1.573-.076,2.354a1.013,1.013,0,0,1-1.012.886c-.233-.05-.278-.341-.278-.541,0-.675.1-1.347.066-2.024A1.3,1.3,0,0,1,12.139,10.693Zm.15,1.084a.891.891,0,0,0,.251-.866C12.218,11.061,11.9,11.507,12.289,11.777Z" style="fill:#8d2701"/><path d="M14.5,13.728a17.671,17.671,0,0,1,1.928-.822c-.024.064-.069.191-.092.255-.649.358-1.36.6-2.021.938a12.118,12.118,0,0,0-3.238,2.248A7.2,7.2,0,0,1,10,17.381a4.166,4.166,0,0,1,.98-1.246A12.727,12.727,0,0,1,14.5,13.728Z" style="fill:#8d2701"/><path d="M7.628,13.231a.989.989,0,0,1,.594-.152,18.114,18.114,0,0,1-.1,2.654.713.713,0,0,1-.892.658,21.1,21.1,0,0,1,.082-2.226A1.383,1.383,0,0,1,7.628,13.231Zm.179.831c.268-.112.319-.413.412-.654C7.82,13.312,7.775,13.783,7.807,14.062Z" style="fill:#8d2701"/><path d="M10.823,17.094a13.934,13.934,0,0,1,4.612-1.968c-.01.068-.029.206-.039.274a14.273,14.273,0,0,0-4.475,1.914,2.626,2.626,0,0,1-.681.343C10.3,17.356,10.6,17.249,10.823,17.094Z" style="fill:#8d2701"/><path d="M5.264,17.59A5.144,5.144,0,0,1,8,17.1a1.5,1.5,0,0,1,1.142.665A6.854,6.854,0,0,0,7.6,17.278a6.967,6.967,0,0,0-2.484.564Z" style="fill:#8d2701"/><path d="M10.578,17.725a9.59,9.59,0,0,1,3.61-.566c.24.021.321.2.313.424a3.238,3.238,0,0,0-1.956-.09,21.688,21.688,0,0,0-2.557.658C9.995,17.829,10.345,17.809,10.578,17.725Z" style="fill:#8d2701"/><path d="M9.268,17.676c.149-.176.533-.332.664-.062a1.3,1.3,0,0,1-.516.993C9.268,18.337,8.973,17.952,9.268,17.676Z" style="fill:#8d2701"/><path d="M5.744,18.629a5.9,5.9,0,0,1,3.182-.618c-.182.235-.493.178-.751.208a5.663,5.663,0,0,0-1.72.33c-.344.128-.665.31-1.02.409A.6.6,0,0,1,5.744,18.629Z" style="fill:#8d2701"/><path d="M6.9,19.114a9.676,9.676,0,0,1,2.2-.854c-.1.3-.441.338-.7.444a7.839,7.839,0,0,0-2.564,1.415C5.938,19.584,6.488,19.369,6.9,19.114Z" style="fill:#8d2701"/><path d="M11.635,19.7a3.11,3.11,0,0,0,1.91-1.383c.347-.1.273.275.26.494a2.056,2.056,0,0,1-.95,1.036,12.365,12.365,0,0,1-1.827,6.419A2.342,2.342,0,0,1,8.879,27.5a2.251,2.251,0,0,1-1.535-1.49,10.894,10.894,0,0,1-.69-4.665c-.157-.112-.369-.179-.46-.362-.13-.2.011-.425.047-.631.19.151.345.392.606.42a3.617,3.617,0,0,0,1.863-.4,1.588,1.588,0,0,0,.709-.662,3.881,3.881,0,0,0,.431.266A4.28,4.28,0,0,0,11.635,19.7Zm-2.2.835a4.132,4.132,0,0,1-2.462.809,11.049,11.049,0,0,0,.358,3.526,3.226,3.226,0,0,1,.9-1.282,2.055,2.055,0,0,1,2.3-.2,2.3,2.3,0,0,1,.884,1.172,14.659,14.659,0,0,0,1.005-4.489A5.167,5.167,0,0,1,9.435,20.532Zm-.329,3.26a2.273,2.273,0,0,0-1.5,1.434c-.123.269.1.517.225.738.331.462.795,1,1.431.893a2.868,2.868,0,0,0,1.769-1.6A1.6,1.6,0,0,0,9.106,23.792Z" style="fill:#8d2701"/></svg>