<svg xmlns="http://www.w3.org/2000/svg" viewBox="0 0 32 32"><title>file_type_conan</title><polygon points="15.855 2 2.707 8.294 15.855 16.194 29.293 8.828 15.855 2" style="fill:#afd4e5"/><polygon points="15.856 30 2.707 20.678 2.707 8.294 15.855 16.194 15.856 30" style="fill:#69c"/><polygon points="29.293 21.485 15.856 30 15.855 16.194 29.293 8.828 29.293 21.485" style="fill:#7da7d3"/><polygon points="23.394 25.223 23.041 25.447 22.815 12.379 23.204 12.166 23.394 25.223" style="fill:#386a9d"/><path d="M11.631,6.95A9.7,9.7,0,0,1,17.87,5.308a9.087,9.087,0,0,1,1.75.408A10.335,10.335,0,0,1,23.264,7.96a3.394,3.394,0,0,1,.618.646c-.029.134-.188.178-.287.251-.608.325-1.2.676-1.818.988a6.321,6.321,0,0,1-1.135.568,2.187,2.187,0,0,0,.146-1.43,3.251,3.251,0,0,0-1.975-1.739,6.173,6.173,0,0,0-3.9,0,3.681,3.681,0,0,0-2.045,1.58,1.631,1.631,0,0,0,.306,1.97,5.126,5.126,0,0,0,3.1,1.009,7.716,7.716,0,0,0,1.662-.07.348.348,0,0,1,.327.081c-1.049.452-2.056,1-3.1,1.472a3.256,3.256,0,0,1-1.562-.2,5.556,5.556,0,0,1-3.242-2.2,2.572,2.572,0,0,1-.274-2.224A3.388,3.388,0,0,1,11.631,6.95Z" style="fill:#69c"/></svg>