<svg xmlns="http://www.w3.org/2000/svg" xmlns:xlink="http://www.w3.org/1999/xlink" viewBox="0 0 32 32"><defs><linearGradient id="a" x1="16" y1="-0.443" x2="16" y2="22.042" gradientUnits="userSpaceOnUse"><stop offset="0.021" stop-color="#ff0c15"/><stop offset="1" stop-color="#9a0c0f"/></linearGradient></defs><title>file_type_delphi</title><circle cx="16" cy="16" r="14" style="fill:url(#a)"/><path d="M27.545,16.243H4.924a.914.914,0,0,0-1.092.82q.033.429.1.849a12.4,12.4,0,0,0,24.532,0q.075-.5.108-1.021C28.478,16.523,28.211,16.207,27.545,16.243Z" style="fill:#ff6443"/><polyline points="18.48 11.64 23.707 7.266 19.787 5.88 16 11.053" style="fill:#fae7e3;fill-rule:evenodd"/><polyline points="15.68 11.026 18.64 5.88 14.853 5.88 13.307 11.293" style="fill:#fae7e3;fill-rule:evenodd"/><polyline points="13.04 11.373 13.6 6.706 10.587 7.96 11.013 12.76" style="fill:#fae7e3;fill-rule:evenodd"/><polyline points="10.747 13 9.787 8.76 7.707 10.84 9.653 14.68" style="fill:#fae7e3;fill-rule:evenodd"/><polyline points="9.387 15.053 7.493 12.376 6.64 14.466 9.04 16.517" style="fill:#fae7e3;fill-rule:evenodd"/><polyline points="9.04 16.757 6.64 15.213 6.48 17.4 9.2 18.333" style="fill:#fae7e3;fill-rule:evenodd"/><polyline points="9.227 18.846 6.64 18.04 7.227 19.8 9.547 19.8" style="fill:#fae7e3;fill-rule:evenodd"/><polyline points="9.707 20.093 7.707 20.386 8.627 21.746 10.267 21" style="fill:#fae7e3;fill-rule:evenodd"/><path d="M20.023,13.089a6.61,6.61,0,0,0-4.53-2A6.293,6.293,0,0,0,11.3,22.07l4.941.129-2.08-4.16Z" style="fill:#eee;fill-rule:evenodd"/><path d="M16.5,22.366l-5.267-.138-.044-.039a6.453,6.453,0,0,1,4.3-11.264,6.787,6.787,0,0,1,4.643,2.05l.123.123-5.9,4.982Zm-5.14-.455,4.616.121L13.961,18l5.825-4.919a6.43,6.43,0,0,0-4.292-1.835,6.133,6.133,0,0,0-4.131,10.667Z" style="fill:#ee4b2e"/><path d="M12.013,20.493c-4.173-5.813,2.109-8.172,2.478-8.453.451-.344-7.59,1.785-3.226,8.88Z" style="fill:#f04e31;fill-rule:evenodd"/><polygon points="20.72 12.6 13.52 17.567 13.733 18.573 21.467 17.026 20.72 12.6" style="fill:#eee;fill-rule:evenodd"/><path d="M13.61,18.761,13.341,17.5l7.495-5.17.814,4.828Zm.089-1.123.158.747L21.283,16.9,20.6,12.874Z" style="fill:#ee4b2e"/><path d="M15.723,21.319c-3.93-.668-4.283.428-4.283.428L10.267,24.44s1.12-.907,5.493,0l.76-1.388Z" style="fill:#dd0c13;fill-rule:evenodd"/><path d="M14.122,21.6c-.02-.2-1.1-.319-1.677-.123-.732.249-1.219,1.142-1.045,1.213a1.975,1.975,0,0,1,1.125-.986C13.447,21.493,14.142,21.8,14.122,21.6Z" style="fill:#ff6e4f;fill-rule:evenodd"/><path d="M15.52,18.606a11.1,11.1,0,0,0,1.547,1.487,6.9,6.9,0,0,1,2.72,4.107c-.107,1.067-1.973,1.76-1.973,1.76l-3.307-7.194Z" style="fill:#eee;fill-rule:evenodd"/><path d="M17.73,26.161l-3.457-7.521,1.32-.208.057.081a10.869,10.869,0,0,0,1.512,1.451,7,7,0,0,1,2.782,4.207l0,.022,0,.022c-.115,1.153-2,1.864-2.077,1.894Zm-2.99-7.27,3.155,6.863c.414-.178,1.63-.763,1.73-1.548a6.793,6.793,0,0,0-2.648-3.981l-.01-.007a11.94,11.94,0,0,1-1.517-1.439Z" style="fill:#ee4b2e"/><path d="M28,12.742c.025.394.034.792.025,1.194a13.946,13.946,0,0,1-19.9,12.3A12.86,12.86,0,0,0,28,12.742Z" style="fill:#eae0df;fill-rule:evenodd;opacity:0.2"/><path d="M2.383,13.893A13.941,13.941,0,0,1,25.7,5.83s-5.009,5.979-10.584,7.907S2.383,13.893,2.383,13.893Z" style="fill:#eae0df;opacity:0.2"/><path d="M3.618,18.694c-.044-.392-.072-.79-.083-1.191C3.329,9.807,10.012,4.2,17.708,3.991a14.2,14.2,0,0,1,5.719,1.458,13.128,13.128,0,0,0-7.188-2.369c-7.1.19-13.306,5.3-13.116,12.4A12.873,12.873,0,0,0,3.618,18.694Z" style="fill:#eae0df;fill-rule:evenodd;opacity:0.2"/></svg>