<svg id="Layer_1" data-name="Layer 1" xmlns="http://www.w3.org/2000/svg" viewBox="0 0 32 32"><path d="M22.86,11.09l-6.55,9.46a.58.58,0,0,1-.28.21.55.55,0,0,1-.36,0,.56.56,0,0,1-.29-.21.59.59,0,0,1-.09-.35L15.55,15l-4.23-.9a.55.55,0,0,1-.24-.12.5.5,0,0,1-.16-.22.5.5,0,0,1,0-.27.46.46,0,0,1,.1-.25l6.54-9.46a.58.58,0,0,1,.29-.22.53.53,0,0,1,.35,0,.58.58,0,0,1,.29.22.52.52,0,0,1,.09.34l-.26,5.22,4.23.9a.58.58,0,0,1,.25.12.69.69,0,0,1,.16.22.62.62,0,0,1-.06.53Z" style="fill:#fcc72b"/><path d="M16,28.49a1.44,1.44,0,0,1-.5-.1,1.3,1.3,0,0,1-.43-.29L8.88,21.91A1.28,1.28,0,0,1,8.5,21a1.3,1.3,0,0,1,1.32-1.32,1.32,1.32,0,0,1,.94.38L16,25.29,27.43,13.86a1.32,1.32,0,0,1,.94-.38,1.31,1.31,0,0,1,.93.39,1.29,1.29,0,0,1,.39.93,1.34,1.34,0,0,1-.38.93L16.94,28.1a1.42,1.42,0,0,1-.43.29A1.45,1.45,0,0,1,16,28.49Z" style="fill:#729b1b"/><path d="M16,28.49a1.44,1.44,0,0,0,.5-.1,1.3,1.3,0,0,0,.43-.29l6.19-6.19A1.28,1.28,0,0,0,23.5,21a1.3,1.3,0,0,0-1.32-1.32,1.32,1.32,0,0,0-.94.38L16,25.29,4.57,13.86a1.32,1.32,0,0,0-.94-.38,1.31,1.31,0,0,0-.93.39,1.29,1.29,0,0,0-.39.93,1.34,1.34,0,0,0,.38.93L15.06,28.1a1.42,1.42,0,0,0,.43.29A1.45,1.45,0,0,0,16,28.49Z" style="fill:#729b1b;fill-opacity:0.5"/></svg>