<svg xmlns="http://www.w3.org/2000/svg" viewBox="0 0 32 32"><title>file_type_video</title><path d="M4.5,2.375A2.562,2.562,0,0,1,5.861,2H25.274c.318,0,.635,0,.953,0A2.545,2.545,0,0,1,28.65,3.951a3.37,3.37,0,0,1,.072.862c0,3.725,0,7.451,0,11.176q-.786,0-1.573,0a1.814,1.814,0,0,0-.22.022A5.236,5.236,0,0,0,26.348,16c-.3.007-.61-.014-.914.014a2.275,2.275,0,0,0-.4-.02H20.295c-.2,0-.392.008-.587-.01l.1-.065q-3.177-1.907-6.353-3.813c0,1.3,0,2.593,0,3.889-2.213-.005-4.427,0-6.64,0a2.274,2.274,0,0,0-.251.021C6.352,15.984,6.137,16,5.922,16c-.284.006-.57-.015-.853.015a2.052,2.052,0,0,0-.253-.022q-.771,0-1.541,0c.006-3.635,0-7.27,0-10.9a4.786,4.786,0,0,1,.071-1.131A2.541,2.541,0,0,1,4.5,2.375ZM5.04,4.563a.639.639,0,0,0-.489.606c0,.439,0,.878,0,1.316a.639.639,0,0,0,.627.6c.436,0,.873,0,1.309,0a.638.638,0,0,0,.6-.608c.005-.426,0-.853,0-1.279a.644.644,0,0,0-.329-.575A.708.708,0,0,0,6.4,4.545H5.264A1.081,1.081,0,0,0,5.04,4.563Zm20.341,0a.639.639,0,0,0-.474.607c0,.435,0,.871,0,1.306a.638.638,0,0,0,.6.608c.436.005.872,0,1.308,0a.639.639,0,0,0,.627-.606c.006-.438,0-.876,0-1.314a.638.638,0,0,0-.594-.621c-.348-.009-.7,0-1.045,0A1.98,1.98,0,0,0,25.381,4.567ZM5.042,8.38a.637.637,0,0,0-.452.4,1.078,1.078,0,0,0-.041.386c0,.378,0,.757,0,1.135a.637.637,0,0,0,.6.6c.4.008.795,0,1.192,0a.826.826,0,0,0,.395-.065.641.641,0,0,0,.36-.574c0-.426,0-.853,0-1.279a.638.638,0,0,0-.6-.624c-.338-.008-.677,0-1.016,0A2.385,2.385,0,0,0,5.042,8.38Zm20.338,0a.637.637,0,0,0-.433.4,1.072,1.072,0,0,0-.041.387c0,.377,0,.754,0,1.131a.638.638,0,0,0,.608.607c.406.006.812,0,1.218,0a.739.739,0,0,0,.38-.078.64.64,0,0,0,.335-.558c0-.428,0-.856,0-1.284a.637.637,0,0,0-.593-.622c-.349-.009-.7,0-1.047,0A1.928,1.928,0,0,0,25.379,8.385ZM5.041,12.2a.639.639,0,0,0-.491.608c0,.438-.005.877,0,1.315a.638.638,0,0,0,.627.6c.435,0,.87,0,1.3,0a.638.638,0,0,0,.608-.607c0-.436,0-.871,0-1.307a.638.638,0,0,0-.605-.626c-.348-.007-.7,0-1.045,0A2.12,2.12,0,0,0,5.041,12.2Zm20.335.006a.635.635,0,0,0-.43.394,1.06,1.06,0,0,0-.041.386c0,.377,0,.754,0,1.131a.638.638,0,0,0,.607.608c.435.005.87,0,1.306,0a.639.639,0,0,0,.628-.605c.006-.438,0-.876,0-1.313a.637.637,0,0,0-.592-.622c-.349-.01-.7,0-1.046,0A1.908,1.908,0,0,0,25.377,12.2Z" style="fill:#e75749"/><path d="M13.458,12.1q3.176,1.908,6.353,3.813l-.1.065q-3.127,1.872-6.251,3.748,0-1.868,0-3.736C13.459,14.695,13.456,13.4,13.458,12.1Z" style="fill:#fff"/><path d="M3.275,15.988q.771,0,1.541,0a2.052,2.052,0,0,1,.253.022.645.645,0,0,0-.409.273.883.883,0,0,0-.111.518c0,.348,0,.7,0,1.045a.686.686,0,0,0,.685.689q.6,0,1.192,0a.68.68,0,0,0,.657-.569c.008-.447,0-.9,0-1.343a.632.632,0,0,0-.521-.613,2.274,2.274,0,0,1,.251-.021c2.213,0,4.427,0,6.64,0q0,1.868,0,3.736,3.127-1.871,6.251-3.748c.2.018.391.007.587.01h4.741a2.275,2.275,0,0,1,.4.02.637.637,0,0,0-.475.385.983.983,0,0,0-.045.407c0,.338,0,.676,0,1.014a.677.677,0,0,0,.691.719q.58,0,1.16,0a.684.684,0,0,0,.686-.658c0-.328,0-.656,0-.984a1.074,1.074,0,0,0-.1-.589.642.642,0,0,0-.42-.292,1.814,1.814,0,0,1,.22-.022q.786,0,1.573,0c.011,1.721,0,3.443,0,5.165q0,3.147,0,6.293a2.567,2.567,0,0,1-.612,1.651,2.539,2.539,0,0,1-1.563.868,7.534,7.534,0,0,1-.981.033H6.724a9.27,9.27,0,0,1-1.368-.048,2.557,2.557,0,0,1-2-1.846,2.825,2.825,0,0,1-.09-.746q0-5.233,0-10.466C3.273,16.591,3.264,16.289,3.275,15.988ZM5.07,19.831a.613.613,0,0,0-.386.234.761.761,0,0,0-.134.464c0,.387,0,.775,0,1.162a.685.685,0,0,0,.686.658c.428,0,.855,0,1.283,0a.687.687,0,0,0,.568-.716c0-.4,0-.794,0-1.191a.617.617,0,0,0-.2-.458.712.712,0,0,0-.487-.17H5.264A1.039,1.039,0,0,0,5.07,19.831Zm20.366,0a.62.62,0,0,0-.522.58c0,.407,0,.815,0,1.222a.676.676,0,0,0,.69.718c.428,0,.857.005,1.285,0a.7.7,0,0,0,.562-.684q0-.507,0-1.013a.9.9,0,0,0-.123-.568.661.661,0,0,0-.532-.267c-.318,0-.636,0-.954,0A2.246,2.246,0,0,0,25.436,19.83ZM5.071,23.648a.609.609,0,0,0-.4.249.766.766,0,0,0-.124.448c0,.378,0,.755,0,1.132a.7.7,0,0,0,.6.688c.459,0,.917,0,1.376,0a.687.687,0,0,0,.567-.717c0-.4,0-.792,0-1.189a.617.617,0,0,0-.2-.459.71.71,0,0,0-.484-.17H5.265A1.028,1.028,0,0,0,5.071,23.648Zm20.362,0a.616.616,0,0,0-.492.427.99.99,0,0,0-.029.33c0,.4,0,.8,0,1.195a.681.681,0,0,0,.656.567h1.193a.689.689,0,0,0,.686-.719c0-.388,0-.776,0-1.164a.657.657,0,0,0-.286-.545,1.461,1.461,0,0,0-.787-.11C26.062,23.639,25.745,23.609,25.434,23.647Z" style="fill:#c0392b"/></svg>