<svg xmlns="http://www.w3.org/2000/svg" viewBox="0 0 32 32"><title>file_type_codecov</title><path d="M25.026,5.73A12.66,12.66,0,0,0,16.01,2,12.8,12.8,0,0,0,3.246,14.77l0,2.162,1.68-1.145a6.76,6.76,0,0,1,5.049-1.08,6.547,6.547,0,0,1,3.331,1.67,9.012,9.012,0,0,1,.753-1.349c.12-.177.248-.347.379-.513A8.718,8.718,0,0,0,10.355,12.6a9.006,9.006,0,0,0-1.607-.145,8.809,8.809,0,0,0-3.219.605A10.646,10.646,0,0,1,16.019,4.145a10.6,10.6,0,0,1,10.459,8.894,8.931,8.931,0,0,0-3.23-.612h-.156c-.114,0-.228,0-.339.011-.195.01-.388.028-.58.05-.057.006-.113.015-.17.023-.137.019-.274.039-.41.064l-.179.035q-.207.042-.41.093l-.146.037q-.256.069-.507.153l-.03.01a8.725,8.725,0,0,0-1.1.463l-.029.015q-.249.126-.49.269l-.04.024a8.581,8.581,0,0,0-2.223,1.919l-.078.1c-.137.172-.271.348-.4.532-.107.157-.206.316-.3.478l-.064.111c-.087.152-.171.306-.249.462l-.013.026a8.85,8.85,0,0,0-.462,1.124h0a8.772,8.772,0,0,0-.449,2.922c0,.04,0,.079,0,.119,0,.077.006.155.01.233,0,.062.007.123.012.185s.01.131.017.2.017.16.027.24c.006.051.012.1.019.153.019.133.04.266.066.4A8.812,8.812,0,0,0,18.2,28.485l.244.156,0,0a8.828,8.828,0,0,0,3.611,1.341l.174.023,1.293-2.075-.465-.013a6.673,6.673,0,0,1-.222-13.331l.222-.009a6.837,6.837,0,0,1,4.019,1.2l1.673,1.138,0-2.151A12.665,12.665,0,0,0,25.026,5.73" style="fill:#e0225c"/></svg>