<svg xmlns="http://www.w3.org/2000/svg" viewBox="0 0 32 32"><title>file_type_sqf</title><path d="M25,23.5H7a5.015,5.015,0,0,1-5-5v-6a5.015,5.015,0,0,1,5-5H25a5.015,5.015,0,0,1,5,5v6a5.015,5.015,0,0,1-5,5Z"/><path d="M7,19.461a4.81,4.81,0,0,1-1.414-.2,5.052,5.052,0,0,1-1.111-.472l-.4.432h-.5L3.5,16.052H4a8.462,8.462,0,0,0,.431.953,4.638,4.638,0,0,0,.606.9,3.177,3.177,0,0,0,.8.675,1.985,1.985,0,0,0,1.029.26,1.672,1.672,0,0,0,1.216-.411A1.382,1.382,0,0,0,8.5,17.391a1.156,1.156,0,0,0-.359-.862,2.945,2.945,0,0,0-1.111-.6q-.49-.167-.9-.31t-.773-.292a2.58,2.58,0,0,1-1.239-1.007,2.73,2.73,0,0,1-.405-1.465,2.406,2.406,0,0,1,.21-.986,2.608,2.608,0,0,1,.612-.85,2.967,2.967,0,0,1,.985-.575,3.722,3.722,0,0,1,1.306-.223,3.984,3.984,0,0,1,1.288.2,5.151,5.151,0,0,1,.944.408l.356-.37h.507l.047,2.988h-.5q-.175-.483-.411-.987a4.332,4.332,0,0,0-.5-.839,2.3,2.3,0,0,0-.659-.573,1.729,1.729,0,0,0-.875-.214A1.437,1.437,0,0,0,6,11.212a1.233,1.233,0,0,0-.4.934,1.141,1.141,0,0,0,.347.86,2.951,2.951,0,0,0,1.082.588q.431.154.88.309t.8.3a2.885,2.885,0,0,1,1.286.955,2.512,2.512,0,0,1,.44,1.512,2.632,2.632,0,0,1-.927,1.985,3.367,3.367,0,0,1-1.079.6A4.391,4.391,0,0,1,7,19.461Z" style="fill:#c2c2c2"/><path d="M18.921,11.434a4.338,4.338,0,0,1,.971,1.432,4.834,4.834,0,0,1,.359,1.914,4.958,4.958,0,0,1-.72,2.68,4.036,4.036,0,0,1-2.038,1.661,2.151,2.151,0,0,0,.42,1.272,1.168,1.168,0,0,0,.95.537,3.563,3.563,0,0,0,.592-.043q.254-.043.458-.1v.543a5.753,5.753,0,0,1-.985.3,6.054,6.054,0,0,1-1.37.151,2.206,2.206,0,0,1-1.612-.621,2.574,2.574,0,0,1-.708-1.732A4.579,4.579,0,0,1,13.7,19a4.186,4.186,0,0,1-1.253-.932,4.388,4.388,0,0,1-.842-1.377,4.769,4.769,0,0,1-.312-1.753,5.237,5.237,0,0,1,.347-1.948,4.5,4.5,0,0,1,.953-1.5,4.119,4.119,0,0,1,1.425-.942,4.86,4.86,0,0,1,3.5-.009A4.247,4.247,0,0,1,18.921,11.434Zm-1.5,6.266a4.857,4.857,0,0,0,.379-1.273,9.981,9.981,0,0,0,.117-1.606,10.534,10.534,0,0,0-.1-1.48,4.936,4.936,0,0,0-.347-1.282,2.41,2.41,0,0,0-.665-.9,1.571,1.571,0,0,0-1.032-.34,1.73,1.73,0,0,0-1.6,1.06,6.634,6.634,0,0,0-.548,2.993,9.583,9.583,0,0,0,.12,1.551,4.8,4.8,0,0,0,.376,1.273,2.286,2.286,0,0,0,.665.856,1.591,1.591,0,0,0,.991.306,1.611,1.611,0,0,0,.991-.309A2.135,2.135,0,0,0,17.423,17.7Z" style="fill:#c2c2c2"/><path d="M28.5,12.8h-.455a3.93,3.93,0,0,0-.6-1.086,1.385,1.385,0,0,0-.812-.63c-.116-.016-.272-.031-.465-.043s-.373-.019-.535-.019H24.349v3.433h.822a1.969,1.969,0,0,0,.606-.083,1.054,1.054,0,0,0,.455-.3,1.591,1.591,0,0,0,.283-.516,2.635,2.635,0,0,0,.166-.621h.443v3.686h-.443a2.471,2.471,0,0,0-.181-.676,2.094,2.094,0,0,0-.268-.528,1.012,1.012,0,0,0-.431-.293,1.842,1.842,0,0,0-.63-.1h-.822v2.9a.842.842,0,0,0,.079.38.58.58,0,0,0,.3.256,1.87,1.87,0,0,0,.353.1q.224.046.446.071v.482h-4.46v-.482l.449-.052a1.525,1.525,0,0,0,.391-.083.547.547,0,0,0,.292-.241.842.842,0,0,0,.082-.4v-6.18a.867.867,0,0,0-.073-.367.575.575,0,0,0-.3-.262,2.341,2.341,0,0,0-.431-.136q-.268-.062-.408-.08v-.482H28.5Z" style="fill:#c2c2c2"/></svg>