<svg xmlns="http://www.w3.org/2000/svg" viewBox="0 0 32 32"><title>file_type_solidarity</title><path d="M16,2a9.3,9.3,0,0,0-9.428,9.17,2.656,2.656,0,0,0,5.312,0A4.027,4.027,0,0,1,16,7.24,2.62,2.62,0,1,0,16,2Z" style="fill:#e73536;opacity:0.7999999523162842;isolation:isolate"/><path d="M25.432,11.17A9.3,9.3,0,0,0,16,2a2.62,2.62,0,1,0,0,5.24,4.027,4.027,0,0,1,4.117,3.93,2.656,2.656,0,0,0,5.312,0Z" style="fill:#938b98;opacity:0.7000000476837158;isolation:isolate"/><path d="M16,30a9.3,9.3,0,0,0,9.428-9.17,2.656,2.656,0,0,0-5.312,0A4.027,4.027,0,0,1,16,24.76,2.62,2.62,0,1,0,16,30Z" style="fill:#e73536;opacity:0.7999999523162842;isolation:isolate"/><path d="M6.568,20.83A9.3,9.3,0,0,0,16,30a2.62,2.62,0,1,0,0-5.24,4.027,4.027,0,0,1-4.117-3.93,2.656,2.656,0,0,0-5.312,0Z" style="fill:#938b98;opacity:0.7000000476837158;isolation:isolate"/><path d="M7.693,13.36l13.552,9.664a2.637,2.637,0,0,0,3.7-.645,2.7,2.7,0,0,0-.639-3.74L10.755,8.975a2.637,2.637,0,0,0-3.7.645A2.7,2.7,0,0,0,7.693,13.36Z" style="fill:#4c3e54;opacity:0.7000000476837158;isolation:isolate"/></svg>