<svg xmlns="http://www.w3.org/2000/svg" viewBox="0 0 32 32"><title>file_type_dartlang</title><path d="M16.739,2.037a1.314,1.314,0,0,0-.916.377l-.013.01L7.22,7.389l8.566,8.566v.006l10.3,10.3,1.963-3.536L20.968,5.728l-3.3-3.3a1.307,1.307,0,0,0-.927-.388Z" style="fill:#66c3fa"/><path d="M7.25,7.35,2.288,15.931l-.01.013a1.322,1.322,0,0,0-.378.919,1.3,1.3,0,0,0,.387.924L6.4,21.9l16.084,6.327,3.636-2.02-.1-.1-.025,0-10.083-10.1H15.9L7.25,7.35Z" style="fill:#215896"/><path d="M7.192,7.362l8.764,8.773h.013l10.087,10.1,3.839-.732L29.9,14.14l-4.054-3.973a6.521,6.521,0,0,0-3.624-1.616l0-.044L7.192,7.362Z" style="fill:#235997"/><path d="M7.256,7.411l8.768,8.768v.013L26.116,26.284l-.734,3.839H14.022l-3.971-4.056a6.522,6.522,0,0,1-1.614-3.625l-.044,0L7.256,7.411Z" style="fill:#58b6f0"/></svg>