<svg xmlns="http://www.w3.org/2000/svg" viewBox="0 0 32 32"><title>file_type_stylelint</title><path d="M16.19,29.434c3.063-10.949,2.974-11,5.187-18.806l.532.308c.29.166.526.029.526-.3V6.908c.588-2.057,1.047-3.647,1.183-4.123h2.4L30,6.474,27.383,8.735l1.979,2.14L16.322,29.434c-.063.105-.152.081-.132,0Zm1.425-23.6c.119,0,.214.065.214.147V7.887c0,.08-.1.145-.214.145h-3.22c-.119,0-.215-.065-.215-.146V5.978c0-.081.1-.147.214-.147h3.221ZM21.591,3.72,18.048,5.766a.392.392,0,0,1,.066.213V7.888a.391.391,0,0,1-.1.259l3.579,2.066c.244.141.444.026.444-.255V3.976C22.034,3.694,21.835,3.579,21.591,3.72ZM13.9,7.888V5.978a.388.388,0,0,1,.066-.213L10.417,3.719c-.244-.14-.444-.025-.444.256V9.956c0,.281.2.4.445.255L14,8.146a.391.391,0,0,1-.1-.259Zm1.783,21.546h.132c-3.062-10.949-2.974-11-5.187-18.806l-.532.308c-.289.166-.526.029-.526-.3V6.908C8.976,4.852,8.517,3.261,8.381,2.785h-2.4L2,6.474,4.616,8.735,2.637,10.876ZM15.9,12.017a.967.967,0,1,0-.967-.967A.967.967,0,0,0,15.9,12.017Zm0,5.75a.967.967,0,1,0-.967-.967A.967.967,0,0,0,15.9,17.768Zm0,5.752a.967.967,0,1,0-.967-.967A.967.967,0,0,0,15.9,23.52Z" style="fill:#cfcfcf"/></svg>