<svg xmlns="http://www.w3.org/2000/svg" xmlns:xlink="http://www.w3.org/1999/xlink" viewBox="0 0 32 32"><defs><radialGradient id="a" cx="31.824" cy="-818.913" r="48.27" gradientTransform="matrix(0.36, 0.402, 0.222, -0.163, 219.554, -100.133)" gradientUnits="userSpaceOnUse"><stop offset="0" stop-color="#7ce1ff"/><stop offset="0.3" stop-color="#7ce1ff" stop-opacity="0"/></radialGradient><radialGradient id="b" cx="4233.973" cy="-1187.763" r="83.239" gradientTransform="matrix(0.031, 0.03, 0.075, -0.062, 4.602, -145.763)" gradientUnits="userSpaceOnUse"><stop offset="0" stop-color="#7ce1ff"/><stop offset="1" stop-color="#7ce1ff" stop-opacity="0"/></radialGradient><radialGradient id="c" cx="-230.938" cy="-509.943" r="27.886" gradientTransform="matrix(-1.048, -0.5, -1.117, 0.527, -760.016, 209.725)" gradientUnits="userSpaceOnUse"><stop offset="0" stop-color="#7ce1ff" stop-opacity="0.8"/><stop offset="0.15" stop-color="#7ce1ff" stop-opacity="0"/></radialGradient></defs><title>file_type_light_mustache</title><path d="M2,19.555a16.73,16.73,0,0,1,.217-2.83,5.153,5.153,0,0,1,.816-2.111,3.8,3.8,0,0,1,1.64-1.31,6.972,6.972,0,0,1,2.718-.442,18.143,18.143,0,0,1,1.939.112,17.557,17.557,0,0,0,1.864.112,4.438,4.438,0,0,0,1.789-.314,2.721,2.721,0,0,0,1.145-.928,3.94,3.94,0,0,0,.629-1.482,13.431,13.431,0,0,0,.27-1.917h1.932a13.241,13.241,0,0,0,.307,1.954,4.074,4.074,0,0,0,.621,1.46,2.683,2.683,0,0,0,1.175.936,4.556,4.556,0,0,0,1.729.292,17.579,17.579,0,0,0,1.887-.112,17.937,17.937,0,0,1,1.932-.112,6.844,6.844,0,0,1,2.62.442,3.87,3.87,0,0,1,1.692,1.31,5.185,5.185,0,0,1,.846,2.126A15.74,15.74,0,0,1,30,19.555H28.772a12.975,12.975,0,0,0-.157-1.388,3.942,3.942,0,0,0-.382-1.253,2.213,2.213,0,0,0-.951-.873,3.894,3.894,0,0,0-1.759-.334h-3.5a7.738,7.738,0,0,1-2.605-.374,4.015,4.015,0,0,1-1.677-1.111,5.134,5.134,0,0,1-.951-1.607,11.961,11.961,0,0,1-.561-2.069H15.76a13.573,13.573,0,0,1-.554,2.031,5.009,5.009,0,0,1-.958,1.645,4.165,4.165,0,0,1-1.662,1.1,7.516,7.516,0,0,1-2.62.389H6.477a4.021,4.021,0,0,0-1.722.314,2.249,2.249,0,0,0-1,.893,3.62,3.62,0,0,0-.419,1.29c-.07.492-.115.943-.135,1.35Z"/><path d="M52.558,49.816c.061-.183-7-7.561-7-7.561" style="fill:none;stroke-linecap:round;stroke-width:76.7170028686524px;stroke:url(#a)"/><path d="M42.558,56.835s9.942-6.825,10-7" style="fill:#2aa7c9;stroke-linecap:round;stroke-width:76.7170028686524px;stroke:url(#b)"/><path d="M42.73,57.121h1.124" style="fill:none;stroke-linecap:round;stroke-width:100px;stroke:url(#c)"/></svg>