<svg xmlns="http://www.w3.org/2000/svg" viewBox="0 0 32 32"><title>file_type_ng_service_js2</title><defs><linearGradient id="a"><stop offset="0" stop-color="#0031cc" /><stop offset="1" stop-color="#0030b7" /></linearGradient></defs><g transform="matrix(.11923 0 0 .11923 2.7608 1.986)"><path d="m222.08 39.192-8.019 125.92-76.671-165.12zm-53.105 162.82-57.933 33.056-57.934-33.056 11.783-28.556h92.301zm-57.933-139.34 30.357 73.803h-60.715zm-103.1 102.44-7.937-125.92 84.69-39.192z" fill="url(#a)" /><path d="m222.08 39.192-8.019 125.92-76.671-165.12zm-53.105 162.82-57.933 33.056-57.934-33.056 11.783-28.556h92.301zm-57.933-139.34 30.357 73.803h-60.715zm-103.1 102.44-7.937-125.92 84.69-39.192z" fill="#0030b7" fill-opacity=".3" /></g><path d="M24.816,27.57a2.485,2.485,0,0,0,2.251,1.385c.945,0,1.549-.472,1.549-1.125,0-.782-.62-1.059-1.661-1.514l-.57-.245c-1.646-.7-2.74-1.58-2.74-3.437a3.048,3.048,0,0,1,3.341-3.014,3.372,3.372,0,0,1,3.245,1.827l-1.777,1.141a1.551,1.551,0,0,0-1.468-.978.993.993,0,0,0-1.092.978c0,.684.424.961,1.4,1.385l.57.244C29.806,25.048,30.9,25.9,30.9,27.8c0,2.054-1.614,3.179-3.78,3.179a4.383,4.383,0,0,1-4.157-2.333Zm-8.059.2c.358.636.684,1.173,1.468,1.173.75,0,1.222-.293,1.222-1.434V19.75h2.281v7.788a3.1,3.1,0,0,1-3.407,3.437A3.542,3.542,0,0,1,14.9,28.892Z" style="fill:#f5de19" /></svg>
