<svg xmlns="http://www.w3.org/2000/svg" viewBox="0 0 32 32"><title>file_type_gulp</title><path d="M15.942,24.095a15.353,15.353,0,0,1-3.518-.393,6.761,6.761,0,0,1-1.006-.311l.813,1.389.318,4.34c0,.487,1.546.881,3.452.881s3.452-.394,3.452-.881l.252-4.387.769-1.346a6.691,6.691,0,0,1-1.015.315A15.353,15.353,0,0,1,15.942,24.095ZM20.5,9.973a34.285,34.285,0,0,1-4.5.261,34.285,34.285,0,0,1-4.5-.261,8.43,8.43,0,0,1-1.4-.292,2.03,2.03,0,0,1-.345-.143L10.5,16.4q.052-.177.116-.354a6.711,6.711,0,0,1,.3-.707,6.264,6.264,0,0,1,.376-.653,5.049,5.049,0,0,1,.432-.566,3.45,3.45,0,0,1,.47-.445,2.238,2.238,0,0,1,.487-.291,1.235,1.235,0,0,1,.487-.1,1.051,1.051,0,0,1,.538.152,1.541,1.541,0,0,1,.486.492.393.393,0,0,1,.066.154.838.838,0,0,1,.014.147.391.391,0,0,1-.078.257.233.233,0,0,1-.185.094.237.237,0,0,1-.182-.1,1.953,1.953,0,0,1-.188-.295.712.712,0,0,0-.215-.251.453.453,0,0,0-.255-.078.788.788,0,0,0-.457.177,2.652,2.652,0,0,0-.481.468,5.131,5.131,0,0,0-.457.666,6.946,6.946,0,0,0-.386.767,5.477,5.477,0,0,0-.267.774,2.751,2.751,0,0,0-.1.685,1.64,1.64,0,0,0,.014.208.7.7,0,0,0,.052.194.389.389,0,0,0,.1.143.247.247,0,0,0,.166.056.561.561,0,0,0,.257-.076,1.928,1.928,0,0,0,.3-.2,3.741,3.741,0,0,0,.31-.279q.156-.155.29-.315t.238-.306a1.808,1.808,0,0,0,.156-.255l.284-.85a.4.4,0,0,1,.136-.2.3.3,0,0,1,.173-.058.267.267,0,0,1,.085.014.209.209,0,0,1,.13.125.3.3,0,0,1,.02.114,1.653,1.653,0,0,1-.031.326,2.587,2.587,0,0,1-.078.3q-.047.145-.105.291t-.113.306a.694.694,0,0,0-.044.114q-.032.1-.078.241t-.1.324l-.11.365q-.057.186-.108.365t-.093.324l-.069.242c-.018.065-.03.1-.034.116a.753.753,0,0,1-.049.128.848.848,0,0,1-.079.134.488.488,0,0,1-.1.1.186.186,0,0,1-.113.042.159.159,0,0,1-.142-.065.455.455,0,0,1-.044-.239v-.051a.514.514,0,0,1,0-.054A1.283,1.283,0,0,1,12.3,18.8q.043-.159.1-.36t.128-.416q.069-.215.124-.385-.162.181-.351.36a3.788,3.788,0,0,1-.388.322,2.3,2.3,0,0,1-.4.233.947.947,0,0,1-.388.09.694.694,0,0,1-.368-.094c-.019-.011-.036-.024-.053-.037l.415,4.352c.108.271,2.142.936,4.825.936s4.719-.666,4.825-.937l.6-5.174-.143.132a6.253,6.253,0,0,1-.484.41,2.184,2.184,0,0,1-.444.266,1.153,1.153,0,0,1-.464.094.562.562,0,0,1-.359-.1.337.337,0,0,1-.127-.278v-.027a.184.184,0,0,1,0-.031.657.657,0,0,1,.095-.25,2.868,2.868,0,0,1,.2-.293q.116-.152.247-.308t.243-.295a2.847,2.847,0,0,0,.185-.255.383.383,0,0,0,.073-.188.085.085,0,0,0-.031-.069.16.16,0,0,0-.1-.025.573.573,0,0,0-.252.063,1.251,1.251,0,0,0-.257.17,2.324,2.324,0,0,0-.247.244,3.6,3.6,0,0,0-.226.286q-.105.148-.192.3t-.148.277l-.052.112q-.034.072-.073.163t-.084.186q-.044.1-.081.181l-.066.152q-.029.067-.041.092t-.05.123q-.035.09-.081.212l-.1.255-.095.253-.078.21c-.022.06-.037.1-.043.123a1.32,1.32,0,0,1-.072.177.73.73,0,0,1-.095.147.433.433,0,0,1-.122.1.312.312,0,0,1-.154.038.3.3,0,0,1-.182-.052.236.236,0,0,1-.072-.2.631.631,0,0,1,.018-.148,1.322,1.322,0,0,1,.046-.15c.018-.05.037-.1.057-.145s.037-.092.053-.136q.165-.362.336-.725t.328-.72c.022-.05.042-.1.063-.147l-.019.019a4.054,4.054,0,0,1-.4.338,2.1,2.1,0,0,1-.391.233.922.922,0,0,1-.377.087.487.487,0,0,1-.209-.04.349.349,0,0,1-.134-.108.433.433,0,0,1-.072-.163c0-.021-.008-.044-.011-.066-.036.028-.072.055-.108.081a2.192,2.192,0,0,1-.373.215.824.824,0,0,1-.33.081.312.312,0,0,1-.238-.1.482.482,0,0,1-.091-.333,1.824,1.824,0,0,1,.049-.387,1.978,1.978,0,0,1-.2.286,1.741,1.741,0,0,1-.272.264,1.358,1.358,0,0,1-.342.193,1.122,1.122,0,0,1-.412.074.737.737,0,0,1-.194-.025.407.407,0,0,1-.163-.087.436.436,0,0,1-.113-.165.679.679,0,0,1-.043-.259s0-.039.012-.11a2.357,2.357,0,0,1,.078-.336q.066-.23.2-.6t.388-.886a.489.489,0,0,1,.148-.2.308.308,0,0,1,.182-.06.335.335,0,0,1,.089.013.286.286,0,0,1,.086.04.215.215,0,0,1,.064.069.187.187,0,0,1,.024.1.251.251,0,0,1-.009.069.824.824,0,0,1-.066.161q-.05.1-.118.228t-.142.277q-.075.148-.139.307a3.069,3.069,0,0,0-.11.324,1.4,1.4,0,0,0-.052.32.238.238,0,0,0,.031.119.107.107,0,0,0,.1.054.638.638,0,0,0,.379-.13,1.683,1.683,0,0,0,.333-.324,3.108,3.108,0,0,0,.276-.416q.124-.222.206-.407a2.063,2.063,0,0,0,.1-.264,2.626,2.626,0,0,1,.1-.26.8.8,0,0,1,.119-.2.211.211,0,0,1,.168-.08.208.208,0,0,1,.174.083.316.316,0,0,1,.064.2.566.566,0,0,1-.041.179q-.041.114-.1.26t-.136.313q-.073.167-.136.338a3.352,3.352,0,0,0-.1.336,1.26,1.26,0,0,0-.041.306.117.117,0,0,0,.134.13.586.586,0,0,0,.235-.065,1.607,1.607,0,0,0,.295-.183c.026-.02.052-.04.077-.061a2.511,2.511,0,0,1,.1-.327q.107-.282.217-.561l.2-.51.925-2.333a.391.391,0,0,1,.148-.2.354.354,0,0,1,.188-.058.272.272,0,0,1,.172.061.238.238,0,0,1,.078.2.407.407,0,0,1-.026.137,1.664,1.664,0,0,1-.066.156q-.076.17-.182.416t-.226.535q-.121.289-.247.6l-.247.609q-.12.3-.226.562l-.182.461a2.031,2.031,0,0,0-.066.194.713.713,0,0,0-.032.2.177.177,0,0,0,.018.087.073.073,0,0,0,.07.033.4.4,0,0,0,.16-.045,1.638,1.638,0,0,0,.208-.119q.112-.074.232-.17t.24-.2q.119-.1.228-.206t.194-.19a.137.137,0,0,1,.047-.031c.034-.1.066-.2.093-.3q.024-.065.067-.185a2.535,2.535,0,0,1,.1-.235,1.007,1.007,0,0,1,.124-.2A.193.193,0,0,1,19.185,16a.24.24,0,0,1,.177.056.226.226,0,0,1,.055.165.6.6,0,0,1-.006.069c0,.031-.009.065-.015.1s-.013.068-.02.1a.456.456,0,0,1-.02.069q.113-.123.244-.244a2.513,2.513,0,0,1,.272-.219,1.571,1.571,0,0,1,.287-.159.755.755,0,0,1,.293-.061.71.71,0,0,1,.2.029.575.575,0,0,1,.177.085.444.444,0,0,1,.127.141.388.388,0,0,1,.049.2.78.78,0,0,1-.075.317,2.293,2.293,0,0,1-.188.338q-.113.17-.244.331t-.246.293l-.193.224a.338.338,0,0,0-.081.125.1.1,0,0,0,.028.071.128.128,0,0,0,.092.027.352.352,0,0,0,.153-.058,2.6,2.6,0,0,0,.282-.2q.182-.143.461-.383c.128-.11.277-.241.446-.39l.808-7.48a2.024,2.024,0,0,1-.345.143A8.427,8.427,0,0,1,20.5,9.973ZM16,8.2c-3.492,0-6.322.39-6.322.872S12.5,9.942,16,9.942s6.322-.39,6.322-.872S19.488,8.2,16,8.2Zm2.524,1.127c0,.113-.336.2-.751.2s-.751-.092-.751-.2.336-.2.751-.2S18.521,9.212,18.521,9.325Z" style="fill:#da4648"/><path d="M17.17,9.234a.034.034,0,0,0-.006.018c0,.073.271.132.6.132s.6-.059.6-.132l.79-3.2,3.142-3.317,0,0c.066-.075-.068-.308-.292-.508s-.466-.267-.541-.191l0,0L18.122,5.559Z" style="fill:#da4648"/></svg>