<svg xmlns="http://www.w3.org/2000/svg" viewBox="0 0 32 32"><title>file_type_lisp</title><path d="M24.241,21.152a1.442,1.442,0,1,1-2.879.11l.055-5.133c0-1.783,1.877-3.727,4.427-3.755a1.469,1.469,0,0,0,0-2.938H11.457a1.774,1.774,0,0,0-2.023,1.878v8.515a1.441,1.441,0,1,1-2.879,0S6.5,13.34,6.5,11.149a4.763,4.763,0,0,1,4.869-4.715H25.778A4.1,4.1,0,0,1,30,10.686a4.408,4.408,0,0,1-3.92,4.609c-1.264,0-1.8.71-1.8,1.891Z" style="fill:#c40804"/><path d="M2.025,10.989,2,21.062a4.476,4.476,0,0,0,4.361,4.5l9.357-.09a4.12,4.12,0,0,0,4.028-4.289A4.137,4.137,0,0,0,15.427,16.9a1.47,1.47,0,1,1,0-2.938h4.239c1.928,0,1.879-3.055,0-3.055l-4.522.055a4.285,4.285,0,0,0-4.221,4.3,4.334,4.334,0,0,0,4.309,4.531,1.462,1.462,0,1,1,.019,2.922H6.94a1.807,1.807,0,0,1-1.972-1.987l-.055-9.714A1.453,1.453,0,1,0,2.025,10.989Z" style="fill:#c40804"/></svg>