<svg xmlns="http://www.w3.org/2000/svg" viewBox="0 0 32 32"><title>file_type_lsl</title><path d="M7.556,14.485c-.024.3.137,2.121.2,3.181a36.589,36.589,0,0,0,.22,3.9,6.052,6.052,0,0,0,2.279,4.241,10.921,10.921,0,0,0,5.117,1.647,11.873,11.873,0,0,0,4.961-.671,5.374,5.374,0,0,0,3-3.22,5.008,5.008,0,0,0-.351-4.066,5.858,5.858,0,0,0-3.541-2.208,10.167,10.167,0,0,0-5.236.157,8.084,8.084,0,0,0-3.177,1.877.747.747,0,0,0-.115,1.113c.289.321.676.385,1.3,0,.487-.3.977-1.016,1.693-1.114.252-.026.316.149.21.351A3.338,3.338,0,0,0,14.04,22.2a3.233,3.233,0,0,0,2.173,1.753,3.487,3.487,0,0,0,3.085-.911,2.917,2.917,0,0,0,.6-2.875.835.835,0,0,0-.771-.49.412.412,0,0,0-.316.315c-.025.124.193.237.14.351a.683.683,0,0,1-1.051.351.852.852,0,0,1-.175-1.051,1.508,1.508,0,0,1,1.4-.491,2.849,2.849,0,0,1,2.208,1.227,3.4,3.4,0,0,1-.141,3.225,4.906,4.906,0,0,1-3.225,1.823A9.11,9.11,0,0,1,13.374,25a4.707,4.707,0,0,1-3.19-3.295,24.763,24.763,0,0,1-.22-4.074A4.708,4.708,0,0,0,9.333,15a1.826,1.826,0,0,0-1.427-.763C7.686,14.213,7.535,14.32,7.556,14.485Z" style="fill:#7fadb2"/><path d="M16.256,27.52a8.221,8.221,0,0,1-.886-.045,10.8,10.8,0,0,1-5.127-1.651,6.064,6.064,0,0,1-2.288-4.256A17.719,17.719,0,0,1,7.779,19c-.008-.437-.017-.888-.044-1.333-.023-.38-.059-.862-.093-1.328-.063-.851-.122-1.654-.108-1.855A.217.217,0,0,1,7.6,14.3a.374.374,0,0,1,.313-.082,1.855,1.855,0,0,1,1.441.771A4.651,4.651,0,0,1,9.984,17.6v.029c.02.445.021.9.023,1.335a12.824,12.824,0,0,0,.2,2.735,4.686,4.686,0,0,0,3.176,3.279,9.066,9.066,0,0,0,4.583.42,4.734,4.734,0,0,0,3.21-1.813,3.359,3.359,0,0,0,.14-3.2,2.85,2.85,0,0,0-2.192-1.216,1.489,1.489,0,0,0-1.382.481.831.831,0,0,0,.168,1.023.694.694,0,0,0,.658.07.574.574,0,0,0,.362-.406c.024-.052-.018-.105-.061-.161a.248.248,0,0,1-.079-.189.436.436,0,0,1,.334-.332.851.851,0,0,1,.793.5,2.945,2.945,0,0,1-.6,2.9,3.527,3.527,0,0,1-3.1.917,3.237,3.237,0,0,1-2.188-1.765,3.494,3.494,0,0,1,.023-2.461.24.24,0,0,1,.051-.087.25.25,0,0,0,.018-.249.213.213,0,0,0-.211-.066,2.372,2.372,0,0,0-1.185.707,3.778,3.778,0,0,1-.5.4c-.578.358-1,.356-1.324,0a.768.768,0,0,1-.2-.554.853.853,0,0,1,.318-.588A8.1,8.1,0,0,1,14.2,17.426a10.262,10.262,0,0,1,5.248-.157A5.7,5.7,0,0,1,23,19.486a5,5,0,0,1,.353,4.084A5.377,5.377,0,0,1,20.341,26.8,12.34,12.34,0,0,1,16.256,27.52ZM7.843,14.257a.3.3,0,0,0-.217.074.176.176,0,0,0-.049.152v0c-.015.194.045,1,.108,1.85.034.466.07.948.093,1.328.026.445.035.9.044,1.335A17.687,17.687,0,0,0,8,21.562a6.023,6.023,0,0,0,2.27,4.228,10.76,10.76,0,0,0,5.107,1.643,11.933,11.933,0,0,0,4.951-.669,5.336,5.336,0,0,0,2.984-3.208,4.961,4.961,0,0,0-.349-4.048,5.664,5.664,0,0,0-3.528-2.2,10.221,10.221,0,0,0-5.225.157,8.067,8.067,0,0,0-3.168,1.873.812.812,0,0,0-.3.559.726.726,0,0,0,.19.524c.313.347.705.346,1.271,0a3.743,3.743,0,0,0,.493-.4A2.4,2.4,0,0,1,13.9,19.3a.246.246,0,0,1,.25.084.292.292,0,0,1-.019.3l0,.007-.008,0a3.346,3.346,0,0,0-.058,2.5,3.193,3.193,0,0,0,2.158,1.741,3.484,3.484,0,0,0,3.066-.9,2.9,2.9,0,0,0,.592-2.853.816.816,0,0,0-.75-.478.39.39,0,0,0-.3.3c-.01.05.031.1.071.155s.1.129.068.2a.613.613,0,0,1-.386.433.736.736,0,0,1-.7-.073.878.878,0,0,1-.182-1.08,1.527,1.527,0,0,1,1.422-.5,2.893,2.893,0,0,1,2.225,1.237,3.4,3.4,0,0,1-.141,3.246,4.773,4.773,0,0,1-3.238,1.832,9.108,9.108,0,0,1-4.6-.422,4.728,4.728,0,0,1-3.2-3.309,12.855,12.855,0,0,1-.2-2.744c0-.438,0-.89-.023-1.334V17.6a4.621,4.621,0,0,0-.626-2.588,1.816,1.816,0,0,0-1.409-.755A.555.555,0,0,0,7.843,14.257Z" style="fill:#fff"/><path d="M10.31,6.11a1.266,1.266,0,0,0-.833,1.279,74.929,74.929,0,0,0,2.273,8.892,1.163,1.163,0,0,0,1.076.487c.353-.106.52-.572.589-.934A64.078,64.078,0,0,0,11.71,6.841,1.3,1.3,0,0,0,10.31,6.11Z" style="fill:#7fadb2"/><path d="M12.653,16.814a1.332,1.332,0,0,1-.919-.52l0-.007A75.532,75.532,0,0,1,9.456,7.392a1.291,1.291,0,0,1,.848-1.3,1.317,1.317,0,0,1,1.425.744,63.464,63.464,0,0,1,1.707,9v.007c-.058.3-.213.834-.6.951A.62.62,0,0,1,12.653,16.814Zm-.884-.544a1.143,1.143,0,0,0,1.051.478c.368-.11.517-.619.574-.915a63.415,63.415,0,0,0-1.7-8.985,1.289,1.289,0,0,0-1.375-.717h0A1.247,1.247,0,0,0,9.5,7.388,75.568,75.568,0,0,0,11.769,16.27Z" style="fill:#fff"/><path d="M15,4.506c-.581.053-.948.758-1.016,1.288a84.584,84.584,0,0,0,1,9.729.866.866,0,0,0,1,.672c.437-.012.686-.469.716-.9a72.746,72.746,0,0,0-.421-9.754A1.343,1.343,0,0,0,15,4.506Z" style="fill:#7fadb2"/><path d="M15.792,16.245a.964.964,0,0,1-.829-.716,85.2,85.2,0,0,1-1-9.735c.065-.513.429-1.255,1.034-1.31a1.366,1.366,0,0,1,1.3,1.052,71.984,71.984,0,0,1,.421,9.758c-.03.448-.292.907-.733.921A.656.656,0,0,1,15.792,16.245ZM15.082,4.522a.721.721,0,0,0-.08,0h0c-.582.053-.933.774-1,1.27a85.253,85.253,0,0,0,1,9.723.847.847,0,0,0,.971.656h.006c.418-.012.666-.452.7-.881a71.972,71.972,0,0,0-.42-9.748A1.347,1.347,0,0,0,15.082,4.522Z" style="fill:#fff"/><path d="M20.019,5.875c-.525-.056-.976.506-1.13.966a76.758,76.758,0,0,0-.831,8.827c.051.425.356.817.769.774.39.066.693-.3.8-.675a65.8,65.8,0,0,0,1.348-8.746A1.217,1.217,0,0,0,20.019,5.875Z" style="fill:#7fadb2"/><path d="M18.919,16.47a.568.568,0,0,1-.092-.008c-.431.043-.738-.369-.789-.793a77.3,77.3,0,0,1,.831-8.832c.149-.445.6-1.041,1.152-.983a1.239,1.239,0,0,1,.971,1.167,65.149,65.149,0,0,1-1.349,8.75A.854.854,0,0,1,18.919,16.47Zm-.091-.05h0c.372.062.67-.284.772-.66a65.11,65.11,0,0,0,1.348-8.74A1.192,1.192,0,0,0,20.017,5.9h0c-.526-.057-.964.523-1.107.951a77.365,77.365,0,0,0-.83,8.821c.048.4.34.794.745.753Z" style="fill:#fff"/><path d="M23.8,8.739c-.436-.1-.874.312-1.054.672A62.105,62.105,0,0,0,21.1,16.546a.653.653,0,0,0,.564.714.667.667,0,0,0,.74-.469A52.941,52.941,0,0,0,24.48,9.776,1,1,0,0,0,23.8,8.739Z" style="fill:#7fadb2"/><path d="M21.8,17.3a.485.485,0,0,1-.136-.02.676.676,0,0,1-.582-.735,62.539,62.539,0,0,1,1.645-7.141c.175-.35.624-.791,1.079-.687A1.028,1.028,0,0,1,24.5,9.779a52.4,52.4,0,0,1-2.073,7.02A.752.752,0,0,1,21.8,17.3Zm1.867-8.556a1.176,1.176,0,0,0-.9.676,62.589,62.589,0,0,0-1.642,7.129.633.633,0,0,0,.544.689h.006a.647.647,0,0,0,.715-.457,52.348,52.348,0,0,0,2.07-7.01.981.981,0,0,0-.66-1.014h0A.579.579,0,0,0,23.668,8.745Z" style="fill:#fff"/><path d="M10.029,2.02H25.546a4.184,4.184,0,0,1,2.546,1.088A6.3,6.3,0,0,1,29.91,6.883a8.157,8.157,0,0,0,.09.849v.489a.929.929,0,0,1-.409.649,1.588,1.588,0,0,1-.9.14H26.5V25.167a4.763,4.763,0,0,1-.709,2.516,4.833,4.833,0,0,1-2.506,2,5.8,5.8,0,0,1-1.278.3H7.262a5.372,5.372,0,0,1-3-1.068A5.991,5.991,0,0,1,2.14,25.317c-.07-.34-.1-.7-.14-1v-.549a1,1,0,0,1,.409-.6,1.478,1.478,0,0,1,.889-.18H5.535V6.823a4.773,4.773,0,0,1,1.5-3.475,4.853,4.853,0,0,1,3-1.328M7.492,5.715a6.081,6.081,0,0,0-.21,2.2V22.98h9.736a.869.869,0,0,1,.779.579,3.994,3.994,0,0,1,.07.759,4.553,4.553,0,0,0,1.378,3,3.545,3.545,0,0,0,2.407.869,3.056,3.056,0,0,0,3.115-3q0-.03,0-.061,0-8.987,0-17.974a2.6,2.6,0,0,1,0-.619,6.091,6.091,0,0,1,.759-1.857,3,3,0,0,1,.9-1H10.338A3.076,3.076,0,0,0,7.492,5.715Z" style="fill:#333"/></svg>