<svg xmlns="http://www.w3.org/2000/svg" viewBox="0 0 32 32"><title>file_type_bundler</title><path d="M20.06,2.431c0,.025.095.1.21.158.748.4,1.237.67,2.248,1.233a9.787,9.787,0,0,0,1.26.635c.355,0,.2-.122-1.043-.811l-1.5-.831c-.675-.378-1.176-.542-1.176-.384m-1.032.3a6.022,6.022,0,0,0-2.4,2.066,8.779,8.779,0,0,0-1.248,3.613c-.124.576-.214.958-.531,2.256a3.109,3.109,0,0,0-.105.539c.072.063,3.7,2.05,3.746,2.05s.069-.069.088-.154.093-.368.165-.63.2-.728.28-1.036.21-.774.284-1.036.185-.716.247-1.008a6.332,6.332,0,0,1,3.2-4.511l.335-.179-.187-.112c-.18-.107-.412-.236-1.139-.634l-.508-.28c-.095-.053-.41-.223-.7-.377s-.688-.372-.883-.483-.359-.2-.364-.2l-.285.115m5.513,1.9c-4.6.593-6.521,7.255-2.764,9.567,2.71,1.667,6.562-.538,7.228-4.138.589-3.181-1.567-5.8-4.464-5.429m1.141,1.4c2.8.732,2.942,5.066.227,6.8a3.5,3.5,0,0,1-2.891.428,1.737,1.737,0,0,0-.311-.125c-.259,0-1.059-.811-1.333-1.351-1.424-2.81,1.358-6.527,4.308-5.755M9.3,11.027c-.9.5-.937.533-.49.39a6.072,6.072,0,0,1,3.262.3c.62.2.58.154-.283-.32-1.81-.994-1.472-.943-2.488-.374m10.129.188c-.016.057-.059.242-.1.412s-.117.48-.179.689a1.812,1.812,0,0,0-.092.4c.042.039,1.462.815,1.493.815s-.018-.057-.079-.126a4.732,4.732,0,0,1-.838-1.778c-.112-.463-.165-.568-.208-.412m-4.892.554c-.018.047-.024.094-.012.1A24.168,24.168,0,0,0,18.339,13.9c.061-.153.4.05-3.476-2.087-.284-.157-.286-.157-.329-.046m-1.21,1.164c-1.6.884-1.569.791-.808,2.122.287.5.639,1.127.781,1.389.266.489.447.728.553.728.036,0,.026-.052-.024-.129a30.059,30.059,0,0,1-1.609-2.994c0-.23.182-.375,1.148-.909,1.207-.668,1.227-.681,1.139-.736-.108-.069-.043-.1-1.181.529m14.388,1.426a1.253,1.253,0,0,1-.269.171c-.133.07-.318.172-.41.228s-.924.525-1.848,1.043c-2.087,1.169-1.911,1.071-2.223,1.249s-3.752,2.115-4.022,2.265c-3.173,1.762-3.488,1.969-3.171,2.091a14.379,14.379,0,0,0,2.191-1.155c.123-.071.325-.185.448-.253s1.018-.571,1.988-1.119c2.074-1.17,1.793-1.012,3.837-2.155.893-.5,1.738-.979,1.876-1.065s.416-.244.616-.352c1.156-.621,1.2-.655,1.154-.849-.035-.141-.113-.188-.167-.1m-22.966.622c-.111.044-.027.1.858.579.172.093.841.461,1.487.818a9.679,9.679,0,0,0,1.283.64c.359-.027.228-.109-3.085-1.925-.306-.168-.366-.18-.542-.111M3.6,15.646c-.615.607-.824,1.078-.479,1.078a.267.267,0,0,1,.2.112.265.265,0,0,0,.221.112c.1,0,.162.037.186.112s.085.112.2.112.171.034.2.112.085.112.186.112a.265.265,0,0,1,.224.117c.042.068.108.1.155.085a.192.192,0,0,1,.177.079.339.339,0,0,0,.221.111.233.233,0,0,1,.186.112.232.232,0,0,0,.2.112.232.232,0,0,1,.2.112.232.232,0,0,0,.2.112.267.267,0,0,1,.208.112.258.258,0,0,0,.194.112.232.232,0,0,1,.185.112c.1.184.2.13.391-.2a3.979,3.979,0,0,1,.559-.691L7.78,17.3l-1.133-.627c-.623-.345-1.219-.672-1.323-.726s-.432-.23-.727-.39c-.653-.354-.538-.364-.994.087m11.5.235a.986.986,0,0,1,.086.378c0,.158.015.191.055.129a.584.584,0,0,0-.046-.579c-.154-.14-.19-.112-.1.073m-5.88,1.5,1.148.628c1.432.785,1.469.8.994.331a2.811,2.811,0,0,0-2.03-1.052l-.28,0,.168.091m13.162,2.1c-1.53.8-2.341,1.993-1.654,2.427a3.907,3.907,0,0,1,1.085,1.4,12.27,12.27,0,0,1,.739,2.1,8.121,8.121,0,0,0,.656,1.717c.037.023.047-.014.028-.1s-.133-.643-.259-1.265a14.831,14.831,0,0,0-1.243-4.076c-.433-.9-.131-1.643.933-2.31.2-.128.048-.072-.286.1m-9.414.715a.984.984,0,0,0-.416.488c0,.046.025.067.056.048a.142.142,0,0,0,.056-.11c0-.448.81-.44,2.885.029.533.12.692.055.184-.076a9.651,9.651,0,0,0-2.765-.38m9.33.161c0,.024.076.089.168.143.177.1.245.024.1-.12-.075-.075-.269-.092-.269-.023m-.224.365a.239.239,0,0,0,.235.207c.142,0,.125-.083-.037-.19s-.2-.112-.2-.018M26.7,25.153a3.2,3.2,0,0,1-.8,2.994c-.5.441.063.221.8-.31,1-.726,1.014-.79.394-2.012-.234-.462-.412-.765-.4-.672M25.1,26.382c-.07.075-.118.164-.107.2s.107-.027.213-.136c.127-.131.163-.2.107-.2a.419.419,0,0,0-.213.136m.248.312c-.112.116-.135.168-.076.168.083,0,.328-.222.328-.3s-.1-.031-.252.13" style="fill:#fff"/><path d="M19.9,2.308c0,.04,2.077,1.214,3.37,1.905.134.072.282.081.863.057l.7-.03L24.588,4.1c-.315-.183-2.327-1.269-2.642-1.426C21.388,2.4,19.9,2.129,19.9,2.308m-.878.162-.257.079L19,2.674c.865.46,3.409,1.885,3.422,1.917a1.045,1.045,0,0,0,.5-.162,4.409,4.409,0,0,0-.553-.32c-1.157-.612-2.98-1.635-3-1.681s-.022-.058-.347.042m4.436,3.794c-2.417.492-3.743,4.474-1.795,5.39,1.593.749,3.633-.628,3.9-2.634.212-1.574-.883-3-2.108-2.756m1.628.416c1.806,1.935-.184,5.771-2.778,5.353-.393-.063-.43-.043-.191.1a2.44,2.44,0,0,0,1.791.24c2.6-.673,3.491-4.346,1.386-5.692-.3-.194-.386-.2-.208,0M23.924,7.8c.835.461,1.067.773,1.065,1.428,0,1.567-1.788,2.11-2.994.911S22.43,6.975,23.924,7.8m-.549.45a1.4,1.4,0,0,0-.5,2.15c.7.672,1.929-.064,1.934-1.159a.986.986,0,0,0-1.436-.991m4.838.492c0,.1.016.146.037.094a.3.3,0,0,0,0-.189c-.02-.052-.037-.009-.037.094M24.29,8.9c.035.141-.092.383-.164.311-.021-.021-.008-.076.029-.121a.319.319,0,0,0,.034-.256c-.041-.2.049-.144.1.066m-.554.1a.293.293,0,0,0-.077.169l-.023.135-.044-.154c-.045-.156.041-.28.149-.213.028.017.026.044-.005.064m.716.437c.073.334-.086.5-.671.694-.383.128-.434.136-.434.072a1.168,1.168,0,0,1,.386-.167c.488-.157.663-.319.622-.575-.037-.226.049-.248.1-.024m-15.795.54c-1.318.728-1.432.827-1.432,1.234s.137.44.174.057a.994.994,0,0,1,.131-.414A14.588,14.588,0,0,1,9.907,9.512c.1-.016.161-.05.145-.076-.08-.13-.4-.005-1.394.546M23.91,9.437c.016.026-.02.061-.08.076-.087.023-.1.057-.074.168.02.08.012.139-.019.139-.1,0-.11-.323-.017-.378.109-.064.153-.065.189-.005m-15.052.7c-1.136.636-1.285.747-1.36,1.02s-.016.38.178.306c.065-.025.07-.058.026-.155-.1-.216.025-.32,1.094-.911,1.088-.6,1.206-.639,1.491-.466s.324.068.088-.212-.354-.232-1.517.419m.049.3c-1.474.828-1.486.683.125,1.541.237.126.8.433,1.251.681.939.517.873.5,1.014.278a3.759,3.759,0,0,1,1.038-.685c1.072-.6,1.028-.538.593-.777-2.2-1.205-2.931-1.6-2.978-1.6-.031,0-.5.253-1.043.558m1.534,0c.507.279,1.139.62,1.692.914.633.337.6.386-.117.156a10.261,10.261,0,0,0-1.393-.392,6.546,6.546,0,0,0-2.012.023c-.635.155-.605.125.475-.479l.512-.287c.375-.21.34-.212.843.064m3.76.682c-.031.118-.039.2-.016.189a11.134,11.134,0,0,1,1.192.612c1.385.767,1.96,1.08,2.175,1.186a1.473,1.473,0,0,1,.251.157c.095.081.088.092.188-.268.014-.052,0-.094-.025-.094a6.246,6.246,0,0,1-.664-.342c-.889-.5-1.346-.745-1.529-.837-.089-.044-.459-.246-.822-.449-.78-.435-.68-.415-.75-.154m-6.7.508-.288.124,1.177.639,1.736.945c.616.337.885.357.957.071.045-.18.021-.2-.668-.567-.348-.185-1.045-.563-1.549-.839-1.021-.559-.969-.545-1.366-.373m6.028.075c-1.847.943-2.317,1.3-2.316,1.744a18.748,18.748,0,0,0,1.659,3.107c.206.25-.075-.273-1.093-2.035-.707-1.223-.67-1.311.939-2.205a11.921,11.921,0,0,1,1.158-.6.147.147,0,0,0,.115-.054c.055-.09-.259-.061-.46.041m-.7.653c-1.778.992-1.749.741-.36,3.183.875,1.539.945,1.579,1.862,1.071.811-.449.931-.75.717-1.794-.56-2.724-.575-2.787-.735-2.925-.231-.2-.371-.156-1.483.465M7.064,11.87a.268.268,0,0,0,.259.27.255.255,0,0,1,.214.108.257.257,0,0,0,.2.108.223.223,0,0,1,.19.108.226.226,0,0,0,.214.108c.109,0,.167.033.19.108s.082.108.19.108a.226.226,0,0,1,.214.108A.223.223,0,0,0,8.925,13a.277.277,0,0,1,.22.135.271.271,0,0,0,.238.135.2.2,0,0,1,.181.081.185.185,0,0,0,.166.081.276.276,0,0,1,.224.135.292.292,0,0,0,.2.135.365.365,0,0,1,.207.087c.1.092.286.063.252-.039-.018-.053-1.066-.643-2.82-1.589-.656-.354-.728-.383-.728-.293m7.441-.024a.452.452,0,0,0,.055.12,3.132,3.132,0,0,1,.15.524c.1.471.063.428.685.713,1.949.9,1.775,4.095-.292,5.36-.4.246-.24.23.2-.02.969-.547,1.442-1.4,2.25-4.084.1-.341.21-.688.237-.77s.031-.139,0-.117a2.443,2.443,0,0,1-.631-.288c-.854-.473-1.121-.619-1.642-.895-.259-.137-.592-.321-.741-.409a.949.949,0,0,0-.271-.134m-.288.214a5.981,5.981,0,0,1-.966.593,10.41,10.41,0,0,0-1.132.683c-.266.258-.289.2,1.034,2.517a5.107,5.107,0,0,1,.412.8c-.128.128-.334-.162-1.2-1.686-.846-1.5-.8-1.383-.7-1.613.158-.377,2.468-1.555,2.548-1.3m8.956.94a.4.4,0,0,0,.216,0c.052-.02,0-.036-.122-.035s-.161.017-.094.036m-8.254.422c-.055.094.08.286.271.384,1.532.792,1.241,3.465-.47,4.3a2.05,2.05,0,0,1-2.221-.145c-.535-.3-.6-.3-.425-.061a2.167,2.167,0,0,0,2.219.675c2.045-.607,2.909-3.355,1.48-4.706-.324-.307-.793-.554-.854-.451m3.969.494c-1.087.618-1.076.61-1.124.828a13.765,13.765,0,0,1-1.137,2.908A3.76,3.76,0,0,1,14.77,19.1c-.222,0-.124.1.338.353a2.242,2.242,0,0,1,.574.4l.094.152c.005.009.407-.212.893-.491s1.514-.859,2.285-1.29,1.548-.868,1.725-.972c.365-.214,3.371-1.9,3.6-2.019a.281.281,0,0,1,.21-.038c.038.024.049.016.026-.021s.076-.125.248-.223c.3-.174.4-.2.334-.1-.024.039-.015.048.025.023a.067.067,0,0,0,.035-.085,4.009,4.009,0,0,1,.78-.5c.9-.5.888-.485.5-.7l-.278-.157-.177.134a4.5,4.5,0,0,1-4.938.426c-1.273-.738-1-.729-2.152-.071m-7.941-.279c-.124.047-.331.284-.248.284.18,0,.41-.124.41-.221s-.024-.116-.162-.063m4.044.2c0,.016.075.387.168.823.267,1.262.145,1.586-.788,2.093-.954.518-1.333.365-1.974-.8-.335-.607-.328-.6-.414-.282A1.94,1.94,0,0,0,14.1,18.233a2.572,2.572,0,0,0,1.519-3.964c-.167-.192-.634-.512-.634-.435m5.112.473c.2.2-.031.517-.458.607-.18.038-.394-.1-.394-.257,0-.269.661-.541.852-.35m-.469.06c-.231.081-.386.288-.254.339.261.1.838-.2.649-.338-.117-.085-.156-.085-.4,0M5.15,14.5c.136.086,1.065.6,2.993,1.654a1.032,1.032,0,0,1,.34.238c-.006.025.1.028.243,0a2.177,2.177,0,0,1,.509-.011c.343.041.325.008-.135-.243l-1.577-.86c-1.341-.731-1.561-.82-2.13-.858l-.4-.027.162.1m-.86.117c-.165.073-.2.105-.135.143.043.027.855.479,1.8,1a18.721,18.721,0,0,1,1.713,1.01c-.007.03.075-.005.183-.078a.789.789,0,0,1,.274-.133c.043,0-.1-.093-.318-.208-1.257-.659-3.2-1.741-3.218-1.794s-.05-.057-.3.055m7.548.6a2.739,2.739,0,0,0,.136,2.343c.141.128.132.064-.043-.293a3.036,3.036,0,0,1-.1-1.729c.077-.3.082-.523.007-.32m3.013.085c.156.155.155.315,0,.621q-.193.379-.145-.087a.649.649,0,0,0-.083-.486c-.146-.247,0-.277.228-.048m7.054-.019c.141.222-.036.436-.436.526-.27.061-.439-.021-.439-.212,0-.319.709-.574.875-.314m-.475-.014c-.238.069-.382.239-.293.345s.179.1.437-.028c.422-.215.315-.45-.144-.317m-7.049.113a.416.416,0,0,1,.125.355.5.5,0,0,1-.838.41c-.4-.436.281-1.171.713-.765m-.572.187c-.151.192-.143.374.023.483s.324.063.277-.059c-.035-.09.048-.111.1-.026.038.062.134.02.134-.058,0-.028-.036-.051-.081-.051s-.081-.024-.081-.052.036-.038.081-.021c.106.041.1-.084,0-.238a.265.265,0,0,0-.451.022m5.411,1.256c.2.225-.114.543-.542.543s-.459-.36-.056-.543c.288-.131.48-.131.6,0m-.536.025c-.33.144-.368.353-.066.356s.69-.322.492-.4a.522.522,0,0,0-.426.042M8.7,17.194a1.191,1.191,0,0,0-.586.56c-.042.182-.02.2,1.4.964.623.335,1.409.764,1.747.953.75.419.868.457.87.28,0-.29.411-.586.807-.586a17.547,17.547,0,0,1,2.144.343c.42.1.394.052-.135-.242l-.418-.232-.674-.008c-.829-.01-.953-.053-2.265-.778-.519-.287-1.211-.662-1.537-.834s-.617-.33-.647-.352a1.986,1.986,0,0,0-.711-.069m2.329.446a1.5,1.5,0,0,0,.238.216.936.936,0,0,0-.184-.216,1.5,1.5,0,0,0-.238-.216.936.936,0,0,0,.184.216m10.918.689c-1.654.824-2.205,1.351-2.37,2.268-.088.486-.042.63.258.817a4.564,4.564,0,0,1,1.52,2.669c.876,2.927,1.52,3.747,2.938,3.747,1.067,0,2.541-.941,2.688-1.716.069-.365-1.207-3.133-2.738-5.941-.283-.519-.667-1.253-.852-1.631-.4-.82-.268-.8-1.444-.215m.917-.051a1.54,1.54,0,0,1-.4.251c-1.457.75-1.8,1.435-1.281,2.523a15.1,15.1,0,0,1,1.108,3.624c.043.237.126.662.184.944.183.883.186.908.087.782a6.372,6.372,0,0,1-.6-1.4,10.373,10.373,0,0,0-1.113-2.939,3.165,3.165,0,0,0-.813-.893c-.443-.238-.056-1.219.709-1.8a9.4,9.4,0,0,1,2.121-1.094m-.951,1.307c.164.129.208.481.061.481a.094.094,0,0,0-.081.1c0,.18-.32.229-.532.08-.08-.056-.115-.123-.1-.189s0-.088-.022-.071-.049-.008-.049-.054.024-.084.052-.084.04-.031.026-.069c-.093-.242.4-.391.643-.2m-8.24.259c.06.056,1.354.761,1.4.761.016,0,.029-.035.029-.077s.078-.138.174-.213c.22-.172.268-.149-.721-.349-.932-.188-.952-.191-.879-.123m12.992,5.95c.074.417-.087.64-.866,1.2a2.4,2.4,0,0,1-1.066.475c-.042-.026.274-.333.348-.338a2.994,2.994,0,0,0,.624-.961,4.778,4.778,0,0,0,.109-1.926l-.042-.324.429.836a7.337,7.337,0,0,1,.464,1.037m-1.922-.479a.342.342,0,0,1,.093.337.405.405,0,0,1-.8.086c-.025-.1-.017-.113.046-.061s.077.043.077-.046a.143.143,0,0,0-.067-.133c-.053-.018-.051-.042.006-.112.04-.049.1-.075.123-.059s.046.01.041-.014c-.018-.1.014-.125.184-.125a.4.4,0,0,1,.3.126" style="fill:#01afe2"/><path d="M20.006,2.383c-.045.029-.071.063-.056.077s1.795,1,2.961,1.64a.879.879,0,0,0,.265.116c.016-.016-1.5-.872-2.294-1.3-.681-.364-.822-.448-.822-.489,0-.074.354-.047.5.039.211.121.276.1.084-.028a.725.725,0,0,0-.643-.058m-.926.279c-.123.058-.208.108-.189.111a1.376,1.376,0,0,0,.441-.192c0-.038,0-.037-.252.082m1.764-.09a1.24,1.24,0,0,0,.427.245c.011-.011-.08-.077-.2-.146s-.223-.114-.223-.1m-1.456.059a12.771,12.771,0,0,0,1.376.749,14.23,14.23,0,0,0-1.349-.771.025.025,0,0,0-.027.022m-1.056.425a2.086,2.086,0,0,0-.345.251,5.581,5.581,0,0,0,.72-.447c.079-.079-.07,0-.375.2m3.016-.2A.788.788,0,0,0,21.572,3c.123.063.224.1.224.086a.788.788,0,0,0-.224-.142c-.123-.063-.224-.1-.224-.086m.5.28a.788.788,0,0,0,.224.142c.123.063.224.1.224.086a.788.788,0,0,0-.224-.142c-.123-.063-.224-.1-.224-.086M17.5,3.715c-.357.348-.361.353-.047.074.509-.454.508-.452.47-.452a3.631,3.631,0,0,0-.423.378m3.347-.3a1.24,1.24,0,0,0,.427.245c.011-.011-.08-.077-.2-.146s-.223-.114-.223-.1m1.512.007a.788.788,0,0,0,.224.142c.123.063.224.1.224.086a.788.788,0,0,0-.224-.142c-.123-.063-.224-.1-.224-.086m-1.008.276a1.111,1.111,0,0,0,.433.237c.015-.014-.077-.079-.2-.143a.69.69,0,0,0-.23-.093m1.512,0a.788.788,0,0,0,.224.142c.123.063.224.1.224.086a.788.788,0,0,0-.224-.142c-.123-.063-.224-.1-.224-.086m-1.008.28a.788.788,0,0,0,.224.142c.123.063.224.1.224.086a.788.788,0,0,0-.224-.142c-.123-.063-.224-.1-.224-.086m1.512,0a1.823,1.823,0,0,0,.339.207c.234.125.316.195.266.226s-.034.046.053.047c.221,0,.137-.095-.266-.3a1.91,1.91,0,0,0-.392-.177m-1.008.283a.788.788,0,0,0,.224.142c.123.063.224.1.224.086a.788.788,0,0,0-.224-.142c-.123-.063-.224-.1-.224-.086m.9,0a.484.484,0,0,0,.168.115c.092.048.168.074.168.059a.484.484,0,0,0-.168-.115c-.092-.048-.168-.074-.168-.059M16.6,4.751c-.166.244-.334.543-.272.487a5.727,5.727,0,0,0,.458-.725,1.265,1.265,0,0,0-.187.238m6.364-.139.129.1L22.8,4.85a1.374,1.374,0,0,0-.317.183c-.016.027.124-.029.312-.124.384-.194.408-.236.188-.331l-.154-.067.129.1m1.271.029c-.1.034-.014.041.224.017a2.138,2.138,0,0,0,.415-.065c.043-.048-.469-.01-.639.047m.929-.047a2.346,2.346,0,0,0,.443.065c.246.023.35.015.252-.018-.17-.057-.739-.1-.7-.047m1.4.283a.618.618,0,0,0,.2.08c.031,0-.007-.036-.084-.08a.618.618,0,0,0-.2-.08c-.031,0,.007.036.084.08m-3.291.03c-.188.075-.152.114.042.046a.455.455,0,0,0,.168-.081c0-.033-.068-.022-.21.035M21.84,5.48a2.316,2.316,0,0,0-.407.373c-.017.043.077-.02.209-.14s.328-.287.436-.37.182-.153.166-.154a3.415,3.415,0,0,0-.4.291M27.4,5.313a3.293,3.293,0,0,0,.35.324c.193.165.287.229.21.143a2.6,2.6,0,0,0-.56-.466m-11.261.245a1.657,1.657,0,0,1-.091.2c-.019.031-.008.04.024.02.062-.038.2-.373.15-.373-.015,0-.052.067-.083.148m5.557.387a6.091,6.091,0,0,0-.573.6c-.119.158-.076.125.131-.1.169-.184.443-.455.609-.6a1.338,1.338,0,0,0,.266-.267,3.606,3.606,0,0,0-.432.367m3.058.019a.564.564,0,0,0,.252,0c.069-.019.013-.035-.126-.035s-.2.016-.126.035m3.455.192a1.061,1.061,0,0,0,.182.206c.039,0-.2-.328-.275-.372-.035-.022.007.053.093.166m-12.367.158a1.089,1.089,0,0,0-.065.318.76.76,0,0,0,.109-.274,1.048,1.048,0,0,0,.065-.318c-.012-.012-.061.111-.109.274m5.194-.073a9.264,9.264,0,0,0-.749,1.073c-.113.222-.03.116.275-.351a6.453,6.453,0,0,1,.515-.685c.128-.139.21-.25.183-.247a.865.865,0,0,0-.224.21m4.74-.131c.256.1.356.1.14,0a.8.8,0,0,0-.252-.075c-.046,0,0,.036.112.077m.5.2c.194.132.3.17.168.058a.535.535,0,0,0-.2-.115c-.031,0-.018.025.028.057m2.212.277a.484.484,0,0,0,.115.168c.015,0-.011-.076-.059-.168a.484.484,0,0,0-.115-.168c-.015,0,.011.076.059.168m-1.568.224a2.355,2.355,0,0,0,.3.28,1.612,1.612,0,0,0-.248-.28,2.355,2.355,0,0,0-.3-.28,1.612,1.612,0,0,0,.248.28M22.265,7.1a5.218,5.218,0,0,0-.461.546l-.127.2.158-.2c.087-.108.307-.354.489-.546a2.471,2.471,0,0,0,.3-.35,3.375,3.375,0,0,0-.361.35m6.425-.182a2.131,2.131,0,0,0,.1.308c.06.154.11.242.111.2,0-.079-.206-.564-.215-.5m-13.107.373a1.367,1.367,0,0,0-.055.3c0,.046.039-.041.081-.194a.99.99,0,0,0,.055-.3c-.012-.012-.048.076-.081.194m5.023-.023a3.3,3.3,0,0,0-.337.686,5.7,5.7,0,0,0,.44-.812.449.449,0,0,0-.1.126m6.74.067a.81.81,0,0,0,.142.2c.04,0-.142-.326-.2-.364-.031-.019,0,.055.061.164M20.1,7.681c-.132.276-.113.323.025.062a.6.6,0,0,0,.092-.237c-.012-.012-.064.067-.116.175m7.509.194c.049.124.1.214.111.2a1.019,1.019,0,0,0-.173-.427c-.014,0,.013.1.062.225m-6.121.285a.409.409,0,0,0-.067.2c.012.012.064-.066.115-.173.115-.242.075-.26-.048-.022m7.581.191a2.109,2.109,0,0,0,.064.415c.05.045.011-.529-.046-.667-.033-.081-.041.024-.019.252m-9.224-.078a.447.447,0,0,0-.041.2c.012.012.05-.059.085-.158a.447.447,0,0,0,.041-.2c-.012-.012-.05.059-.085.158m.222.143a1.366,1.366,0,0,0-.055.3c0,.046.039-.041.081-.194a.99.99,0,0,0,.055-.3c-.012-.012-.048.076-.081.194m-4.786.249a.648.648,0,0,0-.014.258c.015.013.046-.08.069-.207a.607.607,0,0,0,.014-.258c-.016-.014-.047.079-.069.207m12.587.526c0,.277.013.4.03.268a2.552,2.552,0,0,0,0-.5c-.017-.147-.03-.041-.031.236m-8.3.14a2.494,2.494,0,0,1-.038.28l-.029.14.06-.138a.6.6,0,0,0,.038-.28l-.022-.142-.009.14m9.525.084c-.006.123-.023.325-.038.448l-.027.224.059-.224a1.549,1.549,0,0,0,.038-.448L29.1,9.19l-.011.224M15.05,9.666a.37.37,0,0,0-.014.2c.016.014.047-.055.069-.153a.411.411,0,0,0,.014-.2c-.014-.013-.045.056-.069.153m4.679.649a4.537,4.537,0,0,0,.065.751c.035.149.044-.046.022-.476-.043-.841-.1-1.007-.087-.275M27.6,10.6c-.05.147-.069.243-.042.213a1.056,1.056,0,0,0,.155-.458c-.012-.012-.063.1-.113.245m-8.345-.061a.293.293,0,0,0-.015.173c.015.013.046-.043.069-.125a.293.293,0,0,0,.015-.173c-.015-.013-.046.043-.069.125m1.771.08c0,.108.016.152.037.1a.324.324,0,0,0,0-.2c-.02-.054-.037-.01-.037.1M9.81,10.682l-.532.3c-.927.518-1.03.591-.84.591.05,0,.074-.026.055-.058s.02-.047.123-.027.122.015.062-.012.091-.148.693-.483c.7-.389.805-.433.926-.378.188.086.229.077.1-.02-.155-.117-.237-.1-.585.09m.728.018a.788.788,0,0,0,.224.142c.123.063.224.1.224.086a.788.788,0,0,0-.224-.142c-.123-.063-.224-.1-.224-.086m4.175.29a.4.4,0,0,0,.008.249,15.183,15.183,0,0,0,1.506.823,5.687,5.687,0,0,0-.734-.439l-.757-.416.034-.21c.044-.27-.007-.276-.057-.007m14.072-.118c-.017.061-.049.161-.069.223s0,.041.053-.045a.4.4,0,0,0,.069-.223c-.012-.036-.036-.015-.053.045m-9.342.095a.761.761,0,0,1-.033.193c-.027.083-.022.087.025.02.063-.089.072-.077.143.194.016.062.016,0,0-.14-.028-.245-.135-.457-.135-.268M11.07,11a6.516,6.516,0,0,0,1.008.533,4.956,4.956,0,0,0-.56-.325A1.914,1.914,0,0,0,11.07,11m16.243.24c-.048.092-.074.168-.059.168a.484.484,0,0,0,.115-.168c.048-.092.074-.168.059-.168a.484.484,0,0,0-.115.168M19,11.491a.831.831,0,0,0-.042.284c.013.013.053-.094.089-.238a.831.831,0,0,0,.042-.284c-.013-.013-.053.094-.089.238m-9.912-.144c-.369.078-.354.121.025.071a7.2,7.2,0,0,1,1.509-.005c.285.028.346.024.224-.016a7.34,7.34,0,0,0-1.758-.051m2.24.192a4.281,4.281,0,0,0,.868.239.81.81,0,0,0-.273-.109c-.395-.119-.636-.172-.6-.131m.834.053a.688.688,0,0,0,.21.147c.2.113.206.115.042.088l-.168-.028.174.079c.51.23.631.142.152-.111-.381-.2-.411-.214-.411-.174m14.765.25a4.94,4.94,0,0,1-.875.868l-.2.159.224-.154c.387-.266,1.211-1.145,1.072-1.145a1.593,1.593,0,0,0-.226.272m-12.384-.16c-.019.031,0,.042.047.024a.1.1,0,0,1,.118.029.134.134,0,0,0,.1.06c.035,0,.014-.037-.045-.082-.13-.1-.175-.1-.22-.03m-.084.144A8.109,8.109,0,0,0,16.227,12.9a2.841,2.841,0,0,0-.522-.323,7.379,7.379,0,0,1-1.2-.755c-.028-.04-.041-.039-.042,0m.447-.006a.788.788,0,0,0,.224.142c.123.063.224.1.224.086a.788.788,0,0,0-.224-.142c-.123-.063-.224-.1-.224-.086m4.294.149c-.052.233,0,.279.055.049a.37.37,0,0,0,.014-.2c-.016-.014-.047.055-.069.153m.779-.007a1.027,1.027,0,0,0,.089.224c.036.058.04.041.014-.056a1.027,1.027,0,0,0-.089-.224c-.036-.058-.04-.041-.014.056m8.307.014c-.037.069-.1.189-.148.266-.078.134-.077.135.013.028.112-.133.268-.42.229-.42-.015,0-.057.057-.094.126M15.411,12.1a.788.788,0,0,0,.224.142c.123.063.224.1.224.086a.788.788,0,0,0-.224-.142c-.123-.063-.224-.1-.224-.086m.9-.007a1.24,1.24,0,0,0,.427.245c.011-.011-.08-.077-.2-.146s-.223-.114-.223-.1m5.6.443c.232.247.282.292.282.25a3.144,3.144,0,0,0-.266-.266l-.266-.25.25.266m-7.853-.066a.727.727,0,0,0-.21.139,2.217,2.217,0,0,0,.5-.233c.064-.058-.1,0-.289.095m.469-.076c.042.02.018.069-.069.137l-.134.106.155-.067c.154-.067.18-.169.05-.194-.05-.01-.05,0,0,.018m1.393-.014a.788.788,0,0,0,.224.142c.123.063.224.1.224.086a.788.788,0,0,0-.224-.142c-.123-.063-.224-.1-.224-.086m.9,0a.484.484,0,0,0,.168.115c.092.048.168.074.168.059a.484.484,0,0,0-.168-.115c-.092-.048-.168-.074-.168-.059m11,.294c-.119.145-.187.245-.151.223a2.169,2.169,0,0,0,.393-.487,1.749,1.749,0,0,0-.242.263m-9.117-.063a.293.293,0,0,0-.015.173c.015.013.046-.043.069-.125a.293.293,0,0,0,.015-.173c-.015-.013-.046.043-.069.125m-5.146.14a.727.727,0,0,0-.21.139c0,.015.1-.024.224-.086a.815.815,0,0,0,.224-.141c0-.037,0-.036-.238.089m.5,0a.727.727,0,0,0-.21.139c0,.015.1-.024.224-.086a.815.815,0,0,0,.224-.141c0-.037,0-.036-.238.089m2.366-.09a.788.788,0,0,0,.224.142c.123.063.224.1.224.086a.788.788,0,0,0-.224-.142c-.123-.063-.224-.1-.224-.086m.9,0a.788.788,0,0,0,.224.142c.123.063.224.1.224.086a.788.788,0,0,0-.224-.142c-.123-.063-.224-.1-.224-.086m3.053.142a.484.484,0,0,0,.115.168c.015,0-.011-.076-.059-.168a.484.484,0,0,0-.115-.168c-.015,0,.011.076.059.168m-7.323.228a.727.727,0,0,0-.21.139c0,.015.1-.024.224-.086a.815.815,0,0,0,.224-.141c0-.037,0-.036-.238.089m.5,0a.727.727,0,0,0-.21.139c0,.015.1-.024.224-.086a.815.815,0,0,0,.224-.141c0-.037,0-.036-.238.089m2.759-.1a1.24,1.24,0,0,0,.427.245c.011-.011-.08-.077-.2-.146s-.223-.114-.223-.1m.644.021a6.516,6.516,0,0,0,1.008.533,4.956,4.956,0,0,0-.56-.325,1.914,1.914,0,0,0-.448-.209m.868-.015a.788.788,0,0,0,.224.142c.123.063.224.1.224.086a.788.788,0,0,0-.224-.142c-.123-.063-.224-.1-.224-.086m4.7.083a.477.477,0,0,0,.191.115c.069,0,.066,0-.156-.132l-.168-.1.132.115m2.976,0c-.108.059-.176.108-.151.11a1,1,0,0,0,.375-.2c0-.037,0-.035-.224.085M19.5,13a.484.484,0,0,0,.168.115c.092.048.168.074.168.059a.484.484,0,0,0-.168-.115c-.092-.048-.168-.074-.168-.059m7.841.227a1.273,1.273,0,0,0-.219.252,1.937,1.937,0,0,0,.275-.252,1.273,1.273,0,0,0,.219-.252,1.937,1.937,0,0,0-.275.252m-6.773-.115a3.491,3.491,0,0,0,.665.741c.235.185.23.178-.056-.1-.171-.166-.385-.391-.476-.5s-.15-.172-.132-.14m-7.972.175c-.209.114-.2.161.014.052a.5.5,0,0,0,.168-.113c0-.036-.006-.034-.182.062m.5,0c-.209.114-.2.161.014.052a.5.5,0,0,0,.168-.113c0-.036-.006-.034-.182.062m3.711-.063a.484.484,0,0,0,.168.115c.092.048.168.074.168.059a.484.484,0,0,0-.168-.115c-.092-.048-.168-.074-.168-.059m6.2.031a.626.626,0,0,0,.279.084c.121.013.169.011.107-.005s-.187-.054-.279-.084c-.118-.038-.149-.037-.107.005m1.758.03c-.171.049-.207.073-.112.074a.875.875,0,0,0,.308-.075c.207-.095.136-.094-.2,0m-4.649.05a.484.484,0,0,0,.168.115c.092.048.168.074.168.059a.484.484,0,0,0-.168-.115c-.092-.048-.168-.074-.168-.059m-7.973.206a.573.573,0,0,0-.206.578c.076.2.091.179.066-.086a.392.392,0,0,1,.135-.392c.168-.175.169-.2,0-.1m.5,0a.732.732,0,0,0-.42.51,2.533,2.533,0,0,0,.43.881,1.551,1.551,0,0,0-.173-.359c-.291-.521-.243-.742.221-1.024.139-.084.092-.091-.058-.008m4.677-.039a.788.788,0,0,0,.224.142c.123.063.224.1.224.086a.788.788,0,0,0-.224-.142c-.123-.063-.224-.1-.224-.086m.728.053a.9.9,0,0,0,.21.141l.21.119-.157-.141c-.14-.126-.263-.182-.263-.119m-.224.227a.788.788,0,0,0,.224.142c.123.063.224.1.224.086a.788.788,0,0,0-.224-.142c-.123-.063-.224-.1-.224-.086m8.693.11c-.26.184-.3.237-.077.111a1.2,1.2,0,0,0,.245-.177c.083-.1.044-.084-.168.066m-.572.34c-.139.074-.232.136-.208.138a1.669,1.669,0,0,0,.488-.251c0-.037,0-.038-.28.113m-13.661.518c.13.239.28.5.332.574a1.549,1.549,0,0,1,.117.2,7.192,7.192,0,0,0,.477.812c.033,0-.016-.091-.606-1.134-.275-.485-.512-.882-.528-.882a2.211,2.211,0,0,0,.208.434m15.6-.3a.223.223,0,0,1-.1.27c-.133.107-.133.108,0,.045a.234.234,0,0,0,.132-.353c-.056-.111-.058-.107-.027.039m-2.586.064c-.14.067-.145.075-.028.047.159-.039.337-.13.252-.128a.892.892,0,0,0-.224.082m-2.011.272a3.094,3.094,0,0,0,1.109,0c.13-.03-.1-.05-.554-.05s-.684.02-.554.05m3.341.152a1.4,1.4,0,0,0-.294.2,2.7,2.7,0,0,0,.585-.325c.095-.087.009-.05-.291.125m-21.488.084a3.1,3.1,0,0,0,.694.336,5.061,5.061,0,0,0-.9-.482c-.037,0,.056.066.207.146m22.188-.058c-.209.114-.2.161.014.052a.5.5,0,0,0,.168-.113c0-.036-.006-.034-.182.062M4.6,15a1.09,1.09,0,0,0,.392.284,1.737,1.737,0,0,0,.392.183,2.067,2.067,0,0,0-.373-.238c-.309-.173-.355-.216-.266-.251s.1-.042-.019-.046c-.069,0-.126.029-.126.068m8.15.152a.484.484,0,0,0,.115.168c.015,0-.011-.076-.059-.168a.484.484,0,0,0-.115-.168c-.015,0,.011.076.059.168m-9.178.462c-.672.666-.871,1.162-.465,1.162a.356.356,0,0,1,.205.07c.067.06.067.055,0-.028a.284.284,0,0,0-.2-.1c-.373,0,.009-.719.668-1.259l.257-.21.68.373a5.954,5.954,0,0,0,.7.353,11.877,11.877,0,0,0-1.381-.768,2.759,2.759,0,0,0-.466.406m22.9-.175a3.8,3.8,0,0,0-.448.286,4.222,4.222,0,0,0,.784-.415c.335-.2.046-.09-.336.13M6,15.461a.788.788,0,0,0,.224.142c.123.063.224.1.224.086a.788.788,0,0,0-.224-.142C6.1,15.485,6,15.446,6,15.461m19.59.062c-.209.114-.2.161.014.052a.5.5,0,0,0,.168-.113c0-.036-.006-.034-.182.062m-20.15-.01c0,.035,1.859,1.049,1.882,1.027s-1.8-1.049-1.856-1.049a.025.025,0,0,0-.026.022m7.674.286c.266.483.62,1.1.723,1.258.083.128.082.135-.012.1-.061-.023-.087-.017-.067.017.035.056.2.079.2.027s-.9-1.623-.964-1.68c-.033-.031.023.1.125.28m1.913.059a.674.674,0,0,1,.086.505c-.043.421.163.239.264-.232a.448.448,0,0,0-.365-.472c-.1,0-.1.012.015.2m-8.523-.118a.788.788,0,0,0,.224.142c.123.063.224.1.224.086a.788.788,0,0,0-.224-.142c-.123-.063-.224-.1-.224-.086m8.691.067a.584.584,0,0,1,.046.579c-.04.062-.055.029-.055-.129a.986.986,0,0,0-.086-.378c-.1-.184-.059-.212.1-.073m9.89,0c-.209.114-.2.161.014.052a.5.5,0,0,0,.168-.113c0-.036-.006-.034-.182.062M5.5,16.021a.484.484,0,0,0,.168.115c.092.048.168.074.168.059a.484.484,0,0,0-.168-.115c-.092-.048-.168-.074-.168-.059m1.512-.007a8.846,8.846,0,0,0,.784.458c.855.469.84.457.658.53-.078.031-.093.052-.039.054.238.01.306-.146.109-.249-.1-.054-.267-.141-.361-.193a10.877,10.877,0,0,0-1.151-.6m17.573.07c-.209.114-.2.161.014.052a.5.5,0,0,0,.168-.113c0-.036-.006-.034-.182.062M6,16.3a.788.788,0,0,0,.224.142c.123.063.224.1.224.086a.788.788,0,0,0-.224-.142C6.1,16.325,6,16.286,6,16.3m18.077.062c-.209.114-.2.161.014.052a.5.5,0,0,0,.168-.113c0-.036-.006-.034-.182.062m.672.056c-.209.114-.2.161.014.052a.5.5,0,0,0,.168-.113c0-.036-.006-.034-.182.062m-11.44.136a.484.484,0,0,0,.115.168c.015,0-.011-.076-.059-.168a.484.484,0,0,0-.115-.168c-.015,0,.011.076.059.168m-6.805.026a.788.788,0,0,0,.224.142c.123.063.224.1.224.086a.788.788,0,0,0-.224-.142c-.123-.063-.224-.1-.224-.086m.9,0a1.111,1.111,0,0,0,.433.237c.015-.014-.077-.079-.2-.143a.69.69,0,0,0-.23-.093m16.845.123c-.209.114-.2.161.014.052a.5.5,0,0,0,.168-.113c0-.036-.006-.034-.182.062M7.01,16.855a2.185,2.185,0,0,0,.391.24c.382.207.389.213.294.326s-.1.115.031.007c.07-.059.108-.126.084-.149a4.983,4.983,0,0,0-.8-.424m.9.009a.834.834,0,0,0,.369.183c.012-.012-.066-.064-.173-.115s-.2-.082-.2-.067m15.949.061c-.209.114-.2.161.014.052a.5.5,0,0,0,.168-.113c0-.036-.006-.034-.182.062m-20.374.065a.561.561,0,0,1,.211.084c.054.044.063.036.036-.033s-.095-.089-.211-.084c-.153.007-.158.011-.036.033m19.031.261c-.3.178-.336.236-.061.1a1.029,1.029,0,0,0,.269-.175c.044-.072.042-.071-.208.078m.839-.046c-.209.114-.2.161.014.052a.5.5,0,0,0,.168-.113c0-.036-.006-.034-.182.062m-14.324.075a.9.9,0,0,0,.421.054c.231,0,.376-.021.322-.048-.135-.066-.743-.072-.743-.006m.224.142a.484.484,0,0,0,.168.115c.092.048.168.074.168.059a.484.484,0,0,0-.168-.115c-.092-.048-.168-.074-.168-.059m13.513.119a.958.958,0,0,0-.238.172A1.823,1.823,0,0,0,23,17.443c.1-.085.007-.048-.235.1M7.346,17.7c-.1.108-.166.194-.137.192.05,0,.4-.388.35-.388a1.442,1.442,0,0,0-.213.2m3.333.011c.18.184.543.471.42.332a2.058,2.058,0,0,0-.308-.274c-.092-.064-.143-.09-.112-.058m10.936.049c-.209.114-.2.161.014.052A.5.5,0,0,0,21.8,17.7c0-.036-.006-.034-.182.062m-16.7.029a.372.372,0,0,0,.19.069c.091.014.155.007.141-.016a.372.372,0,0,0-.19-.069c-.091-.014-.155-.007-.141.016m4.955-.036a.484.484,0,0,0,.168.115c.092.048.168.074.168.059a.484.484,0,0,0-.168-.115c-.092-.048-.168-.074-.168-.059M22.2,17.85a.742.742,0,0,0-.182.141,1.318,1.318,0,0,0,.392-.2c.162-.11-.03-.056-.21.06m-16.9.167a.372.372,0,0,0,.19.069c.091.014.155.007.141-.016A.372.372,0,0,0,5.445,18c-.091-.014-.155-.007-.141.016m1.689.121c-.152.205-.254.382-.17.294a2.384,2.384,0,0,0,.333-.476.764.764,0,0,0-.163.182m14.117-.094c-.209.114-.2.161.014.052a.5.5,0,0,0,.168-.113c0-.036-.006-.034-.182.062m.56.112c-.209.114-.2.161.014.052a.5.5,0,0,0,.168-.113c0-.036-.006-.034-.182.062M5.7,18.246a.236.236,0,0,0,.163.046.234.234,0,0,1,.191.105.333.333,0,0,0,.223.13c.092.013.154,0,.138-.021a.213.213,0,0,0-.152-.046.249.249,0,0,1-.189-.105.372.372,0,0,0-.235-.13c-.093-.014-.156,0-.141.021m14.907.078c-.209.114-.2.161.014.052a.5.5,0,0,0,.168-.113c0-.036-.006-.034-.182.062m-9.62.049a.484.484,0,0,0,.168.115c.092.048.168.074.168.059a.484.484,0,0,0-.168-.115c-.092-.048-.168-.074-.168-.059M20.1,18.6c-.209.114-.2.161.014.052a.5.5,0,0,0,.168-.113c0-.036-.006-.034-.182.062M11.386,18.6c.011.01.134.074.272.143l.252.125-.122-.127a.528.528,0,0,0-.272-.143c-.082-.009-.141-.008-.13,0m8.884.344c-.209.114-.2.161.014.052a.5.5,0,0,0,.168-.113c0-.036-.006-.034-.182.062m2.787.161c-.277.136-.466.249-.42.252.075,0,.075.011,0,.059-.115.074-.183.07-.135-.009.165-.267-1.4.795-1.612,1.09-.082.117.011.053.271-.185a4.22,4.22,0,0,1,1.286-.825c.016.016-.064.1-.18.189a2.523,2.523,0,0,0-.638.766c0,.035.087-.065.193-.222a3.934,3.934,0,0,1,1.351-1.056,1.6,1.6,0,0,0,.416-.261c0-.063.035-.076-.532.2m-4.033.117c-.123.076-.2.138-.175.138a1.392,1.392,0,0,0,.427-.256c0-.036-.011-.03-.252.118m.35.227c-.209.114-.2.161.014.052a.5.5,0,0,0,.168-.113c0-.036-.006-.034-.182.062m-.9.084a.727.727,0,0,0-.21.139c0,.015.1-.024.224-.086a.815.815,0,0,0,.224-.141c0-.037,0-.036-.238.089m.392.2c-.209.114-.2.161.014.052a.5.5,0,0,0,.168-.113c0-.036-.006-.034-.182.062M17.638,20c-.209.114-.2.161.014.052a.5.5,0,0,0,.168-.113c0-.036-.006-.034-.182.062m.588.086a.742.742,0,0,0-.182.141,1.318,1.318,0,0,0,.392-.2c.162-.11-.03-.056-.21.06m-4.649.1a.324.324,0,0,0,.2,0c.054-.02.01-.037-.1-.037s-.152.016-.1.037m-.9.2a.687.687,0,0,0-.174.308c0,.121.083.147.145.045.025-.04.015-.049-.025-.025-.132.082-.06-.136.109-.329.1-.109.161-.2.146-.2a1.085,1.085,0,0,0-.2.2m4.461-.11c-.209.114-.2.161.014.052a.5.5,0,0,0,.168-.113c0-.036-.006-.034-.182.062m-4.287.122c-.087.085-.1.1-.026.043a.962.962,0,0,1,.423-.146l.291-.035-.265-.008a.455.455,0,0,0-.423.146m1.612-.1c.325.079.658.121.532.066a2.077,2.077,0,0,0-.42-.081c-.233-.025-.26-.021-.112.015m3.29.055c-.224.144-.265.2-.07.1.235-.124.346-.2.28-.2a.732.732,0,0,0-.21.1m4.515-.021a.1.1,0,0,1-.138.052c-.058-.018-.105-.009-.105.02,0,.08.146.121.208.059.035-.035.1-.017.181.049.112.091.117.111.04.174a.151.151,0,0,0-.056.152c.039.1-.151.108-.261.01-.067-.06-.067-.055,0,.028.1.135.363.134.327,0a.207.207,0,0,1,.179-.236c.1,0,.066-.2-.044-.3-.128-.116-.283-.119-.326-.007m-8.449.033a1.915,1.915,0,0,0,.364.046c.09,0,.06-.021-.084-.053a1.915,1.915,0,0,0-.364-.046c-.09,0-.06.021.084.053m8.754,0c.144.144.076.224-.1.12-.092-.055-.168-.119-.168-.143,0-.068.194-.052.269.023m-6.962.149a1.741,1.741,0,0,0,.308.085c.135.024.161.02.084-.013a1.741,1.741,0,0,0-.308-.085c-.135-.024-.161-.02-.084.013m1.022.04c-.209.114-.2.161.014.052a.5.5,0,0,0,.168-.113c0-.036-.006-.034-.182.062m5.517-.008c-.069.032-.126.1-.125.144,0,.072.008.073.052,0s.069-.066.13-.015.1.048.182-.01c.148-.108-.051-.211-.239-.123m-6.791.093a.92.92,0,0,0,.252.05c.089,0,.083-.01-.028-.05a.92.92,0,0,0-.252-.05c-.089,0-.083.01.028.05m5.257.308a.812.812,0,0,0-.091.279c.012.012.075-.1.14-.257a.852.852,0,0,0,.091-.279.967.967,0,0,0-.14.257m.92,0c0,.154.016.21.035.125a.7.7,0,0,0,0-.28c-.019-.069-.034,0-.033.155m-5.407-.108c-.209.114-.2.161.014.052a.5.5,0,0,0,.168-.113c0-.036-.006-.034-.182.062m-.432.273c-.138.166.079.476.228.327.05-.05.037-.058-.054-.034-.148.039-.223-.118-.129-.269.078-.124.05-.138-.045-.023m.6.063c-.209.114-.2.161.014.052a.5.5,0,0,0,.168-.113c0-.036-.006-.034-.182.062m4.168.4c-.007.169.016.242.083.267s.078.018.033-.036a.659.659,0,0,1-.083-.267c-.023-.192-.024-.191-.033.036m1.168-.131c0,.082.175.386.206.355s-.022-.114-.087-.215-.118-.164-.119-.14m-.668.717a4.641,4.641,0,0,1,.769,1.08c.038.089.085.146.1.128a4.056,4.056,0,0,0-1.047-1.438c-.057-.03.022.073.174.23m.9-.257a2.451,2.451,0,0,0,.165.392c.09.185.148.273.129.2-.04-.16-.3-.673-.294-.588m.362.882a2.684,2.684,0,0,0,.244.627,3.362,3.362,0,0,0-.257-.753c-.015,0-.009.057.013.126m-.364.659a4.146,4.146,0,0,0,.165.448c.093.231.155.344.136.251a2.746,2.746,0,0,0-.3-.7m.648.227a3.127,3.127,0,0,0,.238.78,5.039,5.039,0,0,0-.243-.939c-.018-.018-.016.053,0,.159m-.3.766a3.319,3.319,0,0,0,.246.719,3.354,3.354,0,0,0-.244-.817c-.016,0-.017.044,0,.1m.574.347a5.292,5.292,0,0,0,.241,1,8.491,8.491,0,0,0-.25-1.218c-.016-.016-.012.08.009.215m3.834.171c0,.116.016.168.042.127s.191.229.447.75a4.825,4.825,0,0,0,.4.742,5.86,5.86,0,0,0-.889-1.618m-4.143.316a3.331,3.331,0,0,0,.249.792,1.955,1.955,0,0,0-.11-.439c-.073-.229-.135-.388-.138-.353m4.263.643c-.006.235-.024.512-.039.616l-.028.189.058-.185a2.44,2.44,0,0,0,.039-.616l-.019-.431-.011.427m-3.689.189c.123.651.162.818.187.793a3.84,3.84,0,0,0-.185-.929c-.018-.018-.019.044,0,.136m2.049.238-.136.154.144-.126c.238-.208.316-.146.105.084l-.193.21.21-.193a.924.924,0,0,0,.21-.238c0-.1-.214-.034-.34.109m-2.292,0a2.212,2.212,0,0,0,.254.577,2.97,2.97,0,0,0-.231-.611c-.013-.013-.023,0-.023.035m2.465.38c-.072.077-.116.155-.1.175.068.068.318-.038.382-.161l.065-.125-.137.126c-.192.177-.326.165-.158-.014.072-.077.119-.14.1-.14a.662.662,0,0,0-.159.14m2.253.14c0,.108.016.152.037.1a.324.324,0,0,0,0-.2c-.02-.054-.037-.01-.037.1m-1,.285c-.067.184-.1.32-.073.3a1.765,1.765,0,0,0,.216-.617,1.056,1.056,0,0,0-.142.313M23.086,27c0,.075.231.436.262.405.015-.015.007-.06-.019-.1a.425.425,0,0,1-.035-.214c.01-.121.005-.125-.035-.03s-.046.109-.109,0c-.035-.06-.064-.087-.065-.06m4.253.345a7.2,7.2,0,0,1-.623.486,3.957,3.957,0,0,0-.531.42,6.838,6.838,0,0,0,1.068-.781c.125-.115.212-.209.192-.21s-.067.037-.107.085m-1.175.439a2.378,2.378,0,0,1-.421.429c-.274.205-.281.3-.017.22.229-.066.293-.131.076-.078-.158.039-.152.027.112-.213.246-.224.532-.6.455-.6a1.254,1.254,0,0,0-.2.245" style="fill:#7cd6f0"/><path d="M19.192,2.244a1.99,1.99,0,0,1-.336.14,1.255,1.255,0,0,0-.308.139,1.843,1.843,0,0,1-.294.164c-.116.053-.21.12-.21.149a3.39,3.39,0,0,0-.77.616.248.248,0,0,1-.158.11.077.077,0,0,0-.081.072.477.477,0,0,1-.154.212,3.278,3.278,0,0,0-.513.632.789.789,0,0,1-.128.173.663.663,0,0,0-.138.241c-.018.07-.051.127-.074.127a.656.656,0,0,0-.143.266,3.292,3.292,0,0,1-.167.378,2.047,2.047,0,0,0-.138.364c-.04.139-.1.328-.141.42a3.9,3.9,0,0,0-.141.616,2.512,2.512,0,0,1-.114.5,3.416,3.416,0,0,0-.136.588A4.844,4.844,0,0,1,14.9,8.8a5.916,5.916,0,0,0-.221,1.078c0,.069-.023.126-.052.126s-.068.082-.087.182a6.758,6.758,0,0,1-.2.854c-.025.062-.061.166-.079.232-.116.416-.468.5-.87.211a1.631,1.631,0,0,0-.28-.137.759.759,0,0,1-.227-.12c-.027-.039-.726-.422-1.286-.7a1.493,1.493,0,0,1-.27-.169.249.249,0,0,0-.126-.07c-.029,0-.052-.063-.052-.141,0-.653-1.346-1.113-1.736-.593a1.284,1.284,0,0,1-.266.142c-.131.058-.238.126-.238.152s-.032.048-.07.049a3.66,3.66,0,0,0-.574.288c-.277.158-.573.323-.658.367s-.154.1-.154.132-.039.052-.086.052c-.127,0-.424.676-.411.936a1.063,1.063,0,0,1-.078.409.608.608,0,0,0,.285.755c.261.066.353.3.165.426a2.856,2.856,0,0,0-.21,1.241c0,.622-.033.645-.45.346a1.794,1.794,0,0,0-.693-.192c-.081,0-.148-.025-.148-.056s-.224-.056-.56-.056-.56.022-.56.056-.059.056-.132.056a1.325,1.325,0,0,0-.686.261.755.755,0,0,1-.224.131,2.385,2.385,0,0,0-.4.378c-.441.47-.47.507-.572.714a1.234,1.234,0,0,1-.152.242.247.247,0,0,0-.011.327,1.311,1.311,0,0,1,.154.249.338.338,0,0,0,.23.209.439.439,0,0,1,.214.1.342.342,0,0,0,.211.079.164.164,0,0,1,.168.112c.024.077.085.112.193.112s.166.033.187.112a.149.149,0,0,0,.142.112c.172,0,.29.059.29.146,0,.049.061.078.162.078s.176.036.194.084a.189.189,0,0,0,.17.084.165.165,0,0,1,.174.112c.026.082.085.112.221.112s.193.028.215.112.076.112.173.112a.232.232,0,0,1,.2.112.226.226,0,0,0,.177.112.45.45,0,0,1,.256.154c.091.1.147.13.165.084.032-.083.41-.1.41-.014,0,.16.272.045.366-.154a1.274,1.274,0,0,1,.133-.238,2.71,2.71,0,0,0,.2-.28c.272-.42.68-.71.484-.343a1.3,1.3,0,0,0-.011.725,2.848,2.848,0,0,0,.763.458c.32.167,1.113.6,1.669.91a3.56,3.56,0,0,0,.538.266.36.36,0,0,0,.187.143,6.824,6.824,0,0,1,.667.34c.519.289,1,.409,1,.249a.249.249,0,0,1,.071-.126.945.945,0,0,0,.136-.222c.063-.142.528-.182.634-.054a5.172,5.172,0,0,0,.728.414,1.687,1.687,0,0,1,.28.159,1.735,1.735,0,0,0,1.456.388c.108-.063.322-.179.476-.257s.381-.2.5-.278a7.067,7.067,0,0,1,.679-.365,4.459,4.459,0,0,1-.018.5,2.143,2.143,0,0,0,.439,1.3c.37.521.683.253,1.053.8s.755,1.465,1.194,2.34c0,0,.709,1.4.8,1.59a1.263,1.263,0,0,1,.019.574,3.35,3.35,0,0,0,.07.574l.972,1.02a.9.9,0,0,0,.145.1.543.543,0,0,1,.166.112,2.975,2.975,0,0,0,2.648-.06,1.542,1.542,0,0,1,.316-.163c.027,0,.064-.038.081-.084a.131.131,0,0,1,.107-.084.375.375,0,0,0,.185-.1c.06-.054.26-.2.445-.321s.524-.367.755-.545c.961-.737,1.034-.854,1-1.6a1.289,1.289,0,0,0-.092-.564.091.091,0,0,1-.063-.076,6.509,6.509,0,0,0-.518-1.047.085.085,0,0,1-.042-.073,6.508,6.508,0,0,0-.518-1.047.1.1,0,0,1-.042-.091c0-.084-1.524-3.1-1.641-3.251-.052-.066-.1-.167-.888-1.727s-.759-1.424-.274-1.637a.92.92,0,0,0,.224-.125,1.588,1.588,0,0,1,.282-.169c.139-.071.34-.182.448-.247s.312-.183.453-.263c.457-.258,1.309-.735,1.4-.782l.224-.121c1.006-.542,1.116-.62,1.153-.814.053-.283-.016-.572-.146-.613-.061-.019-.11-.055-.11-.081a.934.934,0,0,0-.309-.2l-.309-.151.248-.233a6.373,6.373,0,0,0,.875-1.1.259.259,0,0,1,.07-.122.844.844,0,0,0,.21-.4.219.219,0,0,1,.077-.141,1.193,1.193,0,0,0,.176-.385,2.2,2.2,0,0,1,.142-.377,4.749,4.749,0,0,0,.221-1.115.355.355,0,0,1,.056-.23,3.778,3.778,0,0,0,.007-1.247,4.262,4.262,0,0,1-.144-.6,3.157,3.157,0,0,0-.139-.56,2.245,2.245,0,0,1-.147-.351A.808.808,0,0,0,28.9,6.53c-.021,0-.054-.057-.072-.126a.924.924,0,0,0-.174-.289.732.732,0,0,1-.141-.2,5.511,5.511,0,0,0-.983-.95.809.809,0,0,1-.216-.126,6.126,6.126,0,0,0-.619-.35,4.634,4.634,0,0,1-.513-.285,1.13,1.13,0,0,0-.254-.137.817.817,0,0,1-.215-.114,1.5,1.5,0,0,0-.28-.16c-.139-.067-.378-.2-.532-.284-.311-.18-.538-.3-1.251-.672a5.658,5.658,0,0,1-.514-.286,1.258,1.258,0,0,0-.473-.218c-.048,0-.087-.021-.087-.047a5.9,5.9,0,0,0-2.436-.256A3.97,3.97,0,0,0,19.192,2.244Zm2.925.246a7.418,7.418,0,0,1,1,.443c.277.153.933.51,1.456.794,1.2.649,1.173.618.485.618a5.907,5.907,0,0,0-5.415,4.9c-.02.123-.084.4-.142.616-.5,1.844-.633,2.326-.678,2.52-.118.506-.806,2.8-1.14,3.809-.563,1.695-1.088,2.5-1.938,2.982-.461.26-.629.276-.212.021,2.146-1.314,2.327-4.638.3-5.568-.653-.3-.6-.247-.724-.791a1.158,1.158,0,0,0-.564-.907c-.1-.053-.1-.081-.044-.207.068-.148.636-2.419.858-3.429a21.309,21.309,0,0,1,.635-2.408c1.08-2.652,3.822-4.172,6.125-3.4M25.7,4.6c2.112.231,3.672,2.462,3.435,4.912-.451,4.686-5.947,7.1-8.487,3.727-2.305-3.061.043-8.248,3.924-8.666A4.16,4.16,0,0,1,25.7,4.6M24.074,6.09c-3.225.835-4.158,5.6-1.366,6.977,2.2,1.086,4.968-.886,5.118-3.653A3,3,0,0,0,24.074,6.09m1.068.446c2.265,1.095,1.326,5.091-1.325,5.639-1.554.321-2.469-.523-2.4-2.215.089-2.156,2.245-4.139,3.724-3.424m.97.321c2.187,1.4,1.258,5.214-1.439,5.913a2.535,2.535,0,0,1-1.861-.249c-.249-.153-.21-.174.2-.108,2.694.434,4.762-3.55,2.885-5.56-.185-.2-.1-.2.216.005m-2.71.988a1.675,1.675,0,0,0-.715,2.6c1.253,1.245,3.105.682,3.11-.946a1.965,1.965,0,0,0-2.4-1.653m1.631.612a1.324,1.324,0,0,1,.179,2.07,1.076,1.076,0,0,1-1.946-.8c.083-.921,1.075-1.636,1.767-1.274m-.067.637a.331.331,0,0,1-.035.266c-.039.047-.053.1-.03.126.074.074.206-.177.17-.323-.054-.218-.147-.279-.1-.068m-.59.122c-.053.033-.062.093-.029.206l.046.16.024-.14a.3.3,0,0,1,.08-.175c.032-.02.035-.048.006-.066a.137.137,0,0,0-.126.015m.763.53c.043.266-.139.434-.646.6a1.213,1.213,0,0,0-.4.174c0,.066.053.057.451-.075.607-.2.773-.374.7-.721-.051-.232-.14-.21-.1.025M10.282,9.715c.017.027-.051.062-.151.079a15.154,15.154,0,0,0-2.468,1.4,1.033,1.033,0,0,0-.136.43c-.038.4-.181.351-.181-.059s.119-.525,1.488-1.281c1.035-.572,1.365-.7,1.448-.567m14.2.006c-.1.057-.083.393.017.393.032,0,.04-.062.019-.145-.029-.115-.013-.151.077-.174.063-.016.1-.052.083-.079-.038-.062-.084-.061-.2.006m-13.863.285c.245.291.2.4-.092.22s-.419-.142-1.549.484c-1.11.615-1.239.722-1.136.947.046.1.04.135-.027.161-.2.077-.264-.03-.185-.317s.233-.4,1.413-1.059c1.208-.676,1.342-.713,1.576-.435m.959.9,1.693.927c.452.248.5.189-.616.807a3.905,3.905,0,0,0-1.078.712c-.146.229-.078.248-1.053-.289-.468-.258-1.053-.576-1.3-.708-1.372-.73-1.416-.764-1.244-.936.1-.1,2.11-1.238,2.2-1.244.032,0,.662.327,1.4.731m8.037.4a4.768,4.768,0,0,0,.854,2.019c.286.366.125.306-1.276-.471-.2-.11-.2-.052.07-1.128.239-.948.259-.972.351-.42M9.054,12.372c.524.287,1.248.679,1.609.871.716.382.741.4.694.589-.075.3-.354.277-.994-.074-.319-.175-1.131-.617-1.8-.982l-1.223-.664.3-.129c.412-.178.359-.193,1.419.388m5.321-.353a.153.153,0,0,1-.119.056,12.383,12.383,0,0,0-1.2.622c-1.671.929-1.71,1.02-.975,2.291,1.058,1.83,1.35,2.373,1.136,2.114a19.475,19.475,0,0,1-1.724-3.227c0-.465.487-.833,2.406-1.812.209-.107.536-.136.478-.043m.336.238c.166.143.182.209.764,3.039.223,1.084.1,1.4-.745,1.863-.953.528-1.025.486-1.934-1.112-1.443-2.537-1.472-2.276.374-3.307,1.156-.645,1.3-.69,1.541-.483m-6.777.29c1.822.983,2.911,1.6,2.929,1.651.035.106-.156.135-.261.04a.379.379,0,0,0-.216-.091.3.3,0,0,1-.207-.14.286.286,0,0,0-.232-.14.192.192,0,0,1-.173-.084.208.208,0,0,0-.188-.084.281.281,0,0,1-.247-.14.288.288,0,0,0-.229-.14.232.232,0,0,1-.2-.112.235.235,0,0,0-.222-.112c-.113,0-.173-.034-.2-.112s-.085-.112-.2-.112a.235.235,0,0,1-.222-.112.232.232,0,0,0-.2-.112.267.267,0,0,1-.208-.112.265.265,0,0,0-.223-.112.278.278,0,0,1-.269-.28c0-.093.075-.063.756.3m7.742,1.382c1.658.755,1.694,3.372.065,4.732a2.371,2.371,0,0,1-3.36-.152c-.18-.253-.114-.244.442.063a2.13,2.13,0,0,0,2.308.151c1.776-.871,2.079-3.648.488-4.47-.2-.1-.339-.3-.281-.4.035-.059.05-.056.339.076M20.937,14l.759.439A4.671,4.671,0,0,0,26.825,14l.184-.139.289.163c.408.23.432.2-.775.881l-1.357.764-1.886,1.056c-.893.5-1.776,1-1.96,1.106s-.991.563-1.792,1.01-1.869,1.05-2.373,1.34-.922.519-.927.51l-.1-.158a2.329,2.329,0,0,0-.6-.417c-.48-.26-.582-.367-.351-.367a3.906,3.906,0,0,0,1.928-1.5,14.3,14.3,0,0,0,1.182-3.021c.05-.226.038-.217,1.167-.86,1.107-.629,1.046-.615,1.477-.366m-9.558.141c0,.1-.239.23-.426.23-.086,0,.129-.246.258-.3s.168-.045.168.066m4.691.594a2.672,2.672,0,0,1-1.578,4.118,2.015,2.015,0,0,1-2.205-2.66c.089-.332.082-.337.43.293.666,1.205,1.06,1.364,2.051.826.968-.526,1.1-.863.818-2.174-.1-.453-.174-.838-.174-.855,0-.08.484.253.658.452m11.878-.263c.023.161-.064.269-.322.4-.11.056-.994.549-1.965,1.1-10.423,5.885-9.94,5.626-10,5.38a.324.324,0,0,1,0-.192c.034-.055,2.192-1.3,3.813-2.191.462-.255,1.243-.7,1.736-.98s1.274-.724,1.736-.98,1.5-.837,2.3-1.291L27.2,14.6c.542-.307.717-.337.746-.129m-7.8.327c-.32.167-.382.338-.192.527.211.211.837-.039.837-.333s-.294-.377-.644-.194m.5.038c.2.143-.4.455-.674.351-.2-.076.2-.406.513-.422a.346.346,0,0,1,.161.071m-14.5.178c.154.053.835.4,1.512.769l1.638.893c.5.27.5.255-.028.252A2.816,2.816,0,0,0,6.829,18.5c-.139.261-.283.31-.38.128a.232.232,0,0,0-.2-.112.267.267,0,0,1-.208-.112.258.258,0,0,0-.194-.112.232.232,0,0,1-.185-.112.234.234,0,0,0-.189-.112.368.368,0,0,1-.233-.114c-.057-.063-.137-.1-.178-.085s-.127-.031-.19-.1a.252.252,0,0,0-.213-.107c-.063.016-.134-.028-.2-.123s-.13-.136-.179-.117a.192.192,0,0,1-.176-.08.339.339,0,0,0-.221-.111.233.233,0,0,1-.186-.112.232.232,0,0,0-.2-.112.232.232,0,0,1-.2-.112.232.232,0,0,0-.2-.112c-.785,0,.5-1.5,1.592-1.854a3.915,3.915,0,0,1,1.433.091m5.988,1.038a3.153,3.153,0,0,0,.1,1.8c.181.371.191.438.044.3a2.845,2.845,0,0,1-.141-2.433c.078-.211.073.02-.007.332m9.932-.315c-.572.207-.5.729.078.6.347-.078.5-.205.5-.415s-.265-.295-.574-.183m.4.028c.12.076.035.212-.213.338-.268.137-.36.143-.454.029-.16-.192.43-.518.667-.368m-8.272.092a.56.56,0,0,0-.155.829.517.517,0,0,0,.871-.426.446.446,0,0,0-.716-.4m.461.205c.112.16.113.29,0,.247-.046-.018-.084-.008-.084.022s.038.054.084.054.084.024.084.053c0,.081-.1.124-.139.06-.055-.089-.141-.067-.105.027.049.127-.13.165-.288.061s-.181-.3-.024-.5a.276.276,0,0,1,.469-.023m-4.631,1.3c.554.187,1.986,1.331,1.844,1.473a8.625,8.625,0,0,1-1.086-.549c-.579-.32-1.223-.669-1.431-.776a1.478,1.478,0,0,1-.378-.237c0-.094.677-.037,1.05.09m9.163.032c-.418.19-.379.564.058.564s.774-.331.563-.564c-.123-.135-.322-.135-.621,0m.507-.018c.133.051.009.239-.221.335s-.355.1-.47.027c-.223-.141.406-.471.691-.362m-10.076.471c.031.023.333.187.672.365s1.057.568,1.6.866c1.362.753,1.491.8,2.352.808l.7.009.434.241c.55.305.577.353.141.251a18.227,18.227,0,0,0-2.227-.356c-.411,0-.834.307-.838.608,0,.184-.125.144-.9-.291-.351-.2-1.168-.641-1.815-.99-1.48-.8-1.5-.812-1.459-1a1.237,1.237,0,0,1,.608-.582,2.063,2.063,0,0,1,.739.071m14.521,1.33c.193.393.591,1.155.885,1.694,1.591,2.917,2.917,5.792,2.845,6.171-.153.805-1.684,1.782-2.792,1.782-1.474,0-2.142-.853-3.052-3.893a4.74,4.74,0,0,0-1.579-2.773c-.685-.427-.2-1.734.943-2.528A20.577,20.577,0,0,1,23.7,18.462c.052,0,.216.268.435.713M14.4,20.256c.554.091,1.047.188,1.554.306.179.042.162.2-.021.2a6.666,6.666,0,0,1-.77-.138,16.872,16.872,0,0,0-2.021-.31c-.17,0-.478.256-.478.4a.1.1,0,0,1-.084.107c-.125,0-.1-.228.044-.4.276-.336.531-.358,1.776-.154m7.622,0a.32.32,0,0,0-.085.294c.022.147.017.157-.032.063s-.053-.085-.027.056c.068.364.7.535.7.19a.1.1,0,0,1,.084-.106c.058,0,.084-.059.084-.192a.433.433,0,0,0-.723-.3m.559.05c.135.072.158.406.024.354-.046-.018-.084,0-.084.036s-.038.053-.095.032c-.089-.034-.089-.03,0,.069.107.118.075.18-.092.18-.228,0-.421-.321-.255-.424.043-.027.04-.052-.012-.084s-.057-.063-.036-.085.1,0,.178.053c.168.11.264.123.118.016-.2-.144.022-.271.254-.147m-7.63.343c1.027.207.978.183.749.362-.1.078-.18.177-.18.221s-.014.08-.03.08c-.044,0-1.388-.732-1.451-.791s-.055-.068.913.127m9.974,5.572c-.093.1-.114.156-.066.173a.152.152,0,0,1,.07.139c0,.092-.015.1-.08.048s-.074-.044-.048.063a.43.43,0,0,0,.806.086c.054-.1.04-.1-.08.029-.134.143-.375.213-.375.109a.875.875,0,0,1,.194-.233c.107-.1.18-.215.164-.249s.01-.012.058.048c.087.107.088.107.088,0,0-.325-.5-.466-.732-.209m.237.034c.074-.074.271-.1.271-.03a1.343,1.343,0,0,1-.41.409c-.029,0-.037-.077-.018-.171s.013-.158-.02-.137-.04-.005-.019-.058c.028-.073.045-.076.081-.017s.06.06.115,0" style="fill:#00456a"/></svg>