<svg xmlns="http://www.w3.org/2000/svg" viewBox="0 0 32 32"><title>file_type_monotone</title><path d="M21.243,6.619C21.083,4.646,14.63-.635,8.976,4.7S2.842,7.526,2.309,7.633,2.84,8.894,4.336,8.7c3.68-.48,6.134-5.067,9.547-5.014a6.8,6.8,0,0,1,5.28,3.04Z" style="fill:#aa56ff"/><path d="M4,8.891A2.075,2.075,0,0,1,2.005,7.837a.314.314,0,0,1,.271-.371.6.6,0,0,1,.459.174c.528.383,1.626,1.18,6.125-3.064A7.674,7.674,0,0,1,17.228,2.76c2.356.905,4.1,2.753,4.185,3.846l.014.174L19.072,6.9l-.053-.085a6.681,6.681,0,0,0-5.139-2.96c-1.7-.028-3.157,1.142-4.7,2.379-1.47,1.177-2.989,2.394-4.82,2.633A2.781,2.781,0,0,1,4,8.891ZM2.344,7.8a.637.637,0,0,0,.184.236,2.3,2.3,0,0,0,1.786.5C6.051,8.3,7.533,7.118,8.966,5.97c1.594-1.277,3.1-2.483,4.919-2.454a6.985,6.985,0,0,1,5.365,3.035l1.793-.092c-.236-.92-1.731-2.536-3.938-3.384A7.35,7.35,0,0,0,9.092,4.822C4.389,9.26,3.137,8.351,2.535,7.914A.719.719,0,0,0,2.344,7.8Z"/><path d="M13.877,3.161A6.765,6.765,0,0,0,9.109,5.37,17.2,17.2,0,0,1,5.776,8.134V8.3C8.7,7.057,10.934,3.64,13.883,3.686a6.8,6.8,0,0,1,5.279,3.04l.8-.04A7.154,7.154,0,0,0,13.877,3.161Z" style="fill-opacity:0.31372499465942383"/><path d="M28.871,15.046c0,4.828-5.238,13.708-8.747,13.708-3.608,0-8.747-8.879-8.747-13.708a8.747,8.747,0,1,1,17.494,0Z" style="fill:#aa56ff"/><path d="M20.123,28.923c-1.7,0-3.9-1.915-5.871-5.124-1.85-3.009-3.046-6.445-3.046-8.753a8.917,8.917,0,1,1,17.833,0c0,2.293-1.21,5.729-3.083,8.754C23.971,27.008,21.79,28.923,20.123,28.923Zm0-22.455a8.588,8.588,0,0,0-8.578,8.578c0,2.25,1.176,5.616,3,8.576,1.91,3.107,4,4.962,5.582,4.962,1.525,0,3.65-1.9,5.546-4.963,1.842-2.975,3.032-6.341,3.032-8.575A8.587,8.587,0,0,0,20.123,6.469Z"/><path d="M28.753,13.618c.021.247.032.5.032.749,0,4.828-5.236,13.71-8.745,13.71-3.291,0-7.857-7.386-8.634-12.349.433,4.935,5.275,13.027,8.719,13.027,3.51,0,8.745-8.881,8.745-13.71A8.786,8.786,0,0,0,28.753,13.618Z" style="fill-opacity:0.31372499465942383"/><path d="M26.2,21.958a4.027,4.027,0,1,0-4.427-4.006,4.087,4.087,0,0,0,.026.463" style="fill:#aa56ff"/><path d="M26.2,22.128a.169.169,0,0,1-.016-.338,3.857,3.857,0,1,0-4.241-3.837,3.907,3.907,0,0,0,.025.444.169.169,0,1,1-.337.039,4.259,4.259,0,0,1-.028-.483,4.2,4.2,0,1,1,4.613,4.175Z"/><path d="M18.17,18.461a4.075,4.075,0,0,0,.032-.508,4.026,4.026,0,1,0-4.273,4.019" style="fill:#aa56ff"/><path d="M13.929,22.141h-.01a4.2,4.2,0,1,1,4.453-4.188,4.261,4.261,0,0,1-.033.53A.169.169,0,0,1,18,18.44a3.916,3.916,0,0,0,.03-.487,3.856,3.856,0,1,0-4.094,3.85.169.169,0,0,1-.01.339Z"/><path d="M21.09,26.92a1.361,1.361,0,0,1-.94,1.141,1.306,1.306,0,0,1-.94-1.141c0-.519.421-.46.94-.46S21.09,26.4,21.09,26.92Z"/><path d="M18.257,23.447a.8.8,0,0,1-.667.88.915.915,0,0,1,0-1.761A.8.8,0,0,1,18.257,23.447Z"/><path d="M17.59,24.412a.677.677,0,0,1-.539-.291,1.175,1.175,0,0,1,0-1.347.644.644,0,0,1,1.078,0,1.175,1.175,0,0,1,0,1.347A.677.677,0,0,1,17.59,24.412Zm0-1.761a.512.512,0,0,0-.4.224,1.006,1.006,0,0,0,0,1.143.476.476,0,0,0,.808,0,.948.948,0,0,0,.178-.571h0a.948.948,0,0,0-.178-.571A.512.512,0,0,0,17.59,22.651Z"/><path d="M23.057,23.447a.8.8,0,0,1-.667.88.915.915,0,0,1,0-1.761A.8.8,0,0,1,23.057,23.447Z"/><path d="M22.39,24.412a.677.677,0,0,1-.539-.291,1.175,1.175,0,0,1,0-1.347.644.644,0,0,1,1.078,0,1.175,1.175,0,0,1,0,1.347A.677.677,0,0,1,22.39,24.412Zm0-1.761a.512.512,0,0,0-.4.224,1.006,1.006,0,0,0,0,1.143.476.476,0,0,0,.808,0,.948.948,0,0,0,.178-.571h0a.948.948,0,0,0-.178-.571A.512.512,0,0,0,22.39,22.651Z"/><path d="M17.857,23.242c0,.167-.084.3-.187.3s-.187-.135-.187-.3.084-.3.187-.3.187.135.187.3Z" style="fill:#fff"/><path d="M22.523,23.322c0,.167-.084.3-.187.3s-.187-.135-.187-.3.084-.3.187-.3.187.135.187.3Z" style="fill:#fff"/><path d="M25.814,14.5a3.561,3.561,0,0,0-3.273,2.648A4.676,4.676,0,0,1,25.11,16.4a4.143,4.143,0,0,1,4.056,2.648A3.525,3.525,0,0,0,25.989,14.5C25.93,14.5,25.872,14.5,25.814,14.5Z"/><path d="M21.889,26.558a.121.121,0,0,1-.051-.231c3.889-1.813,5.7-.2,5.775-.129a.121.121,0,1,1-.165.178c-.017-.016-1.778-1.568-5.508.171A.121.121,0,0,1,21.889,26.558Z"/><path d="M26.788,28.357a.121.121,0,0,1-.093-.043A5.68,5.68,0,0,0,25.147,27.1a3.354,3.354,0,0,0-3.565.111.121.121,0,0,1-.13-.2c2.877-1.836,5.4,1.119,5.428,1.149a.121.121,0,0,1-.093.2Z"/><path d="M25.006,29.782a.121.121,0,0,1-.12-.1,3.372,3.372,0,0,0-1.315-2.252,2.145,2.145,0,0,0-2,.169.121.121,0,0,1-.109-.216,2.368,2.368,0,0,1,2.221-.167,3.548,3.548,0,0,1,1.442,2.433.121.121,0,0,1-.1.137Z"/><path d="M18.358,26.558a.121.121,0,0,1-.051-.011c-3.743-1.745-5.491-.187-5.508-.171a.121.121,0,1,1-.165-.178c.075-.07,1.886-1.684,5.775.129a.121.121,0,0,1-.051.231Z"/><path d="M13.459,28.357a.121.121,0,0,1-.093-.2c.025-.03,2.551-2.985,5.428-1.149a.121.121,0,1,1-.13.2A3.354,3.354,0,0,0,15.1,27.1a5.679,5.679,0,0,0-1.547,1.211A.121.121,0,0,1,13.459,28.357Z"/><path d="M15.241,29.782h-.017a.121.121,0,0,1-.1-.137,3.548,3.548,0,0,1,1.442-2.433,2.368,2.368,0,0,1,2.221.167.121.121,0,1,1-.109.216,2.144,2.144,0,0,0-2-.169,3.372,3.372,0,0,0-1.315,2.252A.121.121,0,0,1,15.241,29.782Z"/><path d="M14.332,14.5A3.561,3.561,0,0,1,17.6,17.145a4.676,4.676,0,0,0-2.568-.747,4.143,4.143,0,0,0-4.056,2.648A3.525,3.525,0,0,1,14.158,14.5C14.216,14.5,14.274,14.5,14.332,14.5Z"/></svg>