<svg xmlns="http://www.w3.org/2000/svg" xmlns:xlink="http://www.w3.org/1999/xlink" viewBox="0 0 32 32"><defs><linearGradient id="a" x1="185.455" y1="1601.641" x2="181.955" y2="1630.224" gradientTransform="translate(-62.523 -666.646) scale(0.427)" gradientUnits="userSpaceOnUse"><stop offset="0" stop-color="#fff"/><stop offset="1" stop-color="#fff" stop-opacity="0"/></linearGradient><linearGradient id="b" x1="176.136" y1="1600.5" x2="172.636" y2="1629.083" xlink:href="#a"/></defs><title>file_type_dlang</title><path d="M3.978,15.462,3.969,8.509A.588.588,0,0,1,4.5,7.947a.658.658,0,0,1,.076,0l6.074-.009a15.7,15.7,0,0,1,6.067.95,8.9,8.9,0,0,1,2.244,1.359,4.469,4.469,0,0,1,2.946-1.083,4.11,4.11,0,0,1,4.276,3.92A4.11,4.11,0,0,1,21.907,17c-.089,0-.177-.008-.265-.012a6.617,6.617,0,0,1-.232.953,85.383,85.383,0,0,1,8.59,2.6V2H2V15.4Q2.992,15.42,3.978,15.462Zm22.8-7.944a1.32,1.32,0,0,1,1.374,1.259,1.379,1.379,0,0,1-2.747,0A1.32,1.32,0,0,1,26.78,7.517Z" style="fill:#b03931"/><path d="M17.861,15.787a4.114,4.114,0,0,0-1.748-3.458,5.814,5.814,0,0,0-1.508-.822,7.354,7.354,0,0,0-1.629-.438,21.629,21.629,0,0,0-2.588-.1l-2.619,0,.006,4.737a88.827,88.827,0,0,1,9.91,1.408A4.919,4.919,0,0,0,17.861,15.787Z" style="fill:#b03931"/><path d="M20.993,18.979a7.906,7.906,0,0,1-2.128,2.582,9.739,9.739,0,0,1-3.256,1.71,11.558,11.558,0,0,1-1.971.472h-.015a31.857,31.857,0,0,1-3.326.111l-5.625.022a.616.616,0,0,1-.686-.681l-.01-7.734Q2.992,15.42,2,15.4V30H30V20.544a85.383,85.383,0,0,0-8.59-2.6A6.985,6.985,0,0,1,20.993,18.979Z" style="fill:#b03931"/><path d="M20.993,18.979a7.906,7.906,0,0,1-2.128,2.582,9.739,9.739,0,0,1-3.256,1.71,11.558,11.558,0,0,1-1.971.472h-.015a31.857,31.857,0,0,1-3.326.111l-5.625.022a.616.616,0,0,1-.686-.681l-.01-7.734Q2.992,15.42,2,15.4V30H30V20.544a85.383,85.383,0,0,0-8.59-2.6A6.985,6.985,0,0,1,20.993,18.979Z" style="opacity:0.300000011920929;isolation:isolate;fill:url(#a)"/><path d="M10.477,20.835a16.014,16.014,0,0,0,2.877-.2,7.633,7.633,0,0,0,1.628-.5,5.628,5.628,0,0,0,1.187-.748,4.457,4.457,0,0,0,1.518-2.271,88.691,88.691,0,0,0-9.91-1.408l.006,5.133Z" style="fill:#b03931"/><path d="M10.477,20.835a16.014,16.014,0,0,0,2.877-.2,7.633,7.633,0,0,0,1.628-.5,5.628,5.628,0,0,0,1.187-.748,4.457,4.457,0,0,0,1.518-2.271,88.691,88.691,0,0,0-9.91-1.408l.006,5.133Z" style="opacity:0.300000011920929;isolation:isolate;fill:url(#b)"/><path d="M20.383,11.746a6.993,6.993,0,0,1,1.36,4.148,6.618,6.618,0,0,1-.1,1.1c.088,0,.176.012.265.012a4.11,4.11,0,0,0,4.276-3.92,4.11,4.11,0,0,0-4.276-3.92,4.47,4.47,0,0,0-2.946,1.083A8.123,8.123,0,0,1,20.383,11.746Z" style="fill:#fff"/><ellipse cx="26.78" cy="8.777" rx="1.374" ry="1.259" style="fill:#fff"/><path d="M4.673,23.877l5.625-.022a31.871,31.871,0,0,0,3.326-.111h.015a11.49,11.49,0,0,0,1.971-.472,9.739,9.739,0,0,0,3.256-1.71,7.906,7.906,0,0,0,2.128-2.582,6.985,6.985,0,0,0,.417-1.034,7.056,7.056,0,0,0,.332-2.051,6.992,6.992,0,0,0-1.36-4.148,8.1,8.1,0,0,0-1.421-1.5,8.878,8.878,0,0,0-2.244-1.359,15.686,15.686,0,0,0-6.067-.95l-6.074.009a.658.658,0,0,0-.076,0,.588.588,0,0,0-.532.562l.009,6.952.01,7.734A.616.616,0,0,0,4.673,23.877Zm3.1-12.908,2.619,0a21.623,21.623,0,0,1,2.588.1,7.354,7.354,0,0,1,1.629.438,5.814,5.814,0,0,1,1.508.822,4.116,4.116,0,0,1,1.748,3.458,4.905,4.905,0,0,1-.175,1.327,4.457,4.457,0,0,1-1.518,2.271,5.613,5.613,0,0,1-1.187.748,7.666,7.666,0,0,1-1.628.5,16.009,16.009,0,0,1-2.877.2l-2.694,0-.006-5.133Z" style="fill:#fff"/></svg>