<svg xmlns="http://www.w3.org/2000/svg" xmlns:xlink="http://www.w3.org/1999/xlink" viewBox="0 0 32 32"><title>file_type_netlify</title><path d="M29.39 13.98 18.02 2.61l-.42-.42-.47-.19h-2.26l-.47.2-.42.41L2.61 13.98l-.42.42-.19.47v2.26l.2.47.41.42 11.37 11.37.42.42.47.19h2.26l.47-.2.42-.41 11.37-11.37.42-.42.19-.47v-2.26l-.2-.47-.41-.42Z" fill="#fff"/><path d="M14.99 27.38v-5.46l.14-.15h1.74l.14.15v5.46l-.14.14h-1.74l-.14-.14Zm0-17.3V4.62l.14-.14h1.74l.14.14v5.46l-.14.15h-1.74l-.14-.15ZM10.4 23.33h-.24l-1.2-1.2v-.23l1.6-1.6h1.26l.17.18v1.26l-1.6 1.6ZM8.96 10.16v-.24l1.2-1.2h.24l1.59 1.6v1.26l-.17.17h-1.26l-1.6-1.59Zm-4.8 4.82h6.14l.14.15v1.74l-.14.14H4.16L4 16.87v-1.74l.15-.15Z" fill="#05BDBA"/><path d="M19.26 19.62h-1.74l-.15-.15v-4.06c0-.73-.28-1.29-1.15-1.3-.45-.02-.97 0-1.51.02l-.09.08v5.26l-.14.15h-1.74l-.14-.15v-6.94l.14-.15h3.9a2.75 2.75 0 0 1 2.76 2.75v4.34l-.15.15Z" fill="#014847"/><path d="M27.84 17.02H21.7l-.14-.15v-1.74l.14-.14h6.14l.15.14v1.74l-.15.15Z" fill="#05BDBA"/></svg>