<svg xmlns="http://www.w3.org/2000/svg" viewBox="0 0 32 32"><title>file_type_ng_directive_js</title><defs><linearGradient id="a"><stop offset="0" stop-color="#1dbf34" /><stop offset="1" stop-color="#168f27" /></linearGradient></defs><g transform="matrix(.11923 0 0 .11923 2.7608 1.986)"><path d="m222.08 39.192-8.019 125.92-76.671-165.12zm-53.105 162.82-57.933 33.056-57.934-33.056 11.783-28.556h92.301zm-57.933-139.34 30.357 73.803h-60.715zm-103.1 102.44-7.937-125.92 84.69-39.192z" fill="url(#a)" /><path d="m222.08 39.192-8.019 125.92-76.671-165.12zm-53.105 162.82-57.933 33.056-57.934-33.056 11.783-28.556h92.301zm-57.933-139.34 30.357 73.803h-60.715zm-103.1 102.44-7.937-125.92 84.69-39.192z" fill="#168f27" fill-opacity=".3" /></g><path d="M15.64,27.93l1.67-1A1.51,1.51,0,0,0,18.62,28c.67,0,1.1-.26,1.1-1.29v-7h2v7a2.78,2.78,0,0,1-3.06,3.09,3.18,3.18,0,0,1-3.07-1.87m7.29-.22,1.67-1a2.23,2.23,0,0,0,2,1.24,1.18,1.18,0,0,0,1.431-.859q.011-.045.019-.091c0-.7-.56-1-1.49-1.36L26,25.42c-1.48-.63-2.46-1.42-2.46-3.09A2.74,2.74,0,0,1,26.3,19.608q.121,0,.242.012a3,3,0,0,1,2.91,1.64l-1.59,1a1.39,1.39,0,0,0-1.32-.88.89.89,0,0,0-1,.88c0,.61.38.86,1.26,1.24l.51.22C29,24.47,30,25.23,30,26.95s-1.45,2.85-3.39,2.85a3.93,3.93,0,0,1-3.73-2.09" style="fill:#f7df1e" /></svg>
