<svg xmlns="http://www.w3.org/2000/svg" viewBox="0 0 32 32"><title>file_type_deno</title><path d="M4.45,21.34A12.54,12.54,0,0,1,3.27,16a11.8,11.8,0,0,1,.09-1.46,11.07,11.07,0,0,1,.24-1.42,12.75,12.75,0,0,1,9.73-9.57A13.07,13.07,0,0,1,16,3.27c.32,0,.64,0,1,0a12.73,12.73,0,0,1,11.57,10.5A13.12,13.12,0,0,1,28.73,16c0,.32,0,.64,0,1a12.61,12.61,0,0,1-3.3,7.61,6.62,6.62,0,0,1-4.7,2.06,4.68,4.68,0,0,1-2.88-1.09,4.58,4.58,0,0,1-1.63-3.09,5.47,5.47,0,0,1,.14-1.61,3.38,3.38,0,0,1,.8-1.53,4.94,4.94,0,0,1-1.3-.88.15.15,0,0,1,0-.19.16.16,0,0,1,.18-.06,9.69,9.69,0,0,0,1.46.37,19.9,19.9,0,0,0,2.45.31C22.08,19,24.33,18,25,16.09s.43-3.83-2.08-5-3.66-2.5-5.69-3.32a5,5,0,0,0-4.3.62c-4.08,2.25-7.72,9.35-6,15.94a.21.21,0,0,1-.1.23.2.2,0,0,1-.23,0,13,13,0,0,1-1.33-1.73A12.66,12.66,0,0,1,4.45,21.34Z" style="fill-rule:evenodd"/><path d="M16.65,2A14,14,0,1,1,2,15.35,14,14,0,0,1,16.65,2Zm3.27,16.85a19.9,19.9,0,0,1-2.45-.31A8.62,8.62,0,0,1,16,18.19a.16.16,0,0,0-.18.06.15.15,0,0,0,0,.19,4.94,4.94,0,0,0,1.3.88,3.38,3.38,0,0,0-.8,1.53,5.47,5.47,0,0,0-.14,1.61,4.58,4.58,0,0,0,1.63,3.09,4.68,4.68,0,0,0,2.88,1.09,6.62,6.62,0,0,0,4.72-2.07,12.73,12.73,0,1,0-18.84,0,.21.21,0,0,0,.35-.19c-1.68-6.59,2-13.69,6-15.94a5,5,0,0,1,4.3-.62c2,.82,3.18,2.18,5.69,3.32s2.78,3,2.08,5S22.08,19,19.92,18.87ZM15.54,8.69c-.82.06-1.36,1.08-1.43,1.73s.25,1.73,1.32,1.71c1.25,0,1.64-1.09,1.5-2.13A1.39,1.39,0,0,0,15.54,8.69Z" style="fill:#f5f5f5;fill-rule:evenodd"/><path d="M15.54,8.68A1.4,1.4,0,0,1,16.93,10c.14,1-.24,2.12-1.49,2.14-1.07,0-1.4-1.06-1.33-1.71S14.72,8.75,15.54,8.68Z" style="fill-rule:evenodd"/></svg>