<svg xmlns="http://www.w3.org/2000/svg" viewBox="0 0 32 32"><title>file_type_haml</title><path d="M15.311,16.043,13.4,29.726a6.322,6.322,0,0,1-5.956-1.25l3.1-13.266L4.69,3.34a8.031,8.031,0,0,1,3.79-.646l5.144,9.7,8.914-7.581s3,1.041,3.27,2.041l-10.5,9.184Z" style="fill:#ecdfa7"/><path d="M27.016,17.411a4.244,4.244,0,0,0-.541-.812,5.7,5.7,0,0,0-1.458-1.187,7.331,7.331,0,0,0-1.687-.791l-.229-.062-.187-.062c-.125-.042-.229-.1-.333-.146a1.282,1.282,0,0,1-.458-.417A1.754,1.754,0,0,1,22,12.642a2.518,2.518,0,0,1,.1-.375c.042-.125.083-.25.125-.4a2.691,2.691,0,0,0,.062-.6l.1-.083,1.25-1.041c.229-.187.458-.4.687-.583a2.2,2.2,0,0,1,.229.146s.646.062,1-.916l-.187-.125.125-.1.312-.271a.613.613,0,0,0,.229-.375.529.529,0,0,0-.417.125l-.333.25-.229.167L22.184,6.478c.146-.125.271-.229.417-.354l.6-.541.062-.062c.062.042.1.083.167.125.146.1.312.208.458.292l.916.5c.292.167.6.333.916.479a3.323,3.323,0,0,0,.479.208c.083.021.167.062.25.083.042,0,.1.021.146.021h.1a.151.151,0,0,0,.125-.083V7.123a.077.077,0,0,1,.021-.062V6.977a.108.108,0,0,0-.042-.083c-.021-.042-.062-.083-.083-.125a1.59,1.59,0,0,0-.187-.187c-.125-.125-.271-.229-.4-.333-.271-.208-.562-.4-.854-.583a7.545,7.545,0,0,0-.9-.5,3.323,3.323,0,0,0-.479-.208c-.083-.021-.167-.062-.271-.083-.042,0-.1-.021-.167-.021a.31.31,0,0,0-.125.021.522.522,0,0,0-.167.1,1.6,1.6,0,0,0-.375.208l-.625.354c-.187.146-.4.312-.583.458l-.208-.146s-.875.083-.583.646l.083.083c-.833.687-1.645,1.4-2.457,2.083-.833.708-1.645,1.416-2.478,2.145l-1.229,1.083a1.878,1.878,0,0,1-.208.187c-.042-.125-.1-.229-.146-.333l-.292-.625-.562-1.25c-.375-.833-.75-1.666-1.145-2.5L11.209,4.895l-.187-.375h.25s.083-.687-.417-.812a1.4,1.4,0,0,0-.208.021c-.187-.375-.354-.75-.541-1.125h0l-.083-.312A.33.33,0,0,0,9.9,2.1a.352.352,0,0,0-.1-.042c-.062-.021-.1-.021-.167-.042A1.281,1.281,0,0,0,9.355,2a4.057,4.057,0,0,0-.521.042,8.767,8.767,0,0,0-1.02.187c-.333.083-.666.167-1,.271a3.272,3.272,0,0,0-.479.187l-.25.125c-.042.021-.083.062-.125.083L5.9,2.958c-.021.021-.021.042-.042.062v.062h0V3.1a.164.164,0,0,0,.1.125c.042.021.062.042.083.042a1.327,1.327,0,0,1,.146.042,1.188,1.188,0,0,0,.271.021,4.384,4.384,0,0,0,.521-.042c.333-.042.687-.083,1.02-.146l1.02-.167c.167-.021.333-.062.521-.1.146.292.292.6.437.9-.958.083-2.457.208-3.395.312-.1-.187-.187-.354-.292-.541a.127.127,0,0,0-.146-.062.108.108,0,0,0-.062.146c.062.167.125.312.187.479a1.167,1.167,0,0,0-.5.125A1.828,1.828,0,0,0,6.4,5.645a3.567,3.567,0,0,1,.458-.125l.437,1,1.25,2.832,1.27,2.832c.417.937.854,1.874,1.291,2.832h0a.02.02,0,0,0,.021.021l-.187.625-.5,1.749c-.312,1.166-.6,2.353-.9,3.52L9.105,22.7l-.417,1.77c-.292,1.187-.562,2.353-.9,3.52a.125.125,0,0,0,.021.083,3.076,3.076,0,0,0,.6.562,6.048,6.048,0,0,0,.687.417,9.4,9.4,0,0,0,1.5.6,6.972,6.972,0,0,0,1.624.271,3.728,3.728,0,0,0,.833-.042,6.547,6.547,0,0,0,.833-.167.254.254,0,0,0,.167-.187v-.021c.229-1.145.417-2.312.625-3.457l.583-3.478c.187-1.166.4-2.312.583-3.478.021-.125.042-.271.062-.4.042.042.062.1.1.146a4.137,4.137,0,0,0,.708.646,7.212,7.212,0,0,0,1.583.833,11.774,11.774,0,0,0,1.666.5,10.182,10.182,0,0,0,1.1.187,2.621,2.621,0,0,0-.25,1.208.115.115,0,0,0,.062.1h.021a5.164,5.164,0,0,0,1.27.479,4.333,4.333,0,0,0,1.375.062,2.627,2.627,0,0,0,1.333-.562,2.824,2.824,0,0,0,.812-1.166l.021-.021V21.1l.062-.562v-.021a5.427,5.427,0,0,0,.625-.417,2.71,2.71,0,0,0,.646-.729,1.833,1.833,0,0,0,.25-1,2.563,2.563,0,0,0-.292-.958Zm-.4-10.5Zm-1.479-1.1a7.12,7.12,0,0,1,.833.541c.125.1.271.187.4.312a1.257,1.257,0,0,1,.167.167l.042.042h-.042c-.083-.021-.146-.042-.229-.062-.146-.062-.312-.125-.458-.187a7.132,7.132,0,0,1-.875-.479A5.61,5.61,0,0,1,24.2,5.52a2.5,2.5,0,0,1-.229-.25l.312.125a6.4,6.4,0,0,1,.854.417Zm-1.416-.916.021.021v.042a.02.02,0,0,0-.021-.021V4.895ZM8.876,2.562a5.021,5.021,0,0,1-.937.333,5.347,5.347,0,0,1-.979.167,4.013,4.013,0,0,1-.5.021.781.781,0,0,1-.229-.021H6.169c.021,0,.021-.021.042-.021.062-.042.146-.062.208-.1.146-.062.312-.1.458-.167.312-.083.646-.167.979-.229a8.4,8.4,0,0,1,.979-.125A1.576,1.576,0,0,0,9.147,2.4a1.536,1.536,0,0,1-.271.167Zm14.453,7.1-1.291,1-1.291,1.02c-.354.292-.708.583-1.062.854.021-.021.042-.062.062-.083.167-.229.333-.437.5-.646.354-.417.687-.854,1.062-1.25s.771-.791,1.166-1.145a4.872,4.872,0,0,1,.646-.5l.187-.125c.187.146.4.292.583.437-.167.146-.375.292-.562.437ZM8.064,7.1l.1.1a5.63,5.63,0,0,1,.583.646,2.21,2.21,0,0,1,.375.729.921.921,0,0,1-.062.625l-.021-.062L8.064,7.1Zm1.02,2.166a.72.72,0,0,0,.146-.25.866.866,0,0,0,.042-.458A1.7,1.7,0,0,0,8.9,7.727a4.015,4.015,0,0,0-.979-.9l-.229-.479c-.146-.312-.292-.625-.458-.916.312-.083.687-.208,1.1-.312A20.313,20.313,0,0,1,9.355,7a7.963,7.963,0,0,1,.771,2.541c.021.208,0,.437,0,.666s0,.458.021.687a7.609,7.609,0,0,0,.146.958L9.084,9.268ZM14,26.242a.9.9,0,0,1-.187.208.4.4,0,0,1-.333.1.358.358,0,0,1-.229-.229.981.981,0,0,1-.083-.354,2.275,2.275,0,0,1,.042-.75,2.816,2.816,0,0,1,.229-.708,1.478,1.478,0,0,1,.208-.292.341.341,0,0,1,.292-.125c.1,0,.208.1.271.208a.74.74,0,0,1,.083.187l-.25,1.479c-.021.1-.021.187-.042.271Zm1.229-7.185-.375,2.187a3.329,3.329,0,0,0-.1-.437c-.1-.4-.229-.771-.354-1.145a15.537,15.537,0,0,0-.958-2.166c.229.771.5,1.5.771,2.249.146.375.271.75.4,1.1l.187.562c0,.021.021.062.021.083-.062.333-.125.666-.167,1.02l-.312,1.9c-.021-.042-.021-.083-.042-.125a.486.486,0,0,0-.312-.292.525.525,0,0,0-.417.125,1.944,1.944,0,0,0-.271.312,2.036,2.036,0,0,0-.271.75,2.131,2.131,0,0,0,0,.812,1.021,1.021,0,0,0,.146.4.486.486,0,0,0,.333.271.428.428,0,0,0,.375-.167c.042-.042.083-.1.125-.146-.146.979-.312,1.958-.458,2.957a2.727,2.727,0,0,1-.562.125c-.25.042-.5.062-.75.083a5.531,5.531,0,0,1-1.541-.146,7.846,7.846,0,0,1-1.5-.479,3.625,3.625,0,0,1-1.229-.854c.312-1.145.666-2.291,1.02-3.436l.541-1.729.521-1.749c.354-1.166.708-2.333,1.041-3.5.167-.583.312-1.166.479-1.749a3.626,3.626,0,0,0,.187-1.833v-.021c-.021-.021-.042-.021-.042,0a3.109,3.109,0,0,0-.25.292c-.229-.521-.479-1.02-.708-1.541a4.765,4.765,0,0,1-.167-.583,7.165,7.165,0,0,1-.208-1.312c-.021-.229-.021-.437-.021-.666s.021-.458,0-.687a7.625,7.625,0,0,0-.833-2.6,12.587,12.587,0,0,0-1.1-1.833c.687-.187,1.416-.375,2-.479.083.187.187.354.271.541L11.938,7.6l1.25,2.437.625,1.208.312.6c.083.125.125.271.208.375l-.812.75a.069.069,0,0,0,0,.1.073.073,0,0,0,.1.021c.437-.312.875-.646,1.312-.979l1.312-1c.875-.666,1.729-1.333,2.582-2s1.708-1.354,2.562-2.041l.021-.021a24.316,24.316,0,0,0,1.874,1.645,6.162,6.162,0,0,0-.875.541,8.943,8.943,0,0,0-1.229,1.125,12.279,12.279,0,0,0-1.041,1.291,11.778,11.778,0,0,0-.646,1c-1.27,1.041-2.52,2.1-3.728,3.207a.128.128,0,0,0-.021.146.138.138,0,0,0,.146.042,9.134,9.134,0,0,0-.312,1.25c-.125.583-.25,1.166-.354,1.749Zm9.205,2.791a2.527,2.527,0,0,1-1.02.458,3.767,3.767,0,0,1-1.187.042,7.361,7.361,0,0,1-1.145-.208,2.037,2.037,0,0,1,.167-1.041c.146.021.271.021.417.042a.114.114,0,0,0,.125-.083.124.124,0,0,0-.083-.167h0c-.1-.042-.187-.062-.292-.1a2.771,2.771,0,0,1,.292-.4c.125-.125.25-.25.375-.354a3.992,3.992,0,0,0,.854.4,2.881,2.881,0,0,0,1.125.1,1.55,1.55,0,0,0,1.02-.541,1.524,1.524,0,0,0,.354-.916.85.85,0,0,1,.021.4,4.511,4.511,0,0,1-.083.521l-.062.312L25,20.494a.919.919,0,0,0-.333.354.751.751,0,0,0,.479,0c.021,0,.021-.021.042-.021-.021.062-.021.1-.042.167a2.552,2.552,0,0,1-.708.854ZM26.5,19.119a2.2,2.2,0,0,1-.458.625,2.638,2.638,0,0,1-.271.229,2.585,2.585,0,0,0-.062-.562,1.534,1.534,0,0,0-.083-.292.531.531,0,0,0-.187-.25h0c-.021,0-.042,0-.042.021h0a1.95,1.95,0,0,1-.562.771,1.429,1.429,0,0,1-.812.292,2.857,2.857,0,0,1-.916-.125c-.312-.083-.625-.187-.937-.292l-.042-.021a.2.2,0,0,0-.187.042c-.167.208-.292.4-.437.6-.1.167-.187.312-.271.479-.375-.146-.729-.271-1.1-.417-.521-.208-1.041-.417-1.52-.666a7.648,7.648,0,0,1-1.4-.812,2.949,2.949,0,0,1-.979-1.062v-.021a.409.409,0,0,0-.187-.187c0-.042.021-.1.021-.146a7.37,7.37,0,0,0,.1-1.52c1.687-1.187,3.332-2.437,4.957-3.728l-.062.187a3.27,3.27,0,0,0-.146,1.02A2.089,2.089,0,0,0,22.122,15.1a2.825,2.825,0,0,0,.479.187l.25.062.208.042a6.645,6.645,0,0,1,1.541.625,6.156,6.156,0,0,1,1.312.979,2.275,2.275,0,0,1,.708,1.333,1.51,1.51,0,0,1-.125.791Z" style="fill:#3f3e29"/><path d="M12.667,23.909a2.161,2.161,0,0,0-.354.771,1.556,1.556,0,0,0-.062.417l-.021.417a4.533,4.533,0,0,0,.146,1.666,7.647,7.647,0,0,0,.666,1.52c-.083-.271-.187-.521-.271-.771s-.167-.521-.229-.791a5.89,5.89,0,0,1-.1-1.6l.021-.417a2.552,2.552,0,0,1,.042-.4,3.137,3.137,0,0,1,.292-.729,2.967,2.967,0,0,1,.521-.625,2.591,2.591,0,0,1,.666-.479,2.76,2.76,0,0,0-1.312,1.02Z" style="fill:#3f3e29"/></svg>