<svg xmlns="http://www.w3.org/2000/svg" xmlns:xlink="http://www.w3.org/1999/xlink" viewBox="0 0 32 32"><defs><linearGradient id="a" x1="-33.423" y1="-250.911" x2="-33.353" y2="-250.858" gradientTransform="matrix(37.134, 26.001, 13.575, -19.387, 4673.473, -3982.019)" gradientUnits="userSpaceOnUse"><stop offset="0" stop-color="#767676"/><stop offset="1"/></linearGradient><linearGradient id="b" x1="-32.107" y1="-242.563" x2="-32.028" y2="-242.586" gradientTransform="matrix(81.081, 56.774, 17.306, -24.715, 6804.021, -4149.644)" gradientUnits="userSpaceOnUse"><stop offset="0" stop-color="#0079b9"/><stop offset="1"/></linearGradient><linearGradient id="c" x1="-33.282" y1="-243.423" x2="-33.224" y2="-243.455" gradientTransform="matrix(60.003, 42.015, 34.184, -48.82, 10343.005, -10469.084)" xlink:href="#b"/><linearGradient id="d" x1="12.356" y1="26.268" x2="14.011" y2="26.268" gradientUnits="userSpaceOnUse"><stop offset="0" stop-color="#595959"/><stop offset="0.087" stop-color="#6e6e6e"/><stop offset="0.242" stop-color="#8c8c8c"/><stop offset="0.405" stop-color="#a4a4a4"/><stop offset="0.577" stop-color="#b5b5b5"/><stop offset="0.765" stop-color="#bfbfbf"/><stop offset="1" stop-color="#c2c2c2"/></linearGradient><linearGradient id="e" x1="18.291" y1="26.171" x2="19.946" y2="26.171" xlink:href="#d"/><linearGradient id="f" x1="24.44" y1="26.171" x2="26.096" y2="26.171" xlink:href="#d"/></defs><title>file_type_plantuml</title><polygon points="20.305 17.872 27.16 22.418 21.72 25.493 14.861 20.999 20.305 17.872" style="fill:#1c0a42"/><path d="M21.716,25.619l-.055-.036-7.005-4.59,5.653-3.247,7.056,4.68Zm-6.65-4.613,6.658,4.362,5.231-2.957L20.3,18Z"/><polygon points="26.401 11.909 29.418 13.592 27.07 15.088 24.213 13.247 26.401 11.909" style="fill:url(#a)"/><path d="M27.069,15.215l-3.058-1.97,2.387-1.46,3.228,1.8Zm-2.654-1.966L27.07,14.96,29.208,13.6l-2.8-1.565Z"/><polygon points="14.498 17.807 21.354 22.354 15.914 25.429 9.055 20.935 14.498 17.807" style="fill:#ffbd3f"/><path d="M15.91,25.554l-.055-.036L8.85,20.929,14.5,17.681l7.056,4.68ZM9.26,20.941,15.918,25.3l5.231-2.957-6.654-4.413Z"/><polygon points="7.99 17.966 14.954 22.366 9.577 25.504 2.218 20.849 7.99 17.966" style="fill:#a11f40"/><path d="M9.575,25.629,2,20.838l6-3,7.164,4.527ZM2.436,20.86,9.58,25.378l5.168-3.016L7.984,18.089Z"/><polygon points="2.111 21.021 9.443 25.515 9.443 29.063 2.111 24.332 2.111 21.021" style="fill:url(#b)"/><path d="M9.55,29.26,2,24.391V20.829L9.55,25.455ZM2.218,24.274l7.118,4.592V25.575L2.218,21.213Z"/><polygon points="24.071 13.343 27.009 15.222 27.009 22.131 24.071 20.247 24.071 13.343" style="fill:url(#c)"/><path d="M27.063,22.229l-3.045-1.953V13.245l3.045,1.947Zm-2.938-2.012,2.831,1.815V15.251l-2.831-1.81Z"/><polygon points="27.149 22.526 27.149 15.194 29.514 13.775 29.514 29.149 28.331 29.149 9.646 29.149 9.646 25.601 15.086 22.526 15.785 25.601 15.796 25.601 21.472 22.526 21.891 25.601 21.945 25.601 27.149 22.526" style="fill:#fff"/><path d="M29.621,29.256H9.539V25.538l5.62-3.177.7,3.083,5.7-3.087.422,3.1,5.061-2.991V15.133l2.58-1.548ZM9.753,29.041H29.407V13.964l-2.151,1.29v7.332l-.053.031-5.229,3.09H21.8l-.411-3.014-5.564,3.014H15.7l-.686-3.018-5.26,2.973Z"/><rect x="12.356" y="25.44" width="1.656" height="1.656" rx="0.215" ry="0.215" style="fill:url(#d)"/><path d="M13.8,27.2H12.57a.322.322,0,0,1-.322-.322V25.655a.322.322,0,0,1,.322-.322H13.8a.322.322,0,0,1,.322.322v1.226A.322.322,0,0,1,13.8,27.2ZM12.57,25.547a.108.108,0,0,0-.107.107v1.226a.108.108,0,0,0,.107.107H13.8a.108.108,0,0,0,.107-.107V25.655a.108.108,0,0,0-.107-.107Z"/><rect x="18.291" y="25.343" width="1.656" height="1.656" rx="0.215" ry="0.215" style="fill:url(#e)"/><path d="M19.732,27.106H18.505a.322.322,0,0,1-.322-.322V25.558a.322.322,0,0,1,.322-.322h1.226a.322.322,0,0,1,.322.322v1.226A.322.322,0,0,1,19.732,27.106Zm-1.226-1.656a.108.108,0,0,0-.107.107v1.226a.108.108,0,0,0,.107.107h1.226a.108.108,0,0,0,.107-.107V25.558a.108.108,0,0,0-.107-.107Z"/><rect x="24.44" y="25.343" width="1.656" height="1.656" rx="0.215" ry="0.215" style="fill:url(#f)"/><path d="M25.881,27.106H24.655a.322.322,0,0,1-.322-.322V25.558a.322.322,0,0,1,.322-.322h1.226a.322.322,0,0,1,.322.322v1.226A.322.322,0,0,1,25.881,27.106Zm-1.226-1.656a.108.108,0,0,0-.107.107v1.226a.108.108,0,0,0,.107.107h1.226a.108.108,0,0,0,.107-.107V25.558a.108.108,0,0,0-.107-.107Z"/><path d="M27.215,11.23c-.052.069-.417-.262-.653-.526a4.408,4.408,0,0,1-.516-.73A2.6,2.6,0,0,1,25.7,9.2a2.358,2.358,0,0,1-.052-.682,2.959,2.959,0,0,1,.129-.749,3.142,3.142,0,0,1,.787-1.207,15.532,15.532,0,0,0,1.283-1.4,3.062,3.062,0,0,0,.479-.927,3.979,3.979,0,0,0,.151-.855c.019-.364-.025-.593.023-.613s.215.274.287.564a3.167,3.167,0,0,1-.458,2.1,6.9,6.9,0,0,1-1.094,1.448,2.8,2.8,0,0,0-.849,1.234A2.466,2.466,0,0,0,26.3,8.8a3.465,3.465,0,0,0,.476,1.542C27.064,10.914,27.256,11.175,27.215,11.23Z" style="fill:#ea2d2e"/><path d="M27.193,11.266c-.124,0-.492-.365-.651-.544a4.478,4.478,0,0,1-.52-.734,2.628,2.628,0,0,1-.346-.781,2.375,2.375,0,0,1-.053-.69,2.978,2.978,0,0,1,.13-.756,3.208,3.208,0,0,1,.793-1.216c.294-.331.5-.528.659-.686a4.393,4.393,0,0,0,.622-.711,3.052,3.052,0,0,0,.476-.919,3.951,3.951,0,0,0,.15-.849c.008-.159,0-.294,0-.393,0-.159-.006-.225.038-.243a.05.05,0,0,1,.043,0,1.226,1.226,0,0,1,.28.579,3.167,3.167,0,0,1-.46,2.121,6.928,6.928,0,0,1-1.1,1.453c-.055.06-.109.116-.162.171a2.3,2.3,0,0,0-.681,1.052,2.47,2.47,0,0,0-.082.673,3.458,3.458,0,0,0,.473,1.53c.114.231.215.415.289.549.129.235.178.323.142.369h0a.051.051,0,0,1-.04.02ZM28.512,2.8a.863.863,0,0,0,0,.19c0,.1.007.236,0,.4a4.021,4.021,0,0,1-.152.861,3.106,3.106,0,0,1-.483.934,4.437,4.437,0,0,1-.629.719c-.162.158-.364.354-.657.683a3.168,3.168,0,0,0-.782,1.2,2.933,2.933,0,0,0-.128.743,2.325,2.325,0,0,0,.052.675,2.59,2.59,0,0,0,.341.767,4.422,4.422,0,0,0,.513.725,2.035,2.035,0,0,0,.611.526,1.183,1.183,0,0,0-.147-.31c-.074-.134-.175-.318-.29-.551A3.5,3.5,0,0,1,26.278,8.8a2.53,2.53,0,0,1,.084-.688,2.375,2.375,0,0,1,.694-1.075c.052-.055.106-.111.161-.171a6.879,6.879,0,0,0,1.09-1.442,3.119,3.119,0,0,0,.456-2.083A1.281,1.281,0,0,0,28.512,2.8Z"/><path d="M29.972,6.087c-.019-.088-.432-.04-.766.073a2.6,2.6,0,0,0-1.059.722,2.8,2.8,0,0,0-.916,1.855,2.972,2.972,0,0,0,.258,1.06c.221.572.455.773.444,1.225-.007.3-.114.484-.048.549s.314-.1.462-.313a1.8,1.8,0,0,0,.259-1.022c-.046-.815-.6-1.015-.608-1.8a1.858,1.858,0,0,1,.129-.676C28.57,6.509,30.008,6.252,29.972,6.087Z" style="fill:#ea2d2e"/><path d="M27.934,11.617a.094.094,0,0,1-.069-.026c-.046-.046-.03-.122-.005-.237a1.718,1.718,0,0,0,.045-.331,1.374,1.374,0,0,0-.214-.72,5,5,0,0,1-.228-.495,2.98,2.98,0,0,1-.259-1.07,2.81,2.81,0,0,1,.923-1.874,2.64,2.64,0,0,1,1.07-.729,1.482,1.482,0,0,1,.766-.1A.065.065,0,0,1,30,6.081h0c.015.07-.092.121-.306.224a2.73,2.73,0,0,0-1.542,1.463,1.827,1.827,0,0,0-.127.667,1.645,1.645,0,0,0,.291.885,1.889,1.889,0,0,1,.317.914,1.814,1.814,0,0,1-.264,1.039.809.809,0,0,1-.421.342Zm1.889-5.549a2.117,2.117,0,0,0-.608.117,2.588,2.588,0,0,0-1.048.715,2.764,2.764,0,0,0-.909,1.837,2.935,2.935,0,0,0,.256,1.05,4.955,4.955,0,0,0,.225.49,1.433,1.433,0,0,1,.22.745,1.765,1.765,0,0,1-.047.341c-.019.091-.035.163-.009.188a.046.046,0,0,0,.038.01.769.769,0,0,0,.382-.32,1.793,1.793,0,0,0,.254-1.005,1.844,1.844,0,0,0-.31-.89,1.711,1.711,0,0,1-.3-.911,1.877,1.877,0,0,1,.13-.686A2.776,2.776,0,0,1,29.67,6.257c.126-.061.283-.136.277-.164l-.008-.007A.264.264,0,0,0,29.823,6.068Z"/></svg>