<svg xmlns="http://www.w3.org/2000/svg" viewBox="0 0 32 32"><title>file_type_perl2</title><path d="M30,16A14,14,0,1,1,16,2,14,14,0,0,1,30,16" style="fill:#3a3c5b"/><path d="M25.753,17.035c-.472-2.976-3.595-4.9-5.92-6.359-1.016-.635-2.663-1.463-2.876-2.8a13.561,13.561,0,0,1-.1-1.68c-.007-.219-.011-.439-.03-.657-.025-.282-.312.065-.469-.18-.389-.609-.239.184-.2.5a17.854,17.854,0,0,1,.19,2.263,17.333,17.333,0,0,1-.608,4.241c-.848,3.276-1.517,6.633-.678,9.986a11.806,11.806,0,0,0,.7,2.032c.09.2.262.747.509.813a4.507,4.507,0,0,1,2.275.969c.442.411.773.187,1.295-.022a10.012,10.012,0,0,0,4.074-2.734,7.6,7.6,0,0,0,1.845-6.378m-1.673,3a6.321,6.321,0,0,1-1.692,3.23,6.026,6.026,0,0,1-2.18,1.815c-.3.108.056-.5.1-.566a13.917,13.917,0,0,1,.881-1.1,6.6,6.6,0,0,0,1.083-1.75,7.487,7.487,0,0,0-.607-6.716,13.442,13.442,0,0,0-2.6-2.769,10.254,10.254,0,0,1-1.319-1.239c-.09-.109-.884-1.149-.637-1.3.08-.05,1.816,1.777,2,1.919.718.542,1.456,1.043,2.121,1.654a9.512,9.512,0,0,1,2.339,2.874,7.44,7.44,0,0,1,.5,3.952" style="fill:#fff"/><path d="M15.484,2.377c.261.174.318,1.187.318,2.114a42.189,42.189,0,0,1-.2,6,11.485,11.485,0,0,1-1.68,3.3,9.787,9.787,0,0,0-1.535,4.6A11.059,11.059,0,0,0,13.8,22.911c.61.93,1.647,2.227,1.419,2.52-.405.521-2.056-1.274-2.925-2.317a8.934,8.934,0,0,1-1.767-4.808A7.247,7.247,0,0,1,12.1,14.194a37.326,37.326,0,0,0,2.317-3.244,7.586,7.586,0,0,0,.84-2.52c.116-1.014,0-4.634,0-4.634s-.029-1.593.232-1.419" style="fill:#fff"/><path d="M14.789,4.086c.261.116.29.434.29.753s-.087,1.622-.174,2.9a5.334,5.334,0,0,1-1.854,3.1,47.708,47.708,0,0,0-3.736,4.257,6.493,6.493,0,0,0-1.129,3.968A6.067,6.067,0,0,0,9.808,23,9.717,9.717,0,0,0,12.5,25.315c.637.318,1.274.55,1.13.84s-.753.087-1.419-.145a11.266,11.266,0,0,1-4.228-2.635,7.8,7.8,0,0,1-1.911-5.329A5.927,5.927,0,0,1,7.52,14.165a19.04,19.04,0,0,1,4.026-3.475A9.649,9.649,0,0,0,13.8,8.807a2.822,2.822,0,0,0,.724-2.027c-.029-.869.058-1.651.029-1.94s-.029-.869.232-.753" style="fill:#fff"/><path d="M14.862,26.788c.118,0,.043.506-.165.759s-.565.405-.609.3.258-.161.479-.407c.2-.226.149-.65.294-.656" style="fill:#fff"/><path d="M17.206,26.774c-.118,0-.043.505.165.759s.565.406.608.3-.258-.16-.479-.407c-.2-.226-.149-.65-.294-.655" style="fill:#fff"/><path d="M16.164,27.328c0,.446.023.807-.075.807-.12,0-.075-.361-.075-.807s-.041-.807.075-.807.075.361.075.807" style="fill:#fff"/></svg>