<svg xmlns="http://www.w3.org/2000/svg" xmlns:xlink="http://www.w3.org/1999/xlink" viewBox="0 0 32 32"><defs><linearGradient id="a" x1="17.249" y1="-335.597" x2="14.973" y2="-309.994" gradientTransform="matrix(1, 0, 0, -1, 0, -306)" gradientUnits="userSpaceOnUse"><stop offset="0" stop-color="#fff" stop-opacity="0"/><stop offset="0.01" stop-color="#f7f6f8" stop-opacity="0.04"/><stop offset="0.09" stop-color="#aa9cb3" stop-opacity="0.39"/><stop offset="0.2" stop-color="#6f567e" stop-opacity="0.66"/><stop offset="0.32" stop-color="#452459" stop-opacity="0.86"/><stop offset="0.5" stop-color="#2d0843" stop-opacity="0.97"/><stop offset="1" stop-color="#26003d"/></linearGradient></defs><title>file_type_elixir</title><path d="M17.8,8.591c2.079,4.584,7.64,6.5,7.141,12.474-.582,7.017-5.551,8.784-8.316,8.909a8.815,8.815,0,0,1-9.4-7.485C5.618,15.046,12.655,3.632,16.709,2A15.083,15.083,0,0,0,17.8,8.591Zm-.166,18.857a.423.423,0,0,0-.057-.327c-.593-1.1-5.81-1.645-6.907-1.752a8.272,8.272,0,0,0,1.635,1.3,7.766,7.766,0,0,0,2.814,1.041C15.922,27.831,17.467,27.933,17.635,27.447Z" style="fill:#7c648f"/><g style="opacity:0.25"><path d="M18.248,10.618c4.47,4.823,6.445,4.979,6.237,10.478-.249,6.476-4.543,8.191-7.058,8.42-4.2.551-7.495-1.528-8.358-5.686C7.312,17.063,12.978,6.023,16.637,4.36A15.323,15.323,0,0,0,18.258,10.6Z" style="fill:#26003d"/></g><g style="opacity:0.75"><path d="M17.385,9.921C20.369,14,24.319,13.7,25,19.641c.094,6.923-3.6,9.283-6.237,9.948-4.5,1.279-8.514-.645-10.094-5-3.035-7,2.651-18.514,6.31-20.915a15.083,15.083,0,0,0,2.37,6.237Z" style="fill:url(#a)"/></g></svg>