<svg xmlns="http://www.w3.org/2000/svg" xmlns:xlink="http://www.w3.org/1999/xlink" viewBox="0 0 32 32"><defs><linearGradient id="a" x1="23.325" y1="-118.543" x2="7.26" y2="-104.193" gradientTransform="matrix(1, 0, 0, -1, 0, -96)" gradientUnits="userSpaceOnUse"><stop offset="0" stop-color="#5391fe"/><stop offset="1" stop-color="#3e6dbf"/></linearGradient><linearGradient id="b" x1="7.1" y1="-104.002" x2="23.001" y2="-118.292" xlink:href="#a"/></defs><title>file_type_powershell</title><path d="M3.174,26.589a1.154,1.154,0,0,1-.928-.423,1.234,1.234,0,0,1-.21-1.052L6.233,6.78A1.8,1.8,0,0,1,7.914,5.41H28.826a1.157,1.157,0,0,1,.928.423,1.235,1.235,0,0,1,.21,1.052l-4.2,18.335a1.8,1.8,0,0,1-1.681,1.37H3.174Z" style="fill-rule:evenodd;fill:url(#a)"/><path d="M7.914,5.646H28.826a.913.913,0,0,1,.908,1.187l-4.2,18.334a1.575,1.575,0,0,1-1.451,1.187H3.174a.913.913,0,0,1-.908-1.187l4.2-18.334A1.574,1.574,0,0,1,7.914,5.646Z" style="fill-rule:evenodd;fill:url(#b)"/><path d="M16.04,21.544h5.086a1.118,1.118,0,0,1,0,2.234H16.04a1.118,1.118,0,0,1,0-2.234Z" style="fill:#2c5591;fill-rule:evenodd"/><path d="M19.339,16.578a1.762,1.762,0,0,1-.591.6L9.309,23.953a1.224,1.224,0,0,1-1.438-1.977l8.512-6.164v-.126L11.035,10a1.224,1.224,0,0,1,1.782-1.672l6.418,6.827A1.166,1.166,0,0,1,19.339,16.578Z" style="fill:#2c5591;fill-rule:evenodd"/><path d="M19.1,16.342a1.749,1.749,0,0,1-.59.6L9.074,23.718a1.225,1.225,0,0,1-1.439-1.977l8.513-6.164V15.45L10.8,9.761a1.224,1.224,0,0,1,1.783-1.672L19,14.916A1.162,1.162,0,0,1,19.1,16.342Z" style="fill:#fff;fill-rule:evenodd"/><path d="M15.9,21.412h5.086a1.059,1.059,0,1,1,0,2.118H15.9a1.059,1.059,0,1,1,0-2.118Z" style="fill:#fff;fill-rule:evenodd"/></svg>