<svg xmlns="http://www.w3.org/2000/svg" viewBox="0 0 32 32"><title>file_type_c_al</title><path d="M15.62,2.83h.023c.206.113.416.218.626.323.011,1.142,0,2.285.005,3.428q0,5.56,0,11.12c0,1.486,0,2.972,0,4.457,0,.711,0,1.422,0,2.133-.213.053-.427.1-.639.151-.01-2.028,0-4.056-.006-6.084a38.321,38.321,0,0,1-4.88,4,40.761,40.761,0,0,1-6.042,3.459A28.663,28.663,0,0,1,2,26.92v-.032a29.479,29.479,0,0,0,2.72-2.552,35.528,35.528,0,0,0,3.954-5.108,59.927,59.927,0,0,0,3.148-5.6,49.117,49.117,0,0,0,2.858-6.987A26.7,26.7,0,0,0,15.62,2.83Z" style="fill:#ffc525"/><path d="M16.274,17.7A31.642,31.642,0,0,0,23.046,7.435q.293.191.583.386a3.874,3.874,0,0,1,.008.4q0,4.584,0,9.168,0,4.361,0,8.723c-.193.063-.389.119-.585.172,0-2.8,0-5.6,0-8.4a19.537,19.537,0,0,1-2.588,2.048,27.688,27.688,0,0,1-4.188,2.23C16.274,20.672,16.271,19.186,16.274,17.7Z" style="fill:#5090cd"/><path d="M26.329,14.989a37.484,37.484,0,0,0,3.167-3.2c.165.088.338.16.5.248q0,8.465,0,16.93c-.172.055-.341.119-.514.173a44.222,44.222,0,0,0-4.8-1.345A42.238,42.238,0,0,0,8.552,27.4a34,34,0,0,0-6.381,1.7l.007-.032a33.507,33.507,0,0,1,12.571-3.389c.081-.008.163-.006.245-.012a35.1,35.1,0,0,1,3.7.018c.615.03,1.227.1,1.839.156a18.726,18.726,0,0,1,2.519.442c.2-.053.392-.109.585-.172q0-4.361,0-8.723C24.55,16.6,25.44,15.8,26.329,14.989Z" style="fill:#73c267"/><path d="M20.46,19.928a19.537,19.537,0,0,0,2.588-2.048c.006,2.8,0,5.6,0,8.4a18.726,18.726,0,0,0-2.519-.442.415.415,0,0,0-.193-.04c-.885-.1-1.776-.161-2.667-.187-.714-.006-1.429-.016-2.143.022a5.071,5.071,0,0,0-.535.032c-.082.006-.164,0-.245.012A33.507,33.507,0,0,0,2.178,29.068l-.007.032c-.064,0-.112.051-.171.07v0a9.855,9.855,0,0,1,.886-.612A26.865,26.865,0,0,1,8.9,25.837a33.472,33.472,0,0,1,5.632-1.257c.366-.054.736-.086,1.1-.138.212-.054.426-.1.639-.151,0-.711,0-1.422,0-2.133A27.688,27.688,0,0,0,20.46,19.928Z" style="fill:#00477f"/><path d="M10.747,22.358a38.321,38.321,0,0,0,4.88-4c.008,2.028,0,4.056.006,6.084-.365.052-.735.084-1.1.138A33.472,33.472,0,0,0,8.9,25.837a26.865,26.865,0,0,0-6.014,2.717A9.855,9.855,0,0,0,2,29.166V26.92a28.663,28.663,0,0,0,2.705-1.1A40.761,40.761,0,0,0,10.747,22.358Z" style="fill:#f47835"/></svg>