<svg xmlns="http://www.w3.org/2000/svg" xmlns:xlink="http://www.w3.org/1999/xlink" viewBox="0 0 32 32"><defs><radialGradient id="a" cx="12.278" cy="24.557" r="18.371" gradientTransform="matrix(1, 0, 0, -1, -0.001, 34.001)" gradientUnits="userSpaceOnUse"><stop offset="0" stop-color="#d3e9ff"/><stop offset="0.155" stop-color="#d3e9ff"/><stop offset="0.75" stop-color="#4074ae"/><stop offset="1" stop-color="#36486c"/></radialGradient><radialGradient id="b" cx="10.657" cy="26.746" r="26.66" gradientTransform="matrix(1, 0, 0, -1, -0.001, 34.001)" gradientUnits="userSpaceOnUse"><stop offset="0" stop-color="#fff"/><stop offset="1" stop-color="#fff" stop-opacity="0.165"/></radialGradient><radialGradient id="c" cx="-45.05" cy="9.285" r="4.115" gradientTransform="translate(-21.971 41.942) rotate(143.734)" gradientUnits="userSpaceOnUse"><stop offset="0" stop-color="#fff"/><stop offset="1" stop-color="#fff" stop-opacity="0"/></radialGradient><radialGradient id="d" cx="-41.456" cy="32.154" r="4.115" gradientTransform="translate(3.571 87.075) rotate(143.734) scale(1.297)" xlink:href="#c"/><radialGradient id="e" cx="-48.485" cy="13.239" r="4.115" gradientTransform="translate(-23.084 55.413) rotate(143.734)" xlink:href="#c"/><radialGradient id="f" cx="-40.883" cy="16.036" r="4.115" gradientTransform="matrix(-0.87, 0.639, -0.638, -0.87, -9.351, 47.706)" xlink:href="#c"/><linearGradient id="g" x1="-66.502" y1="2.219" x2="-64.626" y2="6.749" gradientTransform="matrix(0.939, -0.879, -0.683, -0.73, 84.81, -33.628)" xlink:href="#c"/><linearGradient id="h" x1="-26.791" y1="39.159" x2="-24.999" y2="44.683" gradientTransform="matrix(1.131, 0.613, 0.477, -0.879, 21.648, 69.071)" xlink:href="#c"/><linearGradient id="i" x1="-63.384" y1="8.177" x2="-63.57" y2="4.69" gradientTransform="matrix(0.918, -0.859, -0.668, -0.713, 77.857, -36.493)" xlink:href="#c"/><linearGradient id="j" x1="-99.259" y1="89.545" x2="-98.825" y2="93.023" gradientTransform="matrix(-1.28, -0.126, -0.098, 0.995, -101.637, -93.015)" xlink:href="#c"/><radialGradient id="k" cx="-20.712" cy="57.61" r="2.836" gradientTransform="matrix(0, -0.843, -0.721, 0, 26.625, -21.696)" gradientUnits="userSpaceOnUse"><stop offset="0" stop-color="#729fcf"/><stop offset="1" stop-color="#3b61a6"/></radialGradient><radialGradient id="l" cx="-20.712" cy="39.858" r="2.836" gradientTransform="translate(26.625 63.096) rotate(90) scale(0.843 0.721)" gradientUnits="userSpaceOnUse"><stop offset="0" stop-color="#729fcf"/><stop offset="1" stop-color="#509e2f"/></radialGradient></defs><title>file_type_http</title><path d="M28.026,14.2A11.877,11.877,0,1,1,16.149,2.325,11.878,11.878,0,0,1,28.026,14.2Z" style="fill:url(#a)"/><path d="M16.149,26.386A12.183,12.183,0,1,1,28.333,14.2,12.2,12.2,0,0,1,16.149,26.386Zm0-23.754A11.571,11.571,0,1,0,27.72,14.2,11.584,11.584,0,0,0,16.149,2.632Z" style="fill:#39396c"/><path d="M27.693,12.424h0l-.328.371a7,7,0,0,0-.656-.644l-.5.074-.46-.519v.643l.394.3.262.3.35-.4c.088.165.175.33.263.5v.495l-.394.445-.722.5-.546.545-.35-.4.175-.445-.35-.4-.591-1.262-.5-.569L23.6,12.1l.2.718.371.421a17.069,17.069,0,0,0,.7,1.783,9.979,9.979,0,0,0,1.268-.1v.347l-.525,1.287-.481.544-.394.843V19.33l.132.545-.219.247-.482.3-.5.421.416.47-.569.5.109.321-.853.966H22.2l-.481.3h-.307v-.4l-.13-.793c-.169-.5-.346-.991-.525-1.484,0-.364.022-.725.044-1.089l.219-.495-.307-.595.022-.817-.416-.47.208-.68-.338-.384H19.6l-.2-.223-.591.372-.24-.273-.547.47L16.911,15.27l-.437-1.04.394-.593-.219-.247.481-1.139c.395-.491.807-.963,1.225-1.436l.744-.2.831-.1.569.149.809.816.284-.321.393-.049.744.247H23.3l.394-.347.175-.247-.394-.247-.656-.049a6.6,6.6,0,0,0-.568-.743l-.219.1-.088.644-.394-.445-.087-.5-.437-.346h-.176l.438.495-.175.445-.35.1.219-.445-.394-.2-.349-.4-.657.148-.087.2-.394.248-.219.545-.546.272-.241-.272H17.83V9.428l.569-.3h.437l-.088-.346L18.4,8.438l.59-.124.328-.371.262-.446h.482l-.132-.346.307-.2v.4l.656.148.656-.544.044-.248.568-.4a4.353,4.353,0,0,0-.612.1V5.963l.219-.5h-.219l-.48.445-.132.248.132.347-.219.593-.35-.2-.306-.346-.482.346-.175-.792.831-.544v-.3l.525-.346.831-.2.569.2,1.049.2-.262.3H22.51l.569.594.437-.495.133-.218a15.53,15.53,0,0,1,2.635,3.147A11.452,11.452,0,0,1,27.693,12.424Z" style="fill:#204a87;fill-opacity:0.7134503126144409"/><path d="M16.861,5.517l-.044.3.307.2.524-.346-.262-.3-.35.2-.174-.05" style="fill:#204a87;fill-opacity:0.7134503126144409"/><path d="M17.343,3.488l-1.138-.446-1.312.148-1.619.445-.306.3,1.006.693v.4l-.394.4.525,1.04.349-.2.438-.693a15.053,15.053,0,0,0,1.924-.743l.525-1.337" style="fill:#204a87;fill-opacity:0.7134503126144409"/><path d="M18.524,7.647,18.349,7.2l-.307.1.088.544.394-.2" style="fill:#204a87;fill-opacity:0.7134503126144409"/><path d="M18.7,7.547l-.088.595.481-.1.35-.346-.306-.3c-.1-.274-.221-.529-.35-.792h-.262v.3l.174.2v.445" style="fill:#204a87;fill-opacity:0.7134503126144409"/><path d="M12.225,16.953l-.35-.693-.656-.148-.35-.94-.875.1-.743-.544-.788.693v.109a3,3,0,0,1-.743-.209l-.175-.495V14.28l-.525.049q.066-.52.131-1.039H6.845l-.306.4-.306.148L5.8,13.587l-.044-.545.088-.594.656-.495H7.02l.087-.3.656.148.481.595.088-.991.831-.693.306-.743.612-.247.35-.495.787-.149.394-.593H10.432l.744-.347H11.7l.744-.248.088-.3-.263-.248-.306-.1.088-.3-.219-.445-.525.2.088-.4-.612-.347L10.3,6.8l.044.3-.481.2-.306.643-.131-.594L8.594,7l-.131-.445,1.094-.644.481-.445.044-.544-.262-.149-.35-.05-.219.545s-.366.072-.46.095A12.5,12.5,0,0,0,4.6,13.371a6.789,6.789,0,0,0,.409.711l.918.544.918.248.394.5.612.445.35-.049.262.118v.08l-.35.94-.263.4.088.2-.219.742.787,1.436.787.693.35.495L9.6,21.9l.263.593L9.6,23.637s-.021-.007.013.107a5.278,5.278,0,0,0,1.488.809l.161-.123-.087-.247.35-.347.131-.347.569-.2.437-1.089-.131-.3.306-.445.656-.149.35-.792-.088-.99.525-.743.088-.743c-.718-.356-1.43-.723-2.143-1.089" style="fill:#204a87;fill-opacity:0.7134503126144409"/><path d="M11.263,5.715l.437.3h.35V5.666l-.437-.2-.35.247" style="fill:#204a87;fill-opacity:0.7134503126144409"/><path d="M10.126,5.319l-.219.544h.438l.219-.5c.189-.133.376-.268.568-.4l.438.149.875.594.438-.4-.482-.2-.219-.446-.831-.1-.044-.248-.394.1-.175.346-.219-.446-.087.2.044.5-.35.3" style="fill:#204a87;fill-opacity:0.7134503126144409"/><path d="M11.7,4.081l.219-.2.438-.1a6.9,6.9,0,0,1,.918-.347l-.174-.3-.565.081-.267.266-.44.064-.391.184-.19.092-.116.155.568.1" style="fill:#204a87;fill-opacity:0.7134503126144409"/><path d="M12.444,8.785l.263-.4-.394-.3.131.693" style="fill:#204a87;fill-opacity:0.7134503126144409"/><path d="M16.149,25.783A11.58,11.58,0,1,1,27.729,14.2,11.593,11.593,0,0,1,16.149,25.783Zm0-22.548A10.968,10.968,0,1,0,27.117,14.2,10.98,10.98,0,0,0,16.149,3.235Z" style="opacity:0.3956044018268585;isolation:isolate;fill:url(#b)"/><path d="M5.541,10.241a4.115,4.115,0,1,0,6.636-4.866h0A4.115,4.115,0,0,0,5.54,10.24Z" style="fill:url(#c)"/><path d="M7.836,8.558a1.268,1.268,0,1,0,2.046-1.5h0a1.268,1.268,0,0,0-2.046,1.5Z" style="fill:#fff"/><path d="M17.952,24.8a5.337,5.337,0,1,0,8.607-6.312v0A5.337,5.337,0,0,0,17.95,24.8Z" style="fill:url(#d)"/><path d="M20.928,22.616a1.645,1.645,0,1,0,2.653-1.946h0a1.645,1.645,0,0,0-2.653,1.946Z" style="fill:#fff"/><path d="M4.859,18.493A4.115,4.115,0,1,0,11.5,13.626h0a4.115,4.115,0,0,0-6.636,4.866Z" style="fill:url(#e)"/><path d="M7.154,16.809a1.268,1.268,0,1,0,2.046-1.5h0a1.268,1.268,0,0,0-2.046,1.5Z" style="fill:#fff"/><path d="M12.408,10.269A4.441,4.441,0,1,0,19.57,5.016h0a4.441,4.441,0,1,0-7.162,5.253Z" style="fill:url(#f)"/><path d="M14.885,8.452a1.369,1.369,0,1,0,2.208-1.619h0a1.369,1.369,0,1,0-2.208,1.619Z" style="fill:#fff"/><path d="M12.68,26.238a3.83,3.83,0,0,1-2.909-1.087c-1.133-1.21-1.2-3.255-.2-5.757a21.542,21.542,0,0,1,5.307-7.326C20.064,7.215,25.945,5.356,28.27,7.839c1.133,1.211,1.2,3.255.2,5.757a21.553,21.553,0,0,1-5.308,7.326A21.551,21.551,0,0,1,15.5,25.733,9.229,9.229,0,0,1,12.68,26.238ZM25.342,7.28c-2.7,0-6.6,1.908-10.1,5.183A21,21,0,0,0,10.071,19.6c-.921,2.3-.887,4.138.094,5.187s2.817,1.2,5.169.437a21,21,0,0,0,7.46-4.692,21,21,0,0,0,5.175-7.132c.921-2.3.888-4.138-.095-5.187A3.34,3.34,0,0,0,25.342,7.28Z" style="fill:url(#g)"/><path d="M21.681,22.094a20.633,20.633,0,0,1-9.339-2.759C6.1,15.95,2.473,10.957,4.094,7.968c.79-1.458,2.7-2.175,5.4-2.012A21.542,21.542,0,0,1,18.12,8.674a21.545,21.545,0,0,1,6.987,5.746c1.6,2.167,2.051,4.163,1.261,5.621C25.622,21.416,23.915,22.094,21.681,22.094ZM8.759,6.474c-2.1,0-3.572.612-4.19,1.751C3.117,10.9,6.72,15.674,12.6,18.86s11.843,3.6,13.294.924c.685-1.263.251-3.054-1.22-5.042a21,21,0,0,0-6.81-5.593A21,21,0,0,0,9.459,6.5Q9.1,6.474,8.759,6.474Z" style="fill:url(#h)"/><path d="M10,24.078a3.757,3.757,0,0,1-2.851-1.065c-1.11-1.187-1.181-3.189-.2-5.639a21.062,21.062,0,0,1,5.189-7.163c5.073-4.747,10.83-6.563,13.1-4.132h0c2.275,2.431.083,8.053-4.99,12.8a21.059,21.059,0,0,1-7.491,4.7A9.024,9.024,0,0,1,10,24.078ZM22.373,5.553c-2.63,0-6.439,1.864-9.856,5.062A20.5,20.5,0,0,0,7.463,17.58c-.9,2.239-.866,4.034.09,5.055s2.745,1.172,5.038.424a20.513,20.513,0,0,0,7.284-4.582c4.766-4.46,6.994-9.853,4.965-12.02h0A3.256,3.256,0,0,0,22.373,5.553Z" style="fill:url(#i)"/><path d="M17.512,19.413c-.86,0-1.748-.043-2.659-.133C7.784,18.584,2.507,15.388,2.84,12h0c.333-3.383,6.133-5.49,13.2-4.791s12.345,3.892,12.012,7.275C27.763,17.436,23.324,19.413,17.512,19.413ZM3.378,12.057c-.3,3.031,4.873,6.03,11.528,6.686s12.312-1.277,12.611-4.308S22.644,8.406,15.988,7.75,3.677,9.027,3.378,12.057Z" style="fill:url(#j)"/><path d="M6.251,29.966h6.674V20.809h2.981L9.548,11.434,3.295,20.782l2.958.031Z" style="fill:url(#k)"/><path d="M12.924,30.045H6.251a.049.049,0,0,1-.039-.023c-.01-.015-.016-3.135-.016-3.156l0-5.975-2.9-.03a.06.06,0,0,1-.051-.048.1.1,0,0,1,.011-.085L9.508,11.38a.056.056,0,0,1,.041-.025.05.05,0,0,1,.04.024l6.357,9.375a.1.1,0,0,1,.011.086.059.059,0,0,1-.051.048H12.98v9.078C12.98,30.01,12.955,30.045,12.924,30.045Zm-6.618-.158h6.562V20.809c0-.044.025-.079.056-.079h2.85L9.549,11.549,3.424,20.7l2.83.03c.031,0,.055.036.055.079Z" style="fill:#183868"/><path d="M19.053,20.587l-2.958.031,6.254,9.348,6.357-9.375H25.724V11.434H19.051Z" style="fill:url(#l)"/><path d="M25.78,11.434v9.078h2.925a.059.059,0,0,1,.051.048.1.1,0,0,1-.011.086l-6.357,9.375a.05.05,0,0,1-.04.024.056.056,0,0,1-.041-.025l-6.254-9.348a.1.1,0,0,1-.011-.085.06.06,0,0,1,.051-.048l2.9-.03,0-5.975c0-.021.006-3.141.016-3.156a.049.049,0,0,1,.039-.023h6.674C25.755,11.355,25.78,11.39,25.78,11.434Zm-6.672,9.153c0,.043-.025.079-.055.079l-2.83.03,6.125,9.156,6.226-9.181h-2.85c-.031,0-.056-.035-.056-.079V11.513H19.107Z" style="fill:#183868"/></svg>