<svg xmlns="http://www.w3.org/2000/svg" viewBox="0 0 32 32"><title>file_type_objectivecpp</title><path d="M19.5,24.833a11.242,11.242,0,0,1-5.13,1.009,8.373,8.373,0,0,1-6.492-2.576A9.746,9.746,0,0,1,5.512,16.4,10.4,10.4,0,0,1,8.171,8.994a9.019,9.019,0,0,1,6.9-2.841,12.24,12.24,0,0,1,4.43.7v4.129a7.507,7.507,0,0,0-4.108-1.142,5.283,5.283,0,0,0-4.075,1.685A6.478,6.478,0,0,0,9.766,16.1a6.369,6.369,0,0,0,1.464,4.4,5.017,5.017,0,0,0,3.941,1.639A8.034,8.034,0,0,0,19.5,20.916Z" style="fill:#c2c2c2"/><polygon points="16.572 15.081 16.572 13.24 18.413 13.24 18.413 15.081 20.253 15.081 20.253 16.921 18.413 16.921 18.413 18.762 16.572 18.762 16.572 16.921 14.733 16.921 14.733 15.08 16.572 15.081" style="fill:#c2c2c2"/><polygon points="23.012 15.081 23.012 13.24 24.853 13.24 24.853 15.081 26.693 15.081 26.693 16.921 24.853 16.921 24.853 18.762 23.012 18.762 23.012 16.921 21.173 16.921 21.173 15.08 23.012 15.081" style="fill:#c2c2c2"/><polygon points="2.035 30 2.035 2.001 7.968 2.001 7.968 4.228 4.725 4.228 4.725 27.773 7.968 27.773 7.968 30 2.035 30" style="fill:#c2c2c2"/><polygon points="29.965 29.999 24.032 29.999 24.032 27.771 27.275 27.771 27.275 4.227 24.032 4.227 24.032 2 29.965 2 29.965 29.999" style="fill:#c2c2c2"/></svg>