<svg xmlns="http://www.w3.org/2000/svg" xmlns:xlink="http://www.w3.org/1999/xlink" viewBox="0 0 32 32"><defs><linearGradient id="a" x1="-679.793" y1="-637.805" x2="-668.005" y2="-649.595" gradientTransform="matrix(0.999, 0, 0, -0.999, 688.969, -626.71)" gradientUnits="userSpaceOnUse"><stop offset="0"/><stop offset="1" stop-color="#fff"/></linearGradient><linearGradient id="b" x1="-667.471" y1="-649.062" x2="-679.26" y2="-637.272" xlink:href="#a"/></defs><title>file_type_json2</title><path d="M3.015,14.891a2.72,2.72,0,0,0,1.7-.561,2.575,2.575,0,0,0,.873-1.468,16.533,16.533,0,0,0,.23-3.193Q5.828,7.41,5.9,6.693a5.672,5.672,0,0,1,.453-1.826,3.277,3.277,0,0,1,.818-1.1,3.3,3.3,0,0,1,1.245-.629A7.325,7.325,0,0,1,10.09,3h.758V5.124h-.419a2.532,2.532,0,0,0-1.867.507A3.689,3.689,0,0,0,8.1,7.9a39.059,39.059,0,0,1-.149,4.478,5.129,5.129,0,0,1-.832,2.232A4.948,4.948,0,0,1,5.274,16a4.126,4.126,0,0,1,2.158,1.9,9.6,9.6,0,0,1,.67,4.187q0,2.638.054,3.138A1.9,1.9,0,0,0,8.7,26.511a2.859,2.859,0,0,0,1.725.365h.419V29H10.09a6.126,6.126,0,0,1-1.921-.216,3.217,3.217,0,0,1-1.434-1.008A3.632,3.632,0,0,1,6,26.01a26.19,26.19,0,0,1-.183-3.5,17.842,17.842,0,0,0-.23-3.368,2.608,2.608,0,0,0-.873-1.475,2.7,2.7,0,0,0-1.7-.568Z" style="fill:#f5de19"/><path d="M28.985,17.1a2.7,2.7,0,0,0-1.7.568,2.608,2.608,0,0,0-.873,1.475,17.842,17.842,0,0,0-.23,3.368A26.19,26.19,0,0,1,26,26.01a3.632,3.632,0,0,1-.737,1.765,3.217,3.217,0,0,1-1.434,1.008A6.126,6.126,0,0,1,21.91,29h-.758V26.876h.419a2.859,2.859,0,0,0,1.725-.365,1.9,1.9,0,0,0,.548-1.285q.054-.5.054-3.138a9.6,9.6,0,0,1,.67-4.187A4.126,4.126,0,0,1,26.726,16a4.948,4.948,0,0,1-1.847-1.393,5.129,5.129,0,0,1-.832-2.232A39.059,39.059,0,0,1,23.9,7.9a3.689,3.689,0,0,0-.46-2.266,2.532,2.532,0,0,0-1.867-.507h-.419V3h.758a7.325,7.325,0,0,1,1.677.135,3.3,3.3,0,0,1,1.245.629,3.277,3.277,0,0,1,.818,1.1A5.672,5.672,0,0,1,26.1,6.693q.068.717.081,2.976a16.533,16.533,0,0,0,.23,3.193,2.575,2.575,0,0,0,.873,1.468,2.72,2.72,0,0,0,1.7.561Z" style="fill:#f5de19"/><path d="M15.986,20.085c3.7,5.041,7.317-1.407,7.311-5.285-.006-4.585-4.653-7.147-7.314-7.147a8.352,8.352,0,0,0,0,16.7c-.832-.12-3.6-.714-3.642-7.1-.025-4.319,1.409-6.045,3.636-5.286a4.242,4.242,0,0,1,2.456,4.069A4.257,4.257,0,0,1,15.986,20.085Z" style="fill:url(#a)"/><path d="M15.982,11.968c-2.443-.842-5.437,1.172-5.437,5.205,0,6.586,4.881,7.184,5.472,7.184a8.352,8.352,0,0,0,0-16.7c1.018-.141,5.489,1.1,5.489,7.212,0,3.984-3.338,6.153-5.509,5.227a4.242,4.242,0,0,1-2.456-4.069A4.28,4.28,0,0,1,15.982,11.968Z" style="fill:url(#b)"/></svg>