<svg xmlns="http://www.w3.org/2000/svg" viewBox="0 0 32 32"><title>file_type_idrisb</title><path d="M10.376,6.2c3.6,1.1,4.5,2,5.8,5.2C15.876,7.4,14.276,5.8,10.376,6.2Z" style="fill:#8a0819"/><path d="M5.376,12.4c2.3.7,5,1.3,6,5.7C11.776,12.6,9.176,12.3,5.376,12.4Z" style="fill:#8a0819"/><path d="M6.976,8.8c3.5.7,5.7,1.7,7,6.2C14.276,9.2,11.076,8.6,6.976,8.8Z" style="fill:#8a0819"/><path d="M11.576,2c19.1,12.4-4.2,12.7.8,27.1l3,.9C7.076,18.8,33.776,13,11.576,2Z" style="fill:#8a0819"/><path d="M20.677,29.839a1.075,1.075,0,0,1-.07-.287c0-.116-.3-.253-.441-.2a.5.5,0,0,0-.172.249c-.063.166-.117.209-.243.191s-.168-.075-.2-.337-.066-.325-.22-.379-.212-.034-.386.16-.215.215-.335.127-.123-.127-.052-.331.062-.253-.035-.362c-.153-.169-.314-.163-.547.021-.175.137-.2.14-.3.038s-.1-.133.021-.36c.133-.247.133-.248-.022-.4s-.175-.148-.41-.063-.269.077-.366-.019-.1-.125.043-.275A.413.413,0,0,0,17,27.038c-.077-.106-.132-.115-.345-.056-.176.049-.276.046-.329-.007-.124-.124-.092-.213.151-.414.222-.184.226-.195.12-.386a.315.315,0,0,0-.316-.2c-.439,0-.518-.253-.137-.435.188-.09.246-.16.246-.3a.313.313,0,0,0-.358-.352.218.218,0,0,1-.23-.316.2.2,0,0,1,.178-.105c.253,0,.409-.134.409-.352,0-.171-.044-.225-.251-.312s-.246-.138-.228-.264.072-.163.324-.181.317-.056.384-.2c.075-.164.061-.2-.151-.375-.178-.148-.222-.229-.186-.341.053-.168.063-.17.371-.082.175.05.252.041.333-.04a.384.384,0,0,0-.035-.551c-.158-.143-.164-.169-.075-.311.055-.086.105-.087.353-.005.271.089.3.086.443-.057s.152-.154.019-.4c-.125-.231-.126-.256-.017-.365s.131-.106.326.038c.258.191.368.194.531.014a.229.229,0,0,0,.046-.319c-.111-.244-.1-.3.058-.382.117-.062.171-.039.334.143s.216.209.383.146.192-.12.21-.373.049-.305.176-.323.184.037.267.2c.1.184.148.216.332.2s.229-.06.3-.3c.056-.2.12-.287.226-.3s.16.029.211.246c.057.242.086.269.317.288s.26,0,.338-.232c.066-.2.116-.249.235-.232s.156.077.173.267c.039.445.454.576.67.21s.429-.247.431.243c0,.24.028.288.194.347s.221.041.39-.121.216-.176.319-.1.113.111.018.337c-.107.257-.093.314.117.479.108.085.157.08.368-.033.226-.121.252-.123.359-.016s.1.129-.035.306c-.187.237-.188.326-.007.49.126.114.173.119.386.042.411-.149.525.082.205.416-.159.166-.169.207-.094.372s.128.186.392.186c.381,0,.484.165.226.362-.33.252-.336.26-.282.46.043.162.1.2.328.23s.276.059.276.208-.05.187-.227.238c-.41.118-.394.57.024.648.215.04.243.069.224.23s-.062.19-.3.219-.285.068-.328.229c-.056.212.042.36.292.439a.16.16,0,0,1,.122.2c-.017.12-.073.154-.267.163l-.335.018c-.049,0-.121.09-.16.193-.06.158-.044.214.107.372.2.2.217.287.1.4-.054.054-.146.054-.315,0-.2-.061-.262-.052-.38.054-.177.16-.176.21.008.469.138.194.141.218.035.324s-.13.105-.318-.006c-.268-.158-.4-.152-.523.027-.09.129-.09.177,0,.393s.092.254-.024.339-.152.069-.32-.091-.222-.174-.386-.116-.193.1-.193.367c0,.189-.039.323-.105.365-.159.1-.192.086-.327-.142a.341.341,0,0,0-.311-.21c-.234,0-.327.109-.356.421-.018.186-.059.25-.169.266s-.171-.042-.258-.263c-.164-.417-.5-.377-.644.078-.1.3-.3.346-.391.1h0Zm-.2-1.485c.109-.1.128-.229.128-.865V26.74l-.353-.165a1.826,1.826,0,0,1-.43-.258.348.348,0,0,0-.238-.092,3.211,3.211,0,0,0-1.295.792c-.1.169-.091.2.043.38a3.976,3.976,0,0,0,1.881,1.07A.451.451,0,0,0,20.478,28.354Zm2.41-.193a2.625,2.625,0,0,0,1.125-.889c.071-.222-.126-.444-.671-.758-.521-.3-.769-.354-.9-.2a1.826,1.826,0,0,1-.43.258l-.353.165v.737C21.66,28.584,21.834,28.681,22.889,28.16Zm-1.327-2.109a1.531,1.531,0,0,0,.9-.788,1.741,1.741,0,0,0,.019-1.163,1.688,1.688,0,0,0-1.345-.892,1.47,1.47,0,0,0,0,2.938A2.216,2.216,0,0,0,21.561,26.051Zm-3.05-.44.537-.309-.011-.636-.011-.636-.62-.353c-.529-.3-.648-.343-.807-.287-.29.1-.38.472-.347,1.442.028.851.079,1,.369,1.11C17.8,26.009,17.854,25.989,18.511,25.611Zm6.2.322c.241-.11.32-.429.315-1.287,0-.84-.1-1.164-.359-1.256-.162-.057-.276-.015-.807.292l-.619.358-.005.6a3.147,3.147,0,0,0,.035.658,9.687,9.687,0,0,0,1.248.716,1.943,1.943,0,0,0,.193-.081h0Zm-4.878-2.9a2.809,2.809,0,0,1,.427-.269l.312-.165.02-.741c.023-.873-.043-1.005-.475-.948a3.492,3.492,0,0,0-1.837,1.134c-.115.252.023.422.627.774C19.488,23.158,19.653,23.2,19.833,23.034Zm3.529-.212c.6-.352.741-.524.626-.776a3.492,3.492,0,0,0-1.837-1.134c-.433-.058-.5.074-.475.953l.02.747.281.132a2.857,2.857,0,0,1,.448.264C22.663,23.194,22.757,23.175,23.362,22.822Z" style="fill:#8a0819"/></svg>