<svg xmlns="http://www.w3.org/2000/svg" viewBox="0 0 32 32"><title>file_type_drone</title><path d="M19.581,17.9A3.581,3.581,0,1,1,16,14.323,3.581,3.581,0,0,1,19.581,17.9Z" style="fill:#c2c2c2"/><path d="M16,4.165c6.252.049,13.36,4.456,14,12.763H21.535S20.444,12.339,16,12.37s-5.535,4.558-5.535,4.558H2C2.411,8.769,9.4,4.114,16,4.165Z" style="fill:#c2c2c2"/><path d="M16.058,27.835c-4.662.012-9.017-3.505-10.8-8.953h5.209s1.124,4.537,5.568,4.506,5.5-4.506,5.5-4.506h5.209A10.959,10.959,0,0,1,16.058,27.835Z" style="fill:#c2c2c2"/></svg>