<svg xmlns="http://www.w3.org/2000/svg" viewBox="0 0 32 32"><title>file_type_cfm2</title><path d="M24.037,2.072h0l5.564,5.8V29.928H8.814V30H29.67V7.945L24.037,2.072" style="fill:#909090"/><path d="M23.965,2H8.742V29.928H29.6V7.873L23.965,2" style="fill:#e5f3fc"/><path d="M23.893,2.072V7.945h5.633L23.893,2.072" style="fill:#4c4442"/><path d="M23.965,2V7.873H29.6L23.965,2Z" style="fill:#27434f"/><path d="M2.384,10.264H8.742V3.432H2.384Z" style="fill:#909090"/><path d="M8.742,10.264H22.461V3.432H8.742v6.832Z" style="fill:#4c4442"/><path d="M22.407,10.211H2.33V3.378H22.407v6.832" style="fill:#27434f"/><path d="M13.25,15.507a3.6,3.6,0,0,1,1.56.181c.05.029.063.058.063.146V17.1c0,.116-.05.116-.088.087a3.282,3.282,0,0,0-1.485-.252c-1.614,0-2.715,1.252-2.715,3.363,0,2.679,1.551,3.334,2.677,3.334a3.229,3.229,0,0,0,1.514-.225c.063-.029.088-.015.088.073v1.237a.175.175,0,0,1-.075.175,3.818,3.818,0,0,1-1.777.212c-2,.015-3.916-1.3-3.916-4.762,0-2.751,1.626-4.835,4.154-4.835" style="fill:#28434f"/><path d="M19.268,15.221c-1.5,0-2.379,1.032-2.379,2.838v.224h-.826a.074.074,0,0,0-.084.084v1.022a.1.1,0,0,0,.084.112l.826.014V25.06c0,.084.028.112.1.112H18.4c.084,0,.112-.042.112-.112V19.528L19.7,19.5c.07,0,.084-.028.084-.1V18.366c0-.056-.014-.084-.084-.084h-1.19V17.96c0-1.176.476-1.368,1.022-1.368a1.426,1.426,0,0,1,.247.022V15.268a2.735,2.735,0,0,0-.513-.048" style="fill:#28434f"/><path d="M23.582,18.221a11.581,11.581,0,0,0-2.741.485c-.067,0-.079.04-.079.111.024.278,0,.682,0,1.159h.008v5.059c0,.1.02.127.079.127h1.21c.067,0,.091-.028.091-.111V19.805a2.048,2.048,0,0,1,1.075-.286c.69,0,1.067.623,1.067,1.532v3.984a.143.143,0,0,0,.029.1.059.059,0,0,0,.051.028h0l.012,0H25.6c.067,0,.091-.028.091-.111V19.805a2.048,2.048,0,0,1,1.075-.286c.69,0,1.067.623,1.067,1.532v3.984c0,.083.036.127.1.127h1.2c.056,0,.091-.04.091-.111V21.067c0-2.266-1.008-2.766-1.893-2.837a8.938,8.938,0,0,0-2.517.355A1.931,1.931,0,0,0,23.8,18.23c-.069-.005-.141-.008-.216-.009Z" style="fill:#28434f"/><path d="M9.162,4.437a1.824,1.824,0,0,1,.79.092c.025.015.032.029.032.074v.641c0,.059-.025.059-.044.044a1.662,1.662,0,0,0-.752-.127c-.817,0-1.375.634-1.375,1.7,0,1.356.785,1.688,1.356,1.688a1.635,1.635,0,0,0,.767-.114c.032-.015.044-.007.044.037V9.1a.088.088,0,0,1-.038.088,1.933,1.933,0,0,1-.9.107C8.028,9.3,7.059,8.639,7.059,6.885a2.2,2.2,0,0,1,2.1-2.448" style="fill:#e5f3fc"/><path d="M11.515,9.237c0,.045-.013.06-.051.06h-.686c-.026,0-.038-.022-.038-.06V4.489c0-.045.006-.052.045-.052h2.468c.038,0,.051.007.058.052l.058.6c.006.045-.006.067-.045.067H11.515V6.576h1.622c.038,0,.051.015.051.052v.619a.046.046,0,0,1-.051.052H11.515V9.237" style="fill:#e5f3fc"/><path d="M14.315,4.432h1.033c.036,0,.051.008.058.044.182.676.706,2.873.829,3.615h.007c.138-.677.749-2.9.938-3.613.007-.036.022-.046.058-.046h1c.036,0,.044.007.051.036l.175,4.765c.007.044-.015.058-.051.058H17.7c-.044,0-.051-.02-.051-.056-.029-1.557-.029-3.757-.029-4.142h-.007c-.124.618-.763,3.1-1.04,4.142-.007.044-.029.056-.058.056h-.64a.057.057,0,0,1-.065-.049c-.269-1.083-.764-3.328-.931-4.149h-.015c0,.575-.058,2.564-.116,4.142,0,.044-.022.056-.051.056h-.64c-.044,0-.058-.014-.058-.051l.262-4.765c.007-.036.014-.044.051-.044" style="fill:#e5f3fc"/></svg>