<svg xmlns="http://www.w3.org/2000/svg" viewBox="0 0 32 32"><title>file_type_ansible</title><path d="M16,29.951a13.952,13.952,0,1,1,.193-27.9A13.951,13.951,0,0,1,16,29.951Zm-2.221-13.13c.1.1.1.1.193.1C16,18.559,18.027,20.1,19.958,21.745a10.928,10.928,0,0,0,1.255.965.99.99,0,0,0,1.545-.676,1.643,1.643,0,0,0-.1-.676L18.9,12.38c-.579-1.352-1.159-2.8-1.738-4.151a.87.87,0,0,0-.579-.579c-.579-.193-.965.1-1.255.676-2.027,4.731-3.958,9.558-5.986,14.289,0,.1-.1.193-.1.29h1.931c.193,0,.193-.1.29-.193.386-.869.676-1.834,1.062-2.7A31.234,31.234,0,0,1,13.779,16.821Z"/><path d="M13.779,16.821c-.386,1.062-.869,2.124-1.255,3.186-.386.869-.772,1.834-1.062,2.7a.355.355,0,0,1-.29.1H9.242c0-.1.1-.193.1-.29,2.027-4.731,3.958-9.558,5.986-14.289.29-.579.676-.869,1.255-.676a.87.87,0,0,1,.579.579c.579,1.352,1.159,2.8,1.738,4.151l3.765,8.979a2.978,2.978,0,0,1,.1.869.99.99,0,0,1-1.545.676,14.191,14.191,0,0,1-1.255-.965c-2.027-1.641-4.055-3.186-5.986-4.827C13.876,16.821,13.876,16.821,13.779,16.821Zm2.51-6.275c-.579,1.545-1.159,2.993-1.834,4.441-.1.1,0,.193.1.29C16,16.435,17.448,17.5,18.9,18.656c.29.193.579.483.869.676h0C18.607,16.435,17.448,13.539,16.29,10.546Z" style="fill:#fff"/><path d="M16.29,10.546c1.159,2.993,2.414,5.889,3.572,8.786h0c-.29-.193-.579-.483-.869-.676-1.448-1.159-2.9-2.221-4.344-3.379-.1-.1-.193-.1-.1-.29C15.035,13.539,15.614,12.091,16.29,10.546Z"/></svg>