<svg xmlns="http://www.w3.org/2000/svg" viewBox="0 0 32 32"><title>file_type_cake</title><path d="M3.654,13.112l10.227-8,.173-.026a12.111,12.111,0,0,1,1.794-.122,19.253,19.253,0,0,1,6.411,1.154,10.827,10.827,0,0,1,5.434,3.926l.109.166v5.31a2.067,2.067,0,0,1-.177.945,1.181,1.181,0,0,1-.43.484v7.638L3.654,28.179Z" style="fill:#4a1700"/><path d="M3.639,28.2V13.105l.006,0,10.23-8,.176-.027a12.128,12.128,0,0,1,1.8-.123,19.268,19.268,0,0,1,6.416,1.155A10.841,10.841,0,0,1,27.7,10.041l.112.17v5.314a2.081,2.081,0,0,1-.179.952,1.191,1.191,0,0,1-.428.485V24.6l-.012,0Zm.029-15.077V28.162L27.18,24.58V16.946l.007,0a1.162,1.162,0,0,0,.425-.478,2.054,2.054,0,0,0,.176-.939V10.219l-.107-.163a10.812,10.812,0,0,0-5.427-3.92,19.238,19.238,0,0,0-6.406-1.153,12.1,12.1,0,0,0-1.791.122l-.169.026Z"/><polygon points="4.305 17.436 26.428 14.065 26.428 23.984 4.305 27.354 4.305 17.436" style="fill:#995700"/><path d="M26.37,14.116v9.831L4.333,27.3V17.473L26.37,14.116m.087-.1L4.247,17.4V27.4l22.21-3.384V14.015Z" style="fill:#995700"/><polygon points="16.422 15.245 16.422 25.512 21.165 24.793 21.165 14.533 16.422 15.245" style="fill:#4a1700"/><path d="M16.45,25.512l5.581,3.322A12.3,12.3,0,0,0,26.059,30,1.7,1.7,0,0,0,27.88,28.35l-6.226-3.632Z" style="fill:#4a1700"/><path d="M26.059,30a4.746,4.746,0,0,1-1.693-.328,2.406,2.406,0,0,1-1.329-1.082c-2.912-5.894-7.806-15.8-7.857-15.931a6.928,6.928,0,0,0-.466-.9c-.278-.142-.994-.511-1.718-.907-1.982-1.085-2.1-1.31-2.181-1.475L10.2,8.168V6.952l.575-.08.061-.008L10.481,4.83,10.47,3.316h0a.5.5,0,0,1,.419-.575c.138-.019.877-.106.909-.11l.333-.039,1.883,3.825,1.51-.213L14.492,3.595l-.015-1.377,1.636-.211a.722.722,0,0,1,.1-.007.787.787,0,0,1,.549.235L21,5.576l.02.02a2.961,2.961,0,0,1,.5.786l.69,1.448V8.925l-.129.137c-.052.055-1.154,1.221-1.981,1.972,1.617,3.151,8.025,15.622,8.092,15.753l0,.007a1.581,1.581,0,0,1,.144.444l.025.039-.006,1.11-.005.035a1.663,1.663,0,0,1-.556,1,2.4,2.4,0,0,1-1.253.547A3.2,3.2,0,0,1,26.059,30Z" style="fill:#4a1700"/><path d="M21.729,7.879v.858a26.384,26.384,0,0,1-2.605,2.473c-.638.386-.281-.772-.281-.772Z" style="fill:#534741"/><path d="M18.907,11.3a.149.149,0,0,1-.095-.03c-.193-.15.008-.81.017-.838v0l0,0,2.886-2.559.024.011v.863l0,0a26.483,26.483,0,0,1-2.608,2.475A.461.461,0,0,1,18.907,11.3Zm-.051-.856c-.016.055-.2.67-.026.8.058.045.154.028.286-.052a26.133,26.133,0,0,0,2.6-2.466v-.82Z" style="fill:#4a1700"/><path d="M27.88,28.35A1.5,1.5,0,0,1,26.469,29.5c-.943.145-2.585-.26-3.006-1.116,0,0-7.79-15.766-7.841-15.9a8.008,8.008,0,0,0-.572-1.089s-3.607-1.821-3.808-2.23l-.56-1.108V7.349l6.185,2.7L27.882,27.414Z" style="fill:#534741"/><path d="M26.062,29.538a3.1,3.1,0,0,1-2.612-1.152c-.318-.644-7.791-15.768-7.841-15.9a7.992,7.992,0,0,0-.569-1.084c-.192-.1-3.611-1.829-3.811-2.234l-.561-1.111V7.327l.02.009,6.189,2.7,0,0L27.9,27.41v0l0,.938a1.516,1.516,0,0,1-1.423,1.157A2.721,2.721,0,0,1,26.062,29.538ZM10.7,8.052l.558,1.105c.2.4,3.765,2.205,3.8,2.223l0,0,0,0a8.079,8.079,0,0,1,.574,1.092c.05.128,7.763,15.737,7.84,15.895.431.876,2.086,1.247,2.991,1.108a1.489,1.489,0,0,0,1.4-1.132l0-.931L16.857,10.059,10.7,7.371Z" style="fill:#4a1700"/><polygon points="14.961 2.65 14.961 3.504 16.608 7.645 16.869 6.492 14.961 2.65" style="fill:#534741"/><path d="M16.594,7.651,14.947,3.507V2.65l.027-.006,1.91,3.847V6.5l-.262,1.153ZM14.976,3.5,16.6,7.6l.25-1.1L14.976,2.711Z" style="fill:#4a1700"/><polygon points="10.946 3.312 10.957 4.784 11.631 8.578 11.861 8.578 11.797 7.207 10.946 3.312" style="fill:#534741"/><path d="M11.876,8.592h-.257l-.676-3.806-.012-1.474.029,0L11.811,7.2Zm-.233-.029h.2l-.064-1.356-.821-3.756.01,1.333Z" style="fill:#4a1700"/><path d="M15.312,10.868s-3.868-1.986-4.069-2.394l-.559-1.108,6.19-.873L14.98,2.646l1.2-.169a.313.313,0,0,1,.26.108l4.24,3.346a2.662,2.662,0,0,1,.408.652l.637,1.295c.121.245-2.406,2.425-2.406,2.425a.2.2,0,0,0-.014.224C19.372,10.667,27.766,27,27.766,27c.425.863-.41,1.669-1.3,1.806a3.1,3.1,0,0,1-2.874-1.217S15.617,11.229,15.555,11.1A.754.754,0,0,0,15.312,10.868Z" style="fill:#736357"/><path d="M26.117,28.848A3.027,3.027,0,0,1,23.58,27.6c-.08-.164-7.977-16.365-8.037-16.489a.739.739,0,0,0-.238-.229c-.165-.085-3.875-1.993-4.075-2.4l-.568-1.126.02,0,6.17-.87L14.958,2.635l1.219-.172a.323.323,0,0,1,.273.112L20.688,5.92a2.693,2.693,0,0,1,.412.658l.637,1.294c.122.248-2.15,2.218-2.41,2.442a.181.181,0,0,0-.011.207c.068.137,8.378,16.312,8.462,16.475a1.03,1.03,0,0,1-.008.965,1.789,1.789,0,0,1-1.3.861A2.324,2.324,0,0,1,26.117,28.848ZM10.705,7.377l.55,1.09c.2.4,4.024,2.368,4.063,2.388h0a.758.758,0,0,1,.249.241c.061.124,7.958,16.325,8.037,16.489a3.063,3.063,0,0,0,2.858,1.209,1.759,1.759,0,0,0,1.281-.846,1,1,0,0,0,.008-.939c-.084-.163-8.395-16.338-8.462-16.476a.208.208,0,0,1,.017-.241,12.7,12.7,0,0,0,2.4-2.409L21.074,6.59a2.667,2.667,0,0,0-.4-.649L16.429,2.6h0a.3.3,0,0,0-.247-.1L15,2.658,16.895,6.5l-.02,0Z" style="fill:#4a1700"/><path d="M13.743,6.934,11.856,3.1s-.764.09-.9.109.838,4,.838,4Z" style="fill:#736357"/><path d="M11.786,7.225l0-.013a40.286,40.286,0,0,1-.842-4.005.022.022,0,0,1,.016-.01c.132-.019.89-.108.9-.109h.01l1.9,3.859Zm-.822-4a38.1,38.1,0,0,0,.844,3.968l1.914-.27-1.873-3.8C11.758,3.128,11.1,3.206,10.964,3.225Z" style="fill:#4a1700"/><polygon points="17.414 7.564 18.119 8.91 14.841 9.344 14.224 7.989 17.414 7.564" style="fill:#4a1700"/><path d="M14.624,8.229l.324-.047a.781.781,0,0,1,.47.313.844.844,0,0,1,.1.641l-.323.049a.72.72,0,0,0-.069-.628A1.411,1.411,0,0,0,14.624,8.229Z" style="fill:#736357"/><path d="M15.486,8.11l.324-.047a.781.781,0,0,1,.47.313.844.844,0,0,1,.1.641l-.323.049a.721.721,0,0,0-.069-.628A1.41,1.41,0,0,0,15.486,8.11Z" style="fill:#736357"/><path d="M16.326,7.99l.324-.047a.781.781,0,0,1,.47.313.844.844,0,0,1,.1.641l-.323.049a.721.721,0,0,0-.069-.628A1.411,1.411,0,0,0,16.326,7.99Z" style="fill:#736357"/><path d="M16.429,15.654l.34-.072V11.542a15,15,0,0,1-3.023-.827Z" style="fill:#4a1700"/><path d="M14.017,6.416l1.51-.213L15.3,5.644a10.565,10.565,0,0,0-1.166.1L13.814,6Z" style="fill:#fff"/><path d="M21.574,6.609l.574,1.222V8.925l-.1.137c-.052.055-1.139,1.221-1.966,1.972.046.089.1.186.15.29l6.843-.909A10.378,10.378,0,0,0,21.574,6.609Z" style="fill:#fff"/><path d="M26.457,14.015v2.463c.521-.02.607-.469.607-.953V10.414l-6.838.909c.4.793,1.006,1.994,1.72,3.384Z" style="fill:#ffe05c"/><path d="M13,10.849c-1.982-1.085-2.094-1.31-2.175-1.475l-.378-.742-6.154,4.8L16.433,11.83A22.719,22.719,0,0,1,13,10.849Z" style="fill:#fff"/><polygon points="16.436 15.654 16.422 11.83 4.276 13.436 4.276 17.413 16.436 15.654" style="fill:#ffe05c"/><path d="M21.946,14.694V11.108s-1.2-.694-.7-1.2l-1.162,1.13Z" style="fill:#ffe05c"/><path d="M5.438,13.288l7.025-.93s-2.519.51-4.462.749C7.084,13.22,5.438,13.288,5.438,13.288Z" style="fill:#4a1700"/><path d="M24.438,10.772l2.7-.357.118.162C26.079,10.7,24.438,10.772,24.438,10.772Z" style="fill:#4a1700"/></svg>