<svg xmlns="http://www.w3.org/2000/svg" viewBox="0 0 32 32"><title>file_type_robots</title><path d="M9.763,4.857a7.748,7.748,0,0,1,6.264-2.85c0,2.617.02,5.335-.008,7.953-2.219-.005-7.434.018-7.434.018A6.988,6.988,0,0,1,9.763,4.857m2.405.765a1.659,1.659,0,0,0,.038,2.658,1.688,1.688,0,1,0-.038-2.658Z" style="fill:#ed6a54"/><path d="M16.031,28.028a12.514,12.514,0,0,1-2.185-.169c0,.1-.008.287-.012.383C13.813,28.8,13.8,30,13.8,30H8.832s.019-2.811-.015-4.214c.023-.367-.28-.609-.492-.863a7.959,7.959,0,0,1-2-5.389c0-2.814,0-5.619,0-8.433h9.7Q16.016,19.563,16.031,28.028Z" style="fill:#ed6a54"/><path d="M5.541,12.644v6.6H3.753v-6.6Z" style="fill:#ed6a54"/><path d="M16.022,2a7.946,7.946,0,0,1,5.483,1.989,6.3,6.3,0,0,1,1.676,2.625,12.042,12.042,0,0,1,.276,3.362l-7.44-.018s.005-5.342,0-7.959m1.784,3.553a1.663,1.663,0,0,0-.137,2.682,1.641,1.641,0,0,0,2.075.063,1.662,1.662,0,0,0,.39-2.25A1.634,1.634,0,0,0,17.806,5.555Z" style="fill:#d7433f"/><path d="M16.022,11.1h9.7c0,2.814,0,5.619,0,8.433a7.959,7.959,0,0,1-2,5.389c-.212.254-.515.5-.492.863C23.2,27.189,23.217,30,23.217,30H18.246s-.01-1.2-.03-1.758c0-.1-.01-.288-.012-.383a12.514,12.514,0,0,1-2.185.169Q16.043,19.562,16.022,11.1Z" style="fill:#d7433f"/><path d="M26.387,12.643h1.86l0,6.6H26.368Z" style="fill:#d7433f"/></svg>