<svg xmlns="http://www.w3.org/2000/svg" viewBox="0 0 32 32"><title>file_type_skipper</title><path d="M17.325,22.96l-.429,0c-8.88-.131-10.185-3.015-10.236-3.137l-.546-2.768,19.591.088-.191,2.773C25.478,20.08,24.688,22.96,17.325,22.96Z" style="fill:#fff"/><path d="M6.418,17.3l.473,2.421S8.082,22.577,16.9,22.707c7.653.113,8.364-2.81,8.364-2.81l.173-2.507Z"/><polygon id="_Path_" data-name="&lt;Path&gt;" points="6.631 18.385 25.374 18.362 25.333 18.905 6.705 18.8 6.631 18.385" style="fill:#fed94e"/><path d="M25.645,17.683h-.067L6.445,17.569c-.213-.108-5.205-2.687-4.651-5.086.5-2.146,5.064-3.267,13.967-3.426,9.08-.162,13.8.842,14.421,3.074.693,2.5-4.268,5.4-4.479,5.519Z"/><path d="M6.559,17.347s-14.913-7.608,9.207-8.04c24.637-.442,9.812,8.126,9.812,8.126Z" style="fill:#f2f2f0"/><path d="M15.182,13.524c-.117,1.629,1.756,2.105,1.756,2.105s1.847-.571,1.646-2.192l.213-.005-.277-.311-.309.326.224-.006a1.574,1.574,0,0,1-1.208,1.389l-.239-2.935.436-.011a.123.123,0,1,0,0-.156l-.448.012-.011-.141a.333.333,0,1,0-.245,0l0,.146-.405.01a.123.123,0,1,0,.008.156l.393-.01-.078,2.952c-1.195-.361-1.295-1.2-1.3-1.333l.224-.006-.326-.309-.26.324Zm1.663-2.059a.178.178,0,1,1,.173-.182A.178.178,0,0,1,16.845,11.466Z"/></svg>