<svg xmlns="http://www.w3.org/2000/svg" viewBox="0 0 32 32"><title>file_type_tslint</title><path d="M22.395,9.855a3.372,3.372,0,0,1,1.694.976,4.46,4.46,0,0,1,.649.868c.009.034-1.169.825-1.883,1.268-.026.017-.129-.095-.245-.267a1.535,1.535,0,0,0-1.273-.765c-.821-.056-1.35.374-1.346,1.092a.993.993,0,0,0,.116.507c.181.374.516.6,1.569,1.053,1.939.834,2.769,1.384,3.285,2.167a3.93,3.93,0,0,1,.314,3.3,3.631,3.631,0,0,1-3,2.145,8.3,8.3,0,0,1-2.064-.021,4.977,4.977,0,0,1-2.756-1.436,4.785,4.785,0,0,1-.705-1.045A2.024,2.024,0,0,1,17,19.541c.12-.069.576-.331,1.006-.58l.778-.451.163.241a3.636,3.636,0,0,0,1.028.985,2.515,2.515,0,0,0,2.636-.133,1.177,1.177,0,0,0,.15-1.5c-.211-.3-.641-.555-1.862-1.083a6.7,6.7,0,0,1-2.55-1.569,3.572,3.572,0,0,1-.744-1.354,5.423,5.423,0,0,1-.047-1.728A3.3,3.3,0,0,1,20.34,9.794,6.861,6.861,0,0,1,22.395,9.855Zm-6.359,1.131.009,1.109H12.519V22.112H10.025V12.095H6.5V11.007a10.659,10.659,0,0,1,.03-1.118c.013-.017,2.158-.026,4.759-.021l4.734.013Z" style="fill:#007acc"/><path d="M2,15.17c1.844,0,2.1-1.223,2.1-2.322a22.044,22.044,0,0,0-.209-2.633A22.058,22.058,0,0,1,3.688,7.61c0-2.886,1.559-4.11,3.767-4.11H8V5.227H7.533c-1.533,0-2.051,1-2.051,2.7a16.225,16.225,0,0,0,.182,2.227,17.645,17.645,0,0,1,.182,2.383c.025,2.008-.7,3.011-1.872,3.389v.061c1.17.345,1.9,1.412,1.872,3.42a17.2,17.2,0,0,1-.182,2.383,16.668,16.668,0,0,0-.182,2.26c0,1.755.6,2.728,2.051,2.728H8V28.5H7.454c-2.155,0-3.767-1.129-3.767-4.3a21.463,21.463,0,0,1,.207-2.572A20.586,20.586,0,0,0,4.1,19.091c0-.973-.26-2.322-2.1-2.322Z" style="fill:#33a9dc"/><path d="M29.937,16.815c-1.844,0-2.1,1.348-2.1,2.321a21,21,0,0,0,.207,2.541,21.076,21.076,0,0,1,.209,2.572c0,3.167-1.637,4.3-3.767,4.3h-.546V26.821h.442c1.455-.031,2.077-.973,2.077-2.728,0-.753-.1-1.476-.182-2.26a17.087,17.087,0,0,1-.207-2.383c0-2.007.728-3.075,1.87-3.42V15.97c-1.142-.378-1.87-1.382-1.87-3.389a17.582,17.582,0,0,1,.207-2.383,22.114,22.114,0,0,0,.182-2.227c0-1.693-.546-2.666-2.051-2.7h-.467V3.548h.52c2.208,0,3.792,1.223,3.792,4.109a21.618,21.618,0,0,1-.209,2.6,22.484,22.484,0,0,0-.207,2.633c0,1.1.26,2.321,2.1,2.321Z" style="fill:#33a9dc"/><polygon points="13.595 26.5 12.405 25.132 11.214 26.499 10.016 25.13 8.819 26.498 7.624 25.13 6.857 26.008 6 25.361 7.624 23.501 8.819 24.87 10.016 23.502 11.212 24.87 12.405 23.5 13.597 24.868 14.788 23.502 15.987 24.871 17.183 23.501 18.379 24.871 19.579 23.503 20.776 24.871 21.976 23.502 23.171 24.871 24.37 23.504 26 25.359 25.144 26.009 24.37 25.128 23.168 26.497 21.974 25.13 20.775 26.497 19.578 25.129 18.377 26.497 17.183 25.13 15.988 26.497 14.79 25.13 13.595 26.5" style="fill:#c1272d"/></svg>