<svg xmlns="http://www.w3.org/2000/svg" viewBox="0 0 32 32"><title>file_type_watchmanconfig</title><ellipse cx="16" cy="16.001" rx="14.438" ry="14.925" style="fill:#fff"/><path d="M4.712,17.65l.014-.014.014-.014c.325-.321.649-.643.967-.964.221-.214.435-.436.649-.65-.214-.214-.435-.428-.649-.65-.318-.321-.642-.643-.967-.964l-.014-.014-.014-.014c-.311-.336-.622-.671-.933-1-.539-.578-1.071-1.15-1.589-1.714a15.459,15.459,0,0,0,0,8.727c.518-.564,1.05-1.136,1.589-1.714C4.09,18.314,4.4,17.985,4.712,17.65Z" style="fill:#4356e6"/><path d="M29.809,11.636c-.518.564-1.05,1.136-1.589,1.714-.311.329-.622.664-.933,1l-.014.014-.014.014c-.325.321-.649.643-.967.964-.221.214-.435.436-.649.65.214.214.435.428.649.65.318.321.642.643.967.964l.014.014.014.014c.311.336.622.671.933,1,.539.578,1.071,1.15,1.589,1.714a15.409,15.409,0,0,0,0-8.713Z" style="fill:#4356e6"/><path d="M24.835,16.793c-3.019,2.964-5.893,5.456-8.663,5.456h-.345c-2.77,0-5.644-2.492-8.663-5.456-.546.543-1.1,1.1-1.651,1.65-.981,1.057-1.983,2.107-2.908,3.135A14.456,14.456,0,0,0,16,30.926a14.456,14.456,0,0,0,13.395-9.348c-.926-1.028-1.92-2.078-2.908-3.135C25.934,17.885,25.388,17.335,24.835,16.793Z" style="fill:#4356e6"/><path d="M7.165,15.207c3.019-2.964,5.893-5.456,8.663-5.456h.345c2.77,0,5.644,2.492,8.663,5.456.546-.543,1.1-1.1,1.651-1.65.981-1.057,1.983-2.107,2.908-3.135A14.456,14.456,0,0,0,16,1.074,14.456,14.456,0,0,0,2.605,10.422c.926,1.028,1.92,2.078,2.908,3.135C6.066,14.115,6.612,14.665,7.165,15.207Z" style="fill:#4356e6"/><path d="M14.038,14.172a1.144,1.144,0,0,0-.553.993v1.678a1.153,1.153,0,0,0,.553.993l1.409.843a1.061,1.061,0,0,0,1.105,0l1.409-.843a1.144,1.144,0,0,0,.553-.993V15.164a1.153,1.153,0,0,0-.553-.993l-1.409-.843a1.061,1.061,0,0,0-1.105,0Z" style="fill:#4356e6"/><path d="M7.959,16C10.853,18.842,13.6,21.221,16,21.1c2.4.121,5.14-2.257,8.041-5.1C21.147,13.158,18.4,10.779,16,10.9,13.6,10.779,10.86,13.158,7.959,16Zm8.594-3.992,2.515,1.5a1.144,1.144,0,0,1,.553.993v3a1.153,1.153,0,0,1-.553.993l-2.515,1.5a1.061,1.061,0,0,1-1.105,0l-2.515-1.5a1.144,1.144,0,0,1-.553-.993v-3a1.153,1.153,0,0,1,.553-.993l2.515-1.5A1.093,1.093,0,0,1,16.553,12.008Z" style="fill:#4356e6"/></svg>