<svg xmlns="http://www.w3.org/2000/svg" viewBox="0 0 32 32"><title>file_type_anyscript</title><path d="M19.666,11.545H18.305a.333.333,0,0,0-.182.078.225.225,0,0,0-.078.182L18.1,19.69l-3.679-7.97c-.02-.059-.033-.117-.091-.13-.02-.046-.072-.046-.13-.046H12.484a.295.295,0,0,0-.26.26v10.77a.319.319,0,0,0,.091.189.189.189,0,0,0,.169.072h1.38a.24.24,0,0,0,.182-.072.391.391,0,0,0,.078-.189l-.078-7.846,3.685,7.964c0,.046.059.072.072.085a.293.293,0,0,0,.163.059h1.7a.215.215,0,0,0,.182-.072.266.266,0,0,0,.078-.189V11.8a.225.225,0,0,0-.078-.182.3.3,0,0,0-.182-.078" style="fill:#96092b"/><path d="M5.327,17l1.25-5.17L7.789,17Zm.26-8.244a.348.348,0,0,0-.1.156L2,22.574v.163a.319.319,0,0,1,.02.046.252.252,0,0,0,.163.091l1.361.391c.039,0,.072.033.13,0a.189.189,0,0,0,.13-.072.148.148,0,0,0,.059-.117L4.9,18.745H8.238l1.055,4.33a.229.229,0,0,0,.039.117.159.159,0,0,0,.13.072.1.1,0,0,0,.13,0l1.354-.358a.376.376,0,0,0,.15-.124.313.313,0,0,0,.052-.208L7.658,8.913a.339.339,0,0,0-.1-.156A.334.334,0,0,0,7.4,8.711H5.731a.208.208,0,0,0-.143.046" style="fill:#96092b"/><path d="M22.948,11.414a.669.669,0,0,0-.15-.13.217.217,0,0,0-.2.046l-1.3.664a.165.165,0,0,0-.13.15.209.209,0,0,0,.039.208l3.438,6.153v4.07a.287.287,0,0,0,.072.189.2.2,0,0,0,.169.072h1.38a.24.24,0,0,0,.182-.072.266.266,0,0,0,.078-.189v-4.07l3.458-6.153a.317.317,0,0,0,.02-.13.289.289,0,0,0-.02-.13.269.269,0,0,0-.111-.1l-1.3-.664a.193.193,0,0,0-.189-.046c-.072.046-.13.059-.15.13l-2.637,5.1Z" style="fill:#96092b"/><path d="M25.515,10.3a1.469,1.469,0,1,0,1.335,2.222A1.483,1.483,0,0,0,25.515,10.3Z" style="fill:#fff"/><path d="M25.592,10.49a1.269,1.269,0,0,0-.912.371,1.325,1.325,0,0,0-.358.892,1.246,1.246,0,0,0,.358.912,1.212,1.212,0,0,0,.912.391,1.267,1.267,0,0,0,1.263-1.3,1.235,1.235,0,0,0-1.263-1.263" style="fill:#a7a6a6"/></svg>