<svg xmlns="http://www.w3.org/2000/svg" viewBox="0 0 32 32"><title>file_type_graphql</title><rect x="-0.43" y="12.534" width="22.901" height="1.187" transform="translate(-5.858 16.107) rotate(-59.999)" style="fill:#e10098"/><rect x="4.545" y="21.162" width="22.902" height="1.187" style="fill:#e10098"/><rect x="10.43" y="18.008" width="1.187" height="13.227" transform="translate(-15.812 21.857) rotate(-59.999)" style="fill:#e10098"/><rect x="20.381" y="0.771" width="1.187" height="13.227" transform="translate(4.092 21.856) rotate(-59.999)" style="fill:#e10098"/><rect x="4.412" y="6.787" width="13.227" height="1.187" transform="translate(-2.213 6.502) rotate(-30.001)" style="fill:#e10098"/><rect x="20.389" y="1.677" width="1.187" height="22.901" transform="translate(-3.753 12.25) rotate(-30.001)" style="fill:#e10098"/><rect x="5.454" y="9.386" width="1.187" height="13.228" style="fill:#e10098"/><rect x="25.36" y="9.386" width="1.187" height="13.228" style="fill:#e10098"/><rect x="15.222" y="24.097" width="11.504" height="1.037" transform="translate(-9.498 13.785) rotate(-30.001)" style="fill:#e10098"/><path d="M28.12,23a2.5,2.5,0,1,1-.915-3.411A2.5,2.5,0,0,1,28.12,23" style="fill:#e10098"/><path d="M8.2,11.5a2.5,2.5,0,1,1-.915-3.411A2.5,2.5,0,0,1,8.2,11.5" style="fill:#e10098"/><path d="M3.88,23a2.5,2.5,0,1,1,3.411.915A2.5,2.5,0,0,1,3.88,23" style="fill:#e10098"/><path d="M23.8,11.5a2.5,2.5,0,1,1,3.411.915A2.5,2.5,0,0,1,23.8,11.5" style="fill:#e10098"/><path d="M16,30a2.5,2.5,0,1,1,2.5-2.5A2.493,2.493,0,0,1,16,30" style="fill:#e10098"/><path d="M16,6.991a2.5,2.5,0,1,1,2.5-2.5,2.493,2.493,0,0,1-2.5,2.5" style="fill:#e10098"/></svg>