<svg xmlns="http://www.w3.org/2000/svg" viewBox="0 0 32 32">
    <title>file_type_cssmap</title>
    <path d="M16 30a14 14 0 1 1 14-14 14.016 14.016 0 0 1-14 14Zm0-26.824A12.824 12.824 0 1 0 28.824 16 12.84 12.84 0 0 0 16 3.176Z" style="fill:#639"/>
    <path d="M2.784 15.412h26.432v1.176H2.784zm13.533-4.938A44.779 44.779 0 0 1 4.42 8.92l.34-1.126c.111.034 11.277 3.32 22.427 0l.335 1.127a39.374 39.374 0 0 1-11.205 1.553ZM4.785 23.907l-.335-1.126c11.5-3.422 22.634-.14 23.1 0l-.34 1.126c-.11-.034-11.274-3.319-22.425 0Z" style="fill:#639"/>
    <path d="M11.468 28.764a35.454 35.454 0 0 1-.742-25.71l1.082.461A34.228 34.228 0 0 0 12.55 28.3Zm8.973 0L19.36 28.3a34.229 34.229 0 0 0 .74-24.785l1.082-.461a35.461 35.461 0 0 1-.741 25.71ZM15.412 2.783h1.175v26.919h-1.175z" style="fill:#639"/>
    <path fill="#639" d="M10.525 10.647h16.8a3.2 3.2 0 0 1 3.2 3.2v13.6a3.2 3.2 0 0 1-3.2 3.2h-13.6a3.2 3.2 0 0 1-3.2-3.2z" style="stroke-width:.02" transform="translate(.415 .436)"/>
    <path fill="#fff" d="M14.148 25.862v-3.36c0-1.34.86-2.06 2.16-2.06 1.28-.02 2.08.82 2.04 2.24h-1.48c.04-.54-.2-.94-.6-.92-.5 0-.64.34-.64.98v2.92c0 .62.2.92.64.94.46 0 .64-.46.6-.98h1.48c.08 1.46-.84 2.32-2.14 2.3-1.26 0-2.06-.7-2.06-2.06zm4.74-.24h1.38c.02.64.22 1.04.66 1.04.44 0 .6-.26.6-.86 0-.5-.22-.78-.76-1.04l-.52-.24c-.92-.44-1.3-.98-1.3-2.06 0-1.2.76-2.04 2-2.04s1.9.86 1.92 2.26h-1.34c0-.58-.12-.98-.56-.98-.4 0-.6.2-.6.7 0 .5.18.7.66.9l.48.22c1.02.48 1.46 1.1 1.46 2.26 0 1.38-.78 2.14-2.06 2.14s-2-.88-2.02-2.3zm4.52 0h1.4c0 .64.22 1.04.64 1.04.42 0 .6-.26.6-.86 0-.5-.2-.78-.76-1.04l-.52-.24c-.92-.44-1.28-.98-1.28-2.06 0-1.2.74-2.04 2-2.04s1.88.86 1.92 2.26h-1.34c-.02-.58-.14-.98-.58-.98-.4 0-.58.2-.58.7 0 .5.16.7.64.9l.5.22c1 .48 1.44 1.1 1.44 2.26 0 1.38-.78 2.14-2.06 2.14s-2-.88-2.02-2.3z" style="stroke-width:.02" transform="translate(.415 .436)"/>
</svg>
