<svg xmlns="http://www.w3.org/2000/svg" viewBox="0 0 32 32"><title>file_type_locale</title><path d="M28.137,30A1.854,1.854,0,0,0,30,28.168V9.454a1.854,1.854,0,0,0-1.863-1.835H9.956L17.253,30Z" style="fill:#d9d9d9"/><polygon points="22.041 24.715 17.286 30.003 15.555 24.715 22.041 24.715" style="fill:#4352b8"/><path d="M28.233,15.373V14.279H22.959V12.512H21.247v1.767H17.881v1.094h6.7a9.7,9.7,0,0,1-1.922,3.38c-1.369-1.619-1.375-2.146-1.375-2.146H19.862s.059.788,1.978,3.038a13.51,13.51,0,0,1-1.1,1.016l.438,1.366s.659-.567,1.487-1.445c.828.9,1.9,1.978,3.279,3.265l.9-.9c-1.481-1.344-2.567-2.41-3.364-3.265a9.929,9.929,0,0,0,2.385-4.315h2.368Z" style="fill:#617d8b"/><path d="M3.863,2A1.87,1.87,0,0,0,2,3.863V22.855a1.869,1.869,0,0,0,1.863,1.863H22.044L14.747,2Z" style="fill:#4f8bf5"/><path d="M16.989,7.619H28.137A1.854,1.854,0,0,1,30,9.454V20.681Z" style="fill:#fff;opacity:0.200000002980232;isolation:isolate"/><path d="M7.055,13.808c.611-1.573,1.211-3.151,1.821-4.724h1.77c.1.242.189.487.282.73.447,1.153.887,2.309,1.334,3.463s.879,2.286,1.319,3.429l.356.923c-.419,0-.839,0-1.258,0h-.3q-.331-1.011-.658-2.024H7.8q-.326,1.013-.658,2.024c-.518,0-1.036,0-1.554,0q.734-1.911,1.469-3.822m1.181.673c1.017,0,2.034,0,3.051,0-.51-1.338-1.014-2.678-1.526-4.015C9.249,11.8,8.746,13.143,8.235,14.481Z" style="fill:#f2f2f2"/></svg>