<svg xmlns="http://www.w3.org/2000/svg" viewBox="0 0 32 32"><title>file_type_crystal</title><path d="M29.941,19.816,19.8,29.928c-.028.028-.085.028-.169.028L5.8,26.267c-.028,0-.084-.028-.113-.113L2,12.352a.419.419,0,0,1,.028-.169L12.168,2.072c.028-.028.084-.028.169-.028l13.83,3.718c.028,0,.084.028.113.113l3.69,13.8C30.026,19.732,30,19.788,29.941,19.816ZM16.393,8.832,2.817,12.493q-.042,0,0,.084L12.76,22.52c.028.028.028,0,.084,0L16.506,8.972C16.449,8.832,16.393,8.832,16.393,8.832Z" style="fill:#c8c8c8"/></svg>