<svg xmlns="http://www.w3.org/2000/svg" viewBox="0 0 32 32"><title>file_type_storyboard</title><path d="M16.271,9.616a5.137,5.137,0,1,0,5.137,5.137A5.137,5.137,0,0,0,16.271,9.616Zm0,7.379A2.231,2.231,0,1,1,18.5,14.764,2.231,2.231,0,0,1,16.271,17Z" style="fill:#ffcf31"/><path d="M16.271,20.176a5.423,5.423,0,1,1,5.423-5.423A5.429,5.429,0,0,1,16.271,20.176Zm0-10.275a4.852,4.852,0,1,0,4.852,4.852A4.858,4.858,0,0,0,16.271,9.9Zm0,7.379a2.517,2.517,0,1,1,2.517-2.517A2.52,2.52,0,0,1,16.271,17.281Zm0-4.463a1.946,1.946,0,1,0,1.946,1.946A1.948,1.948,0,0,0,16.271,12.818Z" style="fill:#e9ad0f"/><path d="M16.582,9.616h-.623V9.255A4.364,4.364,0,0,0,11.6,4.9H2V4.274h9.6a4.987,4.987,0,0,1,4.982,4.982Z" style="fill:#e9ad0f"/><path d="M20.941,24.977a4.982,4.982,0,0,1-4.982-4.982V19.9h.623v.094a4.359,4.359,0,0,0,4.359,4.359h0l8.617,0v.623l-8.617,0Z" style="fill:#e9ad0f"/><polygon points="26.926 27.726 26.485 27.286 29.119 24.652 26.498 22.031 26.939 21.591 30 24.652 26.926 27.726" style="fill:#e9ad0f"/></svg>