<svg xmlns="http://www.w3.org/2000/svg" viewBox="0 0 32 32"><title>file_type_light_json5</title><path d="M12.815,15.167l.68-5.676h6.489v2h-4.4L15.329,13.7a2.4,2.4,0,0,1,.252-.122,2.962,2.962,0,0,1,.374-.13,2.9,2.9,0,0,1,.458-.106,2.834,2.834,0,0,1,.512-.046,3.983,3.983,0,0,1,1.466.252,2.736,2.736,0,0,1,1.076.723,3.167,3.167,0,0,1,.664,1.168,5,5,0,0,1,.228,1.588,4.157,4.157,0,0,1-.236,1.387,3.307,3.307,0,0,1-1.9,2.029,4.3,4.3,0,0,1-1.715.312,4.75,4.75,0,0,1-1.458-.228,4.054,4.054,0,0,1-1.252-.656,3.359,3.359,0,0,1-.878-1.046,2.787,2.787,0,0,1-.32-1.382H15.18a1.458,1.458,0,0,0,.39.97,1.383,1.383,0,0,0,1.558.206,1.089,1.089,0,0,0,.4-.412,1.749,1.749,0,0,0,.206-.618,4.3,4.3,0,0,0,.062-.74,2.709,2.709,0,0,0-.092-.74,1.506,1.506,0,0,0-.282-.558,1.229,1.229,0,0,0-.5-.349,1.78,1.78,0,0,0-.718-.13,2.121,2.121,0,0,0-.5.054,1.805,1.805,0,0,0-.382.138,1.318,1.318,0,0,0-.274.19,1.28,1.28,0,0,0-.19.2l-2.048-.482"/><path d="M5.985,23.343a4.45,4.45,0,0,1-1.311-.58,3.2,3.2,0,0,1-.848-.824,3.012,3.012,0,0,1-.458-1.008,4.879,4.879,0,0,1-.13-1.143v-1.55a2.3,2.3,0,0,0-.076-.618,1.184,1.184,0,0,0-.222-.466.969.969,0,0,0-.382-.306A1.324,1.324,0,0,0,2,16.744V15.012a1.074,1.074,0,0,0,.937-.4,1.841,1.841,0,0,0,.3-1.1v-1.55a4.879,4.879,0,0,1,.13-1.143,3.037,3.037,0,0,1,.458-1.008A3.17,3.17,0,0,1,4.671,9a4.482,4.482,0,0,1,1.311-.58l.48,1.344a1.222,1.222,0,0,0-.488.328,1.742,1.742,0,0,0-.306.5,2.524,2.524,0,0,0-.16.634,5.827,5.827,0,0,0-.046.74v1.55A2.844,2.844,0,0,1,5.126,14.9a2.37,2.37,0,0,1-1.076.983,2.356,2.356,0,0,1,1.076.992,2.808,2.808,0,0,1,.336,1.374v1.55a5.827,5.827,0,0,0,.046.74,2.586,2.586,0,0,0,.16.634,1.684,1.684,0,0,0,.306.5A1.222,1.222,0,0,0,6.462,22c0-.005-.477,1.344-.477,1.344" style="fill:#999"/><path d="M8.215,19.393a1.289,1.289,0,0,1,.1-.512,1.212,1.212,0,0,1,.29-.4,1.373,1.373,0,0,1,.45-.274,1.637,1.637,0,0,1,.58-.1,1.555,1.555,0,0,1,.572.1,1.269,1.269,0,0,1,.45.274,1.077,1.077,0,0,1,.29.4,1.294,1.294,0,0,1,0,1.024,1.151,1.151,0,0,1-.29.412,1.388,1.388,0,0,1-.45.268,1.613,1.613,0,0,1-.572.1,1.578,1.578,0,0,1-.58-.1,1.409,1.409,0,0,1-.45-.268,1.229,1.229,0,0,1-.39-.924m0-6.088a1.289,1.289,0,0,1,.1-.512,1.212,1.212,0,0,1,.29-.4,1.373,1.373,0,0,1,.45-.274,1.637,1.637,0,0,1,.58-.1,1.555,1.555,0,0,1,.572.1,1.269,1.269,0,0,1,.45.274,1.077,1.077,0,0,1,.29.4,1.294,1.294,0,0,1,0,1.024,1.151,1.151,0,0,1-.29.412,1.388,1.388,0,0,1-.45.268,1.613,1.613,0,0,1-.572.1,1.578,1.578,0,0,1-.58-.1,1.409,1.409,0,0,1-.45-.268,1.229,1.229,0,0,1-.39-.924" style="fill:#999"/><path d="M24.24,20.293a3.648,3.648,0,0,1-.122.929,4.534,4.534,0,0,1-.336.891,4.706,4.706,0,0,1-.5.807,4.005,4.005,0,0,1-.61.664l-1.3-.61c.081-.173.168-.349.26-.526a4.846,4.846,0,0,0,.268-.558,4.443,4.443,0,0,0,.206-.656,3.406,3.406,0,0,0,.084-.8V18.656h2.059l-.008,1.636" style="fill:#999"/><path d="M25.538,21.994a1.251,1.251,0,0,0,.488-.328,1.707,1.707,0,0,0,.306-.5,2.525,2.525,0,0,0,.16-.634,5.826,5.826,0,0,0,.046-.74v-1.55a2.844,2.844,0,0,1,.336-1.382,2.364,2.364,0,0,1,1.084-.983,2.364,2.364,0,0,1-1.084-.983,2.844,2.844,0,0,1-.336-1.382v-1.55a5.827,5.827,0,0,0-.046-.74,2.586,2.586,0,0,0-.16-.634,1.684,1.684,0,0,0-.306-.5,1.222,1.222,0,0,0-.488-.328l.48-1.338A4.45,4.45,0,0,1,27.329,9a3.092,3.092,0,0,1,.848.815,2.892,2.892,0,0,1,.45,1.008,4.606,4.606,0,0,1,.138,1.143v1.55a2.655,2.655,0,0,0,.068.626,1.448,1.448,0,0,0,.222.474,1.037,1.037,0,0,0,.382.3,1.376,1.376,0,0,0,.564.106v1.731a1.077,1.077,0,0,0-.946.412,1.828,1.828,0,0,0-.29,1.084v1.55a4.606,4.606,0,0,1-.138,1.143,2.915,2.915,0,0,1-.45,1.008,3.157,3.157,0,0,1-.848.824,4.482,4.482,0,0,1-1.311.58l-.48-1.352" style="fill:#999"/></svg>