<svg xmlns="http://www.w3.org/2000/svg" viewBox="0 0 32 32"><title>file_type_light_cabal</title><path d="M18.467,2.028,9.327,3.715A.787.787,0,0,0,8.8,5.072l8.934,11.853a2.45,2.45,0,0,0,2.194.854l9.14-1.687a.787.787,0,0,0,.528-1.357L20.662,2.883A2.45,2.45,0,0,0,18.467,2.028Z" style="fill:#2d9bbd"/><path d="M28.878,17.144l-9.636,1.672a3.714,3.714,0,0,0-2,1.322L10.681,29.07c-.452.616-.289,1.024.365.911l9.636-1.672a3.714,3.714,0,0,0,2-1.322l6.557-8.933C29.7,17.438,29.532,17.031,28.878,17.144Z" style="fill:#4a4bcd"/><path d="M5.065,15.183c-.151.4-2.957,2.615-2.9,3.068s3.353,1.8,3.6,2.14,1.186,4.687,1.53,4.78,2.118-3.518,2.424-3.7,3.69.282,3.841-.114-2.044-3.976-2.106-4.429,1.095-4.512.844-4.85-3.381,1.06-3.725.967S5.568,9.97,5.262,10.156,5.216,14.787,5.065,15.183Z" style="fill:#2e5bc1"/></svg>