<svg xmlns="http://www.w3.org/2000/svg" viewBox="0 0 32 32"><title>file_type_org</title><path d="M27.735,12.073c-.036-.551-.5-.763-1.048-.372a22.7,22.7,0,0,0-3.112-.172,6.949,6.949,0,0,1-2.455-.9c.163-.217.085-.685-.961-.717-.288-.095-.583-.232-.863-.346a.741.741,0,0,0-.023-.5.7.7,0,0,0,.323-1c.543.015.457-.825.382-1.116a.763.763,0,0,0,.308-1.072c.514-.117.528-.719.485-1.145.528-.029.455-.954.455-1.145.455-.294.353-.69.424-1.149.281-.568-.1-.73-.37-.124-.289.525-.659.754-.656,1.141.132.22-.984.543-.631,1.233-.25.308-.837.7-.628,1.177-.106.232-.855.775-.532,1.289-.7.47-.663.583-.514,1.013a1.605,1.605,0,0,0-.524.541,2.257,2.257,0,0,1-.452-1.45c0-.573-1.066.056-1.066,1.186a1.659,1.659,0,0,1-.024.27,12.4,12.4,0,0,0-1.413.261.082.082,0,0,0-.032.055,1.522,1.522,0,0,1-.048-.272c-.1-.663-.863-1.672-1.234-.426a8.262,8.262,0,0,0-.37,1.012h0s-.059.04-.167.107c-.458.284-.623,1.169-2.286,1.728a9.569,9.569,0,0,1-2.266.419c-1.673.135-4.876,3.027-5.091,5.787a10.457,10.457,0,0,0,.629,3.9v0l.008.021.027.07q.073.188.156.361a4.1,4.1,0,0,0,1.387,1.728,4.415,4.415,0,0,0,.764.483c1.033,1.7,3.225,3.891,7.357,2.6a9.982,9.982,0,0,1,10.241,2.71c.594.6-1.536-5.217-6.048-7.831-2.667-1.455-.993-3.962-.8-4.847a2.56,2.56,0,0,0,3.687-.79c1.4.361,2.337-.256,3.541.18.731.321,3.807.127,2.664-1.592.719-.469.795-.317,1.154-1.032A1.231,1.231,0,0,0,27.735,12.073ZM15.444,9.747l-.022.01.02-.018Zm-2.345.791c-.013.075-.025.145-.037.213q.01-.218.025-.463C13.091,10.364,13.1,10.446,13.1,10.538Zm1.87-1.107a4.278,4.278,0,0,0,.291.381A1.653,1.653,0,0,1,14.968,9.431Z" style="fill:#a04d32;stroke:#000;stroke-width:0.52456852784512px"/><path d="M5.537,22.247s1.752,6.313,8.139,4.315a9.982,9.982,0,0,1,10.241,2.71c.594.6-1.536-5.217-6.048-7.831-2.667-1.455-.993-3.962-.8-4.847a2.56,2.56,0,0,0,3.687-.79c1.4.361,2.337-.256,3.541.18.731.321,3.807.127,2.664-1.592.719-.469.795-.317,1.154-1.032a1.231,1.231,0,0,0-.379-1.288c-.036-.551-.5-.763-1.048-.372a22.7,22.7,0,0,0-3.112-.172,6.949,6.949,0,0,1-2.455-.9c.163-.217.085-.685-.961-.717a7.383,7.383,0,0,0-1.624-.553.514.514,0,0,1-.51-.444,1.925,1.925,0,0,1-.682-1.65c0-.573-1.066.056-1.066,1.186a1.357,1.357,0,0,1-1.017,1.357,1.7,1.7,0,0,1-.5-1.042c-.1-.663-.863-1.672-1.234-.426a8.01,8.01,0,0,0-.72,2.3c-.229,1.348-.06,1.4-.06,1.4l-5.739,4.1Z" style="fill:#7a9;stroke:#000;stroke-width:0.08742808797418666px"/><path d="M19.117,11.507c.271-.1.157-.073.2-.1a5.536,5.536,0,0,1-2.5-.2c.069.04.449.168.5.2.038.125.017.251.513.474a1.473,1.473,0,0,0,1.2-.092C19.039,11.491,19.042,11.6,19.117,11.507Z" style="fill:#314b49;stroke:#314b49;stroke-linecap:round;stroke-linejoin:round;stroke-width:0.13114213196128px"/><path d="M24.776,14.855c-.495-.365-.853-.046-1.131-.072a2.682,2.682,0,0,1,1.442-.361c.443,0,.678.384.974.386a2.33,2.33,0,0,0,.9-.416c-.169.147.079.307-.086.525a.783.783,0,0,1-.466.359A1.3,1.3,0,0,1,24.776,14.855Z" style="fill:#314b49;stroke:#314b49;stroke-width:0.08742808797418666px"/><path d="M14.015,8.22a3.533,3.533,0,0,0,.055,2.68c.641,1.282.091-1.194.82-.728.594.067-.417-.562-.355-1.367C14.5,8.3,14.224,7.9,14.015,8.22Z" style="fill:#314b49"/><path d="M25.276,12.833c0,.2-.238.355-.532.355.625-.2-.035-.814-.532-.355,0-.2.238-.355.532-.355S25.276,12.637,25.276,12.833Z" style="fill:#314b49"/><path d="M24.372,12.382c.66-.04,1.108.056.968.549.1-.2.226-.495-.183-.613A1.038,1.038,0,0,0,24.372,12.382Z" style="fill:#314b49"/><path d="M14.888,16.124c0-.616-.264-1.253-1.231-2.55a3.564,3.564,0,0,1-.561-1.1,3.837,3.837,0,0,1-.107-3.013h0c-.458.284-.623,1.169-2.286,1.728a9.569,9.569,0,0,1-2.266.419c-1.673.135-4.876,3.027-5.091,5.787a10.457,10.457,0,0,0,.629,3.9v0l.008.021.027.07q.073.188.156.361a4.1,4.1,0,0,0,1.387,1.728,3.944,3.944,0,0,0,.98.578,2.294,2.294,0,0,1-.4-2.154,1.061,1.061,0,0,0,.638.835.909.909,0,0,1,0-.813A3.179,3.179,0,0,0,8.206,23.8a5.094,5.094,0,0,1-.659-2.682,7.726,7.726,0,0,0,1.846,2.44,6.4,6.4,0,0,1-1.22-3.33,3.5,3.5,0,0,0,1.154,1.154,2.38,2.38,0,0,1-.4-1.473,4.83,4.83,0,0,0,2.506,1.407,6.252,6.252,0,0,1-2.154-2.2,2.767,2.767,0,0,0,1.561.242,2.006,2.006,0,0,1-1.011-1.583,10.8,10.8,0,0,0,2.814,2.044,7.979,7.979,0,0,1-2.022-2.836,1.785,1.785,0,0,0,1.077.264,3.364,3.364,0,0,1-.736-1.616,3.5,3.5,0,0,0,1.242,1.242,2.422,2.422,0,0,1-.088-2.11,3.271,3.271,0,0,1,1.209,1.627A3.667,3.667,0,0,0,13,14.541c.38.109.836.586,1.429,1.737a5.776,5.776,0,0,0-.725-2.044C14.231,14.847,15.023,16.456,14.888,16.124Z" style="fill:#a04d32;stroke:#000;stroke-width:0.08742808797418666px"/><path d="M17.746,9.294S17.7,10.6,18.92,9.749c.631.015.352-.675.352-.675a.7.7,0,0,0,.323-1c.543.015.457-.825.382-1.116a.763.763,0,0,0,.308-1.072c.514-.117.528-.719.485-1.145.528-.029.455-.954.455-1.145.455-.294.353-.69.424-1.149.281-.568-.1-.73-.37-.124-.289.525-.659.754-.656,1.141.132.22-.984.543-.631,1.233-.25.308-.837.7-.628,1.177-.106.232-.855.775-.532,1.289-.7.47-.663.583-.514,1.013C17.942,8.42,17.548,8.9,17.746,9.294Z" style="fill:#796958;stroke:#000;stroke-width:0.08742808797418666px"/><path d="M20.862,3.128a1.063,1.063,0,0,0-.129.373c0,.141.382.1.512-.04C20.961,3.466,20.727,3.512,20.862,3.128Z" style="fill:#fff"/><path d="M20.117,4.224a.4.4,0,0,0-.032.4c.069.171.491.168.621.029C20.422,4.663,19.982,4.608,20.117,4.224Z" style="fill:#fff"/><path d="M19.569,5.353a.53.53,0,0,0-.086.455c0,.141.5.167.626.028C19.825,5.84,19.472,5.751,19.569,5.353Z" style="fill:#fff"/><path d="M19.031,6.605A.392.392,0,0,0,19,7.12a.763.763,0,0,0,.784-.13C19.505,6.994,18.934,7,19.031,6.605Z" style="fill:#fff"/><path d="M18.506,7.606a.4.4,0,0,0,0,.579,1.046,1.046,0,0,0,.929-.1C19.147,8.085,18.384,7.845,18.506,7.606Z" style="fill:#fff"/><path d="M17.955,8.785a.392.392,0,0,0-.026.515,1.672,1.672,0,0,0,1.185-.172C18.83,9.132,17.858,9.182,17.955,8.785Z" style="fill:#fff"/><path d="M17.76,9.314a.284.284,0,0,1-.064-.3s.065-.718-2.856-.028c-.187.129.419.826.419.826s.073.038.183-.073c.044.2.149.714.041.8a.673.673,0,0,0,.293-.721,1.1,1.1,0,0,1,.82.661.817.817,0,0,0-.067-.721,1.533,1.533,0,0,1,.938.546.889.889,0,0,0,0-.513,1.535,1.535,0,0,1,.649.522A1.36,1.36,0,0,0,17.76,9.314Z" style="fill:#a04d32;stroke:#000;stroke-width:0.08742808797418666px"/><path d="M14.958,14.148s1.182,2.376,3.077,2.446,1.894-.477,1.894-.477A5.625,5.625,0,0,1,14.958,14.148Z" style="opacity:0.25999999046325684;isolation:isolate"/><path d="M15.51,15.493a3.176,3.176,0,0,0,1.35,1.116s-1.288,1.942-.631,3.5,2.295,1.933,4.078,3.716a24.26,24.26,0,0,1,3,4.365s-3.118-2.479-5.144-2.357a7.806,7.806,0,0,0-1.851-3.072C14.346,20.8,13.485,18.238,15.51,15.493Z" style="opacity:0.25999999046325684;isolation:isolate"/><path d="M12.228,10.7a6.8,6.8,0,0,1-4.269,1.413C4.978,13.3,3.162,16.784,3.8,19.194a17,17,0,0,0,.68,2.479c-.155-1.035-.242-1.993.181-2.378a.78.78,0,0,0,.788.433,1.008,1.008,0,0,1,0-1.261.714.714,0,0,0,.788.237.89.89,0,0,1,0-1.261,2.916,2.916,0,0,0,1.34,1.694,3.2,3.2,0,0,1-.512-2.285.668.668,0,0,0,.67,0,.67.67,0,0,1,0-.827,3.018,3.018,0,0,0,1.655.788,3.081,3.081,0,0,1-1.182-1.655.939.939,0,0,1,.946-.394c-.332-.2-.289-.445,0-.709a1.866,1.866,0,0,0,1.1.2C9.767,13.958,8.785,13.378,12.228,10.7Z" style="fill:#fff;opacity:0.18000000715255737;isolation:isolate"/><path d="M16.873,7.408c.174-.168.2-.114.149.05a1.547,1.547,0,0,0,.139,1.085l-.677.02A1.541,1.541,0,0,1,16.873,7.408Z" style="fill:#fff;opacity:0.27000001072883606;isolation:isolate"/></svg>