<svg xmlns="http://www.w3.org/2000/svg" viewBox="0 0 32 32"><title>file_type_docker2</title><path d="M16.54,12.663H19.4v2.924h1.446a6.272,6.272,0,0,0,1.988-.333,5.091,5.091,0,0,0,.966-.436,3.584,3.584,0,0,1-.67-1.849,3.907,3.907,0,0,1,.7-2.753l.3-.348.358.288a4.558,4.558,0,0,1,1.795,2.892,4.375,4.375,0,0,1,3.319.309l.393.226-.207.4a4.141,4.141,0,0,1-4.157,1.983c-2.48,6.168-7.871,9.088-14.409,9.088-3.378,0-6.476-1.263-8.241-4.259l-.029-.049L2.7,20.227a8.316,8.316,0,0,1-.659-4.208l.04-.433H4.526V12.663H7.387V9.8h5.721V6.942H16.54v5.721Z" style="fill:#0096e6"/><path d="M12.006,24.567a6.022,6.022,0,0,1-3.14-3.089,10.329,10.329,0,0,1-2.264.343q-.5.028-1.045.028-.632,0-1.331-.037a9.051,9.051,0,0,0,7,2.769Q11.618,24.581,12.006,24.567Z" style="fill:#fff"/><path d="M7.08,13.346h.2v2.067h-.2Zm-.376,0h.2v2.067H6.7V13.346Zm-.376,0h.2v2.067h-.2Zm-.376,0h.2v2.067h-.2Zm-.376,0h.2v2.067h-.2Zm-.368,0h.2v2.067h-.2V13.346ZM5,13.14H7.482v2.479H5Zm2.859-2.861h2.48v2.479H7.863Zm2.077.207h.2v2.066h-.2Zm-.376,0h.2v2.066h-.2Zm-.376,0h.2v2.066h-.2V10.486Zm-.376,0h.2v2.066h-.2Zm-.376,0h.2v2.066h-.2Zm-.368,0h.2v2.066h-.2Zm-.207,2.653h2.48v2.48H7.863V13.14Zm2.077.207h.2v2.067h-.2Zm-.376,0h.2v2.067h-.2Zm-.376,0h.2v2.067h-.2V13.346Zm-.376,0h.2v2.067h-.2Zm-.376,0h.2v2.067h-.2Zm-.368,0h.2v2.067h-.2Zm2.654-.207H13.2v2.48h-2.48V13.14Zm2.076.207H13v2.067h-.2Zm-.376,0h.2v2.067h-.2Zm-.376,0h.2v2.067h-.2Zm-.376,0h.2v2.067h-.2Zm-.376,0h.2v2.067h-.2Zm-.368,0h.2v2.067h-.2Zm-.206-3.067H13.2v2.479h-2.48V10.279Zm2.076.207H13v2.066h-.2Zm-.376,0h.2v2.066h-.2Zm-.376,0h.2v2.066h-.2Zm-.376,0h.2v2.066h-.2Zm-.376,0h.2v2.066h-.2Zm-.368,0h.2v2.066h-.2Zm2.654,2.653h2.479v2.48h-2.48V13.14Zm2.076.207h.2v2.067h-.2Zm-.376,0h.2v2.067h-.2Zm-.376,0h.2v2.067h-.2Zm-.376,0h.2v2.067h-.2Zm-.376,0h.2v2.067h-.2Zm-.368,0h.192v2.067h-.2V13.346Zm-.206-3.067h2.479v2.479h-2.48V10.279Zm2.076.207h.2v2.066h-.2Zm-.376,0h.2v2.066h-.2Zm-.376,0h.2v2.066h-.2Zm-.376,0h.2v2.066h-.2Zm-.376,0h.2v2.066h-.2Zm-.368,0h.192v2.066h-.2V10.486Zm-.206-3.067h2.479V9.9h-2.48V7.419Zm2.076.206h.2V9.691h-.2Zm-.376,0h.2V9.691h-.2Zm-.376,0h.2V9.691h-.2Zm-.376,0h.2V9.691h-.2Zm-.376,0h.2V9.691h-.2Zm-.368,0h.192V9.691h-.2V7.625Zm2.654,5.514h2.479v2.48h-2.48V13.14Zm2.076.207h.195v2.067h-.2V13.346Zm-.376,0h.206v2.067h-.206Zm-.376,0h.2v2.067h-.2Zm-.376,0h.2v2.067h-.2Zm-.376,0h.2v2.067h-.205V13.346Zm-.368,0h.2v2.067h-.194V13.346Z" style="fill:#fff"/><path d="M10.188,19.638a.684.684,0,1,1-.684.684A.684.684,0,0,1,10.188,19.638Zm0,.194a.489.489,0,0,1,.177.033.2.2,0,1,0,.275.269.49.49,0,1,1-.453-.3Z" style="fill:#fff"/></svg>