<svg xmlns="http://www.w3.org/2000/svg" viewBox="0 0 32 32"><title>file_type_cucumber</title><path d="M21.97,4.174q-.321-.192-.656-.36t-.7-.314c-.075-.032-.15-.061-.226-.09-.208-.077-.418-.163-.633-.225a11.793,11.793,0,1,0-5.944,22.77v3.375C20.9,28.265,27.176,22.664,27.644,15.31A12.207,12.207,0,0,0,21.97,4.174Z" style="fill:#23d96c"/><path d="M13.171,30.071v-3.6a12.427,12.427,0,1,1,5.836-24.16q.478.115.946.269c.166.049.338.114.505.177l.151.056c.1.039.177.069.253.1.211.083.449.19.733.33q.358.179.7.384a12.838,12.838,0,0,1,5.984,11.726C27.815,22.635,21.77,28.78,13.9,29.961Zm2.914-26.84h-.016a11.149,11.149,0,0,0-2.139,22.1l.516.1v3.144C21.361,27.227,26.592,21.735,27,15.27a11.542,11.542,0,0,0-5.36-10.552l0,0a8.918,8.918,0,0,0-1.263-.629q-.1-.045-.209-.084L20,3.941q-.212-.084-.43-.151a11.185,11.185,0,0,0-3.486-.558Z" style="fill:#173647"/><path d="M13.7,8.383a1.093,1.093,0,0,1,.961.369,2.54,2.54,0,0,1,.442.672,3.169,3.169,0,0,1,.14,2.8,3.845,3.845,0,0,1-2.417-1.874,1.964,1.964,0,0,1-.211-.813A1.188,1.188,0,0,1,13.7,8.383Zm-3.45,4.871a4.7,4.7,0,0,0,.739.447,3.514,3.514,0,0,0,2.964-.084,3.713,3.713,0,0,0-2.031-2.094,2.224,2.224,0,0,0-.875-.195,1.144,1.144,0,0,0-.194,0,1.072,1.072,0,0,0-.6,1.926Zm3.7,2.084a4.152,4.152,0,0,0-2.011-.177,2.681,2.681,0,0,0-1.011.214,2.125,2.125,0,0,0-.739.448,1.1,1.1,0,0,0,.855,1.925,2,2,0,0,0,.875-.195,3.728,3.728,0,0,0,2.031-2.214Zm1.584,1.214a3.98,3.98,0,0,0-2.261,2.128,1.876,1.876,0,0,0-.195.8,1.158,1.158,0,0,0,2,.817,4.505,4.505,0,0,0,.425-.739,3.6,3.6,0,0,0,.028-3ZM17.094,12.2A3.606,3.606,0,0,0,19.34,10.28a1.969,1.969,0,0,0,.194-.817,1.162,1.162,0,0,0-1.089-1.186,1.112,1.112,0,0,0-.971.389,4.481,4.481,0,0,0-.428.739,2.941,2.941,0,0,0,.049,2.794Zm2.554,7.354a1.969,1.969,0,0,0-.195-.816A3.563,3.563,0,0,0,17.3,16.756a3.27,3.27,0,0,0-.137,2.86,2.517,2.517,0,0,0,.425.68,1.217,1.217,0,0,0,2.065-.739Zm2.55-3.812a4.532,4.532,0,0,0-.739-.425,2.686,2.686,0,0,0-1.011-.214,3.885,3.885,0,0,0-1.935.337A3.617,3.617,0,0,0,20.526,17.5a2.229,2.229,0,0,0,.875.194,1.093,1.093,0,0,0,.8-1.948Z" style="fill:#173647"/></svg>