<svg xmlns="http://www.w3.org/2000/svg" viewBox="0 0 32 32"><title>file_type_hardhat</title><path d="M29.973,22.541s-4.257-.631-6.506-.812c-2.16-.174-4.72-.274-7.466-.274s-5.306.1-7.465.274c-2.25.183-6.506,1.058-6.506,1.058v1.1c0,.978,6.256,1.772,13.972,1.772s13.972-.794,13.972-1.772ZM11.705,7.952A12.808,12.808,0,0,0,3.2,20.016V21.83a31,31,0,0,1,5.546-.8q-.019-.526-.02-1.052A23.477,23.477,0,0,1,11.705,7.952Z" style="fill:#f0d50c"/><path d="M28.806,20.016a12.751,12.751,0,0,0-2.923-8.142,26.551,26.551,0,0,1,1.212,8.1q0,.75-.038,1.482a15.709,15.709,0,0,1,1.729.367Z" style="fill:#fff04d"/><path d="M28.806,20.016a12.751,12.751,0,0,0-2.923-8.142,26.551,26.551,0,0,1,1.212,8.1q0,.75-.038,1.482a15.709,15.709,0,0,1,1.729.367Z" style="fill:#ffea00"/><path d="M25.883,11.873A12.817,12.817,0,0,0,11.706,7.952,23.448,23.448,0,0,0,8.725,19.975q0,.53.019,1.052c1.907-.147,4.114-.238,6.477-.255H16a74.7,74.7,0,0,1,11.055.689q.037-.733.039-1.482A26.551,26.551,0,0,0,25.883,11.873Z" style="fill:#fff04d"/><path d="M21.152,12.72l-.811-5.072a.978.978,0,0,0-.687-.788,12.861,12.861,0,0,0-7.243,0,.978.978,0,0,0-.686.788l-.812,5.072M16,20.664h-.782c-7.353.051-13.191.824-13.191,1.769V23.8a.342.342,0,0,0,.048.231,3.266,3.266,0,0,1,1.259-.578,24.623,24.623,0,0,1,3.533-.591,2.365,2.365,0,0,1,1.853.6,4.986,4.986,0,0,0,3.367,1.308h7.822a4.987,4.987,0,0,0,3.367-1.308,2.364,2.364,0,0,1,1.854-.606,24.62,24.62,0,0,1,3.532.592,2.953,2.953,0,0,1,1.194.522c.02.02.043.038.061.056a.343.343,0,0,0,.049-.232v-1.37c0-.975-6.251-1.768-13.967-1.768Z" style="fill:#fff04d"/><path d="M18.945,16.6,16,18.409v2.356Z" style="fill:#6e6f70"/><path d="M16,20.765V18.409L13.055,16.6Zm-2.947-5.245L16,17.223V10.753Z" style="fill:#0a0a0a"/><path d="M18.945,15.519,16,10.753v6.469l2.947-1.7Z" style="fill:#6e6f70"/></svg>