<svg xmlns="http://www.w3.org/2000/svg" xmlns:xlink="http://www.w3.org/1999/xlink" viewBox="0 0 32 32"><defs><filter id="a" name="softGlow"><feGaussianBlur result="blur" stdDeviation="4" in="SourceAlpha"/><feOffset result="offsetBlur" dx="0.1" dy="0.1" in="blur"/><feFlood result="offsetColor" flood-color="#C4C7CE"/><feComposite result="offsetBlur" operator="in" in="offsetColor" in2="offsetBlur"/></filter></defs><title>file_type_perl6</title><g style="filter:url(#a)"><path d="M12.481,24.606a4.468,4.468,0,0,1-6.273-.595,4.469,4.469,0,0,1,1.33-6.155,4.467,4.467,0,0,1,6.269.591A4.468,4.468,0,0,1,12.481,24.606Z"/><path d="M9.508,25.671q-.222,0-.444-.021A3.928,3.928,0,0,1,5.511,20.8a5.194,5.194,0,0,1,5.706-3.953,3.92,3.92,0,0,1,3.29,4.821,5.048,5.048,0,0,1-1.988,2.994h0A5.109,5.109,0,0,1,9.508,25.671Zm1.012-8.75a5.013,5.013,0,0,0-2.943.987,4.921,4.921,0,0,0-1.938,2.915,3.8,3.8,0,0,0,3.438,4.7c.143.014.288.02.431.02a4.978,4.978,0,0,0,2.934-.988h0a4.918,4.918,0,0,0,1.937-2.916A3.79,3.79,0,0,0,11.2,16.973,4.453,4.453,0,0,0,10.52,16.921Z"/><path d="M11.322,7.644c2.61,1.909,3.349,5.337,1.648,7.655s-5.189,2.648-7.8.739S1.825,10.7,3.522,8.378,8.712,5.731,11.322,7.644Z"/><path d="M8.868,17.388A6.376,6.376,0,0,1,5.11,16.126a6.312,6.312,0,0,1-2.483-3.741A4.911,4.911,0,0,1,7.071,6.316a6.315,6.315,0,0,1,4.315,1.24,6.31,6.31,0,0,1,2.543,4.067,4.9,4.9,0,0,1-4.506,5.739C9.238,17.379,9.053,17.388,8.868,17.388ZM7.619,6.512A4.889,4.889,0,0,0,3.61,8.443a4.791,4.791,0,0,0-.771,3.9,6.094,6.094,0,0,0,2.4,3.611,6.16,6.16,0,0,0,3.63,1.221q.268,0,.534-.025a4.686,4.686,0,0,0,4.312-5.489,6.09,6.09,0,0,0-2.456-3.924h0A6.18,6.18,0,0,0,7.619,6.512Z"/><path d="M24.788,17.89a4.471,4.471,0,0,1,1.322,6.159,4.472,4.472,0,0,1-6.273.6,4.471,4.471,0,0,1-1.322-6.159A4.468,4.468,0,0,1,24.788,17.89Z"/><path d="M22.808,25.71A5.113,5.113,0,0,1,19.8,24.7a4.541,4.541,0,0,1-1.336-6.25,4.009,4.009,0,0,1,2.909-1.6,5.194,5.194,0,0,1,5.44,3.985,3.935,3.935,0,0,1-3.557,4.857Q23.031,25.71,22.808,25.71Zm-.989-8.754q-.218,0-.435.021a3.88,3.88,0,0,0-2.816,1.55A4.411,4.411,0,0,0,19.876,24.6a4.994,4.994,0,0,0,2.935.982,3.957,3.957,0,0,0,3.247-1.566,3.873,3.873,0,0,0,.626-3.151,4.92,4.92,0,0,0-1.934-2.917h0A4.972,4.972,0,0,0,21.819,16.956Z"/><path d="M16.091,21.468a5.1,5.1,0,0,1-3.184-1.055,3.3,3.3,0,0,1-1.333-2.583c0-2.006,2.026-3.638,4.517-3.638s4.517,1.632,4.517,3.638a3.3,3.3,0,0,1-1.333,2.583A5.1,5.1,0,0,1,16.091,21.468Zm0-7.015c-2.347,0-4.256,1.515-4.256,3.377s1.909,3.377,4.256,3.377,4.256-1.515,4.256-3.377S18.437,14.452,16.091,14.452Z"/><path d="M13.083,17.94a1.906,1.906,0,1,1,1.91-1.906A1.909,1.909,0,0,1,13.083,17.94Zm0-3.508a1.6,1.6,0,1,0,1.6,1.6A1.6,1.6,0,0,0,13.083,14.433Z"/><path d="M26.845,16.25c-2.591,1.9-6.061,1.568-7.746-.735s-.955-5.708,1.636-7.61,6.061-1.568,7.746.735S29.436,14.352,26.845,16.25Z"/><path d="M23.175,17.592q-.277,0-.553-.026a4.885,4.885,0,0,1-4.417-6.03,6.449,6.449,0,0,1,6.753-4.948,4.886,4.886,0,0,1,4.417,6.032,6.273,6.273,0,0,1-2.465,3.716h0A6.337,6.337,0,0,1,23.175,17.592ZM24.4,6.78A6.119,6.119,0,0,0,20.8,7.993c-2.539,1.863-3.263,5.209-1.613,7.458a4.756,4.756,0,0,0,3.456,1.9,6.053,6.053,0,0,0,4.138-1.187h0c2.539-1.86,3.263-5.205,1.613-7.458a4.756,4.756,0,0,0-3.456-1.9Q24.672,6.78,24.4,6.78Z"/><path d="M18.89,17.94A1.906,1.906,0,1,1,20.8,16.034,1.91,1.91,0,0,1,18.89,17.94Zm0-3.508a1.6,1.6,0,1,0,1.6,1.6A1.6,1.6,0,0,0,18.89,14.433Z"/><path d="M15.393,14.3a7.155,7.155,0,0,1,.027-1.053,3.464,3.464,0,0,0-.171-1.812l0-.008-.25-.6-.212.357.155.03-.059.3-.367-.072a.153.153,0,0,1-.1-.228l.477-.8a.153.153,0,0,1,.272.019l.366.871a3.747,3.747,0,0,1,.2,1.965A6.826,6.826,0,0,0,15.7,14.28Z"/><path d="M16.766,14.3l-.3-.023a6.77,6.77,0,0,0-.028-1.01,3.73,3.73,0,0,1,.2-1.963L17,10.437a.153.153,0,0,1,.272-.019l.477.8a.153.153,0,0,1-.1.228l-.367.072-.059-.3.155-.03-.212-.357-.25.6,0,.008a3.446,3.446,0,0,0-.168,1.808A7.1,7.1,0,0,1,16.766,14.3Z"/><path d="M15.691,23.605l-.621-1.03a.131.131,0,0,1-.019-.068V21.375h.262v1.1l.6,1Z"/><path d="M17.074,23.609l-.621-1.03a.131.131,0,0,1-.019-.068V21.375H16.7v1.1l.6,1Z"/></g><rect x="11.248" y="16.782" width="0.174" height="0.14"/><path d="M11.437,16.937h-.2v-.17h.2Zm-.174-.03h.144V16.8h-.144Z"/><path d="M12.481,24.606a4.468,4.468,0,0,1-6.273-.595,4.469,4.469,0,0,1,1.33-6.155,4.467,4.467,0,0,1,6.269.591A4.468,4.468,0,0,1,12.481,24.606Z"/><path d="M9.508,25.671q-.222,0-.444-.021A3.928,3.928,0,0,1,5.511,20.8a5.194,5.194,0,0,1,5.706-3.953,3.92,3.92,0,0,1,3.29,4.821,5.048,5.048,0,0,1-1.988,2.994h0A5.109,5.109,0,0,1,9.508,25.671Zm1.012-8.75a5.013,5.013,0,0,0-2.943.987,4.921,4.921,0,0,0-1.938,2.915,3.8,3.8,0,0,0,3.438,4.7c.143.014.288.02.431.02a4.978,4.978,0,0,0,2.934-.988h0a4.918,4.918,0,0,0,1.937-2.916A3.79,3.79,0,0,0,11.2,16.973,4.453,4.453,0,0,0,10.52,16.921Z"/><path d="M11.322,7.644c2.61,1.909,3.349,5.337,1.648,7.655s-5.189,2.648-7.8.739S1.825,10.7,3.522,8.378,8.712,5.731,11.322,7.644Z"/><path d="M8.868,17.388A6.376,6.376,0,0,1,5.11,16.126a6.312,6.312,0,0,1-2.483-3.741A4.911,4.911,0,0,1,7.071,6.316a6.315,6.315,0,0,1,4.315,1.24,6.31,6.31,0,0,1,2.543,4.067,4.9,4.9,0,0,1-4.506,5.739C9.238,17.379,9.053,17.388,8.868,17.388ZM7.619,6.512A4.889,4.889,0,0,0,3.61,8.443a4.791,4.791,0,0,0-.771,3.9,6.094,6.094,0,0,0,2.4,3.611,6.16,6.16,0,0,0,3.63,1.221q.268,0,.534-.025a4.686,4.686,0,0,0,4.312-5.489,6.09,6.09,0,0,0-2.456-3.924h0A6.18,6.18,0,0,0,7.619,6.512Z"/><path d="M9.038,13.439a2.462,2.462,0,0,1-.125-3.462,2.456,2.456,0,0,1,3.42-.553,2.454,2.454,0,0,1,.125,3.462A2.459,2.459,0,0,1,9.038,13.439Z" style="fill:lime"/><path d="M9.038,13.439a2.462,2.462,0,0,1-.125-3.462,2.456,2.456,0,0,1,3.42-.553,2.454,2.454,0,0,1,.125,3.462A2.459,2.459,0,0,1,9.038,13.439Z" style="fill:none"/><path d="M8.219,13.238a2.463,2.463,0,0,1-.129-3.466,2.464,2.464,0,0,1,3.424-.553,2.459,2.459,0,0,1,.125,3.466A2.459,2.459,0,0,1,8.219,13.238Z"/><path d="M8.219,13.238a2.463,2.463,0,0,1-.129-3.466,2.464,2.464,0,0,1,3.424-.553,2.459,2.459,0,0,1,.125,3.466A2.459,2.459,0,0,1,8.219,13.238Z" style="fill:none"/><path d="M10.08,15.942c-.475-.316-1.023-.62-1.553-.914A9.055,9.055,0,0,1,5.3,12.586c-.146-.218-.3-.406-.44-.587-.521-.655-1.013-1.273-.2-2.281.184-.226.351-.458.512-.682A3.192,3.192,0,0,1,7.21,7.408a.327.327,0,0,1,.094,0l.056.007c1.247.167,2.324.311,3.188,1.813a.327.327,0,0,1,.041.2c-.018.161-.02.369-.023.609-.011.935-.025,2.217-.973,2.95a.328.328,0,0,1-.041.027l-1.646.913c.307.181.624.357.938.531.541.3,1.1.611,1.6.941ZM7.267,8.061c-.679.127-1.07.672-1.562,1.357-.167.232-.339.472-.536.713-.484.6-.311.816.2,1.462.146.183.311.39.471.631a5.564,5.564,0,0,0,1.716,1.492l-.146-.263,1.8-1a3.062,3.062,0,0,0,.7-2.426c0-.2,0-.394.017-.563-.691-1.14-1.479-1.245-2.656-1.4Z" style="fill:blue"/><path d="M7.587,12.3A1.6,1.6,0,1,1,9.22,10.7,1.617,1.617,0,0,1,7.587,12.3Z" style="fill:#f36"/><path d="M7.587,12.3A1.6,1.6,0,1,1,9.22,10.7,1.617,1.617,0,0,1,7.587,12.3Z" style="fill:none"/><path d="M8.314,11.606a.806.806,0,1,1,.1-1.125A.8.8,0,0,1,8.314,11.606Z" style="fill:blue"/><path d="M8.314,11.606a.806.806,0,1,1,.1-1.125A.8.8,0,0,1,8.314,11.606Z" style="fill:none"/><path d="M10.22,16.048a8.671,8.671,0,0,0-2.131-.9,5.106,5.106,0,0,1-2.861-1.641c-.1-.145-.2-.295-.315-.453a7.6,7.6,0,0,1-.938-1.581,1.7,1.7,0,0,1,.186-1.754,3.887,3.887,0,0,1,3.2-2.175l.042,0a5.854,5.854,0,0,1,1.875.538A2.26,2.26,0,0,1,10.505,9.4a.327.327,0,0,1,.013.132c-.015.138-.022.3-.03.464a3.236,3.236,0,0,1-1.067,2.671L7.707,14.028,7.3,13.517l1.716-1.367,0,0a2.631,2.631,0,0,0,.816-2.185c.007-.151.013-.295.026-.431C9.613,8.872,8.68,8.376,7.343,8.2A3.315,3.315,0,0,0,4.7,10.083a.328.328,0,0,1-.023.032c-.519.639-.01,1.465.765,2.562.115.163.224.316.325.468A4.6,4.6,0,0,0,8.29,14.527a9.147,9.147,0,0,1,2.292.978Z" style="fill:blue"/><path d="M11.11,16.185c-.11.193-.58.129-1.045-.14s-.758-.644-.648-.837.58-.129,1.049.14S11.223,15.992,11.11,16.185Z" style="fill:blue"/><path d="M11.11,16.185c-.11.193-.58.129-1.045-.14s-.758-.644-.648-.837.58-.129,1.049.14S11.223,15.992,11.11,16.185Z" style="fill:none"/><path d="M24.788,17.89a4.471,4.471,0,0,1,1.322,6.159,4.472,4.472,0,0,1-6.273.6,4.471,4.471,0,0,1-1.322-6.159A4.468,4.468,0,0,1,24.788,17.89Z"/><path d="M22.808,25.71A5.113,5.113,0,0,1,19.8,24.7a4.541,4.541,0,0,1-1.336-6.25,4.009,4.009,0,0,1,2.909-1.6,5.194,5.194,0,0,1,5.44,3.985,3.935,3.935,0,0,1-3.557,4.857Q23.031,25.71,22.808,25.71Zm-.989-8.754q-.218,0-.435.021a3.88,3.88,0,0,0-2.816,1.55A4.411,4.411,0,0,0,19.876,24.6a4.994,4.994,0,0,0,2.935.982,3.957,3.957,0,0,0,3.247-1.566,3.873,3.873,0,0,0,.626-3.151,4.92,4.92,0,0,0-1.934-2.917h0A4.972,4.972,0,0,0,21.819,16.956Z"/><path d="M16.091,21.337c-2.424,0-4.386-1.568-4.386-3.508s1.962-3.508,4.386-3.508,4.386,1.572,4.386,3.508S18.515,21.337,16.091,21.337Z" style="fill:#ff0"/><path d="M16.091,21.468a5.1,5.1,0,0,1-3.184-1.055,3.3,3.3,0,0,1-1.333-2.583c0-2.006,2.026-3.638,4.517-3.638s4.517,1.632,4.517,3.638a3.3,3.3,0,0,1-1.333,2.583A5.1,5.1,0,0,1,16.091,21.468Zm0-7.015c-2.347,0-4.256,1.515-4.256,3.377s1.909,3.377,4.256,3.377,4.256-1.515,4.256-3.377S18.437,14.452,16.091,14.452Z"/><path d="M13.083,17.788a1.754,1.754,0,1,1,1.758-1.754A1.755,1.755,0,0,1,13.083,17.788Z" style="fill:#fff"/><path d="M13.083,17.94a1.906,1.906,0,1,1,1.91-1.906A1.909,1.909,0,0,1,13.083,17.94Zm0-3.508a1.6,1.6,0,1,0,1.6,1.6A1.6,1.6,0,0,0,13.083,14.433Z"/><path d="M26.845,16.25c-2.591,1.9-6.061,1.568-7.746-.735s-.955-5.708,1.636-7.61,6.061-1.568,7.746.735S29.436,14.352,26.845,16.25Z"/><path d="M23.175,17.592q-.277,0-.553-.026a4.885,4.885,0,0,1-4.417-6.03,6.449,6.449,0,0,1,6.753-4.948,4.886,4.886,0,0,1,4.417,6.032,6.273,6.273,0,0,1-2.465,3.716h0A6.337,6.337,0,0,1,23.175,17.592ZM24.4,6.78A6.119,6.119,0,0,0,20.8,7.993c-2.539,1.863-3.263,5.209-1.613,7.458a4.756,4.756,0,0,0,3.456,1.9,6.053,6.053,0,0,0,4.138-1.187h0c2.539-1.86,3.263-5.205,1.613-7.458a4.756,4.756,0,0,0-3.456-1.9Q24.672,6.78,24.4,6.78Z"/><path d="M27.417,14.776a2.447,2.447,0,0,1-3.4-.553,2.446,2.446,0,0,1,.121-3.443,2.444,2.444,0,0,1,3.4.553A2.446,2.446,0,0,1,27.417,14.776Z" style="fill:lime"/><path d="M27.417,14.776a2.447,2.447,0,0,1-3.4-.553,2.446,2.446,0,0,1,.121-3.443,2.444,2.444,0,0,1,3.4.553A2.446,2.446,0,0,1,27.417,14.776Z" style="fill:none"/><path d="M26.606,14.776a2.447,2.447,0,0,1-3.4-.553,2.441,2.441,0,0,1,.121-3.439,2.446,2.446,0,0,1,3.4.549A2.449,2.449,0,0,1,26.606,14.776Z"/><path d="M26.606,14.776a2.447,2.447,0,0,1-3.4-.553,2.441,2.441,0,0,1,.121-3.439,2.446,2.446,0,0,1,3.4.549A2.449,2.449,0,0,1,26.606,14.776Z" style="fill:none"/><path d="M21.985,15.774a1.5,1.5,0,0,1-1.2-.724,4.2,4.2,0,0,1-.894-1.855,2.615,2.615,0,0,1,.365-1.963l.162-.243A4.438,4.438,0,0,1,22.254,9.17l.387-.257a5.009,5.009,0,0,1,3.928-.648A2.241,2.241,0,0,1,28,9.774l-.624.193a1.57,1.57,0,0,0-1.027-1.086A4.414,4.414,0,0,0,23,9.457l-.389.258-.092.061,1.02.7.014.01A7.112,7.112,0,0,1,25.1,12.052a2.374,2.374,0,0,1,.451,2.074c-.36,1.167-.878,1.235-2.13,1.4H23.41a7.427,7.427,0,0,0-.733.141A3.163,3.163,0,0,1,21.985,15.774Zm.1-5.7a3.56,3.56,0,0,0-1.127,1.278l-.163.244a2.665,2.665,0,0,0,.493,3.045c.463.573.613.539,1.242.393a8.082,8.082,0,0,1,.794-.152h.011c1.2-.158,1.354-.179,1.591-.945.337-1.093-.957-2.3-1.763-2.92L21.992,10.2Z" style="fill:blue"/><path d="M22.519,14.394a1.459,1.459,0,1,1,1.432-1.458A1.445,1.445,0,0,1,22.519,14.394Z" style="fill:#f36"/><path d="M22.519,14.394a1.459,1.459,0,1,1,1.432-1.458A1.445,1.445,0,0,1,22.519,14.394Z" style="fill:none"/><path d="M23.023,13.772a.8.8,0,1,1,.095-1.121A.8.8,0,0,1,23.023,13.772Z" style="fill:blue"/><path d="M23.023,13.772a.8.8,0,1,1,.095-1.121A.8.8,0,0,1,23.023,13.772Z" style="fill:none"/><path d="M22.18,15.995a1.909,1.909,0,0,1-1.6-.85,5.476,5.476,0,0,1-1.012-2.093,2.876,2.876,0,0,1,.24-2.23l.243-.366a4.393,4.393,0,0,1,1.842-1.775l.271-.18a4.776,4.776,0,0,1,1.957-.615,5.53,5.53,0,0,1,2.437.208A2.5,2.5,0,0,1,28.21,9.706l-.624.193a1.846,1.846,0,0,0-1.25-1.19,5.153,5.153,0,0,0-3.813.334l-.272.181a3.878,3.878,0,0,0-1.659,1.591l-.244.369c-.57.854-.07,2.555.736,3.548.58.717.939.665,1.9.525.125-.018.253-.037.393-.055l.293-.037c.987-.124,1.192-.15,1.408-.842a2.972,2.972,0,0,0-.753-3.138l-2.27-.949.252-.6,2.311.966a.326.326,0,0,1,.074.043,3.072,3.072,0,0,1,1.1,1.8,4.109,4.109,0,0,1-.092,2.078c-.341,1.094-.912,1.166-1.95,1.3l-.289.037c-.135.018-.261.036-.384.054A6.351,6.351,0,0,1,22.18,15.995Z" style="fill:blue"/><path d="M18.89,17.788a1.754,1.754,0,1,1,1.754-1.754A1.758,1.758,0,0,1,18.89,17.788Z" style="fill:#fff"/><path d="M18.89,17.94A1.906,1.906,0,1,1,20.8,16.034,1.91,1.91,0,0,1,18.89,17.94Zm0-3.508a1.6,1.6,0,1,0,1.6,1.6A1.6,1.6,0,0,0,18.89,14.433Z"/><path d="M13.136,16.905a.879.879,0,1,1,.875-.879A.879.879,0,0,1,13.136,16.905Z"/><path d="M13.136,16.905a.879.879,0,1,1,.875-.879A.879.879,0,0,1,13.136,16.905Z" style="fill:none"/><path d="M18.955,16.807a.875.875,0,1,1,.875-.875A.876.876,0,0,1,18.955,16.807Z"/><path d="M18.955,16.807a.875.875,0,1,1,.875-.875A.876.876,0,0,1,18.955,16.807Z" style="fill:none"/><path d="M16.518,20.245a2.893,2.893,0,0,1-1.429-.409,1.164,1.164,0,0,1-.689-1.1l.388.056c-.049.336.336.61.5.712a1.958,1.958,0,0,0,1.831.2.605.605,0,0,0,.174-.689.2.2,0,0,1,0-.043v-.1h.392v.081a.96.96,0,0,1-.332,1.071A1.423,1.423,0,0,1,16.518,20.245Z" style="fill:#f36"/><path d="M15.393,14.3a7.155,7.155,0,0,1,.027-1.053,3.464,3.464,0,0,0-.171-1.812l0-.008-.25-.6-.212.357.155.03-.059.3-.367-.072a.153.153,0,0,1-.1-.228l.477-.8a.153.153,0,0,1,.272.019l.366.871a3.747,3.747,0,0,1,.2,1.965A6.826,6.826,0,0,0,15.7,14.28Z"/><path d="M16.766,14.3l-.3-.023a6.77,6.77,0,0,0-.028-1.01,3.73,3.73,0,0,1,.2-1.963L17,10.437a.153.153,0,0,1,.272-.019l.477.8a.153.153,0,0,1-.1.228l-.367.072-.059-.3.155-.03-.212-.357-.25.6,0,.008a3.446,3.446,0,0,0-.168,1.808A7.1,7.1,0,0,1,16.766,14.3Z"/><path d="M7.818,23.712a2.591,2.591,0,0,1-.076-3.636,2.59,2.59,0,0,1,3.583-.633,2.584,2.584,0,0,1,.072,3.633A2.583,2.583,0,0,1,7.818,23.712Z" style="fill:#f36"/><path d="M7.818,23.712a2.591,2.591,0,0,1-.076-3.636,2.59,2.59,0,0,1,3.583-.633,2.584,2.584,0,0,1,.072,3.633A2.583,2.583,0,0,1,7.818,23.712Z" style="fill:none"/><path d="M15.691,23.605l-.621-1.03a.131.131,0,0,1-.019-.068V21.375h.262v1.1l.6,1Z"/><path d="M17.074,23.609l-.621-1.03a.131.131,0,0,1-.019-.068V21.375H16.7v1.1l.6,1Z"/><path d="M9,22.367c-.455-.371-.383-1.212.163-1.875s1.352-.9,1.811-.527.379,1.212-.163,1.879S9.454,22.742,9,22.367Z" style="fill:blue"/><path d="M9,22.367c-.455-.371-.383-1.212.163-1.875s1.352-.9,1.811-.527.379,1.212-.163,1.879S9.454,22.742,9,22.367Z" style="fill:none"/><path d="M24.314,23.716a2.588,2.588,0,0,1-3.583-.636,2.587,2.587,0,0,1,.076-3.633,2.59,2.59,0,0,1,3.583.633A2.591,2.591,0,0,1,24.314,23.716Z" style="fill:#f36"/><path d="M24.314,23.716a2.588,2.588,0,0,1-3.583-.636,2.587,2.587,0,0,1,.076-3.633,2.59,2.59,0,0,1,3.583.633A2.591,2.591,0,0,1,24.314,23.716Z" style="fill:none"/><path d="M23,22.473c-.455.371-1.265.136-1.807-.523s-.617-1.5-.159-1.875,1.261-.14,1.807.523S23.451,22.1,23,22.473Z" style="fill:blue"/><path d="M23,22.473c-.455.371-1.265.136-1.807-.523s-.617-1.5-.159-1.875,1.261-.14,1.807.523S23.451,22.1,23,22.473Z" style="fill:none"/><path d="M28.322,10.53c-.231.159-.731-.163-1.121-.724s-.523-1.14-.3-1.3.731.163,1.121.723S28.549,10.371,28.322,10.53Z" style="fill:blue"/><path d="M28.322,10.53c-.231.159-.731-.163-1.121-.724s-.523-1.14-.3-1.3.731.163,1.121.723S28.549,10.371,28.322,10.53Z" style="fill:none"/><rect x="20.523" y="16.922" width="0.174" height="0.14"/><path d="M20.712,17.077h-.2v-.17h.2Zm-.174-.03h.144v-.11h-.144Z"/></svg>