<svg xmlns="http://www.w3.org/2000/svg" viewBox="0 0 32 32"><title>file_type_elasticbeanstalk</title><polygon points="12.534 3.733 12.534 16 11.107 16 11.107 27.553 16 30 18.956 16 16 2 12.534 3.733" style="fill:#9d5025"/><polygon points="16 2 16 16 16 30 19.466 28.267 19.466 16 20.893 16 20.893 4.447 16 2" style="fill:#f58536"/><polygon points="26.092 12.432 19.908 13.01 17.869 12.772 24.325 6.18 26.092 12.432" style="fill:#6b3a19"/><polygon points="24.325 6.18 26.092 7.063 26.092 12.432 24.325 12.058 24.325 6.18" style="fill:#f58536"/><polygon points="17.869 12.772 24.325 12.058 24.325 6.18 17.869 7.913 17.869 12.772" style="fill:#9d5025"/><polygon points="5.908 19.568 12.092 18.99 14.131 19.228 7.675 25.82 5.908 19.568" style="fill:#fbbf93"/><polygon points="7.675 25.82 5.908 24.937 5.908 19.568 7.675 19.942 7.675 25.82" style="fill:#9d5025"/><polygon points="14.131 19.228 7.675 19.942 7.675 25.82 14.131 24.087 14.131 19.228" style="fill:#f58536"/></svg>