<svg xmlns="http://www.w3.org/2000/svg" viewBox="0 0 32 32"><title>file_type_nodemon</title><path d="M15.336,29.822a1.324,1.324,0,0,0,1.325,0l10.976-6.333a1.325,1.325,0,0,0,.663-1.148V9.664a1.327,1.327,0,0,0-.662-1.148L16.662,2.178a1.327,1.327,0,0,0-1.326,0L4.363,8.516A1.326,1.326,0,0,0,3.7,9.664V22.342a1.325,1.325,0,0,0,.663,1.147l10.973,6.333" style="fill:#76d04b"/><path d="M23.106,12.978l-.489-.282a6.49,6.49,0,0,0,.638-5.275s-1.27,3.56-3.823,3.442l-2.99-1.72a.779.779,0,0,0-.367-.107h-.069a.792.792,0,0,0-.368.107l-2.99,1.72c-2.553.118-3.823-3.442-3.823-3.442A6.489,6.489,0,0,0,9.464,12.7l-.489.282a.807.807,0,0,0-.4.7L8.586,24a.394.394,0,0,0,.2.348.385.385,0,0,0,.4,0l3.96-2.268a.811.811,0,0,0,.4-.7V16.562a.8.8,0,0,1,.4-.7l1.686-.971a.8.8,0,0,1,.4-.109.784.784,0,0,1,.4.109l1.686.971a.8.8,0,0,1,.4.7v4.824a.812.812,0,0,0,.4.7l3.959,2.268a.391.391,0,0,0,.4,0A.4.4,0,0,0,23.5,24l.013-10.326a.8.8,0,0,0-.4-.7Z" style="fill:#4f4d3f"/></svg>