<svg xmlns="http://www.w3.org/2000/svg" xmlns:xlink="http://www.w3.org/1999/xlink" viewBox="0 0 32 32"><defs><linearGradient id="a" x1="17.65" y1="26.056" x2="21.099" y2="26.056" gradientUnits="userSpaceOnUse"><stop offset="0" stop-color="#4d4d4d"/><stop offset="0.5" stop-color="#fff"/><stop offset="1" stop-color="#4d4d4d"/></linearGradient><linearGradient id="b" x1="17.65" y1="23.756" x2="21.099" y2="23.756" xlink:href="#a"/><linearGradient id="c" x1="17.65" y1="21.456" x2="21.099" y2="21.456" xlink:href="#a"/><linearGradient id="d" x1="17.65" y1="19.156" x2="21.099" y2="19.156" xlink:href="#a"/><linearGradient id="e" x1="17.65" y1="16.857" x2="21.099" y2="16.857" xlink:href="#a"/><linearGradient id="f" x1="17.65" y1="14.557" x2="21.099" y2="14.557" xlink:href="#a"/><linearGradient id="g" x1="17.65" y1="12.257" x2="21.099" y2="12.257" xlink:href="#a"/><linearGradient id="h" x1="17.65" y1="9.957" x2="21.099" y2="9.957" xlink:href="#a"/><linearGradient id="i" x1="17.65" y1="7.657" x2="21.099" y2="7.657" xlink:href="#a"/><linearGradient id="j" x1="16.237" y1="27.217" x2="19.686" y2="27.217" xlink:href="#a"/><linearGradient id="k" x1="16.237" y1="24.918" x2="19.686" y2="24.918" xlink:href="#a"/><linearGradient id="l" x1="16.237" y1="22.618" x2="19.686" y2="22.618" xlink:href="#a"/><linearGradient id="m" x1="16.237" y1="20.318" x2="19.686" y2="20.318" xlink:href="#a"/><linearGradient id="n" x1="16.237" y1="18.018" x2="19.686" y2="18.018" xlink:href="#a"/><linearGradient id="o" x1="17.65" y1="28.356" x2="21.099" y2="28.356" xlink:href="#a"/><linearGradient id="p" x1="16.237" y1="15.718" x2="19.686" y2="15.718" xlink:href="#a"/><linearGradient id="q" x1="16.237" y1="13.419" x2="19.686" y2="13.419" xlink:href="#a"/><linearGradient id="r" x1="16.237" y1="11.119" x2="19.686" y2="11.119" xlink:href="#a"/><linearGradient id="s" x1="16.237" y1="8.819" x2="19.686" y2="8.819" xlink:href="#a"/><linearGradient id="t" x1="16.237" y1="29.514" x2="19.686" y2="29.514" xlink:href="#a"/><linearGradient id="u" x1="16.985" y1="11.196" x2="20.446" y2="11.196" xlink:href="#a"/><linearGradient id="v" x1="18.096" y1="5.329" x2="19.336" y2="5.329" xlink:href="#a"/><linearGradient id="w" x1="16.029" y1="5.591" x2="21.403" y2="5.591" xlink:href="#a"/></defs><title>file_type_zip</title><path d="M27.667,27.667V17.333L23,15V2H4.333V30H27.667Zm-4.667,0V18.556l2.333,1.222v7.889Z" style="fill:#c09553"/><rect x="17.65" y="25.559" width="3.45" height="0.993" style="fill:url(#a)"/><rect x="17.65" y="23.26" width="3.45" height="0.993" style="fill:url(#b)"/><rect x="17.65" y="20.96" width="3.45" height="0.993" style="fill:url(#c)"/><rect x="17.65" y="18.66" width="3.45" height="0.993" style="fill:url(#d)"/><rect x="17.65" y="16.36" width="3.45" height="0.993" style="fill:url(#e)"/><rect x="17.65" y="14.06" width="3.45" height="0.993" style="fill:url(#f)"/><rect x="17.65" y="11.76" width="3.45" height="0.993" style="fill:url(#g)"/><rect x="17.65" y="9.461" width="3.45" height="0.993" style="fill:url(#h)"/><rect x="17.65" y="7.161" width="3.45" height="0.993" style="fill:url(#i)"/><rect x="16.237" y="26.721" width="3.45" height="0.993" style="fill:url(#j)"/><rect x="16.237" y="24.421" width="3.45" height="0.993" style="fill:url(#k)"/><rect x="16.237" y="22.121" width="3.45" height="0.993" style="fill:url(#l)"/><rect x="16.237" y="19.821" width="3.45" height="0.993" style="fill:url(#m)"/><rect x="16.237" y="17.522" width="3.45" height="0.993" style="fill:url(#n)"/><rect x="17.65" y="27.859" width="3.45" height="0.993" style="fill:url(#o)"/><rect x="16.237" y="15.222" width="3.45" height="0.993" style="fill:url(#p)"/><rect x="16.237" y="12.922" width="3.45" height="0.993" style="fill:url(#q)"/><rect x="16.237" y="10.622" width="3.45" height="0.993" style="fill:url(#r)"/><rect x="16.237" y="8.322" width="3.45" height="0.993" style="fill:url(#s)"/><rect x="16.237" y="29.018" width="3.45" height="0.993" style="fill:url(#t)"/><path d="M20.1,5.911a.554.554,0,0,0-.548-.53h-.009v.557h.092l.206,2.514H17.589L17.8,5.938h.094V5.381h-.044a.552.552,0,0,0-.547.53l-.314,10.569a.513.513,0,0,0,.515.531h2.432a.512.512,0,0,0,.513-.531Zm-1.384,10.5a1.171,1.171,0,1,1,1.171-1.171A1.171,1.171,0,0,1,18.716,16.408Z" style="fill:url(#u)"/><rect x="18.096" y="3.802" width="1.24" height="3.054" style="fill:url(#v)"/><path d="M21.4,4.56a2.549,2.549,0,0,0-2.549-2.549h-.276a2.55,2.55,0,0,0-2.436,3.3h0l0,.006v0A7.986,7.986,0,0,1,16.4,7.878H16.4a1.811,1.811,0,0,0,.641,1.271l.109-3.441a.593.593,0,0,1,.6-.551h.135V3.587h1.653v1.57h.1a.6.6,0,0,1,.605.551l.121,3.462a1.813,1.813,0,0,0,.666-1.292h0V7.8c0-.014,0-.027,0-.041s0-.026,0-.039a7.693,7.693,0,0,1,.236-2.359A2.543,2.543,0,0,0,21.4,4.56Z" style="fill:url(#w)"/></svg>