<svg xmlns="http://www.w3.org/2000/svg" viewBox="0 0 32 32"><title>file_type_ng_component_scss</title><defs><clipPath id="a"><path d="m0 0h223v236h-223z" fill="#fff" /></clipPath><linearGradient id="b"><stop offset="0" stop-color="#de3641" /><stop offset="1" stop-color="#b13138" /></linearGradient><linearGradient id="c"><stop offset="0" stop-color="#de3641" /><stop offset="1" stop-color="#de3641" stop-opacity="0" /></linearGradient></defs><g transform="matrix(.11923 0 0 .11923 2.7608 1.986)" clip-path="url(#a)"><path d="m222.08 39.192-8.019 125.92-76.671-165.12zm-53.105 162.82-57.933 33.056-57.934-33.056 11.783-28.556h92.301zm-57.933-139.34 30.357 73.803h-60.715zm-103.1 102.44-7.937-125.92 84.69-39.192z" fill="url(#b)" /><path d="m222.08 39.192-8.019 125.92-76.671-165.12zm-53.105 162.82-57.933 33.056-57.934-33.056 11.783-28.556h92.301zm-57.933-139.34 30.357 73.803h-60.715zm-103.1 102.44-7.937-125.92 84.69-39.192z" fill="url(#c)" /></g><path d="M22.65,15.29a7.35,7.35,0,1,1-7.35,7.35h0A7.35,7.35,0,0,1,22.65,15.29Z" style="fill:#c69" /><path d="M27.26,18.44c-.33-1.31-2.5-1.73-4.55-1a10.3,10.3,0,0,0-3.49,2c-1.13,1.06-1.31,2-1.23,2.36.26,1.36,2.12,2.24,2.88,2.9h0c-.22.11-1.87.95-2.26,1.8a1.19,1.19,0,0,0,.38,1.63,2.31,2.31,0,0,0,2.49-1,2.53,2.53,0,0,0,.25-2.25,3,3,0,0,1,1.13-.06c1.29.15,1.54,1,1.49,1.29a.85.85,0,0,1-.41.58c-.09.06-.12.08-.11.12s.05.06.13,0a1,1,0,0,0,.7-.9,1.82,1.82,0,0,0-1.966-1.662q-.052,0-.1.012a3.54,3.54,0,0,0-1.15.16l-.06-.06c-.83-.88-2.36-1.51-2.3-2.7,0-.43.17-1.57,2.94-3,2.27-1.13,4.09-.82,4.4-.13.45,1-1,2.82-3.33,3.08a1.77,1.77,0,0,1-1.49-.38c-.12-.14-.14-.14-.19-.12s0,.16,0,.23a1.4,1.4,0,0,0,.85.67,4.51,4.51,0,0,0,2.74-.2C26.47,21.26,27.59,19.72,27.26,18.44ZM21.18,25.1a1.88,1.88,0,0,1,0,1.1v.22a2.05,2.05,0,0,1-.34.5,1.251,1.251,0,0,1-1.28.49c-.28-.15-.14-.82.36-1.34a5,5,0,0,1,1.3-.93h0Z" style="fill:#fff" /></svg>
