<svg xmlns="http://www.w3.org/2000/svg" viewBox="0 0 32 32"><title>file_type_bithound</title><path d="M28.638,14.849a15.139,15.139,0,0,0-.7-3.244A19.659,19.659,0,0,0,22.75,3.478c-.1-.09-.5-.325-.641-.245-.384.212.34,1.684.429,1.95a9.25,9.25,0,0,1,.5,5.037A5.01,5.01,0,0,1,18.5,14.226c-1.259.106-2.527-.038-3.792.11a7.183,7.183,0,0,0-5.014,2.422,4.968,4.968,0,0,0-.38.581H9.284a2.15,2.15,0,0,1-1.161-.272l-.162-.092a8.407,8.407,0,0,1-3.067-3.941,11.352,11.352,0,0,1-.689-2.061,5.523,5.523,0,0,1-.1-.973,1.387,1.387,0,0,0-.091-.658c-.242-.386-.556-.017-.6.292a7.657,7.657,0,0,0-.133,1.525A8.183,8.183,0,0,0,3.871,13.7a11.119,11.119,0,0,0,1.934,3.273,11.849,11.849,0,0,0,1.112,1.133,5.633,5.633,0,0,1,1.073.971,2.609,2.609,0,0,1,.332,1.581A12.2,12.2,0,0,0,8.609,24.8a11.949,11.949,0,0,0,1.538,3.552,7.081,7.081,0,0,0,1.331,1.472c.339.266.98.3.609-.682a6.959,6.959,0,0,1,.384-6.424c1.067-1.684,2.955-3.18,5.092-2.913a6.051,6.051,0,0,1,5.164,6.347,8.481,8.481,0,0,1-.348,2.414,2.1,2.1,0,0,0-.112,1.074c.134.577.777.365,1.055-.014.757-1.033,1.56-2.034,2.274-3.1A17.622,17.622,0,0,0,28.638,14.849Z" style="fill:#c31230"/><path d="M11.074,6.374a4.679,4.679,0,0,1,.14.551.644.644,0,0,0,.073.254A2.262,2.262,0,0,0,12.379,8.21a8.338,8.338,0,0,0,1.038.432,4.738,4.738,0,0,0,1.6-.073c.9-.072,1.734-.392,2.562.088-4.234,4.968-.239,6.076,2.866,3.68,3.539-2.73.208-9.168.208-9.168s-.077-.5-1.415-.8c-.125-.064-.252-.123-.378-.181-1.329-.615-2.525.395-3.486,1.209-.277.234-.553.476-.845.693a7.376,7.376,0,0,1-1.277.754,4.373,4.373,0,0,1-1.554.493,2.408,2.408,0,0,0-.361.046c-.227.019-.346.081-.4.181a.349.349,0,0,0-.134.307.858.858,0,0,0,.2.456A.8.8,0,0,0,11.074,6.374Z" style="fill:#c31230"/></svg>