<svg xmlns="http://www.w3.org/2000/svg" xmlns:xlink="http://www.w3.org/1999/xlink" viewBox="0 0 32 32"><defs><radialGradient id="a" cx="16" cy="-119.283" r="13.5" gradientTransform="matrix(1, 0, 0, -0.945, 0, -96.735)" gradientUnits="userSpaceOnUse"><stop offset="0" stop-color="#575757"/><stop offset="1" stop-color="#2f2f2f"/></radialGradient></defs><title>file_type_jinja</title><path d="M29.34,3.241a38.271,38.271,0,0,1-9.451,3.04c-4.241.55-12.329,1.1-13.935.712A23.3,23.3,0,0,1,3.2,6.151l.334,1.132L2.5,8.188l.183.323.424.032,1.3.162.183.582.727.066.364,1.228s1.544.13,2,.13,1.363-.064,1.363-.064l.03.485.334.064v.55l-.728.648.183.032v.225a15.816,15.816,0,0,1-2.3.034c-.666-.1-.788-.1-.788-.1l-.06.064-.03.291h.151l.06,1.262,3.363-.13-.243,4.365-.03.549-2.848-.162-.03-1.164h.635l.061-.453.575-.13.091-.128-2.151-.518-1.636.485.273.227h.273l.03.389.575.032V18.7l-.635.162.121.257.151.1v.873h.394v4.041l-.637.1.091,1.164.393.066-.06,2.651,1.727.032-.364-2.619,2.605-.064-.181,1.422-.243,1,2.635.032.03-2.586,1.817-.162-.09,1.649-.061.969h1.546l-.061-2.651.213.034.06-1.262h-.243l-.09-.518L13.8,21.9l.06-1.713h.333V19.149l-.424.032.061-1.22.493-.049.023-.4.28-.041.287-.218L13.187,16.9l-1.712.379.167.274.181-.015.211-.008.039.5.477-.023.009,1.082-2.053-.047.069-1.156.067-1.051V15.455L10.7,14l4.111-.21,4.892-.282.046.929-.174,2.231L19.5,18.744l-1.8-.032-.009-1.455.667-.024.03-.411.273-.041-.014-.081.273-.015.151-.2L17.034,16,15,16.44l.144.251.227-.017v.114h.28v.46l.6.008-.007,1.277h-.605l-.009.291.213.024-.023,1.108.447.024-.053,4.39-.591.12.007.21h.206v1.124h.34l-.09,1.536L15.974,28.7l2.151.056-.069-1.164-.158-.969-.031-.841,1.826-.032-.053,1.3-.009,1.374,1.031.081,1.4-.056.44-.13-.243-.736-.06-1.156-.114-.824,1.742-.064-.076,1.01-.007,1.585.7.064.69-.015.333-.105-.2-1.5L25.2,25.445l.3-.032L25.5,24.4l.083-.017-.014-.218h-.341l-.069-.744L25.13,20.2l.257-.008V19.133l.107.017v-.21l-.38-.034.009-1.228.635-.056-.037-.413.28-.024-.016-.081.371-.186-1.886-.379-1.916.389.121.226.3-.024.016.1h.25l.014.485.621-.008.053,1.188-2.2-.017-.257-1.786-.206-.946-.166-1.7.1-.993,4.377-.332.014-1.479.22-.056-.014-.225-.167-.1s-2.393.355-3.151.436l-.371.04-.023-.274-.905-.474.011-.552.311-.009.023-.759a24.807,24.807,0,0,0,2.544-.283c.689-.162,1.666-.323,1.666-.323L26.2,7.809l.917-.267.076-.21,2.074-.574.236-.194-.788-1.722.076-.389.4-.21.288-.881ZM19.374,9.8l-.011.626.47.02-.03.594-.921.6-.057.174.371,0,0,.146-2.814.137.019-.416.128-.207.009-.133,0-.286.08-.19.03-.154v-.11l.121-.485Zm-5.885.533-.069.421.22.259-.014.453.2.315-.053.372.151.218-2.871.113-.007-.1.333-.041.016-.122-.727-.395-.039-.631.348-.017.03-.68Zm4.249,9.7,1.742.113L19.42,22.5l.227,1.923L17.8,24.354Zm-11.663.1,2.788.145L8.62,21.9v1.359l.2.759-2.727.13Zm17.843.015v4.01l-1.772.13-.061-2.118-.2-1.973ZM10.5,20.24l2.06.008.021,3.718L10.657,24l-.1-1.205-.007-1.2Z" style="stroke:red;stroke-width:0.5px;fill:url(#a)"/></svg>