<svg xmlns="http://www.w3.org/2000/svg" viewBox="0 0 32 32"><title>file_type_ng_component_css</title><defs><clipPath id="a"><path d="m0 0h223v236h-223z" fill="#fff" /></clipPath><linearGradient id="b"><stop offset="0" stop-color="#de3641" /><stop offset="1" stop-color="#b13138" /></linearGradient><linearGradient id="c"><stop offset="0" stop-color="#de3641" /><stop offset="1" stop-color="#de3641" stop-opacity="0" /></linearGradient></defs><g transform="matrix(.11923 0 0 .11923 2.7608 1.986)" clip-path="url(#a)"><path d="m222.08 39.192-8.019 125.92-76.671-165.12zm-53.105 162.82-57.933 33.056-57.934-33.056 11.783-28.556h92.301zm-57.933-139.34 30.357 73.803h-60.715zm-103.1 102.44-7.937-125.92 84.69-39.192z" fill="url(#b)" /><path d="m222.08 39.192-8.019 125.92-76.671-165.12zm-53.105 162.82-57.933 33.056-57.934-33.056 11.783-28.556h92.301zm-57.933-139.34 30.357 73.803h-60.715zm-103.1 102.44-7.937-125.92 84.69-39.192z" fill="url(#c)" /></g><polygon points="18.59 28.34 17.47 15.74 29.82 15.74 28.69 28.34 23.64 29.74 18.59 28.34" style="fill:#1572b6" /><polygon points="23.64 28.67 27.73 27.53 28.69 16.77 23.64 16.77 23.64 28.67" style="fill:#33a9dc" /><polygon points="23.64 21.33 25.69 21.33 25.83 19.75 23.64 19.75 23.64 18.2 23.65 18.2 27.52 18.2 27.48 18.62 27.1 22.88 23.64 22.88 23.64 21.33" style="fill:#fff" /><polygon points="23.65 25.35 23.65 25.35 21.93 24.88 21.82 23.65 20.98 23.65 20.26 23.65 20.48 26.08 23.64 26.96 23.65 26.95 23.65 25.35" style="fill:#ebebeb" /><polygon points="25.56 22.81 25.37 24.88 23.65 25.35 23.65 26.96 26.82 26.08 26.84 25.82 27.11 22.81 25.56 22.81" style="fill:#fff" /><polygon points="23.65 18.2 23.65 19.16 23.65 19.75 23.65 19.75 19.92 19.75 19.92 19.75 19.92 19.75 19.89 19.4 19.81 18.62 19.78 18.2 23.65 18.2" style="fill:#ebebeb" /><polygon points="23.64 21.33 23.64 22.29 23.64 22.88 23.64 22.88 21.95 22.88 21.95 22.88 21.94 22.88 21.91 22.53 21.84 21.75 21.81 21.33 23.64 21.33" style="fill:#ebebeb" /></svg>
