<svg xmlns="http://www.w3.org/2000/svg" viewBox="0 0 32 32"><title>file_type_lync</title><path d="M16.027,2.893h1.82c0,1.558.012,3.118-.012,4.676.567-.3,1.149-.777,1.841-.628,1.393.213,2,1.655,2.829,2.621a6.868,6.868,0,0,1,5.167,1.494,6.331,6.331,0,0,1,2.03,6.788,6.7,6.7,0,0,1-2.969,3.694,2.58,2.58,0,0,1,.015,2.438,2.137,2.137,0,0,1-3.137.564c-.671-.68-1.2-1.478-1.832-2.195a9.737,9.737,0,0,1-3.935-.668c.006,2.475,0,4.953,0,7.428h-1.89C11.312,28.259,6.651,27.485,2,26.668Q2,16,2,5.338C6.676,4.518,11.355,3.725,16.027,2.893Z" style="fill:#0071c5"/><path d="M18.219,8.718a1.265,1.265,0,0,1,2.158-.448c1.262,1.536,2.451,3.133,3.7,4.682a34.522,34.522,0,0,0-4.091.094,3.136,3.136,0,0,0-2.14,2.134c.015-1.332-.027-2.664.03-3.993.384-.165.771-.323,1.164-.485C18.664,10.1,17.993,9.5,18.219,8.718Z" style="fill:#fff"/><path d="M23.044,10.422a6.065,6.065,0,0,1,4.469,1.68,5.472,5.472,0,0,1,1.027,6.3,5.914,5.914,0,0,1-3.191,2.789c.347.564.921,1.1.832,1.826a1.328,1.328,0,0,1-1.609,1,3.658,3.658,0,0,1-1.158-1.11c-1.021-1.338-2.076-2.649-3.115-3.975a24.459,24.459,0,0,0,4.228-.146,3.008,3.008,0,0,0,1.631-4.389C25.217,12.995,24.041,11.775,23.044,10.422Z" style="fill:#fff"/><path d="M7.788,11.2q.919-.046,1.847-.088,0,4.028,0,8.056c1.009.046,2.021.07,3.033.122q0,.946,0,1.9c-1.628-.119-3.255-.2-4.88-.311Q7.784,16.034,7.788,11.2Z" style="fill:#fff"/><path d="M20.06,13.976a17.66,17.66,0,0,1,3.892-.088,2.116,2.116,0,0,1,1.106,3.545c-1.183.93-2.8.555-4.188.588A2.079,2.079,0,0,1,18.71,16,2.039,2.039,0,0,1,20.06,13.976Z" style="fill:#fff"/><path d="M17.829,16.616c.744,1.85,2.335,3.161,3.46,4.77a6.381,6.381,0,0,1-3.447-.811C17.847,19.255,17.862,17.936,17.829,16.616Z" style="fill:#fff"/></svg>