<svg xmlns="http://www.w3.org/2000/svg" viewBox="0 0 32 32"><title>file_type_composer</title><path d="M20.661,27.15l4.029-1.642.067-1.424.7-1.445.154-1.6.788-2.408.875-2.014-.067-.482-.13-.439.088-.5L27.01,14.6l.088-.415-.788-.963-3.5,1.227.154.46-.327.548.306.942-.482.942.679,2.036,1.445.766c-.067.021-1.839-.154-1.839-.154l.415.854-.482,1.336-.569.285-.482.154-.942,1.094-.7,1.727.591,1.708ZM5.843,15.057l3.574.409.46,2.272L9.1,19.574l.433.315.748,2.078.872.966.6.363,1.063,1.015,1.233.918-.436.942.073.7-.145.388-.267.748L10.7,27.259l.073-.436-.363-.482.121-.46L7,23.3l-.267-.654L5.964,22.4l-.024-5.534-.315-.8Z" style="fill:#7d6a4c"/><path d="M24.008,19.144a1.28,1.28,0,0,0-.2-.027.4.4,0,0,0-.061,0,.13.13,0,0,0-.118.094.6.6,0,0,0-.018.079.086.086,0,0,0,0,.027c.176.064.351.13.53.194l.012,0C24.15,19.353,24.2,19.186,24.008,19.144Zm-.127,1.8a.25.25,0,0,1,.021.03.268.268,0,0,1,.021.042,2.827,2.827,0,0,1,.221.282v0l.006.009c0-.073.042-.254-.009-.315S23.963,20.943,23.881,20.946Zm1.53-1.872a.03.03,0,1,0-.015.058A.03.03,0,0,0,25.41,19.074Zm0-3.3c.006.179-.006.285.2.285s.342.015.351-.212c0-.079.024-.233-.042-.294-.052-.049-.185-.027-.251-.033C25.447,15.5,25.4,15.539,25.414,15.769Zm-.682,1.451c.036-.045.015-.164.012-.215s0-.212-.033-.26c-.061-.079-.357-.055-.433,0s-.106.439.006.485C24.347,17.257,24.678,17.284,24.732,17.22ZM13.243,26.289c.006,0,.009-.018.012-.024a.148.148,0,0,0,.012-.064c0-.027-.006-.061-.009-.091a.506.506,0,0,0-.006-.067.038.038,0,0,1-.012-.024v-.012a.328.328,0,0,0,0-.055,1.445,1.445,0,0,0-.012-.16H13.14a.915.915,0,0,0-.351,0c-.061.03-.07.1-.073.173,0,.042.006.085.006.121,0,.009,0,.015,0,.021,0,.109,0,.179.118.212a.8.8,0,0,0,.351,0,.042.042,0,0,1,.045-.027Zm.351-.454a.314.314,0,0,0-.042-.012.773.773,0,0,1-.221.033c0,.024.012.051.012.076a.629.629,0,0,1,0,.076.042.042,0,0,1-.009.027.693.693,0,0,1,0,.07v.006a.084.084,0,0,0,0,.027.027.027,0,0,0,0,.015c0,.021.006.048.012.076s.006.03.009.061h.051a.334.334,0,0,1,.033-.148c.045-.1.121-.206.164-.3l-.015,0Zm-.224.606-.006.021,0,.009h-.039c0,.091-.006.182-.006.27a.905.905,0,0,0,0,.091c.021.052.064.058.1.07.042-.006.085-.009.127-.012v0a2.088,2.088,0,0,0-.1-.445Zm.039.566a.14.14,0,0,0-.064.033c-.039.055-.018.188-.015.261v.021a.385.385,0,0,0,.133-.1.39.39,0,0,0,.085-.23c-.039.006-.082.009-.121.015Zm7.358-.675c.121.006.251.024.324-.039a.44.44,0,0,0,.048-.242.452.452,0,0,0-.045-.242.953.953,0,0,0-.451-.021.2.2,0,0,0-.058.173c0,.036,0,.076,0,.112a.549.549,0,0,1-.009.1l.006.015a1.079,1.079,0,0,0,.033.106c0,.006,0-.006,0,.024h.106C20.746,26.32,20.761,26.32,20.767,26.332Zm5.013-7.2c-.1-.015-.312-.033-.367.064a.766.766,0,0,0,.024.427c.058.073.233.058.357.049a.385.385,0,0,1,.058,0,.217.217,0,0,1-.024-.055c0-.012,0-.024-.006-.036a.306.306,0,0,1,.039-.152l.009-.018h-.006v0C25.819,19.277,25.968,19.162,25.78,19.132Zm-18.426-3.1c.088.045.421.048.463-.055S7.73,15.53,7.9,15.5a.2.2,0,0,0-.124-.021c-.127.091-.36-.061-.46.064C7.245,15.624,7.257,15.975,7.354,16.027Zm16.76,9.2a.16.16,0,0,0-.094-.042c-.1-.015-.3-.03-.366.055a.609.609,0,0,0-.015.433.181.181,0,0,0,.139.052,1.289,1.289,0,0,1,.188,0c.012,0,.024,0,.036,0,.03,0,.064-.006.094-.006a.355.355,0,0,0,.033-.015l-.009-.112C24.111,25.462,24.114,25.344,24.114,25.223Zm-1.572-.66a.059.059,0,0,0-.021.006.169.169,0,0,0,.021,0c-.167.006-.13.17-.127.291,0,.182-.015.236.173.242.1,0,.282.036.348-.067s0-.245.018-.366a.1.1,0,0,1,.015-.042c-.021-.024-.045-.07-.067-.07a.276.276,0,0,0-.049,0A1.075,1.075,0,0,1,22.542,24.563ZM10.1,24.578c-.088-.009-.318-.033-.373.045s-.027.315-.021.43a.145.145,0,0,0,.03.015.064.064,0,0,0,.021-.033c0,.009,0,.018-.006.027l-.009.012c.024.015.045.03.067.045a1.056,1.056,0,0,1,.309-.009c.16.009.121-.161.121-.273C10.241,24.7,10.271,24.593,10.1,24.578Zm13.225-9.757c.042,0,.085,0,.127,0a.109.109,0,0,1,.085-.051.338.338,0,0,0,.012-.064.056.056,0,0,1-.015-.033,1.661,1.661,0,0,0-.03-.209h0c-.142.088-.224.024-.179.254A.421.421,0,0,1,23.329,14.821Zm.088.606c.115.006.1-.254.1-.324,0-.03.012-.067.012-.1a.107.107,0,0,1-.085-.082c-.045,0-.094,0-.139,0a2.051,2.051,0,0,1-.318.43.581.581,0,0,1,0,.073C23.12,15.445,23.29,15.418,23.417,15.427Zm1.305,3.729a.707.707,0,0,0-.454-.006c-.106.088-.009.282-.073.4.042.027.085.058.127.085a.627.627,0,0,1,.058.039l.018.012.009-.009a.052.052,0,0,1,.073,0c.082-.042.2.03.264-.061A.746.746,0,0,0,24.723,19.156ZM6.573,21.573c-.091-.082-.306.009-.424-.048a2.414,2.414,0,0,0-.082.412.635.635,0,0,0,.015.148h.006c.142,0,.551.076.527-.148C6.6,21.83,6.657,21.649,6.573,21.573Zm18.144-.121c.082-.073.036-.312.036-.4,0-.148-.351-.136-.448-.094-.145.067-.051.294-.109.424a.222.222,0,0,0,.07.1C24.369,21.479,24.629,21.528,24.717,21.452Zm1.139-7.218c.079,0,.115-.1.124-.2a.356.356,0,0,0,.021.1l.005.01h0c.042.1.136.08.195.08.121,0,.285.03.324-.085a1.731,1.731,0,0,0,.012-.4.2.2,0,0,0-.058-.042.608.608,0,0,0-.182,0c-.076,0-.224-.009-.273.061a.3.3,0,0,0-.048.154.423.423,0,0,0-.033-.133c-.082-.142-.27-.009-.345-.106l-.055.021a.12.12,0,0,1-.118.094c-.006.064-.015.161-.015.242a.363.363,0,0,0,.033.161C25.51,14.279,25.765,14.234,25.856,14.234ZM11.08,26.925c.121,0,.264.036.339-.055a.718.718,0,0,0,.015-.436c-.039-.067-.363-.073-.436-.036-.121.061-.064.245-.094.37.015.07.106.121.164.151ZM21.3,23.987c-.082,0-.1.073-.1.154,0,.055.006.106.006.145V24.3c0,.027,0,.048,0,.07,0,.088.03.121.158.13.064,0,.266.036.327-.015l.015-.015a.7.7,0,0,0,.057-.233c0-.085-.039-.164-.039-.242v0a.726.726,0,0,0-.121-.012ZM8.329,23.366c-.088,0-.327-.045-.4.021-.055.048-.042.264-.033.363,0,.012,0,.021,0,.03a.95.95,0,0,0,.154.118.117.117,0,0,1,.064.009h0c.136-.049.291.055.309-.154C8.435,23.654,8.481,23.366,8.329,23.366Zm16.4-2.826a.739.739,0,0,1-.012-.115,1.527,1.527,0,0,0-.385-.1c-.03,0-.061,0-.091,0a.845.845,0,0,0-.006.451c.036.085.1.091.188.1s.254.033.309-.03.012-.182.015-.273A.043.043,0,0,1,24.732,20.54Zm-1.8,5.561c0-.085.03-.188,0-.245-.051-.088-.267-.079-.373-.073l-.006-.006c-.042.042-.073,0-.094-.012h0l0,0a.75.75,0,0,0-.045.454.123.123,0,0,0,.051.082c.033.018.076.006.124.009a.348.348,0,0,1,.079-.027.63.63,0,0,1,.17-.015l.158-.073a.06.06,0,0,1-.039.006.153.153,0,0,0,.039-.006A.109.109,0,0,1,22.936,26.1ZM21.1,24.592l-.017-.006.015.005a2,2,0,0,0-.38-.016c-.048.106-.1.212-.145.315.024.079.009.164.091.209a.81.81,0,0,0,.33.009c.221-.042.1-.288.158-.46a.236.236,0,0,1-.024-.049Zm-12.06-5.8c-.015-.091,0-.258-.094-.258s-.3-.039-.379.006-.058.17-.064.26-.03.185.036.245a.586.586,0,0,0,.276.067,1.509,1.509,0,0,1,.148-.164l.012-.012,0,0c.021-.045.039-.094.061-.139Zm4.168,8.224A.651.651,0,0,0,12.852,27c-.1.021-.109.051-.118.157-.006.07-.036.288.018.342s.291.033.367.033h0c.03-.091.109-.118.17-.173a.057.057,0,0,1-.006-.021C13.258,27.234,13.312,27.071,13.209,27.013Zm10.938-6.24c.03-.1.036-.36-.058-.418a.759.759,0,0,0-.427.006c-.064.055-.036.136-.03.212a.028.028,0,0,1,0,.015.614.614,0,0,1-.009.148l.151.136c.015.006.03.015.042.021C23.951,20.831,24.1,20.94,24.147,20.773Zm-17.081.778c-.236.021-.357-.045-.376.242-.006.076-.036.206.027.264a.118.118,0,0,0,.1.024h.006a.158.158,0,0,1,.118.018s.009.006.012.012c.061-.045.194-.158.212-.045a.063.063,0,0,1,0,.042C7.248,21.982,7.306,21.531,7.066,21.552Zm16.551-6.84c.009.082.055.1.139.115s.318.024.376-.045a.889.889,0,0,0,.021-.348c-.006-.1-.03-.16-.148-.164-.079.024-.161.051-.236.082a.846.846,0,0,1-.16.073,1.3,1.3,0,0,1,.033.242A.04.04,0,0,1,23.617,14.712ZM10.4,25.187c-.124.042-.076.16-.091.266,0,.015,0,.033,0,.049v.018a.362.362,0,0,1,.061.058l.009.012c.055.042.112.085.167.124a.1.1,0,0,1,.027-.012.152.152,0,0,1,.039-.006.193.193,0,0,1,.067.018.175.175,0,0,0,.148-.042c.055-.061.015-.309.015-.388C10.847,25.123,10.5,25.153,10.4,25.187Zm1.524,1.8A.9.9,0,0,0,11.6,27c-.118.055-.085.251-.079.376v.036a5.3,5.3,0,0,0,.533.139.128.128,0,0,1,0-.033c0-.055.012-.112.009-.17C12.052,27.2,12.107,27.016,11.925,26.986Zm10.481-1.754a1.55,1.55,0,0,0,.124.506.7.7,0,0,1,.285-.024c.091,0,.109-.045.124-.124a.914.914,0,0,0,0-.339C22.878,25.123,22.515,25.166,22.406,25.232Zm-1.039-1.327a.729.729,0,0,1,.215-.012.22.22,0,0,1,.121.055c-.018-.16-.058-.318-.067-.479,0-.061.067-.339-.012-.366-.021-.006-.058.027-.1.079-.124.145-.3.448-.351.5C21.215,23.812,21.185,23.927,21.367,23.905Zm5.7-7.742a.309.309,0,0,0-.088-.049v0h0l0,0c-.006,0-.015,0-.024,0s-.03,0-.049,0-.045,0-.07,0l-.012.009a.51.51,0,0,1-.179.085,1.106,1.106,0,0,0,0,.248c0,.076-.012.151.061.194a.494.494,0,0,0,.248.018c.052-.006.1-.015.124-.021v.082c-.039,0-.091-.006-.145-.009a.473.473,0,0,0-.233.021c-.1.055-.045.176-.042.267.006.167-.006.2.064.23.03.012.073.027.139.048.073-.185.218-.339.218-.551a.164.164,0,0,0,.024-.1c.027-.133.058-.267.091-.4A.28.28,0,0,1,27.07,16.163Zm-3.656,1.154a1.192,1.192,0,0,1-.254-.006,3.06,3.06,0,0,0-.1.43.33.33,0,0,1,.1.112c.118.009.315.036.373-.055a.476.476,0,0,0,.012-.2C23.545,17.484,23.578,17.323,23.414,17.317ZM21.74,26.491l0,.016,0-.017v-.012h0c-.023-.11-.115-.09-.211-.09-.076,0-.239-.033-.3.033a.516.516,0,0,0-.006.427.174.174,0,0,0,.076.094v.006c.151-.073.321-.148.485-.209a.135.135,0,0,1-.051-.112C21.73,26.589,21.743,26.535,21.74,26.491Zm1.684-3.724a.775.775,0,0,1-.333-.027,2.034,2.034,0,0,0,0,.606c.015-.145.373.027.448-.112a.863.863,0,0,0,.018-.33C23.551,22.806,23.542,22.754,23.423,22.766Zm.115-7.212c.009-.055-.509-.121-.551.076a1.4,1.4,0,0,0,.239.424c.039-.015.076-.027.115-.039a.047.047,0,0,1,.055.021A.153.153,0,0,0,23.52,16C23.6,15.912,23.52,15.657,23.539,15.554Zm1.4,4.186c-.179.049-.033.179-.106.285.009.012.018.021.027.033A.666.666,0,0,1,25,20.11a.206.206,0,0,1,.118.16c.079,0,.179.024.227-.039a.887.887,0,0,0-.012-.454C25.274,19.7,25.023,19.716,24.935,19.74ZM9.368,22.264a1.573,1.573,0,0,1-.267.012,1.242,1.242,0,0,0,0,.3c.024.118.112.106.218.109.151.006.327.03.342-.17-.052-.1-.13-.185-.179-.288A.5.5,0,0,1,9.368,22.264Zm-.63-1.342a3.353,3.353,0,0,0-.26.439c.033.118.118.118.221.118s.27.039.327-.058a.877.877,0,0,0,0-.406C8.972,20.894,8.838,20.982,8.738,20.922Zm1.8,2.193a.072.072,0,0,1,.03.033c.006.027-.021.049-.058.064-.064.024-.127-.027-.185-.036h-.009c.018,0,.009,0,.012,0,0,.139.33.17.43.121.082-.039.091-.133.088-.221a.1.1,0,0,1-.088-.115.2.2,0,0,1,0-.042,3.238,3.238,0,0,1-.463-.469l0,0C10.326,22.691,10.289,22.954,10.538,23.115Zm12.886.236a1.252,1.252,0,0,1-.336.009v.133a1.8,1.8,0,0,0,.027.4c.151,0,.4.073.433-.121a1.52,1.52,0,0,0,.015-.191C23.563,23.469,23.533,23.351,23.423,23.351Zm.021,1.754c.13-.049.1-.145.1-.273,0-.1.049-.257-.1-.257a.585.585,0,0,1-.26-.024c.015.109.027.218.042.345-.045-.045-.088-.085-.127-.121s-.058-.055-.085-.082a.2.2,0,0,1,0,.039c-.009.106-.039.306.036.357A.96.96,0,0,0,23.445,25.105Zm-.064-2.935c-.076-.03-.167.027-.224-.058a1.848,1.848,0,0,0-.07.6c.194-.091.445.082.457-.2,0-.039.015-.127.015-.2a.209.209,0,0,0-.015-.1C23.511,22.155,23.445,22.17,23.381,22.17ZM7.954,20.352c-.091.055-.061.209-.058.3,0,.248.112.212.33.212h.012a2.1,2.1,0,0,0,.157-.5h0A.751.751,0,0,0,7.954,20.352ZM26.4,17.981a.533.533,0,0,1-.067,0h-.009a.15.15,0,0,0,.055-.006.376.376,0,0,0-.058,0,.053.053,0,0,1-.051-.052v-.012c-.139-.012-.285-.006-.294.145,0,.027,0,.064,0,.1a.533.533,0,0,0,.042.245.134.134,0,0,0,.079.055.043.043,0,0,1,.039-.015h.17c-.015-.03-.045-.027-.079-.033.036.006.076,0,.091.033h.03a4.041,4.041,0,0,0,.2-.439,1.082,1.082,0,0,1-.136-.021ZM12.77,24.557h-.012c-.033.124-.1.524.07.545a1.028,1.028,0,0,0,.373,0c.118-.048.033-.124.091-.206A1.467,1.467,0,0,0,12.77,24.557ZM24.9,14.409a.47.47,0,0,1,.067-.091.7.7,0,0,0-.112.009.167.167,0,0,0-.024.112C24.859,14.406,24.85,14.4,24.9,14.409Zm-.03-.2.012.009c.058,0,.115-.006.173-.006.1,0,.191,0,.288,0a.845.845,0,0,0,.024-.348h-.127v-.1a.914.914,0,0,0-.154.064c0,.006-.012.009-.018.015a.734.734,0,0,1-.251.164v.145l.009.006A.224.224,0,0,0,24.865,14.212Zm.142.615c.124,0,.315.045.348-.106a1.235,1.235,0,0,0-.021-.279.321.321,0,0,0-.006-.115c-.049,0-.1,0-.145-.006-.018.009-.036.021-.051.03a.062.062,0,0,0,.027-.03c-.064,0-.13,0-.194,0-.021.03-.058.058-.07.091-.042-.012-.036,0-.07.03C24.832,14.642,24.765,14.821,25.008,14.827Zm-3.1,10.26.012,0a.084.084,0,0,0,.027,0,.791.791,0,0,1,.085,0c-.058-.179-.127-.354-.2-.53a.674.674,0,0,0-.033.161.61.61,0,0,0,.012.282A.174.174,0,0,0,21.906,25.087Zm.1.1c-.03,0-.061,0-.091.006a.075.075,0,0,1-.021-.006.1.1,0,0,0-.067.033c-.058.07-.018.27-.015.348a.39.39,0,0,0,.009.073.14.14,0,0,1,.039.055.338.338,0,0,0,.164.018c.1,0,.224.024.306-.039a.143.143,0,0,0,.03-.03c-.094-.154-.188-.306-.285-.46A.534.534,0,0,0,22,25.184ZM9.05,15.666c-.191-.03-.385-.058-.567-.088s-.394-.048-.575-.073a1.6,1.6,0,0,0,0,.4c.006.167.1.13.251.124.1,0,.224.03.264-.085s-.03-.227.051-.348c.094.212-.085.433.224.436.076,0,.236.033.3-.015s.049-.276.058-.348l0-.009v0h0Zm-2.632,5.81c.23.021.2-.17.2-.36-.006-.218-.185-.167-.363-.17a2.89,2.89,0,0,0-.1.533C6.242,21.482,6.33,21.467,6.418,21.476Zm2.36,2.481H8.772c-.221,0-.23.009-.288.2a.105.105,0,0,0,0,.03v0c.151.112.3.227.485.339l.009-.012a.475.475,0,0,0,.076-.3.535.535,0,0,0-.021-.173C8.987,23.936,8.887,23.957,8.778,23.957Zm.733-6.1c.009-.067.012-.136.015-.206-.018-.109-.039-.221-.058-.33-.082,0-.161,0-.242,0s-.1.039-.118.1a1.36,1.36,0,0,0,0,.333C9.15,17.9,9.365,17.862,9.511,17.853Zm11.5,8.536c-.082,0-.164,0-.248,0a.054.054,0,0,1-.039.018h-.079a2.016,2.016,0,0,0,.148.479c.033.006.067.012.1.021.07-.027.194.049.23-.1l0-.012a.866.866,0,0,0,.018-.173C21.146,26.51,21.115,26.386,21.009,26.389Zm2.426-2.417h-.324c.024.185.048.37.076.557.127-.058.312.042.357-.124C23.572,24.3,23.6,23.969,23.436,23.972Zm.1-2.251a.179.179,0,0,1,.006-.058.051.051,0,0,0-.061-.058c-.009,0-.015,0-.021,0a.409.409,0,0,0-.267.282l-.006.018-.027.188c.1-.006.288.027.37-.058a1.214,1.214,0,0,1-.009-.233C23.523,21.779,23.529,21.749,23.536,21.721Zm1.575-1.378-.006.009c.052.064.236.26.121.276-.033,0-.127-.067-.158-.079a1.4,1.4,0,0,0-.239-.085v.012a.155.155,0,0,0,.006.036.048.048,0,0,1-.012.042c-.009.109-.015.251.064.3a.637.637,0,0,0,.424-.009c.082-.064.067-.318.045-.409C25.329,20.313,25.226,20.34,25.111,20.343ZM6.3,20.34a.662.662,0,0,1-.079.176l.027.327,0,.027v.006c.206,0,.357.048.363-.191,0-.094.036-.267-.042-.33S6.388,20.352,6.3,20.34Zm3.535,2.414c-.009-.009-.017-.014-.02-.017l0,0c-.115.064-.176.448-.061.539.045.036.158.018.212.018.13,0,.282.021.306-.145a4.109,4.109,0,0,1-.453-.408A.06.06,0,0,0,9.835,22.754Zm3.729,2.408-.009-.006c-.058.036-.136.006-.179.061s-.027.218-.03.285c-.012.218.07.182.188.206a.04.04,0,0,1,.036.006.274.274,0,0,0,.082.021h.018a.52.52,0,0,0,.1-.279A.458.458,0,0,0,13.564,25.163ZM27.01,14.991a.044.044,0,0,1-.03.018h-.012c-.052.006-.151-.009-.194.027s-.036.109-.045.154l-.018.082-.009.039c.106.039.273.109.333.064.03-.021.045-.182.052-.221a.736.736,0,0,0,.009-.112.377.377,0,0,1-.033-.127h-.015l0,0A.053.053,0,0,1,27.01,14.991ZM12.594,25.1c.079-.109.091-.391-.048-.427a.208.208,0,0,1-.061.021l-.094.009a.549.549,0,0,1-.1,0c-.045.064-.091.127-.139.188a.131.131,0,0,1-.039.151.107.107,0,0,1-.042.061l0,.006.006,0,0,0C12.222,25.15,12.528,25.187,12.594,25.1Zm10.847-8.385a.058.058,0,0,1-.027.012.686.686,0,0,1-.079.006.108.108,0,0,1-.082.061l-.009.024v.006a1.574,1.574,0,0,1-.067.43c.136-.006.312.039.357-.1C23.566,17.051,23.593,16.714,23.442,16.711Zm.1-.276c0-.067.033-.233-.015-.291a.175.175,0,0,0-.136-.039.049.049,0,0,1-.021.012.553.553,0,0,0-.076.024.46.46,0,0,1,.049.476l0,.012a.585.585,0,0,0,.073-.006h.009a.04.04,0,0,1,.019.006C23.515,16.6,23.539,16.571,23.539,16.436Zm3.029-1.424c0-.1-.115-.121-.224-.121-.058,0-.115.006-.157.009-.142.009-.182.148-.161.282a.383.383,0,0,0,.042.133c.16-.154.339-.067.527-.03a.393.393,0,0,1-.018-.055A1.053,1.053,0,0,1,26.568,15.012ZM22.8,24.505a.536.536,0,0,1,.067,0,1.851,1.851,0,0,1-.23-.557.168.168,0,0,0-.067.03l-.015.009a.056.056,0,0,1-.061-.012c-.079.015-.1.118-.1.224a1.792,1.792,0,0,0,.027.209C22.451,24.548,22.651,24.517,22.8,24.505Zm.488-6.028c.076-.048.16.012.227-.058s.024-.288.03-.376c.009-.167-.221-.1-.351-.1,0,.009,0,.021,0,.033a.109.109,0,0,1-.027.073C23.205,18.2,23.242,18.332,23.284,18.477Zm1.472,3.214a.036.036,0,0,1,0-.024c.006-.185-.321-.115-.436-.112l0,0a4.2,4.2,0,0,1,.218.527h-.012c-.009,0-.012,0-.012,0,.073,0,.176.021.224-.042S24.759,21.791,24.756,21.691ZM9.265,16.711c-.209-.018-.16.221-.157.36,0,.257.182.115.357.2-.039-.209-.079-.418-.118-.63A.07.07,0,0,1,9.265,16.711Zm11.808,7.77c.07-.055.045-.173.045-.251h.006c0-.121,0-.188-.045-.224-.009-.006-.015-.018-.027-.018h-.139c-.067.182-.118.339-.17.512v0C20.824,24.5,21,24.536,21.073,24.481ZM11.443,27.1c0,.025.007.054,0,0,0-.029,0-.018,0,0-.016-.135-.215-.12-.357-.108a.055.055,0,0,1-.067.018C11.01,27,11,27,11,27a1.649,1.649,0,0,0,0,.173.038.038,0,0,0,0,.018v0a.166.166,0,0,0,.073.115,1.516,1.516,0,0,0,.412.1.11.11,0,0,1-.012-.027A.757.757,0,0,1,11.443,27.1ZM9.135,22.037a.884.884,0,0,0,.2-.009.283.283,0,0,0,.094-.039c-.015-.115-.033-.227-.058-.342a.4.4,0,0,1-.058-.067.225.225,0,0,1-.021-.036c-.07.012-.148.018-.182.082a.815.815,0,0,0-.006.321A.19.19,0,0,0,9.135,22.037Zm14.309,3.747c-.091.006-.321-.045-.4.021-.039.033-.045.161-.042.264,0,.052.006.1.006.124.158-.07.315-.142.473-.212a.243.243,0,0,1,.061-.121l-.012-.03A.087.087,0,0,0,23.445,25.783ZM26.686,14.8a.244.244,0,0,0,.157.039.038.038,0,0,1,.024-.018.274.274,0,0,1,.061-.018l.018,0a.342.342,0,0,1-.055-.2.283.283,0,0,1,.067-.251.441.441,0,0,1,.015-.048,1.235,1.235,0,0,0-.151-.006.268.268,0,0,0-.073.009c-.121.033-.106.1-.106.215C26.643,14.6,26.616,14.733,26.686,14.8ZM9.153,16A.26.26,0,0,0,9.238,16l.018,0a1.48,1.48,0,0,0-.048-.179.359.359,0,0,0-.058-.109.313.313,0,0,0-.045-.021,1.375,1.375,0,0,1-.006.194A.281.281,0,0,0,9.153,16Zm-.045.4h0v0a.613.613,0,0,0,0,.072c0-.011,0-.026,0-.048,0,.217.009.218.24.218,0-.009,0-.024-.006-.039-.012-.1-.033-.312-.067-.509a.038.038,0,0,1-.018,0,.4.4,0,0,1-.085.009c-.018.027-.051.051-.064.085a.67.67,0,0,0,0,.206ZM8.5,19.5l-.005.005c0,.084.025.131.084.152a.293.293,0,0,1,.024-.088l0-.018a1.291,1.291,0,0,1,.158-.354c-.1.018-.2.006-.2.167,0-.012.006-.027.006-.036s0,.014.005.03H8.566a.448.448,0,0,0,.024.179c-.006-.009-.012-.015-.015-.021a.456.456,0,0,1-.015-.221c.033-.1.121-.088.2-.109a.43.43,0,0,1,.033-.045.929.929,0,0,0-.26.012A.084.084,0,0,0,8.5,19.2.832.832,0,0,0,8.5,19.5Zm.785,5.08c-.058,0-.118-.009-.164.039,0,0-.006.009-.012.012a6.118,6.118,0,0,0,.5.379.19.19,0,0,1,.036.015v-.006c0-.055.009-.127.009-.194a.32.32,0,0,0-.036-.179C9.544,24.548,9.378,24.575,9.281,24.575Zm-.1-6.067V18.5a1.918,1.918,0,0,1,.309-.5c0-.009,0-.021.006-.03s0-.021.006-.033a.993.993,0,0,0-.285.012c-.182.045-.13.421-.045.545ZM12.031,25.2c-.145.176-.3.342-.463.506.118,0,.385.055.469-.042.064-.076.027-.321.018-.451C12.046,25.214,12.04,25.208,12.031,25.2ZM23.648,21.64v.009c0,.048-.018.1-.024.148a1.012,1.012,0,0,0,.006.215.111.111,0,0,0,.112.07c.106,0,.212,0,.318,0H24.1A1.91,1.91,0,0,0,23.648,21.64Zm-1.236,2.208a.092.092,0,0,0,.036.039.135.135,0,0,0,.045.015l0,0,.024-.018a.36.36,0,0,1,.048-.024.268.268,0,0,1-.082-.1.221.221,0,0,1-.018-.091.2.2,0,0,0,.018.085.3.3,0,0,0,.085.109.229.229,0,0,1,.042-.012,3.777,3.777,0,0,1-.085-.942c-.009,0-.021.009-.03.009-.024.136-.051.282-.076.421-.012.067-.024.127-.036.185v.1a.166.166,0,0,1,.009-.052C22.478,23.627,22.366,23.766,22.412,23.848ZM22.251,26.4l-.015,0,0,0h0c-.112-.009-.336-.064-.418.055a.244.244,0,0,0-.024.151,1,1,0,0,1,.009.127l.533-.236C22.312,26.459,22.3,26.414,22.251,26.4Zm1.29-7.642c0-.211-.057-.191-.236-.25a2.143,2.143,0,0,1,.1.517.577.577,0,0,0,.024.209.118.118,0,0,0,.079.067.159.159,0,0,0,0-.039c0-.015.006-.027.009-.039a.223.223,0,0,1-.039-.167c.012-.049.058-.076.07-.127A.79.79,0,0,0,23.542,18.759ZM9.274,20.922A.237.237,0,0,0,9.1,21.2c0,.185.036.257.176.276a.208.208,0,0,1,.052-.17C9.308,21.176,9.29,21.049,9.274,20.922Zm17.5-6.712.088,0h.024a.368.368,0,0,1,.118.027l.027-.045a2.911,2.911,0,0,0-.388-.448.239.239,0,0,1,.012.079c0,.07-.018.142-.018.2h-.006v0C26.628,14.191,26.689,14.209,26.771,14.209Zm-19.086,9.2a2.014,2.014,0,0,1-.233-.012.663.663,0,0,1,.1.139.541.541,0,0,1,.045.094c.07.051.139.1.206.142a.28.28,0,0,1,.012.064c0-.03,0-.079.006-.13C7.836,23.566,7.83,23.409,7.684,23.412Zm-.518-1.278a3.635,3.635,0,0,0-.212.557c.058,0,.185.015.23-.024s.03-.161.03-.251h0C7.215,22.329,7.242,22.188,7.166,22.133ZM9.29,20.325H9.268c-.051.021-.112.009-.145.067s0,.185-.006.248c0,.164-.012.2.151.257-.036-.079-.1-.133-.1-.227,0,.088.064.148.1.221v0A5.11,5.11,0,0,1,9.29,20.325ZM6.106,22.158H6.1c.012.073.236.2.394.236a.172.172,0,0,0,.024-.021.289.289,0,0,0,.067-.1.228.228,0,0,0,.024-.039C6.56,22.094,6.227,22.158,6.106,22.158Zm20.031-3.626v0h-.015c-.055.018-.082.064-.085.176v.1a1.84,1.84,0,0,0,.024.315c.079-.2.158-.385.239-.6ZM7.075,22.76c-.048,0-.1,0-.127-.049a.13.13,0,0,0-.012.112A.449.449,0,0,0,7,22.966c.033.036.067.076.1.115a.579.579,0,0,0,.042.045c.024.024.048.045.073.067C7.227,23.045,7.281,22.742,7.075,22.76ZM13,27.6l-.006,0H13l-.034,0h-.008a.241.241,0,0,0-.267.133l-.009.021c.061.03.248.136.324.106s.094-.209.109-.279l-.009,0A.346.346,0,0,1,13,27.6Zm-2-4.31a.716.716,0,0,0,.324.006l-.018-.027-.052-.006c.009,0,.027,0,.049,0a.557.557,0,0,1-.045-.082l-.285-.145a.094.094,0,0,1-.033.027.29.29,0,0,0,.285.191.307.307,0,0,1-.294-.185.043.043,0,0,1-.021.006C10.907,23.163,10.916,23.251,11,23.288Zm.563,1.175c.023.04.062.059.079.1h-.006v0c-.118.032-.091.109-.091.218a1.257,1.257,0,0,0-.018.227.105.105,0,0,0,.07.1h0a.207.207,0,0,0,.012-.079c.012-.1.024-.264.033-.367,0-.04,0-.071,0-.087a.073.073,0,0,0,.011-.052l0-.009,0-.015a1.988,1.988,0,0,0,.018-.27c0-.055,0-.112-.006-.167a.112.112,0,0,1-.085-.079.125.125,0,0,0-.061.085.153.153,0,0,0-.006.039v.021c0,.048,0,.1,0,.136A.372.372,0,0,0,11.561,24.463ZM24.514,14.227l.015,0h-.015c.127-.006.176-.03.206-.088v-.094a1.345,1.345,0,0,1-.2.03l-.148.055c-.058.021-.115.045-.173.07l-.006.009a1.078,1.078,0,0,0,.312.027Zm.021,8.033h0a1.107,1.107,0,0,1,.121.509.419.419,0,0,0,.085-.388C24.72,22.267,24.647,22.261,24.535,22.261ZM6.177,15.332s0,0,0,0v.02c.021.1.182.085.264.082.111,0,.169-.092.267-.1a.1.1,0,0,0,.1.1,1.885,1.885,0,0,0,.415-.027.089.089,0,0,0-.049-.012,2.618,2.618,0,0,0-.461-.06h0c-.176-.051-.361-.048-.539-.091A.14.14,0,0,1,6.177,15.332ZM23.42,20.343c-.094,0-.191,0-.285,0l.4.309v-.061a.052.052,0,0,1,.015-.039C23.554,20.446,23.548,20.337,23.42,20.343Zm-13.331,4.88a.818.818,0,0,1-.191-.015H9.889c.009.012.018.027.027.042l.006.012a2.493,2.493,0,0,0,.209.191.6.6,0,0,1,.073.015.146.146,0,0,0,0-.036v-.006a.056.056,0,0,1,.039-.049C10.232,25.284,10.2,25.208,10.089,25.223Zm16.178-11.6a1.691,1.691,0,0,1,.215,0h.033a.442.442,0,0,0-.2-.164.35.35,0,0,0-.309.064A.257.257,0,0,0,26.268,13.619Zm-17.5,7.258c.16,0,.264.027.267-.158v-.245a.049.049,0,0,1-.024.009H9C8.92,20.61,8.838,20.74,8.766,20.876Zm15.464,1.484a.391.391,0,0,0,0,.236.2.2,0,0,0,.136.076l.1.018a1.423,1.423,0,0,0-.215-.415A.535.535,0,0,1,24.229,22.361Zm-.012,2.968c0,.073,0,.145,0,.218,0,.033,0,.067.006.1l.055-.055a.32.32,0,0,1,.033-.027.272.272,0,0,1-.006-.055c0-.121.03-.291.033-.354A.2.2,0,0,0,24.217,25.329Zm2.42-7.885c0,.018-.006.036-.006.061v0c0,.021,0,.015,0,0,0,.067,0,.136,0,.206a2.775,2.775,0,0,0,.185-.385.318.318,0,0,0-.142.018C26.649,17.357,26.64,17.384,26.637,17.444ZM12.516,27.6l.009,0-.009,0c-.067,0-.133.006-.2.006h-.067a3.158,3.158,0,0,0,.412.145c0-.009,0-.015,0-.024V27.7C12.661,27.622,12.61,27.592,12.516,27.6Zm12.053-7.864H24.49v0a1.663,1.663,0,0,0,.267.215C24.783,19.774,24.753,19.737,24.568,19.737Zm-16.3,4.289H8.254a.1.1,0,0,1-.039-.015l.027.03a.82.82,0,0,0,.176.151.16.16,0,0,1,0,.024l0,0a.489.489,0,0,0-.006-.1C8.405,24.054,8.369,24.03,8.269,24.027Zm5.237,1.084a.6.6,0,0,0-.091-.1.126.126,0,0,1-.07-.061l-.009-.006C13.343,25.1,13.346,25.105,13.506,25.111Zm-2.32,1.206h0c.236,0,.254-.051.267-.282v-.042c0-.185-.058-.191-.264-.191s-.267.006-.273.218v.064a.379.379,0,0,0,.021.161.119.119,0,0,0,.1.067,1,1,0,0,0,.146.006h0Zm-2.411-9.6H8.741c-.194,0-.227.042-.227.26v.012H8.508c0,.212.03.261.264.264s.261-.03.273-.264S9,16.717,8.775,16.714ZM8.511,23.1c0,.115-.009.164.112.188a1.063,1.063,0,0,0,.294,0c.154-.024.115-.145.115-.282,0-.17,0-.242-.182-.248-.079,0-.251-.033-.318.027S8.508,23.021,8.511,23.1Zm-.354-.933c-.227,0-.248.024-.248.251,0,.17-.012.251.17.267.085.006.242.03.309-.015s.051-.182.058-.257v-.033C8.442,22.194,8.357,22.17,8.157,22.17Zm4.329,3.617c-.073,0-.261-.033-.318.018-.079.07-.03.251-.036.339-.012.206.142.176.306.173.142,0,.212-.006.224-.16C12.676,25.974,12.706,25.787,12.485,25.787ZM7.29,17.026c.006.242.118.224.336.221.173,0,.191-.058.191-.182v-.012c0-.03,0-.064,0-.1,0-.236-.033-.236-.264-.236h0c-.23,0-.264.052-.264.245Zm.27,3.853c.221.015.26-.018.26-.239V20.6c0-.2-.024-.248-.257-.248s-.254.03-.261.254a.6.6,0,0,0,0,.073C7.306,20.846,7.351,20.864,7.56,20.879Zm4.5,5.177c0-.173.006-.27-.182-.273-.085,0-.233-.024-.3.027a.177.177,0,0,0-.045.139c0,.036,0,.076,0,.106v.055c0,.167.045.2.205.2a.274.274,0,0,0,.046,0,.3.3,0,0,1-.046,0l.055,0C12.022,26.32,12.055,26.289,12.055,26.056ZM8.5,18.253c.006.227.115.206.324.2s.209-.036.209-.233c0-.242,0-.309-.261-.3S8.493,18,8.5,18.253ZM7.824,21.2c-.021-.218-.048-.251-.27-.251s-.264.033-.264.264c0,.209.038.251.224.265l.049,0C7.805,21.479,7.845,21.44,7.824,21.2Zm.33-3.938c.239,0,.273-.036.273-.273s-.042-.273-.285-.273c-.227,0-.245.058-.245.276C7.893,17.232,7.908,17.263,8.154,17.263Zm4.253,8.451c.224,0,.254-.039.254-.26,0-.2,0-.27-.215-.273h-.091c-.182,0-.236.027-.236.257h.006C12.125,25.681,12.164,25.714,12.407,25.714Zm-4.247-9.6c-.245,0-.257.07-.267.3v.021c0,.215.1.209.309.212s.224-.073.224-.242v-.076C8.426,16.109,8.375,16.112,8.16,16.112Zm5.092,9.115c-.045-.07-.151-.039-.221-.036-.233.006-.336-.039-.336.23,0,.245.045.294.294.294h.039c.182,0,.227-.009.23-.218,0-.039.012-.115.012-.176A.207.207,0,0,0,13.252,25.226Zm-1.8.157v.067c0-.236-.033-.282-.27-.282s-.264.039-.264.266c0,.2.012.27.218.273.024,0,.045,0,.067,0,.2,0,.251-.027.251-.26C11.452,25.417,11.452,25.4,11.452,25.384ZM9.378,23.369c-.236,0-.27.03-.27.267,0,.257.058.267.309.264.209,0,.221-.07.221-.267C9.638,23.409,9.6,23.369,9.378,23.369Zm.606.6H9.892c-.139,0-.176.033-.179.212-.006.245-.015.33.251.333.064,0,.2.027.251-.036s.015-.23.021-.3C10.262,23.951,10.2,23.975,9.983,23.972ZM7.5,19.665h.139c.148,0,.185-.027.185-.221,0-.245-.048-.318-.3-.315-.23,0-.227.07-.227.276C7.293,19.625,7.309,19.659,7.5,19.665Zm1.281,3.717c-.236,0-.273.027-.282.26v.036c0,.206.055.224.285.221s.245-.055.248-.276V23.59C9.032,23.4,9,23.351,8.781,23.381ZM8.962,22.2a.445.445,0,0,0-.194-.024c-.2,0-.276,0-.27.221s.024.3.264.3.276-.039.27-.282v-.039a.427.427,0,0,0-.017-.116A.1.1,0,0,1,8.962,22.2ZM8.5,16.26a.9.9,0,0,0,.012.324c.058.1.273.073.382.058.176-.021.148-.17.145-.318-.009-.218-.073-.221-.282-.2C8.605,16.133,8.52,16.06,8.5,16.26Zm2,7.639c.188.009.333.033.345-.179.015-.236.015-.327-.23-.348-.188-.015-.288-.036-.3.173C10.3,23.736,10.28,23.887,10.5,23.9Zm-1.66-2.348H8.756c-.254,0-.279.133-.254.37.018.2.158.164.33.16.076,0,.142.012.188-.051a.636.636,0,0,0,.024-.3C9.032,21.57,8.96,21.552,8.838,21.552Zm2.22,1.814c-.17,0-.133.1-.133.23,0,.112-.048.251.079.3a.908.908,0,0,0,.373,0c.106-.042.073-.154.061-.254a1.185,1.185,0,0,0,.012-.118v0a.051.051,0,0,1,0-.03.084.084,0,0,0,0-.027c-.021-.03-.045-.058-.07-.088A1.121,1.121,0,0,0,11.059,23.366ZM12.291,27c-.2.018-.176.182-.164.357.015.2.145.179.321.176.23-.006.23-.088.206-.3C12.628,26.983,12.531,26.971,12.291,27ZM8.769,17.32c-.218,0-.258.036-.27.254,0,.027,0,.055,0,.079,0,.17.048.2.26.2.236,0,.27-.03.27-.267v0C9.029,17.357,9,17.32,8.769,17.32ZM7.563,19.059c.227,0,.26-.039.26-.264,0-.239-.006-.267-.251-.267s-.27.03-.273.267S7.336,19.059,7.563,19.059ZM11.2,23.987c-.076,0-.182-.021-.236.042a.619.619,0,0,0-.045.27c-.018.258.133.2.348.2.194-.006.185-.027.185-.218C11.452,24.045,11.449,23.987,11.2,23.987ZM6.9,21.473c.039,0,.079.006.115.006.109,0,.194-.015.206-.158.018-.194.042-.37-.176-.373H7.009c-.036,0-.106-.006-.167-.006a.207.207,0,0,0-.121.024c-.054.048-.029.164-.025.233H6.691C6.691,21.412,6.694,21.467,6.9,21.473Zm.194-2.341c-.094,0-.261-.033-.345.012s-.049.185-.049.273c0,.212-.006.245.221.248.115,0,.239.027.288-.094S7.275,19.126,7.091,19.132Zm6.131,7.291v-.006a.216.216,0,0,0-.124-.036c-.027,0-.058.006-.1.006-.085.009-.221-.03-.264.076a1.3,1.3,0,0,0,0,.288c-.009.173.079.176.23.173a.491.491,0,0,0,.254-.039,1.1,1.1,0,0,1-.006-.173C13.212,26.614,13.218,26.52,13.221,26.423ZM9.387,22.764c-.248,0-.267.057-.282.3-.012.212.058.227.257.227s.27-.015.273-.224C9.638,22.83,9.635,22.764,9.387,22.764Zm-1.82.53c.224,0,.236-.061.254-.279s-.024-.254-.251-.254c-.264,0-.282.073-.279.327C7.293,23.309,7.354,23.3,7.566,23.294Zm.863-5.231c0-.076-.027-.133-.13-.133-.136,0-.351-.079-.4.082a.279.279,0,0,0,0,.088c0,.064.009.133.009.176,0,.015-.006.027-.006.039a.142.142,0,0,0,.033.115.681.681,0,0,0,.412.018.125.125,0,0,0,.085-.133c0-.033-.009-.073-.012-.115v0C8.423,18.153,8.429,18.108,8.429,18.062Zm-.884-1.421H7.6c.206,0,.221-.027.221-.26,0-.248-.064-.27-.309-.273-.209,0-.221.067-.221.267C7.293,16.6,7.327,16.639,7.545,16.642Zm.248,4.928c-.064-.051-.212-.015-.285-.012-.209.012-.227.024-.215.23,0,.058-.021.23.03.276s.167.018.227.018c.1,0,.1,0,.076,0,.188-.009.212-.067.2-.294C7.827,21.734,7.845,21.612,7.793,21.57Zm-.5-3.953c.006.064.021.182.076.224s.161,0,.23.012c.009,0,.021.006.03.006l.009,0a.044.044,0,0,1,.045-.024h.1l0-.006a1.258,1.258,0,0,0,.058-.2.443.443,0,0,0-.033-.242c-.067-.124-.236-.091-.36-.07C7.287,17.347,7.275,17.459,7.29,17.617Zm.088.836c.1.03.382.042.436-.061a.513.513,0,0,0,.03-.2.429.429,0,0,0-.061-.267h-.1a.045.045,0,0,1-.03-.009c-.121-.009-.3-.033-.354.076a.392.392,0,0,0-.027.16C7.269,18.283,7.3,18.426,7.378,18.453Zm2.6,4.913c-.124,0-.233-.024-.27.112a.585.585,0,0,0,.042.388c.064.064.282.048.367.036.148-.021.13-.13.118-.264C10.259,23.324,10.235,23.369,9.977,23.366Zm.6,1.733c.224,0,.273-.021.276-.251s-.021-.27-.245-.273-.285.006-.288.239S10.329,25.1,10.574,25.1ZM7.93,18.547a.635.635,0,0,0-.079.373c.012.154.027.154.179.154v-.015h.227c.121,0,.136-.106.136-.2,0-.07.052-.264-.009-.312A.728.728,0,0,0,7.93,18.547Zm-.106,1.415c0-.118.039-.23-.121-.224-.23.009-.388-.061-.4.218-.012.23-.009.309.236.315.064,0,.206.027.258-.024S7.824,20.034,7.824,19.962Zm3.408,5.162c.206-.006.221-.085.221-.251V24.8c0-.218-.049-.224-.264-.224-.248,0-.239.042-.251.267,0,.045-.015.1-.018.148a.127.127,0,0,0,.036.109C11.01,25.15,11.165,25.126,11.231,25.123ZM8.178,22.76c-.17,0-.291-.018-.279.176,0,.049.024.1.024.148,0,.03-.024.094-.015.121.039.124.248.091.36.085.2-.006.158-.109.164-.279C8.442,22.785,8.411,22.76,8.178,22.76ZM6.836,18.453c.124.009.345.049.382-.1a1.582,1.582,0,0,0,.009-.294c0-.076.015-.13-.082-.133a1.323,1.323,0,0,1-.267,0c-.173-.03-.191.055-.185.2S6.642,18.441,6.836,18.453Zm5.64,7.939c-.076,0-.236-.033-.3.012-.1.07-.033.209-.039.309,0,.036-.006.058-.006.07a.454.454,0,0,0,.005-.046c-.01.228.13.194.349.183.2-.012.164-.073.17-.254S12.664,26.4,12.476,26.392ZM7.066,17.32a2.145,2.145,0,0,0-.279,0c-.133.027-.109.173-.1.279.009.206-.006.236.2.239.142,0,.288.073.33-.094C7.248,17.6,7.263,17.3,7.066,17.32Zm-.391-1.515a1.046,1.046,0,0,0,.006.115c.015.112.076.13.173.13H6.9c.267,0,.312-.006.312-.282,0-.109,0-.194-.112-.233-.085-.03-.3-.082-.373,0A.52.52,0,0,0,6.675,15.806Zm.515,1.275h.024c0-.121.033-.276-.094-.318-.091-.033-.388-.055-.421.039a1.031,1.031,0,0,0-.012.239.456.456,0,0,0,0,.158c.039.082.109.091.2.088h0l0-.006C7.118,17.272,7.19,17.354,7.19,17.081Zm-.427,3.78a.743.743,0,0,0,.415,0c.088-.067.039-.33.036-.427,0-.124-.188-.079-.276-.085-.073,0-.188-.03-.239.039S6.67,20.813,6.763,20.861ZM6.13,16a.208.208,0,0,0,.121.03c.079.006.251.036.315-.015s.045-.2.045-.285.024-.179-.061-.224a1.207,1.207,0,0,0-.418-.006.17.17,0,0,0-.027.094.929.929,0,0,1-.018.224C6.1,15.881,6.121,15.942,6.13,16Zm4.716,8.139c0-.173-.073-.188-.261-.188s-.276.021-.276.2V24.2c.012.233.03.294.267.3.064,0,.2.024.242-.03a.233.233,0,0,0,.024-.136c0-.042,0-.088,0-.118V24.19C10.844,24.175,10.847,24.154,10.847,24.142Zm-2.42-4.68c.006-.2.021-.321-.2-.327-.185-.006-.3-.052-.318.148-.024.236-.042.336.209.37C8.329,19.677,8.417,19.7,8.426,19.462Zm-1.457.285c-.273,0-.248.064-.267.3a.689.689,0,0,0-.006.076c0,.158.07.17.276.167s.251-.036.248-.209v-.03c-.012-.227-.024-.3-.264-.3h.012Zm.454,2.941c.121,0,.285.033.339-.082a.585.585,0,0,0,.049-.285c-.042-.182-.215-.173-.367-.167-.2.006-.191.257-.188.4C7.26,22.712,7.3,22.688,7.424,22.688ZM6.739,19.1a.608.608,0,0,0,.424-.045c.1-.082.124-.53-.061-.521h0a.951.951,0,0,0-.37.064c-.073.049-.045.215-.045.306h0C6.688,18.989,6.66,19.05,6.739,19.1Zm1.6-1.766c-.085-.03-.367-.033-.418.049A.781.781,0,0,0,7.9,17.7c0,.085.012.158.115.158a1.207,1.207,0,0,0,.348-.009c.079-.045.064-.176.067-.273S8.445,17.369,8.335,17.329Zm.094,2.644c0-.154-.024-.23-.218-.236-.164,0-.333-.03-.333.17.03.215.036.354.264.363l-.009-.006.018,0c.048,0,.091.006.127,0a.149.149,0,0,0,.109-.039.267.267,0,0,0,.045-.176C8.432,20.022,8.429,20,8.429,19.974Zm3.442,6.415a.082.082,0,0,0-.022,0c-.2.009-.285,0-.306.215-.015.176-.048.327.167.321.164,0,.324.012.345-.173C12.082,26.542,12.087,26.388,11.872,26.389ZM9.111,24.248c.018.218.079.242.294.254.2.009.251-.048.236-.245-.021-.23-.051-.288-.285-.285S9.093,24.024,9.111,24.248ZM6.33,16.623a.318.318,0,0,0,.212.015c.1-.049.121-.521,0-.521a.9.9,0,0,0-.391.024c.039.07.079.139.118.212C6.333,16.427,6.254,16.56,6.33,16.623Zm.118,1.905c-.209,0-.173.118-.173.3s.012.27.221.233c.164-.027.118-.188.115-.33S6.6,18.529,6.448,18.529Zm.055.606-.049-.007-.015,0,.012,0c-.08-.009-.139,0-.169.1s-.042.363.033.427a.191.191,0,0,0,.3-.109C6.633,19.416,6.666,19.162,6.5,19.135ZM6.43,20.271c.245,0,.185-.212.182-.406,0-.118-.212-.188-.3-.112-.051.042-.048.151-.042.239a.384.384,0,0,1,.048.26A.25.25,0,0,0,6.43,20.271Zm.182-2.232c0-.112-.136-.133-.224-.094s-.076.133-.115.221v.091c.009.154.024.209.191.2C6.685,18.444,6.609,18.214,6.612,18.038Zm-.267-.754a.339.339,0,0,0,.212,0c.045-.027.073-.148.073-.27s-.024-.227-.082-.245c.009,0,.009.006,0,.006v-.015a.315.315,0,0,0-.044-.009l-.01,0,.009,0c-.177-.024-.2.159-.2.328C6.3,17.172,6.273,17.238,6.345,17.284Zm.142.033c-.112,0-.17,0-.188.118-.015.106-.049.367.073.415a.176.176,0,0,0,.239-.124C6.636,17.6,6.67,17.32,6.488,17.317Zm1.424,4.728c.058.073.385.067.448.033.13-.07.073-.433.039-.551-.079.158-.161.315-.239.47l-.027-.009v-.027c.015-.306.033-.612.048-.921.009-.03.018-.064.027-.094l-.012.009c-.015.009-.036.015-.045.021.006,0-.024-.015-.024-.027-.048,0-.158-.006-.248-.006v.012c0,.009.009.012-.015.018a.756.756,0,0,0,.012.433c.042.088.17.067.258.067-.012.121-.1.049-.164.07-.1.033-.018.015-.033.082C7.914,21.718,7.833,21.952,7.911,22.046ZM23.917,16a.053.053,0,0,1,.048.033.216.216,0,0,0,.064,0c.109-.018.115-.051.118-.16a.956.956,0,0,0,0-.279c-.033-.1-.091-.076-.188-.076-.17,0-.327-.073-.333.139,0,.109-.033.26.03.351Q23.785,16,23.917,16Zm.194.121c-.021-.018-.161,0-.227-.018-.07,0-.142,0-.212.006a.214.214,0,0,0-.045.221c.03.16-.07.294.148.309.151.009.345.055.376-.118C24.163,16.445,24.187,16.181,24.111,16.124Zm1.724,2.405c-.042,0-.085.006-.115.006s-.085-.009-.133-.009a.178.178,0,0,0-.124.033c-.061.061-.027.236-.027.312-.012.045-.024.061-.033.061-.024,0-.042-.115-.042-.16v0c0-.17,0-.23-.182-.236-.039,0-.082-.006-.127-.006-.1,0-.191.018-.221.115s-.018.354.07.412c.173.106.442-.082.633.009a1.079,1.079,0,0,0,.37-.006c.079-.042.067-.112.07-.2,0-.07.042-.224,0-.285A.167.167,0,0,0,25.835,18.529Zm-.409-3.265a.336.336,0,0,1,0-.047.082.082,0,0,0,.016.047v0c0,.091-.012.145.076.17a.387.387,0,0,0,.109.009,1.194,1.194,0,0,0,.206-.021.168.168,0,0,0,.127-.136h-.009a1.948,1.948,0,0,0,0-.273.129.129,0,0,0-.139-.13,1.713,1.713,0,0,0-.2.024c-.164.027-.167.112-.2.239C25.417,15.185,25.426,15.224,25.426,15.263Zm-.33,6.216c.221,0,.26-.033.26-.254v0c0-.236-.03-.276-.27-.276s-.26.051-.26.245v.07C24.829,21.467,24.9,21.479,25.1,21.479Zm-.566-5.973c-.185,0-.3-.036-.309.173,0,.048-.006.094-.006.136,0,.133.027.233.2.23.2,0,.33,0,.336-.218,0-.042,0-.082,0-.115C24.756,15.569,24.726,15.506,24.529,15.506ZM25,19.671a.676.676,0,0,0,.312-.024c.094-.064.048-.176.055-.267,0-.025,0-.047,0-.068v0c0-.123-.035-.179-.189-.179-.133,0-.306-.03-.345.121C24.787,19.428,24.793,19.65,25,19.671Zm-1.248-4.244v.006c.121,0,.363.048.367-.118,0,.009.021.006.021,0s.018-.039.015-.058c-.006-.076.039-.291-.048-.327a.468.468,0,0,0-.4-.021l.022,0a.222.222,0,0,0-.053.015l-.015.009a.135.135,0,0,1-.049.061l0,.006a1.59,1.59,0,0,0-.039.336C23.542,15.472,23.66,15.427,23.751,15.427Zm1.93.682c-.088,0-.176-.015-.224.067a.669.669,0,0,0-.027.3c.012.2.185.173.361.164.215-.009.176-.151.176-.342C25.962,16.084,25.877,16.112,25.68,16.109Zm-1.039,2.432a1.716,1.716,0,0,0-.23-.027.214.214,0,0,0-.158.042.641.641,0,0,0-.024.4c.03.1.106.106.191.106.03,0,.058,0,.088,0h.024c.033,0,.07.006.1.006a.117.117,0,0,0,.094-.033c.048-.048.009-.188.018-.254a.63.63,0,0,0,0-.073v.012h.006l0-.006,0,0V18.7c0-.028,0-.02,0,0C24.77,18.611,24.756,18.561,24.641,18.541Zm.521-2.5c.182,0,.2-.058.2-.188v-.1c0-.239-.03-.248-.264-.248s-.27.036-.27.27c0,.027,0,.061,0,.1a.18.18,0,0,0,.052.148C24.938,16.069,25.089,16.042,25.162,16.042Zm-1.09,1.284a.783.783,0,0,0-.3-.006c-.106.012-.133.024-.148.136,0,.036-.009.112-.009.182a.436.436,0,0,0,.012.136c.024.067.07.076.13.079v-.006c.03,0,.036-.006.055-.006h.009v.006c.121,0,.3.051.339-.106a.045.045,0,0,0,0-.021.958.958,0,0,0,.012-.142C24.166,17.472,24.144,17.363,24.072,17.326Zm.188,1.115c.073.064.433.07.479-.039a.5.5,0,0,0,.018-.2.437.437,0,0,1-.03.188,1.109,1.109,0,0,0,.006-.424,1.1,1.1,0,0,0-.46-.03C24.178,17.975,24.135,18.393,24.259,18.441Zm.83-.518c-.257,0-.267.067-.26.315.006.221.088.218.3.218.23,0,.233-.039.23-.264S25.329,17.923,25.089,17.923Zm.258-2.941c-.049-.076-.139-.051-.224-.082-.236,0-.285-.018-.3.23,0,.036,0,.076,0,.1,0,.127.033.188.209.194s.315.045.327-.161c0-.036.009-.106.009-.167A.275.275,0,0,0,25.347,14.982ZM23.72,18.456a.233.233,0,0,0,.139-.012h.006c.027,0,.058.006.082.006.082,0,.148-.009.176-.109a.751.751,0,0,0-.015-.385.26.26,0,0,0-.185-.048.819.819,0,0,0-.2.021c-.133.039-.121.151-.121.276v.006C23.6,18.426,23.6,18.459,23.72,18.456Zm2.718-4.15h.005a.038.038,0,0,0-.018,0h-.052c-.2.009-.327-.045-.336.188s-.012.327.242.321c.07,0,.215.036.27-.024s.033-.239.03-.309C26.57,14.346,26.541,14.311,26.438,14.306Zm-2.191,1.836c-.058.058-.018.194-.015.26.006.1-.033.233.1.239.157.006.379.076.415-.124.018-.088.042-.336-.045-.4A.755.755,0,0,0,24.247,16.142Zm1.721,1.348c-.009-.191-.091-.167-.27-.167-.23,0-.264.03-.267.26v.027c0,.151,0,.227.176.239.088.006.248.027.315-.036a.243.243,0,0,0,.051-.179C25.974,17.584,25.968,17.532,25.968,17.49Zm-.86-.17c-.239,0-.273.036-.279.27s.036.264.279.26.251-.051.254-.276S25.347,17.32,25.108,17.32Zm-.978-.573c-.039-.058-.194-.033-.251-.03-.179,0-.251,0-.261.191-.009.206-.036.333.194.342.067,0,.258.039.309-.009s.036-.236,0-.291S24.169,16.808,24.129,16.748Zm-.2,1.778c-.194,0-.3,0-.309.218-.006.251.006.315.267.315.236,0,.267-.036.267-.273C24.15,18.586,24.138,18.523,23.926,18.526Zm.566-1.206c-.212.006-.264-.027-.267.206s.009.333.261.324.27-.064.27-.312C24.756,17.317,24.708,17.32,24.493,17.32Zm0-3.026c-.07,0-.2-.021-.251.039s-.018.224-.015.288c.012.158.024.2.185.2a.63.63,0,0,0,.26-.009c.118-.061.085-.245.079-.357C24.747,14.273,24.665,14.3,24.5,14.294Zm1.93,3.023c-.224.018-.37-.067-.376.2-.006.245-.015.333.257.333a1.11,1.11,0,0,0,.145,0,.128.128,0,0,0,.115-.124,1.126,1.126,0,0,0,.018-.167C26.586,17.435,26.559,17.308,26.425,17.317ZM24.59,14.9c-.291-.015-.354.033-.354.327v0c0,.2.067.212.251.212h.051v-.006c.121,0,.209-.012.221-.179.006-.061.012-.121.012-.17C24.771,14.982,24.738,14.909,24.59,14.9Zm.9,3.538a.781.781,0,0,0,.409.015.132.132,0,0,0,.07-.139.582.582,0,0,1,0-.073v-.085c0-.23-.015-.23-.267-.23-.164,0-.224.006-.251.173a1.061,1.061,0,0,0-.024.182A.169.169,0,0,0,25.489,18.438Zm-.636-1.817c.064.058.33.036.4.021.139-.03.1-.151.1-.279-.009-.07.033-.167-.024-.224s-.133-.006-.206-.012c-.13-.012-.26-.045-.294.106C24.823,16.293,24.8,16.569,24.853,16.62Zm1.087-1.833c.051-.061.024-.236.021-.3,0-.112-.006-.2-.152-.191-.13.012-.291-.045-.351.1-.036.088-.061.357.027.418A.618.618,0,0,0,25.941,14.788Zm-.121,1.923c-.088.015-.245-.036-.324.021s-.058.2-.051.291c.018.224.091.224.306.224.133,0,.2.012.212-.13S26.032,16.675,25.819,16.711Zm-.618,4.84c-.145,0-.339-.055-.373.115a.844.844,0,0,0,.006.348c.067.139.467.1.5-.052a.551.551,0,0,0,.021-.273C25.344,21.576,25.323,21.555,25.2,21.552Zm.151-4.747c-.033-.145-.224-.1-.354-.091-.179.008-.186.082-.162.222-.01-.054-.017-.094.011.063.021.115-.058.212.094.251a.9.9,0,0,0,.348-.012C25.383,17.19,25.374,16.9,25.353,16.805Zm.709.388a.552.552,0,0,0,.439.049c.121-.061.067-.324.064-.436s-.415-.136-.5-.051A.58.58,0,0,0,26.062,17.193Zm.439-1c-.13.021-.273,0-.4.015a.117.117,0,0,1-.058-.006,1.092,1.092,0,0,0,.021.315c.021.158.106.13.254.13.1-.015.209.036.248-.085a1.776,1.776,0,0,0,.018-.224.253.253,0,0,0-.027-.13A.1.1,0,0,1,26.5,16.19Zm-1.536,5.967c-.185-.027-.124.194-.13.3-.012.264.109.209.327.227a.857.857,0,0,0,.152-.533A1.68,1.68,0,0,1,24.965,22.158Zm1.118-6.649a.694.694,0,0,0-.033.473.069.069,0,0,1,.045-.018,1.886,1.886,0,0,1,.227,0c.051,0,.157.012.2-.021a.232.232,0,0,1,.036-.021l.006-.009a.807.807,0,0,0-.018-.091A3.875,3.875,0,0,0,26.083,15.509Zm-.215,4.229c-.024,0-.055,0-.088-.006a.571.571,0,0,0-.294.018c-.079.055-.045.139-.042.227s-.042.212.024.273a.213.213,0,0,0,.194.009.16.16,0,0,0,.064-.036c.048-.151.1-.306.148-.457l0-.009Zm-.436.794c0,.1-.033.406.1.288a.037.037,0,0,0,.015-.015,1.892,1.892,0,0,1,.124-.43.2.2,0,0,0-.039-.012C25.477,20.307,25.432,20.349,25.432,20.531Zm-.675,2.738c0-.021,0-.051.006-.082-.012-.127-.021-.251-.024-.379a.122.122,0,0,0-.055-.048c-.015.109.045.218.009.33-.055-.012-.088-.061-.115-.121a1.276,1.276,0,0,0-.088-.212h-.079c-.133.009-.185.042-.188.218,0,.079-.03.248.036.3a.852.852,0,0,0,.485,0,.093.093,0,0,0,.027,0c0-.009,0-.018,0-.027A.049.049,0,0,1,24.756,23.269Zm.085-.436q0,.2.027.391l.006-.009a.3.3,0,0,0,.024-.042,3.555,3.555,0,0,0,.221-.409c-.045,0-.094,0-.142,0A.125.125,0,0,0,24.841,22.833ZM23.905,23.9c.224,0,.245-.042.245-.264,0-.242-.015-.258-.257-.258s-.273.018-.273.258S23.663,23.9,23.905,23.9Zm-.612,1.278c-.094,0-.206-.024-.264.067a.587.587,0,0,0-.015.291c.012.158.076.173.206.176h.061c.136,0,.242.033.264-.118a.912.912,0,0,0,0-.327C23.5,25.153,23.393,25.181,23.293,25.181Zm.594-1.89c.233,0,.264-.051.264-.248v-.064c0-.209-.067-.218-.267-.218-.224,0-.254.039-.254.264v0C23.629,23.26,23.651,23.291,23.887,23.291Zm.061-1.133c-.251-.006-.3,0-.318.245-.021.227,0,.279.209.285h.112c.179,0,.2-.03.2-.248C24.15,22.239,24.166,22.161,23.947,22.158ZM24,24.575c-.042,0-.121-.012-.2-.012a.237.237,0,0,0-.142.033c-.088.073-.03.239-.03.336v.009l-.006.034s0-.012.005-.032c-.021.212.233.181.388.166.173-.015.133-.139.133-.291S24.169,24.584,24,24.575Zm.009-.6h-.1v0c-.17.012-.288-.021-.291.173a1,1,0,0,0,0,.27c.027.094.073.082.173.085.161.006.342.064.354-.139C24.156,24.227,24.187,23.963,24.008,23.972Zm.642-.591c-.221,0-.424-.076-.427.194V23.6c0,.239.03.306.288.306a3.908,3.908,0,0,0,.245-.456C24.743,23.388,24.7,23.381,24.65,23.381Zm-.427.76c0,.154-.058.4.167.339a1.487,1.487,0,0,1,.079-.506.385.385,0,0,0-.058,0C24.287,23.972,24.226,23.984,24.223,24.142Zm.064.442c-.112.006-.136.533.058.524a2.231,2.231,0,0,0,.027-.427C24.362,24.632,24.35,24.581,24.287,24.584Zm-2.572.648c-.048-.067-.148-.055-.221-.051h-.015c-.224,0-.279,0-.279.23,0,.245,0,.3.251.3a.792.792,0,0,0,.185-.009.1.1,0,0,1,.082-.082.457.457,0,0,0,.015-.127C21.733,25.432,21.757,25.287,21.715,25.232Zm-.067.573a.474.474,0,0,0-.188-.012c-.227.015-.264.033-.264.264s.049.264.288.264c.224,0,.242-.051.245-.27a.459.459,0,0,0-.027-.2A.117.117,0,0,1,21.648,25.8Zm.07-1.172c-.051-.079-.154-.055-.236-.055-.257,0-.288.055-.282.309,0,.127,0,.2.136.218s.409.051.4-.148C21.733,24.872,21.766,24.7,21.718,24.632Zm-.615.588c-.061-.061-.124.006-.194-.027-.112-.051-.276-.039-.312.085a.732.732,0,0,0,.024.412c.061.061.33.039.4.021.136-.03.1-.151.1-.276C21.115,25.372,21.158,25.275,21.1,25.22Zm1.118.566c-.1,0-.318-.045-.385.036-.049.061-.03.23-.027.3.009.167.058.182.218.191.115.006.251.039.3-.082S22.388,25.783,22.221,25.787ZM6.966,16.112c-.239,0-.275.08-.275.279,0,.012,0,.027,0,.042.006.239.121.212.336.209s.194-.067.2-.267v-.042C7.227,16.142,7.179,16.113,6.966,16.112Z" style="fill:#644d31"/><path d="M12.3,23.984l-.067-.066c-.025-.025-.05-.05-.078-.076a.217.217,0,0,0-.228-.054.21.21,0,0,0-.133.182c-.015.11-.019.218-.023.323a2.138,2.138,0,0,1-.043.416l-.05.221h.338l.049-.1.141-.284.141-.283h0A.239.239,0,0,0,12.309,24Zm9.877-1.363-.062-.027a.313.313,0,0,0-.287.047.343.343,0,0,1-.041.022.262.262,0,0,0-.2.271,7.11,7.11,0,0,0,.087.857l.089.573.25-.523a.653.653,0,0,0,.057-.2l0-.025c.024-.145.049-.287.073-.429l.035-.2a.339.339,0,0,1,.014-.043.329.329,0,0,0,.012-.256Zm-.348-2.513c-.078.009-.156.021-.234.034a1.646,1.646,0,0,1-.6.022l-.032-.006a.745.745,0,0,0-.081-.013.781.781,0,0,0-.095,0h-.7l.641.35a1.128,1.128,0,0,0,.59.187,1.342,1.342,0,0,1,.206.018l.09.012h0a3.24,3.24,0,0,0,.35.018,4.684,4.684,0,0,0,.7-.059l.511-.078-.449-.255A1.457,1.457,0,0,0,21.825,20.108ZM9.917,19.947a.225.225,0,0,0,.133-.044l.04-.028.036-.025.009-.006a3.069,3.069,0,0,1,1.318-.581c.209-.039.419-.075.629-.112.5-.087,1.015-.176,1.518-.3a1.856,1.856,0,0,0,.373-.1l1.422-.593-2.173.359-.365.045c-.372.046-.756.093-1.135.134h0a3.166,3.166,0,0,0-.99.227c-.107.049-.214.1-.321.15s-.238.113-.36.168a.477.477,0,0,0-.314.516l0,.029v.167Zm13.8-.28a1.11,1.11,0,0,0-.525-.2l-.39-.051a.2.2,0,0,0,.1-.036.3.3,0,0,0,.123-.161l.017-.051-.014-.052c-.005-.02-.01-.042-.015-.063S23.006,19,23,18.973l-.008-.031-1.046-1.467-.309-.27.015.008.19.1.184.1a.258.258,0,0,0,.2.032l.235-.067-.135-.2a5.072,5.072,0,0,0-1.06-.894,5.254,5.254,0,0,1-.515-.4.494.494,0,0,0-.048-.047l-.014-.013-.023-.023-.03-.014a3,3,0,0,0-.395-.143l.025,0a1.661,1.661,0,0,1,.378.115,7.388,7.388,0,0,1,.823.433,1.161,1.161,0,0,0,.245.143l.736.315-.532-.6a8.169,8.169,0,0,0-2.356-1.932.191.191,0,0,0-.031-.012l-.015,0a1.353,1.353,0,0,0-.864.041h0a.251.251,0,0,0-.181.325,2.333,2.333,0,0,1,.068.718v.113a.273.273,0,0,0,.168.271.259.259,0,0,0-.084.056.316.316,0,0,0-.081.237l0,.151-.057-.115v.57a.421.421,0,0,0,0,.178l0,.036v0h0v0l0,.06.032.032.017.034,0,0,.034.088-.02-.012a.2.2,0,0,0-.176-.014.21.21,0,0,0-.1.083.813.813,0,0,0-.074-.574l-.021-.033.06.012.068-.08a.785.785,0,0,0,.121-.349l.008-.04a2.171,2.171,0,0,0-.043-1.033,2.455,2.455,0,0,0-.892-1.423,4.134,4.134,0,0,0-1.56-.745,3.9,3.9,0,0,0-1.876.239l-.145.043c-.114.035-.223.075-.322.113a1.74,1.74,0,0,0-.267.143A6.478,6.478,0,0,0,12.3,14l-.038.037a.417.417,0,0,1-.036.034l-.013.01c-.085.066-.156.131-.224.194l-.1.089-.062.056a9.424,9.424,0,0,0-.878,1.183,4.228,4.228,0,0,0-.351.617c-.043.1-.1.194-.153.295a3.419,3.419,0,0,0-.188.373l-.272.667.553-.462c.226-.189.439-.4.648-.6l.028-.026.033-.031.019-.019a1.666,1.666,0,0,1,.266-.232l.218-.141a4.892,4.892,0,0,1,1.013-.555l.045-.015c.079-.035.159-.068.248-.1l.038-.017a1.773,1.773,0,0,1,.406-.143l.307-.054c.165-.028.329-.057.491-.089a4.648,4.648,0,0,1,.976-.112,4.962,4.962,0,0,1,.92.115,2.641,2.641,0,0,0-.491-.031c-.273.009-.555.018-.829.021a3.97,3.97,0,0,0-.756.092,6.522,6.522,0,0,0-2.666,1.322,11.338,11.338,0,0,0-1.021.946c-.095.1-.189.19-.286.286a.557.557,0,0,0-.076.1q-.409.646-.815,1.291a1.006,1.006,0,0,0-.128.3l-.119.492.4-.308.047-.035a1.048,1.048,0,0,0,.1-.076,3.04,3.04,0,0,1,1.135-.575l.013,0a5.911,5.911,0,0,1,1.517-.3,13.225,13.225,0,0,0,2.258-.4,4.427,4.427,0,0,0,1.362-.553,5.314,5.314,0,0,0,.579-.438.7.7,0,0,1-.132.376,1.921,1.921,0,0,1-.748.548l-.016.008a8.906,8.906,0,0,1-1.764.68c-.239.066-.49.117-.733.166-.209.042-.424.086-.636.139-.156.039-.318.073-.474.105a4.564,4.564,0,0,0-1.235.382,1.636,1.636,0,0,0-.752.767.85.85,0,0,0-.055.571l.116.463.217-.425c.021-.042.041-.082.059-.122a1.109,1.109,0,0,1,.118-.212,1.17,1.17,0,0,1,.748-.45c.192-.036.385-.057.59-.079L12,20.094c.359-.046.727-.074,1.084-.1.434-.033.884-.068,1.325-.135a4.519,4.519,0,0,0,1.887-.631c.1-.067.2-.131.3-.195a4.612,4.612,0,0,0,.865-.647,3.178,3.178,0,0,0,.658-.9,1.381,1.381,0,0,0,.369,1.256c.019.019.038.038.055.051a4.065,4.065,0,0,0,1.138.775,7.226,7.226,0,0,0,1.149.409,1.421,1.421,0,0,0,.486.037l.061-.007a8.479,8.479,0,0,1,1.126-.077l.223,0a6.6,6.6,0,0,1,.864.051l.7.1ZM19.58,18c.177.137.348.26.5.368.057.04.112.081.168.123a2.714,2.714,0,0,0,.712.421c.1.037.212.079.315.12.149.059.3.12.457.168l.116.036.084.025.018,0c.176.036.36.07.523.1a10.816,10.816,0,0,1-1.243-.223,1.685,1.685,0,0,1-.71-.327c-.37-.312-.671-.574-.939-.815Z" style="fill:#885630"/><path d="M20.381,26.872c-.111-.266-.219-.537-.323-.8L20,25.932,20,25.915a.172.172,0,0,0-.055-.084l-.034-.028-.108.13a2.912,2.912,0,0,1-.5.6l-.064.079a2.363,2.363,0,0,1-.544.325c-.115.056-.235.113-.349.182l-.125.076.146.007c.063,0,.123.006.187.012a3.452,3.452,0,0,1,1.215.29c.134.062.144.174.156.306,0,.042-.005.052-.005.052a.025.025,0,0,1-.018,0h-.012a.134.134,0,0,1-.055-.013,10.755,10.755,0,0,0-1.407-.4c-.133-.032-.267-.064-.4-.1a.218.218,0,0,1-.029-.01l-.031-.011-.012,0a.092.092,0,0,0-.071.084.145.145,0,0,0,.106.2,2.17,2.17,0,0,1,.223.071c.142.05.289.1.431.139a3.971,3.971,0,0,1,1.124.479.222.222,0,0,0,.121.045.394.394,0,0,0,.144-.05.458.458,0,0,0,.25-.62.6.6,0,0,1,.089-.576A.212.212,0,0,0,20.381,26.872Zm-4.989.648a2.966,2.966,0,0,1-.462.042,1.864,1.864,0,0,1-.34-.026c-.04-.008-.045-.018-.049-.053a.041.041,0,0,1,0-.018.047.047,0,0,1,.019-.005c.11-.022.219-.048.328-.073a4.5,4.5,0,0,1,.917-.147V27.2h.042a.164.164,0,0,1,0-.034l.009-.047-.048-.006a.958.958,0,0,1-.377-.161c-.044-.026-.087-.053-.132-.077a1.909,1.909,0,0,1-.821-.809,1.978,1.978,0,0,0-.22-.3c-.032-.039-.066-.08-.1-.122l-.052-.067-.026.08c-.015.048-.03.095-.044.14a3.707,3.707,0,0,1-.127.365.705.705,0,0,0,0,.65.187.187,0,0,1-.048.23c-.07.076-.14.154-.209.232l-.143.159-.011.012a.133.133,0,0,0-.047.133.678.678,0,0,1,.016.1.327.327,0,0,0,.137.277c.006,0,.007.013,0,.044l0,.03v.588a.146.146,0,0,0,.047.134.862.862,0,0,0,.348.116l.011,0,.011,0a.174.174,0,0,0,.09-.113.248.248,0,0,1,.024-.05.183.183,0,0,0,.023-.038l.008-.017a2.7,2.7,0,0,0,.3-.2,1.937,1.937,0,0,1,.387-.238c.155-.065.309-.142.457-.216a3.544,3.544,0,0,1,1.014-.381l.281-.044-.281-.044A2.905,2.905,0,0,0,15.392,27.52Zm2.269-.17a.116.116,0,0,0-.035-.086.109.109,0,0,0-.082-.023h0l-.018,0-.015,0a1.616,1.616,0,0,1-.315.029c-.043,0-.083,0-.127,0h-.1a.887.887,0,0,0-.091,0h-.037a.16.16,0,0,0-.032,0,.076.076,0,0,0-.063.074.14.14,0,0,0,.116.155,1.393,1.393,0,0,0,.338.041h0a2.294,2.294,0,0,0,.351-.028.118.118,0,0,0,.111-.144Z" style="fill:#fff"/><path d="M26.825,12.9a.156.156,0,0,0,.118-.164c.015-.224.033-.451.055-.675.024-.306.052-.612.079-.936l-.051.012c-1.79.524-3.7,1.015-5.495,1.536-.091.027-.006.17.03.233.282.494.582.948.857,1.445.024.042.045.064.076.07.015,0,.064-.039.082-.045q2.122-.741,4.25-1.475Zm-.264-1.29c.191,0,.291.1.3.306a.382.382,0,0,1-.336.382.334.334,0,0,1-.321-.321A.37.37,0,0,1,26.562,11.607ZM7.73,15.07l.851.118c.436.061.872.118,1.309.179a.075.075,0,0,0,.024,0c.051,0,.061-.048.073-.094.115-.385.23-.766.351-1.151.027-.082,0-.106-.076-.127q-1.222-.318-2.444-.642L5.376,12.71a.168.168,0,0,0-.048-.009.047.047,0,0,0-.049.024.044.044,0,0,0-.006.018.152.152,0,0,0-.006.039c-.061.6-.124,1.2-.194,1.8-.009.076.006.109.064.124l.045.009C6.03,14.836,6.881,14.951,7.73,15.07Zm-1.966-1.6a.39.39,0,0,1,.273-.073.311.311,0,0,1,.342.236.567.567,0,0,1-.121.675.36.36,0,0,1-.479,0,.588.588,0,0,1-.015-.839Z" style="fill:#fff"/><path d="M26.559,11.607a.377.377,0,0,0-.36.37.333.333,0,0,0,.321.318.387.387,0,0,0,.336-.382C26.849,11.7,26.752,11.6,26.559,11.607ZM6.039,13.4a.39.39,0,0,0-.273.073.583.583,0,0,0,.015.839.36.36,0,0,0,.479,0,.562.562,0,0,0,.121-.675A.315.315,0,0,0,6.039,13.4Z" style="fill:#1a1a1a"/><path d="M26.619,13.264c.176-.061.348-.136.527-.191a.169.169,0,0,0,.133-.179c.058-.763.115-1.53.176-2.293.009-.106-.009-.127-.118-.094-.572.182-1.145.354-1.72.533-.176.055-.179.055-.258-.118-.291-.654-.518-1.333-.757-2.005a.5.5,0,0,1,.009-.4,1.891,1.891,0,0,0,.024-.715,12.016,12.016,0,0,0-.327-1.99,7.6,7.6,0,0,0-.63-1.6c-.288-.545-.6-1.084-.93-1.608a1.274,1.274,0,0,0-.548-.539A.885.885,0,0,0,21.921,2a.255.255,0,0,0-.248.118.524.524,0,0,0-.088.542c.239.518.457,1.048.666,1.578.012.024.027.049.048.085a.085.085,0,0,1-.079-.055,8.48,8.48,0,0,0-1.26-1.015,16.16,16.16,0,0,0-1.9-1.1.729.729,0,0,0-.27-.082c-.16-.018-.324-.033-.485-.051a.366.366,0,0,0-.448.369c0,.136-.058.167-.17.176a.341.341,0,0,0-.248.242.876.876,0,0,0,.288.782c.56.524,1.1,1.066,1.645,1.608a.12.12,0,0,1,.055.058c-.042,0-.058-.009-.07-.024-.085-.055-.167-.1-.242-.148-.379-.251-.751-.509-1.13-.754a1.191,1.191,0,0,0-.582-.215.572.572,0,0,0-.494.182.354.354,0,0,0-.112.318.561.561,0,0,0,.282.394,10.308,10.308,0,0,1,1.724,1.481,1.594,1.594,0,0,0,.145.142,1.424,1.424,0,0,1,.33.448c.042.076.027.094-.055.094a7.641,7.641,0,0,0-1.572.258.573.573,0,0,0-.5.354c-.082.264-.121.412.2.494a12.077,12.077,0,0,1,1.878.651.6.6,0,0,1,.148.1,4.173,4.173,0,0,0,.457.382,4.908,4.908,0,0,0,1.539.736c.067.015.127.048.191.064a.149.149,0,0,1,.118.118.5.5,0,0,0,.385.415c.027.009.049.027.076.036a.181.181,0,0,1,.118.136c.085.3.173.6.267.9.033.1,0,.127-.088.154-.47.136-.936.279-1.4.421-.167.051-.17.055-.085.206l1.145,2.063c.161.291.167.291.46.139.03-.015.073-.067.1-.018s.076.112.03.164a5.661,5.661,0,0,0-.36.53.115.115,0,0,0-.006.148c.127.209.254.421.379.633a1.856,1.856,0,0,1-.118.536,3.2,3.2,0,0,0-.4-.9,12.691,12.691,0,0,0-.782-1.024c-.042-.051-.091-.1-.139-.145a4.093,4.093,0,0,0-.881-.6,1.3,1.3,0,0,0-.43-.161,2.752,2.752,0,0,0-1.412.006.157.157,0,0,1-.206-.076,2.212,2.212,0,0,0-.363-.47,4.137,4.137,0,0,0-1.245-.736,3.722,3.722,0,0,0-1.09-.212,5.384,5.384,0,0,0-.585.021,3.071,3.071,0,0,0-1.439.369c-.088.055-.188.085-.279.136a5.48,5.48,0,0,0-1.281.857c-.391.385-.782.769-1.133,1.19a7.69,7.69,0,0,0-.987,1.6.2.2,0,0,1-.088.121c-.051-.321-.1-.63-.151-.939-.009-.058.027-.055.067-.049.112.012.221.018.333.033.085.012.13-.006.151-.1.027-.13.058-.26.085-.394.1-.5.251-.985.382-1.475.024-.094.009-.127-.088-.151-.482-.115-.963-.242-1.445-.357-.091-.021-.133-.055-.106-.151a11.45,11.45,0,0,1,.306-1.136.225.225,0,0,1,.07-.109.429.429,0,0,0,.2-.382.256.256,0,0,1,.176-.27c.23-.109.451-.236.669-.363a1.06,1.06,0,0,0,.412-.421,23.387,23.387,0,0,1,1.236-2.284,1.355,1.355,0,0,1,.127-.188,11.913,11.913,0,0,1,.972-.985.448.448,0,0,0,.145-.36.587.587,0,0,0-.191-.385.393.393,0,0,0-.351-.185.505.505,0,0,1-.112-.018c.024-.049.064-.061.1-.082q.641-.413,1.281-.83c.518-.333,1.033-.669,1.554-1,.067-.042.1-.076.024-.139-.151-.179-.151-.179-.3-.091q-2.172,1.349-4.344,2.7c-.127.079-.127.079-.191-.064a10,10,0,0,1-.33-1.021A.139.139,0,0,1,10.6,5.4c.363-.291.7-.618,1.033-.936A.762.762,0,0,0,11.864,4c.027-.215-.115-.327-.309-.248a2.152,2.152,0,0,0-.279.133A13.15,13.15,0,0,1,8.566,4.952c-.055.015-.1.033-.148-.024a1.667,1.667,0,0,0-.351-.264.092.092,0,0,0-.079-.018.534.534,0,0,0-.336.185c-.2.294-.451.554-.639.86-.215.354-.421.709-.663,1.045-.045.064-.064.073-.106,0-.267-.47-.536-.939-.8-1.409A3.579,3.579,0,0,0,5.158,4.9a.478.478,0,0,0-.451-.2c-.033,0-.076-.006-.088.045a1.382,1.382,0,0,0-.073.418,8.259,8.259,0,0,0,.188,1.018c.145.578.309,1.151.482,1.721s.354,1.112.536,1.669c.015.049.042.091-.024.13-.085.049-.221.073-.236.158s.064.191.1.285.055.2.109.23c.073.036.139-.064.206-.1s.082-.027.109.036c.158.37.318.736.479,1.106a.228.228,0,0,1,.009.173,5.22,5.22,0,0,0-.242.909c-.015.088-.048.088-.115.07-.351-.091-.7-.179-1.051-.267-.154-.039-.154-.039-.173.118-.076.851-.151,1.69-.23,2.529-.006.076,0,.106.085.115.245.03.488.07.73.106.045.006.085.009.073.076-.055.285-.1.573-.158.854a.225.225,0,0,0,.042.206c.085.109.167.221.251.333a.242.242,0,0,1,.048.264.254.254,0,0,0-.042.148c.009.524.009,1.048.033,1.572.012.254.009.509.015.763.012.675.051,1.348.076,2.023.012.33-.045.657-.03.987,0,.082.021.127.106.154.2.064.394.145.6.209a.353.353,0,0,1,.233.2.55.55,0,0,1,.049.276.209.209,0,0,0,.1.2c.312.224.621.454.933.685.821.606,1.642,1.215,2.466,1.817.076.058.094.1.049.185s-.07.17-.112.248a.114.114,0,0,0,.039.17,3.743,3.743,0,0,1,.3.236.248.248,0,0,1,.061.264c-.018.061-.109.006-.167,0-.039,0-.079-.012-.118-.018-.391-.064-.778-.164-1.175-.2a17.374,17.374,0,0,0-1.905-.088c-.033,0-.085-.03-.094.036s-.021.112.039.148a.563.563,0,0,0,.1.045,6.053,6.053,0,0,1,1.018.491,4.052,4.052,0,0,0,.654.339c.042.015.085.049.136,0-.351-.279-.7-.557-1.051-.839a.147.147,0,0,1,.124-.018,8.212,8.212,0,0,1,1.248.188q1.349.323,2.678.724a3.009,3.009,0,0,1,.86.306.166.166,0,0,1,.094.164,4.558,4.558,0,0,1-.666-.027,13.607,13.607,0,0,0-1.757-.121c-.442.012-.885-.018-1.324.012-.624.042-1.248.124-1.869.191-.03,0-.079,0-.079.033a.1.1,0,0,0,.076.109.73.73,0,0,0,.142.015c.315.012.627.009.942.015.782.018,1.566-.015,2.348.051.282.024.566.012.842.064,1.3.242,2.593.5,3.883.778a1.931,1.931,0,0,1,.454.13c-.07.064.432.033,1.339.436a.185.185,0,0,1,.079-.17,7.141,7.141,0,0,0,.769-.712,7.608,7.608,0,0,1,.757-.672c.03-.024.055-.061.1-.042.227.091.451.179.706.279-.473.288-.921.563-1.366.833a.3.3,0,0,1-.067.024,1.026,1.026,0,0,0-.427.254c-.473.469,1.348-.285,1.266-.363A16.359,16.359,0,0,1,22.4,28.046c1.312-.451,2.65-.812,3.992-1.157l-.094-.021c-.088.009-.173.018-.26.024a6.431,6.431,0,0,0-1.1.17.307.307,0,0,1-.139.027c.021-.076.257-.33.321-.312.055-.07.085-.094.127-.1a.876.876,0,0,1,.248-.236,1.447,1.447,0,0,1,.2-.109c.2,0,.4-.245.611-.33a3.112,3.112,0,0,0-.908.178c-.621.23-1.263.409-1.869.676-.936.409-1.869.818-2.769,1.306a1.033,1.033,0,0,1-.1.045c-.024-.218-.045-.427-.07-.636-.006-.042.015-.061.051-.079.8-.421,1.6-.839,2.429-1.184.685-.285,1.363-.594,2.051-.872a5.852,5.852,0,0,0-.466.863.074.074,0,0,0,.085-.021c.142-.151.285-.3.424-.451a5.233,5.233,0,0,1,.888-.809c.024-.1-.015-.079-.042-.073-.312.064-.624.121-.933.194-.1.024-.1-.012-.1-.085,0-.248.033-.491.042-.739a.8.8,0,0,1,.073-.312c.124-.285.248-.566.376-.851a1.772,1.772,0,0,0,.124-.445c.039-.242.07-.488.094-.733.039-.376.173-.73.236-1.1a7.169,7.169,0,0,1,.324-1.4c.158-.4.309-.8.47-1.2a10.72,10.72,0,0,0,.636-1.627.845.845,0,0,0,.006-.579,2.491,2.491,0,0,1-.1-.342.5.5,0,0,1-.015-.257,1.242,1.242,0,0,0-.079-.9c-.045-.079.009-.127.055-.176.112-.115.118-.167.021-.291-.112-.139-.221-.282-.342-.412-.1-.106-.194-.221-.294-.33C26.534,13.319,26.54,13.291,26.619,13.264Zm-4.086-2.781c-.03-.085-.067-.13-.16-.109-.112.027-.173-.021-.221-.121a1.256,1.256,0,0,0-.273-.454,1.4,1.4,0,0,0-.509-.145c-.13-.033-.26-.073-.394-.094a1.8,1.8,0,0,1-.772-.345c-.382-.282-.775-.542-1.178-.791a2.362,2.362,0,0,1-.382-.076c-.351-.073-.7-.148-1.051-.215-.085-.015-.1-.079-.106-.136a.17.17,0,0,1,.082-.182,1.015,1.015,0,0,1,.367-.1,12.227,12.227,0,0,1,1.7-.164,1.448,1.448,0,0,1,.394.082.227.227,0,0,0,.209-.036c.273-.182.548-.354.821-.533.042-.027.121-.045.088-.118a.106.106,0,0,0-.018-.027A.083.083,0,0,0,21.07,6.9c-.021,0-.042,0-.064,0H21a1.462,1.462,0,0,0-.842.251.356.356,0,0,1-.391-.07,8.481,8.481,0,0,0-1.618-1.627c-.257-.224-.509-.457-.782-.663a.208.208,0,0,1-.055-.248c.061-.091.139-.051.212-.018a3.766,3.766,0,0,1,.666.37A24.812,24.812,0,0,0,20.425,6.27a.647.647,0,0,0,.064.033c.115.039.176-.012.158-.133A.336.336,0,0,0,20.567,6c-.615-.724-1.263-1.418-1.9-2.123a5.543,5.543,0,0,0-.439-.4,1.078,1.078,0,0,1-.279-.351.2.2,0,0,1,.03-.239.121.121,0,0,1,.173-.03,3.47,3.47,0,0,1,.609.37q.5.382,1.015.763c.339.254.678.506,1.018.76.027.021.055.042.079.064.064.058.118.118.179.179l.036.036a.446.446,0,0,0,.076.076c.07.042.142.079.215.006a.119.119,0,0,0,.039-.07.085.085,0,0,0,0-.027l0-.012a.216.216,0,0,0-.055-.091l-.227-.236c-.127-.13-.254-.258-.394-.376-.439-.367-.891-.721-1.345-1.066a6.876,6.876,0,0,0-.751-.439.919.919,0,0,1-.218-.2A.182.182,0,0,1,18.4,2.4c.027-.067.094-.064.151-.07a.459.459,0,0,1,.251.064c.585.288,1.16.6,1.718.93.045.027.091.055.136.085.312.2.609.427.9.657a2.5,2.5,0,0,1,.357.415c.048.061.015.115-.03.158a.514.514,0,0,1-.109.07c-.039.027-.091.051-.076.109s.07.064.115.073a.345.345,0,0,0,.2-.018c.212-.088.391.061.527.209.036.039.051.118.118.094s.079-.1.073-.173a3.883,3.883,0,0,0-.106-.56A8.76,8.76,0,0,0,22.1,3.086c-.067-.161-.139-.321-.206-.482a.231.231,0,0,1,.061-.23c.039-.051.1-.006.154.018a.84.84,0,0,1,.394.418c.1.191.224.367.33.551a10.506,10.506,0,0,1,.551.96,9.312,9.312,0,0,1,.609,1.484,12.262,12.262,0,0,1,.318,1.406c.021.182-.012.357.009.533a1.851,1.851,0,0,1-.154,1.006.3.3,0,0,0,.015.264c.318.672.582,1.366.845,2.063.033.091.018.127-.076.154-.609.179-1.218.363-1.827.548-.088.027-.115,0-.142-.076-.154-.412-.3-.815-.445-1.221ZM18.71,14.324a1.2,1.2,0,0,1,.757-.039l.018.006a6.914,6.914,0,0,1,.972.327.353.353,0,0,1,.142.1,2.559,2.559,0,0,1,.542.512c.239.309.479.621.7.975l-.042-.016,0,0a1.285,1.285,0,0,1-.232-.13,8.141,8.141,0,0,0-.851-.448,1.851,1.851,0,0,0-.418-.127,4.173,4.173,0,0,0-1.148-.051c-.106.009-.215,0-.321,0a.1.1,0,0,1-.115-.115,2.9,2.9,0,0,0-.076-.885c-.018-.061.018-.085.07-.1Zm-.077,2.185.009-.024.006-.018a.192.192,0,0,0,.006-.021l.006-.018c0-.006,0-.015.006-.021l0-.018,0-.021,0-.018,0-.021,0-.018,0-.021,0-.018,0-.021a.038.038,0,0,1,0-.018.051.051,0,0,1,0-.021v-.336c0-.1.033-.142.136-.139s.2,0,.307-.006l.094,0c.051,0,.1-.006.154-.006a2.816,2.816,0,0,1,.482.03,1.271,1.271,0,0,1,.694.206,3.519,3.519,0,0,1,.351.182c.279.167.557.339.836.509a.49.49,0,0,1,.148.136c.091.13.188.264.282.4.015.021.039.045.018.073a.047.047,0,0,1-.024.018h0a.09.09,0,0,1-.064-.015c-.124-.07-.251-.136-.376-.206a6,6,0,0,0-1.369-.545l-.125-.034a2.533,2.533,0,0,0-.408-.1l-.191-.042c-.006,0,.006.015.021.03a.08.08,0,0,1,.015.018.174.174,0,0,0,.051.042.108.108,0,0,1,.024.012c.288.145.772.236,1.127.4l-.006,0-.018-.009-.118-.055-.033-.015-.009,0,.009,0,.033.015.118.055.015.007,0,0c.027.012.055.027.079.039a3.907,3.907,0,0,1,.554.367l.339.26a2.509,2.509,0,0,1,.972,1.475c0,.018.009.036.012.055l.012.018a.158.158,0,0,1,.021.121c0,.009,0,.018.006.027-.006.088-.076.051-.115.051a3.158,3.158,0,0,1-.769-.139l-.008,0c-.065-.019-.149-.048-.209-.067-.267-.094-.518-.206-.775-.3a3.512,3.512,0,0,1-.836-.521,9.811,9.811,0,0,1-1.263-1.03.429.429,0,0,1-.1-.133c-.027-.064-.055-.13-.079-.194l-.045-.118c-.009-.024-.018-.048-.03-.076l0-.006,0-.012v0l0-.012a.212.212,0,0,1,0-.13Zm1.907.185-.027-.01h0l.027.01Zm-.039-.015h0c-.021-.006-.039-.015-.061-.021l-.024-.008.024.008c.021.006.039.015.061.021Zm-.6-.2h0l-.018-.006.018.006Zm-.155-.049c0-.024,0-.033,0-.035a.141.141,0,0,0,.035.01h0c-.014.009-.035.005-.041.024Zm-1.2-2.02a.108.108,0,0,0-.007.038.1.1,0,0,1,.007-.038Zm-.139,2.681c.009-.029.026-.044.043-.04l0,0c.009,0,.018.012.027.03a1.939,1.939,0,0,0,.379.5c.157.151.327.291.491.439q.509.459,1.033.9a1.911,1.911,0,0,0,.782.363,17.739,17.739,0,0,0,1.987.321.91.91,0,0,1,.473.2h-.009a.265.265,0,0,1,.03.024,9.223,9.223,0,0,0-1.118-.058,8.984,8.984,0,0,0-1.212.085,1.244,1.244,0,0,1-.424-.033,6.762,6.762,0,0,1-1.121-.4,3.89,3.89,0,0,1-1.087-.742c-.024-.024-.048-.045-.073-.07a1.264,1.264,0,0,1-.256-.354l0-.006,0-.007a1.352,1.352,0,0,1-.02-.893c.024-.088.051-.176.079-.264Zm3.287,5.31h-.079c-.048,0-.1.012-.145.015a.108.108,0,0,0-.109.073c-.021.048-.049.091-.073.139l-.009.021a1.937,1.937,0,0,1-.4.606c-.036.039-.076.076-.115.112-.1.091-.206.176-.315.257a2.46,2.46,0,0,1-.591.282l-.045.018-.042.018-.024.009-.039.012c-.045.018-.082.045-.058.115a.141.141,0,0,0,.148.1.31.31,0,0,0,.051,0,.771.771,0,0,0,.188-.042c.061-.021.121-.049.185-.076.042-.018.085-.036.13-.052a3.892,3.892,0,0,1-.106.43c-.009.024-.018.045-.027.067-.036.082-.073.161-.112.242-.024.055-.051.106-.079.157a4.751,4.751,0,0,1-.512.827c-.042.055-.085.1-.13.151a2.134,2.134,0,0,1-.318.279c-.042.03-.085.061-.13.091q-.132.082-.264.154c-.073.039-.142.073-.215.106l-.082.036-.067.027c-.018.006-.036.015-.055.021-.051.021-.1.039-.154.058a.231.231,0,0,1-.048.015c-.055.018-.109.036-.164.051-.17.051-.342.094-.515.13-.067.015-.136.027-.206.039-.009,0-.015,0-.024,0l-.206.033c-.073.009-.145.021-.221.03a2.72,2.72,0,0,1-.736-.021.088.088,0,0,1-.027-.006l-.036-.009a.857.857,0,0,1-.182-.076c-.079-.042-.151-.088-.23-.127q-.082-.041-.164-.091a2.353,2.353,0,0,1-.2-.133.8.8,0,0,1-.294-.351,2.266,2.266,0,0,0-.115-.245c-.012-.024-.027-.045-.039-.067a3.43,3.43,0,0,0-.348-.463c-.052-.061-.1-.121-.158-.179-.027-.03-.052-.061-.079-.088-.106-.118-.215-.236-.327-.348l-.085-.085a3.517,3.517,0,0,0-.363-.312,1.117,1.117,0,0,0-.1-.07,3.512,3.512,0,0,0-.306-.2c-.027-.015-.052-.03-.076-.045L12.776,24a1.993,1.993,0,0,1-.781-.936.167.167,0,0,0-.013-.026.263.263,0,0,0-.277-.156.794.794,0,0,1-.318-.061h0l0,0a.576.576,0,0,1-.167-.106l-.032-.02a1.081,1.081,0,0,1-.074-.113,6.682,6.682,0,0,1-.487-.831l0,.01-.007-.017,0,.007c-.029-.083-.058-.166-.092-.247-.016-.038-.032-.074-.045-.108a.482.482,0,0,1-.022-.132.437.437,0,0,1,0-.064l.009-.039.006-.018A.182.182,0,0,1,10.5,21.1a.58.58,0,0,1,.16-.179c.027-.021.055-.042.085-.064.058-.042.118-.079.176-.118.091-.055.182-.106.276-.154a5.193,5.193,0,0,1,1.081-.4c.021-.006.042-.009.067-.015.042-.009.088-.012.133-.018s.091-.006.133-.006.091,0,.133,0a.489.489,0,0,0,.067,0c.151-.006.3-.015.454-.024q.341-.023.682-.055c.227-.021.454-.045.682-.07a4.42,4.42,0,0,0,1.187-.3c.079-.033.158-.07.233-.106.045-.024.094-.045.139-.07l.079-.042c.182-.1.363-.191.539-.294a.119.119,0,0,1,.07-.042l.012,0v.015a.075.075,0,0,1-.024.042l-.027.018a4.838,4.838,0,0,1-.627.566c-.021.018-.042.036-.064.058-.067.055-.133.112-.209.173a2.666,2.666,0,0,0,.754-.1,2.087,2.087,0,0,0,.921-.551,2.316,2.316,0,0,0,.176-.206,3.063,3.063,0,0,0,.351-.609,2.11,2.11,0,0,0,.473.724l.036.048c.012.015.024.033.036.049a.3.3,0,0,0,.076.076c.018.015.039.03.058.042s.039.027.058.042.018.015.027.021c.133.106.267.206.4.306.091.067.182.13.276.194.139.1.279.191.415.288a4.059,4.059,0,0,0,.591.336c.052.024.1.045.154.07.158.067.315.124.479.176l.027.009a2.135,2.135,0,0,0,.315.049c.039,0,.079.009.115.012a.246.246,0,0,1,.076.03.519.519,0,0,1,.085.064.573.573,0,0,1,.188.279.093.093,0,0,1,0,.03l-.006.012c-.012.021-.03.039-.042.061-.036.064-.076.127-.106.194l-.015.033a.393.393,0,0,0,0,.33,2.053,2.053,0,0,0,.369-.476,1.32,1.32,0,0,0,.07-.148,1.114,1.114,0,0,0,.039-.106c.012-.033,0-.073.012-.106s-.03-.088-.012-.112l.006-.006a.05.05,0,0,1,.018-.009.161.161,0,0,1,.033-.006.536.536,0,0,1,.07-.006.578.578,0,0,1,.176.027c.036.012.024.058.021.091v.006a.965.965,0,0,1-.091.306.69.69,0,0,1-.03.07,2.112,2.112,0,0,1-.242.473.79.79,0,0,1-.6.391Zm.33.57c-.039.212-.073.421-.109.633a.56.56,0,0,1-.061.209l-.009-.055a.279.279,0,0,1-.015.03,6.693,6.693,0,0,1-.094-.891c0-.067.042-.082.085-.1.07-.024.157-.1.2-.067a.08.08,0,0,1,.015.018l.009.006c.055.042-.009.139-.024.212Zm-4.48,4.5a2.212,2.212,0,0,1-.345.027,1.546,1.546,0,0,1-.351-.039.094.094,0,0,1-.082-.109c0-.033.027-.033.052-.033a.13.13,0,0,1,.048,0h.227c.033,0,.067,0,.1,0a1.438,1.438,0,0,0,.3-.03.154.154,0,0,1,.052,0c.039,0,.07.006.073.067s.012.1-.076.115ZM11.9,24.751h0a7.046,7.046,0,0,0,.07-.757c.006-.051.033-.045.064-.018.048.045.094.094.142.139h0l.018.018a.061.061,0,0,1,.015.076c-.094.191-.188.379-.282.566l-.03-.009,0-.015Zm9.751-4.2a2.261,2.261,0,0,0-.321-.03,1.146,1.146,0,0,1-.569-.2h.021c-.015-.009-.03-.015-.045-.024.03,0,.064,0,.094.006s.07.012.106.018a2.825,2.825,0,0,0,.888-.055,1.336,1.336,0,0,1,.827.224.027.027,0,0,0-.015,0c.012.006.024.015.039.021a4,4,0,0,1-1.024.039ZM10.3,16.681a5.847,5.847,0,0,1,.33-.548c.061-.088.121-.176.185-.26.03-.042.064-.085.1-.127q.145-.191.3-.373c.1-.121.206-.242.312-.363s.212-.239.315-.36a1.157,1.157,0,0,1,.145-.124l.032-.037c.1-.086.186-.174.3-.265l.015-.012c.027-.024.055-.051.085-.079a6.49,6.49,0,0,1,1.006-.736c.036-.023.072-.044.108-.064s.093-.041.14-.06a.186.186,0,0,1,.036-.015q.109-.046.218-.082l.148-.045c.176-.051.351-.094.524-.148a3.135,3.135,0,0,1,.987-.145c.048,0,.094,0,.142,0a2.08,2.08,0,0,1,.718.209c.1.045.2.088.3.136l.073.036c.073.036.148.073.218.115l.142.082c.045.03.094.058.136.091a2.448,2.448,0,0,1,.261.209,2.094,2.094,0,0,1,.585.909,3.46,3.46,0,0,1,.164.778,2.191,2.191,0,0,1-.121.748c-.009.036-.024.045-.036.042s-.027-.027-.042-.045c-.091-.106-.182-.209-.273-.315a2.656,2.656,0,0,0-1.315-.863,5.247,5.247,0,0,0-1.254-.194,4.827,4.827,0,0,0-1.015.115c-.267.051-.533.094-.8.142a2.14,2.14,0,0,0-.488.179c-.075.033-.15.067-.228.1l-.023.005a6.276,6.276,0,0,0-1.293.72,2.024,2.024,0,0,0-.306.274l-.012.011-.082.082c-.191.185-.379.373-.585.542a2.738,2.738,0,0,1-.339.336,1.782,1.782,0,0,1,.185-.6ZM10.22,17.9a.36.36,0,0,1,.052-.067,15.3,15.3,0,0,1,1.29-1.218,6.389,6.389,0,0,1,2.593-1.287,3.379,3.379,0,0,1,.721-.088c.279,0,.557-.012.833-.021a2.6,2.6,0,0,1,1.472.409,2.564,2.564,0,0,1,.458.359l.017.017a2.716,2.716,0,0,1,.406.518.7.7,0,0,1,.039.521,2.386,2.386,0,0,1-.748,1.245,6.69,6.69,0,0,1-1.139.818,4.3,4.3,0,0,1-1.814.6c-.8.118-1.605.13-2.405.236-.291.036-.585.061-.875.112a1.351,1.351,0,0,0-.857.518,2.941,2.941,0,0,0-.2.382.243.243,0,0,1-.012-.045.665.665,0,0,1,.045-.451,1.414,1.414,0,0,1,.672-.682,7.292,7.292,0,0,1,1.669-.473c.454-.115.921-.182,1.372-.306a9.127,9.127,0,0,0,1.8-.694,2.162,2.162,0,0,0,.827-.612.921.921,0,0,0,.151-.7c-.006-.042-.018-.064-.033-.067s-.036.009-.064.033a6.252,6.252,0,0,1-.721.566,4.2,4.2,0,0,1-1.309.53,13.231,13.231,0,0,1-2.226.391,6.108,6.108,0,0,0-1.563.306,3.24,3.24,0,0,0-1.212.618,2.04,2.04,0,0,1-.164.124l.009-.048-.033.024v-.006a.175.175,0,0,1,.03-.021.756.756,0,0,1,.106-.251q.4-.645.815-1.29Zm3.023.8.66-.109.115-.021a1.569,1.569,0,0,1-.433.136c-.706.176-1.427.279-2.142.412a3.284,3.284,0,0,0-1.393.615.722.722,0,0,1-.079.055c-.033.021-.049.015-.055-.012a.061.061,0,0,1,0-.024.3.3,0,0,1,.209-.345c.227-.1.454-.212.682-.318a2.921,2.921,0,0,1,.936-.212c.5-.055,1-.118,1.5-.176Zm-.025-.024h0ZM10.632,6.849c.012.033.015.061-.021.082l-.324.2a.532.532,0,0,1-.058.024.4.4,0,0,0-.039-.064l-.682-.782c-.03-.036-.061-.07,0-.1.224-.127.394-.333.63-.442.061-.027.082-.03.112.036.151.339.254.7.382,1.048ZM8.784,5.255c.321-.115.636-.245.954-.373A13.047,13.047,0,0,0,11.05,4.21c.045-.024.088-.055.133-.079s.073-.073.124-.045.039.1.039.17c.015.076-.033.139-.1.2-.436.406-.891.791-1.357,1.163a3.9,3.9,0,0,1-.618.33c-.042.021-.067,0-.091-.03-.151-.194-.3-.391-.451-.585-.058-.07.021-.067.058-.082ZM6.036,9.4c-.345-1.069-.709-2.132-1-3.22-.067-.251-.094-.515-.142-.772a.13.13,0,0,1,.085-.142c.067-.033.07.045.094.076A19.43,19.43,0,0,1,6.264,7.445c.115.212.245.418.37.627.024.039.042.073.1.052s.055-.067.042-.115a4.2,4.2,0,0,0-.242-.621.228.228,0,0,1,0-.2c.173-.357.415-.669.606-1.012.176-.312.4-.591.569-.906a.262.262,0,0,1,.421-.061,1.3,1.3,0,0,1,.227.288,5.17,5.17,0,0,0,.815.93c.206.206.415.406.633.594a.658.658,0,0,1,.124.242.049.049,0,0,1-.024.07.224.224,0,0,0-.039.024.45.45,0,0,1-.557.024,4.015,4.015,0,0,1-1.09-.815.32.32,0,0,0-.036-.03c-.145-.109-.151-.1-.215.064s-.109.345-.185.509c-.027.058.015.118.058.161s.082.124.17.112a.077.077,0,0,0,.07-.07c.021-.1.049-.2.076-.324a11.365,11.365,0,0,0,1.06.736l-.351.2c-.9.506-1.8,1.012-2.7,1.521-.073.039-.1.048-.133-.042Zm.315.7c-.033-.07-.021-.1.042-.139Q8.025,8.954,9.653,7.936c.058-.036.112-.015.167-.027a1.661,1.661,0,0,0,.542-.206c.012-.009.033-.015.039-.027a1.064,1.064,0,0,1,.618-.466,7.744,7.744,0,0,0,1.5-.8.232.232,0,0,1,.3.009.265.265,0,0,1,.1.276.7.7,0,0,1-.2.367A6.974,6.974,0,0,0,11.6,8.439a10.415,10.415,0,0,0-.788,1.4.969.969,0,0,1-.185.26A3.241,3.241,0,0,1,9.55,10.9a.215.215,0,0,0-.136.2c-.006.076-.03.148-.036.224a.606.606,0,0,1-.239.482.285.285,0,0,0-.076.157l-.345,1.154a.059.059,0,0,1,0,.024c0,.018,0,.039-.021.048a.2.2,0,0,1-.142-.027c-.563-.13-1.121-.273-1.678-.421-.07-.015-.136-.036-.209-.045-.112-.015-.121-.067-.07-.151a2.5,2.5,0,0,1,.376-1.006.155.155,0,0,0,0-.194c-.239-.4-.421-.83-.621-1.248ZM5.179,14.721l-.045-.009c-.055-.015-.073-.049-.064-.124q.1-.9.194-1.8c0-.015,0-.027.006-.039a.043.043,0,0,0,.006-.018.049.049,0,0,1,.048-.024.169.169,0,0,1,.049.009l2.441.645c.815.215,1.63.427,2.444.642.079.021.1.045.076.127l-.351,1.151c-.012.045-.021.094-.073.094a.075.075,0,0,1-.024,0c-.436-.061-.872-.118-1.309-.179l-.851-.118c-.845-.121-1.7-.236-2.547-.351Zm.669,1.163a.148.148,0,0,1,0-.109.372.372,0,0,1,.021-.052l.006.018a.351.351,0,0,1-.027.142ZM13.33,27.192v0c-.03,0-.033.021-.048.03a.167.167,0,0,1-.024.018.459.459,0,0,1-.048.033.243.243,0,0,0-.1.109c0,.009,0,.006,0,.012s0,.018,0,.018h.009v.018c-.03.088-.045.151-.061.2,0,.012-.009.021-.012.03a.131.131,0,0,1-.012.021.066.066,0,0,1-.012.015.057.057,0,0,1-.03.015h-.009a.209.209,0,0,1-.064-.015c-.042-.015-.1-.036-.173-.061l-.015-.006-.015-.006-.033-.015h-.012v-.012h0c-.091-.03-.176-.048-.257-.082-.049-.018-.1-.033-.151-.055a.869.869,0,0,0-.191-.045c-.176-.061-.354-.091-.524-.151a.312.312,0,0,1-.055,0v0c-.121-.024-.218-.055-.333-.076A.148.148,0,0,1,11.01,27a1.161,1.161,0,0,0,0-.145c0-.015,0-.021,0-.051-.018-.03-.045-.067-.07-.106a.172.172,0,0,1-.018-.033c-.015-.015-.045-.03-.045-.048-.03-.006-.018-.012-.027-.018-.094-.088-.067-.206-.055-.318,0-.012,0-.024,0-.036l.009-.07c0-.012,0-.024.006-.033.049-.188.061-.367-.142-.479-.024-.015-.039-.03-.07-.052v.006c-.091-.073-.191-.148-.285-.209-.015-.03-.018-.036-.049-.048a1.788,1.788,0,0,1-.391-.288c-.03-.018-.064-.033-.094-.051H9.8c-.018-.03-.039-.027-.055-.042a.833.833,0,0,0-.076-.049c-.152-.13-.357-.251-.521-.4a.454.454,0,0,1-.139-.1V24.42c-.16-.112-.318-.221-.476-.342h0c-.018,0-.018-.015-.049-.03a1.737,1.737,0,0,1-.26-.182.078.078,0,0,0-.073-.03c-.073-.061-.136-.088-.2-.142-.024-.015-.045-.033-.076-.052a2.748,2.748,0,0,1-.5-.363l-.015-.015c-.009-.009-.018-.021-.027-.03a.237.237,0,0,1-.033-.055.232.232,0,0,1-.015-.049v.024a3.978,3.978,0,0,1-.273-.379l-.009-.018A.043.043,0,0,1,7,22.739a.135.135,0,0,1,0-.033.148.148,0,0,1,.03-.067c0-.006,0-.015,0-.024a2.5,2.5,0,0,1,.212-.551v-.045a.234.234,0,0,0,0-.039l-.006-.018-.006-.006a.047.047,0,0,0-.021-.012H7.2a.155.155,0,0,0-.073.027.393.393,0,0,0-.07.055l-.024.018a.166.166,0,0,0-.018.024L7,22.079H7v0a1.841,1.841,0,0,1-.23.194c-.015.015-.042.033-.042.049v0H6.715a.07.07,0,0,1-.091.015c-.13-.058-.26-.112-.391-.173a.109.109,0,0,1-.051-.079l-.009-.039-.009-.033v.006a1.185,1.185,0,0,1,.067-.551.241.241,0,0,0,.006-.045,4.472,4.472,0,0,1,.094-.533V20.81h0c-.028-.194-.028-.385-.043-.579,0-.033,0-.067,0-.1-.018-.361-.042-.721-.055-1.081-.027-.754-.088-1.505-.067-2.26a.843.843,0,0,0-.094-.4c-.036-.07-.079-.136-.124-.206a.333.333,0,0,1-.061-.3c.045-.176.079-.357.112-.536.015-.085.039-.13.136-.1a.5.5,0,0,0,.118.012c.161.036.327.039.488.079a.091.091,0,0,1,.042.012,2.737,2.737,0,0,1,.457.061.1.1,0,0,1,.049.012c.182.024.363.045.545.076a.2.2,0,0,1,.118.021h.015c.212.024.379.039.56.07H8.514V15.6c.121.015.2.03.294.045a1.957,1.957,0,0,0,.291.039h0c.009,0,.015,0,.021,0a.154.154,0,0,0,.027.006.091.091,0,0,1,.094.088c.048.288.088.576.148.863,0,.021.012.039.009.058.009.049.015.094.024.139.027.139.051.279.079.418a.2.2,0,0,0,0,.045v.012c.03.182.064.345.094.518V17.9a2.164,2.164,0,0,0-.164.2,2.031,2.031,0,0,0-.215.379c-.039.094-.088.191-.127.285l-.006,0a1.942,1.942,0,0,1-.124.282l-.009.012c-.006.012-.009.03-.015.039v0a4.287,4.287,0,0,1-.173.4c-.021.042-.045.085-.07.127-.009.024-.03.048-.03.07a1.474,1.474,0,0,1-.115.336.954.954,0,0,1-.094.285,2.651,2.651,0,0,1-.164.5.213.213,0,0,0-.024.07l0,.009a.258.258,0,0,1-.012.036.191.191,0,0,1-.012.039l0,.012c-.015.312-.033.624-.048.936l.027.009c.039-.079.079-.154.118-.233s.07-.154.112-.233a.458.458,0,0,0,.064-.164c.091-.152.173-.3.267-.442.009-.015.027-.024.036-.055.079-.121.17-.282.264-.421.033-.054.068-.1.1-.154h0c.021-.061.055-.07.082-.1a.276.276,0,0,1,.1-.082.512.512,0,0,1,0,.067l0,.012a.159.159,0,0,1-.009.036l0,.012-.006.024a.068.068,0,0,0,0,.024c0,.009-.006.015,0,.024a.068.068,0,0,1,0,.018h0a4.533,4.533,0,0,0-.03.578c0,.009-.006.024-.006.03l.006,0c.024.182.055.363.079.545h0a.206.206,0,0,1,.006.055c.03.182.07.366.091.551l0,.021a.129.129,0,0,1,.006.033,1.493,1.493,0,0,0,.206.373c.048.07.1.151.145.212h0v0a5.587,5.587,0,0,0,.448.391c.024,0,.048.03.073.03h0V23.1c.061.006.112.055.176.036a.111.111,0,0,0,.033-.015c.009-.006.021-.012.024-.021.015-.027-.012-.042-.033-.051-.248-.158-.209-.415-.239-.657h.009v0a2.058,2.058,0,0,1,.154.176.158.158,0,0,0,.03.033c.021.024.042.045.064.07a1.349,1.349,0,0,0,.136.127.98.98,0,0,0,.157.112c.024.009.049.03.07.03h-.006c.182.088.339.173.506.26a.188.188,0,0,1,.1.045,1.4,1.4,0,0,1,.115.575c.006,0,.012.021.015.036a.083.083,0,0,1,0,.039,2.073,2.073,0,0,1,0,.53.056.056,0,0,1,0,.048c0,.006,0,.009,0,.015h0a2.035,2.035,0,0,1-.049.524c0,.173-.058.339-.076.512a.08.08,0,0,1-.006.021c-.009.033-.024.073.048.064v0c.164-.17.327-.336.479-.527v.006h0v.005a.168.168,0,0,1,.073-.121,2,2,0,0,0,.191-.251c.064-.088.127-.173.191-.26l0-.015a.094.094,0,0,1,.036-.058.043.043,0,0,1,.018-.006h.018a.169.169,0,0,1,.064.024,1.051,1.051,0,0,1,.1.061,1.53,1.53,0,0,1,.524.339c.015.015.033.018.049.048a.487.487,0,0,1,.167.167l.048.045.009.006c.239.2.258.312.085.582-.006.009-.015.018-.021.018a.3.3,0,0,1-.03.07.328.328,0,0,1-.024.045l-.012.021a.755.755,0,0,0-.112.233.558.558,0,0,0-.015.212c.033.118.064.239.088.36a1.763,1.763,0,0,1,.036.221.328.328,0,0,1-.212.363Zm.806,1.475c-.039.049-.045.148-.109.139h-.006c-.006,0-.012,0-.018,0a.787.787,0,0,1-.336-.109c-.036-.024-.027-.07-.027-.112v-.573c0-.039.015-.085-.024-.112-.133-.085-.1-.23-.133-.351-.012-.049.021-.073.048-.1.118-.13.233-.26.351-.391a.226.226,0,0,0,.055-.282.67.67,0,0,1,0-.612c.07-.164.115-.336.179-.53l.018.021h0a2.941,2.941,0,0,1,.315.424,1.933,1.933,0,0,0,.836.827,1.518,1.518,0,0,0,.522.241h0l.023,0c.021,0,.051,0,.045.03s-.021.018-.039.015h-.009a.038.038,0,0,1-.018,0,3.457,3.457,0,0,0-.622.085c-.108.023-.214.048-.321.073s-.193.044-.29.064l-.018.005h0c-.042.009-.061.03-.055.073a.09.09,0,0,0,.085.091,1.645,1.645,0,0,0,.33.021h.015a3.161,3.161,0,0,0,.445-.042,3.058,3.058,0,0,1,.5-.039,3.29,3.29,0,0,1,.485.036,6.629,6.629,0,0,0-1.481.6c-.254.106-.451.309-.694.439-.018.021-.027.055-.045.076Zm1.569.4,0,.006-.009,0-.012,0a.037.037,0,0,1-.015-.015l-1.087-.27c.124-.1.215-.158.367-.1.248.1.479.233.718.345a.053.053,0,0,1,.036.012c.006,0,.006.006.006.015v.006Zm2.481-.451c-.279.224-.554.451-.815.7a.128.128,0,0,1-.185.018,11.777,11.777,0,0,0-1.384-.688c-.209-.088-.43-.124-.645-.2.024-.045.07-.045.106-.058.463-.173.936-.327,1.39-.53a.6.6,0,0,1,.351.006.778.778,0,0,0,.5-.058.1.1,0,0,1,.091-.012c.351.145.7.291,1.066.439-.167.139-.321.264-.473.385Zm2.169-1.539a.634.634,0,0,0-.1.618.41.41,0,0,1-.23.566.288.288,0,0,1-.152.045.159.159,0,0,1-.112-.036,6.31,6.31,0,0,0-1.566-.624,1.955,1.955,0,0,0-.227-.073c-.091-.021-.085-.082-.073-.145.009-.045.033-.051.058-.048s.058.012.079.018a14.847,14.847,0,0,1,1.8.5.248.248,0,0,0,.055.015c.042-.006.055-.045.048-.1-.012-.136-.024-.27-.182-.342a3.533,3.533,0,0,0-1.23-.294c-.064-.006-.124-.009-.188-.012a5.986,5.986,0,0,0,.9-.512,1.26,1.26,0,0,0,.094-.085l.5-.609c.021-.033.039-.067.061-.1l.015.009.009-.009a.139.139,0,0,1,.064.094c.127.312.251.627.379.939a.169.169,0,0,1-.009.188Zm6.479-12.871a.082.082,0,0,1,.018.03.029.029,0,0,1,0,.027.052.052,0,0,1-.018.018l-.012.018,0,0-.006.012,0,.006h0v.009a.341.341,0,0,0,.012.524.1.1,0,0,1,.018.045c.121.16.021.321,0,.482,0,.015-.006.021-.018.027l-.009,0a.151.151,0,0,1-.036-.006l-.012,0c-.106-.03-.212-.064-.318-.1-.009,0-.015-.006-.024-.009s-.015-.009-.024-.009a.358.358,0,0,1-.148-.024.318.318,0,0,0-.369.064.071.071,0,0,1-.006.024.357.357,0,0,0,.212.118,5.72,5.72,0,0,1,.857.439.185.185,0,0,1,.073.191,1.1,1.1,0,0,1-.024.13l-.091.391a.16.16,0,0,1-.024.1c0,.212-.145.37-.215.551a.162.162,0,0,0-.024.051,4.07,4.07,0,0,1-.164.376c0,.009-.012.021-.015.03V17.72l0,.006-.006.012-.006.009a.328.328,0,0,1-.073.167,2.414,2.414,0,0,1-.236.545.09.09,0,0,0-.021.045c-.079.182-.161.4-.239.6-.018.073-.033.145-.051.215l-.009.018,0,.006c0,.006-.006.012-.009.018a.568.568,0,0,1-.045.242c-.015.049-.027.1-.042.151a.093.093,0,0,1-.006.024c-.085.385-.17.769-.254,1.151-.07.315-.1.636-.148.951-.049.3-.061.6-.133.894a3.082,3.082,0,0,1-.27.606,5.853,5.853,0,0,1-.26.56l-.009.018a.207.207,0,0,0-.015.039c0,.006,0,.015-.006.021l-.009.042a.229.229,0,0,0,0,.045.229.229,0,0,1,0,.045V24.2a.905.905,0,0,1,0,.091,8.081,8.081,0,0,0-.051.975.1.1,0,0,1-.073.115l-.073.027c-.048.018-.1.039-.142.061l-.076.03a.828.828,0,0,1-.124.042v-.006a.037.037,0,0,1-.015.006c-.055.024-.112.048-.167.07-.039.015-.079.033-.118.049a.8.8,0,0,1-.267.115l-.045.027c-.191.085-.391.173-.573.258,0,0-.018.009-.024.009a2.361,2.361,0,0,0-.312.139l-.333.142c-.176.079-.351.151-.527.23-.006,0-.015,0-.021,0-.16.061-.327.148-.479.218a2.249,2.249,0,0,1-.224.1c-.139.055-.17.048-.2-.094-.091-.067-.1-.179-.133-.273s-.061-.191-.091-.282c-.006-.03-.021-.024-.021-.042a.413.413,0,0,1-.045-.124l0-.021c-.009-.006-.009-.015-.012-.024l-.009-.021h.006c-.042-.127-.088-.251-.118-.379a1.643,1.643,0,0,1-.1-.254.216.216,0,0,1,0-.088l.009-.042c0-.006,0-.015.006-.021a1.957,1.957,0,0,1,.094-.176c.021-.049.039-.1.061-.145s.039-.085.061-.145c.049-.091.079-.2.139-.3a.341.341,0,0,1,.024-.073c.055-.185.115-.373.188-.551,0-.006-.006-.015,0-.021.021-.109.124-.148.185-.212v0c.03-.009.045-.027.061-.027a.272.272,0,0,1,.055-.061c.033-.039.064-.082.094-.124a.748.748,0,0,0,.042-.064c.058-.085.109-.173.173-.258.021-.027.039-.07.073-.07a.027.027,0,0,1,.015,0c.049.012.033.07.027.106a1.109,1.109,0,0,0,0,.412c.015.106.033.212.042.318,0,.015,0,.033,0,.048a.73.73,0,0,1,.045.239c.024.1.045.2.076.306a4.115,4.115,0,0,1,.218.573l.006,0c.1.151.206.327.309.494a1.2,1.2,0,0,0,.094.112h.006v.024c.03,0,.045.067.091.006-.009-.03-.015-.03-.024-.03a.566.566,0,0,1-.039-.1c-.006-.021-.015-.045-.018-.064a.482.482,0,0,1-.015-.064c0-.009,0-.021-.006-.03a.365.365,0,0,0-.012-.061c-.006-.03-.009-.061-.015-.094s-.009-.064-.015-.094a.044.044,0,0,1-.009-.033.171.171,0,0,0-.012-.036c0-.036-.009-.073-.015-.109l-.027-.218c0-.036-.015-.073-.018-.109a4.586,4.586,0,0,1,.045-1.187h.018c.036-.182.073-.391.109-.588.009,0,.018,0,.03,0a3.79,3.79,0,0,0,.094.978.051.051,0,0,1,0,.021c.045.124.094.248.133.376.009.027.018.055.027.079a.329.329,0,0,0,.036.073.433.433,0,0,0,.033.045c.009.015.027.03.027.045a.79.79,0,0,1,.07.076c.018.021.033.045.051.067.064.061.13.118.209.2-.009-.064-.015-.118-.021-.176s-.015-.109-.021-.17c0,0-.015-.009-.015-.015A1.045,1.045,0,0,0,23,24.287c-.018-.139-.033-.279-.052-.415a.124.124,0,0,1,0-.033.315.315,0,0,1,0-.033,3.415,3.415,0,0,1-.024-.524l0-.021a.118.118,0,0,1-.009-.042,1.42,1.42,0,0,1,.006-.424c.006-.042,0-.088.006-.13,0-.009,0-.015,0-.024a1.988,1.988,0,0,1,.07-.6l0-.021c.015-.091.03-.2.045-.3s.03-.2.042-.3c.006-.042.018-.064.042-.064a.1.1,0,0,1,.051.021c.021.012.042.027.064.039s.064.039.094.061a.637.637,0,0,1,.088.07l.012.009a.145.145,0,0,0,.021.015h.006v0a1.565,1.565,0,0,1,.473.451.318.318,0,0,1,.067.061.392.392,0,0,1,.073.13,1.366,1.366,0,0,1,.212.406c0,.012.009.027.012.039s.009.006.012.036a.438.438,0,0,1,.055.106c.015.036.027.073.042.106.009.018.015.033.024.052a.109.109,0,0,0,.021.03.087.087,0,0,0,.052.03c.033-.112-.045-.218-.015-.324H24.5c0-.03-.009-.03-.009-.045a2.164,2.164,0,0,0-.136-.572.356.356,0,0,1,0-.049,2.788,2.788,0,0,0-.215-.527.131.131,0,0,1-.045-.079.326.326,0,0,1-.07-.1l-.048-.079v.021l-.006-.009v0a3.478,3.478,0,0,0-.279-.351l-.012-.012c-.012-.012-.024-.012-.036-.042a1.062,1.062,0,0,1-.215-.185c-.009-.009-.018-.012-.024-.021s0-.012-.03-.021c-.151-.1-.264-.23-.4-.321-.024-.03-.055-.012-.067-.061a9.367,9.367,0,0,1,1.163.045v-.015h0a2.234,2.234,0,0,1,.551.142c.006,0,.012.009.021.009v.006a1.723,1.723,0,0,1,.351.136c.024.012.055.052.082.015s-.012-.058-.03-.082c-.045-.064-.088-.127-.136-.191-.009-.015-.024-.03-.024-.045-.091-.088-.161-.188-.239-.276a1.033,1.033,0,0,1-.076-.082,1.464,1.464,0,0,1-.264-.215c-.015-.009-.03-.027-.045-.027-.039,0-.082-.042-.121-.07s-.082-.051-.121-.079l-.045-.024c-.185-.07-.37-.133-.554-.2-.006,0-.018,0-.018-.006a.068.068,0,0,1-.021,0,.139.139,0,0,1-.091-.036.1.1,0,0,1-.033-.045l-.006-.015a.172.172,0,0,1-.009-.079,1.22,1.22,0,0,0-.015-.279.736.736,0,0,0-.015-.079c-.006-.027-.012-.052-.018-.076s-.012-.052-.018-.079-.021-.082-.03-.112c0,0-.012,0-.012-.012a4.561,4.561,0,0,0-.158-.551c-.009-.024-.012-.042-.021-.073a.465.465,0,0,1-.073-.212.533.533,0,0,1,0-.07c0-.012,0-.024,0-.033a.638.638,0,0,1,.024-.1c.012-.045.027-.091.042-.136l0-.021h0a4.823,4.823,0,0,1,.185-.591l.006-.006.012-.012.006-.006a.335.335,0,0,0,.067-.233.412.412,0,0,0-.033-.13c-.021-.055-.048-.106-.076-.16a.044.044,0,0,0-.018-.015l-.006-.009a1.509,1.509,0,0,1-.264-.448c-.006-.015-.015-.033-.021-.049s-.006-.012-.009-.021l0-.009-.009-.021,0,0,0-.006a.354.354,0,0,1,.015-.055l.018-.033a.2.2,0,0,1,.024-.027l.012-.009c.082-.118.158-.242.248-.357a.327.327,0,0,0,.064-.318c-.052-.173-.045-.176.127-.239.03-.012.4-.151.545-.2l.094-.036.024-.009.07-.027c.191-.073.382-.142.573-.212a.051.051,0,0,1,.021,0,4.143,4.143,0,0,1,.557-.212.446.446,0,0,1,.076-.024c.03-.024.121-.045.151-.07.151-.049.273-.118.409-.148.2-.151.363-.088.5.1a.63.63,0,0,1,.055.039c.027.024.036.052.067.082.124.142.261.282.391.421Zm-4.259.167a.373.373,0,0,1-.049.012c-.045.006-.07-.015-.1-.07q-.414-.745-.836-1.484c-.036-.064-.049-.1.042-.121L27,11.138c.018-.006.039-.009.076-.018v.006h0c-.026.323-.054.628-.078.933-.018.224-.036.451-.055.675a.159.159,0,0,1-.118.164Q24.7,13.629,22.575,14.373Zm-8.812,6.8c.5.042,1,.142,1.5.212a.564.564,0,0,1,.2.045.636.636,0,0,1,.285.367,2.366,2.366,0,0,1,.13.712.523.523,0,0,1-.182.479.7.7,0,0,0-.251.351.555.555,0,0,1,.488.2,2.024,2.024,0,0,0,.282.276.478.478,0,0,0,.739-.1c.073-.118.142-.239.221-.354a.908.908,0,0,1,.409-.4c.118-.039.067-.1.027-.145a.264.264,0,0,0-.354-.024,2.038,2.038,0,0,0-.482.473.808.808,0,0,1-.142.145.135.135,0,0,1-.2-.012,2.919,2.919,0,0,0-.224-.212A.126.126,0,0,1,16.166,23a.919.919,0,0,0,.1-.521,1.793,1.793,0,0,0-.379-1.094c-.03-.033-.03-.051.012-.082a1.186,1.186,0,0,0,.515-.885c.009-.094-.009-.17-.085-.2s-.124.051-.158.112a4.52,4.52,0,0,1-.26.37.511.511,0,0,1-.527.194c-.721-.112-1.442-.185-2.169-.227-.036,0-.073-.012-.1.012a1.986,1.986,0,0,0-.609.591.123.123,0,0,0,.024.009c.024,0,.045-.009.07-.012A3.554,3.554,0,0,1,13.764,21.176Zm6.734.282c-.179.088-.354.182-.524.282a.4.4,0,0,1-.142.061,5.088,5.088,0,0,1-.912.094.857.857,0,0,1-.463-.164.363.363,0,0,1-.185-.254.271.271,0,0,1,.13.009,2.6,2.6,0,0,0,.482.07,4.294,4.294,0,0,0,1.133-.27c.121-.042.239-.088.357-.13.055-.018.07-.036.021-.088a.179.179,0,0,0-.185-.042,7.1,7.1,0,0,1-2.36-.058c-.227-.042-.47-.058-.557-.339a1.984,1.984,0,0,1-.064-.23.468.468,0,0,0-.118-.215A.112.112,0,0,0,17,20.134c-.048.012-.045.064-.045.1,0,.127.009.254.024.382a.8.8,0,0,0,.142.388,1.062,1.062,0,0,0,.642.421c.2.045.2.048.215.251a.245.245,0,0,0,.1.215,1.044,1.044,0,0,0,.457.185.551.551,0,0,1,.306.085.735.735,0,0,0,.4.124c.106.009.215.012.321.03a.226.226,0,0,0,.2-.064c.3-.248.6-.5.878-.778A.114.114,0,0,0,20.5,21.458ZM18.01,23.905a.062.062,0,0,0-.1-.027,2.049,2.049,0,0,1-.772.173c-.112.015-.251-.018-.333.064-.2.2-.369.115-.545-.024a.1.1,0,0,0-.03-.018.7.7,0,0,0-.788-.006.426.426,0,0,1-.336.085.23.23,0,0,0-.239.048.957.957,0,0,1-.127.088c-.118.079-.118.091-.009.179a.217.217,0,0,0,.085.039.9.9,0,0,0,.709-.1.56.56,0,0,1,.654.039.577.577,0,0,0,.606.058,3.747,3.747,0,0,1,.824-.27c.042-.006.085-.021.124.012.121.112.236.033.351-.012.045-.018.052-.055.049-.1C18.126,24.036,18.053,23.981,18.01,23.905Zm-1.1.791a3.036,3.036,0,0,0-.888.154c-.233.079-.494.133-.615.4a3.933,3.933,0,0,0-.109.482.834.834,0,0,0,.094.354c.021.03.03.079.082.076s.073-.048.088-.085a2.528,2.528,0,0,0,.1-.367.616.616,0,0,1,.354-.442c.215-.091.433-.176.651-.26A.232.232,0,0,1,16.8,25a1.823,1.823,0,0,1,.791.185.1.1,0,0,0,.079.015c.091-.021.1-.051.045-.124A.912.912,0,0,0,16.911,24.7ZM14.8,21.946c.182-.018.363-.042.542-.067.048-.006.124.012.136-.045s-.058-.1-.1-.136a.205.205,0,0,0-.088-.033,1.034,1.034,0,0,0-.551-.018,2.639,2.639,0,0,1-1.121,0,3.113,3.113,0,0,0-.327-.039,2.469,2.469,0,0,0-.445.133c-.1.049-.109.106-.018.176a.172.172,0,0,0,.176.039.588.588,0,0,1,.624.121.642.642,0,0,0,.66.109A2.361,2.361,0,0,0,14.66,22,.4.4,0,0,1,14.8,21.946Zm-3.241.339a.41.41,0,0,0-.16-.4.44.44,0,0,1-.176-.254.912.912,0,0,0-.17-.388c-.03-.03-.052-.1-.106-.076a.2.2,0,0,0-.142.145.621.621,0,0,0,.351.7.616.616,0,0,1,.285.291c.021.045.024.133.091.118S11.546,22.318,11.561,22.285Z" style="fill:#1a1a1a"/><path d="M5.873,15.742a.044.044,0,0,0-.006-.018c-.006.015-.015.033-.021.052a.188.188,0,0,0,0,.109.271.271,0,0,0,.027-.142" style="fill:#2e2e2e"/><path d="M22.3,22a2.111,2.111,0,0,0,.242-.473.7.7,0,0,1,.03-.07.892.892,0,0,0,.091-.306v-.006c0-.033.012-.079-.021-.091a.589.589,0,0,0-.176-.027.5.5,0,0,0-.07.006c-.012,0-.024,0-.033.006a.107.107,0,0,0-.018.009l-.006.006c-.018.027.024.076.012.112s0,.073-.012.106-.024.07-.039.106c-.021.051-.045.1-.07.148a2.135,2.135,0,0,1-.37.476.393.393,0,0,1,0-.33.155.155,0,0,1,.015-.033c.03-.067.07-.13.106-.194.012-.021.03-.039.042-.061l.006-.012a.051.051,0,0,0,0-.03.552.552,0,0,0-.188-.279A.514.514,0,0,0,21.757,21a.245.245,0,0,0-.076-.03c-.039-.006-.076-.009-.115-.012a1.551,1.551,0,0,1-.315-.048l-.027-.009c-.164-.051-.321-.109-.479-.176-.051-.021-.1-.045-.154-.07A3.8,3.8,0,0,1,20,20.319c-.139-.1-.279-.191-.415-.288-.091-.064-.185-.127-.276-.194-.136-.1-.273-.2-.4-.306l-.027-.021c-.018-.015-.039-.027-.058-.042s-.039-.027-.058-.042a.353.353,0,0,1-.076-.076c-.012-.018-.024-.033-.036-.048s-.024-.033-.036-.048a2.158,2.158,0,0,1-.473-.724,2.918,2.918,0,0,1-.351.609c-.058.073-.115.142-.176.206a2.033,2.033,0,0,1-.921.551,2.684,2.684,0,0,1-.754.1l.209-.173c.021-.018.042-.036.064-.058a4.833,4.833,0,0,0,.627-.567l.027-.018a.059.059,0,0,0,.024-.042v-.015l-.012,0a.129.129,0,0,0-.07.042c-.176.1-.357.2-.539.294l-.079.042c-.045.024-.091.049-.139.07-.079.039-.154.073-.233.106a4.3,4.3,0,0,1-1.187.3c-.227.027-.454.049-.682.07s-.454.039-.682.055c-.151.009-.3.018-.454.024l-.067,0c-.045,0-.091,0-.133,0s-.091,0-.133.006a1,1,0,0,0-.133.018.679.679,0,0,0-.067.015,5.372,5.372,0,0,0-1.081.4c-.094.049-.185.1-.276.154-.061.036-.118.076-.176.118a1.026,1.026,0,0,0-.085.064.549.549,0,0,0-.16.179.187.187,0,0,0-.015.036l-.006.018-.009.039a.446.446,0,0,0,0,.064.723.723,0,0,0,.061.242,5.966,5.966,0,0,0,.579,1.078.682.682,0,0,0,.112.13l.167.106a.794.794,0,0,0,.318.061.262.262,0,0,1,.291.188,1.993,1.993,0,0,0,.782.936c.024.015.049.033.076.049s.052.03.076.045c.106.061.206.127.306.2l.1.07a3.945,3.945,0,0,1,.363.312c.027.027.058.055.085.085.112.112.221.23.327.348.027.03.051.061.079.088.051.061.106.118.157.179a3.434,3.434,0,0,1,.348.463.763.763,0,0,1,.039.067,1.5,1.5,0,0,1,.115.245.8.8,0,0,0,.294.351,2.312,2.312,0,0,0,.2.133c.055.03.106.061.164.091.079.039.151.088.23.127a.96.96,0,0,0,.182.076l.036.009c.009,0,.018,0,.027.006a2.846,2.846,0,0,0,.736.021c.073-.009.148-.018.221-.03s.136-.021.206-.033c.009,0,.015,0,.024,0,.07-.012.136-.024.206-.039.176-.036.345-.079.515-.13.055-.015.109-.033.164-.051a.3.3,0,0,1,.048-.015c.052-.018.1-.036.154-.058l.055-.021.067-.027.082-.036c.073-.033.145-.07.215-.106q.132-.073.264-.154c.045-.03.088-.061.13-.091a2.33,2.33,0,0,0,.318-.279c.045-.048.088-.1.13-.151a4.863,4.863,0,0,0,.512-.827c.027-.052.052-.106.079-.158.039-.079.076-.161.112-.242.009-.021.018-.045.027-.067a3.31,3.31,0,0,0,.106-.43c-.045.018-.088.033-.13.051-.064.027-.124.055-.185.076a.771.771,0,0,1-.188.042.31.31,0,0,1-.052,0,.135.135,0,0,1-.148-.1c-.024-.07.012-.1.058-.115a.147.147,0,0,1,.039-.012l.024-.009.042-.018.045-.018a2.215,2.215,0,0,0,.906-.539c.039-.036.079-.073.115-.112a1.919,1.919,0,0,0,.4-.606l.009-.021c.021-.049.052-.091.073-.139a.108.108,0,0,1,.109-.073c.048,0,.1-.012.145-.015H21.7A.761.761,0,0,0,22.3,22Zm-10.765.415c-.067.015-.07-.073-.091-.118a.59.59,0,0,0-.285-.291.614.614,0,0,1-.351-.7.2.2,0,0,1,.142-.145c.058-.021.076.045.106.076a.912.912,0,0,1,.17.388.44.44,0,0,0,.176.254.41.41,0,0,1,.16.4c-.015.033.039.115-.027.13Zm.987-1.142c-.006,0-.012-.006-.024-.009a1.987,1.987,0,0,1,.609-.591c.033-.024.07-.012.1-.012.727.045,1.448.118,2.169.227a.512.512,0,0,0,.527-.194,3.866,3.866,0,0,0,.261-.37c.036-.061.085-.139.158-.112s.1.1.085.2a1.186,1.186,0,0,1-.515.885c-.042.03-.042.048-.012.082a1.794,1.794,0,0,1,.379,1.094.972.972,0,0,1-.1.521.126.126,0,0,0,.039.182c.079.067.151.139.224.212a.135.135,0,0,0,.2.012.924.924,0,0,0,.142-.145,1.983,1.983,0,0,1,.482-.473.264.264,0,0,1,.354.024c.039.048.091.106-.027.145a.878.878,0,0,0-.409.4c-.079.115-.148.236-.221.354a.478.478,0,0,1-.739.1,2.206,2.206,0,0,1-.282-.276.552.552,0,0,0-.488-.2.74.74,0,0,1,.251-.351.521.521,0,0,0,.182-.479,2.465,2.465,0,0,0-.13-.712.624.624,0,0,0-.285-.366.562.562,0,0,0-.2-.045c-.5-.07-.994-.17-1.5-.212a3.811,3.811,0,0,0-1.172.085.12.12,0,0,1-.061.018Zm1.769.912a.658.658,0,0,1-.66-.109.589.589,0,0,0-.624-.121.172.172,0,0,1-.176-.039c-.091-.073-.085-.13.018-.176a2.542,2.542,0,0,1,.445-.133,3.016,3.016,0,0,1,.327.039,2.688,2.688,0,0,0,1.121,0,1,1,0,0,1,.551.018.334.334,0,0,1,.088.033c.042.039.112.076.1.136s-.088.039-.136.045c-.182.024-.36.048-.542.067A.382.382,0,0,0,14.66,22a2.361,2.361,0,0,1-.37.188Zm3.38,3.011a.1.1,0,0,1-.079-.015A1.791,1.791,0,0,0,16.8,25a.255.255,0,0,0-.127.015c-.218.085-.436.167-.651.26a.609.609,0,0,0-.354.442,2.642,2.642,0,0,1-.1.367c-.018.039-.033.082-.088.085s-.061-.045-.082-.076a.8.8,0,0,1-.094-.354,3.949,3.949,0,0,1,.109-.482c.121-.27.382-.324.615-.4a3.053,3.053,0,0,1,.888-.154.92.92,0,0,1,.806.376c.052.073.042.1-.048.124Zm.412-.966c-.115.048-.23.124-.351.012-.036-.033-.079-.021-.124-.012a3.74,3.74,0,0,0-.824.27.578.578,0,0,1-.606-.058.555.555,0,0,0-.654-.039.9.9,0,0,1-.709.1.217.217,0,0,1-.085-.039c-.109-.091-.109-.1.009-.179a1.193,1.193,0,0,0,.127-.088.236.236,0,0,1,.239-.048.425.425,0,0,0,.336-.085.7.7,0,0,1,.788.006l.03.018c.176.142.342.221.545.024.082-.079.221-.049.333-.064a2.11,2.11,0,0,0,.772-.173.061.061,0,0,1,.1.027c.042.076.115.133.121.227.006.045,0,.082-.045.1Zm1.687-1.984a.231.231,0,0,1-.2.064c-.106-.018-.212-.021-.321-.03a.76.76,0,0,1-.4-.124.575.575,0,0,0-.306-.085,1.067,1.067,0,0,1-.457-.185.238.238,0,0,1-.1-.215c-.018-.2-.021-.206-.215-.251A1.062,1.062,0,0,1,17.12,21a.8.8,0,0,1-.142-.388c-.015-.127-.021-.254-.024-.382,0-.036,0-.088.045-.1a.107.107,0,0,1,.115.048.5.5,0,0,1,.118.215,1.98,1.98,0,0,0,.064.23c.088.282.333.3.557.339a7.091,7.091,0,0,0,2.36.058c.067-.009.13-.021.185.042s.033.067-.021.088c-.121.042-.239.088-.357.13a4.287,4.287,0,0,1-1.133.27,2.6,2.6,0,0,1-.482-.07.31.31,0,0,0-.13-.009.371.371,0,0,0,.185.254.848.848,0,0,0,.463.164,4.85,4.85,0,0,0,.912-.094.422.422,0,0,0,.142-.061c.17-.1.345-.194.524-.282a.123.123,0,0,1,.151.009A10.687,10.687,0,0,1,19.77,22.246ZM10.141,5.761c-.236.109-.406.318-.63.442-.061.033-.03.067,0,.1l.682.782a.413.413,0,0,1,.039.064.513.513,0,0,0,.058-.024l.324-.2c.036-.021.033-.049.021-.082-.127-.348-.23-.709-.379-1.051C10.223,5.731,10.2,5.734,10.141,5.761Zm-.96.167c.024.03.048.055.091.03a4.321,4.321,0,0,0,.618-.33c.466-.37.921-.754,1.357-1.163.07-.064.118-.127.1-.2,0-.076.021-.136-.039-.17s-.085.024-.124.045-.088.055-.133.079a14.073,14.073,0,0,1-1.312.672c-.318.124-.63.258-.954.373-.036.012-.112.012-.052.088C8.881,5.54,9.032,5.734,9.181,5.928Zm.039,1.79a10.976,10.976,0,0,1-1.06-.736c-.03.124-.055.224-.076.324a.077.077,0,0,1-.07.07c-.088.015-.124-.064-.17-.112A.154.154,0,0,1,7.787,7.1c.076-.164.121-.342.185-.509s.073-.173.215-.064a.32.32,0,0,1,.036.03,4.015,4.015,0,0,0,1.09.815.446.446,0,0,0,.557-.024c.012-.009.027-.015.039-.024a.049.049,0,0,0,.024-.07.659.659,0,0,0-.124-.242c-.221-.188-.427-.391-.633-.594a5.17,5.17,0,0,1-.815-.93A1.51,1.51,0,0,0,8.136,5.2a.26.26,0,0,0-.421.061c-.17.315-.394.594-.569.906-.191.342-.433.654-.606,1.012a.228.228,0,0,0,0,.2,3.778,3.778,0,0,1,.242.621c.012.049.021.091-.042.115s-.079-.012-.1-.051c-.124-.209-.254-.412-.37-.627A19.43,19.43,0,0,0,5.076,5.337c-.024-.03-.027-.109-.094-.076A.126.126,0,0,0,4.9,5.4c.049.258.076.521.142.772.288,1.087.648,2.151,1,3.22.03.094.061.082.13.042q1.349-.763,2.7-1.521C8.981,7.857,9.093,7.791,9.22,7.718Zm-2.245,3.82A2.461,2.461,0,0,0,6.6,12.543c-.048.085-.042.139.07.151.07.009.139.03.209.045q.836.227,1.678.421a.2.2,0,0,0,.142.027c.024-.009.021-.027.021-.048a.059.059,0,0,1,0-.024l.345-1.154a.285.285,0,0,1,.076-.158.6.6,0,0,0,.239-.482c0-.076.03-.148.036-.224a.217.217,0,0,1,.136-.2,3.24,3.24,0,0,0,1.078-.806.973.973,0,0,0,.185-.261,10.414,10.414,0,0,1,.788-1.4,6.865,6.865,0,0,1,1.112-1.378.713.713,0,0,0,.2-.367.266.266,0,0,0-.1-.276.235.235,0,0,0-.3-.009,7.742,7.742,0,0,1-1.5.8c-.227.106-.5.2-.618.467-.006.012-.024.018-.039.027a1.658,1.658,0,0,1-.542.206c-.055.012-.109-.009-.167.027Q8.033,8.948,6.4,9.956c-.064.039-.076.07-.042.139a12.934,12.934,0,0,0,.627,1.245A.168.168,0,0,1,6.975,11.538Zm1.742,1.605a.042.042,0,0,0-.006.018A.025.025,0,0,1,8.717,13.143Zm14.391-1.369q.909-.282,1.827-.548c.1-.027.112-.064.076-.154-.264-.694-.53-1.387-.845-2.063a.3.3,0,0,1-.015-.264A1.849,1.849,0,0,0,24.3,7.739c-.021-.176.012-.354-.009-.533A11.761,11.761,0,0,0,23.978,5.8a9.038,9.038,0,0,0-.609-1.484,10.451,10.451,0,0,0-.551-.96c-.106-.188-.23-.363-.33-.551a.854.854,0,0,0-.394-.418c-.048-.021-.115-.067-.154-.018a.231.231,0,0,0-.061.23c.067.161.139.321.206.482a8.956,8.956,0,0,1,.527,1.354,3.2,3.2,0,0,1,.106.56c.006.07-.006.148-.073.173s-.082-.055-.118-.094c-.136-.148-.315-.3-.527-.209a.346.346,0,0,1-.2.018c-.045-.009-.1-.021-.115-.073s.036-.082.076-.109a.968.968,0,0,0,.109-.07c.045-.042.079-.1.03-.158a2.48,2.48,0,0,0-.357-.415c-.294-.23-.591-.457-.9-.657-.045-.027-.091-.058-.136-.085-.557-.336-1.133-.642-1.717-.93a.486.486,0,0,0-.251-.064c-.061.006-.124,0-.151.07a.176.176,0,0,0,.03.191.864.864,0,0,0,.218.2,6,6,0,0,1,.751.439c.454.348.906.7,1.345,1.066a4.6,4.6,0,0,1,.394.376l.227.236a.188.188,0,0,1,.055.091l0,.012v.027a.127.127,0,0,1-.039.07c-.073.073-.145.033-.215-.006a.359.359,0,0,1-.076-.076l-.036-.036c-.061-.061-.115-.121-.179-.179a.8.8,0,0,0-.079-.064c-.339-.254-.679-.506-1.018-.76s-.678-.509-1.015-.763a3.476,3.476,0,0,0-.609-.37.124.124,0,0,0-.173.03.2.2,0,0,0-.03.239,1.119,1.119,0,0,0,.279.351,4.266,4.266,0,0,1,.439.4c.636.706,1.284,1.4,1.9,2.123a.337.337,0,0,1,.079.17c.018.118-.042.173-.158.133a.639.639,0,0,1-.064-.033,24.777,24.777,0,0,1-2.235-1.369,3.776,3.776,0,0,0-.666-.37c-.073-.033-.151-.073-.212.018a.217.217,0,0,0,.055.248c.273.206.524.439.782.663a8.4,8.4,0,0,1,1.618,1.627.356.356,0,0,0,.391.07,1.462,1.462,0,0,1,.842-.251h.009c.021,0,.042,0,.064,0a.083.083,0,0,1,.055.015.045.045,0,0,1,.018.027c.033.073-.045.091-.088.118l-.821.533a.236.236,0,0,1-.209.036,1.447,1.447,0,0,0-.394-.082,11.4,11.4,0,0,0-1.7.164,1.048,1.048,0,0,0-.367.1.17.17,0,0,0-.082.182c.006.058.021.121.106.136.351.07.7.142,1.051.215a2.288,2.288,0,0,0,.382.076c.4.251.8.512,1.178.791a1.8,1.8,0,0,0,.772.345c.133.021.264.061.394.094a1.469,1.469,0,0,1,.509.145,1.328,1.328,0,0,1,.273.454c.048.1.109.148.221.121.094-.024.13.024.161.109.142.406.291.809.43,1.212C22.993,11.777,23.021,11.8,23.108,11.774Z" style="fill:#f6e5cc"/></svg>