<svg xmlns="http://www.w3.org/2000/svg" xmlns:xlink="http://www.w3.org/1999/xlink" viewBox="0 0 32 32"><defs><radialGradient id="a" cx="-492.035" cy="-883.37" r="13.998" gradientTransform="matrix(0.866, -0.5, -0.3, -0.52, 177.106, -689.033)" gradientUnits="userSpaceOnUse"><stop offset="0" stop-color="#7d7d7d"/><stop offset="0.267" stop-color="#7e7c7a"/><stop offset="0.45" stop-color="#817871"/><stop offset="0.608" stop-color="#867162"/><stop offset="0.753" stop-color="#8d684c"/><stop offset="0.886" stop-color="#965c30"/><stop offset="1" stop-color="#a04f12"/></radialGradient></defs><title>file_type_rust</title><path d="M15.124,5.3a.832.832,0,1,1,.832.832h0a.831.831,0,0,1-.832-.832M5.2,12.834a.832.832,0,1,1,.832.832h0a.832.832,0,0,1-.832-.832m19.856.039a.832.832,0,1,1,.832.832.831.831,0,0,1-.832-.832h0M7.605,14.013a.76.76,0,0,0,.386-1l-.369-.835H9.074v6.545H6.144a10.247,10.247,0,0,1-.332-3.911Zm6.074.161V12.245h3.458c.179,0,1.261.206,1.261,1.016,0,.672-.83.913-1.513.913ZM8.958,24.561a.832.832,0,1,1,.832.832.831.831,0,0,1-.832-.832h0m12.331.039a.832.832,0,1,1,.832.832.832.832,0,0,1-.832-.832h0m.257-1.887a.758.758,0,0,0-.9.584l-.418,1.949a10.249,10.249,0,0,1-8.545-.041l-.417-1.949a.759.759,0,0,0-.9-.583h0l-1.721.37a10.233,10.233,0,0,1-.89-1.049h8.374c.095,0,.158-.017.158-.1V18.928c0-.086-.063-.1-.158-.1h-2.45V16.947h2.649a1.665,1.665,0,0,1,1.629,1.412c.105.413.336,1.757.494,2.187.157.483.8,1.447,1.482,1.447h4.323a10.243,10.243,0,0,1-.949,1.1Zm4.65-7.821a10.261,10.261,0,0,1,.022,1.779H25.167c-.105,0-.148.069-.148.172v.483c0,1.136-.641,1.384-1.2,1.447-.535.06-1.128-.224-1.2-.551a3.616,3.616,0,0,0-1.671-2.808c1.03-.654,2.1-1.619,2.1-2.911A3.292,3.292,0,0,0,21.44,9.8a4.559,4.559,0,0,0-2.2-.724H8.367A10.246,10.246,0,0,1,14.1,5.84l1.282,1.344a.758.758,0,0,0,1.072.026h0l1.434-1.372a10.248,10.248,0,0,1,7.015,5l-.982,2.217a.761.761,0,0,0,.386,1Zm2.448.036-.033-.343,1.011-.943a.42.42,0,0,0-.013-.595.428.428,0,0,0-.121-.081L28.2,12.483l-.1-.334.806-1.12a.422.422,0,0,0-.13-.581.43.43,0,0,0-.133-.055l-1.363-.222-.164-.306.573-1.257a.419.419,0,0,0-.236-.544.426.426,0,0,0-.146-.029l-1.383.048L25.7,7.819l.318-1.347a.421.421,0,0,0-.343-.487.435.435,0,0,0-.144,0L24.183,6.3l-.266-.219L23.966,4.7a.421.421,0,0,0-.431-.411.426.426,0,0,0-.141.028l-1.257.573-.306-.164-.222-1.363a.421.421,0,0,0-.5-.318.43.43,0,0,0-.133.055l-1.121.806-.333-.1-.483-1.293a.421.421,0,0,0-.555-.215.442.442,0,0,0-.12.08L17.418,3.39l-.343-.033L16.347,2.18a.421.421,0,0,0-.688,0l-.728,1.177-.343.033-.943-1.012a.421.421,0,0,0-.595.015.442.442,0,0,0-.08.12L12.483,3.8l-.333.1-1.12-.8a.422.422,0,0,0-.581.13.43.43,0,0,0-.055.133l-.222,1.363-.306.164L8.608,4.317a.421.421,0,0,0-.544.239.444.444,0,0,0-.028.144l.048,1.383L7.818,6.3,6.471,5.984a.421.421,0,0,0-.487.343.435.435,0,0,0,0,.144L6.3,7.819l-.218.265L4.7,8.036a.422.422,0,0,0-.383.573L4.89,9.866l-.164.306-1.363.222a.42.42,0,0,0-.318.5.43.43,0,0,0,.055.133l.806,1.12-.1.334-1.293.483a.421.421,0,0,0-.215.555.414.414,0,0,0,.081.121l1.011.943-.033.343-1.177.728a.421.421,0,0,0,0,.688l1.177.728.033.343-1.011.943a.421.421,0,0,0,.015.595.436.436,0,0,0,.119.08l1.293.483.1.334L3.1,20.972a.421.421,0,0,0,.131.581.43.43,0,0,0,.133.055l1.363.222.164.307-.573,1.257a.422.422,0,0,0,.24.545.438.438,0,0,0,.143.028l1.383-.048.219.266-.317,1.348a.42.42,0,0,0,.341.486.4.4,0,0,0,.146,0L7.818,25.7l.266.218L8.035,27.3a.419.419,0,0,0,.429.41.413.413,0,0,0,.143-.028l1.257-.573.306.164.222,1.362a.421.421,0,0,0,.5.319.407.407,0,0,0,.133-.055l1.12-.807.334.1.483,1.292a.422.422,0,0,0,.556.214.436.436,0,0,0,.119-.08l.943-1.011.343.034.728,1.177a.422.422,0,0,0,.588.1.413.413,0,0,0,.1-.1l.728-1.177.343-.034.943,1.011a.421.421,0,0,0,.595-.015.436.436,0,0,0,.08-.119l.483-1.292.334-.1,1.12.807a.421.421,0,0,0,.581-.131.43.43,0,0,0,.055-.133l.222-1.362.306-.164,1.257.573a.421.421,0,0,0,.544-.239.438.438,0,0,0,.028-.143l-.048-1.384.265-.218,1.347.317a.421.421,0,0,0,.487-.34.447.447,0,0,0,0-.146L25.7,24.183l.218-.266,1.383.048a.421.421,0,0,0,.41-.431.4.4,0,0,0-.028-.142l-.573-1.257.164-.307,1.363-.222a.421.421,0,0,0,.319-.5.434.434,0,0,0-.056-.135l-.806-1.12.1-.334,1.293-.483a.42.42,0,0,0,.215-.554.414.414,0,0,0-.081-.121l-1.011-.943.033-.343,1.177-.728a.421.421,0,0,0,0-.688Z" style="fill:url(#a)"/></svg>