<svg xmlns="http://www.w3.org/2000/svg" viewBox="0 0 32 32"><title>file_type_jsp</title><path d="M29.192,2.5,22.275,9.992a24.849,24.849,0,0,1-5.091,14.754l6.021,1.49C33.243,16.882,29.192,2.5,29.192,2.5Z" style="fill:#fdb940"/><path d="M22.275,9.992a21.939,21.939,0,0,0-.288-4.337L6.726,22.194l10.436,2.585c.011-.011.011-.022.022-.033l-6.939-1.719Z" style="fill:#feb322"/><path d="M10.256,23.027,17.2,24.746A24.826,24.826,0,0,0,22.286,9.992Z" style="fill:#f98200"/><path d="M19.907,26.466c.608,0,1.2.033,1.782.077L2,21.745s3.663,1.2,8.09,7.755A15.944,15.944,0,0,1,19.907,26.466Z" style="fill:#1b208b"/></svg>