<svg xmlns="http://www.w3.org/2000/svg" viewBox="0 0 32 32"><title>file_type_kitchenci</title><path d="M20,2.434A7.353,7.353,0,0,1,22.543,2c2.149,0,4.3,0,6.448,0-.012,2.389.026,4.777-.018,7.164a6.7,6.7,0,0,1-6.226,6.177c-2.361.032-4.722,0-7.083.012,0-2.292-.012-4.585.006-6.877A6.689,6.689,0,0,1,20,2.434Z" style="fill:#5ca645"/><path d="M15.664,16.67c2.361.01,4.722-.02,7.081.014a6.691,6.691,0,0,1,6.23,6.232c.038,2.359.006,4.72.016,7.079-2.412-.016-4.827.034-7.239-.024a6.658,6.658,0,0,1-6.074-6.242C15.642,21.376,15.672,19.023,15.664,16.67Z" style="fill:#5ca645"/><path d="M7.95,5.4a5.654,5.654,0,0,1,6.381,5.653q0,4.941,0,9.886a5.67,5.67,0,0,1-8.92,4.706,5.579,5.579,0,0,1-2.4-4.494Q3,16,3.013,10.855A5.632,5.632,0,0,1,7.95,5.4ZM8,8.035a3.049,3.049,0,1,0,3.7,2.835A3.036,3.036,0,0,0,8,8.035Z" style="fill:#595a59"/></svg>