<svg xmlns="http://www.w3.org/2000/svg" viewBox="0 0 32 32"><title>file_type_onenote</title><path d="M16.621,2.326h1.9q0,1.274,0,2.547c2.976.114,5.988-.242,8.942.2.1.337.216.671.328,1,.75.134,1.959.041,2.077,1.059a28.973,28.973,0,0,1-.048,5.606,22.957,22.957,0,0,1-.057,5.962,21.112,21.112,0,0,1,.1,5.52c-.137.989-1.31.919-2.051,1.059a4.73,4.73,0,0,1-.378,1.549,3.8,3.8,0,0,1-1.921.3c-2.331-.022-4.662-.013-6.99-.013q0,1.274,0,2.547H16.532C11.7,28.787,6.846,27.976,2,27.13Q2,16,2,4.876C6.875,4.027,11.75,3.194,16.621,2.326Z" style="fill:#733781"/><path d="M18.523,5.821q4.136,0,8.271,0c0,.423,0,.843,0,1.266.731,0,1.463.016,2.2.048.041,1.673.057,3.345-.013,5.018-.728.025-1.46.038-2.185.041q0,6.993,0,13.985-4.136,0-8.271,0v-2.55q3.019,0,6.042,0c0-.423,0-.843,0-1.266q-3.024,0-6.042,0v-1.6q3.019,0,6.042,0c0-.423,0-.843,0-1.266q-3.024,0-6.042,0V17.9q3.019,0,6.042,0c0-.423,0-.843,0-1.266q-3.024,0-6.042,0v-1.6q3.019,0,6.039,0c0-.423,0-.843,0-1.266q-3.024,0-6.042,0v-1.6q3.019,0,6.042,0c0-.423,0-.843,0-1.266q-3.024,0-6.042,0v-1.6q3.019,0,6.042,0c0-.423,0-.843,0-1.266q-3.024,0-6.042,0V5.821Z" style="fill:#fff"/><path d="M11.826,10.667c.633-.035,1.269-.07,1.908-.1V21.1c-.687-.029-1.367-.067-2.048-.1-1.266-2.433-2.636-4.811-3.86-7.266.07,2.353.029,4.71.035,7.063-.579-.038-1.151-.073-1.727-.108q.014-4.846,0-9.7l1.965-.1c1.243,2.277,2.506,4.544,3.714,6.843C11.839,15.377,11.813,13.02,11.826,10.667Z" style="fill:#fff"/><path d="M27.742,13.122c.413.016.827.035,1.243.054.054,1.673.064,3.342-.01,5.012-.413.019-.824.038-1.234.054Q27.737,15.68,27.742,13.122Z" style="fill:#fff"/><path d="M27.742,19.161c.413.019.83.041,1.25.064.048,1.663.045,3.326,0,4.989l-1.25.076Q27.737,21.724,27.742,19.161Z" style="fill:#fff"/></svg>