<svg xmlns="http://www.w3.org/2000/svg" xmlns:xlink="http://www.w3.org/1999/xlink" viewBox="0 0 32 32"><defs><clipPath id="a"><polygon points="2 2 30 2 30 30 2 30 2 2 2 2" style="fill:none;clip-rule:evenodd"/></clipPath></defs><title>file_type_vim</title><polygon points="29.989 15.856 15.856 2.011 2.011 16.136 15.856 29.989 29.989 15.856 29.989 15.856" style="fill:#231f20;fill-rule:evenodd"/><g style="clip-path:url(#a)"><polygon points="29.989 15.856 15.856 2.011 2.011 16.136 15.856 29.989 29.989 15.856 29.989 15.856" style="fill:none;stroke:#231f20;stroke-miterlimit:10;stroke-width:0.216000005602837px"/></g><polygon points="28.575 15.856 29.422 15.856 15.856 29.422 15.856 28.575 28.575 15.856 28.575 15.856" style="fill:#29695d;fill-rule:evenodd"/><polygon points="28.575 15.856 29.422 15.856 15.856 29.422 15.856 28.575 28.575 15.856 28.575 15.856" style="fill:none;stroke:#231f20;stroke-miterlimit:10;stroke-width:0.216000005602837px"/><polygon points="2.578 16.136 3.425 16.136 15.856 28.575 15.856 29.422 2.578 16.136 2.578 16.136" style="fill:#317367;fill-rule:evenodd"/><polygon points="2.578 16.136 3.425 16.136 15.856 28.575 15.856 29.422 2.578 16.136 2.578 16.136" style="fill:none;stroke:#231f20;stroke-miterlimit:10;stroke-width:0.216000005602837px"/><polygon points="15.856 3.418 15.856 2.578 2.578 16.136 3.425 16.136 15.856 3.418 15.856 3.418" style="fill:#60c2ac;fill-rule:evenodd"/><polygon points="15.856 3.418 15.856 2.578 2.578 16.136 3.425 16.136 15.856 3.418 15.856 3.418" style="fill:none;stroke:#231f20;stroke-miterlimit:10;stroke-width:0.216000005602837px"/><polygon points="15.856 2.578 15.856 3.418 28.575 15.856 29.422 15.856 15.856 2.578 15.856 2.578" style="fill:#43b54a;fill-rule:evenodd"/><polygon points="15.856 2.578 15.856 3.418 28.575 15.856 29.422 15.856 15.856 2.578 15.856 2.578" style="fill:none;stroke:#231f20;stroke-miterlimit:10;stroke-width:0.216000005602837px"/><polygon points="15.856 28.575 28.575 15.856 15.856 3.418 3.425 16.136 15.856 28.575 15.856 28.575" style="fill:#3c8376;fill-rule:evenodd"/><polygon points="15.856 28.575 28.575 15.856 15.856 3.418 3.425 16.136 15.856 28.575 15.856 28.575" style="fill:none;stroke:#231f20;stroke-miterlimit:10;stroke-width:0.216000005602837px"/><polygon points="18.498 6.246 19.345 7.1 13.502 13.028 13.502 7.1 14.069 7.1 14.916 6.246 14.916 3.992 14.069 3.138 4.652 3.138 3.805 3.992 3.805 6.246 4.652 7.1 5.312 7.1 5.312 26.314 6.346 27.161 9.267 27.161 29.516 6.246 29.516 3.992 28.669 3.138 19.438 3.138 18.498 3.992 18.498 6.246 18.498 6.246" style="fill:#231f20;fill-rule:evenodd"/><polygon points="18.498 6.246 19.345 7.1 13.502 13.028 13.502 7.1 14.069 7.1 14.916 6.246 14.916 3.992 14.069 3.138 4.652 3.138 3.805 3.992 3.805 6.246 4.652 7.1 5.312 7.1 5.312 26.314 6.346 27.161 9.267 27.161 29.516 6.246 29.516 3.992 28.669 3.138 19.438 3.138 18.498 3.992 18.498 6.246 18.498 6.246" style="fill:none;stroke:#231f20;stroke-miterlimit:10;stroke-width:0.216000005602837px"/><polygon points="4.932 6.533 4.365 5.966 4.365 4.272 4.932 3.705 13.789 3.698 14.349 4.272 13.789 4.544 13.502 4.272 4.932 5.679 4.932 6.533 4.932 6.533" style="fill:#fff;fill-rule:evenodd"/><polygon points="4.932 6.533 4.365 5.966 4.365 4.272 4.932 3.705 13.789 3.698 14.349 4.272 13.789 4.544 13.502 4.272 4.932 5.679 4.932 6.533 4.932 6.533" style="fill:none;stroke:#231f20;stroke-miterlimit:10;stroke-width:0.216000005602837px"/><polygon points="6.626 26.594 5.966 26.027 5.966 6.526 6.626 5.966 6.626 26.594 6.626 26.594" style="fill:#fff;fill-rule:evenodd"/><polygon points="6.626 26.594 5.966 26.027 5.966 6.526 6.626 5.966 6.626 26.594 6.626 26.594" style="fill:none;stroke:#231f20;stroke-miterlimit:10;stroke-width:0.216000005602837px"/><polygon points="20.759 6.533 21.326 5.966 21.326 7.1 11.902 16.703 12.942 14.442 20.759 6.533 20.759 6.533" style="fill:#fff;fill-rule:evenodd"/><polygon points="20.759 6.533 21.326 5.966 21.326 7.1 11.902 16.703 12.942 14.442 20.759 6.533 20.759 6.533" style="fill:none;stroke:#231f20;stroke-miterlimit:10;stroke-width:0.216000005602837px"/><polygon points="6.82 5.686 6.626 5.966 5.966 6.533 4.932 6.533 4.932 5.399 6.82 5.686 6.82 5.686" style="fill:#929497;fill-rule:evenodd"/><polygon points="6.82 5.686 6.626 5.966 5.966 6.533 4.932 6.533 4.932 5.399 6.82 5.686 6.82 5.686" style="fill:none;stroke:#231f20;stroke-miterlimit:10;stroke-width:0.216000005602837px"/><polygon points="12.942 6.533 12.942 14.442 11.902 16.696 11.902 5.958 13.502 5.958 13.789 5.678 13.502 4.272 14.349 4.272 14.349 5.966 13.789 6.533 12.942 6.533 12.942 6.533" style="fill:#929497;fill-rule:evenodd"/><polygon points="12.942 6.533 12.942 14.442 11.902 16.696 11.902 5.958 13.502 5.958 13.789 5.678 13.502 4.272 14.349 4.272 14.349 5.966 13.789 6.533 12.942 6.533 12.942 6.533" style="fill:none;stroke:#231f20;stroke-miterlimit:10;stroke-width:0.216000005602837px"/><polygon points="19.625 6.533 19.065 5.966 19.065 4.272 19.718 3.705 28.295 3.705 28.956 4.272 28.008 5.119 19.625 5.679 19.625 6.533 19.625 6.533" style="fill:#fff;fill-rule:evenodd"/><polygon points="19.625 6.533 19.065 5.966 19.065 4.272 19.718 3.705 28.295 3.705 28.956 4.272 28.008 5.119 19.625 5.679 19.625 6.533 19.625 6.533" style="fill:none;stroke:#231f20;stroke-miterlimit:10;stroke-width:0.216000005602837px"/><polygon points="28.956 5.966 9.074 26.594 6.626 26.594 6.626 25.747 8.42 25.747 28.295 5.399 28.008 4.272 28.956 4.272 28.956 5.966 28.956 5.966" style="fill:#929497;fill-rule:evenodd"/><polygon points="28.956 5.966 9.074 26.594 6.626 26.594 6.626 25.747 8.42 25.747 28.295 5.399 28.008 4.272 28.956 4.272 28.956 5.966 28.956 5.966" style="fill:none;stroke:#231f20;stroke-miterlimit:10;stroke-width:0.216000005602837px"/><polygon points="21.512 5.686 21.319 5.966 20.759 6.533 19.625 6.533 19.625 5.399 21.512 5.686 21.512 5.686" style="fill:#929497;fill-rule:evenodd"/><polygon points="21.512 5.686 21.319 5.966 20.759 6.533 19.625 6.533 19.625 5.399 21.512 5.686 21.512 5.686" style="fill:none;stroke:#231f20;stroke-miterlimit:10;stroke-width:0.216000005602837px"/><polygon points="11.902 16.696 11.902 5.958 13.502 5.958 13.789 5.679 13.789 4.544 13.502 4.265 5.212 4.265 4.932 4.544 4.932 5.679 5.212 5.958 6.626 5.958 6.626 25.747 6.992 26.027 8.607 26.027 28.389 5.399 28.389 4.588 28.102 4.265 19.912 4.265 19.625 4.544 19.625 5.686 19.912 5.966 21.326 5.966 21.326 7.1 11.902 16.696 11.902 16.696" style="fill:#d0d2d3;fill-rule:evenodd"/><polygon points="11.902 16.696 11.902 5.958 13.502 5.958 13.789 5.679 13.789 4.544 13.502 4.265 5.212 4.265 4.932 4.544 4.932 5.679 5.212 5.958 6.626 5.958 6.626 25.747 6.992 26.027 8.607 26.027 28.389 5.399 28.389 4.588 28.102 4.265 19.912 4.265 19.625 4.544 19.625 5.686 19.912 5.966 21.326 5.966 21.326 7.1 11.902 16.696 11.902 16.696" style="fill:none;stroke:#231f20;stroke-miterlimit:10;stroke-width:0.216000005602837px"/><polygon points="17.041 16.711 17.701 16.144 19.395 16.144 19.869 16.711 19.302 18.405 18.649 18.972 16.955 18.972 16.474 18.405 17.041 16.711 17.041 16.711" style="fill:#231f20;fill-rule:evenodd"/><polygon points="17.041 16.711 17.701 16.144 19.395 16.144 19.869 16.711 19.302 18.405 18.649 18.972 16.955 18.972 16.474 18.405 17.041 16.711 17.041 16.711" style="fill:none;stroke:#231f20;stroke-miterlimit:10;stroke-width:0.216000005602837px"/><polygon points="17.608 26.034 19.309 20.953 18.742 20.953 19.309 19.251 21.843 19.251 22.41 19.819 22.79 19.819 23.35 19.251 25.238 19.251 25.805 19.819 26.178 19.819 26.745 19.251 28.812 19.251 29.566 20.386 28.331 24.405 28.891 24.405 28.346 26.034 24.951 26.034 26.278 22.079 25.431 22.079 24.649 24.391 25.209 24.391 24.678 26.034 21.283 26.034 22.603 22.079 21.756 22.079 20.967 24.405 21.534 24.405 21.003 26.034 17.608 26.034 17.608 26.034" style="fill:#231f20;fill-rule:evenodd"/><polygon points="17.608 26.034 19.309 20.953 18.742 20.953 19.309 19.251 21.843 19.251 22.41 19.819 22.79 19.819 23.35 19.251 25.238 19.251 25.805 19.819 26.178 19.819 26.745 19.251 28.812 19.251 29.566 20.386 28.331 24.405 28.891 24.405 28.346 26.034 24.951 26.034 26.278 22.079 25.431 22.079 24.649 24.391 25.209 24.391 24.678 26.034 21.283 26.034 22.603 22.079 21.756 22.079 20.967 24.405 21.534 24.405 21.003 26.034 17.608 26.034 17.608 26.034" style="fill:none;stroke:#231f20;stroke-miterlimit:10;stroke-width:0.216000005602837px"/><polygon points="28.554 19.819 28.992 20.443 27.599 24.907 28.159 24.907 27.972 25.467 25.711 25.467 27.032 21.512 25.051 21.512 23.924 24.907 24.484 24.907 24.297 25.467 22.036 25.467 23.357 21.512 21.376 21.512 20.249 24.907 20.816 24.907 20.622 25.467 18.361 25.467 20.063 20.386 19.495 20.386 19.682 19.819 21.756 19.819 22.323 20.386 22.883 20.386 23.45 19.819 25.144 19.819 25.711 20.386 26.278 20.386 26.845 19.819 28.554 19.819 28.554 19.819" style="fill:#d0d2d3;fill-rule:evenodd"/><polygon points="28.554 19.819 28.992 20.443 27.599 24.907 28.159 24.907 27.972 25.467 25.711 25.467 27.032 21.512 25.051 21.512 23.924 24.907 24.484 24.907 24.297 25.467 22.036 25.467 23.357 21.512 21.376 21.512 20.249 24.907 20.816 24.907 20.622 25.467 18.361 25.467 20.063 20.386 19.495 20.386 19.682 19.819 21.756 19.819 22.323 20.386 22.883 20.386 23.45 19.819 25.144 19.819 25.711 20.386 26.278 20.386 26.845 19.819 28.554 19.819 28.554 19.819" style="fill:none;stroke:#231f20;stroke-miterlimit:10;stroke-width:0.216000005602837px"/><path d="M19.022,19.251,17.292,24.4h.589l-.56,1.637H13.933l1.694-5.082H15.06l3.962-1.7Zm-3.962,1.7.567-1.7h3.4l-3.962,1.7Z" style="fill:#231f20;fill-rule:evenodd"/><path d="M19.022,19.251,17.292,24.4h.589l-.56,1.637H13.933l1.694-5.082H15.06l3.962-1.7Zm-3.962,1.7.567-1.7h3.4l-3.962,1.7Z" style="fill:none;stroke:#231f20;stroke-miterlimit:10;stroke-width:0.216000005602837px"/><polygon points="16.947 25.467 17.134 24.907 16.567 24.907 18.268 19.819 15.914 19.819 15.72 20.386 16.38 20.386 14.686 25.467 16.947 25.467 16.947 25.467" style="fill:#d0d2d3;fill-rule:evenodd"/><polygon points="16.947 25.467 17.134 24.907 16.567 24.907 18.268 19.819 15.914 19.819 15.72 20.386 16.38 20.386 14.686 25.467 16.947 25.467 16.947 25.467" style="fill:none;stroke:#231f20;stroke-miterlimit:10;stroke-width:0.216000005602837px"/><polygon points="18.828 18.125 19.208 16.991 19.022 16.711 17.888 16.711 17.514 16.991 17.134 18.125 17.328 18.405 18.462 18.405 18.828 18.125 18.828 18.125" style="fill:#d0d2d3;fill-rule:evenodd"/><polygon points="18.828 18.125 19.208 16.991 19.022 16.711 17.888 16.711 17.514 16.991 17.134 18.125 17.328 18.405 18.462 18.405 18.828 18.125 18.828 18.125" style="fill:none;stroke:#231f20;stroke-miterlimit:10;stroke-width:0.216000005602837px"/></svg>