<svg xmlns="http://www.w3.org/2000/svg" viewBox="0 0 32 32"><title>file_type_textile</title><path d="M28.681,26.075H3.319A1.317,1.317,0,0,1,2,24.756V7.244A1.317,1.317,0,0,1,3.319,5.925H28.681A1.317,1.317,0,0,1,30,7.244V24.76A1.316,1.316,0,0,1,28.681,26.075Z" style="fill:#ffe7ac"/><path d="M6.066,12.848a4.987,4.987,0,0,1,1.508-.659V10.664a3.7,3.7,0,0,1,.743-.33,7.869,7.869,0,0,1,1.327-.347h.642v2.391h2.484V13.6H10.286v4.848a3.172,3.172,0,0,0,.29,1.609,1.07,1.07,0,0,0,.971.448,7.127,7.127,0,0,0,.76-.048,3.338,3.338,0,0,0,.782-.18l.132.62a2.388,2.388,0,0,1-.5.356,5.457,5.457,0,0,1-.752.356,5.837,5.837,0,0,1-.923.281A4.769,4.769,0,0,1,10,22a2.385,2.385,0,0,1-1.824-.637,2.947,2.947,0,0,1-.6-2.062V13.591H6.066Z"/><path d="M14.607,20.453a1.447,1.447,0,0,1,.431-1.09,1.591,1.591,0,0,1,1.147-.413,1.649,1.649,0,0,1,1.165.413,1.422,1.422,0,0,1,.453,1.09,1.369,1.369,0,0,1-.453,1.081,1.692,1.692,0,0,1-1.165.4,1.61,1.61,0,0,1-1.147-.4A1.427,1.427,0,0,1,14.607,20.453Z"/></svg>