<svg xmlns="http://www.w3.org/2000/svg" viewBox="0 0 32 32"><title>file_type_postcss</title><path d="M29.989,15.27c-.009-.359-.028-.728-.047-1.087s-.028-.737-.066-1.106c-.066-.5-.132-1.011-.246-1.5a8.561,8.561,0,0,0-.369-1.181,14.217,14.217,0,0,0-.586-1.352,20.888,20.888,0,0,0-1.3-1.976c-.293-.416-.671-.756-.955-1.181a2.915,2.915,0,0,0-.633-.643c-.378-.3-.775-.577-1.172-.841-.3-.208-.6-.406-.926-.586-.255-.142-.529-.255-.794-.378a4.041,4.041,0,0,0-.936-.378,2.453,2.453,0,0,1-.246-.076c-.217-.076-.425-.161-.643-.227-.331-.1-.652-.227-.992-.312a9.066,9.066,0,0,0-1.011-.189c-.378-.057-.766-.076-1.144-.113-.246-.028-.492-.057-.728-.066-.359-.019-.728-.019-1.087-.028a5.338,5.338,0,0,0-.548-.019,8.068,8.068,0,0,0-.822.076c-.265.028-.529.076-.785.113-.312.038-.624.057-.936.095-.293.038-.6.095-.888.142-.1.019-.208.057-.312.076a5.99,5.99,0,0,0-.69.142c-.406.123-.813.265-1.21.416a11.136,11.136,0,0,0-1.077.5c-.359.2-.7.435-1.04.662-.321.217-.643.444-.955.69a11.037,11.037,0,0,0-.86.766c-.151.151-.274.331-.416.5-.236.274-.473.539-.7.822-.189.236-.359.482-.539.728a12.061,12.061,0,0,0-.851,1.361c-.1.189-.2.378-.293.567-.142.284-.293.558-.425.851a3.6,3.6,0,0,0-.227.633c-.132.463-.265.936-.388,1.4A5.291,5.291,0,0,0,2,13.843a8.961,8.961,0,0,0,.066,1.125c.009.094-.047.208.066.284.009,0,0,.038-.01.047a.092.092,0,0,0,.057.132.033.033,0,0,1,.009.019H2.143c-.028.085.066.151.028.246-.009.019.028.057.047.085a.318.318,0,0,0,0,.094,2.184,2.184,0,0,1,.047.265c0,.066.057.142.076.208a.11.11,0,0,1-.019.094c-.057.066-.047.123.038.161a.109.109,0,0,1,.047.066,1.071,1.071,0,0,1-.028.17c.019.019.028.038.019.057s-.028.057-.019.076a1.248,1.248,0,0,1,.113.491.362.362,0,0,0,.038.123.141.141,0,0,1,.057.009l-.057.17a.792.792,0,0,1,.132-.057,2.936,2.936,0,0,0,.095.34.162.162,0,0,0,.057.057c-.01.019-.01.057-.028.066a2.87,2.87,0,0,0,.123.492c.01,0,.019-.01.028-.01-.028-.17-.047-.35-.076-.52v-.057a.1.1,0,0,1,.028-.01.657.657,0,0,1,.028.113c.076,0,.189.047.265.047a.882.882,0,0,1,.028-.085c-.057-.057-.1-.142-.161-.2a.291.291,0,0,1,0,.132c-.038-.019-.085-.038-.132-.057a1.678,1.678,0,0,1,.132-.151c0-.085-.047-.161-.18-.151.057-.019.114-.047.18-.066a.653.653,0,0,0,.028.076c.076-.132-.038-.236-.038-.369a2.454,2.454,0,0,0-.113-.492c-.047-.265-.038-.662-.066-.926,0-.019-.028-.038-.047-.057-.01.01-.057.132-.066.142.028.227.057.454.076.681-.009,0-.019,0-.019.009-.038-.2-.076-.406-.123-.633a1.094,1.094,0,0,0-.019.132c-.028-.009-.038-.019-.085-.038.038.085.076.142.1.208a.309.309,0,0,0-.142-.019v.265a1.28,1.28,0,0,1-.17-.236c-.019-.076-.028-.151-.047-.227l.028-.01a.511.511,0,0,1-.028-.094q-.014-.1-.028-.227c.009-.009.047-.019.066-.038l-.076-.113a1.545,1.545,0,0,0,.17.019c0-.019.009-.028,0-.038-.095-.085-.028-.161.009-.236.019-.038.085-.047.1-.085.076-.142.2-.255.2-.435a2.561,2.561,0,0,1,.038-.265c.019-.161.038-.321.047-.482A4.357,4.357,0,0,1,2.9,13.55c.076-.331.17-.662.274-.992.076-.236.161-.463.255-.7a10.991,10.991,0,0,1,.454-1.087c.255-.51.548-1,.832-1.5.18-.312.369-.6.567-.907s.378-.6.6-.87a7.667,7.667,0,0,1,1-1.068c.378-.34.737-.69,1.144-1A11.566,11.566,0,0,1,9.7,4.344,12.8,12.8,0,0,1,11.189,3.7c.321-.123.671-.179,1-.284a3.981,3.981,0,0,1,1.153-.189c.255-.009.5-.038.756-.066.227-.019.454-.038.7-.066a.417.417,0,0,0-.047.076c-.1.151-.217.3-.321.454-.085.123-.18.255-.265.378-.151.2-.312.4-.454.6-.217.312-.416.633-.643.945s-.473.586-.709.879c-.312.406-.6.822-.917,1.229-.284.388-.586.756-.86,1.144-.246.34-.463.7-.7,1.049-.35.52-.7,1.03-1.049,1.55-.274.4-.548.785-.832,1.182a.227.227,0,0,1-.076.057c-.019.019-.057.038-.057.057a1.088,1.088,0,0,1-.047.189c-.076.142-.151.284-.236.416-.047.076-.113.142-.17.217-.019-.009-.028-.019-.047-.019.038-.095.2-.151.123-.293-.047.076-.095.142-.142.217l-.113.227c.038.028.1.047.038.1-.028.047-.057.1-.085.151.01,0,.01.009.019.009.028-.038.057-.066.085-.1.009,0,.019.01.028.01a1.385,1.385,0,0,1-.132.265.761.761,0,0,1-.2.189c.01.009.076.038.085.047.028-.038.038-.019.066-.057.019.028.047-.019.057.009a.441.441,0,0,0,.066-.094.343.343,0,0,1,.189-.208A.37.37,0,0,0,7.55,13.9c.284-.293.577-.577.832-.888.4-.482.756-.983,1.134-1.475.161-.208.35-.416.52-.614.019.01.038.01.047.019-.019.2-.038.406-.047.6-.028.35-.047.7-.076,1.059-.009.142,0,.284-.009.425,0,.038-.028.066-.028.1,0,.094.028.2.028.293-.028.35-.066.69-.095,1.04a.561.561,0,0,0,.047.217.262.262,0,0,0-.047-.038,10.386,10.386,0,0,1,.019,1.626c.038-.01.057-.019.057-.038a1.441,1.441,0,0,0,.028-.2,1.13,1.13,0,0,0,0-.18v-.094a3.188,3.188,0,0,0,.028-.52,1.776,1.776,0,0,1,.019-.548c.019-.076-.009-.17.038-.265v.142a13.228,13.228,0,0,1-.066,1.616c-.009.047.028.132-.076.123-.01,0-.019.047-.038.076-.047.094.057.217-.038.312-.019.019.019.1.028.161,0,.019.01.038,0,.047-.038.066-.038.066.019.076.01.208.028.4.038.6h.028a7.062,7.062,0,0,0,.113-1.1,3.744,3.744,0,0,1,.01.463c0,.246-.01.482-.019.728a.733.733,0,0,1-.019.142,2.56,2.56,0,0,1-.085.388,1.063,1.063,0,0,0-.019.35v.359c0,.01.028.038.028.076.009.085-.038.17-.01.265.01.019-.009.047-.019.066a.134.134,0,0,0-.009.085l.028.142c0,.009.01.019.019.038a.3.3,0,0,0,.01-.076c.161.019.076.161.151.236-.038.019-.066.028-.066.038a.424.424,0,0,1,.028.1,2.163,2.163,0,0,1-.019.246c0,.217-.01.435-.01.643,0,.028.01.057.01.085s-.01.038-.01.066v.2h.038a.522.522,0,0,1-.066.085c-.009,0-.038,0-.038-.009V20.006H9.847a9.966,9.966,0,0,1-.076,1.607,2.426,2.426,0,0,1-.274.028c-.293,0-.586,0-.879.009-.35,0-.69.01-1.04.01-.17,0-.35.019-.52.019-.227,0-.463-.028-.69-.028-.35,0-.69.028-1.04.038-.255.009-.51.009-.766.019-.17.009-.34.019-.51.038a1.541,1.541,0,0,0-.236.066.8.8,0,0,0-.151,0c-.095.019-.18.076-.274.095-.142.028-.18.066-.161.208v.094a.283.283,0,0,0-.066-.047.033.033,0,0,0-.019.009c.009.028.028.047.038.076.038-.019.085-.066.123-.066h.132c-.019,0-.028.057-.057.1.076-.028.123-.047.17-.066a.268.268,0,0,1,.009.076,1.238,1.238,0,0,1,.369-.019,7.511,7.511,0,0,0,1.125.17c.246.019.482.028.728.038.35.019.7.038,1.049.038.293,0,.577-.028.87-.028.406,0,.813.019,1.219.028.085,0,.18-.01.274-.01h.69c.614-.019,1.229-.028,1.843-.047.35-.009.709-.028,1.059-.038l1.077-.028c.416-.009.832-.009,1.238-.019.312,0,.614-.009.926-.019.35-.01.709-.038,1.059-.057.189-.009.378-.028.567-.047.227-.019.463-.047.69-.057.34-.019.69-.028,1.03-.047.425-.028.851-.066,1.285-.076.4-.019.8-.009,1.2-.019.35-.009.7-.028,1.059-.038l.6-.028s.4-.009.6-.028c.34-.019.681-.057,1.021-.066.217-.009.435,0,.652-.009.35-.01.709-.028,1.059-.028.132,0,.274.019.444.028-.076.066-.123.1-.18.151a.588.588,0,0,1,.113.047c0,.01-.009.019-.009.038-.047,0-.094.01-.142.01a.6.6,0,0,0-.057.161h.17c-.066,0-.123.085-.189.142.01.009.019.009.028.019-.1-.038-.17-.019-.208.085a.209.209,0,0,0,.076.009c-.009.028-.019.057-.028.094a.137.137,0,0,0-.019.066l-.028-.028a.121.121,0,0,0-.009-.057c-.057.057-.142.095-.095.217-.038.019-.085.038-.132.066a.413.413,0,0,1,.038.066c-.085.009-.17.028-.151.132.038.009.076.028.1.038-.047.019-.094.047-.142.066-.01.019-.019.066-.038.076-.132.028-.057.076-.019.123a.38.38,0,0,1-.085.047.153.153,0,0,1,.066.038.563.563,0,0,1-.066.038.312.312,0,0,0,.057.028q-.057.042-.142.113a.086.086,0,0,0,.009.047.827.827,0,0,0-.113.132,1.861,1.861,0,0,1-.1.189,3.488,3.488,0,0,1-.6.643,2.062,2.062,0,0,0-.265.236c-.17.161-.321.34-.5.492-.236.2-.482.378-.737.558-.312.217-.624.435-.936.643-.17.113-.359.2-.539.3s-.35.2-.529.3a2.732,2.732,0,0,1-.34.236c-.312.132-.643.246-.964.369-.028.009-.047.019-.076.028-.236.1-.463.217-.7.3a5.4,5.4,0,0,1-.671.18,2.042,2.042,0,0,1-.246.009c-.161.028-.321.066-.482.085-.416.057-.832.094-1.248.151-.246.028-.482.076-.728.1-.17.01-.35-.009-.52-.009a2.524,2.524,0,0,1-.378.009c-.2-.028-.4-.076-.6-.113a.281.281,0,0,0-.151-.009c-.076.038-.142-.019-.217,0-.047.009-.094-.028-.142-.028s-.085.009-.132,0a.868.868,0,0,0-.312-.057,1.225,1.225,0,0,1-.35-.076l-.5-.113a.833.833,0,0,1-.189-.085.18.18,0,0,1-.085.028,2.61,2.61,0,0,1-.473-.094.846.846,0,0,0-.4-.094c-.038.009-.066-.01-.1-.01-.028-.038-.057-.113-.085-.113-.189.01-.3-.151-.463-.2-.085-.028-.151-.123-.236-.151-.208-.085-.378-.265-.614-.293a1.355,1.355,0,0,1-.236-.076.832.832,0,0,0,.076.095l-.019.019c-.255-.151-.51-.3-.766-.444-.038-.01-.066-.047-.095-.066l-.255-.17c-.028-.019-.085-.047-.085-.038-.057.066-.113.01-.151-.009-.255-.18-.548-.293-.794-.492a1.557,1.557,0,0,1-.3-.246,1.489,1.489,0,0,0-.473-.369c-.142-.076-.274-.161-.406-.246a.251.251,0,0,1-.132-.208c0-.066-.028-.132-.113-.094-.038-.057-.076-.123-.123-.142a1,1,0,0,1-.274-.208c-.085-.076-.151-.18-.255-.217a1.129,1.129,0,0,1-.416-.369c-.265-.312-.5-.652-.747-.983a.681.681,0,0,0-.085-.076l-.01.01c.047.094.095.18.142.274-.01.009-.028.019-.038.028-.057-.066-.123-.132-.18-.2-.01.01-.019.019-.028.019L5.4,24.146c.057.085.1.17.161.255a.128.128,0,0,1-.038.028.372.372,0,0,1-.246-.18.351.351,0,0,0-.369-.227,1.635,1.635,0,0,1-.047-.208.776.776,0,0,1-.132-.009c.132.208.246.388.369.6-.047-.028-.076-.047-.094-.057.17.18.293.406.51.52.047.217.293.321.35.529l-.132-.028c-.076-.094-.161-.189-.246-.293a.48.48,0,0,0,.085.17,3.606,3.606,0,0,0,.35.406c.047.047.113.066.113.151a.263.263,0,0,1,.076-.047.591.591,0,0,0-.038.085c.038,0,.066.009.095.009.019.057-.01.142.1.123.01,0,.019.009.028.019.047.123.123.123.227.076a.073.073,0,0,1,.076.019c.047.1.113.113.2.038,0,.047.009.094.009.132H6.85c0-.019-.009-.047-.009-.094.047.038.076.057.095.076a1.608,1.608,0,0,0,.312.359c.18.151.34.312.51.454a7.216,7.216,0,0,0,1.068.709c.454.255.888.529,1.352.775a7.3,7.3,0,0,0,1.768.633c.227.047.444.094.671.151.2.057.4.142.6.189.3.066.614.123.917.18l.208.028v.019c.085,0,.189-.038.208-.01.047.076.085.038.142.028a.81.81,0,0,1,.217-.019,7.287,7.287,0,0,0,.785.047c.057,0,.142-.047.189.047.019-.01.028-.019.047-.028.038-.01.085-.01.123-.019V29.8a.438.438,0,0,1-.076.019.756.756,0,0,1,.1.028.125.125,0,0,1-.047.028.414.414,0,0,0-.085.047,2.122,2.122,0,0,0,.945,0v-.057h.038a.135.135,0,0,0,.019.057,3.024,3.024,0,0,0,1.267-.161c.038.047.066.113.123.019.019-.028.066-.038.1-.047A.52.52,0,0,1,18.7,29.7c.085.028.113-.047.18-.047a1.765,1.765,0,0,0,.321-.028c.057-.009.113-.038.18-.057a.035.035,0,0,0-.009-.028,1.563,1.563,0,0,0-.2-.019c.113-.057.217-.1.321-.151,0,.009.01.009.01.019-.028.009-.047.047-.085.047h.132c-.028,0-.066.085-.113.142l.955-.236v-.019c-.038.009-.066.009-.095.019-.009-.2.208-.132.284-.246-.095.028-.189.057-.284.076v-.019c.321-.142.652-.284.974-.425,0,.01.01.01.01.019-.057.038-.113.066-.2.113a1.189,1.189,0,0,1,.123.019c0,.028,0,.047-.009.057.161-.01.123-.151.17-.236.028.009.066.028.095.019a2.451,2.451,0,0,0,.246-.076c.095-.028.189-.057.284-.095.151-.066.293-.151.444-.227a.456.456,0,0,1,.113,0,.1.1,0,0,0,.066-.038c.038-.028.076-.085.1-.076a.214.214,0,0,0,.265-.151c.01,0,.01-.01.019-.01a1.375,1.375,0,0,1,.142-.1c.208-.113.406-.227.614-.34.009-.009.028,0,.047,0a.235.235,0,0,0,.085-.009c.123-.057.236-.123.35-.189-.028-.01,0-.019-.094-.028V27.36a1.161,1.161,0,0,0,.18-.047l-.019-.019c.246-.246.558-.425.794-.633a.546.546,0,0,0,.095.019.233.233,0,0,0,.01-.076.876.876,0,0,1,.123-.142c.208-.189.435-.35.624-.548.274-.274.539-.558.785-.851a7.692,7.692,0,0,0,.643-.822c.265-.406.492-.822.728-1.248.17-.3.321-.6.492-.907.019-.028.057-.066.085-.066.255-.028.51-.047.756-.076a.73.73,0,0,0,.18-.076c-.028-.047-.047-.1-.076-.151s-.094-.1-.132-.161a.908.908,0,0,1-.095-.161c-.028-.047-.057-.085-.085-.132a3.412,3.412,0,0,1-.161-.321.2.2,0,0,1-.019-.1c.17-.369.236-.766.4-1.134a5.787,5.787,0,0,0,.284-1.21c.066-.388.1-.775.151-1.163.028-.274.066-.539.076-.813a7.947,7.947,0,0,0,.028-1.248ZM6.226,25.819c-.066-.076-.123-.161-.189-.236l.028-.028c.1.114.208.227.312.35a.455.455,0,0,1-.151-.085Zm.151.085c.028-.009.057-.009.085-.019.028.047.047.1.076.161-.132-.009-.2-.066-.161-.142Zm9.83,3.9V29.78l.529-.057v.028a5.025,5.025,0,0,1-.529.057Zm2.382-.246c-.132.028-.274.047-.406.066-.047.01-.1.057-.123-.028-.019.009-.038.009-.057.019.047.142.161.028.255.085-.208.028-.406.047-.6.076v-.019l.18-.028V29.7a2.84,2.84,0,0,0-.284-.019c-.028,0-.066.038-.094.047a.482.482,0,0,1-.123.019c-.161.009-.321.009-.473.019-.009,0-.028-.01-.038-.01v-.028l1.89-.255c.009.019.009.038.019.057a.63.63,0,0,0-.142.028Zm.142-.095c.217-.028.416-.047.624-.076-.435.123-.577.142-.624.076ZM10.5,10.384c.3-.416.614-.832.917-1.257.094-.123.17-.255.265-.378a.6.6,0,0,1,.113-.095l-.01-.019a.865.865,0,0,0,.094-.123,1.936,1.936,0,0,0,.113-.246.133.133,0,0,1,.038-.038c.132.066.132-.076.18-.123.085-.094.17-.2.246-.293a1.957,1.957,0,0,0,.161-.227c.009-.028-.019-.076-.028-.113h-.028c.028-.019.057-.047.085-.066.01,0,.01,0,.019-.009.057-.085.113-.17.17-.246a4.067,4.067,0,0,1,.369-.435c-.019.047-.038.095-.057.132.009,0,.009.01.019.01.113-.151.236-.293.35-.444-.01-.009-.019-.019-.028-.019-.047.047-.085.094-.132.142-.01-.009-.019-.019-.028-.019.095-.123.189-.246.284-.388a1.45,1.45,0,0,1,.076.142c.038-.095.076-.161.1-.227-.028.028-.066.057-.094.085L13.665,6.1l.17-.255c.18-.255.359-.52.539-.775.066-.095.151-.17.208-.265a9.984,9.984,0,0,1,.681-.974,1.546,1.546,0,0,1,.17-.18c.047-.057.085-.038.123.01.255.321.51.652.766.974.189.236.378.463.558.709.217.3.425.6.643.907.246.35.492.7.728,1.059.359.529.7,1.059,1.059,1.588.265.388.529.766.785,1.153h-.482c-.444-.01-.9-.047-1.342-.028-.6.028-1.219.094-1.824.142-.766.066-1.541.076-2.306.076-.274,0-.548.038-.822.057-.331.019-.652.038-.983.047-.388.019-.766.028-1.153.038-.217.01-.444,0-.681,0ZM21.34,14.732v.085c-.009,0-.019.009-.038.009-.038-.132-.076-.274-.123-.406a3.189,3.189,0,0,0-.369-.794c-.189-.265-.359-.539-.548-.813a1.528,1.528,0,0,0-.17-.18,3.306,3.306,0,0,0-.652-.6,7.738,7.738,0,0,0-1.182-.6,2.743,2.743,0,0,1-.331-.17h.227l1.616-.028c.35-.01.69-.01,1.04-.028a.186.186,0,0,1,.18.1c.085.142.17.283.265.425a.179.179,0,0,1,.028.076c0,.208,0,.425.009.633s.028.425.038.643-.019.444-.01.671c.01.321.019.652.019.983ZM11.17,11.565c.444-.019.87-.047,1.3-.066.34-.019.69-.028,1.03-.047a2.033,2.033,0,0,1,.416,0,3.217,3.217,0,0,0-.435.246c-.17.113-.331.265-.5.388a2.872,2.872,0,0,0-.463.435c-.18.217-.378.406-.567.614a5.933,5.933,0,0,0-.4.454c-.161.208-.3.435-.454.671.047-.9.1-1.786.066-2.694Zm6.172,9.093a7.7,7.7,0,0,1-.926.2,5.787,5.787,0,0,1-.813.028c-.246,0-.482-.009-.728-.028a2.467,2.467,0,0,1-.813-.18c-.227-.1-.463-.2-.69-.312a1.827,1.827,0,0,1-.624-.454,3.659,3.659,0,0,0-.444-.406.446.446,0,0,0,.2.274c-.047.057-.113.028-.208-.123a.559.559,0,0,1-.076.038c.028-.066.057-.132.085-.189-.038-.076-.085-.161-.123-.236-.076-.123-.151-.255-.217-.378-.019-.028-.019-.057-.038-.085a2.061,2.061,0,0,1-.132-.17,3.811,3.811,0,0,0-.236-.35c0,.028.009.057.009.094a.033.033,0,0,0-.019.009l-.2-.482c-.01,0-.01,0-.019.01l.17.624c-.01,0-.019.01-.028.01a.539.539,0,0,1-.076-.123c-.019-.076-.076-.076-.123-.047a.13.13,0,0,0-.038.113c.066.161.142.321.217.482a1.164,1.164,0,0,0,.066.161c.01.019.038.038.038.066a1.581,1.581,0,0,0,.113.217c.085.113.18.227.265.34s.161.236.236.35c.01.019.038.019.047.028.047.142.208.246.321.189.028.217.265.293.359.5-.113-.047-.2-.085-.274-.123-.009.01-.009.019-.019.038a3.662,3.662,0,0,1,.331.18,2.719,2.719,0,0,1,.274.18.866.866,0,0,0,.407.2.1.1,0,0,0-.019-.038c.265.123.539.255.747.359-.983.019-2.032.038-3.119.057,0-.18-.009-.35-.009-.529a1.662,1.662,0,0,0,.009-.217c-.028-.435-.028-.87-.085-1.295a9.217,9.217,0,0,1-.047-1.352c.009-.246-.01-.5-.019-.747,0-.331,0-.652.009-.983a.35.35,0,0,1,.038-.132h.028c.009.019,0,.047.019.057.028.028.076.076.095.066.057-.038.142-.076.161-.132a.918.918,0,0,0,.066-.35.34.34,0,0,1,.076-.2.871.871,0,0,0,.047-.094c-.038-.028-.076-.047-.123-.085.038-.1.028-.227.17-.284.019-.01.019-.057.028-.085.009-.076.019-.161.028-.236a.3.3,0,0,0,.047.057.118.118,0,0,1,.019-.028c0-.038-.009-.113,0-.113.113-.019.066-.142.123-.2.009-.009-.01-.038-.01-.057s0-.047.01-.047c.132-.028.113-.17.2-.236.028-.019.038-.047.076-.094.076.132-.057.2-.066.293.161-.095.208-.321.113-.388a.541.541,0,0,0,.1-.1c.1-.113.217-.217.312-.331.066-.085.1-.189.17-.274a.537.537,0,0,1,.17-.113,1.156,1.156,0,0,0,.435-.359.518.518,0,0,1,.076-.057c.028-.019.085-.019.094-.047s-.019-.066-.038-.094c.038-.019.076-.057.151-.094-.028.057-.038.094-.057.132l.047.047c.085-.066.217-.142.3-.2,0-.009-.047-.047-.047-.047-.057.028-.142.076-.227.113.019-.028.019-.047.028-.057a3.5,3.5,0,0,1,.406-.236c.331-.151.662-.3.992-.444a.463.463,0,0,1,.2-.009.21.21,0,0,0,.076-.009c.151-.047.3-.094.454-.132a.786.786,0,0,1,.208-.028c.284.009.567.009.851.028a1.443,1.443,0,0,1,.35.076,3.367,3.367,0,0,1,.425.18,4.675,4.675,0,0,1,.463.284c.274.18.529.378.8.539a2.131,2.131,0,0,1,.643.624,2.9,2.9,0,0,1,.539.917l.142.624a.763.763,0,0,1,.066.359c-.047.236-.085.482-.123.718a.965.965,0,0,0-.028.283,1.761,1.761,0,0,1-.208.813c-.038.085-.095.17-.142.265a.284.284,0,0,0,.076.038l.085-.17c.009,0,.009,0,.019.01-.047.132-.085.274-.132.406-.113.293-.227.6-.369.879a4.609,4.609,0,0,1-.3.444c-.095.132-.17.274-.265.4a1.343,1.343,0,0,1-.283.284,7.263,7.263,0,0,1-.794.529,1.987,1.987,0,0,1-.558.208Zm-5.038-.5-.009.009a.238.238,0,0,1-.066-.038L12,19.789a.11.11,0,0,1-.019-.095c.1.161.208.312.321.463Zm5.879,1.295a3.825,3.825,0,0,0,1.1-.728,1.012,1.012,0,0,1,.151-.132,3.315,3.315,0,0,0,.955-.964,13.11,13.11,0,0,0,.747-1.389,1.025,1.025,0,0,1,.057-.1,21.422,21.422,0,0,0,.246,3.2l-3.252.113Zm9.585-.283c-.01.019-.028.038-.038.057a.588.588,0,0,1-.019-.085c-.057.151-.18.076-.265.076-.51.009-1.03.009-1.541.009-.492,0-.992,0-1.484.01-.161,0-.331.038-.492.047-.388.019-.775.028-1.163.038-.028,0-.057-.047-.1-.085a.625.625,0,0,1-.057.085c-.009-.019-.028-.038-.047-.066a.654.654,0,0,1-.028.076H22.5a2.735,2.735,0,0,1-.057-.388c0-.284.028-.567.038-.851.009-.132,0-.255,0-.378l.1.076a.821.821,0,0,1,.057-.095.162.162,0,0,1-.038-.028c.019-.009.038-.028.038-.038a.386.386,0,0,0,.028-.076,1.015,1.015,0,0,0-.028-.18.035.035,0,0,0,.028-.009l.057.283h.028c-.038-.066.085-.123-.019-.2-.009-.009.01-.066.01-.094a1.986,1.986,0,0,1-.076-.189.227.227,0,0,1,.066-.028.882.882,0,0,0-.094-.047c.094-.085.094-.132.01-.227.019-.009.038-.009.038-.019a1.161,1.161,0,0,0-.019-.255c-.019-.094.028-.208-.113-.265a.284.284,0,0,0,.038.076.267.267,0,0,0-.057.028c-.123-.113-.047-.265-.076-.435a1.554,1.554,0,0,1,.161.057c-.019-.066-.066-.142-.094-.227h-.038V17.2c0,.009.066.009.1.019,0-.009.009-.019.009-.028-.028-.038-.066-.076-.1-.123l.019-.019a.337.337,0,0,1-.038-.255v-.662c.094.094-.047.217.094.274V16.31h-.009c-.01-.142-.01-.284-.019-.425h-.019c-.009.019-.009.028-.019.047h-.019c.019-.747.038-1.493.057-2.259a2.92,2.92,0,0,1,.265.359,9.866,9.866,0,0,0,.766,1.1c.227.312.435.652.643.974.255.388.5.775.756,1.163.189.293.388.586.586.87.18.255.369.5.558.747.161.217.331.435.491.652.189.265.378.529.567.785.094.132.2.265.3.4a1.134,1.134,0,0,0,.2.18.071.071,0,0,1-.038-.01.906.906,0,0,0,.066.085c.1.057.113.113.057.2Zm.482-2.363v-.066c0,.019.009.047,0,.066Zm.321-4.168a.476.476,0,0,1-.076-.066c-.01.028,0,.057-.019.094-.009-.028-.076-.019-.076-.047-.01.132.057.265.047.4.028-.019.142-.028.17-.057a.071.071,0,0,0,.038.019c-.189.142-.142.284-.057.444.019.038.076.113.019.189-.019.019.01.076.019.123h.028v.019l-.085.028c-.019-.028-.132-.085-.132-.132v.482c.094.028.094.161.132.227a.284.284,0,0,0,.038-.076l.01.009a1.1,1.1,0,0,1-.038.17,2.236,2.236,0,0,0-.047.246c0,.009.019.028.019.038a2.831,2.831,0,0,0-.085.747c-.028.18,0,.369-.019.558a4.492,4.492,0,0,1-.094.492c-.009.028-.028.038-.076.057a.76.76,0,0,0-.01-.293c-.009,0-.132-.066-.142-.066a3.178,3.178,0,0,0,.1.463c-.028-.009-.142-.076-.151-.076-.019.113-.019.265-.028.388-.01.094-.095.18-.1.284,0,.057.066.094.057.189h.076c0-.189.085-.359.085-.558H28.2c.009.019.038.038.028.047a1.259,1.259,0,0,0-.047.321c0,.057.047.113.028.18a.923.923,0,0,0-.038.2.537.537,0,0,1-.019-.094l-.1-.009c-.009.057.066.113.057.161-.01.01-.019.01-.038.019l-.312-.454c-.246-.359-.492-.718-.737-1.087a2.256,2.256,0,0,1-.17-.284,13.339,13.339,0,0,0-.974-1.446c-.274-.35-.492-.728-.747-1.1-.236-.35-.473-.69-.709-1.04-.085-.113-.189-.217-.265-.34-.246-.388-.463-.785-.709-1.172-.208-.321-.435-.633-.652-.945-.076-.1-.151-.217-.227-.331a.136.136,0,0,1-.019-.066c-.019-.208-.038-.416-.047-.614s.019-.378.019-.577v-.17c0-.047.009-.085.009-.132.009-.01.019-.028.028-.038-.274,0-.558-.009-.832,0a.46.46,0,0,1-.4-.2,15.674,15.674,0,0,1-.936-1.3c-.293-.416-.6-.822-.9-1.229-.246-.331-.491-.652-.737-.983-.274-.378-.539-.756-.822-1.134-.34-.454-.69-.907-1.04-1.361-.161-.208-.34-.406-.52-.624.123.019.236.038.35.047l.454.028c.34.028.681.047,1.021.095.284.038.567.095.86.142a12.131,12.131,0,0,1,1.834.473c.35.113.69.265,1.03.406A20.834,20.834,0,0,1,24.138,5.4a2.221,2.221,0,0,1,.529.5c.246.255.492.51.728.775.274.312.529.633.794.955.236.284.482.567.718.851a3.029,3.029,0,0,1,.2.284c.151.227.321.444.454.69a3.924,3.924,0,0,1,.217.586c.094.293.189.577.284.87.066.217.123.444.17.671.038.151.028.312.076.463.057.2,0,.416.057.614.009.019.019.047.028.066.038.038.066.076.01.132a.1.1,0,0,0,0,.076.4.4,0,0,0,.047-.066c0,.019.009.028.009.038a.458.458,0,0,0,0,.113.2.2,0,0,0,.028.066.762.762,0,0,1,.076-.057,3.746,3.746,0,0,1,.094.974,2.2,2.2,0,0,1-.076.926c.028-.1-.038-.2-.01-.293Z" style="fill:#dd3735"/><path d="M22.563,18.344a.033.033,0,0,1,.019.01l-.01-.01c0-.009,0-.009-.009,0Zm1.493,9.339a.888.888,0,0,1-.34.17c-.009-.009-.009-.019-.019-.028.1-.066.217-.132.321-.2.009.019.028.038.038.057ZM6.333,14.875c.1-.132.208-.265.321-.4.009.009.085.028.095.038-.1.132-.246.312-.35.454-.019-.019-.047-.085-.066-.094ZM3.649,19.507c-.076-.161-.151-.331-.227-.492a.337.337,0,0,1,.085-.038,3.288,3.288,0,0,1,.227.492.751.751,0,0,1-.085.038Zm2.41-4.537c-.057.085-.113.18-.17.265-.009-.009-.113.038-.123.028.057-.085.2-.236.255-.321a.128.128,0,0,0,.038.028Zm16.985,13.1c.01,0,.01-.01.019-.01a1.543,1.543,0,0,0,.217.019c-.123.085-.2.076-.236-.009ZM6.078,15.366a.39.39,0,0,1,.047-.085.194.194,0,0,0,.047-.009c.038-.066.038-.113.076-.17-.009-.009-.019-.009-.028-.019-.057.038-.113.085-.17.123a.052.052,0,0,1,.019.047c-.076-.009-.1.028-.142.132-.01.028-.057.038-.1.076-.009.019-.019.066-.038.113l.01.01a.14.14,0,0,1-.047.028c-.057.057-.123.1-.18.161a.274.274,0,0,0-.019.085c.066-.066.18-.189.265-.265l.009.009c.038-.057.066-.113.1-.17.009.009.009.019.019.028-.028.076-.057.161-.085.236-.019.009-.047.028-.047.019-.038.028-.066.066-.1.095l-.17.113c-.095.085-.189.161-.293.246-.066.1-.132.2-.208.321.113-.028.142.019.132.113.132.019.142-.085.18-.161.01-.019.019-.057.038-.066.085-.076.18-.142.274-.217a.127.127,0,0,0,.019-.085c0-.009-.047-.009-.076-.019.085-.095.208-.255.293-.359.047-.028.094-.066.094-.095-.01-.1.057-.132.132-.17a.1.1,0,0,1-.047-.066Z" style="fill:#dd3735"/><path d="M6.267,15.262c-.038.066-.076.123-.113.189L6.1,15.423a.562.562,0,0,1-.3.444.158.158,0,0,0,.1.028c.028-.009.047-.057.066-.085l.255-.369L6.3,15.3l-.038-.038ZM3.119,19.412c.047,0,.095.01.151.01,0-.038.047-.028.047-.066h.028c0,.047.01.085.01.132h-.2c-.01-.01-.047-.066-.038-.076Zm-.076-.435c-.028-.028-.076-.057-.076-.085s.019-.085.047-.132c.019.066.028.123.047.189-.01.009-.019.019-.019.028Zm.236-.6c.038.095.076.2.113.293a.284.284,0,0,0-.076.038c-.038-.094-.085-.2-.123-.293a.233.233,0,0,1,.085-.038Zm21.04,9.036a1.574,1.574,0,0,1,.18-.047,2.23,2.23,0,0,0-.208.17c-.01-.01-.019-.019-.028-.019.019-.038.038-.066.057-.1ZM12.7,7.436c.057-.038.1-.066.161-.1l.019.019c-.057.076-.1.151-.17.246-.009-.066-.009-.1-.019-.151-.009,0,0,0,.01-.009Zm2.769,4.783.274-.123a.714.714,0,0,0-.01.132.334.334,0,0,0-.095-.019c-.057.009-.161.085-.208.094-.01,0,.038-.076.038-.085Zm7.089,8.015c.019.094.2.142.019.236.028.019.057.028.085.047a.072.072,0,0,1-.019.038c-.019.01-.057.028-.076.019s-.028-.038-.028-.057c0-.085.01-.17.019-.284Z" style="fill:#dd3735"/></svg>