<svg xmlns="http://www.w3.org/2000/svg" viewBox="0 0 32 32"><title>file_type_ng_controller_js</title><polygon points="3.927 24.707 16.173 31.438 28.482 24.615 30.777 5.584 16.158 0.563 1.631 5.675 3.927 24.707" style="fill:#b3b3b3"/><polygon points="16.124 29.829 27.19 23.705 29.328 6.684 16.124 2.181 16.124 29.829" style="fill:#a6120d"/><polygon points="16.123 29.829 16.123 2.181 3.261 6.765 5.228 23.786 16.123 29.829" style="fill:#dd1b16"/><path d="M19.758,16.9l-3.635,1.7H12.293l-1.8,4.5-3.35.062,8.981-19.98Zm-.351-.856L16.148,9.592l-2.673,6.341h2.649Z" style="fill:#f2f2f2"/><polygon points="19.181 15.938 16.13 15.938 16.123 18.595 20.342 18.599 22.314 23.166 25.519 23.226 16.123 3.185 16.148 9.592 19.181 15.938" style="fill:#b3b3b3"/><path d="M15.64,27.93l1.67-1A1.51,1.51,0,0,0,18.62,28c.67,0,1.1-.26,1.1-1.29v-7h2v7a2.78,2.78,0,0,1-3.06,3.09,3.18,3.18,0,0,1-3.07-1.87m7.29-.22,1.67-1a2.23,2.23,0,0,0,2,1.24,1.18,1.18,0,0,0,1.431-.859h0q.011-.045.019-.091c0-.7-.56-1-1.49-1.36L26,25.42c-1.48-.63-2.46-1.42-2.46-3.09A2.74,2.74,0,0,1,26.3,19.608h0q.121,0,.242.012a3,3,0,0,1,2.91,1.64l-1.59,1a1.39,1.39,0,0,0-1.32-.88.89.89,0,0,0-1,.88c0,.61.38.86,1.26,1.24l.51.22C29,24.47,30,25.23,30,26.95s-1.45,2.85-3.39,2.85a3.93,3.93,0,0,1-3.73-2.09" style="fill:#f7df1e"/></svg>