<svg xmlns="http://www.w3.org/2000/svg" viewBox="0 0 32 32"><title>file_type_xliff</title><path d="M3.548,12.535c.758-.013,1.517,0,2.274-.01.285.644.693,1.23.935,1.893.588-.606,1.126-1.258,1.689-1.887.888,0,1.778-.011,2.666.007-1.167,1.141-2.223,2.393-3.353,3.572.619,1.077,1.171,2.189,1.807,3.255l19.262-.013v.118l-21.477,0c-.326-.655-.637-1.318-.969-1.971-.593.637-1.141,1.314-1.725,1.96-.886,0-1.771,0-2.657,0,1.139-1.226,2.286-2.445,3.411-3.685C4.756,14.715,4.192,13.6,3.548,12.535Z" style="fill:red"/><path d="M11.47,12.538c.665.007,1.33,0,2,0-.338,1.6-.657,3.213-1.044,4.806,1.071.01,2.14,0,3.211,0-.157.507-.211,1.039-.363,1.548-1.719-.017-3.439,0-5.158-.007Q10.8,15.715,11.47,12.538Z" style="fill:blue"/><path d="M16.826,12.962l.092-.421h2.037c-.441,2.119-.935,4.229-1.376,6.348q-1,0-2,0C15.967,16.908,16.42,14.94,16.826,12.962Z" style="fill:blue"/><path d="M19.721,12.543c1.675,0,3.247-.007,4.921,0L24.4,13.906l-2.982,0a6.333,6.333,0,0,0-.2,1.143c.932,0,1.866-.006,2.8,0a10.488,10.488,0,0,1-.265,1.27c-.949-.017-1.9.009-2.849-.012a25.194,25.194,0,0,0-.521,2.574c-.671.025-1.344,0-2.016.017C18.8,16.775,19.291,14.665,19.721,12.543Z" style="fill:blue"/><path d="M23.72,18.893c.458-2.117.892-4.239,1.366-6.352,1.638,0,3.276.006,4.914,0-.085.458-.183.915-.3,1.367-.973-.012-1.944,0-2.917-.007-.087.381-.168.762-.239,1.147.94-.007,1.879.006,2.819-.009a11.681,11.681,0,0,1-.273,1.281c-.952-.016-1.9,0-2.854-.007-.172.85-.4,1.692-.5,2.554C25.069,18.919,24.393,18.874,23.72,18.893Z" style="fill:blue"/></svg>