<svg xmlns="http://www.w3.org/2000/svg" xmlns:xlink="http://www.w3.org/1999/xlink" viewBox="0 0 32 32"><defs><linearGradient id="linear-gradient" x1="2" y1="26.221" x2="25.625" y2="26.221" gradientUnits="userSpaceOnUse"><stop offset="0" stop-color="#1a348f"/><stop offset="1" stop-color="#e5e9c6"/></linearGradient><linearGradient id="linear-gradient-2" x1="6.375" y1="5.779" x2="30" y2="5.779" gradientUnits="userSpaceOnUse"><stop offset="0" stop-color="#e5e9c6"/><stop offset="1" stop-color="#1a348f"/></linearGradient></defs><title>file_type_systemverilog</title><path d="M13.264,17.289a4.4,4.4,0,0,0-.9-1.514A13.78,13.78,0,0,0,10.506,14.2,8.924,8.924,0,0,1,8.5,12.419a1.969,1.969,0,0,1-.337-1.113,2.226,2.226,0,0,1,.5-1.434,1.6,1.6,0,0,1,1.323-.642,1.645,1.645,0,0,1,1.323.648,4.51,4.51,0,0,1,.78,2.138l.035.223.28.079a.417.417,0,0,0,.22-.076l.121-.077.024-.187c.011-.09.028-.279.043-.884l.032-1.034c0-.08-.021-.384-.065-.913l-.013-.156L12.67,8.9a3.4,3.4,0,0,0-.955-.727,3.607,3.607,0,0,0-1.475-.279A3.058,3.058,0,0,0,7.729,9.086a4.641,4.641,0,0,0-.96,2.963,4.924,4.924,0,0,0,.278,1.72A5.916,5.916,0,0,0,8.113,15.5a13.679,13.679,0,0,0,1.821,1.529,6.79,6.79,0,0,1,1.747,1.7,2.787,2.787,0,0,1,.394,1.459,3.136,3.136,0,0,1-.263,1.2,2.143,2.143,0,0,1-.724.956,1.78,1.78,0,0,1-1.046.34A2.064,2.064,0,0,1,8.376,21.68a4.236,4.236,0,0,1-.83-2.3,1.116,1.116,0,0,0-.118-.475.346.346,0,0,0-.638.052,2.418,2.418,0,0,0-.093.813c-.005.567-.045,1.3-.117,2.18q-.018.221-.018.362a1.1,1.1,0,0,0,.2.642,2.055,2.055,0,0,0,.8.567,4.76,4.76,0,0,0,2.142.512,3.486,3.486,0,0,0,2.093-.583A3.972,3.972,0,0,0,13.093,21.7a6.5,6.5,0,0,0,.476-2.484A5.781,5.781,0,0,0,13.264,17.289Z" style="fill:#c5c2ff"/><path d="M9.708,24.164a4.884,4.884,0,0,1-2.2-.525,2.149,2.149,0,0,1-.851-.608,1.223,1.223,0,0,1-.222-.713c0-.1.006-.221.019-.372.072-.879.111-1.609.117-2.171a2.477,2.477,0,0,1,.1-.861.486.486,0,0,1,.409-.314.48.48,0,0,1,.451.247,1.231,1.231,0,0,1,.136.529,4.132,4.132,0,0,0,.806,2.231,1.95,1.95,0,0,0,1.565.96,1.658,1.658,0,0,0,.974-.316,2.03,2.03,0,0,0,.681-.9,3.014,3.014,0,0,0,.253-1.157,2.662,2.662,0,0,0-.376-1.395,6.7,6.7,0,0,0-1.714-1.669,13.74,13.74,0,0,1-1.84-1.545,6.046,6.046,0,0,1-1.088-1.768,5.055,5.055,0,0,1-.287-1.766,4.764,4.764,0,0,1,.987-3.041,3.178,3.178,0,0,1,2.609-1.24,3.731,3.731,0,0,1,1.526.29,3.525,3.525,0,0,1,.993.754l.12.124.017.2c.042.493.066.83.066.923L12.93,11.1c-.015.6-.032.8-.044.9l-.032.247-.171.107a.536.536,0,0,1-.287.1l-.034,0-.356-.1-.048-.3a4.392,4.392,0,0,0-.752-2.077,1.527,1.527,0,0,0-1.227-.6,1.481,1.481,0,0,0-1.226.595,2.108,2.108,0,0,0-.468,1.356A1.848,1.848,0,0,0,8.6,12.351a8.847,8.847,0,0,0,1.979,1.744,13.87,13.87,0,0,1,1.877,1.6,4.526,4.526,0,0,1,.924,1.557,5.907,5.907,0,0,1,.313,1.968,6.623,6.623,0,0,1-.485,2.531,4.092,4.092,0,0,1-1.334,1.812A3.608,3.608,0,0,1,9.708,24.164ZM7.122,18.847H7.1a.24.24,0,0,0-.2.16,2.4,2.4,0,0,0-.084.771c-.005.564-.045,1.3-.118,2.187-.012.143-.018.261-.018.352a.975.975,0,0,0,.178.57,1.981,1.981,0,0,0,.758.527,4.631,4.631,0,0,0,2.085.5,3.37,3.37,0,0,0,2.02-.559,3.844,3.844,0,0,0,1.25-1.705,6.371,6.371,0,0,0,.467-2.436,5.66,5.66,0,0,0-.3-1.884h0a4.27,4.27,0,0,0-.873-1.472A13.642,13.642,0,0,0,10.432,14.3a9.708,9.708,0,0,1-2.039-1.807,2.1,2.1,0,0,1-.358-1.183,2.347,2.347,0,0,1,.522-1.512A1.718,1.718,0,0,1,9.979,9.1,1.764,1.764,0,0,1,11.4,9.8a4.626,4.626,0,0,1,.807,2.2l.022.144.184.052a.327.327,0,0,0,.139-.056l.072-.045.017-.129c.011-.088.028-.276.042-.871l.032-1.035c0-.062-.017-.334-.065-.9l-.009-.111-.058-.06a3.283,3.283,0,0,0-.918-.7,3.479,3.479,0,0,0-1.421-.267A2.938,2.938,0,0,0,7.828,9.163a4.518,4.518,0,0,0-.933,2.885,4.81,4.81,0,0,0,.271,1.677,5.812,5.812,0,0,0,1.042,1.692,13.636,13.636,0,0,0,1.8,1.51,6.916,6.916,0,0,1,1.779,1.742A2.9,2.9,0,0,1,12.2,20.19a3.256,3.256,0,0,1-.272,1.253,2.266,2.266,0,0,1-.767,1.01,1.9,1.9,0,0,1-1.119.363,2.181,2.181,0,0,1-1.767-1.062,4.373,4.373,0,0,1-.854-2.362,1,1,0,0,0-.1-.419A.236.236,0,0,0,7.122,18.847Z" style="fill:#2c087e"/><path d="M25.409,8.4l-.147-.073a1.567,1.567,0,0,0-.671-.1l-3.6.037-.06.234-.039.216a.808.808,0,0,0,.136.435l.063.1.682.119a3.682,3.682,0,0,1,.571.122.535.535,0,0,1,.237.186.279.279,0,0,1,.046.113,20.929,20.929,0,0,1-.762,3.739c-.046.246-.073.391-.081.426L21.234,16.1q-.42,1.594-.834,3.009l-.3,1.043c-.364-1.342-.731-2.659-1.106-3.96l-1.63-5.367a4.326,4.326,0,0,1-.239-1.242c.017-.018.122-.112.539-.164a4.849,4.849,0,0,1,.71-.05h.064a.45.45,0,0,0,.452-.288l.059-.43-.032-.1a.525.525,0,0,0-.185-.268l-.1-.038c-.161-.008-.326-.013-.5-.018s-.348-.006-.529-.006c-.894,0-1.526.012-1.883.035-.09.007-.173.011-.248.011h-.256q-.647-.023-1.295-.023h-.167l-.153.536.026.124a.724.724,0,0,0,.205.386,1.366,1.366,0,0,0,.367.145,3.133,3.133,0,0,1,.824.341,3.009,3.009,0,0,1,.317.712l2.435,7.93c.4,1.28.915,3.1,1.538,5.422l.049.181.133.041a.848.848,0,0,0,.252.044.477.477,0,0,0,.306-.146l.077-.069.26-1.122c.269-1.2.733-2.941,1.381-5.167l2.08-7.407a1.44,1.44,0,0,1,.252-.522,1.652,1.652,0,0,1,.712-.208,1.43,1.43,0,0,0,.4-.131l.1-.049.046-.14a1.279,1.279,0,0,0,.069-.436Z" style="fill:#c5c2ff"/><path d="M19.748,24.232a.962.962,0,0,1-.288-.049l-.2-.062-.067-.247c-.62-2.308-1.137-4.13-1.536-5.417l-2.435-7.931a3.35,3.35,0,0,0-.292-.667h0a4.463,4.463,0,0,0-.768-.3,1.381,1.381,0,0,1-.4-.163.845.845,0,0,1-.252-.46l-.033-.154.188-.656h.262c.44,0,.877.008,1.3.023h.252c.072,0,.152,0,.239-.011.367-.024,1-.036,1.893-.036.183,0,.359,0,.532.006s.339.01.5.018l.037.008.132.053a.646.646,0,0,1,.23.33l.042.123-.071.49a.571.571,0,0,1-.567.364h-.064a4.594,4.594,0,0,0-.7.049,1.375,1.375,0,0,0-.429.1,4.892,4.892,0,0,0,.234,1.142l1.629,5.366c.325,1.127.65,2.286.99,3.529l.173-.61c.271-.928.552-1.939.833-3.007l.546-2.146c.007-.031.034-.174.079-.418a21.168,21.168,0,0,0,.76-3.712h0s-.009-.02-.028-.052a.414.414,0,0,0-.184-.138,4.177,4.177,0,0,0-.539-.112l-.736-.128-.092-.146a.929.929,0,0,1-.155-.5l.041-.238.085-.335,3.7-.038a1.643,1.643,0,0,1,.729.114l.21.1.032.385a1.427,1.427,0,0,1-.075.485l-.062.19-.149.072a1.546,1.546,0,0,1-.44.142,1.8,1.8,0,0,0-.648.18,1.5,1.5,0,0,0-.215.468l-2.078,7.4c-.648,2.229-1.112,3.964-1.379,5.16l-.269,1.16-.106.1A.593.593,0,0,1,19.748,24.232Zm-.282-.308.067.021a.367.367,0,0,0,.438-.077l.047-.042.251-1.083c.269-1.2.733-2.941,1.383-5.174l2.08-7.406a1.634,1.634,0,0,1,.286-.578,1.723,1.723,0,0,1,.776-.241,1.322,1.322,0,0,0,.371-.12l.053-.026.029-.089a1.138,1.138,0,0,0,.063-.4l-.02-.235-.085-.042a1.473,1.473,0,0,0-.615-.088l-3.506.036-.073.348a.7.7,0,0,0,.118.346l.033.052.627.11a3.984,3.984,0,0,1,.6.132.645.645,0,0,1,.292.235.4.4,0,0,1,.064.178,23.064,23.064,0,0,1-.766,3.77c-.045.241-.072.387-.08.423l-.547,2.15c-.282,1.071-.563,2.085-.835,3.014L20.1,20.616l-.118-.435c-.382-1.409-.744-2.7-1.105-3.958l-1.629-5.365A4.581,4.581,0,0,1,17,9.577V9.53l.032-.035c.049-.053.193-.15.615-.2a5.333,5.333,0,0,1,.731-.051h.059a.326.326,0,0,0,.331-.2l.052-.383L18.8,8.593a.423.423,0,0,0-.127-.2l-.067-.024c-.153-.007-.312-.013-.476-.017s-.346-.006-.526-.006c-.884,0-1.515.012-1.875.035-.092.007-.178.012-.256.012h-.256c-.424-.015-.858-.023-1.295-.023h-.073l-.119.416.02.093a.6.6,0,0,0,.17.322,2.389,2.389,0,0,0,.319.115,3.234,3.234,0,0,1,.865.364,2.745,2.745,0,0,1,.354.764L17.9,18.384c.4,1.29.919,3.116,1.54,5.427Z" style="fill:#2c087e"/><path d="M25.625,23.961c-4.462,6.4-18.148,5.853-20.732-1.52H2C4.062,32.043,21.439,32.439,25.625,23.961Z" style="fill:url(#linear-gradient)"/><path d="M30,9.559c-2.062-9.6-19.439-10-23.625-1.52,4.462-6.4,18.148-5.853,20.732,1.52Z" style="fill:url(#linear-gradient-2)"/></svg>