<svg xmlns="http://www.w3.org/2000/svg" viewBox="0 0 32 32"><title>file_type_blade</title><path d="M29.98,8.331a.5.5,0,0,1,.02.12v6.011a.427.427,0,0,1-.224.38l-5.193,2.9V23.5a.427.427,0,0,1-.224.38L13.516,29.945a.735.735,0,0,1-.082.03c-.01,0-.02.01-.03.01a.467.467,0,0,1-.235,0c-.01,0-.02-.01-.03-.01s-.051-.02-.071-.03L2.234,23.884A.438.438,0,0,1,2,23.5V5.471a.5.5,0,0,1,.02-.12c0-.01.011-.02.021-.04s.02-.05.03-.07.021-.03.031-.04a.1.1,0,0,1,.041-.05c.01-.01.03-.02.04-.03s.031-.02.041-.03L7.641,2.06a.448.448,0,0,1,.448,0l5.416,3.031a.166.166,0,0,1,.051.04c.011.01.031.02.041.03a.181.181,0,0,1,.041.05.138.138,0,0,1,.03.04.392.392,0,0,1,.031.07c0,.01.01.02.02.04a.524.524,0,0,1,.021.11V16.733L18.25,14.2V8.451a.331.331,0,0,1,.021-.11c0-.01.01-.02.02-.04s.02-.05.03-.07.021-.03.031-.04a.1.1,0,0,1,.041-.05c.01-.01.03-.02.04-.03s.031-.03.051-.04L23.9,5.041a.448.448,0,0,1,.448,0l5.417,3.03a.193.193,0,0,1,.051.04c.01.01.03.02.04.03a.164.164,0,0,1,.041.05.139.139,0,0,1,.031.04.488.488,0,0,1,.03.07C29.969,8.311,29.98,8.321,29.98,8.331Zm-.886,5.881v-5L27.2,10.271l-2.617,1.471v5Zm-5.417,9.042v-5L21.1,19.683,13.74,23.764v5.051C13.74,28.805,23.677,23.254,23.677,23.254ZM2.906,6.231V23.254l9.938,5.561V23.764L7.651,20.913c-.02-.02-.041-.03-.051-.05s-.031-.02-.041-.03-.02-.03-.04-.05-.021-.03-.031-.04a.169.169,0,0,1-.02-.05c-.011-.02-.021-.03-.021-.05a.127.127,0,0,1-.01-.06c0-.02-.01-.03-.01-.05V8.751L4.8,7.291ZM7.875,2.94,3.354,5.471l4.511,2.52,4.51-2.53ZM10.217,18.7l2.616-1.46V6.231L10.94,7.291,8.323,8.751V19.763ZM24.125,5.921l-4.51,2.53,4.51,2.521,4.511-2.531C28.646,8.451,24.125,5.921,24.125,5.921Zm-.448,5.811L21.06,10.261,19.167,9.2v5l2.616,1.46,1.894,1.061ZM13.292,23l6.618-3.671,3.309-1.84-4.511-2.521-5.192,2.9-4.735,2.65Z" style="fill:#ef382c"/></svg>