<svg xmlns="http://www.w3.org/2000/svg" viewBox="0 0 32 32"><title>file_type_apex</title><path d="M13.652,8.338A4.906,4.906,0,0,1,17.2,6.814a4.957,4.957,0,0,1,4.32,2.56,5.972,5.972,0,0,1,2.442-.519,6.089,6.089,0,1,1-1.189,12.06,4.412,4.412,0,0,1-5.782,1.816A5.034,5.034,0,0,1,7.634,22.5a4.646,4.646,0,0,1-.96.1,4.732,4.732,0,0,1-2.337-8.812,5.438,5.438,0,0,1,9.315-5.453" style="fill:#0f9bd7"/><path d="M25.376,30.966h-.561a4.658,4.658,0,0,1-1.284-.137,1.9,1.9,0,0,1-.818-.482,1.726,1.726,0,0,1-.455-.843,6.77,6.77,0,0,1-.106-1.413,5.889,5.889,0,0,0-.084-1.33,1,1,0,0,0-.3-.544,1.223,1.223,0,0,0-.66-.179l-.236-.014V24.145l.236-.014a1.482,1.482,0,0,0,.549-.1.706.706,0,0,0,.273-.264,1.394,1.394,0,0,0,.181-.529,6.683,6.683,0,0,0,.044-.939,8.132,8.132,0,0,1,.112-1.643,1.7,1.7,0,0,1,.448-.841,2.144,2.144,0,0,1,.906-.492,4.514,4.514,0,0,1,1.2-.116h.561v1.9h-.25a2.589,2.589,0,0,0-.743.056.284.284,0,0,0-.148.117.839.839,0,0,0-.054.386q0,.372-.053,1.413a3.74,3.74,0,0,1-.166,1.009,1.945,1.945,0,0,1-.693,1,2.01,2.01,0,0,1,.7,1.044,4.627,4.627,0,0,1,.163,1.079c.027.657.041,1.074.041,1.256a.871.871,0,0,0,.057.408A.343.343,0,0,0,24.4,29a2.382,2.382,0,0,0,.728.06h.25Z" style="fill:#fff"/><path d="M21.118,25.788V24.382a1.752,1.752,0,0,0,.645-.129.936.936,0,0,0,.375-.354,1.621,1.621,0,0,0,.217-.624A6.88,6.88,0,0,0,22.4,22.3a8,8,0,0,1,.105-1.585,1.456,1.456,0,0,1,.381-.721,1.9,1.9,0,0,1,.8-.431,4.336,4.336,0,0,1,1.125-.105h.311v1.4a2.876,2.876,0,0,0-.835.073.53.53,0,0,0-.272.223,1.079,1.079,0,0,0-.088.513q0,.369-.053,1.4a3.531,3.531,0,0,1-.152.94,1.918,1.918,0,0,1-.313.595,2.47,2.47,0,0,1-.583.486,2.045,2.045,0,0,1,.565.466,1.869,1.869,0,0,1,.337.647,4.41,4.41,0,0,1,.152,1.02q.041.973.041,1.242a1.1,1.1,0,0,0,.094.539.584.584,0,0,0,.284.231,2.649,2.649,0,0,0,.823.079v1.406h-.311A4.474,4.474,0,0,1,23.6,30.59a1.644,1.644,0,0,1-.712-.419,1.478,1.478,0,0,1-.39-.724,6.621,6.621,0,0,1-.1-1.356,6.374,6.374,0,0,0-.094-1.4,1.232,1.232,0,0,0-.39-.671A1.431,1.431,0,0,0,21.118,25.788Z" style="fill:#0072a0"/><path d="M27.011,30.966H26.45V29.059h.25A2.329,2.329,0,0,0,27.426,29a.323.323,0,0,0,.165-.127.812.812,0,0,0,.058-.379q0-.36.05-1.375a3.725,3.725,0,0,1,.173-1.047,2.223,2.223,0,0,1,.387-.7,2.145,2.145,0,0,1,.3-.292,2.141,2.141,0,0,1-.4-.4,2.612,2.612,0,0,1-.421-1.092,17.525,17.525,0,0,1-.1-1.841,1.357,1.357,0,0,0-.053-.479c-.008-.016-.031-.062-.136-.106a2.524,2.524,0,0,0-.757-.06h-.25V19.2h.561a4.793,4.793,0,0,1,1.283.133,1.841,1.841,0,0,1,.818.485,1.781,1.781,0,0,1,.453.843,6.6,6.6,0,0,1,.109,1.414,6.359,6.359,0,0,0,.079,1.336.992.992,0,0,0,.3.537,1.226,1.226,0,0,0,.664.18l.236.014v1.879l-.236.014a1.482,1.482,0,0,0-.549.1.686.686,0,0,0-.27.262,1.484,1.484,0,0,0-.186.534,6.743,6.743,0,0,0-.043.931,8.383,8.383,0,0,1-.108,1.644,1.694,1.694,0,0,1-.446.846,2.143,2.143,0,0,1-.913.492A4.5,4.5,0,0,1,27.011,30.966Z" style="fill:#fff"/><path d="M30.708,25.788a1.752,1.752,0,0,0-.645.129.918.918,0,0,0-.372.354,1.725,1.725,0,0,0-.22.624,6.82,6.82,0,0,0-.047.973,8.27,8.27,0,0,1-.1,1.588,1.439,1.439,0,0,1-.378.724,1.9,1.9,0,0,1-.809.431,4.336,4.336,0,0,1-1.125.105H26.7V29.31a2.652,2.652,0,0,0,.82-.079A.572.572,0,0,0,27.8,29,1.05,1.05,0,0,0,27.9,28.5q0-.357.05-1.365a3.53,3.53,0,0,1,.158-.976,1.976,1.976,0,0,1,.343-.621A2.038,2.038,0,0,1,29,25.085a2.416,2.416,0,0,1-.633-.551,2.339,2.339,0,0,1-.375-.984,17.564,17.564,0,0,1-.094-1.8,1.571,1.571,0,0,0-.079-.586.487.487,0,0,0-.264-.226,2.8,2.8,0,0,0-.853-.079v-1.4h.311a4.576,4.576,0,0,1,1.213.123,1.587,1.587,0,0,1,.709.419,1.529,1.529,0,0,1,.39.727,6.436,6.436,0,0,1,.1,1.356,6.842,6.842,0,0,0,.088,1.4,1.223,1.223,0,0,0,.393.671,1.447,1.447,0,0,0,.8.231Z" style="fill:#0072a0"/></svg>