<svg xmlns="http://www.w3.org/2000/svg" viewBox="0 0 32 32"><title>file_type_applescript</title><path d="M17.181,4.437A5.993,5.993,0,0,1,21.579,2a5.979,5.979,0,0,1-1.447,4.476,4.729,4.729,0,0,1-4.17,1.961A5.2,5.2,0,0,1,17.181,4.437Z" style="fill:#a8c2ab"/><path d="M16.2,10.034c.946,0,2.7-1.3,4.989-1.3a6.249,6.249,0,0,1,5.484,2.8,6.08,6.08,0,0,0-3.028,5.3,6.235,6.235,0,0,0,3.772,5.7s-2.637,7.422-6.2,7.422c-1.636,0-2.908-1.1-4.631-1.1-1.757,0-3.5,1.144-4.635,1.144C8.7,30,4.587,22.959,4.587,17.3c0-5.568,3.478-8.489,6.74-8.489C13.448,8.811,15.093,10.034,16.2,10.034Z" style="fill:#a8c2ab"/></svg>