<svg xmlns="http://www.w3.org/2000/svg" xmlns:xlink="http://www.w3.org/1999/xlink" viewBox="0 0 32 32"><defs><linearGradient id="linear-gradient" x1="2" y1="26.221" x2="25.625" y2="26.221" gradientUnits="userSpaceOnUse"><stop offset="0" stop-color="#1a348f"/><stop offset="1" stop-color="#e5e9c6"/></linearGradient><linearGradient id="linear-gradient-2" x1="6.375" y1="5.779" x2="30" y2="5.779" gradientUnits="userSpaceOnUse"><stop offset="0" stop-color="#e5e9c6"/><stop offset="1" stop-color="#1a348f"/></linearGradient></defs><title>file_type_light_systemverilog</title><path d="M13.264,17.289a4.4,4.4,0,0,0-.9-1.514A13.78,13.78,0,0,0,10.506,14.2,8.924,8.924,0,0,1,8.5,12.419a1.969,1.969,0,0,1-.337-1.113,2.226,2.226,0,0,1,.5-1.434,1.6,1.6,0,0,1,1.323-.642,1.645,1.645,0,0,1,1.323.648,4.51,4.51,0,0,1,.78,2.138l.035.223.28.079a.417.417,0,0,0,.22-.076l.121-.077.024-.187c.011-.09.028-.279.043-.884l.032-1.034c0-.08-.021-.384-.065-.913l-.013-.156L12.67,8.9a3.4,3.4,0,0,0-.955-.727,3.607,3.607,0,0,0-1.475-.279A3.058,3.058,0,0,0,7.729,9.086a4.641,4.641,0,0,0-.96,2.963,4.924,4.924,0,0,0,.278,1.72A5.916,5.916,0,0,0,8.113,15.5a13.679,13.679,0,0,0,1.821,1.529,6.79,6.79,0,0,1,1.747,1.7,2.787,2.787,0,0,1,.394,1.459,3.136,3.136,0,0,1-.263,1.2,2.143,2.143,0,0,1-.724.956,1.78,1.78,0,0,1-1.046.34A2.064,2.064,0,0,1,8.376,21.68a4.236,4.236,0,0,1-.83-2.3,1.116,1.116,0,0,0-.118-.475.346.346,0,0,0-.638.052,2.418,2.418,0,0,0-.093.813c-.005.567-.045,1.3-.117,2.18q-.018.221-.018.362a1.1,1.1,0,0,0,.2.642,2.055,2.055,0,0,0,.8.567,4.76,4.76,0,0,0,2.142.512,3.486,3.486,0,0,0,2.093-.583A3.972,3.972,0,0,0,13.093,21.7a6.5,6.5,0,0,0,.476-2.484A5.781,5.781,0,0,0,13.264,17.289Z" style="fill:#2c087e"/><path d="M25.409,8.4l-.147-.073a1.567,1.567,0,0,0-.671-.1l-3.6.037-.06.234-.039.216a.808.808,0,0,0,.136.435l.063.1.682.119a3.682,3.682,0,0,1,.571.122.535.535,0,0,1,.237.186.279.279,0,0,1,.046.113,20.929,20.929,0,0,1-.762,3.739c-.046.246-.073.391-.081.426L21.234,16.1q-.42,1.594-.834,3.009l-.3,1.043c-.364-1.342-.731-2.659-1.106-3.96l-1.63-5.367a4.326,4.326,0,0,1-.239-1.242c.017-.018.122-.112.539-.164a4.849,4.849,0,0,1,.71-.05h.064a.45.45,0,0,0,.452-.288l.059-.43-.032-.1a.525.525,0,0,0-.185-.268l-.1-.038c-.161-.008-.326-.013-.5-.018s-.348-.006-.529-.006c-.894,0-1.526.012-1.883.035-.09.007-.173.011-.248.011h-.256q-.647-.023-1.295-.023h-.167l-.153.536.026.124a.724.724,0,0,0,.205.386,1.366,1.366,0,0,0,.367.145,3.133,3.133,0,0,1,.824.341,3.009,3.009,0,0,1,.317.712l2.435,7.93c.4,1.28.915,3.1,1.538,5.422l.049.181.133.041a.848.848,0,0,0,.252.044.477.477,0,0,0,.306-.146l.077-.069.26-1.122c.269-1.2.733-2.941,1.381-5.167l2.08-7.407a1.44,1.44,0,0,1,.252-.522,1.652,1.652,0,0,1,.712-.208,1.43,1.43,0,0,0,.4-.131l.1-.049.046-.14a1.279,1.279,0,0,0,.069-.436Z" style="fill:#2c087e"/><path d="M25.625,23.961c-4.462,6.4-18.148,5.853-20.732-1.52H2C4.062,32.043,21.439,32.439,25.625,23.961Z" style="fill:url(#linear-gradient)"/><path d="M30,9.559c-2.062-9.6-19.439-10-23.625-1.52,4.462-6.4,18.148-5.853,20.732,1.52Z" style="fill:url(#linear-gradient-2)"/></svg>