<svg xmlns="http://www.w3.org/2000/svg" viewBox="0 0 32 32" stroke-linecap="round" stroke-width="1.33"><title>file_type_prettier</title><path d="m2.45 2.45h16.3m-16.3 5.42h9.48m10.8 0h1.35m-16.3 2.71h1.35m4.06 5.42h10.8m-21.7 2.71h5.42m-5.42 8.13h2.71" stroke="#56b3b4"/><path d="m2.45 5.16h4.06m12.2 5.42h6.77m-23 5.42h1.35m6.77 2.71h5.42m-13.5 10.8h6.77" stroke="#ea5e5e"/><path d="m9.23 5.16h13.5m-20.3 5.42h2.71m13.5 2.71h6.77m-19 2.71h4.06m-4.06 5.42h12.2m-10.8 5.42h1.35" stroke="#f7b93e"/><path d="m14.6 7.87h5.42m-17.6 5.42h6.77m9.48 5.42h4.06m-20.3 2.71h1.35m-1.35 2.71h6.77" stroke="#bf85bf"/><path d="m21.4 2.45h8.13m-4.06 2.71h4.06m-2.71 2.71h2.71m-17.6 2.71h4.06m12.2 0h1.35m-17.6 2.71h4.06m12.2 0h1.35m-2.71 2.71h2.71m-4.06 2.71h4.06m-8.13 2.71h2.71m2.71 0h2.71m-17.6 2.71h2.71m2.71 0h12.2m-17.6 2.71h5.42m2.71 0h1.35m2.71 0h5.42m-17.6 2.71h8.13m2.71 0h6.77" stroke="#4d616e" opacity=".5"/></svg>