<svg xmlns="http://www.w3.org/2000/svg" viewBox="0 0 32 32"><title>file_type_kos</title><rect x="10.084" y="13.816" width="8.19" height="3.567" style="fill:#fcfcfc"/><path d="M10.084,10.095q4.093,0,8.189,0l0,3.925-4.022,0v-.2h-4.17C10.084,12.642,10.084,10.095,10.084,10.095Z"/><path d="M10.134,17.182h4.12v.2h4.02c0,1.406,0,2.813,0,4.219q-4.068.007-8.136,0Z"/><path d="M23.32,10.349c1.909,0,3.819-.005,5.727,0-.052.13-4.364,5.269-4.449,5.346.128.134,5.291,6.078,5.4,6.207H24.174c-1.55-1.562-3.115-3.111-4.665-4.673-1.668,0-5.232-.008-5.255-.014.005-.524,0-1.07,0-1.594h4.02c0-.507,0-1.245,0-1.6.52,0,.916,0,1.333,0C20.206,13.417,22.744,10.936,23.32,10.349Z" style="fill:#044699"/><path d="M5.191,13.972c3.021-.014,6.042,0,9.064-.006v1.658h-4.12v1.558c-1.782,0-3.564.008-5.346-.006-.257-.013-2.29-.137-2.717-1.28A1.236,1.236,0,0,1,2,15.589a1.206,1.206,0,0,1,.063-.263C2.505,14.1,4.835,13.986,5.191,13.972Z" style="fill:#044699"/></svg>