<svg xmlns="http://www.w3.org/2000/svg" viewBox="0 0 32 32"><title>file_type_rspec</title><path d="M4.232,19.36,6.56,20A10.28,10.28,0,0,1,16.012,5.729h.19l1.377-1.876L16.463,2h-.451A14.021,14.021,0,0,0,2.95,21.094Z" style="fill:#5ecae6"/><path d="M18.387,3.971,16.962,5.8a10.267,10.267,0,0,1,9.286,10.212,10.143,10.143,0,0,1-.594,3.42l1.116,2.161,2.137-.166A14.127,14.127,0,0,0,30,16.012,13.985,13.985,0,0,0,17.247,2.071Z" style="fill:#a5ddef"/><path d="M26.343,22.258l-1-2.042a10.259,10.259,0,0,1-18.429.546l-2.47-.617L3.235,21.783a14.007,14.007,0,0,0,25.364.309Z" style="fill:#7fd2ed"/><polygon points="12.165 9.932 8.412 13.779 9.362 15.703 15.893 23.683 22.424 15.513 23.374 13.779 19.622 9.932 12.165 9.932" style="fill:#ef4561"/><line x1="8.412" y1="13.898" x2="10.763" y2="14.373" style="fill:none"/><polygon points="22.424 15.537 20.097 16.226 21.023 14.373 23.374 13.898 22.424 15.537" style="fill:#ef4d6e"/><polygon points="14.967 16.582 14.017 14.207 17.769 14.207 16.819 16.582 14.967 16.582" style="fill:#ef4561"/><polygon points="18.696 16.107 17.769 14.207 21.023 14.207 20.097 16.107 18.696 16.107" style="fill:#ef4561"/><polygon points="13.091 16.226 14.017 14.373 14.967 16.701 13.091 16.226" style="fill:#ef4d6e"/><polygon points="16.819 16.701 17.769 14.373 18.696 16.226 16.819 16.701" style="fill:#ef4d6e"/><polygon points="21.023 14.254 19.17 9.932 19.622 9.932 23.374 13.708 21.023 14.254" style="fill:#ef4561"/><polygon points="17.769 14.207 18.221 9.932 19.17 9.932 21.023 14.207 17.769 14.207" style="fill:#ef4d6e"/><polygon points="9.362 15.774 11.69 16.226 10.763 14.373 8.412 13.898 9.362 15.774" style="fill:#ef4d6e"/><polygon points="13.091 16.107 14.017 14.207 10.763 14.207 11.69 16.107 13.091 16.107" style="fill:#ef4561"/><polygon points="10.763 14.254 12.616 9.932 12.165 9.932 8.412 13.708 10.763 14.254" style="fill:#ef4561"/><polygon points="14.017 14.207 13.566 9.932 12.616 9.932 10.763 14.207 14.017 14.207" style="fill:#ef4d6e"/><polygon points="14.017 14.136 15.893 9.932 13.566 9.932 14.017 14.136" style="fill:#ef4561"/><polygon points="17.769 14.136 18.221 9.932 15.893 9.932 17.769 14.136" style="fill:#ef4561"/><polygon points="17.769 14.207 15.893 10.003 14.017 14.207 17.769 14.207" style="fill:#ef4d6e"/><polygon points="11.69 16.107 15.893 23.564 13.091 16.107 11.69 16.107" style="fill:#ef4d6e"/><polygon points="9.362 15.774 11.69 16.226 15.893 23.707 9.362 15.774" style="fill:#ef4561"/><polygon points="13.091 16.226 14.967 16.701 15.893 23.707 13.091 16.226" style="fill:#ef4561"/><polygon points="18.696 16.226 15.893 23.707 16.819 16.701 18.696 16.226" style="fill:#ef4561"/><polygon points="20.097 16.107 15.893 23.564 18.696 16.107 20.097 16.107" style="fill:#ef4d6e"/><polygon points="22.424 15.537 20.097 16.226 15.893 23.707 22.424 15.537" style="fill:#ef4561"/><polygon points="15.893 23.588 14.967 16.582 16.819 16.582 15.893 23.588" style="fill:#ef4d6e"/></svg>