<svg xmlns="http://www.w3.org/2000/svg" viewBox="0 0 32 32"><title>file_type_package</title><path d="M7.61,3.093c2.078-.019,4.159,0,6.238-.008-.493,2.123-.966,4.252-1.457,6.376q-4.745,0-9.491,0c-.3,0-.6.01-.9-.012C3.864,7.325,5.749,5.219,7.61,3.093Z" style="fill:#f2e6c9"/><path d="M18.163,3.086q3.109,0,6.22,0C26.251,5.212,28.137,7.32,30,9.449c-1.2.025-2.4,0-3.6.011q-3.4,0-6.795,0C19.133,7.333,18.629,5.214,18.163,3.086Z" style="fill:#f2e6c9"/><path d="M13.848,3.086q2.158,0,4.315,0c.466,2.128.969,4.247,1.444,6.373-2.405,0-4.811,0-7.216,0C12.882,7.337,13.355,5.209,13.848,3.086Z" style="fill:#efc75e"/><path d="M2,9.448c.3.022.6.011.9.012q4.745,0,9.491,0c0,2.245,0,4.49.007,6.735a2.44,2.44,0,0,0,.256.018q3.372,0,6.743,0c.067,0,.134-.007.2-.014.019-2.247,0-4.494.009-6.741q3.4,0,6.795,0c1.2-.006,2.4.014,3.6-.011q0,9.732,0,19.466-14,0-28,0Q2,19.181,2,9.448Z" style="fill:#e7bf55"/><path d="M12.391,9.462c2.405,0,4.811,0,7.216,0-.008,2.247.011,4.494-.009,6.741-.067.007-.134.012-.2.014q-3.372,0-6.743,0A2.44,2.44,0,0,1,12.4,16.2C12.386,13.952,12.4,11.706,12.391,9.462Z" style="fill:#dbb551"/><rect x="4.044" y="22.581" width="9.37" height="3.608" style="fill:#f2f2f2"/></svg>