<svg xmlns="http://www.w3.org/2000/svg" viewBox="0 0 32 32"><title>file_type_publisher</title><path d="M16.484,2.475h1.868V8.136h2.214c.088-1.123-.418-2.906,1-3.366,1.956-.23,3.941-.022,5.91-.1.777.069,1.771-.189,2.356.475A4.665,4.665,0,0,1,30,6.561c-.009,4.3-.016,8.6,0,12.893a5.5,5.5,0,0,1-.2,1.711,10.365,10.365,0,0,1-2.96.186,35.2,35.2,0,0,1-.1,4.312c-.267.736-1.142.7-1.78.72-2.2.006-4.407-.009-6.612,0v3.145H16.405c-4.8-.871-9.6-1.673-14.4-2.516Q2,16,2,4.994C6.827,4.154,11.659,3.327,16.484,2.475Z" style="fill:#077467"/><path d="M22.089,5.714c2.312-.2,4.64-.044,6.958-.094V20.089h-2.2c-.006-3.781.009-7.559-.006-11.339C25.36,7.58,23.376,7.092,22.089,5.714Z" style="fill:#fff"/><path d="M18.352,9.08h7.235V25.436H18.352q0-.944,0-1.887H23.7c0-.418,0-.84,0-1.258H18.352c0-.525,0-1.047,0-1.573H23.7c0-.418,0-.84,0-1.258H18.352c0-.525,0-1.047,0-1.573H23.7c0-.418,0-.84,0-1.258H18.352c0-.525,0-1.047,0-1.573H23.7v-4.4H18.352C18.349,10.127,18.349,9.605,18.352,9.08Z" style="fill:#fff"/><path d="M7.029,10.8c1.714.053,3.8-.692,5.218.594,1.349,1.651.988,4.665-1.022,5.649a4.566,4.566,0,0,1-2.306.286c0,1.233-.006,2.466,0,3.7-.635-.063-1.271-.126-1.9-.2C7.045,17.491,7.016,14.147,7.029,10.8Z" style="fill:#fff"/><path d="M8.916,12.49c.623-.035,1.4-.148,1.818.453a2.315,2.315,0,0,1,.028,2.051c-.365.645-1.17.582-1.8.654C8.9,14.6,8.91,13.543,8.916,12.49Z" style="fill:#077467"/></svg>