<svg xmlns="http://www.w3.org/2000/svg" viewBox="0 0 32 32"><title>file_type_csslint</title><rect x="2" y="2" width="28" height="28" style="fill:#eee;stroke:#fff;stroke-linecap:round;stroke-linejoin:round;stroke-width:0px"/><path d="M9.413,11.5l1.859.589A4.17,4.17,0,0,1,9.85,14.4a4.055,4.055,0,0,1-2.523.755A4.084,4.084,0,0,1,4.218,13.86,4.945,4.945,0,0,1,3,10.327,5.191,5.191,0,0,1,4.224,6.645,4.2,4.2,0,0,1,7.443,5.333a3.95,3.95,0,0,1,2.831,1.03,3.746,3.746,0,0,1,.972,1.749l-1.9.453a1.962,1.962,0,0,0-2-1.593,2.161,2.161,0,0,0-1.713.758,3.715,3.715,0,0,0-.657,2.455,3.983,3.983,0,0,0,.648,2.565,2.1,2.1,0,0,0,1.684.764,1.921,1.921,0,0,0,1.315-.486A2.822,2.822,0,0,0,9.413,11.5Z" style="fill:#414141"/><path d="M12.431,11.9,14.3,11.72a2.276,2.276,0,0,0,.683,1.38,2.066,2.066,0,0,0,1.389.44,2.135,2.135,0,0,0,1.4-.392,1.166,1.166,0,0,0,.47-.917.864.864,0,0,0-.2-.573,1.579,1.579,0,0,0-.69-.411q-.337-.117-1.535-.415a5.208,5.208,0,0,1-2.163-.939,2.471,2.471,0,0,1-.874-1.911,2.441,2.441,0,0,1,.411-1.357,2.575,2.575,0,0,1,1.185-.962,4.751,4.751,0,0,1,1.869-.33,4.008,4.008,0,0,1,2.691.784,2.766,2.766,0,0,1,.949,2.092l-1.917.084a1.628,1.628,0,0,0-.528-1.053A1.933,1.933,0,0,0,16.22,6.92a2.191,2.191,0,0,0-1.308.343.692.692,0,0,0-.3.589.729.729,0,0,0,.285.576,5.041,5.041,0,0,0,1.762.635,9.3,9.3,0,0,1,2.07.683,2.667,2.667,0,0,1,1.049.965,2.989,2.989,0,0,1-.074,3.041,2.717,2.717,0,0,1-1.283,1.059,5.378,5.378,0,0,1-2.066.347,4.114,4.114,0,0,1-2.766-.832A3.621,3.621,0,0,1,12.431,11.9Z" style="fill:#414141"/><path d="M21.279,11.9l1.865-.181a2.276,2.276,0,0,0,.683,1.38,2.066,2.066,0,0,0,1.389.44,2.135,2.135,0,0,0,1.4-.392,1.166,1.166,0,0,0,.47-.917.864.864,0,0,0-.2-.573,1.579,1.579,0,0,0-.69-.411q-.337-.117-1.535-.415A5.208,5.208,0,0,1,22.5,9.893a2.471,2.471,0,0,1-.874-1.911,2.441,2.441,0,0,1,.411-1.357,2.575,2.575,0,0,1,1.185-.962,4.751,4.751,0,0,1,1.869-.33,4.008,4.008,0,0,1,2.691.784,2.766,2.766,0,0,1,.949,2.092l-1.917.084a1.628,1.628,0,0,0-.528-1.053,1.933,1.933,0,0,0-1.214-.321,2.191,2.191,0,0,0-1.308.343.692.692,0,0,0-.3.589.729.729,0,0,0,.285.576,5.041,5.041,0,0,0,1.762.635,9.3,9.3,0,0,1,2.07.683,2.667,2.667,0,0,1,1.049.965,2.989,2.989,0,0,1-.074,3.041,2.717,2.717,0,0,1-1.283,1.059,5.378,5.378,0,0,1-2.066.347,4.114,4.114,0,0,1-2.766-.832A3.621,3.621,0,0,1,21.279,11.9Z" style="fill:#414141"/><path d="M3,26.626V17.938H4.769V25.15h4.4v1.476Z" style="fill:#768c1c"/><path d="M10.374,26.626v-8.76h1.769v8.76Z" style="fill:#768c1c"/><path d="M13.846,26.626v-8.76h1.721l3.585,5.85v-5.85H20.8v8.76H19.021l-3.532-5.713v5.713Z" style="fill:#768c1c"/><path d="M24.638,26.626V19.348h-2.6V17.866H29v1.482H26.407v7.278Z" style="fill:#768c1c"/></svg>