<svg xmlns="http://www.w3.org/2000/svg" viewBox="0 0 32 32"><title>file_type_ng_component_html</title><defs><clipPath id="a"><path d="m0 0h223v236h-223z" fill="#fff" /></clipPath><linearGradient id="b"><stop offset="0" stop-color="#de3641" /><stop offset="1" stop-color="#b13138" /></linearGradient><linearGradient id="c"><stop offset="0" stop-color="#de3641" /><stop offset="1" stop-color="#de3641" stop-opacity="0" /></linearGradient></defs><g transform="matrix(.11923 0 0 .11923 2.7608 1.986)" clip-path="url(#a)"><path d="m222.08 39.192-8.019 125.92-76.671-165.12zm-53.105 162.82-57.933 33.056-57.934-33.056 11.783-28.556h92.301zm-57.933-139.34 30.357 73.803h-60.715zm-103.1 102.44-7.937-125.92 84.69-39.192z" fill="url(#b)" /><path d="m222.08 39.192-8.019 125.92-76.671-165.12zm-53.105 162.82-57.933 33.056-57.934-33.056 11.783-28.556h92.301zm-57.933-139.34 30.357 73.803h-60.715zm-103.1 102.44-7.937-125.92 84.69-39.192z" fill="url(#c)" /></g><polygon points="18.69 28.21 17.58 15.74 29.8 15.74 28.69 28.21 23.68 29.6 18.69 28.21" style="fill:#e44f26" /><polygon points="23.69 28.54 27.74 27.42 28.69 16.76 23.69 16.76 23.69 28.54" style="fill:#f1662a" /><polygon points="23.69 21.39 21.67 21.39 21.53 19.82 23.69 19.82 23.69 18.29 23.69 18.29 19.85 18.29 19.89 18.7 20.27 22.92 23.69 22.92 23.69 21.39" style="fill:#ebebeb" /><polygon points="23.69 25.36 23.68 25.36 21.98 24.9 21.87 23.68 21.04 23.68 20.34 23.68 20.55 26.08 23.68 26.95 23.69 26.95 23.69 25.36" style="fill:#ebebeb" /><polygon points="23.69 21.39 23.69 22.92 25.57 22.92 25.39 24.9 23.69 25.36 23.69 26.95 26.82 26.08 26.85 25.82 27.2 21.8 27.24 21.39 26.83 21.39 23.69 21.39" style="fill:#fff" /><polygon points="23.69 18.29 23.69 19.24 23.69 19.82 23.69 19.82 27.38 19.82 27.38 19.82 27.38 19.82 27.41 19.47 27.48 18.7 27.52 18.29 23.69 18.29" style="fill:#fff" /></svg>
