<svg xmlns="http://www.w3.org/2000/svg" viewBox="0 0 32 32"><title>file_type_tsconfig</title><path d="M23.827,8.243A4.424,4.424,0,0,1,26.05,9.524a5.853,5.853,0,0,1,.852,1.143c.011.045-1.534,1.083-2.471,1.662-.034.023-.169-.124-.322-.35a2.014,2.014,0,0,0-1.67-1c-1.077-.074-1.771.49-1.766,1.433a1.3,1.3,0,0,0,.153.666c.237.49.677.784,2.059,1.383,2.544,1.1,3.636,1.817,4.31,2.843a5.158,5.158,0,0,1,.416,4.333,4.764,4.764,0,0,1-3.932,2.815,10.9,10.9,0,0,1-2.708-.028,6.531,6.531,0,0,1-3.616-1.884,6.278,6.278,0,0,1-.926-1.371,2.655,2.655,0,0,1,.327-.208c.158-.09.756-.434,1.32-.761l1.024-.6.214.312a4.771,4.771,0,0,0,1.35,1.292,3.3,3.3,0,0,0,3.458-.175,1.545,1.545,0,0,0,.2-1.974c-.276-.4-.84-.727-2.443-1.422a8.8,8.8,0,0,1-3.349-2.055,4.687,4.687,0,0,1-.976-1.777,7.116,7.116,0,0,1-.062-2.268,4.332,4.332,0,0,1,3.644-3.374A9,9,0,0,1,23.827,8.243ZM15.484,9.726l.011,1.454h-4.63V24.328H7.6V11.183H2.97V9.755a13.986,13.986,0,0,1,.04-1.466c.017-.023,2.832-.034,6.245-.028l6.211.017Z" style="fill:#007acc"/><path d="M27.075,25.107l.363-.361c1.68.055,1.706,0,1.78-.177l.462-1.124.034-.107-.038-.093c-.02-.049-.081-.2-1.13-1.2v-.526c1.211-1.166,1.185-1.226,1.116-1.4l-.46-1.136c-.069-.17-.1-.237-1.763-.191l-.364-.367a8.138,8.138,0,0,0-.057-1.657l-.047-.106-1.2-.525c-.177-.081-.239-.11-1.372,1.124l-.509-.008c-1.167-1.245-1.222-1.223-1.4-1.152l-1.115.452c-.175.071-.236.1-.169,1.79l-.36.359c-1.68-.055-1.7,0-1.778.177L18.606,20l-.036.108.038.094c.02.048.078.194,1.13,1.2v.525c-1.211,1.166-1.184,1.226-1.115,1.4l.459,1.137c.07.174.1.236,1.763.192l.363.377a8.169,8.169,0,0,0,.055,1.654l.047.107,1.208.528c.176.073.236.1,1.366-1.13l.509.006c1.168,1.247,1.228,1.223,1.4,1.154l1.113-.45C27.082,26.827,27.143,26.8,27.075,25.107Zm-4.788-2.632a2,2,0,1,1,2.618,1.14A2.023,2.023,0,0,1,22.287,22.475Z" style="fill:#99b8c4"/></svg>