<svg xmlns="http://www.w3.org/2000/svg" viewBox="0 0 32 32"><title>file_type_light_docpad</title><path d="M8.826,9.88q.852,0,1.707,0c.011.57.011,1.139.008,1.709.56,0,1.12,0,1.679-.008,0-.566,0-1.133.009-1.7a5.462,5.462,0,0,1,1.734.115c-.039.941-.009,1.882-.02,2.823q5.115,0,10.228,0a3.276,3.276,0,0,1,1.57-1.651,3.078,3.078,0,0,1,3.177.412,3.008,3.008,0,0,1-2.426,5.279,3.115,3.115,0,0,1-2.316-1.866q-8.169,0-16.339,0c-.027-.725-.014-1.452-.016-2.178l1,0c.006-.98,0-1.959.008-2.939M26.68,13.1A.862.862,0,1,0,27.8,14.224.87.87,0,0,0,26.68,13.1Z" style="fill:#3d3d3d"/><path d="M3.569,15.482a3.048,3.048,0,0,1,3.341.319,3.812,3.812,0,0,1,.946,1.267c5.444-.019,10.889,0,16.331-.006q0,1.055,0,2.112-.512,0-1.023,0c0,.985,0,1.97,0,2.955H21.513q0-.845,0-1.69-.828,0-1.657,0v1.69c-.587,0-1.174,0-1.759,0,0-.982,0-1.964.006-2.944-3.408-.03-6.816.011-10.225-.02a3.33,3.33,0,0,1-1.942,1.814,3,3,0,0,1-2.367-5.5m.618,2.908a.99.99,0,0,0,1.109.6c.222-.216.535-.4.565-.741a.89.89,0,0,0-.935-.991A.884.884,0,0,0,4.187,18.39Z" style="fill:#3d3d3d"/></svg>