<svg xmlns="http://www.w3.org/2000/svg" viewBox="0 0 32 32"><title>file_type_cppheader</title><path d="M2.395,25.5V6.5H4.727v6.817a5.212,5.212,0,0,1,4.121-1.892,5.558,5.558,0,0,1,2.657.6,3.539,3.539,0,0,1,1.614,1.665,7.677,7.677,0,0,1,.486,3.085V25.5H11.273V16.778a3.6,3.6,0,0,0-.758-2.547,2.819,2.819,0,0,0-2.145-.8,3.782,3.782,0,0,0-1.951.538,3.038,3.038,0,0,0-1.3,1.458,6.7,6.7,0,0,0-.389,2.54V25.5Z" style="fill:#984c93"/><polygon points="16.727 14.829 16.727 12.485 19.071 12.485 19.071 14.829 21.415 14.829 21.415 17.172 19.071 17.172 19.071 19.515 16.727 19.515 16.727 17.172 14.385 17.172 14.385 14.828 16.727 14.829" style="fill:#984c93"/><polygon points="24.928 14.829 24.928 12.485 27.272 12.485 27.272 14.829 29.615 14.829 29.615 17.172 27.272 17.172 27.272 19.515 24.928 19.515 24.928 17.172 22.585 17.172 22.585 14.828 24.928 14.829" style="fill:#984c93"/></svg>