<svg xmlns="http://www.w3.org/2000/svg" viewBox="0 0 32 32"><title>file_type_cf</title><rect x="3.167" y="3.517" width="25.667" height="24.967" style="fill:#26424e"/><path d="M2,2.35v27.3H30V2.35ZM3.167,3.517H28.834V28.483H3.167ZM16.81,21.066a.194.194,0,0,1-.135.212,6.028,6.028,0,0,1-2.125.288c-3,0-5.653-1.961-5.653-6.576,0-3.961,2.346-6.615,5.922-6.615a5.234,5.234,0,0,1,1.991.269c.1.038.115.1.115.212V10.51c0,.154-.077.154-.135.135a4.529,4.529,0,0,0-1.953-.365c-2.25,0-3.75,1.711-3.75,4.653,0,3.634,2.057,4.711,3.75,4.711a5.239,5.239,0,0,0,1.836-.25c.077-.038.135-.038.135.1v1.577Zm.746-6.975c-.077,0-.076-.038-.076-.135V12.371c0-.1.019-.115.1-.115h1.069v-.6a3.946,3.946,0,0,1,.385-1.842,2.521,2.521,0,0,1,2.481-1.423,2.126,2.126,0,0,1,.777.1.15.15,0,0,1,.115.173V10.2c0,.1-.038.135-.135.115a2.45,2.45,0,0,0-.526-.058c-.673,0-1,.481-1,1.4v.593H22.27c.1,0,.133.019.133.1v1.6c0,.1-.019.115-.115.135H20.743v7.183c0,.077-.019.129-.135.129H18.78a.121.121,0,0,1-.135-.135V14.091H17.556Z" style="fill:#e5f3fc"/></svg>