<svg xmlns="http://www.w3.org/2000/svg" xmlns:xlink="http://www.w3.org/1999/xlink" viewBox="0 0 32 32"><defs><linearGradient id="a" x1="-683.873" y1="-565.884" x2="-664.125" y2="-585.635" gradientTransform="matrix(0.999, 0, 0, -0.999, 688.969, -558.754)" gradientUnits="userSpaceOnUse"><stop offset="0"/><stop offset="1" stop-color="#fff"/></linearGradient><linearGradient id="b" x1="-663.231" y1="-584.741" x2="-682.979" y2="-564.99" xlink:href="#a"/></defs><title>file_type_json_official</title><path d="M15.976,22.842c6.195,8.445,12.257-2.357,12.248-8.853C28.214,6.31,20.43,2.017,15.971,2.017A14.116,14.116,0,0,0,2,16.024C2,25.018,9.812,30,15.971,30c-1.394-.2-6.039-1.2-6.1-11.894-.042-7.236,2.36-10.126,6.091-8.855a7.106,7.106,0,0,1,4.115,6.816A7.132,7.132,0,0,1,15.976,22.842Z" style="fill:url(#a)"/><path d="M15.969,9.245c-4.093-1.411-9.108,1.963-9.108,8.72C6.862,29,15.038,30,16.029,30A14.116,14.116,0,0,0,30,15.994C30,7,22.188,2.017,16.029,2.017c1.706-.236,9.195,1.846,9.195,12.081,0,6.675-5.592,10.308-9.229,8.756a7.106,7.106,0,0,1-4.115-6.816A7.17,7.17,0,0,1,15.969,9.245Z" style="fill:url(#b)"/></svg>