<svg xmlns="http://www.w3.org/2000/svg" xmlns:xlink="http://www.w3.org/1999/xlink" viewBox="0 0 32 32"><defs><linearGradient id="a" x1="16" y1="3" x2="16" y2="29" gradientUnits="userSpaceOnUse"><stop offset="0" stop-color="#1c4c70"/><stop offset="1" stop-color="#0c2b42"/></linearGradient></defs><title>file_type_processinglang</title><path d="M15.922,19.962a13,13,0,0,1-1.647-.077v5.552a27.76,27.76,0,0,1,3.332.461V29H5.968V25.9A27.988,27.988,0,0,1,9.3,25.438V6.715a28.215,28.215,0,0,1-3.331-.46v-3.1H8.955C10.18,3.153,13.549,3,16.23,3c6.318,0,9.8,2.948,9.8,8C26.031,16.018,22.2,19.962,15.922,19.962ZM16,7.058c-.613,0-1.149,0-1.723.038v8.615a9.694,9.694,0,0,0,1.455.115c3.025-.038,5.13-1.723,5.13-4.519C20.862,8.7,19.407,7.058,16,7.058Z" style="fill:url(#a)"/></svg>