<svg xmlns="http://www.w3.org/2000/svg" viewBox="0 0 32 32"><title>file_type_handlebars2</title><path d="M12.3,17.6a4.238,4.238,0,0,1,2.728.9A4.592,4.592,0,0,1,16,19.634a4.144,4.144,0,0,1,2.039-1.747,4.757,4.757,0,0,1,3.286.019,7.833,7.833,0,0,1,2.443,1.558c.568.5,1.094,1.05,1.679,1.533a3.4,3.4,0,0,0,1.019.614,1.42,1.42,0,0,0,1.46-.379.965.965,0,0,0-.055-1.323.545.545,0,0,0-.8.108.659.659,0,0,0,.05.686,1.222,1.222,0,0,1-.6-.926,1.022,1.022,0,0,1,.691-1.032,2.005,2.005,0,0,1,2.312.661,3.258,3.258,0,0,1,.44,2.308,2.762,2.762,0,0,1-1.137,1.872,5.051,5.051,0,0,1-3.013.8,8.488,8.488,0,0,1-2.932-.63c-1.558-.626-3.016-1.492-4.625-1.992a13.977,13.977,0,0,0-1.7-.363c-.43.007-.861-.015-1.29.015a5.692,5.692,0,0,0-1.534.349c-1.636.509-3.116,1.4-4.7,2.024a7.625,7.625,0,0,1-4.249.474,3.74,3.74,0,0,1-2.125-1.14A2.856,2.856,0,0,1,2,21.175,2.722,2.722,0,0,1,2.558,19.3a1.994,1.994,0,0,1,1.687-.68,1.425,1.425,0,0,1,1.063.52,1.04,1.04,0,0,1,.122.911,1.457,1.457,0,0,1-.556.644.643.643,0,0,0,.051-.681.547.547,0,0,0-.831-.079.975.975,0,0,0-.151,1.11,1.331,1.331,0,0,0,1.032.623,2.332,2.332,0,0,0,1.6-.7A28.526,28.526,0,0,1,9.4,18.561,5.251,5.251,0,0,1,12.3,17.6Z" style="fill:#c19770"/><path d="M12.3,7.588a4.238,4.238,0,0,1,2.728.9A4.592,4.592,0,0,1,16,9.619a4.144,4.144,0,0,1,2.039-1.747,4.757,4.757,0,0,1,3.286.019,7.833,7.833,0,0,1,2.443,1.558c.568.5,1.094,1.05,1.679,1.533a3.4,3.4,0,0,0,1.019.614,1.42,1.42,0,0,0,1.46-.379.965.965,0,0,0-.055-1.323.545.545,0,0,0-.8.108.659.659,0,0,0,.05.686,1.222,1.222,0,0,1-.6-.926,1.022,1.022,0,0,1,.691-1.032,2.005,2.005,0,0,1,2.312.661,3.258,3.258,0,0,1,.44,2.308,2.762,2.762,0,0,1-1.137,1.872,5.051,5.051,0,0,1-3.013.8,8.488,8.488,0,0,1-2.932-.63c-1.558-.626-3.016-1.492-4.625-1.992a13.977,13.977,0,0,0-1.7-.363c-.43.007-.861-.015-1.29.015a5.692,5.692,0,0,0-1.534.35c-1.636.509-3.116,1.4-4.7,2.024a7.625,7.625,0,0,1-4.249.474,3.74,3.74,0,0,1-2.125-1.14A2.856,2.856,0,0,1,2,11.16a2.722,2.722,0,0,1,.555-1.874,1.994,1.994,0,0,1,1.687-.68,1.425,1.425,0,0,1,1.063.52,1.04,1.04,0,0,1,.122.911,1.457,1.457,0,0,1-.556.644A.643.643,0,0,0,4.925,10a.547.547,0,0,0-.831-.079.975.975,0,0,0-.151,1.11,1.331,1.331,0,0,0,1.032.623,2.332,2.332,0,0,0,1.6-.7A28.526,28.526,0,0,1,9.4,8.546,5.251,5.251,0,0,1,12.3,7.588Z" style="fill:#c19770"/></svg>