<svg xmlns="http://www.w3.org/2000/svg" viewBox="0 0 32 32"><title>file_type_testts</title><path d="M26.4,24.383c-2.306-.538-3.109-3.31-1.771-6.111a11.927,11.927,0,0,1,2.956-3.706L28,14.221l.012.475a8.972,8.972,0,0,0,1,3.233,18.789,18.789,0,0,1,.833,2.175,4.255,4.255,0,0,1-.1,2.611,3.561,3.561,0,0,1-1.488,1.45A3.726,3.726,0,0,1,26.4,24.383Zm.468-4.753c.166-.191.207-.443.218-1.335l.014-1.1-.269.211a2.238,2.238,0,0,0-.846,1.867c.093.285.382.6.548.594A.686.686,0,0,0,26.869,19.631Z" style="fill:#007acc"/><path d="M6.165,29.08A5.136,5.136,0,0,1,2.124,23c.339-1.427.269-1.344,7.635-9.049L16.7,6.691l.984.938.984.938-4,4.176-4,4.176,3.345-.072,3.345-.072,2.364-2.466,2.364-2.466.98.943.98.943-6.951,7.24c-6.377,6.642-7.009,7.269-7.657,7.59a5.185,5.185,0,0,1-3.27.524Zm19.55-16.646c-.183-.11-2.061-1.862-4.173-3.895L17.7,4.844l-.012-.561a1.15,1.15,0,0,1,.259-.9,1.32,1.32,0,0,1,1.385-.494,91.788,91.788,0,0,1,8.37,8.031,1.339,1.339,0,0,1-1.99,1.511Z" style="fill:#007acc"/><path d="M4.1,23.621c-.353,2.277.959,3.823,3.439,3.486.255-.268,3.21-3.353,9.849-10.316-3.34.072-3.3-.074-6.641,0C4.066,23.717,3.933,23.667,4.1,23.621Z" style="fill:#007acc"/><path d="M27.731,17.931a3.549,3.549,0,0,1,1.783,1.027,4.7,4.7,0,0,1,.683.914c.009.036-1.231.869-1.982,1.335-.027.018-.136-.1-.258-.281a1.616,1.616,0,0,0-1.34-.806c-.864-.059-1.421.394-1.417,1.15a1.045,1.045,0,0,0,.122.534c.19.394.543.629,1.652,1.109,2.041.878,2.915,1.457,3.458,2.281a4.137,4.137,0,0,1,.33,3.476,3.822,3.822,0,0,1-3.154,2.258,8.741,8.741,0,0,1-2.172-.023,5.239,5.239,0,0,1-2.9-1.512,5.037,5.037,0,0,1-.742-1.1,2.13,2.13,0,0,1,.262-.167c.127-.072.606-.348,1.059-.611l.819-.475.172.253a3.827,3.827,0,0,0,1.082,1.036,2.647,2.647,0,0,0,2.774-.14,1.239,1.239,0,0,0,.158-1.579c-.222-.317-.674-.584-1.96-1.14a7.056,7.056,0,0,1-2.684-1.652,3.76,3.76,0,0,1-.783-1.426,5.709,5.709,0,0,1-.05-1.819,3.475,3.475,0,0,1,2.924-2.706A7.222,7.222,0,0,1,27.731,17.931Zm-6.693,1.19.009,1.168H17.336V30.834H14.711V20.289H11V19.144a11.22,11.22,0,0,1,.032-1.177c.014-.018,2.272-.027,5.01-.023l4.983.014Z" style="fill:#007acc;stroke:#000;stroke-miterlimit:10;stroke-width:0.5px"/></svg>