<svg xmlns="http://www.w3.org/2000/svg" viewBox="0 0 32 32"><title>file_type_travis</title><path d="M29.931,11.868c-.013-.1-.029-.2-.05-.3a3.189,3.189,0,0,0-.072-.311l-.078-.124a5.4,5.4,0,0,0-1.02-.611c-.29-.137-.586-.257-.884-.367a12.6,12.6,0,0,0-4.143-5.783,10.817,10.817,0,0,0-13.221,0A12.6,12.6,0,0,0,6.32,10.152c-.3.11-.593.23-.883.366a5.378,5.378,0,0,0-1.02.611l-.078.124c-.031.112-.051.208-.072.311s-.035.2-.05.3c-.029.2-.048.405-.059.609A7.654,7.654,0,0,0,4.194,13.7a7.757,7.757,0,0,0,.226,1.205c.057.2.121.393.2.587.038.1.079.194.125.29.023.048.047.095.072.144.056.1.066.117.089.152l.106.1c.069.035.126.062.188.092l.182.081.1.041a15.073,15.073,0,0,0-2.5,2.98L2,20.916l1.376-1.208a22.633,22.633,0,0,1,3.1-2.151l.027.221a8.045,8.045,0,0,0-.911.534c-.3.248-.313.632-.233,1.349a12.437,12.437,0,0,0,.364,1.735c.32,1.125.555,1.324.761,1.371a1.553,1.553,0,0,0,.348.033,4.474,4.474,0,0,0,1.149-.165,11.288,11.288,0,0,0,1.5,3.029l-.09.026c-.375-.174-1.688-.782-2.129-.98l-.922-.415.545.851c.04.061.981,1.529,1.749,2.518a4.214,4.214,0,0,0,3.56,1.867,6.385,6.385,0,0,0,.7-.041c.554-.064.97-.114,1.286-.154a8.714,8.714,0,0,0,6.139-.013,8.982,8.982,0,0,0,1.534-.758c.786-.189,1.647-.394,2.072-.513.068-.018.153-.039.242-.06a2.806,2.806,0,0,0,2.109-1.421c.532-1.065,1.4-2.7,1.408-2.713l.405-.761-.79.343c-.042.019-1.043.455-1.563.728a14.828,14.828,0,0,0,.648-1.785,5.076,5.076,0,0,0,1.04.061,1.813,1.813,0,0,0,.421-.054c.206-.052.366-.19.665-1.351a13.017,13.017,0,0,0,.334-1.788c.066-.735.045-1.129-.255-1.378a6.788,6.788,0,0,0-.811-.476.314.314,0,0,1,.191-.036l.2-.768c.071-.03.147-.061.233-.094.122-.049.245-.1.367-.15l.181-.081c.063-.03.119-.056.188-.092l.106-.1a.93.93,0,0,0,.049-.08c.067-.12.09-.167.113-.215.046-.1.086-.193.125-.29.076-.194.14-.39.2-.587a7.742,7.742,0,0,0,.227-1.205,7.584,7.584,0,0,0,.035-1.223c-.01-.2-.03-.408-.059-.609Z" style="fill:#0e0f0d"/><path d="M18.351,27.687c-.149.022-.3.041-.446.052-.1,0-.2.014-.288.014h-.034c.115-.257.2-.456.269-.607.135.151.306.338.5.54" style="fill:#e1c5a2"/><path d="M18.17,16.211a6.545,6.545,0,0,1-.735.52l-.854.515a7.222,7.222,0,0,0-1.026.206.147.147,0,0,0-.044.019.2.2,0,0,0-.088.112l-.869,2.864L9.907,21.479,8.443,20.454l-.426-3.448c.831-.153,1.943-.329,3.277-.479-.143.171-.282.351-.414.539l-.795,1.141,1.157-.771A18.979,18.979,0,0,1,13.2,16.349c1.2-.09,2.528-.148,3.946-.148.347,0,.686,0,1.019.01ZM10.938,20.1a2.683,2.683,0,0,1,1.287-.151c.062,0,.127,0,.194,0l.176,0c.6-.006,1.1.051,1.093-.893s-.429-1.708-1.03-1.7-1.183.779-1.147,1.723a1.5,1.5,0,0,0,.1.551.949.949,0,0,0-.677.476Z" style="fill:#a89983"/><path d="M26.222,16.994,25.8,19.927,24.328,20.96l-4.64-.527-.866-2.851a.2.2,0,0,0-.133-.131,7.076,7.076,0,0,0-1.212-.225l.111-.007a18.444,18.444,0,0,0,3.607-.862,49.236,49.236,0,0,1,5.025.638Zm-2.965,2.714c-.006-.023-.133-.4-.692-.336a1.192,1.192,0,0,0,.073-.59c-.074-.942-.622-1.691-1.223-1.67s-.986.8-.953,1.747.537.937,1.138.915c.808-.015,1.251-.263,1.656-.067Z" style="fill:#a89983"/><path d="M21.67,18.012a.307.307,0,1,1-.313-.3.307.307,0,0,1,.313.3" style="fill:#fff"/><path d="M13.058,18.238a.308.308,0,1,1-.315-.3.307.307,0,0,1,.315.3" style="fill:#fff"/><path d="M28.247,18.284a5.236,5.236,0,0,0-.551-.326l-.389,2.726a.2.2,0,0,1-.082.132l-.556.389c-.013.066-.023.121-.033.172a1.6,1.6,0,0,0,1.376-.544,11.424,11.424,0,0,0,.3-1.631c.063-.707.007-.859-.064-.918" style="fill:#e1c5a2"/><path d="M19.654,28.64a2.657,2.657,0,0,1-.98-.623l-.071-.072a5.892,5.892,0,0,1-.683.1c-.1,0-.191.013-.293.013h-.209a2.642,2.642,0,0,1-1.38.944,8.41,8.41,0,0,0,3.615-.36" style="fill:#e1c5a2"/><path d="M7.768,21.964c-.012-.041-.025-.082-.037-.123l-.723-.506a.2.2,0,0,1-.081-.136l-.352-2.862a6.045,6.045,0,0,0-.643.378c-.07.058-.123.2-.048.886a11.711,11.711,0,0,0,.421,1.891,1.937,1.937,0,0,0,1.462.472" style="fill:#e1c5a2"/><path d="M18.574,21.834a.2.2,0,0,1-.164-.137l-.892-2.939a2.563,2.563,0,0,0-.788,0l-.867,2.855a.2.2,0,0,1-.144.133l-.415.092a.694.694,0,0,1-.539.479,44.075,44.075,0,0,1-5,1.3,4.225,4.225,0,0,1-1.127-.533c-.147-.347-.229-.583-.247-.638h0A12.711,12.711,0,0,0,10,25.511c1.116-.329,2.08-.636,2.389-.733.628-.968,1.522-1.929,2.158-1.962.11-.005.224-.009.336-.009a7.517,7.517,0,0,1,.884.055,1.106,1.106,0,0,1-.316-.572,2.71,2.71,0,0,0,1.843.5,3.256,3.256,0,0,0,1.675-.728l.02-.183-.415-.047" style="fill:#e1c5a2"/><path d="M19.413,22.206a.869.869,0,0,1-.434-.236l-.011.094a1.053,1.053,0,0,1-.453.77,6.139,6.139,0,0,1,1.469-.351.721.721,0,0,1,.52.211c.022.019.044.038.071.059.666.524,1.466,1.16,1.7,1.347.271.031,1.131.13,1.672.179.312.029.594.053.87.053.089,0,.172,0,.252-.008a13.771,13.771,0,0,0,.782-1.818,5.627,5.627,0,0,1-1.391.779,43.875,43.875,0,0,1-5.047-1.078" style="fill:#e1c5a2"/><path d="M29.417,11.926c-.008-.094-.018-.188-.029-.281-.008-.067-.018-.136-.03-.2a5.689,5.689,0,0,0-.834-.569,10.812,10.812,0,0,0-1-.513c-.341-.161-.692-.307-1.044-.449q-.264-.108-.532-.207c-.178-.069-.357-.134-.537-.2.377.063.751.149,1.122.244.241.062.481.132.72.207A11.056,11.056,0,0,0,17.074,2.64,11.053,11.053,0,0,0,6.9,9.958c.238-.075.478-.145.719-.207.371-.1.745-.182,1.123-.244-.181.065-.36.13-.538.2s-.355.135-.531.207c-.352.142-.7.288-1.045.449a11,11,0,0,0-1,.513,5.716,5.716,0,0,0-.834.569c-.01.064-.021.133-.03.2-.011.093-.021.187-.03.281-.016.189-.023.378-.024.568A8.318,8.318,0,0,0,5,14.743c.05.181.108.359.174.533.033.086.069.172.107.254.019.041.038.082.058.121l.024.046.084.042.168.08c.094.043.224.1.332.153l.017-.016-.313-1.192c.066-.018.66-.172,1.684-.367-.082-.015-.165-.033-.248-.053a5.231,5.231,0,0,1-.686-.219,3.165,3.165,0,0,1-.323-.156,1.112,1.112,0,0,1-.285-.217c1.125.367,3.449.2,5.516-.012A56.645,56.645,0,0,1,17,13.416a56.622,56.622,0,0,1,5.688.325c2.067.214,4.392.38,5.516.012a1.109,1.109,0,0,1-.284.217,3.245,3.245,0,0,1-.324.156,5.193,5.193,0,0,1-.686.219l-.1.023c1.123.208,1.777.378,1.846.4l-.3,1.135c.061-.026.122-.053.18-.08l.169-.08.085-.042.023-.046c.02-.039.04-.08.059-.121.038-.082.074-.168.107-.254.066-.173.124-.352.174-.533a8.429,8.429,0,0,0,.294-2.249c0-.19-.008-.379-.025-.568" style="fill:#e0d896"/><path d="M21.731,9.721a8.054,8.054,0,0,1-.231,2.288.186.186,0,0,0,0,.1c-.3-.032-.6-.059-.9-.083a4.946,4.946,0,0,0,.427-1.726,7.9,7.9,0,0,0,.706-.577" style="fill:#d7c184"/><path d="M13.124,10.3a4.917,4.917,0,0,0,.427,1.725q-.451.036-.9.083a.19.19,0,0,0,0-.1,8.109,8.109,0,0,1-.232-2.288,7.975,7.975,0,0,0,.707.577" style="fill:#d7c184"/><path d="M25.426,12.811l-.006.025.1.03a7.581,7.581,0,0,1,.823.309,3.186,3.186,0,0,1-.882-1.757,8.008,8.008,0,0,1-.032,1.392" style="fill:#d7c184"/><path d="M12.046,9.561l-2.872.817a9.575,9.575,0,0,0-.092,2.266l.015-.009a8.421,8.421,0,0,1,.284-1.684c.1-.24.7-.393,1.158-.5s1.192-.328,1.334.317a4.634,4.634,0,0,0,.324.974,8.943,8.943,0,0,1-.151-2.18" style="fill:#d7c184"/><path d="M22.1,9.561a8.778,8.778,0,0,1-.174,2.283,4.456,4.456,0,0,0,.376-1.078c.142-.645.874-.426,1.334-.317s1.06.263,1.158.5a7.644,7.644,0,0,1,.278,1.6,9.813,9.813,0,0,0-.1-2.178L22.1,9.561" style="fill:#d7c184"/><path d="M13.1,9.81c.1.082.209.161.313.231a.19.19,0,0,1,.082.153,4.558,4.558,0,0,0,.44,1.762.281.281,0,0,1,.014.038c1.04-.071,2.083-.1,3.124-.1s2.084.031,3.123.1a.192.192,0,0,1,.015-.04,4.554,4.554,0,0,0,.44-1.762.191.191,0,0,1,.083-.153c.1-.068.2-.145.3-.223l.013-.037a14.656,14.656,0,0,0-.435-5.031c-.013.659-.17,6.305-1.571,6.305H15.176c-1.488,0-1.608-6.366-1.608-6.366l-.077.226A14.587,14.587,0,0,0,13.1,9.81" style="fill:#d7c184"/><path d="M8.728,12.835l-.006-.025a7.918,7.918,0,0,1-.033-1.394,3.188,3.188,0,0,1-.884,1.759,7.5,7.5,0,0,1,.824-.31l.1-.03" style="fill:#d7c184"/><path d="M26.636,21.377c-.024.122-.043.22-.082.374a3.406,3.406,0,0,0,1.09.083,3.238,3.238,0,0,0,.368-1,1.6,1.6,0,0,1-1.376.544" style="fill:#9f8f78"/><path d="M15.207,29.184a6.99,6.99,0,0,0,2.307.248,9.219,9.219,0,0,0,2.827-.648,2.621,2.621,0,0,1-.686-.144,8.408,8.408,0,0,1-3.615.36,3.8,3.8,0,0,1-.665.158c-.056.006-.1.014-.167.026" style="fill:#9f8f78"/><path d="M7.818,22.135c-.018-.057-.034-.114-.05-.171a1.936,1.936,0,0,1-1.462-.472,2.532,2.532,0,0,0,.327.767,3.574,3.574,0,0,0,1.185-.125" style="fill:#9f8f78"/><path d="M8.642,23.079a4.218,4.218,0,0,0,1.127.533,44.075,44.075,0,0,0,5-1.3.694.694,0,0,0,.539-.479L9.638,23.1a.26.26,0,0,1-.042,0h0a.2.2,0,0,1-.112-.035l-.221-.154L8.6,22.45h0l-.267-.187.015.045c.015.044.03.088.046.132h0c.019.056.1.292.248.638" style="fill:#9f8f78"/><path d="M26.022,21.991c.036-.134.072-.269.1-.406l-.2.138-.529.371-.573.4a.2.2,0,0,1-.1.035.2.2,0,0,1-.035,0l-5.705-.649-.01.089a.868.868,0,0,0,.434.236,43.846,43.846,0,0,0,5.047,1.078,5.623,5.623,0,0,0,1.391-.779l.008-.023q.037-.107.073-.215c.031-.091.06-.183.09-.276" style="fill:#9f8f78"/><path d="M19.985,14.3c-.045.058-.094.122-.147.188A12.356,12.356,0,0,1,18.748,15.7q-.777-.024-1.6-.025c-.9,0-1.772.024-2.6.063A20.682,20.682,0,0,1,18.631,14.5c.442-.084.894-.151,1.354-.2" style="fill:#6e6a67"/><path d="M13.175,14.825a10.337,10.337,0,0,0-1.34,1.116c-1.165.117-2.181.258-3.019.393a22.911,22.911,0,0,1,4.359-1.509" style="fill:#6e6a67"/><path d="M27.408,17.23l-.474,3.314-2.27,1.591-5.92-.673-.891-2.935a.2.2,0,0,0-.155-.136,3.167,3.167,0,0,0-1.152,0,.2.2,0,0,0-.155.136l-.869,2.863L9.636,22.7,7.3,21.066l-.46-3.72.305-.169q.217-.047.487-.1l.433,3.51a.19.19,0,0,0,.082.134l1.605,1.125a.2.2,0,0,0,.111.035.226.226,0,0,0,.043,0l4.84-1.077a.239.239,0,0,0,.048-.018.194.194,0,0,0,.095-.116l.872-2.869a6.054,6.054,0,0,1,1.359-.2,6.064,6.064,0,0,1,1.358.2l.872,2.869a.2.2,0,0,0,.164.137l4.84.55a.194.194,0,0,0,.133-.034L26.1,20.2a.2.2,0,0,0,.08-.133l.429-3c.322.062.591.118.8.164" style="fill:#6e6a67"/><path d="M28.005,15.151l-.417,1.581a45.562,45.562,0,0,0-5.271-.805,12.839,12.839,0,0,0,2.454-1.356c1.516.214,2.629.444,3.234.581" style="fill:#6e6a67"/><path d="M6.3,15.151l.116.438c.324-.258.621-.472.871-.643-.408.078-.741.15-.987.205" style="fill:#6e6a67"/><path d="M22.641,14.269q-.957-.054-1.914-.093c-.037.055-.112.164-.22.312a12.175,12.175,0,0,1-1.88,2.03A15.061,15.061,0,0,0,23.163,14.3l-.522-.032" style="fill:#93232c"/><path d="M17.967,14.1h0c-.323,0-.647-.008-.97-.009h0c-.476,0-.951.007-1.427.016l-.877.416-.013.007a10.314,10.314,0,0,0-2.369,1.682c.095-.05.2-.1.3-.154a15.107,15.107,0,0,1,4.635-1.964c.24,0,.48,0,.72.007" style="fill:#93232c"/><path d="M12.574,14.207q-.609.028-1.219.063-.706.039-1.409.093c-.234.018-.468.038-.7.062-.067.007-.133.014-.2.022a19.617,19.617,0,0,0-4.569,3.765l.085-.1a18.406,18.406,0,0,1,8.01-3.906" style="fill:#93232c"/><path d="M26.068,24.671l-.054.028a2.566,2.566,0,0,1-1.2.234c-.3,0-.6-.025-.925-.055-.654-.06-1.762-.19-1.774-.192l-.085-.009-.067-.054c-.01-.007-.98-.78-1.764-1.4l-.087-.071c-.083-.071-.083-.071-.132-.071a17.7,17.7,0,0,0-2.585.723l-.1.031-.1-.037a7.466,7.466,0,0,0-2.321-.392c-.1,0-.206,0-.306.008-.126.006-.834.343-1.74,1.775l-.058.092-.1.033c-.015,0-1.573.508-3.226.98l-.107.03-.1-.047c-.011,0-.656-.3-1.271-.586l.136.063c.607.524,1.77,1.532,1.9,1.672.018.02.043.045.072.072-.03-.034-.059-.069-.088-.1h0a3.471,3.471,0,0,0,.894.628,1.956,1.956,0,0,0,.508.165,1.591,1.591,0,0,0,.261.022c.09,0,.182,0,.273-.007.363-.019.73-.046,1.1-.082s.731-.069,1.1-.114.729-.085,1.09-.141c.181-.026.361-.056.537-.1a1.438,1.438,0,0,0,.245-.074,1.067,1.067,0,0,0,.2-.147c.136-.117.267-.247.4-.376s.257-.262.384-.4c.214-.224.4-.462.6-.693L17.658,26h0l0,0c.043.031.086.063.129.1.249.186.507.387.755.561a11.493,11.493,0,0,0,.98.638,1.523,1.523,0,0,0,.253.118.137.137,0,0,0,.028.007.12.12,0,0,0,.031.007c.016,0,.038,0,.059,0,.045,0,.092,0,.139,0,.189-.013.381-.041.573-.071.383-.06.768-.129,1.15-.205s.766-.152,1.146-.236.763-.17,1.14-.265a3.153,3.153,0,0,0,.543-.178,2.105,2.105,0,0,0,.476-.314,3.7,3.7,0,0,0,.749-.9h0a4.062,4.062,0,0,0,.258-.585" style="fill:#93232c"/><path d="M18.918,6.647h.674V5.277H14.661v1.37h.674v-.7H16.73v4.231h-.574v.785H18.1v-.785h-.574V5.952h1.395v.7" style="fill:#93232c"/><path d="M24.021,14.362h0q-.419-.032-.838-.058h-.016a15.06,15.06,0,0,1-4.536,2.216l-.038.032a15.141,15.141,0,0,0,3.385-1.024,11.363,11.363,0,0,0,1.906-1.063c.048-.033.094-.068.14-.1" style="fill:#731b2a"/><path d="M17.247,14.094a15.1,15.1,0,0,0-4.635,1.964c.476-.242,1.039-.509,1.672-.774l.01,0,.2-.081.064-.026.172-.069.1-.038.157-.061.119-.045.147-.055.139-.05.137-.049.158-.055.126-.043.187-.062.1-.034.3-.094q.327-.1.668-.193c.3-.08.6-.156.9-.224-.24,0-.48-.005-.72-.007" style="fill:#731b2a"/><path d="M12.574,14.207a18.406,18.406,0,0,0-8.01,3.906c-.028.033-.057.066-.085.1a26.233,26.233,0,0,1,7.344-3.574l.314-.09c.535-.15,1.086-.281,1.651-.391q-.606.022-1.213.05" style="fill:#731b2a"/><path d="M26.649,24.39l-.03.014-.062.029-.05.023-.04.019-.061.029-.026.013-.068.033-.015.008-.072.035-.008,0-.148.075a4.061,4.061,0,0,1-.258.585h0v0a3.71,3.71,0,0,1-.748.9,2.106,2.106,0,0,1-.476.314,3.168,3.168,0,0,1-.543.178c-.377.1-.758.184-1.14.265s-.763.163-1.146.236-.767.146-1.15.205c-.192.03-.384.058-.573.071-.047,0-.093,0-.139,0-.021,0-.043,0-.059,0a.114.114,0,0,1-.03-.007.115.115,0,0,1-.028-.007,1.5,1.5,0,0,1-.253-.117,11.591,11.591,0,0,1-.98-.638c-.248-.174-.506-.375-.755-.561l-.022.031,0,0,.047.041h0l-.033-.025.209.249.024.028c.107.125.553.643,1.083,1.168a1.992,1.992,0,0,0,1.448.6,2.583,2.583,0,0,0,.593-.073l.6-.145c.619-.147,1.3-.311,1.759-.429l.088-.023.175-.047c.082-.023.173-.045.269-.066a2.232,2.232,0,0,0,1.706-1.1c.111-.221.235-.465.363-.715.178-.347.363-.7.528-1.017l.077-.147h0l.04-.076-.094.044" style="fill:#731b2a"/><path d="M17.613,26.118l-.036-.034c-.207.231-.391.469-.6.693-.127.135-.254.268-.384.4s-.261.26-.4.376a1.068,1.068,0,0,1-.2.147,1.424,1.424,0,0,1-.245.074c-.176.039-.356.069-.537.1-.361.056-.726.1-1.09.141s-.731.081-1.1.114-.732.063-1.1.082c-.092,0-.183.007-.273.007a1.577,1.577,0,0,1-.261-.022,1.958,1.958,0,0,1-.508-.165,3.478,3.478,0,0,1-.893-.628h0c.036.045.076.086.114.129l-.027-.025c-.03-.028-.054-.052-.072-.072-.129-.14-1.292-1.148-1.9-1.672l-.136-.063c.108.159.225.332.348.508.178.256.365.519.548.767.083.112.165.221.245.323a3.618,3.618,0,0,0,3.085,1.634,5.635,5.635,0,0,0,.63-.037l.149-.017.137-.016c1.386-.159,1.767-.227,1.978-.264l.152-.025.061-.009a3.351,3.351,0,0,0,.935-.284,1.562,1.562,0,0,0,.778-.725c.384-.858.462-1.063.465-1.071l.135-.361" style="fill:#731b2a"/><path d="M21.369,18.325a.307.307,0,1,0-.313-.3.308.308,0,0,0,.313.3Zm1.889,1.383c-.406-.2-.849.052-1.656.067-.6.021-1.105.028-1.138-.915s.351-1.726.953-1.747,1.149.728,1.223,1.67a1.191,1.191,0,0,1-.073.59c.559-.067.686.313.692.336Z" style="fill:#0e0f0d"/><path d="M12.759,18.553a.307.307,0,1,0-.316-.3.307.307,0,0,0,.316.3Zm.928.494c.009.944-.491.887-1.093.893l-.176,0c-.067,0-.132,0-.194,0a2.683,2.683,0,0,0-1.287.151.95.95,0,0,1,.677-.477,1.493,1.493,0,0,1-.1-.551c-.036-.943.546-1.717,1.147-1.723s1.021.758,1.03,1.7Z" style="fill:#0e0f0d"/><path d="M25.073,12.556c-.006.083-.013.142-.016.174-.237-.065-.477-.123-.718-.18a23.837,23.837,0,0,0-2.406-.4l-.085-.009a.294.294,0,0,0,.014-.036c.024-.088.045-.176.065-.265A8.778,8.778,0,0,0,22.1,9.561l2.873.817a9.821,9.821,0,0,1,.1,2.178ZM21.5,12.009a.186.186,0,0,0,0,.1c-.3-.032-.6-.059-.9-.083a4.946,4.946,0,0,0,.427-1.726,7.916,7.916,0,0,0,.706-.577,8.054,8.054,0,0,1-.231,2.288Zm-8.851.1a.19.19,0,0,0,0-.1,8.109,8.109,0,0,1-.232-2.288,7.918,7.918,0,0,0,.707.577,4.917,4.917,0,0,0,.427,1.725q-.451.036-.9.083Zm-.434.047c-.4.049-.806.1-1.208.167s-.8.141-1.2.23c-.241.056-.479.115-.718.18,0-.019-.005-.048-.008-.085a9.575,9.575,0,0,1,.092-2.266l2.872-.817a8.938,8.938,0,0,0,.151,2.18c.026.123.055.246.088.369a.237.237,0,0,0,.014.035l-.085.01Zm14.4,1.16-.072-.035-.12-.059,0,0a.744.744,0,0,1-.075-.043,7.6,7.6,0,0,0-.823-.309l-.1-.03.006-.025a8.016,8.016,0,0,0,.032-1.392,10.978,10.978,0,0,0-.132-1.218.189.189,0,0,0-.134-.151l-.409-.116a7.612,7.612,0,0,0-1.433-4.7,8.706,8.706,0,0,1,1.135,4.618l-2.539-.722H21.94a.24.24,0,0,0-.033,0H21.9a.158.158,0,0,0-.042,0l-.007,0a.141.141,0,0,0-.033.011l-.011.005-.025.017-.006,0,0,0-.007.006s-.071.069-.177.17c.008-.237.009-.6-.018-1.045l-.008-.128A9.681,9.681,0,0,0,20.429,4.12c.007.02.085.247.185.63a14.659,14.659,0,0,1,.435,5.031l0,.029-.01.008c-.1.079-.2.156-.3.223a.191.191,0,0,0-.083.153,4.554,4.554,0,0,1-.44,1.762A.193.193,0,0,0,20.2,12c-1.039-.071-2.082-.1-3.123-.1s-2.084.029-3.124.1a.269.269,0,0,0-.014-.038,4.558,4.558,0,0,1-.44-1.762.19.19,0,0,0-.082-.153c-.1-.07-.21-.15-.313-.231a14.592,14.592,0,0,1,.391-4.895c.12-.482.22-.773.228-.8a10.488,10.488,0,0,0-1.157,5.224c-.108-.1-.175-.167-.177-.17l-.008-.006,0,0-.007,0-.025-.015-.012-.007a.092.092,0,0,0-.031-.01l-.007,0a.169.169,0,0,0-.042,0h-.011l-.031,0H12.2l-2.538.722A8.7,8.7,0,0,1,10.8,5.23a7.622,7.622,0,0,0-1.433,4.7l-.408.116a.187.187,0,0,0-.135.151,11.04,11.04,0,0,0-.132,1.217,7.932,7.932,0,0,0,.033,1.394l.006.025-.1.03a7.511,7.511,0,0,0-.824.31.732.732,0,0,1-.075.042l0,0-.12.059-.062.031-.04.022a4.533,4.533,0,0,1,.578-.176c.2-.049.392-.092.589-.129.4-.073.791-.137,1.19-.186s.8-.1,1.2-.129.8-.068,1.2-.091c1.6-.095,3.21-.125,4.818-.125s3.215.026,4.818.125c.4.023.8.057,1.2.091s.8.078,1.2.13.8.111,1.19.185c.2.038.393.08.588.129a4.512,4.512,0,0,1,.579.176l-.031-.018Z" style="fill:#0e0f0d"/><path d="M17.523,5.952v4.231H18.1v.785H16.156v-.785h.574V5.952H15.336v.7h-.674V5.277h4.931v1.37h-.674v-.7h-1.4Zm2.577,1.2V4.77H14.155V7.154h1.688v-.7h.379V9.675H15.65v1.8H18.6v-1.8H18.03V6.458h.381v.7Z" style="fill:#0e0f0d"/></svg>