<svg xmlns="http://www.w3.org/2000/svg" viewBox="0 0 32 32"><title>file_type_ai</title><path d="M3.169,3.517H28.835V28.483H3.169Z" style="fill:#1c0a00"/><path d="M3.169,3.517H28.835V28.483H3.169ZM2,29.65H30V2.35H2Zm18.34-17.57c0-.093.035-.14.14-.14h1.832c.093,0,.14.035.14.14v9.205c0,.093-.023.14-.14.14H20.505c-.117,0-.152-.058-.152-.152V12.08h-.012Zm-.128-2.648a1.19,1.19,0,0,1,2.38,0,1.115,1.115,0,0,1-1.213,1.19A1.1,1.1,0,0,1,20.214,9.432Zm-5.25,6.487c-.327-1.3-1.1-4.118-1.388-5.483h-.023c-.245,1.365-.863,3.675-1.353,5.483Zm-3.243,1.89-.922,3.5c-.023.093-.058.117-.175.117H8.909c-.117,0-.14-.035-.117-.175l3.313-11.6a3.779,3.779,0,0,0,.117-.968c0-.082.035-.117.093-.117h2.45c.082,0,.117.023.14.117l3.71,12.588c.023.093,0,.152-.093.152H16.585c-.093,0-.152-.023-.175-.1l-.957-3.512H11.72Z" style="fill:#ff7f18"/></svg>