<svg xmlns="http://www.w3.org/2000/svg" viewBox="0 0 32 32"><title>file_type_infopath</title><path d="M16.016,2.883h1.839V9.616c2.236-.043,4.472-.012,6.711-.021q0-.563,0-1.126c-.57-.21-1.476-.116-1.678-.836-.439-1.129.766-1.867,1.391-2.608C25,4.351,25.762,3.137,26.918,3.6a11.817,11.817,0,0,1,2.062,1.9c.464.528,1.193,1.092.982,1.894-.085.872-1.092.875-1.736,1.071,0,3.322-.009,6.647.009,9.969a3.654,3.654,0,0,1-.314,1.842,3.711,3.711,0,0,1-1.818.3q-2.754-.014-5.5-.009c0,.375,0,.75,0,1.123.634.2,1.647.183,1.736,1.049.229.732-.4,1.287-.839,1.769a20.609,20.609,0,0,1-2.013,1.952c-.491.348-1.1.073-1.632.021q0,1.313,0,2.626H15.94C11.3,28.269,6.646,27.494,2,26.676V5.33C6.673,4.512,11.346,3.716,16.016,2.883Z" style="fill:#733781"/><path d="M25.991,4.6c.351-.448.854-.027,1.113.287a11.147,11.147,0,0,1,2.1,2.5c-.634.046-1.269.064-1.9.076-.006,4.06.012,8.117-.012,12.177-2.233.024-4.466.006-6.7.012q0-.915,0-1.83h4.881V7.471c-.638-.012-1.272-.031-1.9-.07A12.443,12.443,0,0,1,25.991,4.6Z" style="fill:#fff"/><path d="M17.874,10.525c2.23-.031,4.46-.009,6.693-.015q0,.915,0,1.83H19.686V22.7c.616.006,1.238.015,1.861.043-.43,1.171-1.565,1.9-2.364,2.815-.47.537-.982-.159-1.333-.458C17.874,20.246,17.828,15.384,17.874,10.525Z" style="fill:#fff"/><path d="M8.689,10.909q.911-.046,1.824-.1c.04,3.459.012,6.921.021,10.38q-.929-.11-1.849-.214C8.689,17.623,8.68,14.264,8.689,10.909Z" style="fill:#fff"/><path d="M20.6,13.255h3.965v3.66H20.6Q20.6,15.085,20.6,13.255Z" style="fill:#fff"/></svg>