<svg xmlns="http://www.w3.org/2000/svg" viewBox="0 0 32 32"><title>file_type_typescriptdef</title><path d="M23.814,8.2a4.436,4.436,0,0,1,2.229,1.284A5.868,5.868,0,0,1,26.9,10.63c.011.045-1.538,1.086-2.478,1.666-.034.023-.17-.124-.323-.351a2.02,2.02,0,0,0-1.675-1.007c-1.08-.074-1.776.492-1.771,1.436a1.307,1.307,0,0,0,.153.668c.237.492.679.786,2.064,1.386,2.551,1.1,3.645,1.822,4.321,2.851a5.171,5.171,0,0,1,.417,4.344,4.776,4.776,0,0,1-3.942,2.823,10.925,10.925,0,0,1-2.715-.028,6.548,6.548,0,0,1-3.626-1.889,6.3,6.3,0,0,1-.928-1.375,2.662,2.662,0,0,1,.328-.208c.158-.091.758-.435,1.324-.763l1.024-.594.215.312a4.784,4.784,0,0,0,1.354,1.3,3.309,3.309,0,0,0,3.467-.175,1.549,1.549,0,0,0,.2-1.979c-.277-.4-.843-.729-2.45-1.426a8.819,8.819,0,0,1-3.358-2.06,4.7,4.7,0,0,1-.979-1.782,7.134,7.134,0,0,1-.062-2.274,4.343,4.343,0,0,1,3.654-3.383A9.026,9.026,0,0,1,23.814,8.2ZM15.448,9.688l.011,1.458H10.817V24.327H7.54V11.148H2.9V9.717a14.023,14.023,0,0,1,.04-1.471c.017-.023,2.839-.034,6.262-.028l6.227.017Z" style="fill:#00a23c"/></svg>