<svg xmlns="http://www.w3.org/2000/svg" viewBox="0 0 32 32"><title>file_type_stylus</title><path d="M6.315,20.776c.726-.869.812-1.766.249-3.432-.356-1.054-.947-1.865-.513-2.521.463-.7,1.445-.021.627.911l.164.114c.983.114,1.467-1.232.733-1.616-1.937-1.011-3.631.933-2.884,3.183.32.954.769,1.965.406,2.77A1.794,1.794,0,0,1,3.773,21.3c-.847.043-.285-1.9.691-2.385.085-.043.206-.1.093-.242a2.134,2.134,0,0,0-2.314,1.2C1.061,22.121,4.485,22.954,6.315,20.776Z" style="fill:#c2c2c2"/><path d="M27.462,14.14c.278.684.7,1.36.449,1.958-.206.513-.477.726-.776.776-.42.071-.306-1.246.413-1.638.064-.036.157-.206.071-.306a1.636,1.636,0,0,0-1.7.961c-.8,1.687,1.823,2.15,3.112.491.513-.662.534-1.317.043-2.506-.313-.755-.79-1.317-.491-1.816.32-.527,1.089-.071.513.634l.128.071c.748.043,1.054-.954.484-1.2A1.834,1.834,0,0,0,27.462,14.14Z" style="fill:#c2c2c2"/><path d="M17.95,12.338c-.52-.413-1.979.278-2.392,1.3a16.213,16.213,0,0,1-2.043,4.037c-.8.876-.876.2-.8-.306A15.327,15.327,0,0,1,14.7,12.652c-.235-.349-1.773-.3-2.841,1.36-.4.627-1.31,2.713-2.321,4.358-.221.356-.5.107-.285-.726a39.8,39.8,0,0,1,1.873-5.682,39.072,39.072,0,0,1,6.921-.819c.263-.071.441-.306,0-.32a46.778,46.778,0,0,0-6.593.441,4.923,4.923,0,0,1,1.445-1.944,1.787,1.787,0,0,0-2.264.719,12.287,12.287,0,0,0-.819,1.453,24.194,24.194,0,0,0-3.98.862c-.783.3-.7,1.246-.221,1.068a31.631,31.631,0,0,1,3.816-1.1,30.292,30.292,0,0,0-1.865,5.682c-.441,2.492,1.1,2.478,1.858,1.5.819-1.075,2.528-4.856,2.791-5.255.078-.135.185-.064.128.057-1.908,3.809-1.744,5.283-.2,4.956a4.929,4.929,0,0,0,2.214-1.965c.064-.15.2-.135.171-.071-1.21,3.14-2.748,5.682-3.781,6.479-.94.719-1.638-.84,1.687-3.076.491-.335.263-.79-.292-.634h0a29.793,29.793,0,0,0-8.786,3.325c-.164.114-.313.206-.306.441.007.135.242.085.356.014A22.771,22.771,0,0,1,11.1,20.9a.158.158,0,0,0,.114.007c.121-.028.114.036.036.085-.178.1-.356.192-.4.206-1.766.691-2.834,2.214-2.456,2.99.32.669,2.051.427,2.869-.014,2.008-1.089,3.468-3.225,4.464-6.173C16.6,15.386,17.693,12.424,17.95,12.338Z" style="fill:#c2c2c2"/><path d="M29.62,18.369a48.145,48.145,0,0,0-13.429.968c-.926.242-.669.733-.2.641.007,0,.206-.05.214-.05a42.279,42.279,0,0,1,12.375-.242C29.014,19.765,30.317,18.462,29.62,18.369Z" style="fill:#c2c2c2"/><path d="M18.861,17.985c.911-.456,2.264-3.275,3.154-4.82.064-.114.178-.021.114.057-2.25,3.873-1.3,4.322-.406,4.265,1.189-.071,2.286-1.78,2.528-2.165.1-.15.157-.028.1.078-.057.178-.263.491-.456.919-.271.605.014.84.249.947.37.178,1.381.064,1.538-.555-1.011-.021,1.41-4.792,1.659-5.084a1.718,1.718,0,0,0-2.2.975c-1.018,2.015-1.873,3.638-2.407,3.667-1.04.057,1.2-4.493,1.559-4.635-.221-.32-1.638-.185-2.428,1.04-.285.441-2.022,3.517-2.449,4.023-.755.9-.812.128-.6-.769a10.569,10.569,0,0,1,.349-1.132,5.324,5.324,0,0,1,1.36-1.844c2.2-2.442,3.46-4.422,2.962-5.2-.441-.691-1.915-.384-2.862,1.04-1.744,2.613-3.354,6.195-3.56,7.832S18.056,18.383,18.861,17.985Zm.926-4.792c.078-.178.128-.228.263-.527h0A24.934,24.934,0,0,1,22.492,8.28c.42-.441,1.011.157-.057,1.794a16.462,16.462,0,0,1-2.115,2.642v.007c-.2.221-.377.406-.456.513C19.808,13.307,19.744,13.292,19.787,13.193Z" style="fill:#c2c2c2"/></svg>