<svg xmlns="http://www.w3.org/2000/svg" viewBox="0 0 32 32"><title>file_type_vagrant</title><path d="M29.845,4.008C29.645,3.844,28.073,3,28.073,3L26.4,3.976h0L28.072,3,26.4,2V3.975L24.647,3s-1.431.836-2.125,1.237c-.874.5-3.018,1.781-3.018,1.781V7.9l-1.766,4.6V15l-1.24.724L16,17.015,12.528,8V6.019L5.6,2,2.14,4h0V6.04l2.158,5.2,1.311.772v2.37l5.2,12.628L16,29.983V30l5.189-3L29.863,6l-.019-1.991" style="fill:#3185b8"/><path d="M16.006,29.985l-5.2-2.976-5.2-12.628v-2.37l-1.311-.772L2.137,6.04V4L3.844,5V7L5.609,8.028V6.011l3.449,2,.166,1.975,5.013,13.013,3.484,2.029V29L16,27.992l0,1.993" style="fill:#3185b8"/><path d="M12.528,8,16,17.015,16,21.982l-1.762,1L9.224,9.967,9.058,8.006l3.471-1.987V8M3.844,5V7L5.61,6.011,3.844,5" style="fill:#61a5ce"/><path d="M5.609,8.029V6.011L3.844,7,5.609,8.029" style="fill:#eae9e6"/><path d="M16,21.982l1.738.994,1.935-4.858,1.49.887V14.349l.475-1.124,1.269.743V12l-1.727-1,1.737-1.008L21.206,9l0-2-1.7-.99V7.9l-1.766,4.6V15l-1.24.724L16,17.015,16,21.982" style="fill:#3185b8"/><path d="M15.973,24.016l1.748,1.008L17.713,29,21.192,27,29.863,6l-.019-1.991-5.2,3v4L22.9,12v1.968l-1.269-.743-.475,1.124V19l-2.414,1.42-1.011,2.561-1.762,1.039" style="fill:#61a5ce"/><path d="M9.047,10,10.791,8.99v2L9.047,10" style="fill:#eae9e6"/><path d="M10.791,10.994l1.729.977V10L10.791,8.99v2" style="fill:#3185b8"/><path d="M7.33,14.974v2.019l1.746-1L7.33,14.974" style="fill:#61a5ce"/><path d="M10.818,17l-1.752,1.02L7.33,16.993l1.746-1L10.818,17" style="fill:#eae9e6"/><path d="M10.795,23v2.036L12.55,24.02,10.795,23" style="fill:#61a5ce"/><path d="M14.241,26.988l1.768,1.028.006-2.068-1.774,1.04" style="fill:#eae9e6"/><path d="M16,30l.007-1.985,1.7.989L16,30" style="fill:#61a5ce"/><path d="M16,21.982l-1.762,1,1.738,1.031,1.762-1.039L16,21.982" style="fill:#eae9e6"/><path d="M24.647,11V7l-1.721-.98V8.016L21.206,9l3.441,2" style="fill:#3185b8"/><path d="M21.177,11l1.737-1.008L24.647,11,22.9,12l-1.727-1" style="fill:#eae9e6"/><path d="M21.206,9l1.72-.989V6.024L21.2,7l0,2" style="fill:#61a5ce"/><path d="M26.4,3.975V2l1.676,1L26.4,3.975" style="fill:#3185b8"/><path d="M29.845,4.008l-5.2,3-1.721-.98L21.2,7l-1.7-.99s2.144-1.277,3.018-1.781C23.217,3.832,24.647,3,24.647,3l1.75.979L28.073,3s1.571.843,1.771,1.007h0M12.529,6.019,9.058,8.006,2.14,4,5.6,2l6.928,4.019" style="fill:#eae9e6"/><path d="M28.1,6.958V5.014l-1.691.976,1.691.969M22.974,16l1.683-.965v1.936L22.974,16" style="fill:#3185b8"/><path d="M19.458,24v2.006l1.753-1.014L19.458,24" style="fill:#eae9e6"/><path d="M21.221,24.995,21.2,23l-1.742,1,1.764.992" style="fill:#3185b8"/></svg>