<svg xmlns="http://www.w3.org/2000/svg" xmlns:xlink="http://www.w3.org/1999/xlink" viewBox="0 0 32 32"><defs><filter id="a" name="softGlow"><feGaussianBlur result="blur" stdDeviation="4" in="SourceAlpha"/><feOffset result="offsetBlur" dx="0.1" dy="0.1" in="blur"/><feFlood result="offsetColor" flood-color="#C4C7CE"/><feComposite result="offsetBlur" operator="in" in="offsetColor" in2="offsetBlur"/></filter></defs><title>file_type_yeoman</title><g style="filter:url(#a)"><path d="M25.706,16.847,27.4,7.03S24.849,2,16.037,2C5.344,2,4.562,7.03,4.562,7.03l1.714,9.817Z"/></g><g style="filter:url(#a)"><polygon points="5.549 12.637 6.276 16.847 25.706 16.847 26.432 12.637 5.549 12.637 5.549 12.637"/></g><g style="filter:url(#a)"><polygon points="28.63 19.194 3.351 19.194 2.569 16.847 29.431 16.847 28.63 19.194"/></g><g style="filter:url(#a)"><circle cx="15.981" cy="13.997" r="3.13"/></g><path d="M15.981,16.735A2.738,2.738,0,1,1,18.72,14,2.743,2.743,0,0,1,15.981,16.735Zm0-5.123A2.384,2.384,0,1,0,18.366,14a2.377,2.377,0,0,0-2.384-2.384Zm0,4.359A1.975,1.975,0,1,1,17.956,14,1.976,1.976,0,0,1,15.981,15.972Zm0-3.707A1.714,1.714,0,1,0,17.7,13.978a1.709,1.709,0,0,0-1.714-1.714Zm.5,1.025.894-.652-.689.876,1.08-.279-.95.577,1.1.13-1.1.186,1.006.522-1.08-.224.727.838-.931-.6.373,1.043-.652-.894-.019,1.118-.279-1.08-.428,1.025.112-1.1-.764.8.5-.987-1.006.466.838-.745-1.118.075L15.143,14l-1.062-.335,1.118.019-.876-.689,1.025.41-.559-.95.8.764-.186-1.1.484,1.006.224-1.08.093,1.118.615-.931Z" style="filter:url(#a)"/><g style="filter:url(#a)"><path d="M15.981,22.983s1.937-2.31,6.483-1.174,6.874,6.762,6.874,6.762a9.244,9.244,0,0,1-6.352,1.341C19.111,29.41,15.963,25.275,15.981,22.983Z"/></g><g style="filter:url(#a)"><path d="M8.977,29.913a9.244,9.244,0,0,1-6.352-1.341S4.953,22.946,9.5,21.809s6.483,1.174,6.483,1.174C16,25.274,12.851,29.41,8.977,29.913Z"/></g><path d="M25.706,16.847,27.4,7.03S24.849,2,16.037,2C5.344,2,4.562,7.03,4.562,7.03l1.714,9.817Z" style="fill:#050505"/><path d="M5.549,12.637l.727,4.21h19.43l.727-4.21H5.549Z" style="fill:#dd002a"/><path d="M28.63,19.194H3.351l-.782-2.347H29.431Z" style="fill:#050505"/><circle cx="15.981" cy="13.997" r="3.13" style="fill:#050505"/><path d="M15.981,16.735A2.738,2.738,0,1,1,18.72,14,2.743,2.743,0,0,1,15.981,16.735Zm0-5.123A2.384,2.384,0,1,0,18.366,14a2.377,2.377,0,0,0-2.384-2.384Zm0,4.359A1.975,1.975,0,1,1,17.956,14,1.976,1.976,0,0,1,15.981,15.972Zm0-3.707A1.714,1.714,0,1,0,17.7,13.978a1.709,1.709,0,0,0-1.714-1.714Zm.5,1.025.894-.652-.689.876,1.08-.279-.95.577,1.1.13-1.1.186,1.006.522-1.08-.224.727.838-.931-.6.373,1.043-.652-.894-.019,1.118-.279-1.08-.428,1.025.112-1.1-.764.8.5-.987-1.006.466.838-.745-1.118.075L15.143,14l-1.062-.335,1.118.019-.876-.689,1.025.41-.559-.95.8.764-.186-1.1.484,1.006.224-1.08.093,1.118.615-.931Z" style="fill:#dd002a"/><path d="M15.981,22.983s1.937-2.31,6.483-1.174,6.874,6.762,6.874,6.762a9.244,9.244,0,0,1-6.352,1.341C19.111,29.41,15.963,25.275,15.981,22.983Z" style="fill:#4f1907"/><path d="M8.977,29.913a9.244,9.244,0,0,1-6.352-1.341S4.953,22.946,9.5,21.809s6.483,1.174,6.483,1.174C16,25.274,12.851,29.41,8.977,29.913Z" style="fill:#4f1907"/></svg>