<svg xmlns="http://www.w3.org/2000/svg" viewBox="0 0 32 32"><title>file_type_nsi</title><path d="M27.435,16.037,22.012,21.46l5.423,5.423" style="fill:#00577b"/><path d="M26.884,15.5H16.048l5.423,5.423" style="fill:#0079aa"/><path d="M26.884,14.712,21.461,9.289l-5.423,5.423" style="fill:#0096d3"/><path d="M20.528,9.131H9.683l5.423,5.423M27.435,3.325,22.012,8.748l5.423,5.423" style="fill:#01b0f0"/><path d="M20.528,8.356,15.105,2.933,9.683,8.356" style="fill:#27bcf3"/><path d="M14.172,2.775H3.327L8.749,8.2" style="fill:#4fc9f5"/><path d="M4.568,15.963,9.991,10.54,4.568,5.117" style="fill:#79201b"/><path d="M10.541,11.091,5.119,16.513H15.964" style="fill:#a42d26"/><path d="M5.119,17.288l5.423,5.423,5.423-5.423" style="fill:#cc382f"/><path d="M4.568,17.829V28.675l5.423-5.423L8.4,21.665m13.916,1.2L16.9,17.447l-5.423,5.423" style="fill:#f0453f"/><path d="M11.475,23.644,16.9,29.067l5.423-5.423" style="fill:#f2625d"/><path d="M17.84,29.225H28.685L23.263,23.8" style="fill:#f47f7d"/><path d="M29.889,29.337l-1.68-1.68V2.392a.374.374,0,0,0-.243-.355A.263.263,0,0,0,27.827,2a.359.359,0,0,0-.271.112L21.471,8.2,15.385,2.112,15.3,2.037h-.037A.307.307,0,0,0,15.105,2H2.4a.434.434,0,0,0-.289.112A.38.38,0,0,0,2,2.392a.359.359,0,0,0,.112.271l1.68,1.68V29.617a.374.374,0,0,0,.243.355A.387.387,0,0,0,4.185,30a.359.359,0,0,0,.271-.112L10.541,23.8l6.085,6.085.084.075h.037A.254.254,0,0,0,16.9,30H29.609a.395.395,0,0,0,.28-.663ZM27.435,3.325V14.171L22.012,8.748l5.423-5.423ZM9.991,10.54,4.568,15.963V5.117L9.991,10.54ZM9.683,9.131H20.528l-5.423,5.423L9.683,9.131Zm.859,1.96,5.423,5.423H5.119l5.423-5.423ZM16.9,17.447l5.423,5.423H11.475L16.9,17.447ZM16.048,15.5H26.893l-5.423,5.423L16.048,15.5Zm5.964,5.964,5.423-5.423V26.883L22.012,21.46Zm4.872-6.748H16.048l5.423-5.423,5.413,5.423ZM20.528,8.356H9.683l5.423-5.423,5.423,5.423ZM3.327,2.775H14.172L8.749,8.2Zm1.241,25.9V17.829L8.4,21.665l1.587,1.587L4.568,28.675Zm.551-11.387H15.964l-5.423,5.423L5.119,17.288ZM16.9,29.067l-5.423-5.423H22.32L16.9,29.067Zm.943.159L23.263,23.8l5.423,5.423Z" style="fill:#464049"/></svg>