<svg xmlns="http://www.w3.org/2000/svg" viewBox="0 0 32 32"><title>file_type_crowdin</title><path d="M30,8.348S10.842,6.268,8.935,14.763C6.161,27.073,18.211,24.3,18.211,24.3S1.827,31.321,3.56,15.023C4.774,3.927,26.359,6.615,30,8.348Z" style="fill:#30660f"/><path d="M28.353,12.769s-8.669-.087-9.189,3.641c-.78,5.461,4.508,3.728,4.508,3.728s-7.108,3.728-6.935-3.381c.087-4.854,9.882-4.594,11.616-3.988Z" style="fill:#30660f"/><path d="M28.526,10.516s-13.09-.173-13.957,5.548C13.443,24.3,21.418,21.7,21.418,21.7s-10.663,5.635-10.489-5.2c.173-7.282,15-6.848,17.6-5.981Z" style="fill:#30660f"/><path d="M23.672,20.225s-6.935,3.641-7.542-2.6c.867.087,1.647.26,2.427.26.347,4.508,5.115,2.341,5.115,2.341Z" style="fill:#b8cc1c"/><path d="M18.731,15.717c-.087.26-.173.78-.26,1.04-1.474-.173-.867,0-2.427-.26,0-.087.087-.607.087-.693.867-4.421,10.576-3.554,12.136-2.947.087-.087-8.582-.78-9.536,2.861Z" style="fill:#b8cc1c"/><path d="M21.418,21.785S10.929,27.333,10.062,17.8a28.539,28.539,0,0,0,3.641.347c.52,6.935,7.715,3.641,7.715,3.641Z" style="fill:#b8cc1c"/><path d="M14.05,15.023c-.087.347-.26,1.214-.347,1.474-2.254-.26-2.08-.173-3.728-.433,0-.173.087-.954.087-1.127,1.3-6.675,16.037-5.375,18.464-4.421,0,0-13.09-1.04-14.477,4.508Z" style="fill:#b8cc1c"/><path d="M18.037,24.3S2,31.147,2,16.757A29.975,29.975,0,0,0,7.288,17.8C7.2,28.286,18.037,24.3,18.037,24.3Z" style="fill:#b8cc1c"/><path d="M8.241,13.029a22.386,22.386,0,0,0-.693,2.254c-3.207-.693-2.427-.433-5.375-1.127.087-.26.26-1.474.347-1.647C5.294,2.627,26.619,6.615,30,8.348c0,0-18.9-3.467-21.759,4.681Z" style="fill:#b8cc1c"/></svg>