<svg xmlns="http://www.w3.org/2000/svg" viewBox="0 0 32 32"><title>file_type_light_testjs</title><path d="M26.4,24.383c-2.306-.538-3.109-3.31-1.771-6.111a11.927,11.927,0,0,1,2.956-3.706L28,14.221l.012.475a8.972,8.972,0,0,0,1,3.233,18.789,18.789,0,0,1,.833,2.175,4.255,4.255,0,0,1-.1,2.611,3.561,3.561,0,0,1-1.488,1.45A3.726,3.726,0,0,1,26.4,24.383Zm.468-4.753c.166-.191.207-.443.218-1.335l.014-1.1-.269.211a2.238,2.238,0,0,0-.846,1.867c.093.285.382.6.548.594A.686.686,0,0,0,26.869,19.631Z" style="fill:#fbc02d"/><path d="M6.165,29.08A5.136,5.136,0,0,1,2.124,23c.339-1.427.269-1.344,7.635-9.049L16.7,6.691l.984.938.984.938-4,4.176-4,4.176,3.345-.072,3.345-.072,2.364-2.466,2.364-2.466.98.943.98.943-6.951,7.24c-6.377,6.642-7.009,7.269-7.657,7.59a5.185,5.185,0,0,1-3.27.524Zm19.55-16.646c-.183-.11-2.061-1.862-4.173-3.895L17.7,4.844l-.012-.561a1.15,1.15,0,0,1,.259-.9,1.32,1.32,0,0,1,1.385-.494,91.788,91.788,0,0,1,8.37,8.031,1.339,1.339,0,0,1-1.99,1.511Z" style="fill:#fbc02d"/><path d="M4.1,23.621c-.353,2.277.959,3.823,3.439,3.486.255-.268,3.21-3.353,9.849-10.316-3.34.072-3.3-.074-6.641,0C4.066,23.717,3.933,23.667,4.1,23.621Z" style="fill:#fbc02d"/><path d="M23.4,26.737a3.106,3.106,0,0,0,2.813,1.732c1.182,0,1.936-.591,1.936-1.407,0-.978-.776-1.324-2.076-1.893l-.713-.306c-2.058-.877-3.425-1.975-3.425-4.3,0-2.139,1.63-3.767,4.176-3.767a4.215,4.215,0,0,1,4.056,2.283l-2.221,1.426a1.939,1.939,0,0,0-1.835-1.222,1.241,1.241,0,0,0-1.365,1.222c0,.856.53,1.2,1.753,1.732l.713.305c2.423,1.039,3.791,2.1,3.791,4.48C31,29.594,28.983,31,26.274,31a5.479,5.479,0,0,1-5.2-2.916Zm-10.074.247c.448.795.856,1.467,1.835,1.467.937,0,1.528-.367,1.528-1.792v-9.7h2.852V26.7c0,2.953-1.731,4.3-4.258,4.3A4.427,4.427,0,0,1,11,28.39Z" style="fill:#fbc02d;stroke:#000;stroke-miterlimit:10;stroke-width:0.5px"/></svg>