<svg version="1.1" viewBox="0 0 32 32" xml:space="preserve" xmlns="http://www.w3.org/2000/svg"><title>file_type_csproj</title><g transform="matrix(1.1549 0 0 1.1549 6.6699 14.758)"><path d="m0.41 9.37-4.01-3.01a1 1 0 0 1-0.4-0.8v-9.04a1 1 0 0 1 0.4-0.8l4.01-3.01a0.9 0.9 0 0 0-0.27 0.8v15.06a0.91 0.91 0 0 0 0.27 0.8z" fill="#5e438f"/><path d="m19.64-6.82a1 1 0 0 0-1.25 0.11l-0.07 0.07-16.54 15.86-0.07 0.07a1 1 0 0 1-1.3 0.08l-4.01-3.01a1 1 0 0 0 1.36-0.15c4.85-5.61 9.68-11.24 14.52-16.86 0.2-0.23 0.47-0.35 0.77-0.35 0.2 0 0.39 0.05 0.55 0.16z" fill="#7252aa"/><path d="m19.65 8.9-6.03 4.02c-0.42 0.28-0.99 0.2-1.32-0.18l-14.53-16.87a1 1 0 0 0-1.37-0.15l4.02-3.01a1 1 0 0 1 0.6-0.2c0.26 0 0.51 0.1 0.7 0.28l0.06 0.07 16.54 15.86 0.07 0.07a1 1 0 0 0 1.25 0.11z" fill="#ae7fe2"/><path d="m20.09-5.99v14.05a1 1 0 0 1-0.45 0.84l-6.02 4.02a1 1 0 0 0 0.44-0.84v-22.08a1.02 1.02 0 0 0-0.46-0.84l6.04 4.02a1.01 1.01 0 0 1 0.45 0.83z" fill="#d59dff"/></g><polygon points="30.089 28.175 21.345 28.174 21.345 26.259 19.43 26.257 19.43 17.516 21.344 17.517 21.342 15.604 30.087 15.604 30.087 17.519 32.001 17.519 31.999 21.346 32 21.346 32 26.261 30.088 26.261" fill="#efeef0"/><path d="M15.527,32A7.159,7.159,0,0,1,10,29.758a8.1,8.1,0,0,1-2-5.683,8.56,8.56,0,0,1,2.213-6.063A7.608,7.608,0,0,1,16,15.6a9.836,9.836,0,0,1,3.558.581l.956.372v6.56l-2.3-1.458a3.6,3.6,0,0,0-1.989-.544,2.117,2.117,0,0,0-1.672.662,2.957,2.957,0,0,0-.658,2.091,2.877,2.877,0,0,0,.615,2,1.9,1.9,0,0,0,1.562.614,3.968,3.968,0,0,0,2.153-.6l2.292-1.426v6.28l-.815.419A9.144,9.144,0,0,1,15.527,32Z" fill="#efeef0"/><path d="m22.844 17.1h1.915v1.915h1.914v-1.915h1.914v1.915h1.913v1.914h-1.913v1.913h1.913v1.918h-1.913v1.914h-1.914v-1.912h-1.912v1.914h-1.916v-1.915h-1.915v-1.917h1.915v-1.909h-1.915v-1.918h1.915zm1.915 5.744h1.914v-1.912h-1.914z" fill="#368832"/><path d="M19.017,29.81a7.65,7.65,0,0,1-3.49.686,5.7,5.7,0,0,1-4.417-1.752A6.629,6.629,0,0,1,9.5,24.076a7.077,7.077,0,0,1,1.809-5.039A6.136,6.136,0,0,1,16,17.1a8.329,8.329,0,0,1,3.013.479v2.809a5.108,5.108,0,0,0-2.792-.777,3.6,3.6,0,0,0-2.775,1.147,4.409,4.409,0,0,0-1.055,3.107,4.331,4.331,0,0,0,1,2.994,3.413,3.413,0,0,0,2.681,1.115,5.466,5.466,0,0,0,2.945-.831Z" fill="#368832"/></svg>
