<svg xmlns="http://www.w3.org/2000/svg" viewBox="0 0 32 32"><title>file_type_light_rubocop</title><path d="M27.05,13.9V13a1.793,1.793,0,0,0-1.8-1.8H6.65A1.793,1.793,0,0,0,4.85,13v.9a1.525,1.525,0,0,0-.7,1.2v2.4a1.387,1.387,0,0,0,.7,1.2v.9a1.793,1.793,0,0,0,1.8,1.8h18.7a1.793,1.793,0,0,0,1.8-1.8v-.9a1.525,1.525,0,0,0,.7-1.2V15.1A1.742,1.742,0,0,0,27.05,13.9Z"/><path d="M15.95,2a9.925,9.925,0,0,0-9.8,8.6h19.6A9.925,9.925,0,0,0,15.95,2Z"/><polygon points="13.05 24 18.85 24 19.45 24.7 20.35 24 19.45 22.9 12.45 22.9 11.55 24 12.45 24.7 13.05 24"/><path d="M23.55,17.6H8.35a1.3,1.3,0,1,1,0-2.6h15.3a1.324,1.324,0,0,1,1.3,1.3A1.493,1.493,0,0,1,23.55,17.6Z" style="fill:#ec1c24"/><path d="M23.05,22v3.8a1.967,1.967,0,0,1-1.9,1.9h-1a.864.864,0,0,1-.6-.3l-1.2-1.6a.6.6,0,0,0-.6-.3h-3.6a.764.764,0,0,0-.5.2l-1.3,1.6a.6.6,0,0,1-.6.3h-1a1.967,1.967,0,0,1-1.9-1.9V22H6.55v3.8a4.225,4.225,0,0,0,4.2,4.2h10.4a4.225,4.225,0,0,0,4.2-4.2V22Z"/></svg>