<svg xmlns="http://www.w3.org/2000/svg" viewBox="0 0 32 32"><title>file_type_ipkg</title><path d="M10.376,6.2c3.6,1.1,4.5,2,5.8,5.2C15.876,7.4,14.276,5.8,10.376,6.2Z" style="fill:#8a0819"/><path d="M5.376,12.4c2.3.7,5,1.3,6,5.7C11.776,12.6,9.176,12.3,5.376,12.4Z" style="fill:#8a0819"/><path d="M6.976,8.8c3.5.7,5.7,1.7,7,6.2C14.276,9.2,11.076,8.6,6.976,8.8Z" style="fill:#8a0819"/><path d="M11.576,2c19.1,12.4-4.2,12.7.8,27.1l3,.9C7.076,18.8,33.776,13,11.576,2Z" style="fill:#8a0819"/><path d="M21.457,30.638c-.1-.06-4.44-2.123-5.231-2.488l-.441-.2V21.4l.189-.077c.1-.042.45-.2.769-.34,1.66-.752,4.219-1.9,4.649-2.093l.489-.215,1.326.6,3.872,1.755.681.309.013,3.278.013,3.278-.87.39c-1.24.555-1.922.862-3.693,1.662-.86.388-1.586.714-1.613.725a.236.236,0,0,1-.151-.039Zm.227-3.533v-3.1l-.618-.277-2.181-.982c-1.592-.718-2.546-1.14-2.579-1.14-.01,0-.018,1.37-.018,3.044V27.7l2.66,1.249c1.463.687,2.677,1.251,2.7,1.253S21.684,28.808,21.684,27.1Zm3.132,1.685,2.489-1.158.013-3.037c.008-1.854-.005-3.037-.034-3.037s-.4.169-.832.376l-.785.376,0,1.424,0,1.424-.767.406-.767.406-.013-1.437c-.007-.79-.024-1.437-.037-1.437s-.444.206-.957.459l-.933.459v2.992a14.661,14.661,0,0,0,.069,2.966c.038-.014,1.19-.547,2.559-1.184Zm-2.042-5.571.9-.427-.252-.127c-.214-.108-2.206-1.038-3.3-1.541l-.82-.377-.492-.226-.944.416a9.179,9.179,0,0,0-.957.457,6.344,6.344,0,0,0,.931.46c2.58,1.144,3.293,1.462,3.617,1.616.194.092.367.169.384.171S22.279,23.453,22.774,23.218ZM26.1,21.654c.544-.253.633-.31.555-.353s-2.106-.96-2.957-1.335c-.236-.1-.744-.332-1.13-.507l-.7-.318-.684.31a5.176,5.176,0,0,0-.7.352,7.3,7.3,0,0,0,1.007.484c1.552.673,2.262.982,3.063,1.337a7.7,7.7,0,0,0,.814.328A4.764,4.764,0,0,0,26.1,21.654Z" style="fill:#8a0819"/></svg>