<svg xmlns="http://www.w3.org/2000/svg" viewBox="0 0 32 32"><path fill="#00DC82" d="M17.7082 25H28.117c.3306 0 .6554-.0877.9417-.2545.2864-.1668.5241-.4067.6893-.6956.1652-.2888.2521-.6165.252-.95-.0001-.3335-.0873-.6611-.2528-.9498L22.7569 9.9358c-.1652-.2888-.4029-.52863-.6891-.69538-.2863-.16674-.611-.25453-.9415-.25453-.3306 0-.6553.08779-.9415.25453-.2863.16675-.524.40658-.6892.69538l-1.7874 3.1252-3.4946-6.11123c-.1653-.28878-.4031-.52857-.6894-.69529C13.2378 6.08777 12.9131 6 12.5825 6s-.6554.08777-.9417.25448c-.2864.16672-.5241.40651-.6895.69529L2.25282 22.1501c-.16548.2887-.25268.6163-.25282.9498-.00014.3335.08677.6612.252.95.16524.2889.40296.5288.68927.6956.2863.1668.61109.2545.9417.2545h6.53373c2.5888 0 4.4979-1.1471 5.8116-3.3852l3.1892-5.5719 1.7083-2.9819 5.1268 8.957h-6.8351L17.7082 25Zm-7.398-2.985-4.55972-.0011 6.83502-11.942 3.4104 5.971-2.2834 3.9909c-.8724 1.4521-1.8634 1.9812-3.4023 1.9812Z"/></svg>