<svg xmlns="http://www.w3.org/2000/svg" xmlns:xlink="http://www.w3.org/1999/xlink" viewBox="0 0 32 32"><defs><radialGradient id="a" cx="26.508" cy="-543.31" r="12.833" gradientTransform="matrix(1.293, 0.001, 0.001, -1.234, -20.084, -658.573)" gradientUnits="userSpaceOnUse"><stop offset="0" stop-color="#576e71" stop-opacity="0.98"/><stop offset="1" stop-color="#26424e"/></radialGradient></defs><title>file_type_cfc</title><rect x="3.167" y="3.517" width="25.667" height="24.967" style="fill:url(#a)"/><path d="M2,2.35v27.3H30V2.35ZM3.167,3.517H28.834V28.483H3.167ZM13.836,21.066a.194.194,0,0,1-.135.212,6.028,6.028,0,0,1-2.125.288c-3,0-5.653-1.961-5.653-6.576,0-3.961,2.346-6.615,5.922-6.615a5.234,5.234,0,0,1,1.991.269c.1.038.115.1.115.212V10.51c0,.154-.077.154-.135.135a4.529,4.529,0,0,0-1.953-.365c-2.25,0-3.75,1.711-3.75,4.653,0,3.634,2.057,4.711,3.75,4.711a5.239,5.239,0,0,0,1.836-.25c.077-.038.135-.038.135.1v1.577Zm.746-6.975c-.077,0-.076-.038-.076-.135V12.371c0-.1.019-.115.1-.115h1.069v-.6a3.946,3.946,0,0,1,.385-1.842,2.521,2.521,0,0,1,2.481-1.423,2.126,2.126,0,0,1,.777.1.15.15,0,0,1,.115.173V10.2c0,.1-.038.135-.135.115a2.45,2.45,0,0,0-.526-.058c-.673,0-1,.481-1,1.4v.593H19.3c.1,0,.133.019.133.1v1.6c0,.1-.019.115-.115.135H17.77v7.183c0,.077-.019.129-.135.129H15.806a.121.121,0,0,1-.135-.135V14.091H14.583Zm11.5,6.881A.169.169,0,0,1,26,21.14a4.416,4.416,0,0,1-2.066.247c-2.654,0-4.012-2.1-4.012-4.731,0-2.758,1.782-4.806,4.338-4.806a4.085,4.085,0,0,1,1.7.227c.065.037.081.075.081.186l-.016,1.509c0,.112-.049.13-.114.093a3.352,3.352,0,0,0-1.521-.227c-1.465,0-2.393,1.209-2.393,2.961,0,2.068,1.14,2.942,2.344,2.942a3.943,3.943,0,0,0,1.626-.173c.081-.019.114.019.114.093v1.509" style="fill:#e5f3fc"/></svg>