<svg xmlns="http://www.w3.org/2000/svg" xmlns:xlink="http://www.w3.org/1999/xlink" viewBox="0 0 32 32"><defs><radialGradient id="a" cx="767.179" cy="5169.543" r="14.989" gradientTransform="translate(-718.112 -4953.917) scale(0.955 0.962)" gradientUnits="userSpaceOnUse"><stop offset="0" stop-color="#36bac0"/><stop offset="1" stop-color="#2d9094"/></radialGradient></defs><title>file_type_arduino</title><path d="M29.645,15.925A13.77,13.77,0,1,1,15.876,2.056,13.819,13.819,0,0,1,29.645,15.925Z" style="stroke:#02797e;stroke-linejoin:round;stroke-width:1.1367228454969267px;fill:url(#a)"/><path d="M10.581,11.648c2.41-.076,3.359.834,4.605,2.069.285.282.579.59.9.921l.922-.991a6.223,6.223,0,0,1,3.256-1.93c1.939-.211,3.119-.122,4.311.814a5.023,5.023,0,0,1,2.245,3.9,5.653,5.653,0,0,1-3.25,5.156,5.975,5.975,0,0,1-3.913.135,7.656,7.656,0,0,1-3.541-2.987c-1.678,2.142-3.187,3.253-5.235,3.155-7.452-.354-6.842-10.075-.3-10.247Zm1.657,7.994a9.193,9.193,0,0,0,2.856-2.9c-.74-1.243-2.209-2.824-3.455-3.134a4.328,4.328,0,0,0-3.224.777,3.384,3.384,0,0,0-.762,3.686,3.674,3.674,0,0,0,4.585,1.57Zm-2.98-3.487,3.278.005v1.21l-3.283.005Zm13.448,3.6A3.843,3.843,0,0,0,24.937,17a3.458,3.458,0,0,0-1.863-3.109,3.648,3.648,0,0,0-4.2.728,7.364,7.364,0,0,0-1.649,2.151A8.936,8.936,0,0,0,19.2,19.252,4.022,4.022,0,0,0,22.706,19.754Zm-1.955-2.376-1.088-.008,0-1.217,1.091,0V15.075l1.107-.008-.007,1.093,1.085,0v1.165l-1.021-.008v1.12H20.753Z" style="stroke:#000;stroke-width:0.12103096480927482px;opacity:0.1680999994277954;isolation:isolate"/><path d="M4.917,16.337c0,5.348,7.354,7.34,10.987,1.894,3.765,5.647,10.824,3.28,10.824-1.9S19.7,8.656,15.9,14.441c-3.6-5.719-10.987-3.453-10.987,1.9Zm1.931,0c0-3.86,5.455-5.078,7.992,0-2.588,4.889-7.992,3.859-7.992,0Zm10.119,0c2.286-5.178,7.889-3.751,7.872.008S19.186,21.277,16.967,16.337Z" style="fill:#fff;stroke:#000;stroke-width:0.24206192961854964px"/><rect x="8.898" y="15.795" width="3.237" height="1.067" style="fill:#fff"/><polygon points="20.644 16.846 19.576 16.846 19.576 15.712 20.644 15.712 20.644 14.644 21.779 14.644 21.779 15.712 22.847 15.712 22.847 16.846 21.779 16.846 21.779 17.914 20.644 17.914 20.644 16.846" style="fill:#fff"/></svg>