<svg xmlns="http://www.w3.org/2000/svg" viewBox="0 0 32 32"><g id="LOGO"><path fill="#E24329" d="M29.5,13.2l0-0.1l-3.8-9.9c-0.1-0.2-0.2-0.4-0.4-0.5c-0.4-0.2-0.8-0.2-1.2,0.1C24,2.9,23.8,3,23.8,3.2l-2.6,7.9H10.8L8.2,3.2C8.2,3,8,2.9,7.9,2.7C7.5,2.5,7.1,2.4,6.7,2.7C6.5,2.8,6.4,2.9,6.3,3.1l-3.8,9.9l0,0.1c-1.1,2.9-0.2,6.3,2.3,8.2l0,0l0,0l5.8,4.3l2.9,2.2l1.7,1.3c0.4,0.3,1,0.3,1.4,0l1.7-1.3l2.9-2.2l5.8-4.4l0,0C29.7,19.5,30.7,16.1,29.5,13.2z"/><path fill="#FC6D26" d="M29.5,13.2l0-0.1c-1.9,0.4-3.6,1.2-5.1,2.3L16,21.7c2.9,2.2,5.3,4,5.3,4l5.8-4.4l0,0C29.7,19.5,30.7,16.1,29.5,13.2z"/><path fill="#FCA326" d="M10.7,25.8l2.9,2.2l1.7,1.3c0.4,0.3,1,0.3,1.4,0l1.7-1.3l2.9-2.2c0,0-2.5-1.9-5.3-4C13.1,23.9,10.7,25.8,10.7,25.8z"/><path fill="#FC6D26" d="M7.6,15.4c-1.5-1.1-3.3-1.9-5.1-2.3l0,0.1c-1.1,2.9-0.2,6.3,2.3,8.2l0,0l0,0l5.8,4.3c0,0,2.5-1.9,5.3-4L7.6,15.4z"/></g></svg>
