<svg xmlns="http://www.w3.org/2000/svg" viewBox="0 0 32 32"><title>file_type_squirrel</title><path d="M12.966,27.3a18.926,18.926,0,0,1-5.707-.915c-1.832-.592-4.044-1.54-4.931-3.645a.557.557,0,0,1-.025-.073,12.214,12.214,0,0,1,.763-7.531c1.522-4.008,3.71-6.739,6.5-8.116a10.422,10.422,0,0,1,7.6-.55,10.426,10.426,0,0,1,6.04,4.639,11.057,11.057,0,0,1,1.058,2.326,10.66,10.66,0,0,1-5.378,12.689l-.02.009A14.832,14.832,0,0,1,12.966,27.3Z"/><path d="M22.72,11.393a10.144,10.144,0,0,0-12.9-3.869C6.7,9.061,4.784,12.2,3.593,15.334a11.9,11.9,0,0,0-.746,7.187c.783,1.86,2.779,2.744,4.582,3.327a16.206,16.206,0,0,0,11.213-.232A10.11,10.11,0,0,0,23.727,13.6,10.488,10.488,0,0,0,22.72,11.393Z" style="fill:#a05a2c"/><path d="M15.782,6.72A8.263,8.263,0,0,1,17.64,8.084,9.65,9.65,0,0,1,19.08,9.8a9.317,9.317,0,0,1-1.531,11.921A14.933,14.933,0,0,1,7.656,24.7a7.581,7.581,0,0,1-4.135-1.1,8.454,8.454,0,0,0,3.907,2.241,16.208,16.208,0,0,0,11.214-.233A10.112,10.112,0,0,0,23.727,13.6a10.487,10.487,0,0,0-1.007-2.211A9.973,9.973,0,0,0,15.782,6.72Z" style="fill-opacity:0.3137255012989044"/><path d="M23.476,13.389l-1.062-2.895.152-.236A6.875,6.875,0,0,1,27.509,7.7a2.177,2.177,0,0,1,1.879.588,3.376,3.376,0,0,1,.1,3.729c-.343.292-.751.124-1.222-.07a2.821,2.821,0,0,0-2.133-.27,10.2,10.2,0,0,0-2.047,1.209Z"/><path d="M23.039,10.563c1.223-1.9,5.107-2.915,5.912-1.923a2.97,2.97,0,0,1,.177,2.945c-.245.207-1.837-1.059-3.225-.423A10.574,10.574,0,0,0,23.73,12.45Z" style="fill:#502d16"/><path d="M29.4,9.727a.8.8,0,0,1-.2.469c-.229.162-1.9-.506-3.238.056a12.439,12.439,0,0,0-2.071,1.07L23.2,10.34c-.057.074-.116.147-.165.223l.692,1.886A10.577,10.577,0,0,1,25.9,11.162c1.388-.636,2.98.631,3.225.423A2.846,2.846,0,0,0,29.4,9.727Z" style="fill-opacity:0.3137255012989044"/><path d="M21.382,25.18a2.236,2.236,0,0,1-1.147-.323.563.563,0,0,1-.082-.888c.737-.684.607-2.173-.41-4.689a36.526,36.526,0,0,0-5.123-8.825l-.35-.43c-1.512-1.865-2.358-2.815-3.554-2.3a.562.562,0,0,1-.413.016.571.571,0,0,1-.377-.592,2.119,2.119,0,0,1,1.461-2c4.716-1.481,10.26.814,12.905,5.344a11.2,11.2,0,0,1-1.431,13.991A1.919,1.919,0,0,1,21.382,25.18Z"/><path d="M23.812,10.783c-2.444-4.192-7.73-6.528-12.27-5.093-1.007.248-1.065,1.535-1.052,1.517,1.776-.767,2.953.919,4.566,2.89a36.9,36.9,0,0,1,5.209,8.971c.89,2.2,1.4,4.267.27,5.312a1.5,1.5,0,0,0,1.909-.274A10.646,10.646,0,0,0,23.812,10.783Z" style="fill:#502d16"/><path d="M23.649,10.346a9.314,9.314,0,0,1-2.518,7.725c-.455.486-.873.177-1.263.063.138.313.271.626.4.936.89,2.2,1.4,4.266.271,5.312a1.5,1.5,0,0,0,1.909-.274C26.089,20.183,26.357,14.919,23.649,10.346Z" style="fill-opacity:0.3137255012989044"/></svg>