<svg xmlns="http://www.w3.org/2000/svg" viewBox="0 0 32 32"><title>file_type_vb</title><path d="M6.67,7.836,9,18.915,11.336,7.836H16L11.336,24.164H6.672L2,7.836Z" style="fill:#00519a"/><path d="M18.331,7.836h7.6a4.08,4.08,0,0,1,2.9,1.749,3.78,3.78,0,0,1,.571,2.04,3.985,3.985,0,0,1-.571,2.034,4.108,4.108,0,0,1-2.341,1.763,4.1,4.1,0,0,1,2.929,1.756,3.8,3.8,0,0,1,.58,2.1,4.663,4.663,0,0,1-.579,2.546,5.047,5.047,0,0,1-3.5,2.338H18.331ZM23,14.252h1.166a1.754,1.754,0,0,0,0-3.5H23Zm0,7H24.39a2.047,2.047,0,0,0,0-4.089H23Z" style="fill:#00519a"/></svg>