<svg xmlns="http://www.w3.org/2000/svg" viewBox="0 0 32 32"><title>file_type_light_pcl</title><path d="M14.57,7.7a6.255,6.255,0,0,1,4.079.428,5.312,5.312,0,0,1,2.039,1.695,6.171,6.171,0,0,1,4.384.664,4.9,4.9,0,0,1,2.156,2.487,4.378,4.378,0,0,1,.144,2.58,4.994,4.994,0,0,1,2.22,2.262,4.316,4.316,0,0,1,.049,3.551,5.049,5.049,0,0,1-2.264,2.38,6.079,6.079,0,0,1-2.785.708H8.51a11.118,11.118,0,0,1-2.221-.116,5.657,5.657,0,0,1-3.147-1.756,4.459,4.459,0,0,1-1.12-2.523,4.4,4.4,0,0,1,1.3-3.538,5.359,5.359,0,0,1,1.308-.973,4.331,4.331,0,0,1,.353-3.042A5.183,5.183,0,0,1,7.9,10.039a6.335,6.335,0,0,1,3.423-.215A5.463,5.463,0,0,1,14.57,7.7M12.694,9.967a4.677,4.677,0,0,0-.842,1.186,5.729,5.729,0,0,0-1.813-.331,4.673,4.673,0,0,0-3.508,1.434,3.268,3.268,0,0,0-.893,2.4,4.5,4.5,0,0,0,.425,1.508,5.643,5.643,0,0,0-1.644.9A3.391,3.391,0,0,0,3.14,19.64a3.307,3.307,0,0,0,1.008,2.352,4.7,4.7,0,0,0,3.466,1.323q8.56,0,17.119,0a4.721,4.721,0,0,0,2.976-1.176,3.452,3.452,0,0,0,1.139-2.145,3.272,3.272,0,0,0-.909-2.6,5.134,5.134,0,0,0-2-1.238,6.428,6.428,0,0,0,.371-1.085,3.119,3.119,0,0,0-.4-2.226,4.281,4.281,0,0,0-2.69-1.886,5.418,5.418,0,0,0-3.071.189c-.153-.25-.286-.514-.463-.748a4.255,4.255,0,0,0-1.776-1.348A4.906,4.906,0,0,0,12.694,9.967Z" style="fill:#93ba65"/><path d="M15.4,14.908a2.1,2.1,0,0,1,1.477.107,2.059,2.059,0,1,1-1.477-.107Z" style="fill:#4e4e4b"/></svg>