<svg xmlns="http://www.w3.org/2000/svg" viewBox="0 0 32 32"><title>file_type_saltstack</title><path d="M17.25,11.04V6.653l6.406,3.241v6.343l-2.548-1.229V13.013L17.25,11.04" style="fill:#4396b9"/><path d="M25.722,15.2l1.66.849-6.258,3.129-.016-4.175,2.548,1.229L25.722,15.2" style="fill:#b8dde8"/><path d="M17.25,8.407,14.638,9.7,17.25,11.04V8.407" style="fill:#75bed5"/><path d="M14.764,22.4l-.053-6.32L8.356,12.912,2,9.774v6.412H2l.061,6.21,6.146,3.073.184.092.013.006,6.359,3.172V22.4h0" style="fill:#4396b9"/><path d="M27.382,16.053,21.108,19.19V13.013l-6.4,3.062.055,6.453v6.21l6.343-3.172v-.035L27.382,22.4V16.052" style="fill:#75bed5"/><path d="M30,13.065l-6.343,3.171V9.893L30,6.721v6.343" style="fill:#75bed5"/><path d="M17.25,6.653l6.406,3.241L30,6.721,23.53,3.412,19.158,5.668l-4.7-2.407L8.075,6.582,2,9.774l6.356,3.139,6.355,3.163,6.4-3.062L14.638,9.7l-.083.043-.016-.008.1-.035,2.612-1.3V6.653" style="fill:#b8dde8"/></svg>