<svg xmlns="http://www.w3.org/2000/svg" viewBox="0 0 32 32"><title>file_type_patch</title><path d="M28.142,6.332c-1.49-1.774-3.208-2.76-4-2.342a.272.272,0,0,1-.058.18.275.275,0,0,1-.313.08L21.328,6.3a.3.3,0,0,1,.049.417.291.291,0,0,1-.41.043.277.277,0,0,1-.062-.105l-.83.7a.293.293,0,0,1-.042.153.268.268,0,0,1-.25.092l-3.058,2.569a.279.279,0,0,1,.2.053.3.3,0,0,1,.049.417.291.291,0,0,1-.41.043.272.272,0,0,1-.072-.32l-.807.678a.274.274,0,0,1,0,.313.291.291,0,0,1-.41.043l-.006-.008-2.566,2.156a.284.284,0,0,1,.044.4A.3.3,0,0,1,12.34,14c-.032-.025-.037-.064-.056-.1l-.861.723c-.011.035-.007.074-.03.1a.281.281,0,0,1-.215.1L8.189,17.339a.3.3,0,0,1,.167.043.291.291,0,0,1,.043.41.285.285,0,0,1-.4.05.279.279,0,0,1-.091-.264l-3.78,3.176a.29.29,0,0,1,.03.394.285.285,0,0,1-.4.05c-.029-.023-.031-.061-.049-.09l-.745.626a.264.264,0,0,1-.036.253.278.278,0,0,1-.348.069l-.369.31a1.062,1.062,0,0,0-.244.926A.265.265,0,0,1,2,23.14a.287.287,0,1,1,.05.4.292.292,0,0,1-.1-.165,5.264,5.264,0,0,0,.679,1.854.278.278,0,0,1,.313,0,.291.291,0,0,1,.043.41c-.02.026-.056.026-.082.043a10.577,10.577,0,0,0,.826,1.154,6.53,6.53,0,0,0,3.414,2.427.3.3,0,0,1-.049-.417.291.291,0,0,1,.41-.043.285.285,0,0,1,.05.4.282.282,0,0,1-.113.069.781.781,0,0,0,.434-.155l.653-.549a.253.253,0,0,1-.09-.029.3.3,0,0,1-.057-.411.3.3,0,0,1,.417-.049.281.281,0,0,1,.1.179L9.69,27.6a.3.3,0,0,1,.05-.252.278.278,0,0,1,.334-.071L13.97,24a.265.265,0,0,1,0-.313.285.285,0,0,1,.4-.05l.013.015,2.728-2.291a.28.28,0,0,1-.09-.029.291.291,0,0,1-.043-.41.285.285,0,0,1,.4-.05.3.3,0,0,1,.1.179l.768-.645a.287.287,0,0,1-.006-.335.291.291,0,0,1,.41-.043c.009.007,0,.022.012.03l2.8-2.356a.27.27,0,0,1-.167-.043.3.3,0,0,1-.049-.417.291.291,0,0,1,.41-.043.273.273,0,0,1,.091.264l.738-.62a.265.265,0,0,1,.034-.147.273.273,0,0,1,.25-.092L25.764,14.1a.272.272,0,0,1-.188-.052.285.285,0,0,1-.05-.4.3.3,0,0,1,.411-.057.27.27,0,0,1,.073.306l.861-.723a.265.265,0,0,1,.005-.306.3.3,0,0,1,.411-.057l.006.008,2.39-2.007c.417-.35.318-1.184-.1-2.167a.264.264,0,0,1-.224-.048.285.285,0,0,1-.05-.4c.011-.014.032-.013.045-.025A9.849,9.849,0,0,0,28.142,6.332Zm.6,1.006a.287.287,0,0,1-.353.454.3.3,0,0,1-.057-.411A.291.291,0,0,1,28.738,7.339Zm-.914-.713a.287.287,0,0,1-.353.454.3.3,0,0,1-.057-.411A.291.291,0,0,1,27.824,6.625Zm-.914-.713a.287.287,0,0,1-.353.454.3.3,0,0,1-.057-.411A.291.291,0,0,1,26.911,5.912ZM26,5.192a.291.291,0,0,1,.043.41.285.285,0,0,1-.4.05.3.3,0,0,1-.057-.411A.3.3,0,0,1,26,5.192Zm-.914-.713a.291.291,0,0,1,.043.41.285.285,0,0,1-.4.05.3.3,0,0,1-.057-.411A.3.3,0,0,1,25.091,4.479Zm4.181,4.993a.3.3,0,0,1,.049.417.291.291,0,0,1-.41.043.285.285,0,0,1-.05-.4A.3.3,0,0,1,29.272,9.472Zm-.914-.713a.3.3,0,0,1,.049.417.285.285,0,0,1-.4.05.293.293,0,0,1,.354-.468Zm-.907-.706a.291.291,0,0,1,.043.41.285.285,0,0,1-.4.05.3.3,0,0,1-.057-.411A.3.3,0,0,1,27.451,8.053Zm-.914-.713a.285.285,0,0,1,.05.4.3.3,0,0,1-.411.057.3.3,0,0,1-.049-.417A.291.291,0,0,1,26.537,7.339Zm-.914-.713a.285.285,0,0,1,.05.4.3.3,0,0,1-.411.057.3.3,0,0,1-.049-.417A.291.291,0,0,1,25.623,6.626Zm3.44,4.1a.3.3,0,0,1,.057.411.291.291,0,0,1-.41.043.287.287,0,0,1,.353-.454ZM24.71,5.913a.285.285,0,0,1,.05.4.3.3,0,0,1-.411.057.3.3,0,0,1-.049-.417A.291.291,0,0,1,24.71,5.913Zm3.421,4.151a.287.287,0,0,1-.353.454.3.3,0,0,1-.057-.411A.291.291,0,0,1,28.131,10.064ZM23.8,5.2a.285.285,0,0,1,.05.4.3.3,0,0,1-.411.057.3.3,0,0,1-.049-.417A.291.291,0,0,1,23.8,5.2Zm3.282,4.11a.3.3,0,0,1,.057.411.3.3,0,0,1-.417.049.291.291,0,0,1-.043-.41A.285.285,0,0,1,27.078,9.31ZM26.164,8.6a.3.3,0,0,1,.057.411.3.3,0,0,1-.417.049.291.291,0,0,1-.043-.41A.285.285,0,0,1,26.164,8.6Zm-.914-.713a.3.3,0,0,1,.057.411.291.291,0,0,1-.41.043.287.287,0,0,1,.353-.454Zm-.914-.713a.3.3,0,0,1,.057.411.291.291,0,0,1-.41.043.287.287,0,0,1,.353-.454Zm3.38,4.133a.3.3,0,0,1,.057.411.3.3,0,0,1-.417.049.291.291,0,0,1-.043-.41A.285.285,0,0,1,27.717,11.3ZM23.423,6.456a.3.3,0,0,1,.057.411.291.291,0,0,1-.41.043.287.287,0,1,1,.353-.454Zm3.38,4.133A.3.3,0,0,1,26.86,11a.3.3,0,0,1-.417.049.291.291,0,0,1-.043-.41A.285.285,0,0,1,26.8,10.589ZM22.517,5.736a.3.3,0,0,1,.049.417.291.291,0,0,1-.41.043.285.285,0,0,1-.05-.4A.3.3,0,0,1,22.517,5.736Zm3.372,4.139a.3.3,0,0,1,.057.411.3.3,0,0,1-.417.049.291.291,0,0,1-.043-.41A.285.285,0,0,1,25.889,9.876Zm-.914-.713a.3.3,0,0,1,.057.411.3.3,0,0,1-.417.049.291.291,0,0,1-.043-.41A.285.285,0,0,1,24.975,9.162Zm-.914-.713a.3.3,0,0,1,.057.411.291.291,0,0,1-.41.043.287.287,0,0,1,.353-.454Zm-.914-.713a.3.3,0,0,1,.057.411.291.291,0,0,1-.41.043.287.287,0,0,1,.353-.454Zm-.906-.72a.3.3,0,0,1,.049.417.291.291,0,0,1-.41.043.285.285,0,0,1-.05-.4A.3.3,0,0,1,22.242,7.016Zm4.131,5.074a.285.285,0,0,1,.05.4.3.3,0,0,1-.411.057.285.285,0,0,1-.05-.4A.3.3,0,0,1,26.373,12.09Zm-.914-.713a.285.285,0,0,1,.05.4.3.3,0,0,1-.411.057.291.291,0,0,1-.043-.41A.285.285,0,0,1,25.459,11.377Zm-.914-.713a.285.285,0,0,1,.05.4.3.3,0,0,1-.411.057.291.291,0,0,1-.043-.41A.285.285,0,0,1,24.546,10.663Zm-.914-.713a.285.285,0,0,1,.05.4.3.3,0,0,1-.411.057.291.291,0,0,1-.043-.41A.285.285,0,0,1,23.632,9.95Zm-.914-.713a.285.285,0,0,1,.05.4.3.3,0,0,1-.411.057.291.291,0,0,1-.043-.41A.285.285,0,0,1,22.718,9.237ZM21.8,8.523a.287.287,0,1,1-.4.05A.285.285,0,0,1,21.8,8.523Zm-.914-.713a.3.3,0,0,1,.057.411.291.291,0,0,1-.41.043.287.287,0,1,1,.353-.454Zm4.133,5.06a.291.291,0,0,1,.043.41.287.287,0,1,1-.454-.353A.3.3,0,0,1,25.023,12.87Zm-.914-.713a.291.291,0,0,1,.043.41.287.287,0,0,1-.454-.353A.3.3,0,0,1,24.11,12.157Zm-.914-.713a.291.291,0,0,1,.043.41.287.287,0,0,1-.454-.353A.3.3,0,0,1,23.2,11.443Zm-.914-.713a.285.285,0,0,1,.05.4.3.3,0,0,1-.411.057.291.291,0,0,1-.043-.41A.285.285,0,0,1,22.282,10.73Zm-.914-.713a.285.285,0,0,1,.05.4.3.3,0,0,1-.411.057.291.291,0,0,1-.043-.41A.285.285,0,0,1,21.368,10.017ZM20.455,9.3a.3.3,0,0,1,.057.411.3.3,0,0,1-.417.049.291.291,0,0,1-.043-.41A.285.285,0,0,1,20.455,9.3Zm4.211,5.138a.287.287,0,0,1-.353.454.3.3,0,0,1-.057-.411A.291.291,0,0,1,24.666,14.442ZM19.541,8.59A.3.3,0,0,1,19.6,9a.3.3,0,0,1-.417.049.291.291,0,0,1-.043-.41A.285.285,0,0,1,19.541,8.59Zm4.219,5.132a.291.291,0,0,1,.043.41.287.287,0,0,1-.454-.353A.3.3,0,0,1,23.76,13.722Zm-.914-.713a.291.291,0,0,1,.043.41.287.287,0,0,1-.454-.353A.3.3,0,0,1,22.846,13.008Zm-.914-.713a.291.291,0,0,1,.043.41.287.287,0,1,1-.454-.353A.3.3,0,0,1,21.932,12.3Zm-.914-.713a.291.291,0,0,1,.043.41.287.287,0,1,1-.454-.353A.3.3,0,0,1,21.019,11.582Zm-.914-.713a.285.285,0,0,1,.05.4.3.3,0,0,1-.411.057.285.285,0,0,1-.05-.4A.3.3,0,0,1,20.1,10.868Zm-.914-.713a.3.3,0,0,1,.057.411.3.3,0,0,1-.417.049.291.291,0,0,1-.043-.41A.285.285,0,0,1,19.191,10.155Zm4.125,5.067a.285.285,0,0,1,.05.4.3.3,0,0,1-.411.057.291.291,0,0,1-.043-.41A.285.285,0,0,1,23.316,15.222Zm-5.039-5.78a.3.3,0,0,1,.057.411.3.3,0,0,1-.417.049.291.291,0,0,1-.043-.41A.285.285,0,0,1,18.277,9.442ZM22.4,14.508a.287.287,0,1,1-.4.05A.285.285,0,0,1,22.4,14.508Zm-.914-.713a.287.287,0,1,1-.4.05A.285.285,0,0,1,21.488,13.795Zm-.914-.713a.287.287,0,1,1-.4.05A.285.285,0,0,1,20.575,13.082Zm-.906-.72a.291.291,0,0,1,.043.41.287.287,0,1,1-.454-.353A.3.3,0,0,1,19.669,12.362Zm-.914-.713a.3.3,0,0,1,.049.417.291.291,0,0,1-.41.043.285.285,0,0,1-.05-.4A.3.3,0,0,1,18.755,11.648Zm-.914-.713a.3.3,0,0,1,.049.417.291.291,0,0,1-.41.043.285.285,0,0,1-.05-.4A.3.3,0,0,1,17.841,10.935Zm4.188,5a.291.291,0,0,1,.043.41.285.285,0,0,1-.4.05.3.3,0,0,1-.057-.411A.3.3,0,0,1,22.029,15.936Zm-.914-.713a.291.291,0,0,1,.043.41.287.287,0,0,1-.454-.353A.3.3,0,0,1,21.115,15.223Zm-.914-.713a.285.285,0,0,1,.05.4.3.3,0,0,1-.411.057.291.291,0,0,1-.043-.41A.285.285,0,0,1,20.2,14.509Zm-.914-.713a.285.285,0,0,1,.05.4.3.3,0,0,1-.411.057.291.291,0,0,1-.043-.41A.285.285,0,0,1,19.288,13.8Zm-.914-.713a.285.285,0,0,1,.05.4.3.3,0,0,1-.411.057.291.291,0,0,1-.043-.41A.285.285,0,0,1,18.374,13.083Zm-.914-.713a.285.285,0,0,1,.05.4.3.3,0,0,1-.411.057.291.291,0,0,1-.043-.41A.285.285,0,0,1,17.46,12.369Zm3.289,4.118a.285.285,0,0,1,.05.4.3.3,0,0,1-.411.057.3.3,0,0,1-.049-.417A.291.291,0,0,1,20.749,16.487Zm-4.2-4.831a.287.287,0,1,1-.4.05A.285.285,0,0,1,16.546,11.656Zm3.289,4.118a.285.285,0,0,1,.05.4.3.3,0,0,1-.411.057.3.3,0,0,1-.049-.417A.291.291,0,0,1,19.835,15.774Zm-.914-.713a.287.287,0,0,1-.353.454.3.3,0,0,1-.057-.411A.291.291,0,0,1,18.921,15.06Zm-.914-.713a.287.287,0,0,1-.353.454.3.3,0,0,1-.057-.411A.291.291,0,0,1,18.007,14.347Zm-.914-.713a.287.287,0,1,1-.353.454.3.3,0,0,1-.057-.411A.291.291,0,0,1,17.094,13.634Zm3.339,4.115a.287.287,0,1,1-.353.454.3.3,0,0,1-.057-.411A.291.291,0,0,1,20.432,17.749Zm-4.245-4.835a.291.291,0,0,1,.043.41.285.285,0,0,1-.4.05.3.3,0,0,1-.057-.411A.3.3,0,0,1,16.188,12.914Zm3.339,4.115a.291.291,0,0,1,.043.41.285.285,0,0,1-.4.05.3.3,0,0,1-.057-.411A.3.3,0,0,1,19.526,17.029ZM15.274,12.2a.291.291,0,0,1,.043.41.285.285,0,0,1-.4.05.3.3,0,0,1-.057-.411A.3.3,0,0,1,15.274,12.2Zm3.339,4.115a.291.291,0,0,1,.043.41.285.285,0,0,1-.4.05.3.3,0,0,1-.057-.411A.3.3,0,0,1,18.613,16.316ZM17.7,15.6a.291.291,0,0,1,.043.41.285.285,0,0,1-.4.05.3.3,0,0,1-.057-.411A.3.3,0,0,1,17.7,15.6Zm-.914-.713a.291.291,0,0,1,.043.41.285.285,0,0,1-.4.05.3.3,0,0,1-.057-.411A.3.3,0,0,1,16.785,14.889Zm-.914-.713a.285.285,0,0,1,.05.4.3.3,0,0,1-.411.057.285.285,0,0,1-.05-.4A.3.3,0,0,1,15.871,14.175Zm-.914-.713a.285.285,0,0,1,.05.4.3.3,0,0,1-.411.057.291.291,0,0,1-.043-.41A.285.285,0,0,1,14.958,13.462Zm4.125,5.067a.3.3,0,0,1,.057.411.291.291,0,0,1-.41.043.287.287,0,1,1,.353-.454Zm-5.039-5.78a.285.285,0,0,1,.05.4.3.3,0,0,1-.411.057.291.291,0,0,1-.043-.41A.285.285,0,0,1,14.044,12.749Zm4.131,5.074a.287.287,0,0,1-.353.454.3.3,0,0,1-.057-.411A.291.291,0,0,1,18.175,17.823Zm-.906-.72a.291.291,0,0,1,.043.41.285.285,0,0,1-.4.05.3.3,0,0,1-.057-.411A.3.3,0,0,1,17.269,17.1Zm-.914-.713a.291.291,0,0,1,.043.41.285.285,0,0,1-.4.05.3.3,0,0,1-.057-.411A.3.3,0,0,1,16.355,16.39Zm-.914-.713a.291.291,0,0,1,.043.41.285.285,0,0,1-.4.05.3.3,0,0,1-.057-.411A.3.3,0,0,1,15.442,15.677Zm-.914-.713a.291.291,0,0,1,.043.41.285.285,0,0,1-.4.05.3.3,0,0,1-.057-.411A.3.3,0,0,1,14.528,14.963Zm-.914-.713a.285.285,0,0,1,.05.4A.293.293,0,0,1,13.2,14.3.3.3,0,0,1,13.614,14.25Zm4.125,5.067a.285.285,0,0,1,.05.4.3.3,0,0,1-.411.057.3.3,0,0,1-.049-.417A.291.291,0,0,1,17.739,19.316Zm-.914-.713a.285.285,0,0,1,.05.4.3.3,0,0,1-.411.057.3.3,0,0,1-.049-.417A.291.291,0,0,1,16.825,18.6Zm-.914-.713a.287.287,0,0,1-.353.454.3.3,0,0,1-.057-.411A.291.291,0,0,1,15.912,17.89ZM15,17.176a.287.287,0,0,1-.353.454.3.3,0,0,1-.057-.411A.291.291,0,0,1,15,17.176Zm-.914-.713a.287.287,0,0,1-.353.454.3.3,0,0,1-.057-.411A.291.291,0,0,1,14.084,16.463Zm-.906-.72a.291.291,0,0,1,.043.41.285.285,0,0,1-.4.05.3.3,0,0,1-.057-.411A.3.3,0,0,1,13.178,15.743Zm-.914-.713a.291.291,0,0,1,.043.41.285.285,0,0,1-.4.05.3.3,0,0,1-.057-.411A.3.3,0,0,1,12.264,15.03Zm4.2,5.131a.293.293,0,0,1-.354.468.3.3,0,0,1-.049-.417A.285.285,0,0,1,16.469,20.16Zm-.907-.706a.285.285,0,0,1,.05.4.3.3,0,0,1-.411.057.3.3,0,0,1-.049-.417A.291.291,0,0,1,15.562,19.455Zm-.914-.713a.285.285,0,0,1,.05.4.3.3,0,0,1-.411.057.3.3,0,0,1-.049-.417A.291.291,0,0,1,14.648,18.741Zm-.914-.713a.285.285,0,0,1,.05.4.3.3,0,0,1-.411.057.3.3,0,0,1-.049-.417A.291.291,0,0,1,13.734,18.028Zm-.914-.713a.287.287,0,0,1-.353.454.3.3,0,0,1-.057-.411A.291.291,0,0,1,12.821,17.315Zm-.914-.713a.287.287,0,0,1-.353.454.3.3,0,0,1-.057-.411A.291.291,0,0,1,11.907,16.6Zm4.133,5.06a.291.291,0,0,1,.043.41.285.285,0,0,1-.4.05.3.3,0,0,1-.057-.411A.3.3,0,0,1,16.039,21.662ZM11,15.881a.291.291,0,0,1,.043.41.285.285,0,0,1-.4.05.3.3,0,0,1-.057-.411A.3.3,0,0,1,11,15.881Zm4.125,5.067a.291.291,0,0,1,.043.41.285.285,0,0,1-.4.05A.3.3,0,0,1,14.708,21,.3.3,0,0,1,15.126,20.948Zm-.914-.713a.291.291,0,0,1,.043.41.285.285,0,0,1-.4.05.3.3,0,0,1-.057-.411A.3.3,0,0,1,14.212,20.235Zm-.914-.713a.285.285,0,0,1,.05.4.3.3,0,0,1-.411.057.3.3,0,0,1-.049-.417A.291.291,0,0,1,13.3,19.521Zm-.914-.713a.285.285,0,0,1,.05.4.3.3,0,0,1-.411.057.3.3,0,0,1-.049-.417A.291.291,0,0,1,12.384,18.808Zm-.914-.713a.285.285,0,0,1,.05.4.3.3,0,0,1-.411.057.3.3,0,0,1-.049-.417A.291.291,0,0,1,11.471,18.095Zm-.914-.713a.285.285,0,0,1,.05.4.3.3,0,0,1-.411.057.3.3,0,0,1-.049-.417A.291.291,0,0,1,10.557,17.381Zm4.181,4.993a.3.3,0,0,1,.057.411.3.3,0,0,1-.417.049.291.291,0,0,1-.043-.41A.285.285,0,0,1,14.738,22.375ZM9.643,16.668a.287.287,0,1,1-.353.454.3.3,0,0,1-.057-.411A.291.291,0,0,1,9.643,16.668Zm4.181,4.993a.3.3,0,0,1,.057.411.291.291,0,0,1-.41.043.287.287,0,1,1,.353-.454Zm-.914-.713a.3.3,0,0,1,.057.411.285.285,0,0,1-.4.05A.3.3,0,0,1,12.507,21,.285.285,0,0,1,12.911,20.948Zm-.9-.712a.291.291,0,0,1,.043.41.285.285,0,0,1-.4.05.3.3,0,0,1-.057-.411A.3.3,0,0,1,12.011,20.236Zm-.914-.713a.291.291,0,0,1,.043.41.285.285,0,0,1-.4.05.3.3,0,0,1-.057-.411A.3.3,0,0,1,11.1,19.522Zm-.914-.713a.291.291,0,0,1,.043.41.285.285,0,0,1-.4.05.3.3,0,0,1-.057-.411A.3.3,0,0,1,10.183,18.809Zm3.282,4.11a.3.3,0,0,1,.049.417.291.291,0,0,1-.41.043.285.285,0,0,1-.05-.4A.3.3,0,0,1,13.466,22.919ZM9.27,18.1a.291.291,0,0,1,.043.41.285.285,0,0,1-.4.05.3.3,0,0,1-.057-.411A.3.3,0,0,1,9.27,18.1Zm3.282,4.11a.3.3,0,0,1,.049.417.291.291,0,0,1-.41.043.285.285,0,0,1-.05-.4A.3.3,0,0,1,12.552,22.206Zm-.914-.713a.3.3,0,0,1,.049.417.291.291,0,0,1-.41.043.285.285,0,0,1-.05-.4A.3.3,0,0,1,11.638,21.492Zm-.914-.713a.3.3,0,0,1,.049.417.291.291,0,0,1-.41.043.285.285,0,0,1-.05-.4A.3.3,0,0,1,10.724,20.779Zm-.914-.713a.3.3,0,0,1,.057.411.3.3,0,0,1-.417.049.291.291,0,0,1-.043-.41A.285.285,0,0,1,9.811,20.066Zm3.382,4.1a.287.287,0,1,1-.4.05A.285.285,0,0,1,13.193,24.17ZM8.9,19.352a.3.3,0,0,1,.057.411.3.3,0,0,1-.417.049.291.291,0,0,1-.043-.41A.285.285,0,0,1,8.9,19.352Zm3.39,4.1a.291.291,0,0,1,.043.41.287.287,0,1,1-.454-.353A.3.3,0,0,1,12.287,23.451Zm-4.3-4.812a.3.3,0,0,1,.057.411.3.3,0,0,1-.417.049.291.291,0,0,1-.043-.41A.285.285,0,0,1,7.983,18.639Zm3.39,4.1a.291.291,0,0,1,.043.41.287.287,0,0,1-.454-.353A.3.3,0,0,1,11.373,22.737Zm-.914-.713a.291.291,0,0,1,.043.41.287.287,0,1,1-.454-.353A.3.3,0,0,1,10.459,22.024Zm-.914-.713a.3.3,0,0,1,.049.417.291.291,0,0,1-.41.043.285.285,0,0,1-.05-.4A.3.3,0,0,1,9.546,21.31ZM8.632,20.6a.3.3,0,0,1,.057.411.3.3,0,0,1-.417.049.285.285,0,0,1-.05-.4A.3.3,0,0,1,8.632,20.6Zm-.914-.713a.3.3,0,0,1,.057.411.3.3,0,0,1-.417.049.291.291,0,0,1-.043-.41A.285.285,0,0,1,7.718,19.884Zm4.131,5.074a.287.287,0,1,1-.353.454A.3.3,0,0,1,11.44,25,.291.291,0,0,1,11.849,24.958ZM6.8,19.17a.3.3,0,0,1,.057.411.3.3,0,0,1-.417.049.291.291,0,0,1-.043-.41A.285.285,0,0,1,6.8,19.17Zm4.131,5.074a.287.287,0,1,1-.353.454.3.3,0,0,1-.057-.411A.291.291,0,0,1,10.936,24.245Zm-.906-.72a.291.291,0,0,1,.043.41.285.285,0,0,1-.4.05.3.3,0,0,1-.057-.411A.3.3,0,0,1,10.03,23.525Zm-.914-.713a.291.291,0,0,1,.043.41.285.285,0,0,1-.4.05.3.3,0,0,1-.057-.411A.3.3,0,0,1,9.116,22.812ZM8.2,22.1a.291.291,0,0,1,.043.41.285.285,0,0,1-.4.05.3.3,0,0,1-.057-.411A.3.3,0,0,1,8.2,22.1Zm-.914-.713a.291.291,0,0,1,.043.41.287.287,0,0,1-.454-.353A.3.3,0,0,1,7.288,21.385Zm-.914-.713a.285.285,0,0,1,.05.4.3.3,0,0,1-.411.057.285.285,0,0,1-.05-.4A.3.3,0,0,1,6.375,20.671ZM10.5,25.738a.285.285,0,0,1,.05.4.3.3,0,0,1-.411.057.3.3,0,0,1-.049-.417A.291.291,0,0,1,10.5,25.738Zm-5.039-5.78a.285.285,0,0,1,.05.4.3.3,0,0,1-.411.057.291.291,0,0,1-.043-.41A.285.285,0,0,1,5.461,19.958Zm4.125,5.067a.285.285,0,0,1,.05.4.3.3,0,0,1-.411.057.3.3,0,0,1-.049-.417A.291.291,0,0,1,9.586,25.025Zm-.914-.713a.287.287,0,1,1-.353.454.3.3,0,0,1-.057-.411A.291.291,0,0,1,8.672,24.311ZM7.758,23.6a.287.287,0,1,1-.4.05A.285.285,0,0,1,7.758,23.6Zm-.914-.713a.287.287,0,1,1-.4.05A.285.285,0,0,1,6.845,22.885Zm-.906-.72a.291.291,0,0,1,.043.41.287.287,0,0,1-.454-.353A.3.3,0,0,1,5.939,22.165Zm-.914-.713a.291.291,0,0,1,.043.41.287.287,0,0,1-.454-.353A.3.3,0,0,1,5.025,21.452ZM9.236,26.59a.285.285,0,0,1,.05.4.3.3,0,0,1-.411.057.3.3,0,0,1-.049-.417A.291.291,0,0,1,9.236,26.59Zm-.914-.713a.285.285,0,0,1,.05.4.3.3,0,0,1-.411.057.3.3,0,0,1-.049-.417A.291.291,0,0,1,8.322,25.876Zm-.914-.713a.285.285,0,0,1,.05.4.3.3,0,0,1-.411.057A.3.3,0,0,1,7,25.206.291.291,0,0,1,7.409,25.163Zm-.914-.713a.285.285,0,0,1,.05.4.3.3,0,0,1-.411.057.3.3,0,0,1-.049-.417A.291.291,0,0,1,6.495,24.45Zm-.914-.713a.287.287,0,1,1-.4.05A.285.285,0,0,1,5.581,23.736Zm-.914-.713a.287.287,0,1,1-.4.05A.285.285,0,0,1,4.667,23.023Zm-.906-.72a.291.291,0,0,1,.043.41.287.287,0,0,1-.454-.353A.3.3,0,0,1,3.761,22.3ZM7.886,27.37a.291.291,0,0,1,.043.41.285.285,0,0,1-.4.05.3.3,0,0,1-.057-.411A.3.3,0,0,1,7.886,27.37Zm-.914-.713a.291.291,0,0,1,.043.41.285.285,0,0,1-.4.05.3.3,0,0,1-.057-.411A.3.3,0,0,1,6.972,26.657Zm-.914-.713a.285.285,0,0,1,.05.4A.3.3,0,0,1,5.7,26.4a.3.3,0,0,1-.049-.417A.291.291,0,0,1,6.059,25.943Zm-.914-.713a.285.285,0,0,1,.05.4.3.3,0,0,1-.411.057.291.291,0,0,1-.043-.41A.285.285,0,0,1,5.145,25.23Zm-.914-.713a.285.285,0,0,1,.05.4.3.3,0,0,1-.411.057.291.291,0,0,1-.043-.41A.285.285,0,0,1,4.231,24.516ZM3.317,23.8a.285.285,0,0,1,.05.4.3.3,0,0,1-.411.057.291.291,0,0,1-.043-.41A.285.285,0,0,1,3.317,23.8Zm3.274,4.288a.287.287,0,1,1-.353.454.3.3,0,0,1-.057-.411A.291.291,0,0,1,6.591,28.091Zm-.914-.713a.287.287,0,1,1-.353.454.3.3,0,0,1-.057-.411A.291.291,0,0,1,5.678,27.377Zm-.914-.713a.287.287,0,1,1-.353.454.3.3,0,0,1-.057-.411A.291.291,0,0,1,4.764,26.664Zm-.906-.72a.291.291,0,0,1,.043.41.285.285,0,0,1-.4.05.3.3,0,0,1-.057-.411A.3.3,0,0,1,3.858,25.944Z" style="fill:#db9275;stroke:#925e4b;stroke-linecap:round;stroke-linejoin:round;stroke-width:0.20000000298023224px"/><path d="M20.276,12.686l.235.28c1.066,1.269,1.652,2.531,1.309,2.819l-6.706,5.633c-.343.288-1.485-.507-2.551-1.776l-.235-.28c-1.066-1.269-1.652-2.531-1.309-2.819l6.706-5.633c.343-.288,1.485.507,2.551,1.776" style="fill:#c47f67"/><path d="M20.589,13.067a.287.287,0,1,0,.05.4A.285.285,0,0,0,20.589,13.067Zm.518.757-.008.006a.285.285,0,0,0,.05.4.264.264,0,0,0,.253.036C21.322,14.129,21.208,13.975,21.107,13.824Zm-1.424-1.477a.3.3,0,0,0-.411.057.287.287,0,0,0,.454.353A.291.291,0,0,0,19.683,12.347Zm-.914-.713a.3.3,0,0,0-.411.057.285.285,0,0,0,.05.4.291.291,0,0,0,.41-.043A.3.3,0,0,0,18.769,11.634Zm-.914-.713c-.028-.022-.065-.013-.1-.023h-.014l-.353.3a.3.3,0,0,0,.1.187.291.291,0,0,0,.41-.043A.3.3,0,0,0,17.855,10.92Zm3.274,4.288a.3.3,0,0,0-.411.057.287.287,0,1,0,.454.353A.291.291,0,0,0,21.129,15.208Zm-.914-.713a.285.285,0,0,0-.4.05.291.291,0,0,0,.043.41.3.3,0,0,0,.411-.057A.285.285,0,0,0,20.215,14.495Zm-.914-.713a.285.285,0,0,0-.4.05.291.291,0,0,0,.043.41.3.3,0,0,0,.411-.057A.285.285,0,0,0,19.3,13.781Zm-.914-.713a.285.285,0,0,0-.4.05.291.291,0,0,0,.043.41.3.3,0,0,0,.411-.057A.285.285,0,0,0,18.388,13.068Zm-.914-.713a.285.285,0,0,0-.4.05.291.291,0,0,0,.043.41.3.3,0,0,0,.411-.057A.285.285,0,0,0,17.474,12.355Zm3.289,4.118a.291.291,0,0,0-.41.043.3.3,0,0,0,.049.417c.01.008.024,0,.035.01l.4-.336A.26.26,0,0,0,20.763,16.472Zm-4.11-4.659-.361.3a.272.272,0,0,0,.32-.072A.276.276,0,0,0,16.652,11.813Zm3.2,3.946a.291.291,0,0,0-.41.043.3.3,0,0,0,.049.417.3.3,0,0,0,.411-.057A.285.285,0,0,0,19.849,15.759Zm-.914-.713a.291.291,0,0,0-.41.043.3.3,0,0,0,.057.411.287.287,0,1,0,.353-.454Zm-.914-.713a.291.291,0,0,0-.41.043.3.3,0,0,0,.057.411.287.287,0,0,0,.353-.454Zm-.914-.713a.291.291,0,0,0-.41.043.3.3,0,0,0,.057.411.287.287,0,0,0,.353-.454ZM16.2,12.9a.3.3,0,0,0-.417.049.3.3,0,0,0,.057.411.285.285,0,0,0,.4-.05A.291.291,0,0,0,16.2,12.9Zm3.339,4.115a.3.3,0,0,0-.417.049.3.3,0,0,0,.057.411.285.285,0,0,0,.4-.05A.291.291,0,0,0,19.54,17.014Zm-.914-.713a.3.3,0,0,0-.417.049.3.3,0,0,0,.057.411.285.285,0,0,0,.4-.05A.291.291,0,0,0,18.627,16.3Zm-.914-.713a.3.3,0,0,0-.417.049.3.3,0,0,0,.057.411.285.285,0,0,0,.4-.05A.291.291,0,0,0,17.713,15.588Zm-.914-.713a.3.3,0,0,0-.417.049.3.3,0,0,0,.057.411.285.285,0,0,0,.4-.05A.291.291,0,0,0,16.8,14.874Zm-.914-.713a.3.3,0,0,0-.411.057.285.285,0,0,0,.05.4.3.3,0,0,0,.411-.057A.285.285,0,0,0,15.885,14.161Zm-.914-.713a.275.275,0,0,0-.194-.06l-.238.2a.274.274,0,0,0,.072.32.3.3,0,0,0,.411-.057A.285.285,0,0,0,14.972,13.447Zm3.218,4.361a.291.291,0,0,0-.41.043.3.3,0,0,0,.057.411.287.287,0,0,0,.353-.454Zm-.906-.72a.3.3,0,0,0-.417.049.3.3,0,0,0,.057.411.285.285,0,0,0,.4-.05A.291.291,0,0,0,17.283,17.089Zm-.914-.713a.3.3,0,0,0-.417.049.3.3,0,0,0,.057.411.285.285,0,0,0,.4-.05A.291.291,0,0,0,16.37,16.375Zm-.914-.713a.3.3,0,0,0-.417.049.3.3,0,0,0,.057.411.285.285,0,0,0,.4-.05A.291.291,0,0,0,15.456,15.662Zm-.914-.713a.3.3,0,0,0-.417.049.3.3,0,0,0,.057.411.285.285,0,0,0,.4-.05A.291.291,0,0,0,14.542,14.949Zm-.871-.631-.415.349c.008.008,0,.023.012.03a.3.3,0,0,0,.411-.057A.27.27,0,0,0,13.671,14.317Zm3.992,4.955a.274.274,0,0,0-.32.072.294.294,0,0,0-.049.238Zm-.824-.684a.291.291,0,0,0-.41.043.3.3,0,0,0,.049.417.3.3,0,0,0,.411-.057A.285.285,0,0,0,16.839,18.589Zm-.914-.713a.291.291,0,0,0-.41.043.3.3,0,0,0,.057.411.287.287,0,1,0,.353-.454Zm-.914-.713a.291.291,0,0,0-.41.043.3.3,0,0,0,.057.411.287.287,0,1,0,.353-.454Zm-.914-.713a.291.291,0,0,0-.41.043.3.3,0,0,0,.057.411.287.287,0,0,0,.353-.454Zm-.906-.72a.3.3,0,0,0-.417.049.3.3,0,0,0,.057.411.285.285,0,0,0,.4-.05A.291.291,0,0,0,13.192,15.729Zm3.291,4.417a.285.285,0,0,0-.4.05.294.294,0,0,0,.031.38l.415-.349C16.508,20.2,16.509,20.166,16.483,20.146Zm-.907-.706a.291.291,0,0,0-.41.043.3.3,0,0,0,.049.417.3.3,0,0,0,.411-.057A.285.285,0,0,0,15.576,19.44Zm-.914-.713a.291.291,0,0,0-.41.043.3.3,0,0,0,.049.417.3.3,0,0,0,.411-.057A.285.285,0,0,0,14.662,18.727Zm-.914-.713a.291.291,0,0,0-.41.043.3.3,0,0,0,.049.417.3.3,0,0,0,.411-.057A.285.285,0,0,0,13.748,18.013Zm-.914-.713a.291.291,0,0,0-.41.043.3.3,0,0,0,.057.411.287.287,0,1,0,.353-.454Zm-.914-.713a.291.291,0,0,0-.41.043.3.3,0,0,0,.057.411.287.287,0,0,0,.353-.454Zm3.219,4.347a.3.3,0,0,0-.417.049.3.3,0,0,0,.057.411c.025.02.055.011.084.022a.385.385,0,0,0,.215-.01.277.277,0,0,0,.105-.062A.291.291,0,0,0,15.14,20.934Zm-.914-.713a.3.3,0,0,0-.417.049.3.3,0,0,0,.057.411.285.285,0,0,0,.4-.05A.291.291,0,0,0,14.226,20.22Zm-.914-.713a.291.291,0,0,0-.41.043.3.3,0,0,0,.049.417.3.3,0,0,0,.411-.057A.285.285,0,0,0,13.312,19.507Zm-.914-.713a.291.291,0,0,0-.4.036c.117.159.169.292.3.454a.29.29,0,0,0,.15-.087A.285.285,0,0,0,12.4,18.793Z" style="fill:#bd7a62"/><path d="M17.825,11.151c-.133-.029-.258-.048-.329.012l-6.455,5.422c-.343.288.251,1.558,1.331,2.844a5.216,5.216,0,0,0,2.286,1.82A6.549,6.549,0,0,1,12.6,19.486c-1.08-1.286-1.667-2.548-1.325-2.836l6.547-5.5Z" style="fill:#a76c58"/><path d="M15.06,21.24c.133.029.258.048.329-.012l6.455-5.422c.343-.288-.251-1.558-1.331-2.844a5.216,5.216,0,0,0-2.286-1.82A6.549,6.549,0,0,1,20.282,12.9c1.08,1.286,1.667,2.548,1.325,2.836l-6.547,5.5Z" style="fill:#d7a08e"/></svg>