<svg xmlns="http://www.w3.org/2000/svg" viewBox="0 0 32 32"><title>file_type_mjml</title><path d="M4.365,3.769a6.056,6.056,0,0,1,1.926-.158q5.875.007,11.745,0a3.366,3.366,0,0,1,3.151,2.011,3.3,3.3,0,0,1-3.151,4.549q-6.325-.007-12.65,0A3.3,3.3,0,0,1,2.029,7.243,3.227,3.227,0,0,1,4.365,3.769Z" style="fill:#f75d3c"/><path d="M25.81,3.746a3.338,3.338,0,0,1,3.975,2.081,3.214,3.214,0,0,1-2.014,4.12,3.309,3.309,0,0,1-4.429-2.734A3.227,3.227,0,0,1,25.81,3.746Z" style="fill:#f75d3c"/><path d="M12.941,13.033a9.045,9.045,0,0,1,1.93-.111c3.923.009,7.849,0,11.772.007a3.248,3.248,0,1,1-.014,6.494c-4.3,0-8.6.009-12.9,0a3.2,3.2,0,0,1-3.172-2.941A3.24,3.24,0,0,1,12.941,13.033Z" style="fill:#f75d3c"/><path d="M4.539,21.956a7.361,7.361,0,0,1,1.318-.079c4.142.016,8.282-.007,12.422.011a3.255,3.255,0,0,1,3.176,3.4,3.3,3.3,0,0,1-3.2,3.093q-6.545.007-13.09,0a3.25,3.25,0,0,1-.63-6.418Z" style="fill:#f75d3c"/><path d="M25.589,22.031a3.363,3.363,0,0,1,4.163,1.937,3.305,3.305,0,1,1-6.418,1.1A3.18,3.18,0,0,1,25.589,22.031Z" style="fill:#f75d3c"/><path d="M4.361,13a3.322,3.322,0,1,1-1.91,4.851A3.338,3.338,0,0,1,4.361,13Z" style="fill:#f93748"/></svg>