<svg xmlns="http://www.w3.org/2000/svg" xmlns:xlink="http://www.w3.org/1999/xlink" viewBox="0 0 32 32"><defs><linearGradient id="a" x1="836.63" y1="36.205" x2="843.802" y2="14.48" gradientTransform="translate(525.922 30.249) rotate(180) scale(0.607 0.607)" gradientUnits="userSpaceOnUse"><stop offset="0" stop-color="#fff" stop-opacity="0"/><stop offset="1" stop-color="#fff" stop-opacity="0.275"/></linearGradient></defs><title>file_type_assembly</title><path d="M16,2c-1.246,3.056-2,5.057-3.391,8.022A21.884,21.884,0,0,0,16.2,13.156a14.858,14.858,0,0,1-4-2.283C10.43,14.579,7.646,19.855,2,30c5.186-2.994,9.012-4.648,12.691-4.966V24.2h-.834v-.837h.834V24.2h1.675V22.521H14.691v-.834h-.834V20.013h.834v-.834h1.675v.834H17.2v.837h-.837v-.837H14.691v1.675h1.675v.834H17.2V24.2h-.837v.783c3.98.1,8.006,1.772,13.634,5.021-.863-1.589-1.636-3.021-2.372-4.385a25.526,25.526,0,0,0-4.833-3.333A14.436,14.436,0,0,1,26.65,23.8C19.17,9.872,18.565,8.02,16,2ZM10.511,19.179h1.671v.834h.837v5.021h-.837V22.521H10.511v2.512H9.673V20.013h.837Zm0,.834v1.675h1.671V20.013Zm7.526-.834h.837v.834h.837v.837h.834v-.837h.837v-.834h.837v5.855h-.837V20.85h-.837v.837h-.834V20.85h-.837v4.184h-.837Z" style="fill:#0000bf"/><path d="M23.881,18.642c-6.069-8.237-7.476-14.876-7.832-16.461A175.217,175.217,0,0,0,23.881,18.642Z" style="fill:#fff;fill-opacity:0.165680468082428"/><path d="M16.051,2.12,15.6,3.227c-.159.391-.311.765-.461,1.131s-.3.724-.448,1.077-.3.7-.448,1.053-.3.706-.465,1.066-.329.729-.506,1.111-.362.778-.561,1.193c-.028.057-.061.123-.089.181A21.872,21.872,0,0,0,16.2,13.156a14.879,14.879,0,0,1-3.989-2.276l-.14.287c-.065.133-.144.283-.212.42l-.106.219c-.878,1.793-2.006,3.984-3.524,6.822,3.551-2,7.381-4.887,14.338-2.4-.349-.661-.67-1.28-.971-1.863s-.581-1.128-.841-1.644-.5-1-.725-1.463-.433-.9-.629-1.313-.38-.818-.554-1.2-.339-.754-.5-1.118S18.047,6.9,17.9,6.546s-.291-.709-.434-1.066c-.036-.091-.073-.186-.109-.277C16.949,4.247,16.536,3.258,16.051,2.12Z" style="fill:url(#a)"/></svg>