<svg xmlns="http://www.w3.org/2000/svg" viewBox="0 0 32 32"><title>file_type_freemarker</title><path d="M24.023,20.9,25.408,23l4.615-7L25.408,9l-1.385,2.1L27.255,16Z" style="fill:#0050b2"/><path d="M7.977,11.1,6.592,9,1.977,16l4.615,7,1.385-2.1L4.745,16Z" style="fill:#0050b2"/><path d="M13.035,9h2.8l-.494,2.8h2.8L18.635,9h2.8l-.494,2.8h2.8l-.495,2.8h-2.8l-.493,2.8h2.8l-.494,2.8h-2.8L18.967,23h-2.8l.493-2.8-2.8,0L13.375,23H10.567l.493-2.8-2.8,0,.494-2.8h2.8l.493-2.793h-2.8L9.741,11.8h2.8Zm1.319,8.4h2.8l.494-2.8h-2.8Z" style="fill:#0050b2"/></svg>