<svg xmlns="http://www.w3.org/2000/svg" viewBox="0 0 32 32"><title>file_type_pcl</title><path d="M14.62,7.692a6.238,6.238,0,0,1,4.071.459,5.288,5.288,0,0,1,2,1.674,6.206,6.206,0,0,1,4.174.546,5.075,5.075,0,0,1,2.11,2.039,4.372,4.372,0,0,1,.4,3.145,5,5,0,0,1,2.222,2.267,4.313,4.313,0,0,1,.046,3.547,5.046,5.046,0,0,1-2.265,2.381,6.067,6.067,0,0,1-2.791.708H7.4A5.944,5.944,0,0,1,3.785,23.2a4.714,4.714,0,0,1-1.639-2.441,4.317,4.317,0,0,1,.473-3.332,5.168,5.168,0,0,1,2.01-1.874,4.33,4.33,0,0,1,.353-3.041,5.19,5.19,0,0,1,2.972-2.491,6.363,6.363,0,0,1,3.367-.2,5.458,5.458,0,0,1,3.3-2.132M12.695,9.966a4.71,4.71,0,0,0-.843,1.188,5.723,5.723,0,0,0-1.816-.331,4.689,4.689,0,0,0-3.441,1.365,3.282,3.282,0,0,0-.96,2.395,4.315,4.315,0,0,0,.428,1.58,5.658,5.658,0,0,0-1.644.9A3.4,3.4,0,0,0,3.14,19.572a3.294,3.294,0,0,0,.974,2.387,4.658,4.658,0,0,0,3.15,1.357q8.735,0,17.469,0a4.738,4.738,0,0,0,2.79-1.02,3.487,3.487,0,0,0,1.319-2.256,3.259,3.259,0,0,0-.868-2.6,5.066,5.066,0,0,0-2.033-1.276,6.557,6.557,0,0,0,.371-1.084,3.13,3.13,0,0,0-.424-2.272,4.308,4.308,0,0,0-2.714-1.855,5.451,5.451,0,0,0-3.021.2c-.152-.249-.284-.513-.462-.747A4.218,4.218,0,0,0,18.012,9.1,4.908,4.908,0,0,0,12.695,9.966Z" style="fill:#93ba65"/><path d="M15.406,14.907a2.1,2.1,0,0,1,1.47.107,2.064,2.064,0,0,1,.2,3.63A2.06,2.06,0,0,1,14,16.383,2.05,2.05,0,0,1,15.406,14.907Z" style="fill:#fff"/></svg>