<svg xmlns="http://www.w3.org/2000/svg" xmlns:xlink="http://www.w3.org/1999/xlink" viewBox="0 0 32 32"><defs><linearGradient id="a" x1="16" y1="2.044" x2="16" y2="29.956" gradientUnits="userSpaceOnUse"><stop offset="0" stop-color="#459fe2"/><stop offset="1" stop-color="#2781c4"/></linearGradient></defs><title>file_type_haxedevelop</title><polygon points="29.956 29.956 16 29.956 2.044 29.956 2.044 16 2.044 2.044 16 2.044 29.956 2.044 29.956 16 29.956 29.956" style="fill:url(#a)"/><rect x="2.043" y="15.953" width="27.913" height="0.087" style="fill:#fff;opacity:0.5"/><rect x="2.054" y="3.39" width="27.903" height="0.087" style="fill:#fff;opacity:0.5"/><rect x="2.054" y="28.512" width="27.903" height="0.087" style="fill:#fff;opacity:0.5"/><path d="M2.061,12.9H2.043a.044.044,0,0,1,0-.087h.018a.044.044,0,0,1,0,.087Z" style="fill:#fff;opacity:0.5"/><path d="M29.523,12.9h-.034a.044.044,0,0,1,0-.087h.034a.044.044,0,0,1,0,.087Zm-.45,0h-.035a.044.044,0,0,1,0-.087h.035a.044.044,0,1,1,0,.087Zm-.45,0h-.035a.044.044,0,0,1,0-.087h.035a.044.044,0,1,1,0,.087Zm-.45,0h-.035a.044.044,0,0,1,0-.087h.035a.044.044,0,1,1,0,.087Zm-.45,0h-.034a.044.044,0,0,1,0-.087h.034a.044.044,0,1,1,0,.087Zm-.45,0h-.035a.044.044,0,0,1,0-.087h.035a.044.044,0,0,1,0,.087Zm-.45,0h-.035a.044.044,0,0,1,0-.087h.035a.044.044,0,1,1,0,.087Zm-.45,0h-.034a.044.044,0,0,1,0-.087h.034a.044.044,0,1,1,0,.087Zm-.45,0h-.035a.044.044,0,0,1,0-.087h.035a.044.044,0,1,1,0,.087Zm-.45,0h-.035a.044.044,0,0,1,0-.087h.035a.044.044,0,0,1,0,.087Zm-.45,0h-.035a.044.044,0,0,1,0-.087h.035a.044.044,0,1,1,0,.087Zm-.45,0h-.034a.044.044,0,0,1,0-.087h.034a.044.044,0,0,1,0,.087Zm-.45,0h-.035a.044.044,0,0,1,0-.087h.035a.044.044,0,0,1,0,.087Zm-.45,0h-.035a.044.044,0,0,1,0-.087h.035a.044.044,0,0,1,0,.087Zm-.45,0h-.034a.044.044,0,0,1,0-.087h.034a.044.044,0,0,1,0,.087Zm-.45,0h-.034a.044.044,0,0,1,0-.087h.034a.044.044,0,1,1,0,.087Zm-.45,0h-.035a.044.044,0,0,1,0-.087h.035a.044.044,0,1,1,0,.087Zm-.45,0h-.035a.044.044,0,0,1,0-.087h.035a.044.044,0,1,1,0,.087Zm-.45,0h-.034a.044.044,0,0,1,0-.087h.034a.044.044,0,0,1,0,.087Zm-.45,0h-.035a.044.044,0,0,1,0-.087h.035a.044.044,0,1,1,0,.087Zm-.45,0h-.035a.044.044,0,0,1,0-.087h.035a.044.044,0,0,1,0,.087Zm-.45,0h-.034a.044.044,0,1,1,0-.087h.034a.044.044,0,0,1,0,.087Zm-.45,0h-.034a.044.044,0,0,1,0-.087h.034a.044.044,0,1,1,0,.087Zm-.45,0h-.035a.044.044,0,0,1,0-.087h.035a.044.044,0,0,1,0,.087Zm-.45,0h-.035a.044.044,0,0,1,0-.087h.035a.044.044,0,0,1,0,.087Zm-.45,0h-.034a.044.044,0,0,1,0-.087h.034a.044.044,0,0,1,0,.087Zm-.45,0h-.035a.044.044,0,0,1,0-.087h.035a.044.044,0,0,1,0,.087Zm-.45,0h-.035a.044.044,0,0,1,0-.087h.035a.044.044,0,0,1,0,.087Zm-.45,0h-.035a.044.044,0,0,1,0-.087h.035a.044.044,0,0,1,0,.087Zm-.45,0h-.034a.044.044,0,0,1,0-.087h.034a.044.044,0,0,1,0,.087Zm-.45,0h-.035a.044.044,0,0,1,0-.087h.035a.044.044,0,0,1,0,.087Zm-.45,0h-.035a.044.044,0,0,1,0-.087h.035a.044.044,0,1,1,0,.087Zm-.45,0h-.035a.044.044,0,0,1,0-.087h.035a.044.044,0,0,1,0,.087Zm-.45,0h-.035a.044.044,0,0,1,0-.087h.035a.044.044,0,0,1,0,.087Zm-.45,0h-.035a.044.044,0,0,1,0-.087h.035a.044.044,0,1,1,0,.087Zm-.45,0h-.035a.044.044,0,0,1,0-.087h.035a.044.044,0,0,1,0,.087Zm-.45,0h-.035a.044.044,0,0,1,0-.087h.035a.044.044,0,0,1,0,.087Zm-.45,0h-.035a.044.044,0,0,1,0-.087h.035a.044.044,0,0,1,0,.087Zm-.45,0h-.035a.044.044,0,0,1,0-.087h.035a.044.044,0,0,1,0,.087Zm-.45,0h-.035a.044.044,0,0,1,0-.087h.035a.044.044,0,0,1,0,.087Zm-.45,0h-.035a.044.044,0,0,1,0-.087h.035a.044.044,0,0,1,0,.087Zm-.45,0H11.03a.044.044,0,0,1,0-.087h.035a.044.044,0,0,1,0,.087Zm-.45,0H10.58a.044.044,0,0,1,0-.087h.035a.044.044,0,0,1,0,.087Zm-.45,0H10.13a.044.044,0,0,1,0-.087h.035a.044.044,0,0,1,0,.087Zm-.45,0H9.68a.044.044,0,0,1,0-.087h.035a.044.044,0,0,1,0,.087Zm-.45,0H9.229a.044.044,0,0,1,0-.087h.035a.044.044,0,0,1,0,.087Zm-.45,0H8.779a.044.044,0,0,1,0-.087h.035a.044.044,0,0,1,0,.087Zm-.45,0H8.329a.044.044,0,0,1,0-.087h.035a.044.044,0,0,1,0,.087Zm-.45,0H7.879a.044.044,0,0,1,0-.087h.035a.044.044,0,0,1,0,.087Zm-.45,0H7.429a.044.044,0,0,1,0-.087h.035a.044.044,0,0,1,0,.087Zm-.45,0H6.979a.044.044,0,0,1,0-.087h.035a.044.044,0,0,1,0,.087Zm-.45,0H6.528a.044.044,0,0,1,0-.087h.035a.044.044,0,0,1,0,.087Zm-.45,0H6.078a.044.044,0,0,1,0-.087h.035a.044.044,0,0,1,0,.087Zm-.45,0H5.628a.044.044,0,0,1,0-.087h.035a.044.044,0,0,1,0,.087Zm-.45,0H5.178a.044.044,0,0,1,0-.087h.035a.044.044,0,0,1,0,.087Zm-.45,0H4.728a.044.044,0,0,1,0-.087h.035a.044.044,0,0,1,0,.087Zm-.45,0H4.277a.044.044,0,0,1,0-.087h.035a.044.044,0,0,1,0,.087Zm-.45,0H3.827a.044.044,0,0,1,0-.087h.035a.044.044,0,0,1,0,.087Zm-.45,0H3.377a.044.044,0,0,1,0-.087h.035a.044.044,0,0,1,0,.087Zm-.45,0H2.927a.044.044,0,0,1,0-.087h.035a.044.044,0,0,1,0,.087Zm-.45,0H2.477a.044.044,0,0,1,0-.087h.035a.044.044,0,0,1,0,.087Z" style="fill:#fff;opacity:0.5"/><path d="M29.956,12.9h-.017a.044.044,0,0,1,0-.087h.017a.044.044,0,1,1,0,.087Z" style="fill:#fff;opacity:0.5"/><path d="M2.061,6.618H2.043a.044.044,0,1,1,0-.087h.018a.044.044,0,0,1,0,.087Z" style="fill:#fff;opacity:0.5"/><path d="M29.523,6.618h-.034a.044.044,0,1,1,0-.087h.034a.044.044,0,0,1,0,.087Zm-.45,0h-.035a.044.044,0,1,1,0-.087h.035a.044.044,0,1,1,0,.087Zm-.45,0h-.035a.044.044,0,1,1,0-.087h.035a.044.044,0,1,1,0,.087Zm-.45,0h-.035a.044.044,0,1,1,0-.087h.035a.044.044,0,1,1,0,.087Zm-.45,0h-.034a.044.044,0,0,1,0-.087h.034a.044.044,0,1,1,0,.087Zm-.45,0h-.035a.044.044,0,0,1,0-.087h.035a.044.044,0,0,1,0,.087Zm-.45,0h-.035a.044.044,0,1,1,0-.087h.035a.044.044,0,1,1,0,.087Zm-.45,0h-.034a.044.044,0,1,1,0-.087h.034a.044.044,0,1,1,0,.087Zm-.45,0h-.035a.044.044,0,1,1,0-.087h.035a.044.044,0,1,1,0,.087Zm-.45,0h-.035a.044.044,0,0,1,0-.087h.035a.044.044,0,0,1,0,.087Zm-.45,0h-.035a.044.044,0,1,1,0-.087h.035a.044.044,0,1,1,0,.087Zm-.45,0h-.034a.044.044,0,1,1,0-.087h.034a.044.044,0,1,1,0,.087Zm-.45,0h-.035a.044.044,0,1,1,0-.087h.035a.044.044,0,1,1,0,.087Zm-.45,0h-.035a.044.044,0,0,1,0-.087h.035a.044.044,0,0,1,0,.087Zm-.45,0h-.034a.044.044,0,1,1,0-.087h.034a.044.044,0,0,1,0,.087Zm-.45,0h-.034a.044.044,0,1,1,0-.087h.034a.044.044,0,1,1,0,.087Zm-.45,0h-.035a.044.044,0,1,1,0-.087h.035a.044.044,0,1,1,0,.087Zm-.45,0h-.035a.044.044,0,1,1,0-.087h.035a.044.044,0,1,1,0,.087Zm-.45,0h-.034a.044.044,0,0,1,0-.087h.034a.044.044,0,0,1,0,.087Zm-.45,0h-.035a.044.044,0,1,1,0-.087h.035a.044.044,0,1,1,0,.087Zm-.45,0h-.035a.044.044,0,1,1,0-.087h.035a.044.044,0,1,1,0,.087Zm-.45,0h-.034a.044.044,0,1,1,0-.087h.034a.044.044,0,1,1,0,.087Zm-.45,0h-.034a.044.044,0,0,1,0-.087h.034a.044.044,0,1,1,0,.087Zm-.45,0h-.035a.044.044,0,0,1,0-.087h.035a.044.044,0,0,1,0,.087Zm-.45,0h-.035a.044.044,0,1,1,0-.087h.035a.044.044,0,1,1,0,.087Zm-.45,0h-.034a.044.044,0,1,1,0-.087h.034a.044.044,0,1,1,0,.087Zm-.45,0h-.035a.044.044,0,1,1,0-.087h.035a.044.044,0,1,1,0,.087Zm-.45,0h-.035a.044.044,0,0,1,0-.087h.035a.044.044,0,0,1,0,.087Zm-.45,0h-.035a.044.044,0,1,1,0-.087h.035a.044.044,0,1,1,0,.087Zm-.45,0h-.034a.044.044,0,1,1,0-.087h.034a.044.044,0,1,1,0,.087Zm-.45,0h-.035a.044.044,0,1,1,0-.087h.035a.044.044,0,1,1,0,.087Zm-.45,0h-.035a.044.044,0,0,1,0-.087h.035a.044.044,0,1,1,0,.087Zm-.45,0h-.035a.044.044,0,1,1,0-.087h.035a.044.044,0,1,1,0,.087Zm-.45,0h-.035a.044.044,0,1,1,0-.087h.035a.044.044,0,1,1,0,.087Zm-.45,0h-.035a.044.044,0,1,1,0-.087h.035a.044.044,0,1,1,0,.087Zm-.45,0h-.035a.044.044,0,1,1,0-.087h.035a.044.044,0,1,1,0,.087Zm-.45,0h-.035a.044.044,0,1,1,0-.087h.035a.044.044,0,1,1,0,.087Zm-.45,0h-.035a.044.044,0,1,1,0-.087h.035a.044.044,0,0,1,0,.087Zm-.45,0h-.035a.044.044,0,1,1,0-.087h.035a.044.044,0,1,1,0,.087Zm-.45,0h-.035a.044.044,0,1,1,0-.087h.035a.044.044,0,0,1,0,.087Zm-.45,0h-.035a.044.044,0,1,1,0-.087h.035a.044.044,0,1,1,0,.087Zm-.45,0H11.03a.044.044,0,1,1,0-.087h.035a.044.044,0,0,1,0,.087Zm-.45,0H10.58a.044.044,0,1,1,0-.087h.035a.044.044,0,1,1,0,.087Zm-.45,0H10.13a.044.044,0,0,1,0-.087h.035a.044.044,0,0,1,0,.087Zm-.45,0H9.68a.044.044,0,0,1,0-.087h.035a.044.044,0,0,1,0,.087Zm-.45,0H9.229a.044.044,0,0,1,0-.087h.035a.044.044,0,1,1,0,.087Zm-.45,0H8.779a.044.044,0,1,1,0-.087h.035a.044.044,0,1,1,0,.087Zm-.45,0H8.329a.044.044,0,0,1,0-.087h.035a.044.044,0,0,1,0,.087Zm-.45,0H7.879a.044.044,0,0,1,0-.087h.035a.044.044,0,0,1,0,.087Zm-.45,0H7.429a.044.044,0,1,1,0-.087h.035a.044.044,0,0,1,0,.087Zm-.45,0H6.979a.044.044,0,1,1,0-.087h.035a.044.044,0,1,1,0,.087Zm-.45,0H6.528a.044.044,0,1,1,0-.087h.035a.044.044,0,0,1,0,.087Zm-.45,0H6.078a.044.044,0,1,1,0-.087h.035a.044.044,0,0,1,0,.087Zm-.45,0H5.628a.044.044,0,1,1,0-.087h.035a.044.044,0,0,1,0,.087Zm-.45,0H5.178a.044.044,0,1,1,0-.087h.035a.044.044,0,1,1,0,.087Zm-.45,0H4.728a.044.044,0,1,1,0-.087h.035a.044.044,0,0,1,0,.087Zm-.45,0H4.277a.044.044,0,0,1,0-.087h.035a.044.044,0,0,1,0,.087Zm-.45,0H3.827a.044.044,0,0,1,0-.087h.035a.044.044,0,0,1,0,.087Zm-.45,0H3.377a.044.044,0,0,1,0-.087h.035a.044.044,0,0,1,0,.087Zm-.45,0H2.927a.044.044,0,0,1,0-.087h.035a.044.044,0,0,1,0,.087Zm-.45,0H2.477a.044.044,0,1,1,0-.087h.035a.044.044,0,1,1,0,.087Z" style="fill:#fff;opacity:0.5"/><path d="M29.956,6.618h-.017a.044.044,0,0,1,0-.087h.017a.044.044,0,1,1,0,.087Z" style="fill:#fff;opacity:0.5"/><path d="M2.061,9.759H2.043a.044.044,0,0,1,0-.087h.018a.044.044,0,1,1,0,.087Z" style="fill:#fff;opacity:0.5"/><path d="M29.523,9.759h-.034a.044.044,0,1,1,0-.087h.034a.044.044,0,0,1,0,.087Zm-.45,0h-.035a.044.044,0,1,1,0-.087h.035a.044.044,0,1,1,0,.087Zm-.45,0h-.035a.044.044,0,1,1,0-.087h.035a.044.044,0,1,1,0,.087Zm-.45,0h-.035a.044.044,0,1,1,0-.087h.035a.044.044,0,1,1,0,.087Zm-.45,0h-.034a.044.044,0,0,1,0-.087h.034a.044.044,0,1,1,0,.087Zm-.45,0h-.035a.044.044,0,0,1,0-.087h.035a.044.044,0,0,1,0,.087Zm-.45,0h-.035a.044.044,0,1,1,0-.087h.035a.044.044,0,1,1,0,.087Zm-.45,0h-.034a.044.044,0,1,1,0-.087h.034a.044.044,0,1,1,0,.087Zm-.45,0h-.035a.044.044,0,1,1,0-.087h.035a.044.044,0,1,1,0,.087Zm-.45,0h-.035a.044.044,0,0,1,0-.087h.035a.044.044,0,0,1,0,.087Zm-.45,0h-.035a.044.044,0,1,1,0-.087h.035a.044.044,0,1,1,0,.087Zm-.45,0h-.034a.044.044,0,1,1,0-.087h.034a.044.044,0,1,1,0,.087Zm-.45,0h-.035a.044.044,0,1,1,0-.087h.035a.044.044,0,1,1,0,.087Zm-.45,0h-.035a.044.044,0,0,1,0-.087h.035a.044.044,0,0,1,0,.087Zm-.45,0h-.034a.044.044,0,1,1,0-.087h.034a.044.044,0,0,1,0,.087Zm-.45,0h-.034a.044.044,0,1,1,0-.087h.034a.044.044,0,1,1,0,.087Zm-.45,0h-.035a.044.044,0,1,1,0-.087h.035a.044.044,0,1,1,0,.087Zm-.45,0h-.035a.044.044,0,1,1,0-.087h.035a.044.044,0,1,1,0,.087Zm-.45,0h-.034a.044.044,0,0,1,0-.087h.034a.044.044,0,0,1,0,.087Zm-.45,0h-.035a.044.044,0,1,1,0-.087h.035a.044.044,0,1,1,0,.087Zm-.45,0h-.035a.044.044,0,1,1,0-.087h.035a.044.044,0,1,1,0,.087Zm-.45,0h-.034a.044.044,0,1,1,0-.087h.034a.044.044,0,1,1,0,.087Zm-.45,0h-.034a.044.044,0,0,1,0-.087h.034a.044.044,0,1,1,0,.087Zm-.45,0h-.035a.044.044,0,0,1,0-.087h.035a.044.044,0,0,1,0,.087Zm-.45,0h-.035a.044.044,0,1,1,0-.087h.035a.044.044,0,1,1,0,.087Zm-.45,0h-.034a.044.044,0,1,1,0-.087h.034a.044.044,0,1,1,0,.087Zm-.45,0h-.035a.044.044,0,1,1,0-.087h.035a.044.044,0,1,1,0,.087Zm-.45,0h-.035a.044.044,0,0,1,0-.087h.035a.044.044,0,0,1,0,.087Zm-.45,0h-.035a.044.044,0,1,1,0-.087h.035a.044.044,0,1,1,0,.087Zm-.45,0h-.034a.044.044,0,1,1,0-.087h.034a.044.044,0,1,1,0,.087Zm-.45,0h-.035a.044.044,0,1,1,0-.087h.035a.044.044,0,1,1,0,.087Zm-.45,0h-.035a.044.044,0,0,1,0-.087h.035a.044.044,0,1,1,0,.087Zm-.45,0h-.035a.044.044,0,1,1,0-.087h.035a.044.044,0,1,1,0,.087Zm-.45,0h-.035a.044.044,0,1,1,0-.087h.035a.044.044,0,1,1,0,.087Zm-.45,0h-.035a.044.044,0,1,1,0-.087h.035a.044.044,0,1,1,0,.087Zm-.45,0h-.035a.044.044,0,1,1,0-.087h.035a.044.044,0,1,1,0,.087Zm-.45,0h-.035a.044.044,0,1,1,0-.087h.035a.044.044,0,1,1,0,.087Zm-.45,0h-.035a.044.044,0,1,1,0-.087h.035a.044.044,0,0,1,0,.087Zm-.45,0h-.035a.044.044,0,1,1,0-.087h.035a.044.044,0,1,1,0,.087Zm-.45,0h-.035a.044.044,0,1,1,0-.087h.035a.044.044,0,0,1,0,.087Zm-.45,0h-.035a.044.044,0,1,1,0-.087h.035a.044.044,0,1,1,0,.087Zm-.45,0H11.03a.044.044,0,1,1,0-.087h.035a.044.044,0,0,1,0,.087Zm-.45,0H10.58a.044.044,0,1,1,0-.087h.035a.044.044,0,1,1,0,.087Zm-.45,0H10.13a.044.044,0,0,1,0-.087h.035a.044.044,0,0,1,0,.087Zm-.45,0H9.68a.044.044,0,1,1,0-.087h.035a.044.044,0,0,1,0,.087Zm-.45,0H9.229a.044.044,0,1,1,0-.087h.035a.044.044,0,1,1,0,.087Zm-.45,0H8.779a.044.044,0,1,1,0-.087h.035a.044.044,0,1,1,0,.087Zm-.45,0H8.329a.044.044,0,0,1,0-.087h.035a.044.044,0,1,1,0,.087Zm-.45,0H7.879a.044.044,0,1,1,0-.087h.035a.044.044,0,0,1,0,.087Zm-.45,0H7.429a.044.044,0,1,1,0-.087h.035a.044.044,0,0,1,0,.087Zm-.45,0H6.979a.044.044,0,1,1,0-.087h.035a.044.044,0,1,1,0,.087Zm-.45,0H6.528a.044.044,0,1,1,0-.087h.035a.044.044,0,0,1,0,.087Zm-.45,0H6.078a.044.044,0,1,1,0-.087h.035a.044.044,0,0,1,0,.087Zm-.45,0H5.628a.044.044,0,1,1,0-.087h.035a.044.044,0,0,1,0,.087Zm-.45,0H5.178a.044.044,0,1,1,0-.087h.035a.044.044,0,1,1,0,.087Zm-.45,0H4.728a.044.044,0,1,1,0-.087h.035a.044.044,0,0,1,0,.087Zm-.45,0H4.277a.044.044,0,1,1,0-.087h.035a.044.044,0,0,1,0,.087Zm-.45,0H3.827a.044.044,0,0,1,0-.087h.035a.044.044,0,1,1,0,.087Zm-.45,0H3.377a.044.044,0,1,1,0-.087h.035a.044.044,0,1,1,0,.087Zm-.45,0H2.927a.044.044,0,0,1,0-.087h.035a.044.044,0,1,1,0,.087Zm-.45,0H2.477a.044.044,0,0,1,0-.087h.035a.044.044,0,0,1,0,.087Z" style="fill:#fff;opacity:0.5"/><path d="M29.956,9.759h-.017a.044.044,0,0,1,0-.087h.017a.044.044,0,1,1,0,.087Z" style="fill:#fff;opacity:0.5"/><path d="M2.061,19.18H2.043a.044.044,0,1,1,0-.087h.018a.044.044,0,1,1,0,.087Z" style="fill:#fff;opacity:0.5"/><path d="M29.523,19.18h-.034a.044.044,0,1,1,0-.087h.034a.044.044,0,0,1,0,.087Zm-.45,0h-.035a.044.044,0,1,1,0-.087h.035a.044.044,0,1,1,0,.087Zm-.45,0h-.035a.044.044,0,1,1,0-.087h.035a.044.044,0,1,1,0,.087Zm-.45,0h-.035a.044.044,0,1,1,0-.087h.035a.044.044,0,1,1,0,.087Zm-.45,0h-.034a.044.044,0,0,1,0-.087h.034a.044.044,0,1,1,0,.087Zm-.45,0h-.035a.044.044,0,0,1,0-.087h.035a.044.044,0,0,1,0,.087Zm-.45,0h-.035a.044.044,0,1,1,0-.087h.035a.044.044,0,1,1,0,.087Zm-.45,0h-.034a.044.044,0,1,1,0-.087h.034a.044.044,0,1,1,0,.087Zm-.45,0h-.035a.044.044,0,1,1,0-.087h.035a.044.044,0,1,1,0,.087Zm-.45,0h-.035a.044.044,0,0,1,0-.087h.035a.044.044,0,0,1,0,.087Zm-.45,0h-.035a.044.044,0,1,1,0-.087h.035a.044.044,0,1,1,0,.087Zm-.45,0h-.034a.044.044,0,1,1,0-.087h.034a.044.044,0,1,1,0,.087Zm-.45,0h-.035a.044.044,0,1,1,0-.087h.035a.044.044,0,1,1,0,.087Zm-.45,0h-.035a.044.044,0,0,1,0-.087h.035a.044.044,0,0,1,0,.087Zm-.45,0h-.034a.044.044,0,1,1,0-.087h.034a.044.044,0,0,1,0,.087Zm-.45,0h-.034a.044.044,0,1,1,0-.087h.034a.044.044,0,1,1,0,.087Zm-.45,0h-.035a.044.044,0,1,1,0-.087h.035a.044.044,0,1,1,0,.087Zm-.45,0h-.035a.044.044,0,1,1,0-.087h.035a.044.044,0,1,1,0,.087Zm-.45,0h-.034a.044.044,0,0,1,0-.087h.034a.044.044,0,0,1,0,.087Zm-.45,0h-.035a.044.044,0,1,1,0-.087h.035a.044.044,0,1,1,0,.087Zm-.45,0h-.035a.044.044,0,1,1,0-.087h.035a.044.044,0,1,1,0,.087Zm-.45,0h-.034a.044.044,0,1,1,0-.087h.034a.044.044,0,1,1,0,.087Zm-.45,0h-.034a.044.044,0,0,1,0-.087h.034a.044.044,0,1,1,0,.087Zm-.45,0h-.035a.044.044,0,0,1,0-.087h.035a.044.044,0,0,1,0,.087Zm-.45,0h-.035a.044.044,0,1,1,0-.087h.035a.044.044,0,1,1,0,.087Zm-.45,0h-.034a.044.044,0,1,1,0-.087h.034a.044.044,0,1,1,0,.087Zm-.45,0h-.035a.044.044,0,1,1,0-.087h.035a.044.044,0,1,1,0,.087Zm-.45,0h-.035a.044.044,0,0,1,0-.087h.035a.044.044,0,0,1,0,.087Zm-.45,0h-.035a.044.044,0,1,1,0-.087h.035a.044.044,0,1,1,0,.087Zm-.45,0h-.034a.044.044,0,1,1,0-.087h.034a.044.044,0,1,1,0,.087Zm-.45,0h-.035a.044.044,0,1,1,0-.087h.035a.044.044,0,1,1,0,.087Zm-.45,0h-.035a.044.044,0,0,1,0-.087h.035a.044.044,0,1,1,0,.087Zm-.45,0h-.035a.044.044,0,1,1,0-.087h.035a.044.044,0,1,1,0,.087Zm-.45,0h-.035a.044.044,0,1,1,0-.087h.035a.044.044,0,1,1,0,.087Zm-.45,0h-.035a.044.044,0,1,1,0-.087h.035a.044.044,0,1,1,0,.087Zm-.45,0h-.035a.044.044,0,1,1,0-.087h.035a.044.044,0,1,1,0,.087Zm-.45,0h-.035a.044.044,0,1,1,0-.087h.035a.044.044,0,1,1,0,.087Zm-.45,0h-.035a.044.044,0,1,1,0-.087h.035a.044.044,0,0,1,0,.087Zm-.45,0h-.035a.044.044,0,1,1,0-.087h.035a.044.044,0,1,1,0,.087Zm-.45,0h-.035a.044.044,0,1,1,0-.087h.035a.044.044,0,0,1,0,.087Zm-.45,0h-.035a.044.044,0,1,1,0-.087h.035a.044.044,0,1,1,0,.087Zm-.45,0H11.03a.044.044,0,1,1,0-.087h.035a.044.044,0,0,1,0,.087Zm-.45,0H10.58a.044.044,0,1,1,0-.087h.035a.044.044,0,1,1,0,.087Zm-.45,0H10.13a.044.044,0,0,1,0-.087h.035a.044.044,0,0,1,0,.087Zm-.45,0H9.68a.044.044,0,1,1,0-.087h.035a.044.044,0,1,1,0,.087Zm-.45,0H9.229a.044.044,0,1,1,0-.087h.035a.044.044,0,1,1,0,.087Zm-.45,0H8.779a.044.044,0,1,1,0-.087h.035a.044.044,0,1,1,0,.087Zm-.45,0H8.329a.044.044,0,1,1,0-.087h.035a.044.044,0,1,1,0,.087Zm-.45,0H7.879a.044.044,0,1,1,0-.087h.035a.044.044,0,1,1,0,.087Zm-.45,0H7.429a.044.044,0,1,1,0-.087h.035a.044.044,0,1,1,0,.087Zm-.45,0H6.979a.044.044,0,1,1,0-.087h.035a.044.044,0,1,1,0,.087Zm-.45,0H6.528a.044.044,0,1,1,0-.087h.035a.044.044,0,1,1,0,.087Zm-.45,0H6.078a.044.044,0,1,1,0-.087h.035a.044.044,0,1,1,0,.087Zm-.45,0H5.628a.044.044,0,1,1,0-.087h.035a.044.044,0,1,1,0,.087Zm-.45,0H5.178a.044.044,0,1,1,0-.087h.035a.044.044,0,1,1,0,.087Zm-.45,0H4.728a.044.044,0,1,1,0-.087h.035a.044.044,0,1,1,0,.087Zm-.45,0H4.277a.044.044,0,1,1,0-.087h.035a.044.044,0,1,1,0,.087Zm-.45,0H3.827a.044.044,0,1,1,0-.087h.035a.044.044,0,1,1,0,.087Zm-.45,0H3.377a.044.044,0,1,1,0-.087h.035a.044.044,0,1,1,0,.087Zm-.45,0H2.927a.044.044,0,1,1,0-.087h.035a.044.044,0,1,1,0,.087Zm-.45,0H2.477a.044.044,0,1,1,0-.087h.035a.044.044,0,1,1,0,.087Z" style="fill:#fff;opacity:0.5"/><path d="M29.956,19.18h-.017a.044.044,0,0,1,0-.087h.017a.044.044,0,1,1,0,.087Z" style="fill:#fff;opacity:0.5"/><path d="M2.061,22.32H2.043a.044.044,0,0,1,0-.087h.018a.044.044,0,0,1,0,.087Z" style="fill:#fff;opacity:0.5"/><path d="M29.523,22.32h-.034a.044.044,0,1,1,0-.087h.034a.044.044,0,0,1,0,.087Zm-.45,0h-.035a.044.044,0,1,1,0-.087h.035a.044.044,0,0,1,0,.087Zm-.45,0h-.035a.044.044,0,1,1,0-.087h.035a.044.044,0,1,1,0,.087Zm-.45,0h-.035a.044.044,0,1,1,0-.087h.035a.044.044,0,0,1,0,.087Zm-.45,0h-.034a.044.044,0,0,1,0-.087h.034a.044.044,0,0,1,0,.087Zm-.45,0h-.035a.044.044,0,0,1,0-.087h.035a.044.044,0,0,1,0,.087Zm-.45,0h-.035a.044.044,0,1,1,0-.087h.035a.044.044,0,0,1,0,.087Zm-.45,0h-.034a.044.044,0,1,1,0-.087h.034a.044.044,0,0,1,0,.087Zm-.45,0h-.035a.044.044,0,1,1,0-.087h.035a.044.044,0,1,1,0,.087Zm-.45,0h-.035a.044.044,0,0,1,0-.087h.035a.044.044,0,0,1,0,.087Zm-.45,0h-.035a.044.044,0,1,1,0-.087h.035a.044.044,0,0,1,0,.087Zm-.45,0h-.034a.044.044,0,1,1,0-.087h.034a.044.044,0,1,1,0,.087Zm-.45,0h-.035a.044.044,0,1,1,0-.087h.035a.044.044,0,1,1,0,.087Zm-.45,0h-.035a.044.044,0,0,1,0-.087h.035a.044.044,0,0,1,0,.087Zm-.45,0h-.034a.044.044,0,1,1,0-.087h.034a.044.044,0,0,1,0,.087Zm-.45,0h-.034a.044.044,0,1,1,0-.087h.034a.044.044,0,0,1,0,.087Zm-.45,0h-.035a.044.044,0,1,1,0-.087h.035a.044.044,0,0,1,0,.087Zm-.45,0h-.035a.044.044,0,1,1,0-.087h.035a.044.044,0,1,1,0,.087Zm-.45,0h-.034a.044.044,0,0,1,0-.087h.034a.044.044,0,0,1,0,.087Zm-.45,0h-.035a.044.044,0,1,1,0-.087h.035a.044.044,0,0,1,0,.087Zm-.45,0h-.035a.044.044,0,1,1,0-.087h.035a.044.044,0,1,1,0,.087Zm-.45,0h-.034a.044.044,0,0,1,0-.087h.034a.044.044,0,1,1,0,.087Zm-.45,0h-.034a.044.044,0,0,1,0-.087h.034a.044.044,0,1,1,0,.087Zm-.45,0h-.035a.044.044,0,0,1,0-.087h.035a.044.044,0,0,1,0,.087Zm-.45,0h-.035a.044.044,0,1,1,0-.087h.035a.044.044,0,1,1,0,.087Zm-.45,0h-.034a.044.044,0,1,1,0-.087h.034a.044.044,0,0,1,0,.087Zm-.45,0h-.035a.044.044,0,1,1,0-.087h.035a.044.044,0,0,1,0,.087Zm-.45,0h-.035a.044.044,0,0,1,0-.087h.035a.044.044,0,0,1,0,.087Zm-.45,0h-.035a.044.044,0,1,1,0-.087h.035a.044.044,0,0,1,0,.087Zm-.45,0h-.034a.044.044,0,1,1,0-.087h.034a.044.044,0,0,1,0,.087Zm-.45,0h-.035a.044.044,0,1,1,0-.087h.035a.044.044,0,0,1,0,.087Zm-.45,0h-.035a.044.044,0,0,1,0-.087h.035a.044.044,0,0,1,0,.087Zm-.45,0h-.035a.044.044,0,0,1,0-.087h.035a.044.044,0,0,1,0,.087Zm-.45,0h-.035a.044.044,0,1,1,0-.087h.035a.044.044,0,0,1,0,.087Zm-.45,0h-.035a.044.044,0,1,1,0-.087h.035a.044.044,0,0,1,0,.087Zm-.45,0h-.035a.044.044,0,0,1,0-.087h.035a.044.044,0,0,1,0,.087Zm-.45,0h-.035a.044.044,0,0,1,0-.087h.035a.044.044,0,0,1,0,.087Zm-.45,0h-.035a.044.044,0,0,1,0-.087h.035a.044.044,0,0,1,0,.087Zm-.45,0h-.035a.044.044,0,1,1,0-.087h.035a.044.044,0,0,1,0,.087Zm-.45,0h-.035a.044.044,0,1,1,0-.087h.035a.044.044,0,0,1,0,.087Zm-.45,0h-.035a.044.044,0,0,1,0-.087h.035a.044.044,0,1,1,0,.087Zm-.45,0H11.03a.044.044,0,0,1,0-.087h.035a.044.044,0,0,1,0,.087Zm-.45,0H10.58a.044.044,0,1,1,0-.087h.035a.044.044,0,1,1,0,.087Zm-.45,0H10.13a.044.044,0,0,1,0-.087h.035a.044.044,0,0,1,0,.087Zm-.45,0H9.68a.044.044,0,0,1,0-.087h.035a.044.044,0,0,1,0,.087Zm-.45,0H9.229a.044.044,0,0,1,0-.087h.035a.044.044,0,0,1,0,.087Zm-.45,0H8.779a.044.044,0,0,1,0-.087h.035a.044.044,0,0,1,0,.087Zm-.45,0H8.329a.044.044,0,0,1,0-.087h.035a.044.044,0,0,1,0,.087Zm-.45,0H7.879a.044.044,0,0,1,0-.087h.035a.044.044,0,0,1,0,.087Zm-.45,0H7.429a.044.044,0,0,1,0-.087h.035a.044.044,0,0,1,0,.087Zm-.45,0H6.979a.044.044,0,0,1,0-.087h.035a.044.044,0,0,1,0,.087Zm-.45,0H6.528a.044.044,0,0,1,0-.087h.035a.044.044,0,0,1,0,.087Zm-.45,0H6.078a.044.044,0,0,1,0-.087h.035a.044.044,0,0,1,0,.087Zm-.45,0H5.628a.044.044,0,0,1,0-.087h.035a.044.044,0,0,1,0,.087Zm-.45,0H5.178a.044.044,0,0,1,0-.087h.035a.044.044,0,0,1,0,.087Zm-.45,0H4.728a.044.044,0,0,1,0-.087h.035a.044.044,0,0,1,0,.087Zm-.45,0H4.277a.044.044,0,0,1,0-.087h.035a.044.044,0,0,1,0,.087Zm-.45,0H3.827a.044.044,0,0,1,0-.087h.035a.044.044,0,0,1,0,.087Zm-.45,0H3.377a.044.044,0,0,1,0-.087h.035a.044.044,0,0,1,0,.087Zm-.45,0H2.927a.044.044,0,0,1,0-.087h.035a.044.044,0,0,1,0,.087Zm-.45,0H2.477a.044.044,0,0,1,0-.087h.035a.044.044,0,0,1,0,.087Z" style="fill:#fff;opacity:0.5"/><path d="M29.956,22.32h-.017a.044.044,0,0,1,0-.087h.017a.044.044,0,0,1,0,.087Z" style="fill:#fff;opacity:0.5"/><path d="M2.061,25.461H2.043a.044.044,0,1,1,0-.087h.018a.044.044,0,1,1,0,.087Z" style="fill:#fff;opacity:0.5"/><path d="M29.523,25.461h-.034a.044.044,0,1,1,0-.087h.034a.044.044,0,0,1,0,.087Zm-.45,0h-.035a.044.044,0,1,1,0-.087h.035a.044.044,0,1,1,0,.087Zm-.45,0h-.035a.044.044,0,1,1,0-.087h.035a.044.044,0,1,1,0,.087Zm-.45,0h-.035a.044.044,0,1,1,0-.087h.035a.044.044,0,1,1,0,.087Zm-.45,0h-.034a.044.044,0,0,1,0-.087h.034a.044.044,0,1,1,0,.087Zm-.45,0h-.035a.044.044,0,0,1,0-.087h.035a.044.044,0,0,1,0,.087Zm-.45,0h-.035a.044.044,0,1,1,0-.087h.035a.044.044,0,1,1,0,.087Zm-.45,0h-.034a.044.044,0,1,1,0-.087h.034a.044.044,0,1,1,0,.087Zm-.45,0h-.035a.044.044,0,1,1,0-.087h.035a.044.044,0,1,1,0,.087Zm-.45,0h-.035a.044.044,0,0,1,0-.087h.035a.044.044,0,0,1,0,.087Zm-.45,0h-.035a.044.044,0,1,1,0-.087h.035a.044.044,0,1,1,0,.087Zm-.45,0h-.034a.044.044,0,1,1,0-.087h.034a.044.044,0,1,1,0,.087Zm-.45,0h-.035a.044.044,0,1,1,0-.087h.035a.044.044,0,1,1,0,.087Zm-.45,0h-.035a.044.044,0,0,1,0-.087h.035a.044.044,0,0,1,0,.087Zm-.45,0h-.034a.044.044,0,1,1,0-.087h.034a.044.044,0,0,1,0,.087Zm-.45,0h-.034a.044.044,0,1,1,0-.087h.034a.044.044,0,1,1,0,.087Zm-.45,0h-.035a.044.044,0,1,1,0-.087h.035a.044.044,0,1,1,0,.087Zm-.45,0h-.035a.044.044,0,1,1,0-.087h.035a.044.044,0,1,1,0,.087Zm-.45,0h-.034a.044.044,0,0,1,0-.087h.034a.044.044,0,0,1,0,.087Zm-.45,0h-.035a.044.044,0,1,1,0-.087h.035a.044.044,0,1,1,0,.087Zm-.45,0h-.035a.044.044,0,1,1,0-.087h.035a.044.044,0,1,1,0,.087Zm-.45,0h-.034a.044.044,0,1,1,0-.087h.034a.044.044,0,1,1,0,.087Zm-.45,0h-.034a.044.044,0,0,1,0-.087h.034a.044.044,0,1,1,0,.087Zm-.45,0h-.035a.044.044,0,0,1,0-.087h.035a.044.044,0,0,1,0,.087Zm-.45,0h-.035a.044.044,0,1,1,0-.087h.035a.044.044,0,1,1,0,.087Zm-.45,0h-.034a.044.044,0,1,1,0-.087h.034a.044.044,0,1,1,0,.087Zm-.45,0h-.035a.044.044,0,1,1,0-.087h.035a.044.044,0,1,1,0,.087Zm-.45,0h-.035a.044.044,0,0,1,0-.087h.035a.044.044,0,0,1,0,.087Zm-.45,0h-.035a.044.044,0,1,1,0-.087h.035a.044.044,0,1,1,0,.087Zm-.45,0h-.034a.044.044,0,1,1,0-.087h.034a.044.044,0,1,1,0,.087Zm-.45,0h-.035a.044.044,0,1,1,0-.087h.035a.044.044,0,1,1,0,.087Zm-.45,0h-.035a.044.044,0,0,1,0-.087h.035a.044.044,0,1,1,0,.087Zm-.45,0h-.035a.044.044,0,1,1,0-.087h.035a.044.044,0,1,1,0,.087Zm-.45,0h-.035a.044.044,0,1,1,0-.087h.035a.044.044,0,1,1,0,.087Zm-.45,0h-.035a.044.044,0,1,1,0-.087h.035a.044.044,0,1,1,0,.087Zm-.45,0h-.035a.044.044,0,1,1,0-.087h.035a.044.044,0,1,1,0,.087Zm-.45,0h-.035a.044.044,0,1,1,0-.087h.035a.044.044,0,1,1,0,.087Zm-.45,0h-.035a.044.044,0,1,1,0-.087h.035a.044.044,0,0,1,0,.087Zm-.45,0h-.035a.044.044,0,1,1,0-.087h.035a.044.044,0,1,1,0,.087Zm-.45,0h-.035a.044.044,0,1,1,0-.087h.035a.044.044,0,0,1,0,.087Zm-.45,0h-.035a.044.044,0,1,1,0-.087h.035a.044.044,0,1,1,0,.087Zm-.45,0H11.03a.044.044,0,1,1,0-.087h.035a.044.044,0,0,1,0,.087Zm-.45,0H10.58a.044.044,0,1,1,0-.087h.035a.044.044,0,1,1,0,.087Zm-.45,0H10.13a.044.044,0,0,1,0-.087h.035a.044.044,0,0,1,0,.087Zm-.45,0H9.68a.044.044,0,1,1,0-.087h.035a.044.044,0,1,1,0,.087Zm-.45,0H9.229a.044.044,0,1,1,0-.087h.035a.044.044,0,1,1,0,.087Zm-.45,0H8.779a.044.044,0,1,1,0-.087h.035a.044.044,0,1,1,0,.087Zm-.45,0H8.329a.044.044,0,1,1,0-.087h.035a.044.044,0,1,1,0,.087Zm-.45,0H7.879a.044.044,0,1,1,0-.087h.035a.044.044,0,1,1,0,.087Zm-.45,0H7.429a.044.044,0,1,1,0-.087h.035a.044.044,0,1,1,0,.087Zm-.45,0H6.979a.044.044,0,1,1,0-.087h.035a.044.044,0,1,1,0,.087Zm-.45,0H6.528a.044.044,0,1,1,0-.087h.035a.044.044,0,1,1,0,.087Zm-.45,0H6.078a.044.044,0,1,1,0-.087h.035a.044.044,0,1,1,0,.087Zm-.45,0H5.628a.044.044,0,1,1,0-.087h.035a.044.044,0,1,1,0,.087Zm-.45,0H5.178a.044.044,0,1,1,0-.087h.035a.044.044,0,1,1,0,.087Zm-.45,0H4.728a.044.044,0,1,1,0-.087h.035a.044.044,0,1,1,0,.087Zm-.45,0H4.277a.044.044,0,1,1,0-.087h.035a.044.044,0,1,1,0,.087Zm-.45,0H3.827a.044.044,0,1,1,0-.087h.035a.044.044,0,1,1,0,.087Zm-.45,0H3.377a.044.044,0,1,1,0-.087h.035a.044.044,0,1,1,0,.087Zm-.45,0H2.927a.044.044,0,1,1,0-.087h.035a.044.044,0,1,1,0,.087Zm-.45,0H2.477a.044.044,0,1,1,0-.087h.035a.044.044,0,1,1,0,.087Z" style="fill:#fff;opacity:0.5"/><path d="M29.956,25.461h-.017a.044.044,0,0,1,0-.087h.017a.044.044,0,1,1,0,.087Z" style="fill:#fff;opacity:0.5"/><rect x="15.956" y="2.044" width="0.087" height="27.913" style="fill:#fff;opacity:0.5"/><rect x="28.517" y="2.044" width="0.087" height="27.913" style="fill:#fff;opacity:0.5"/><rect x="3.395" y="2.044" width="0.087" height="27.913" style="fill:#fff;opacity:0.5"/><path d="M19.14,30a.043.043,0,0,1-.044-.044v-.018a.044.044,0,0,1,.087,0v.018A.043.043,0,0,1,19.14,30Z" style="fill:#fff;opacity:0.5"/><path d="M19.14,29.567a.043.043,0,0,1-.044-.044v-.035a.044.044,0,1,1,.087,0v.035A.043.043,0,0,1,19.14,29.567Zm0-.45a.043.043,0,0,1-.044-.044v-.035a.044.044,0,0,1,.087,0v.035A.043.043,0,0,1,19.14,29.117Zm0-.45a.043.043,0,0,1-.044-.044v-.034a.044.044,0,0,1,.087,0v.034A.043.043,0,0,1,19.14,28.666Zm0-.45a.043.043,0,0,1-.044-.044v-.034a.044.044,0,1,1,.087,0v.034A.043.043,0,0,1,19.14,28.216Zm0-.45a.043.043,0,0,1-.044-.044v-.035a.044.044,0,1,1,.087,0v.035A.043.043,0,0,1,19.14,27.766Zm0-.45a.043.043,0,0,1-.044-.044v-.035a.044.044,0,0,1,.087,0v.035A.043.043,0,0,1,19.14,27.316Zm0-.45a.043.043,0,0,1-.044-.044v-.034a.044.044,0,0,1,.087,0v.034A.043.043,0,0,1,19.14,26.866Zm0-.45a.043.043,0,0,1-.044-.044v-.035a.044.044,0,1,1,.087,0v.035A.043.043,0,0,1,19.14,26.416Zm0-.45a.043.043,0,0,1-.044-.044v-.035a.044.044,0,0,1,.087,0v.035A.043.043,0,0,1,19.14,25.965Zm0-.45a.043.043,0,0,1-.044-.044v-.034a.044.044,0,1,1,.087,0v.034A.043.043,0,0,1,19.14,25.515Zm0-.45a.043.043,0,0,1-.044-.044v-.034a.044.044,0,0,1,.087,0v.034A.043.043,0,0,1,19.14,25.065Zm0-.45a.043.043,0,0,1-.044-.044v-.035a.044.044,0,0,1,.087,0v.035A.043.043,0,0,1,19.14,24.615Zm0-.45a.043.043,0,0,1-.044-.044v-.035a.044.044,0,0,1,.087,0v.035A.043.043,0,0,1,19.14,24.165Zm0-.45a.043.043,0,0,1-.044-.044v-.034a.044.044,0,1,1,.087,0v.034A.043.043,0,0,1,19.14,23.714Zm0-.45a.043.043,0,0,1-.044-.044v-.035a.044.044,0,1,1,.087,0v.035A.043.043,0,0,1,19.14,23.264Zm0-.45a.043.043,0,0,1-.044-.044v-.035a.044.044,0,0,1,.087,0v.035A.043.043,0,0,1,19.14,22.814Zm0-.45a.043.043,0,0,1-.044-.044v-.035a.044.044,0,1,1,.087,0v.035A.043.043,0,0,1,19.14,22.364Zm0-.45a.043.043,0,0,1-.044-.044v-.034a.044.044,0,0,1,.087,0v.034A.043.043,0,0,1,19.14,21.913Zm0-.45a.043.043,0,0,1-.044-.044v-.035a.044.044,0,0,1,.087,0v.035A.043.043,0,0,1,19.14,21.463Zm0-.45a.043.043,0,0,1-.044-.044v-.035a.044.044,0,0,1,.087,0v.035A.043.043,0,0,1,19.14,21.013Zm0-.45a.043.043,0,0,1-.044-.044v-.034a.044.044,0,1,1,.087,0v.034A.043.043,0,0,1,19.14,20.563Zm0-.45a.043.043,0,0,1-.044-.044v-.034a.044.044,0,0,1,.087,0v.034A.043.043,0,0,1,19.14,20.113Zm0-.45a.043.043,0,0,1-.044-.044v-.035a.044.044,0,1,1,.087,0v.035A.043.043,0,0,1,19.14,19.663Zm0-.45a.043.043,0,0,1-.044-.044v-.035a.044.044,0,1,1,.087,0v.035A.043.043,0,0,1,19.14,19.213Zm0-.45a.043.043,0,0,1-.044-.044v-.034a.044.044,0,0,1,.087,0v.034A.043.043,0,0,1,19.14,18.762Zm0-.45a.043.043,0,0,1-.044-.044v-.035a.044.044,0,0,1,.087,0v.035A.043.043,0,0,1,19.14,18.312Zm0-.45a.043.043,0,0,1-.044-.044v-.035a.044.044,0,1,1,.087,0v.035A.043.043,0,0,1,19.14,17.862Zm0-.45a.043.043,0,0,1-.044-.044v-.034a.044.044,0,0,1,.087,0v.034A.043.043,0,0,1,19.14,17.411Zm0-.45a.043.043,0,0,1-.044-.044v-.034a.044.044,0,0,1,.087,0v.034A.043.043,0,0,1,19.14,16.961Zm0-.45a.043.043,0,0,1-.044-.044v-.035a.044.044,0,0,1,.087,0v.035A.043.043,0,0,1,19.14,16.511Zm0-.45a.043.043,0,0,1-.044-.044v-.035a.044.044,0,0,1,.087,0v.035A.043.043,0,0,1,19.14,16.061Zm0-.45a.044.044,0,0,1-.044-.044v-.035a.044.044,0,0,1,.087,0v.035A.044.044,0,0,1,19.14,15.611Zm0-.45a.044.044,0,0,1-.044-.044v-.035a.044.044,0,1,1,.087,0v.035A.044.044,0,0,1,19.14,15.161Zm0-.45a.044.044,0,0,1-.044-.044v-.035a.044.044,0,0,1,.087,0v.035A.044.044,0,0,1,19.14,14.71Zm0-.45a.044.044,0,0,1-.044-.044v-.035a.044.044,0,0,1,.087,0v.035A.044.044,0,0,1,19.14,14.26Zm0-.45a.044.044,0,0,1-.044-.044v-.035a.044.044,0,0,1,.087,0v.035A.044.044,0,0,1,19.14,13.81Zm0-.45a.044.044,0,0,1-.044-.044v-.035a.044.044,0,1,1,.087,0v.035A.044.044,0,0,1,19.14,13.36Zm0-.45a.044.044,0,0,1-.044-.044v-.035a.044.044,0,1,1,.087,0v.035A.044.044,0,0,1,19.14,12.909Zm0-.45a.044.044,0,0,1-.044-.044v-.035a.044.044,0,0,1,.087,0v.035A.044.044,0,0,1,19.14,12.459Zm0-.45a.044.044,0,0,1-.044-.044v-.035a.044.044,0,1,1,.087,0v.035A.044.044,0,0,1,19.14,12.009Zm0-.45a.044.044,0,0,1-.044-.044v-.035a.044.044,0,0,1,.087,0v.035A.044.044,0,0,1,19.14,11.559Zm0-.45a.044.044,0,0,1-.044-.044v-.035a.044.044,0,1,1,.087,0v.035A.044.044,0,0,1,19.14,11.109Zm0-.45a.044.044,0,0,1-.044-.044V10.58a.044.044,0,1,1,.087,0v.035A.044.044,0,0,1,19.14,10.659Zm0-.45a.044.044,0,0,1-.044-.044V10.13a.044.044,0,0,1,.087,0v.035A.044.044,0,0,1,19.14,10.208Zm0-.45a.044.044,0,0,1-.044-.044V9.68a.044.044,0,0,1,.087,0v.035A.044.044,0,0,1,19.14,9.758Zm0-.45a.044.044,0,0,1-.044-.044V9.23a.044.044,0,0,1,.087,0v.035A.044.044,0,0,1,19.14,9.308Zm0-.45a.044.044,0,0,1-.044-.044V8.779a.044.044,0,0,1,.087,0v.035A.044.044,0,0,1,19.14,8.858Zm0-.45a.044.044,0,0,1-.044-.044V8.329a.044.044,0,0,1,.087,0v.035A.044.044,0,0,1,19.14,8.408Zm0-.45a.044.044,0,0,1-.044-.044V7.879a.044.044,0,0,1,.087,0v.035A.044.044,0,0,1,19.14,7.957Zm0-.45a.044.044,0,0,1-.044-.044V7.429a.044.044,0,0,1,.087,0v.035A.044.044,0,0,1,19.14,7.507Zm0-.45a.044.044,0,0,1-.044-.044V6.979a.044.044,0,0,1,.087,0v.035A.044.044,0,0,1,19.14,7.057Zm0-.45a.044.044,0,0,1-.044-.044V6.528a.044.044,0,0,1,.087,0v.035A.044.044,0,0,1,19.14,6.607Zm0-.45a.044.044,0,0,1-.044-.044V6.078a.044.044,0,0,1,.087,0v.035A.044.044,0,0,1,19.14,6.157Zm0-.45a.044.044,0,0,1-.044-.044V5.628a.044.044,0,0,1,.087,0v.035A.044.044,0,0,1,19.14,5.706Zm0-.45a.044.044,0,0,1-.044-.044V5.178a.044.044,0,0,1,.087,0v.035A.044.044,0,0,1,19.14,5.256Zm0-.45a.044.044,0,0,1-.044-.044V4.728a.044.044,0,0,1,.087,0v.035A.044.044,0,0,1,19.14,4.806Zm0-.45a.044.044,0,0,1-.044-.044V4.278a.044.044,0,0,1,.087,0v.035A.044.044,0,0,1,19.14,4.356Zm0-.45a.044.044,0,0,1-.044-.044V3.827a.044.044,0,0,1,.087,0v.035A.044.044,0,0,1,19.14,3.905Zm0-.45a.044.044,0,0,1-.044-.044V3.377a.044.044,0,0,1,.087,0v.035A.044.044,0,0,1,19.14,3.455Zm0-.45a.044.044,0,0,1-.044-.044V2.927a.044.044,0,0,1,.087,0v.035A.044.044,0,0,1,19.14,3.005Zm0-.45a.044.044,0,0,1-.044-.044V2.477a.044.044,0,0,1,.087,0v.035A.044.044,0,0,1,19.14,2.555Z" style="fill:#fff;opacity:0.5"/><path d="M19.14,2.1a.044.044,0,0,1-.044-.044V2.044a.044.044,0,0,1,.087,0v.018A.044.044,0,0,1,19.14,2.1Z" style="fill:#fff;opacity:0.5"/><path d="M22.28,30a.043.043,0,0,1-.044-.044v-.018a.044.044,0,1,1,.087,0v.018A.043.043,0,0,1,22.28,30Z" style="fill:#fff;opacity:0.5"/><path d="M22.28,29.567a.043.043,0,0,1-.044-.044v-.035a.044.044,0,1,1,.087,0v.035A.043.043,0,0,1,22.28,29.567Zm0-.45a.043.043,0,0,1-.044-.044v-.035a.044.044,0,0,1,.087,0v.035A.043.043,0,0,1,22.28,29.117Zm0-.45a.043.043,0,0,1-.044-.044v-.034a.044.044,0,1,1,.087,0v.034A.043.043,0,0,1,22.28,28.666Zm0-.45a.043.043,0,0,1-.044-.044v-.034a.044.044,0,1,1,.087,0v.034A.043.043,0,0,1,22.28,28.216Zm0-.45a.043.043,0,0,1-.044-.044v-.035a.044.044,0,1,1,.087,0v.035A.043.043,0,0,1,22.28,27.766Zm0-.45a.043.043,0,0,1-.044-.044v-.035a.044.044,0,1,1,.087,0v.035A.043.043,0,0,1,22.28,27.316Zm0-.45a.043.043,0,0,1-.044-.044v-.034a.044.044,0,0,1,.087,0v.034A.043.043,0,0,1,22.28,26.866Zm0-.45a.043.043,0,0,1-.044-.044v-.035a.044.044,0,1,1,.087,0v.035A.043.043,0,0,1,22.28,26.416Zm0-.45a.043.043,0,0,1-.044-.044v-.035a.044.044,0,1,1,.087,0v.035A.043.043,0,0,1,22.28,25.965Zm0-.45a.043.043,0,0,1-.044-.044v-.034a.044.044,0,1,1,.087,0v.034A.043.043,0,0,1,22.28,25.515Zm0-.45a.043.043,0,0,1-.044-.044v-.034a.044.044,0,0,1,.087,0v.034A.043.043,0,0,1,22.28,25.065Zm0-.45a.043.043,0,0,1-.044-.044v-.035a.044.044,0,0,1,.087,0v.035A.043.043,0,0,1,22.28,24.615Zm0-.45a.043.043,0,0,1-.044-.044v-.035a.044.044,0,1,1,.087,0v.035A.043.043,0,0,1,22.28,24.165Zm0-.45a.043.043,0,0,1-.044-.044v-.034a.044.044,0,1,1,.087,0v.034A.043.043,0,0,1,22.28,23.714Zm0-.45a.043.043,0,0,1-.044-.044v-.035a.044.044,0,1,1,.087,0v.035A.043.043,0,0,1,22.28,23.264Zm0-.45a.043.043,0,0,1-.044-.044v-.035a.044.044,0,0,1,.087,0v.035A.043.043,0,0,1,22.28,22.814Zm0-.45a.043.043,0,0,1-.044-.044v-.035a.044.044,0,1,1,.087,0v.035A.043.043,0,0,1,22.28,22.364Zm0-.45a.043.043,0,0,1-.044-.044v-.034a.044.044,0,1,1,.087,0v.034A.043.043,0,0,1,22.28,21.913Zm0-.45a.043.043,0,0,1-.044-.044v-.035a.044.044,0,1,1,.087,0v.035A.043.043,0,0,1,22.28,21.463Zm0-.45a.043.043,0,0,1-.044-.044v-.035a.044.044,0,0,1,.087,0v.035A.043.043,0,0,1,22.28,21.013Zm0-.45a.043.043,0,0,1-.044-.044v-.034a.044.044,0,1,1,.087,0v.034A.043.043,0,0,1,22.28,20.563Zm0-.45a.043.043,0,0,1-.044-.044v-.034a.044.044,0,1,1,.087,0v.034A.043.043,0,0,1,22.28,20.113Zm0-.45a.043.043,0,0,1-.044-.044v-.035a.044.044,0,1,1,.087,0v.035A.043.043,0,0,1,22.28,19.663Zm0-.45a.043.043,0,0,1-.044-.044v-.035a.044.044,0,1,1,.087,0v.035A.043.043,0,0,1,22.28,19.213Zm0-.45a.043.043,0,0,1-.044-.044v-.034a.044.044,0,0,1,.087,0v.034A.043.043,0,0,1,22.28,18.762Zm0-.45a.043.043,0,0,1-.044-.044v-.035a.044.044,0,0,1,.087,0v.035A.043.043,0,0,1,22.28,18.312Zm0-.45a.043.043,0,0,1-.044-.044v-.035a.044.044,0,1,1,.087,0v.035A.043.043,0,0,1,22.28,17.862Zm0-.45a.043.043,0,0,1-.044-.044v-.034a.044.044,0,1,1,.087,0v.034A.043.043,0,0,1,22.28,17.411Zm0-.45a.043.043,0,0,1-.044-.044v-.034a.044.044,0,0,1,.087,0v.034A.043.043,0,0,1,22.28,16.961Zm0-.45a.043.043,0,0,1-.044-.044v-.035a.044.044,0,0,1,.087,0v.035A.043.043,0,0,1,22.28,16.511Zm0-.45a.043.043,0,0,1-.044-.044v-.035a.044.044,0,1,1,.087,0v.035A.043.043,0,0,1,22.28,16.061Zm0-.45a.044.044,0,0,1-.044-.044v-.035a.044.044,0,0,1,.087,0v.035A.044.044,0,0,1,22.28,15.611Zm0-.45a.044.044,0,0,1-.044-.044v-.035a.044.044,0,1,1,.087,0v.035A.044.044,0,0,1,22.28,15.161Zm0-.45a.044.044,0,0,1-.044-.044v-.035a.044.044,0,0,1,.087,0v.035A.044.044,0,0,1,22.28,14.71Zm0-.45a.044.044,0,0,1-.044-.044v-.035a.044.044,0,1,1,.087,0v.035A.044.044,0,0,1,22.28,14.26Zm0-.45a.044.044,0,0,1-.044-.044v-.035a.044.044,0,0,1,.087,0v.035A.044.044,0,0,1,22.28,13.81Zm0-.45a.044.044,0,0,1-.044-.044v-.035a.044.044,0,1,1,.087,0v.035A.044.044,0,0,1,22.28,13.36Zm0-.45a.044.044,0,0,1-.044-.044v-.035a.044.044,0,1,1,.087,0v.035A.044.044,0,0,1,22.28,12.909Zm0-.45a.044.044,0,0,1-.044-.044v-.035a.044.044,0,0,1,.087,0v.035A.044.044,0,0,1,22.28,12.459Zm0-.45a.044.044,0,0,1-.044-.044v-.035a.044.044,0,1,1,.087,0v.035A.044.044,0,0,1,22.28,12.009Zm0-.45a.044.044,0,0,1-.044-.044v-.035a.044.044,0,1,1,.087,0v.035A.044.044,0,0,1,22.28,11.559Zm0-.45a.044.044,0,0,1-.044-.044v-.035a.044.044,0,1,1,.087,0v.035A.044.044,0,0,1,22.28,11.109Zm0-.45a.044.044,0,0,1-.044-.044V10.58a.044.044,0,1,1,.087,0v.035A.044.044,0,0,1,22.28,10.659Zm0-.45a.044.044,0,0,1-.044-.044V10.13a.044.044,0,1,1,.087,0v.035A.044.044,0,0,1,22.28,10.208Zm0-.45a.044.044,0,0,1-.044-.044V9.68a.044.044,0,1,1,.087,0v.035A.044.044,0,0,1,22.28,9.758Zm0-.45a.044.044,0,0,1-.044-.044V9.23a.044.044,0,1,1,.087,0v.035A.044.044,0,0,1,22.28,9.308Zm0-.45a.044.044,0,0,1-.044-.044V8.779a.044.044,0,1,1,.087,0v.035A.044.044,0,0,1,22.28,8.858Zm0-.45a.044.044,0,0,1-.044-.044V8.329a.044.044,0,1,1,.087,0v.035A.044.044,0,0,1,22.28,8.408Zm0-.45a.044.044,0,0,1-.044-.044V7.879a.044.044,0,1,1,.087,0v.035A.044.044,0,0,1,22.28,7.957Zm0-.45a.044.044,0,0,1-.044-.044V7.429a.044.044,0,1,1,.087,0v.035A.044.044,0,0,1,22.28,7.507Zm0-.45a.044.044,0,0,1-.044-.044V6.979a.044.044,0,1,1,.087,0v.035A.044.044,0,0,1,22.28,7.057Zm0-.45a.044.044,0,0,1-.044-.044V6.528a.044.044,0,1,1,.087,0v.035A.044.044,0,0,1,22.28,6.607Zm0-.45a.044.044,0,0,1-.044-.044V6.078a.044.044,0,1,1,.087,0v.035A.044.044,0,0,1,22.28,6.157Zm0-.45a.044.044,0,0,1-.044-.044V5.628a.044.044,0,1,1,.087,0v.035A.044.044,0,0,1,22.28,5.706Zm0-.45a.044.044,0,0,1-.044-.044V5.178a.044.044,0,1,1,.087,0v.035A.044.044,0,0,1,22.28,5.256Zm0-.45a.044.044,0,0,1-.044-.044V4.728a.044.044,0,1,1,.087,0v.035A.044.044,0,0,1,22.28,4.806Zm0-.45a.044.044,0,0,1-.044-.044V4.278a.044.044,0,1,1,.087,0v.035A.044.044,0,0,1,22.28,4.356Zm0-.45a.044.044,0,0,1-.044-.044V3.827a.044.044,0,1,1,.087,0v.035A.044.044,0,0,1,22.28,3.905Zm0-.45a.044.044,0,0,1-.044-.044V3.377a.044.044,0,1,1,.087,0v.035A.044.044,0,0,1,22.28,3.455Zm0-.45a.044.044,0,0,1-.044-.044V2.927a.044.044,0,1,1,.087,0v.035A.044.044,0,0,1,22.28,3.005Zm0-.45a.044.044,0,0,1-.044-.044V2.477a.044.044,0,1,1,.087,0v.035A.044.044,0,0,1,22.28,2.555Z" style="fill:#fff;opacity:0.5"/><path d="M22.28,2.1a.044.044,0,0,1-.044-.044V2.044a.044.044,0,1,1,.087,0v.018A.044.044,0,0,1,22.28,2.1Z" style="fill:#fff;opacity:0.5"/><path d="M25.42,30a.043.043,0,0,1-.044-.044v-.018a.044.044,0,1,1,.087,0v.018A.043.043,0,0,1,25.42,30Z" style="fill:#fff;opacity:0.5"/><path d="M25.42,29.567a.043.043,0,0,1-.044-.044v-.035a.044.044,0,1,1,.087,0v.035A.043.043,0,0,1,25.42,29.567Zm0-.45a.043.043,0,0,1-.044-.044v-.035a.044.044,0,0,1,.087,0v.035A.043.043,0,0,1,25.42,29.117Zm0-.45a.043.043,0,0,1-.044-.044v-.034a.044.044,0,1,1,.087,0v.034A.043.043,0,0,1,25.42,28.666Zm0-.45a.043.043,0,0,1-.044-.044v-.034a.044.044,0,1,1,.087,0v.034A.043.043,0,0,1,25.42,28.216Zm0-.45a.043.043,0,0,1-.044-.044v-.035a.044.044,0,1,1,.087,0v.035A.043.043,0,0,1,25.42,27.766Zm0-.45a.043.043,0,0,1-.044-.044v-.035a.044.044,0,1,1,.087,0v.035A.043.043,0,0,1,25.42,27.316Zm0-.45a.043.043,0,0,1-.044-.044v-.034a.044.044,0,0,1,.087,0v.034A.043.043,0,0,1,25.42,26.866Zm0-.45a.043.043,0,0,1-.044-.044v-.035a.044.044,0,1,1,.087,0v.035A.043.043,0,0,1,25.42,26.416Zm0-.45a.043.043,0,0,1-.044-.044v-.035a.044.044,0,1,1,.087,0v.035A.043.043,0,0,1,25.42,25.965Zm0-.45a.043.043,0,0,1-.044-.044v-.034a.044.044,0,1,1,.087,0v.034A.043.043,0,0,1,25.42,25.515Zm0-.45a.043.043,0,0,1-.044-.044v-.034a.044.044,0,0,1,.087,0v.034A.043.043,0,0,1,25.42,25.065Zm0-.45a.043.043,0,0,1-.044-.044v-.035a.044.044,0,0,1,.087,0v.035A.043.043,0,0,1,25.42,24.615Zm0-.45a.043.043,0,0,1-.044-.044v-.035a.044.044,0,1,1,.087,0v.035A.043.043,0,0,1,25.42,24.165Zm0-.45a.043.043,0,0,1-.044-.044v-.034a.044.044,0,1,1,.087,0v.034A.043.043,0,0,1,25.42,23.714Zm0-.45a.043.043,0,0,1-.044-.044v-.035a.044.044,0,1,1,.087,0v.035A.043.043,0,0,1,25.42,23.264Zm0-.45a.043.043,0,0,1-.044-.044v-.035a.044.044,0,0,1,.087,0v.035A.043.043,0,0,1,25.42,22.814Zm0-.45a.043.043,0,0,1-.044-.044v-.035a.044.044,0,1,1,.087,0v.035A.043.043,0,0,1,25.42,22.364Zm0-.45a.043.043,0,0,1-.044-.044v-.034a.044.044,0,1,1,.087,0v.034A.043.043,0,0,1,25.42,21.913Zm0-.45a.043.043,0,0,1-.044-.044v-.035a.044.044,0,1,1,.087,0v.035A.043.043,0,0,1,25.42,21.463Zm0-.45a.043.043,0,0,1-.044-.044v-.035a.044.044,0,0,1,.087,0v.035A.043.043,0,0,1,25.42,21.013Zm0-.45a.043.043,0,0,1-.044-.044v-.034a.044.044,0,1,1,.087,0v.034A.043.043,0,0,1,25.42,20.563Zm0-.45a.043.043,0,0,1-.044-.044v-.034a.044.044,0,1,1,.087,0v.034A.043.043,0,0,1,25.42,20.113Zm0-.45a.043.043,0,0,1-.044-.044v-.035a.044.044,0,1,1,.087,0v.035A.043.043,0,0,1,25.42,19.663Zm0-.45a.043.043,0,0,1-.044-.044v-.035a.044.044,0,1,1,.087,0v.035A.043.043,0,0,1,25.42,19.213Zm0-.45a.043.043,0,0,1-.044-.044v-.034a.044.044,0,0,1,.087,0v.034A.043.043,0,0,1,25.42,18.762Zm0-.45a.043.043,0,0,1-.044-.044v-.035a.044.044,0,0,1,.087,0v.035A.043.043,0,0,1,25.42,18.312Zm0-.45a.043.043,0,0,1-.044-.044v-.035a.044.044,0,1,1,.087,0v.035A.043.043,0,0,1,25.42,17.862Zm0-.45a.043.043,0,0,1-.044-.044v-.034a.044.044,0,1,1,.087,0v.034A.043.043,0,0,1,25.42,17.411Zm0-.45a.043.043,0,0,1-.044-.044v-.034a.044.044,0,0,1,.087,0v.034A.043.043,0,0,1,25.42,16.961Zm0-.45a.043.043,0,0,1-.044-.044v-.035a.044.044,0,0,1,.087,0v.035A.043.043,0,0,1,25.42,16.511Zm0-.45a.043.043,0,0,1-.044-.044v-.035a.044.044,0,1,1,.087,0v.035A.043.043,0,0,1,25.42,16.061Zm0-.45a.044.044,0,0,1-.044-.044v-.035a.044.044,0,0,1,.087,0v.035A.044.044,0,0,1,25.42,15.611Zm0-.45a.044.044,0,0,1-.044-.044v-.035a.044.044,0,1,1,.087,0v.035A.044.044,0,0,1,25.42,15.161Zm0-.45a.044.044,0,0,1-.044-.044v-.035a.044.044,0,0,1,.087,0v.035A.044.044,0,0,1,25.42,14.71Zm0-.45a.044.044,0,0,1-.044-.044v-.035a.044.044,0,1,1,.087,0v.035A.044.044,0,0,1,25.42,14.26Zm0-.45a.044.044,0,0,1-.044-.044v-.035a.044.044,0,0,1,.087,0v.035A.044.044,0,0,1,25.42,13.81Zm0-.45a.044.044,0,0,1-.044-.044v-.035a.044.044,0,1,1,.087,0v.035A.044.044,0,0,1,25.42,13.36Zm0-.45a.044.044,0,0,1-.044-.044v-.035a.044.044,0,1,1,.087,0v.035A.044.044,0,0,1,25.42,12.909Zm0-.45a.044.044,0,0,1-.044-.044v-.035a.044.044,0,0,1,.087,0v.035A.044.044,0,0,1,25.42,12.459Zm0-.45a.044.044,0,0,1-.044-.044v-.035a.044.044,0,1,1,.087,0v.035A.044.044,0,0,1,25.42,12.009Zm0-.45a.044.044,0,0,1-.044-.044v-.035a.044.044,0,1,1,.087,0v.035A.044.044,0,0,1,25.42,11.559Zm0-.45a.044.044,0,0,1-.044-.044v-.035a.044.044,0,1,1,.087,0v.035A.044.044,0,0,1,25.42,11.109Zm0-.45a.044.044,0,0,1-.044-.044V10.58a.044.044,0,1,1,.087,0v.035A.044.044,0,0,1,25.42,10.659Zm0-.45a.044.044,0,0,1-.044-.044V10.13a.044.044,0,1,1,.087,0v.035A.044.044,0,0,1,25.42,10.208Zm0-.45a.044.044,0,0,1-.044-.044V9.68a.044.044,0,1,1,.087,0v.035A.044.044,0,0,1,25.42,9.758Zm0-.45a.044.044,0,0,1-.044-.044V9.23a.044.044,0,1,1,.087,0v.035A.044.044,0,0,1,25.42,9.308Zm0-.45a.044.044,0,0,1-.044-.044V8.779a.044.044,0,1,1,.087,0v.035A.044.044,0,0,1,25.42,8.858Zm0-.45a.044.044,0,0,1-.044-.044V8.329a.044.044,0,1,1,.087,0v.035A.044.044,0,0,1,25.42,8.408Zm0-.45a.044.044,0,0,1-.044-.044V7.879a.044.044,0,1,1,.087,0v.035A.044.044,0,0,1,25.42,7.957Zm0-.45a.044.044,0,0,1-.044-.044V7.429a.044.044,0,1,1,.087,0v.035A.044.044,0,0,1,25.42,7.507Zm0-.45a.044.044,0,0,1-.044-.044V6.979a.044.044,0,1,1,.087,0v.035A.044.044,0,0,1,25.42,7.057Zm0-.45a.044.044,0,0,1-.044-.044V6.528a.044.044,0,1,1,.087,0v.035A.044.044,0,0,1,25.42,6.607Zm0-.45a.044.044,0,0,1-.044-.044V6.078a.044.044,0,1,1,.087,0v.035A.044.044,0,0,1,25.42,6.157Zm0-.45a.044.044,0,0,1-.044-.044V5.628a.044.044,0,1,1,.087,0v.035A.044.044,0,0,1,25.42,5.706Zm0-.45a.044.044,0,0,1-.044-.044V5.178a.044.044,0,1,1,.087,0v.035A.044.044,0,0,1,25.42,5.256Zm0-.45a.044.044,0,0,1-.044-.044V4.728a.044.044,0,1,1,.087,0v.035A.044.044,0,0,1,25.42,4.806Zm0-.45a.044.044,0,0,1-.044-.044V4.278a.044.044,0,1,1,.087,0v.035A.044.044,0,0,1,25.42,4.356Zm0-.45a.044.044,0,0,1-.044-.044V3.827a.044.044,0,1,1,.087,0v.035A.044.044,0,0,1,25.42,3.905Zm0-.45a.044.044,0,0,1-.044-.044V3.377a.044.044,0,1,1,.087,0v.035A.044.044,0,0,1,25.42,3.455Zm0-.45a.044.044,0,0,1-.044-.044V2.927a.044.044,0,1,1,.087,0v.035A.044.044,0,0,1,25.42,3.005Zm0-.45a.044.044,0,0,1-.044-.044V2.477a.044.044,0,1,1,.087,0v.035A.044.044,0,0,1,25.42,2.555Z" style="fill:#fff;opacity:0.5"/><path d="M25.42,2.1a.044.044,0,0,1-.044-.044V2.044a.044.044,0,1,1,.087,0v.018A.044.044,0,0,1,25.42,2.1Z" style="fill:#fff;opacity:0.5"/><path d="M12.86,30a.044.044,0,0,1-.044-.044v-.018a.044.044,0,1,1,.087,0v.018A.044.044,0,0,1,12.86,30Z" style="fill:#fff;opacity:0.5"/><path d="M12.86,29.567a.044.044,0,0,1-.044-.044v-.035a.044.044,0,0,1,.087,0v.035A.044.044,0,0,1,12.86,29.567Zm0-.45a.044.044,0,0,1-.044-.044v-.035a.044.044,0,0,1,.087,0v.035A.044.044,0,0,1,12.86,29.117Zm0-.45a.044.044,0,0,1-.044-.044v-.034a.044.044,0,1,1,.087,0v.034A.044.044,0,0,1,12.86,28.666Zm0-.45a.044.044,0,0,1-.044-.044v-.034a.044.044,0,1,1,.087,0v.034A.044.044,0,0,1,12.86,28.216Zm0-.45a.044.044,0,0,1-.044-.044v-.035a.044.044,0,1,1,.087,0v.035A.044.044,0,0,1,12.86,27.766Zm0-.45a.044.044,0,0,1-.044-.044v-.035a.044.044,0,1,1,.087,0v.035A.044.044,0,0,1,12.86,27.316Zm0-.45a.044.044,0,0,1-.044-.044v-.034a.044.044,0,0,1,.087,0v.034A.044.044,0,0,1,12.86,26.866Zm0-.45a.044.044,0,0,1-.044-.044v-.035a.044.044,0,1,1,.087,0v.035A.044.044,0,0,1,12.86,26.416Zm0-.45a.044.044,0,0,1-.044-.044v-.035a.044.044,0,1,1,.087,0v.035A.044.044,0,0,1,12.86,25.965Zm0-.45a.044.044,0,0,1-.044-.044v-.034a.044.044,0,0,1,.087,0v.034A.044.044,0,0,1,12.86,25.515Zm0-.45a.044.044,0,0,1-.044-.044v-.034a.044.044,0,0,1,.087,0v.034A.044.044,0,0,1,12.86,25.065Zm0-.45a.044.044,0,0,1-.044-.044v-.035a.044.044,0,0,1,.087,0v.035A.044.044,0,0,1,12.86,24.615Zm0-.45a.044.044,0,0,1-.044-.044v-.035a.044.044,0,1,1,.087,0v.035A.044.044,0,0,1,12.86,24.165Zm0-.45a.044.044,0,0,1-.044-.044v-.034a.044.044,0,1,1,.087,0v.034A.044.044,0,0,1,12.86,23.714Zm0-.45a.044.044,0,0,1-.044-.044v-.035a.044.044,0,0,1,.087,0v.035A.044.044,0,0,1,12.86,23.264Zm0-.45a.044.044,0,0,1-.044-.044v-.035a.044.044,0,0,1,.087,0v.035A.044.044,0,0,1,12.86,22.814Zm0-.45a.044.044,0,0,1-.044-.044v-.035a.044.044,0,1,1,.087,0v.035A.044.044,0,0,1,12.86,22.364Zm0-.45a.044.044,0,0,1-.044-.044v-.034a.044.044,0,1,1,.087,0v.034A.044.044,0,0,1,12.86,21.913Zm0-.45a.044.044,0,0,1-.044-.044v-.035a.044.044,0,1,1,.087,0v.035A.044.044,0,0,1,12.86,21.463Zm0-.45a.044.044,0,0,1-.044-.044v-.035a.044.044,0,0,1,.087,0v.035A.044.044,0,0,1,12.86,21.013Zm0-.45a.044.044,0,0,1-.044-.044v-.034a.044.044,0,0,1,.087,0v.034A.044.044,0,0,1,12.86,20.563Zm0-.45a.044.044,0,0,1-.044-.044v-.034a.044.044,0,0,1,.087,0v.034A.044.044,0,0,1,12.86,20.113Zm0-.45a.044.044,0,0,1-.044-.044v-.035a.044.044,0,1,1,.087,0v.035A.044.044,0,0,1,12.86,19.663Zm0-.45a.044.044,0,0,1-.044-.044v-.035a.044.044,0,1,1,.087,0v.035A.044.044,0,0,1,12.86,19.213Zm0-.45a.044.044,0,0,1-.044-.044v-.034a.044.044,0,0,1,.087,0v.034A.044.044,0,0,1,12.86,18.762Zm0-.45a.044.044,0,0,1-.044-.044v-.035a.044.044,0,0,1,.087,0v.035A.044.044,0,0,1,12.86,18.312Zm0-.45a.044.044,0,0,1-.044-.044v-.035a.044.044,0,0,1,.087,0v.035A.044.044,0,0,1,12.86,17.862Zm0-.45a.044.044,0,0,1-.044-.044v-.034a.044.044,0,0,1,.087,0v.034A.044.044,0,0,1,12.86,17.411Zm0-.45a.044.044,0,0,1-.044-.044v-.034a.044.044,0,0,1,.087,0v.034A.044.044,0,0,1,12.86,16.961Zm0-.45a.044.044,0,0,1-.044-.044v-.035a.044.044,0,0,1,.087,0v.035A.044.044,0,0,1,12.86,16.511Zm0-.45a.044.044,0,0,1-.044-.044v-.035a.044.044,0,1,1,.087,0v.035A.044.044,0,0,1,12.86,16.061Zm0-.45a.044.044,0,0,1-.044-.044v-.035a.044.044,0,0,1,.087,0v.035A.044.044,0,0,1,12.86,15.611Zm0-.45a.044.044,0,0,1-.044-.044v-.035a.044.044,0,0,1,.087,0v.035A.044.044,0,0,1,12.86,15.161Zm0-.45a.044.044,0,0,1-.044-.044v-.035a.044.044,0,0,1,.087,0v.035A.044.044,0,0,1,12.86,14.71Zm0-.45a.044.044,0,0,1-.044-.044v-.035a.044.044,0,1,1,.087,0v.035A.044.044,0,0,1,12.86,14.26Zm0-.45a.044.044,0,0,1-.044-.044v-.035a.044.044,0,0,1,.087,0v.035A.044.044,0,0,1,12.86,13.81Zm0-.45a.044.044,0,0,1-.044-.044v-.035a.044.044,0,0,1,.087,0v.035A.044.044,0,0,1,12.86,13.36Zm0-.45a.044.044,0,0,1-.044-.044v-.035a.044.044,0,0,1,.087,0v.035A.044.044,0,0,1,12.86,12.909Zm0-.45a.044.044,0,0,1-.044-.044v-.035a.044.044,0,0,1,.087,0v.035A.044.044,0,0,1,12.86,12.459Zm0-.45a.044.044,0,0,1-.044-.044v-.035a.044.044,0,0,1,.087,0v.035A.044.044,0,0,1,12.86,12.009Zm0-.45a.044.044,0,0,1-.044-.044v-.035a.044.044,0,0,1,.087,0v.035A.044.044,0,0,1,12.86,11.559Zm0-.45a.044.044,0,0,1-.044-.044v-.035a.044.044,0,1,1,.087,0v.035A.044.044,0,0,1,12.86,11.109Zm0-.45a.044.044,0,0,1-.044-.044V10.58a.044.044,0,1,1,.087,0v.035A.044.044,0,0,1,12.86,10.659Zm0-.45a.044.044,0,0,1-.044-.044V10.13a.044.044,0,0,1,.087,0v.035A.044.044,0,0,1,12.86,10.208Zm0-.45a.044.044,0,0,1-.044-.044V9.68a.044.044,0,0,1,.087,0v.035A.044.044,0,0,1,12.86,9.758Zm0-.45a.044.044,0,0,1-.044-.044V9.23a.044.044,0,0,1,.087,0v.035A.044.044,0,0,1,12.86,9.308Zm0-.45a.044.044,0,0,1-.044-.044V8.779a.044.044,0,0,1,.087,0v.035A.044.044,0,0,1,12.86,8.858Zm0-.45a.044.044,0,0,1-.044-.044V8.329a.044.044,0,0,1,.087,0v.035A.044.044,0,0,1,12.86,8.408Zm0-.45a.044.044,0,0,1-.044-.044V7.879a.044.044,0,0,1,.087,0v.035A.044.044,0,0,1,12.86,7.957Zm0-.45a.044.044,0,0,1-.044-.044V7.429a.044.044,0,0,1,.087,0v.035A.044.044,0,0,1,12.86,7.507Zm0-.45a.044.044,0,0,1-.044-.044V6.979a.044.044,0,0,1,.087,0v.035A.044.044,0,0,1,12.86,7.057Zm0-.45a.044.044,0,0,1-.044-.044V6.528a.044.044,0,0,1,.087,0v.035A.044.044,0,0,1,12.86,6.607Zm0-.45a.044.044,0,0,1-.044-.044V6.078a.044.044,0,0,1,.087,0v.035A.044.044,0,0,1,12.86,6.157Zm0-.45a.044.044,0,0,1-.044-.044V5.628a.044.044,0,0,1,.087,0v.035A.044.044,0,0,1,12.86,5.706Zm0-.45a.044.044,0,0,1-.044-.044V5.178a.044.044,0,0,1,.087,0v.035A.044.044,0,0,1,12.86,5.256Zm0-.45a.044.044,0,0,1-.044-.044V4.728a.044.044,0,0,1,.087,0v.035A.044.044,0,0,1,12.86,4.806Zm0-.45a.044.044,0,0,1-.044-.044V4.278a.044.044,0,0,1,.087,0v.035A.044.044,0,0,1,12.86,4.356Zm0-.45a.044.044,0,0,1-.044-.044V3.827a.044.044,0,0,1,.087,0v.035A.044.044,0,0,1,12.86,3.905Zm0-.45a.044.044,0,0,1-.044-.044V3.377a.044.044,0,0,1,.087,0v.035A.044.044,0,0,1,12.86,3.455Zm0-.45a.044.044,0,0,1-.044-.044V2.927a.044.044,0,0,1,.087,0v.035A.044.044,0,0,1,12.86,3.005Zm0-.45a.044.044,0,0,1-.044-.044V2.477a.044.044,0,0,1,.087,0v.035A.044.044,0,0,1,12.86,2.555Z" style="fill:#fff;opacity:0.5"/><path d="M12.86,2.1a.044.044,0,0,1-.044-.044V2.044a.044.044,0,0,1,.087,0v.018A.044.044,0,0,1,12.86,2.1Z" style="fill:#fff;opacity:0.5"/><path d="M9.719,30a.044.044,0,0,1-.044-.044v-.018a.044.044,0,1,1,.087,0v.018A.044.044,0,0,1,9.719,30Z" style="fill:#fff;opacity:0.5"/><path d="M9.719,29.567a.044.044,0,0,1-.044-.044v-.035a.044.044,0,1,1,.087,0v.035A.044.044,0,0,1,9.719,29.567Zm0-.45a.044.044,0,0,1-.044-.044v-.035a.044.044,0,0,1,.087,0v.035A.044.044,0,0,1,9.719,29.117Zm0-.45a.044.044,0,0,1-.044-.044v-.034a.044.044,0,1,1,.087,0v.034A.044.044,0,0,1,9.719,28.666Zm0-.45a.044.044,0,0,1-.044-.044v-.034a.044.044,0,1,1,.087,0v.034A.044.044,0,0,1,9.719,28.216Zm0-.45a.044.044,0,0,1-.044-.044v-.035a.044.044,0,1,1,.087,0v.035A.044.044,0,0,1,9.719,27.766Zm0-.45a.044.044,0,0,1-.044-.044v-.035a.044.044,0,1,1,.087,0v.035A.044.044,0,0,1,9.719,27.316Zm0-.45a.044.044,0,0,1-.044-.044v-.034a.044.044,0,0,1,.087,0v.034A.044.044,0,0,1,9.719,26.866Zm0-.45a.044.044,0,0,1-.044-.044v-.035a.044.044,0,1,1,.087,0v.035A.044.044,0,0,1,9.719,26.416Zm0-.45a.044.044,0,0,1-.044-.044v-.035a.044.044,0,1,1,.087,0v.035A.044.044,0,0,1,9.719,25.965Zm0-.45a.044.044,0,0,1-.044-.044v-.034a.044.044,0,1,1,.087,0v.034A.044.044,0,0,1,9.719,25.515Zm0-.45a.044.044,0,0,1-.044-.044v-.034a.044.044,0,0,1,.087,0v.034A.044.044,0,0,1,9.719,25.065Zm0-.45a.044.044,0,0,1-.044-.044v-.035a.044.044,0,0,1,.087,0v.035A.044.044,0,0,1,9.719,24.615Zm0-.45a.044.044,0,0,1-.044-.044v-.035a.044.044,0,1,1,.087,0v.035A.044.044,0,0,1,9.719,24.165Zm0-.45a.044.044,0,0,1-.044-.044v-.034a.044.044,0,1,1,.087,0v.034A.044.044,0,0,1,9.719,23.714Zm0-.45a.044.044,0,0,1-.044-.044v-.035a.044.044,0,1,1,.087,0v.035A.044.044,0,0,1,9.719,23.264Zm0-.45a.044.044,0,0,1-.044-.044v-.035a.044.044,0,0,1,.087,0v.035A.044.044,0,0,1,9.719,22.814Zm0-.45a.044.044,0,0,1-.044-.044v-.035a.044.044,0,1,1,.087,0v.035A.044.044,0,0,1,9.719,22.364Zm0-.45a.044.044,0,0,1-.044-.044v-.034a.044.044,0,1,1,.087,0v.034A.044.044,0,0,1,9.719,21.913Zm0-.45a.044.044,0,0,1-.044-.044v-.035a.044.044,0,1,1,.087,0v.035A.044.044,0,0,1,9.719,21.463Zm0-.45a.044.044,0,0,1-.044-.044v-.035a.044.044,0,0,1,.087,0v.035A.044.044,0,0,1,9.719,21.013Zm0-.45a.044.044,0,0,1-.044-.044v-.034a.044.044,0,1,1,.087,0v.034A.044.044,0,0,1,9.719,20.563Zm0-.45a.044.044,0,0,1-.044-.044v-.034a.044.044,0,1,1,.087,0v.034A.044.044,0,0,1,9.719,20.113Zm0-.45a.044.044,0,0,1-.044-.044v-.035a.044.044,0,1,1,.087,0v.035A.044.044,0,0,1,9.719,19.663Zm0-.45a.044.044,0,0,1-.044-.044v-.035a.044.044,0,1,1,.087,0v.035A.044.044,0,0,1,9.719,19.213Zm0-.45a.044.044,0,0,1-.044-.044v-.034a.044.044,0,0,1,.087,0v.034A.044.044,0,0,1,9.719,18.762Zm0-.45a.044.044,0,0,1-.044-.044v-.035a.044.044,0,0,1,.087,0v.035A.044.044,0,0,1,9.719,18.312Zm0-.45a.044.044,0,0,1-.044-.044v-.035a.044.044,0,1,1,.087,0v.035A.044.044,0,0,1,9.719,17.862Zm0-.45a.044.044,0,0,1-.044-.044v-.034a.044.044,0,1,1,.087,0v.034A.044.044,0,0,1,9.719,17.411Zm0-.45a.044.044,0,0,1-.044-.044v-.034a.044.044,0,0,1,.087,0v.034A.044.044,0,0,1,9.719,16.961Zm0-.45a.044.044,0,0,1-.044-.044v-.035a.044.044,0,0,1,.087,0v.035A.044.044,0,0,1,9.719,16.511Zm0-.45a.044.044,0,0,1-.044-.044v-.035a.044.044,0,1,1,.087,0v.035A.044.044,0,0,1,9.719,16.061Zm0-.45a.044.044,0,0,1-.044-.044v-.035a.044.044,0,0,1,.087,0v.035A.044.044,0,0,1,9.719,15.611Zm0-.45a.044.044,0,0,1-.044-.044v-.035a.044.044,0,1,1,.087,0v.035A.044.044,0,0,1,9.719,15.161Zm0-.45a.044.044,0,0,1-.044-.044v-.035a.044.044,0,0,1,.087,0v.035A.044.044,0,0,1,9.719,14.71Zm0-.45a.044.044,0,0,1-.044-.044v-.035a.044.044,0,1,1,.087,0v.035A.044.044,0,0,1,9.719,14.26Zm0-.45a.044.044,0,0,1-.044-.044v-.035a.044.044,0,0,1,.087,0v.035A.044.044,0,0,1,9.719,13.81Zm0-.45a.044.044,0,0,1-.044-.044v-.035a.044.044,0,1,1,.087,0v.035A.044.044,0,0,1,9.719,13.36Zm0-.45a.044.044,0,0,1-.044-.044v-.035a.044.044,0,1,1,.087,0v.035A.044.044,0,0,1,9.719,12.909Zm0-.45a.044.044,0,0,1-.044-.044v-.035a.044.044,0,0,1,.087,0v.035A.044.044,0,0,1,9.719,12.459Zm0-.45a.044.044,0,0,1-.044-.044v-.035a.044.044,0,1,1,.087,0v.035A.044.044,0,0,1,9.719,12.009Zm0-.45a.044.044,0,0,1-.044-.044v-.035a.044.044,0,1,1,.087,0v.035A.044.044,0,0,1,9.719,11.559Zm0-.45a.044.044,0,0,1-.044-.044v-.035a.044.044,0,1,1,.087,0v.035A.044.044,0,0,1,9.719,11.109Zm0-.45a.044.044,0,0,1-.044-.044V10.58a.044.044,0,1,1,.087,0v.035A.044.044,0,0,1,9.719,10.659Zm0-.45a.044.044,0,0,1-.044-.044V10.13a.044.044,0,1,1,.087,0v.035A.044.044,0,0,1,9.719,10.208Zm0-.45a.044.044,0,0,1-.044-.044V9.68a.044.044,0,0,1,.087,0v.035A.044.044,0,0,1,9.719,9.758Zm0-.45a.044.044,0,0,1-.044-.044V9.23a.044.044,0,1,1,.087,0v.035A.044.044,0,0,1,9.719,9.308Zm0-.45a.044.044,0,0,1-.044-.044V8.779a.044.044,0,1,1,.087,0v.035A.044.044,0,0,1,9.719,8.858Zm0-.45a.044.044,0,0,1-.044-.044V8.329a.044.044,0,0,1,.087,0v.035A.044.044,0,0,1,9.719,8.408Zm0-.45a.044.044,0,0,1-.044-.044V7.879a.044.044,0,1,1,.087,0v.035A.044.044,0,0,1,9.719,7.957Zm0-.45a.044.044,0,0,1-.044-.044V7.429a.044.044,0,1,1,.087,0v.035A.044.044,0,0,1,9.719,7.507Zm0-.45a.044.044,0,0,1-.044-.044V6.979a.044.044,0,1,1,.087,0v.035A.044.044,0,0,1,9.719,7.057Zm0-.45a.044.044,0,0,1-.044-.044V6.528a.044.044,0,1,1,.087,0v.035A.044.044,0,0,1,9.719,6.607Zm0-.45a.044.044,0,0,1-.044-.044V6.078a.044.044,0,0,1,.087,0v.035A.044.044,0,0,1,9.719,6.157Zm0-.45a.044.044,0,0,1-.044-.044V5.628a.044.044,0,1,1,.087,0v.035A.044.044,0,0,1,9.719,5.706Zm0-.45a.044.044,0,0,1-.044-.044V5.178a.044.044,0,1,1,.087,0v.035A.044.044,0,0,1,9.719,5.256Zm0-.45a.044.044,0,0,1-.044-.044V4.728a.044.044,0,1,1,.087,0v.035A.044.044,0,0,1,9.719,4.806Zm0-.45a.044.044,0,0,1-.044-.044V4.278a.044.044,0,1,1,.087,0v.035A.044.044,0,0,1,9.719,4.356Zm0-.45a.044.044,0,0,1-.044-.044V3.827a.044.044,0,1,1,.087,0v.035A.044.044,0,0,1,9.719,3.905Zm0-.45a.044.044,0,0,1-.044-.044V3.377a.044.044,0,1,1,.087,0v.035A.044.044,0,0,1,9.719,3.455Zm0-.45a.044.044,0,0,1-.044-.044V2.927a.044.044,0,1,1,.087,0v.035A.044.044,0,0,1,9.719,3.005Zm0-.45a.044.044,0,0,1-.044-.044V2.477a.044.044,0,1,1,.087,0v.035A.044.044,0,0,1,9.719,2.555Z" style="fill:#fff;opacity:0.5"/><path d="M9.719,2.1a.044.044,0,0,1-.044-.044V2.044a.044.044,0,1,1,.087,0v.018A.044.044,0,0,1,9.719,2.1Z" style="fill:#fff;opacity:0.5"/><path d="M6.579,30a.044.044,0,0,1-.044-.044v-.018a.044.044,0,1,1,.087,0v.018A.044.044,0,0,1,6.579,30Z" style="fill:#fff;opacity:0.5"/><path d="M6.579,29.567a.044.044,0,0,1-.044-.044v-.035a.044.044,0,1,1,.087,0v.035A.044.044,0,0,1,6.579,29.567Zm0-.45a.044.044,0,0,1-.044-.044v-.035a.044.044,0,0,1,.087,0v.035A.044.044,0,0,1,6.579,29.117Zm0-.45a.044.044,0,0,1-.044-.044v-.034a.044.044,0,1,1,.087,0v.034A.044.044,0,0,1,6.579,28.666Zm0-.45a.044.044,0,0,1-.044-.044v-.034a.044.044,0,1,1,.087,0v.034A.044.044,0,0,1,6.579,28.216Zm0-.45a.044.044,0,0,1-.044-.044v-.035a.044.044,0,1,1,.087,0v.035A.044.044,0,0,1,6.579,27.766Zm0-.45a.044.044,0,0,1-.044-.044v-.035a.044.044,0,1,1,.087,0v.035A.044.044,0,0,1,6.579,27.316Zm0-.45a.044.044,0,0,1-.044-.044v-.034a.044.044,0,0,1,.087,0v.034A.044.044,0,0,1,6.579,26.866Zm0-.45a.044.044,0,0,1-.044-.044v-.035a.044.044,0,1,1,.087,0v.035A.044.044,0,0,1,6.579,26.416Zm0-.45a.044.044,0,0,1-.044-.044v-.035a.044.044,0,1,1,.087,0v.035A.044.044,0,0,1,6.579,25.965Zm0-.45a.044.044,0,0,1-.044-.044v-.034a.044.044,0,1,1,.087,0v.034A.044.044,0,0,1,6.579,25.515Zm0-.45a.044.044,0,0,1-.044-.044v-.034a.044.044,0,0,1,.087,0v.034A.044.044,0,0,1,6.579,25.065Zm0-.45a.044.044,0,0,1-.044-.044v-.035a.044.044,0,0,1,.087,0v.035A.044.044,0,0,1,6.579,24.615Zm0-.45a.044.044,0,0,1-.044-.044v-.035a.044.044,0,1,1,.087,0v.035A.044.044,0,0,1,6.579,24.165Zm0-.45a.044.044,0,0,1-.044-.044v-.034a.044.044,0,1,1,.087,0v.034A.044.044,0,0,1,6.579,23.714Zm0-.45a.044.044,0,0,1-.044-.044v-.035a.044.044,0,1,1,.087,0v.035A.044.044,0,0,1,6.579,23.264Zm0-.45a.044.044,0,0,1-.044-.044v-.035a.044.044,0,0,1,.087,0v.035A.044.044,0,0,1,6.579,22.814Zm0-.45a.044.044,0,0,1-.044-.044v-.035a.044.044,0,1,1,.087,0v.035A.044.044,0,0,1,6.579,22.364Zm0-.45a.044.044,0,0,1-.044-.044v-.034a.044.044,0,1,1,.087,0v.034A.044.044,0,0,1,6.579,21.913Zm0-.45a.044.044,0,0,1-.044-.044v-.035a.044.044,0,1,1,.087,0v.035A.044.044,0,0,1,6.579,21.463Zm0-.45a.044.044,0,0,1-.044-.044v-.035a.044.044,0,0,1,.087,0v.035A.044.044,0,0,1,6.579,21.013Zm0-.45a.044.044,0,0,1-.044-.044v-.034a.044.044,0,1,1,.087,0v.034A.044.044,0,0,1,6.579,20.563Zm0-.45a.044.044,0,0,1-.044-.044v-.034a.044.044,0,1,1,.087,0v.034A.044.044,0,0,1,6.579,20.113Zm0-.45a.044.044,0,0,1-.044-.044v-.035a.044.044,0,1,1,.087,0v.035A.044.044,0,0,1,6.579,19.663Zm0-.45a.044.044,0,0,1-.044-.044v-.035a.044.044,0,1,1,.087,0v.035A.044.044,0,0,1,6.579,19.213Zm0-.45a.044.044,0,0,1-.044-.044v-.034a.044.044,0,0,1,.087,0v.034A.044.044,0,0,1,6.579,18.762Zm0-.45a.044.044,0,0,1-.044-.044v-.035a.044.044,0,0,1,.087,0v.035A.044.044,0,0,1,6.579,18.312Zm0-.45a.044.044,0,0,1-.044-.044v-.035a.044.044,0,1,1,.087,0v.035A.044.044,0,0,1,6.579,17.862Zm0-.45a.044.044,0,0,1-.044-.044v-.034a.044.044,0,1,1,.087,0v.034A.044.044,0,0,1,6.579,17.411Zm0-.45a.044.044,0,0,1-.044-.044v-.034a.044.044,0,0,1,.087,0v.034A.044.044,0,0,1,6.579,16.961Zm0-.45a.044.044,0,0,1-.044-.044v-.035a.044.044,0,0,1,.087,0v.035A.044.044,0,0,1,6.579,16.511Zm0-.45a.044.044,0,0,1-.044-.044v-.035a.044.044,0,1,1,.087,0v.035A.044.044,0,0,1,6.579,16.061Zm0-.45a.044.044,0,0,1-.044-.044v-.035a.044.044,0,0,1,.087,0v.035A.044.044,0,0,1,6.579,15.611Zm0-.45a.044.044,0,0,1-.044-.044v-.035a.044.044,0,1,1,.087,0v.035A.044.044,0,0,1,6.579,15.161Zm0-.45a.044.044,0,0,1-.044-.044v-.035a.044.044,0,0,1,.087,0v.035A.044.044,0,0,1,6.579,14.71Zm0-.45a.044.044,0,0,1-.044-.044v-.035a.044.044,0,1,1,.087,0v.035A.044.044,0,0,1,6.579,14.26Zm0-.45a.044.044,0,0,1-.044-.044v-.035a.044.044,0,0,1,.087,0v.035A.044.044,0,0,1,6.579,13.81Zm0-.45a.044.044,0,0,1-.044-.044v-.035a.044.044,0,1,1,.087,0v.035A.044.044,0,0,1,6.579,13.36Zm0-.45a.044.044,0,0,1-.044-.044v-.035a.044.044,0,1,1,.087,0v.035A.044.044,0,0,1,6.579,12.909Zm0-.45a.044.044,0,0,1-.044-.044v-.035a.044.044,0,0,1,.087,0v.035A.044.044,0,0,1,6.579,12.459Zm0-.45a.044.044,0,0,1-.044-.044v-.035a.044.044,0,1,1,.087,0v.035A.044.044,0,0,1,6.579,12.009Zm0-.45a.044.044,0,0,1-.044-.044v-.035a.044.044,0,1,1,.087,0v.035A.044.044,0,0,1,6.579,11.559Zm0-.45a.044.044,0,0,1-.044-.044v-.035a.044.044,0,1,1,.087,0v.035A.044.044,0,0,1,6.579,11.109Zm0-.45a.044.044,0,0,1-.044-.044V10.58a.044.044,0,1,1,.087,0v.035A.044.044,0,0,1,6.579,10.659Zm0-.45a.044.044,0,0,1-.044-.044V10.13a.044.044,0,1,1,.087,0v.035A.044.044,0,0,1,6.579,10.208Zm0-.45a.044.044,0,0,1-.044-.044V9.68a.044.044,0,0,1,.087,0v.035A.044.044,0,0,1,6.579,9.758Zm0-.45a.044.044,0,0,1-.044-.044V9.23a.044.044,0,1,1,.087,0v.035A.044.044,0,0,1,6.579,9.308Zm0-.45a.044.044,0,0,1-.044-.044V8.779a.044.044,0,1,1,.087,0v.035A.044.044,0,0,1,6.579,8.858Zm0-.45a.044.044,0,0,1-.044-.044V8.329a.044.044,0,1,1,.087,0v.035A.044.044,0,0,1,6.579,8.408Zm0-.45a.044.044,0,0,1-.044-.044V7.879a.044.044,0,0,1,.087,0v.035A.044.044,0,0,1,6.579,7.957Zm0-.45a.044.044,0,0,1-.044-.044V7.429a.044.044,0,0,1,.087,0v.035A.044.044,0,0,1,6.579,7.507Zm0-.45a.044.044,0,0,1-.044-.044V6.979a.044.044,0,1,1,.087,0v.035A.044.044,0,0,1,6.579,7.057Zm0-.45a.044.044,0,0,1-.044-.044V6.528a.044.044,0,0,1,.087,0v.035A.044.044,0,0,1,6.579,6.607Zm0-.45a.044.044,0,0,1-.044-.044V6.078a.044.044,0,1,1,.087,0v.035A.044.044,0,0,1,6.579,6.157Zm0-.45a.044.044,0,0,1-.044-.044V5.628a.044.044,0,1,1,.087,0v.035A.044.044,0,0,1,6.579,5.706Zm0-.45a.044.044,0,0,1-.044-.044V5.178a.044.044,0,1,1,.087,0v.035A.044.044,0,0,1,6.579,5.256Zm0-.45a.044.044,0,0,1-.044-.044V4.728a.044.044,0,1,1,.087,0v.035A.044.044,0,0,1,6.579,4.806Zm0-.45a.044.044,0,0,1-.044-.044V4.278a.044.044,0,1,1,.087,0v.035A.044.044,0,0,1,6.579,4.356Zm0-.45a.044.044,0,0,1-.044-.044V3.827a.044.044,0,0,1,.087,0v.035A.044.044,0,0,1,6.579,3.905Zm0-.45a.044.044,0,0,1-.044-.044V3.377a.044.044,0,1,1,.087,0v.035A.044.044,0,0,1,6.579,3.455Zm0-.45a.044.044,0,0,1-.044-.044V2.927a.044.044,0,0,1,.087,0v.035A.044.044,0,0,1,6.579,3.005Zm0-.45a.044.044,0,0,1-.044-.044V2.477a.044.044,0,0,1,.087,0v.035A.044.044,0,0,1,6.579,2.555Z" style="fill:#fff;opacity:0.5"/><path d="M6.579,2.1a.044.044,0,0,1-.044-.044V2.044a.044.044,0,0,1,.087,0v.018A.044.044,0,0,1,6.579,2.1Z" style="fill:#fff;opacity:0.5"/><path d="M29.295,26.414H2.7v.7h26.6ZM15.985,6.071V4.784L3,26.414h.831Zm-8.2,8.02-.743-.524L2.7,26.414H3.53Zm8.2-8.02V4.784L7.043,13.567l.743.524ZM28.159,26.414h.831L15.985,4.784V6.071Zm.281,0h.855L24.926,13.567l-.743.524ZM24.183,14.09l.743-.524L15.985,4.784V6.071ZM17.043,22.7H7.783v-.93h9.259Zm-5.557,1.394H6.625v.93h4.86Zm9.483,0h-8.1v.93h8.1Zm4.632,0H22.117v.93H25.6Zm-1.393-2.327H18.421v.93h5.788Z" style="fill:#fff"/></svg>