<svg xmlns="http://www.w3.org/2000/svg" viewBox="0 0 32 32"><title>file_type_manifest_bak</title><path d="M20.75,2H4.35V30h23.3V9Zm4.6,25.7H6.75V4.3h11.7v7h7V27.7Z" style="fill:#c5c5c5"/><path d="M25.535,26.265l.587-.583c2.715.089,2.756-.007,2.876-.286l.746-1.816.055-.171-.061-.151c-.032-.08-.13-.317-1.825-1.933v-.85c1.956-1.884,1.914-1.981,1.8-2.256l-.743-1.835c-.111-.275-.154-.383-2.849-.309l-.587-.606a13.142,13.142,0,0,0-.092-2.676l-.076-.171-1.939-.848c-.286-.13-.386-.177-2.217,1.816l-.823-.012c-1.88-2.012-1.97-1.978-2.252-1.862l-1.8.729c-.282.114-.382.155-.273,2.892l-.582.58c-2.713-.089-2.755.008-2.873.286l-.749,1.816-.059.174.061.151c.032.078.126.313,1.825,1.931v.848c-1.956,1.884-1.913,1.981-1.8,2.257l.742,1.837c.113.281.154.381,2.848.31l.587.61a13.2,13.2,0,0,0,.089,2.672l.076.173,1.951.853c.284.119.382.161,2.207-1.825l.823.01c1.887,2.014,1.984,1.975,2.26,1.864l1.8-.727C25.55,29.043,25.649,29,25.535,26.265ZM17.8,22.013a3.232,3.232,0,1,1,4.23,1.841,3.269,3.269,0,0,1-4.229-1.842Z" style="fill:#40535b"/><path d="M20.856,9.659a10.743,10.743,0,0,1,7.893,3.249A10.739,10.739,0,0,1,32,20.8a10.739,10.739,0,0,1-3.25,7.891,10.743,10.743,0,0,1-7.893,3.249,10.7,10.7,0,0,1-6.789-2.321l1.74-1.74a8.835,8.835,0,0,0,5.049,1.568A8.624,8.624,0,0,0,29.505,20.8a8.624,8.624,0,0,0-8.649-8.647A8.624,8.624,0,0,0,12.207,20.8h3.714l-4.99,4.934L6,20.8H9.713a10.739,10.739,0,0,1,3.25-7.891A10.758,10.758,0,0,1,20.856,9.659Z" style="fill:#99b8c4"/><path d="M23.353,20.8a2.518,2.518,0,1,1-.8-1.785l.045.045A2.384,2.384,0,0,1,23.353,20.8Z" style="fill:#99b8c4"/></svg>