<svg version="1.1" viewBox="0 0 32 32" xml:space="preserve" xmlns="http://www.w3.org/2000/svg"><title>file_type_vbproj</title><g transform="matrix(1.1549 0 0 1.1549 6.6699 14.758)"><path d="m0.41 9.37-4.01-3.01a1 1 0 0 1-0.4-0.8v-9.04a1 1 0 0 1 0.4-0.8l4.01-3.01a0.9 0.9 0 0 0-0.27 0.8v15.06a0.91 0.91 0 0 0 0.27 0.8z" fill="#5e438f"/><path d="m19.64-6.82a1 1 0 0 0-1.25 0.11l-0.07 0.07-16.54 15.86-0.07 0.07a1 1 0 0 1-1.3 0.08l-4.01-3.01a1 1 0 0 0 1.36-0.15c4.85-5.61 9.68-11.24 14.52-16.86 0.2-0.23 0.47-0.35 0.77-0.35 0.2 0 0.39 0.05 0.55 0.16z" fill="#7252aa"/><path d="m19.65 8.9-6.03 4.02c-0.42 0.28-0.99 0.2-1.32-0.18l-14.53-16.87a1 1 0 0 0-1.37-0.15l4.02-3.01a1 1 0 0 1 0.6-0.2c0.26 0 0.51 0.1 0.7 0.28l0.06 0.07 16.54 15.86 0.07 0.07a1 1 0 0 0 1.25 0.11z" fill="#ae7fe2"/><path d="m20.09-5.99v14.05a1 1 0 0 1-0.45 0.84l-6.02 4.02a1 1 0 0 0 0.44-0.84v-22.08a1.02 1.02 0 0 0-0.46-0.84l6.04 4.02a1.01 1.01 0 0 1 0.45 0.83z" fill="#d59dff"/></g><g transform="translate(-.17126 -.57442)"><polygon points="14.216 15.53 14.749 18.269 15.282 15.53 21.985 15.53 17.631 32.03 11.87 32.03 7.511 15.53" fill="#efeef0"/><path d="m27.556 32.03h-7.311v-16.5l7.37 0.011a4.517 4.517 0 0 1 3.24 2.115 5.032 5.032 0 0 1 0.69 2.592 5.164 5.164 0 0 1-0.643 2.471c-0.066 0.114-0.137 0.225-0.21 0.332a4.893 4.893 0 0 1 0.6 0.771 5.041 5.041 0 0 1 0.7 2.586 5.757 5.757 0 0 1-0.623 2.89 5.328 5.328 0 0 1-3.7 2.713z" fill="#efeef0"/><path d="m13 17.153 1.749 8.993 1.751-8.993h3.5l-3.5 13.254h-3.5l-3.5-13.254z" fill="#00519a"/><path d="m21.745 17.153h5.7a3.032 3.032 0 0 1 2.174 1.42 3.26 3.26 0 0 1 0.428 1.656 3.437 3.437 0 0 1-0.428 1.651 3.119 3.119 0 0 1-1.756 1.431 3.045 3.045 0 0 1 2.2 1.426 3.282 3.282 0 0 1 0.435 1.7 4.041 4.041 0 0 1-0.434 2.067 3.788 3.788 0 0 1-2.624 1.9h-5.69zm3.5 5.207h0.874a1.393 1.393 0 0 0 1.213-1.528 1.374 1.374 0 0 0-1.213-1.313h-0.874zm0 5.684h1.045a1.619 1.619 0 0 0 1.45-1.744 1.6 1.6 0 0 0-1.45-1.57h-1.045z" fill="#00519a"/></g></svg>
