<svg xmlns="http://www.w3.org/2000/svg" viewBox="0 0 32 32"><title>file_type_dal</title><path d="M23.425,2.937,30,2.94l0,6.573-1.951-.029L28.07,5.77,18.827,15,11.4,8.656,3.382,16.077,2,14.727l9.379-8.614,7.439,6.116,7.344-7.362-2.73.005-.008-1.935Z" style="fill:#828282"/><path d="M24.365,11.708l1.911-1.884,0,19.227H24.352l.013-17.342Z" style="fill:#828282"/><path d="M9.468,12.7l1.922-1.783-.016,18.148-1.906-.016V12.7Z" style="fill:#828282"/><path d="M13.2,12.5l1.908,1.619L15.1,29.058l-1.911-.008L13.2,12.5Z" style="fill:#828282"/><path d="M20.645,15.583l1.908-2.039.005,15.5-1.927,0,.013-13.467Z" style="fill:#828282"/><path d="M5.742,16.191l1.924-1.826.027,14.682H5.748L5.742,16.191Z" style="fill:#828282"/><path d="M16.918,15.66l1.914,1.64.005,11.748-1.927,0,.008-13.39Z" style="fill:#828282"/></svg>