<svg xmlns="http://www.w3.org/2000/svg" viewBox="0 0 32 32"><title>file_type_fbx</title><polyline points="16.597 2 8.252 6.378 7.881 9.082 7.895 27.447 16.419 30" style="fill:#008f90;opacity:0.75;isolation:isolate"/><polygon points="7.895 11.896 7.895 14.929 13.33 17.675 16.487 19.706 16.53 11.889 7.895 11.896" style="fill:#00393a"/><polygon points="16.53 11.889 16.487 19.706 23.391 17.043 24.146 11.882 16.53 11.889" style="fill:#008f90"/><polygon points="8.225 6.378 7.854 9.069 16.556 8.464 16.597 2 8.225 6.378" style="fill:#004748"/><polygon points="22.375 3.222 16.597 2 16.556 8.464 24.105 7.188 22.375 3.222" style="fill:#009b9d"/><polygon points="8.252 6.378 7.881 9.082 7.895 27.447 16.542 11.896 8.252 6.378" style="fill:#002526;opacity:0.7000000000000001;isolation:isolate"/><polygon points="7.895 27.447 12.63 28.861 16.419 30 16.542 11.896 7.895 27.447" style="fill:#006c6e;opacity:0.5;isolation:isolate"/></svg>