<svg xmlns="http://www.w3.org/2000/svg" xmlns:xlink="http://www.w3.org/1999/xlink" viewBox="0 0 32 32"><defs><linearGradient id="a" x1="16.262" y1="2.974" x2="16.262" y2="28.858" gradientUnits="userSpaceOnUse"><stop offset="0" stop-color="#535355"/><stop offset="1" stop-color="#0a0a0a"/></linearGradient><linearGradient id="b" x1="20.703" y1="23.848" x2="11.652" y2="8.171" gradientUnits="userSpaceOnUse"><stop offset="0" stop-color="#fff"/><stop offset="1"/></linearGradient></defs><title>file_type_gamemaker81</title><path d="M11.956,2.572A18.491,18.491,0,0,1,15.343,2a1.945,1.945,0,0,1,1.057.222,1.3,1.3,0,0,1,.426.724,12,12,0,0,1,.4,2.487,10.866,10.866,0,0,1,2.838.8A15.984,15.984,0,0,1,21.7,4.324a1.319,1.319,0,0,1,.765-.42,2.252,2.252,0,0,1,1.337.415A11.109,11.109,0,0,1,25.817,6.04a11.246,11.246,0,0,1,1.559,2A4.678,4.678,0,0,1,27.96,9.4c.064.292-.187.508-.362.7a17.137,17.137,0,0,1-2.1,1.629,10.716,10.716,0,0,1,.765,2.785,14.278,14.278,0,0,1,2.382.391,1.574,1.574,0,0,1,1.08.771,4.071,4.071,0,0,1,.029,2.476,23.871,23.871,0,0,1-1.109,3.737c-.239.543-.543,1.168-1.162,1.337A3.719,3.719,0,0,1,25.73,22.9a12.972,12.972,0,0,1-1.5-.7,10.547,10.547,0,0,1-1.944,1.973c.269.671.555,1.343.765,2.032a2.2,2.2,0,0,1,.07,1.355,1.9,1.9,0,0,1-.49.747,4.081,4.081,0,0,1-1.109.543,30.526,30.526,0,0,1-3.275.969,5.031,5.031,0,0,1-1.769.146,1.339,1.339,0,0,1-1.016-.73,8.857,8.857,0,0,1-.712-2.9,10.556,10.556,0,0,1-2.674-.631c-.6.666-1.168,1.355-1.827,1.962a1.491,1.491,0,0,1-.87.479,2.367,2.367,0,0,1-1.325-.49A13.454,13.454,0,0,1,5.989,25.81a11.4,11.4,0,0,1-1.571-1.985,2.294,2.294,0,0,1-.368-1.518,1.362,1.362,0,0,1,.508-.788,11.327,11.327,0,0,1,1.7-1.22,10.872,10.872,0,0,1-.852-2.791,22.806,22.806,0,0,1-2.353-.514,1.726,1.726,0,0,1-.689-.356,1.539,1.539,0,0,1-.3-.882,9.3,9.3,0,0,1,.38-2.686,23.018,23.018,0,0,1,.993-3.013,2.644,2.644,0,0,1,.736-1.074,1.189,1.189,0,0,1,.9-.105,9.565,9.565,0,0,1,2.242.753A10.435,10.435,0,0,1,9.5,7.442c-.251-.782-.525-1.553-.7-2.359a1.428,1.428,0,0,1,.023-.911,2.065,2.065,0,0,1,.847-.782,10.393,10.393,0,0,1,2.289-.817m.4.4a8.741,8.741,0,0,0-2.6.963c-.269.181-.613.438-.508.812a20.694,20.694,0,0,0,.835,2.89A10.563,10.563,0,0,0,7.5,10.25a12.42,12.42,0,0,0-2.254-.829,2.1,2.1,0,0,0-.66-.07.694.694,0,0,0-.368.327,5.621,5.621,0,0,0-.514,1.068,22.677,22.677,0,0,0-1.063,3.8,4.514,4.514,0,0,0-.053,1.4.776.776,0,0,0,.158.385,1.615,1.615,0,0,0,.362.181v.018a13.577,13.577,0,0,0,1.349.3c.461.128.934.169,1.4.286.029.286.088.572.14.858a10.386,10.386,0,0,0,.7,2.108l.193.42a12.423,12.423,0,0,0-2.044,1.425,1.365,1.365,0,0,0-.3.385,1.512,1.512,0,0,0,.193,1.051,5.124,5.124,0,0,0,.677,1.051,13.284,13.284,0,0,0,1,1.144,12.445,12.445,0,0,0,1.139,1.08,4.753,4.753,0,0,0,1.349.928c.2.064.432.163.625.035a5.265,5.265,0,0,0,1.179-1.1,9.9,9.9,0,0,0,.9-1.016h.018a4.327,4.327,0,0,1,.315-.339,2.889,2.889,0,0,0,.45.146,4.347,4.347,0,0,0,.841.292,11.7,11.7,0,0,0,1.95.315c.088.344.053.712.152,1.051a3.043,3.043,0,0,0,.128.782,3.63,3.63,0,0,0,.385,1.127c.864-.263,1.752-.473,2.616-.73.461-.07.9-.239,1.355-.344.724-.169,1.43-.385,2.143-.6a6.392,6.392,0,0,0,.718-.169,3.726,3.726,0,0,0-.228-1.033c-.07-.28-.21-.537-.292-.812-.029-.058-.035-.146-.093-.181-.093-.339-.269-.642-.356-.981.321-.28.671-.531.969-.841a4.318,4.318,0,0,0,.718-.742c.228-.245.415-.52.625-.782.058-.1.169-.029.245.012a5.139,5.139,0,0,0,.666.344,6.82,6.82,0,0,0,2.131.747.718.718,0,0,0,.6-.2,2.554,2.554,0,0,0,.473-.759,3.744,3.744,0,0,0,.28-.777l.023-.006a27.223,27.223,0,0,0,.841-3.019,5.681,5.681,0,0,0,.134-1.506,1.257,1.257,0,0,0-.251-.771,1.309,1.309,0,0,0-.525-.3,22.2,22.2,0,0,0-2.838-.5,10.224,10.224,0,0,0-.893-3.346c.076-.07.152-.134.222-.2h.023c.514-.327,1-.695,1.483-1.068a4.72,4.72,0,0,0,.841-.794,1.1,1.1,0,0,0-.088-.362,5.506,5.506,0,0,0-.52-1.01c-.029-.023-.088-.064-.111-.088A9.724,9.724,0,0,0,24.895,5.8a6.751,6.751,0,0,0-1.787-1.3.844.844,0,0,0-.823-.018,5.151,5.151,0,0,0-.753.718c-.467.531-.893,1.08-1.314,1.641a10.194,10.194,0,0,0-3.375-.952.9.9,0,0,0-.076-.07,13.2,13.2,0,0,0-.4-2.744h-.006c-.076-.181-.117-.426-.321-.5a2.526,2.526,0,0,0-.981-.076A19.894,19.894,0,0,0,12.359,2.969Z" style="fill:#010101"/><path d="M7.571,26.639a4.753,4.753,0,0,0,1.349.928c.2.064.432.163.625.035a5.4,5.4,0,0,0,1.179-1.1,9.318,9.318,0,0,0,.9-1.016c-.128-.006-.21.088-.292.175a.092.092,0,0,1-.022-.017l.016.011c.082-.088.163-.181.292-.175h.018c.1-.117.2-.228.315-.339a2.889,2.889,0,0,0,.45.146,6.715,6.715,0,0,0,1.713-.413l.021-.007c.128.029.251.053.385.076.181-.146.356-.3.537-.45q-.324-.044-.648-.105c-.087.081-.186.151-.285.227l0,0c.093-.07.193-.146.286-.228-.158-.035-.315-.076-.473-.117-.134-.035-.269-.076-.4-.117a8.588,8.588,0,0,1-1.769-.794l-.006,0A8.964,8.964,0,0,1,10.345,22.3c-.045.062-.086.13-.131.193h0c.047-.064.088-.134.134-.2A8.853,8.853,0,0,1,8.873,20.5c-.07.158-.14.309-.216.467l0,0c.074-.149.143-.3.212-.459A8.416,8.416,0,0,1,7.642,16.8c-.022.022-.043.045-.063.069.02-.024.041-.047.063-.069A9,9,0,0,1,8,13.379a9.79,9.79,0,0,1,.771-1.687.863.863,0,0,1-.076-.047c-.1.086-.212.161-.316.247v0c.1-.088.216-.163.321-.251a.864.864,0,0,1,.076.047,7.988,7.988,0,0,1,1.232-1.606,7.239,7.239,0,0,1,1.15-1,8.651,8.651,0,0,1,2.415-1.208l.014.005a7.671,7.671,0,0,1,1.693-.356l-.111-.064h.008l.1.059c.473-.064.952-.018,1.425-.035.067-.026.136-.053.2-.086-.064.033-.131.061-.2.086a12.511,12.511,0,0,1,1.239.18h0a8.519,8.519,0,0,1,3.054,1.322l-.006,0a8.4,8.4,0,0,1,1.46,1.267c.035-.035.076-.07.111-.105a.721.721,0,0,1,.216-.3h0l0,.005a.693.693,0,0,0-.215.3c-.035.035-.076.064-.111.105a8.8,8.8,0,0,1,1,1.331l0,0a9.088,9.088,0,0,1,.795,1.7,3,3,0,0,0,.391-.426h0a3,3,0,0,1-.391.426c.053.146.093.286.134.432a.722.722,0,0,0,.175-.116.766.766,0,0,1-.18.128c.076.3.14.607.193.917.023.152.047.3.076.455.029.424.041.848.029,1.273h0c0,.088-.006.169-.006.257.029.08.057.16.092.24l0,0a2.16,2.16,0,0,0-.1-.234,9.329,9.329,0,0,1-.175,1.2h0a8.425,8.425,0,0,1-.523,1.617l.005,0a8.564,8.564,0,0,1-3.24,3.776.754.754,0,0,1-.006.2,1.264,1.264,0,0,1-.35.128l.012.019-.018-.025a1.264,1.264,0,0,0,.35-.128.754.754,0,0,0,.006-.2,8.6,8.6,0,0,1-2.079.958,8.423,8.423,0,0,1-1.7.339,8.847,8.847,0,0,1-1.244.029c-.216-.012-.438-.029-.654-.058-.181.146-.362.3-.543.45a7.3,7.3,0,0,0,.921.116s-.862-.1,0,.005c-.306-.042-.61-.074-.91-.12-.135-.021-.264-.049-.4-.078a10.394,10.394,0,0,1-1.728.432,4.619,4.619,0,0,0,.841.292,11.508,11.508,0,0,0,1.95.315c.088.344.053.706.152,1.051h0a3.666,3.666,0,0,0,.128.771,3.845,3.845,0,0,0,.385,1.127c.864-.263,1.752-.467,2.616-.73.461-.076.9-.239,1.355-.344.718-.169,1.43-.385,2.143-.6a5.842,5.842,0,0,0,.718-.169,3.68,3.68,0,0,0-.228-1.033c-.07-.28-.21-.537-.292-.812-.029-.058-.035-.146-.093-.181h0c-.094-.336-.267-.639-.354-.975.321-.28.671-.531.969-.841a4.294,4.294,0,0,0,.713-.735l.005.005c.222-.245.415-.525.625-.782.064-.1.169-.029.245.012a5.114,5.114,0,0,0,.666.344l.01-.007a6.806,6.806,0,0,0,2.122.742.678.678,0,0,0,.6-.2,2.762,2.762,0,0,0,.473-.759,3.358,3.358,0,0,0,.279-.77h0l.023-.006A26.01,26.01,0,0,0,29.3,18h0a5.468,5.468,0,0,0,.134-1.506l-.006-.01a1.232,1.232,0,0,0-.251-.761,1.309,1.309,0,0,0-.525-.3,21.226,21.226,0,0,0-2.838-.5,10.082,10.082,0,0,0-.893-3.346c.068-.062.142-.13.215-.193h.018c.514-.333,1-.695,1.483-1.068a4.52,4.52,0,0,0,.841-.794.969.969,0,0,0-.088-.362,5.325,5.325,0,0,0-.52-1.01c-.023-.023-.082-.064-.111-.088a2.266,2.266,0,0,1,.222.613,1.985,1.985,0,0,1-.035.829c-.2-.321-.373-.653-.583-.968l0-.007a12.447,12.447,0,0,0-1.95-2.3A8.15,8.15,0,0,0,23.05,5.141c-.193-.105-.438-.245-.66-.123a2.6,2.6,0,0,0-.683.654c-.479.584-.9,1.209-1.331,1.833a5.861,5.861,0,0,0-1.193-.629h0A15.147,15.147,0,0,0,16.8,6.326c-.006-.146-.018-.286-.018-.426l.058-.012c-.018-.018-.058-.053-.076-.07a13.6,13.6,0,0,0-.4-2.744h-.006a3.646,3.646,0,0,0-.9-.1,12.171,12.171,0,0,0-2.511.362,13.782,13.782,0,0,0-2.2.666,2.544,2.544,0,0,0-.847.5c-.158.134-.064.356-.047.531.14.963.479,1.88.654,2.838A6.886,6.886,0,0,0,8.7,9.479c-.374.5-.742,1-1.08,1.524a10.927,10.927,0,0,0-2.283-.975.986.986,0,0,0-.648,0,1.192,1.192,0,0,0-.35.52,21.544,21.544,0,0,0-.724,2.09A9.408,9.408,0,0,0,3.1,16.252h0c.012.088,0,.175.012.263v.018c.45.093.887.245,1.349.3l.339-.062-.334.062c.455.128.934.175,1.4.286.035.286.088.572.14.858a3.12,3.12,0,0,0,.314.018A3.1,3.1,0,0,1,6,17.974a10.268,10.268,0,0,0,.7,2.108l.009,0c.063.138.12.275.184.413.07.158.146.321.222.479-.619.415-1.244.823-1.822,1.284a1.356,1.356,0,0,0-.415.572l.07.07c.047,0,.094.023.134.023a1.208,1.208,0,0,1,.269-.152c.474-.144.953-.22,1.425-.362.688-.207,1.378-.4,2.073-.59.082-.006.187-.064.251.012.35.354.753.656,1.127.981.07.086.176.042.259.018h0c-.088.023-.189.069-.259-.018-.374-.327-.777-.625-1.127-.981-.064-.076-.169-.023-.251-.012-.695.187-1.39.374-2.073.59-.473.14-.958.222-1.425.362a.939.939,0,0,0-.269.152c-.047,0-.093-.023-.134-.023l-.07-.07a2.829,2.829,0,0,0-.128.543,5.174,5.174,0,0,0,.667,1.037l0,0a14.365,14.365,0,0,0,1,1.144,13.25,13.25,0,0,0,1.139,1.08" style="fill:url(#a)"/><path d="M25.215,15.529q-.005-.1-.012-.2c0-.056-.009-.111-.014-.167q-.034-.372-.1-.735c.023.153.045.307.062.46l.018.137-.018-.137h0c-.017-.156-.04-.312-.064-.468l-.006,0a5.024,5.024,0,0,0-.291-1.088l.005-.008a3.855,3.855,0,0,1,.165.5,8.98,8.98,0,0,0-.41-1.249l-.022-.054a9.008,9.008,0,0,0-.426-.883q-.1-.184-.212-.363-.209-.34-.447-.66-.269-.361-.571-.694L22.8,9.844,22.8,9.838a9.1,9.1,0,0,0-1.363-1.2L21.4,8.619q-.167-.118-.339-.229a9,9,0,0,0-2.8-1.187c-.014.024-.027.049-.042.072l.042-.072a9.019,9.019,0,0,0-1.024-.18,9.14,9.14,0,0,0-1.065-.063q-.462,0-.913.046c.168.023.336.052.5.068l0,.005c-.168-.021-.332-.047-.5-.073A9.037,9.037,0,0,0,7.923,12.3a.284.284,0,0,0,.221-.1c.04.023.079.051.119.079l0,.008c-.041-.023-.082-.053-.123-.082a.287.287,0,0,1-.218.1,8.982,8.982,0,0,0-.564,1.682,9.1,9.1,0,0,0,.054,4.272h0a9,9,0,0,0,1.138,2.62A9.093,9.093,0,0,0,9.976,22.6c.085.071.17.142.253.215s.172.037.259.018l0,0c-.088.023-.193.07-.263-.018-.06-.053-.122-.1-.183-.157a9.038,9.038,0,0,0,3.109,1.878q.136.048.273.092.271.086.55.156t.58.125c.168-.137.331-.283.5-.419q-.324-.044-.648-.105c-.087.081-.186.151-.285.227l0,0c.093-.07.193-.146.286-.228-.158-.035-.315-.076-.473-.117-.134-.035-.269-.076-.4-.117a8.588,8.588,0,0,1-1.769-.794l-.006,0A8.964,8.964,0,0,1,10.345,22.3c-.045.062-.086.13-.131.193h0c.047-.064.088-.134.134-.2A8.853,8.853,0,0,1,8.873,20.5c-.07.158-.14.309-.216.467l0,0c.074-.149.143-.3.212-.459A8.416,8.416,0,0,1,7.642,16.8c-.022.022-.043.045-.063.069.02-.024.041-.047.063-.069A9,9,0,0,1,8,13.379a9.79,9.79,0,0,1,.771-1.687.863.863,0,0,1-.076-.047c-.1.086-.212.161-.316.247v0c.1-.088.216-.163.321-.251a.864.864,0,0,1,.076.047,7.988,7.988,0,0,1,1.232-1.606,7.239,7.239,0,0,1,1.15-1,8.651,8.651,0,0,1,2.415-1.208l.014.005a7.671,7.671,0,0,1,1.693-.356l-.111-.064h.008l.1.059c.473-.064.952-.018,1.425-.035.067-.026.136-.053.2-.086-.064.033-.131.061-.2.086a12.511,12.511,0,0,1,1.239.18h0a8.519,8.519,0,0,1,3.054,1.322l-.006,0a8.4,8.4,0,0,1,1.46,1.267c.035-.035.076-.07.111-.105a.721.721,0,0,1,.216-.3h0l0,.005a.693.693,0,0,0-.215.3c-.035.035-.076.064-.111.105a8.8,8.8,0,0,1,1,1.331l0,0a9.088,9.088,0,0,1,.795,1.7,3,3,0,0,0,.391-.426h0a3,3,0,0,1-.391.426c.053.146.093.286.134.432a.722.722,0,0,0,.175-.116.766.766,0,0,1-.18.128c.076.3.14.607.193.917.023.152.047.3.076.455.029.424.041.848.029,1.273h0c0,.088-.006.169-.006.257.029.08.057.16.092.24l0,0a2.16,2.16,0,0,0-.1-.234,9.329,9.329,0,0,1-.175,1.2h0a8.425,8.425,0,0,1-.523,1.617l.005,0a8.564,8.564,0,0,1-3.24,3.776.754.754,0,0,1-.006.2,1.264,1.264,0,0,1-.35.128l.012.019-.018-.025a1.264,1.264,0,0,0,.35-.128.754.754,0,0,0,.006-.2,8.6,8.6,0,0,1-2.079.958,8.423,8.423,0,0,1-1.7.339,8.847,8.847,0,0,1-1.244.029c-.216-.012-.438-.029-.654-.058-.169.136-.333.282-.5.419q.431.078.875.114.367.03.741.03l.2,0a8.994,8.994,0,0,0,4.006-1.031c-.056-.072-.112-.14-.174-.213a1.058,1.058,0,0,0,.257-.128l-.013-.022.019.028a.963.963,0,0,1-.257.128c.054.065.114.136.169.207a9.081,9.081,0,0,0,4.237-4.746c.02-.053.041-.107.06-.161h0l.007-.019.021-.06q.089-.249.163-.5c.075-.265.137-.533.193-.8l.006-.034,0-.005q.051-.265.085-.531v0l0,.007a9.137,9.137,0,0,0,.073-1.155Q25.227,15.768,25.215,15.529Z" style="fill:url(#b)"/><path d="M12.359,2.969a19.16,19.16,0,0,1,2.7-.467,2.314,2.314,0,0,1,.981.076c.21.076.251.321.321.5a3.389,3.389,0,0,0-.9-.1,12.114,12.114,0,0,0-2.511.362,14.46,14.46,0,0,0-2.2.66,2.645,2.645,0,0,0-.847.5c-.158.14-.064.356-.047.531.14.963.479,1.88.654,2.838a6.886,6.886,0,0,0-1.81,1.606c-.374.5-.742,1-1.08,1.524a10.8,10.8,0,0,0-2.283-.975.986.986,0,0,0-.648,0,1.144,1.144,0,0,0-.35.52,22.1,22.1,0,0,0-.724,2.09A9.3,9.3,0,0,0,3.1,16.252c.012.088,0,.175.012.263a1.4,1.4,0,0,1-.362-.181.776.776,0,0,1-.158-.385,4.343,4.343,0,0,1,.053-1.4,21.99,21.99,0,0,1,1.063-3.8A6,6,0,0,1,4.22,9.678a.742.742,0,0,1,.368-.327,2.288,2.288,0,0,1,.66.07A12.42,12.42,0,0,1,7.5,10.25a10.561,10.561,0,0,1,2.581-2.616,20.694,20.694,0,0,1-.835-2.89c-.105-.374.239-.631.508-.812A8.741,8.741,0,0,1,12.359,2.969Z" style="fill:#b2b3b7"/><path d="M22.285,4.493c.239-.193.566-.082.823.018a6.751,6.751,0,0,1,1.787,1.3A9.724,9.724,0,0,1,26.763,8.06,3.832,3.832,0,0,1,27,8.668a2.2,2.2,0,0,1-.035.829c-.2-.321-.374-.654-.584-.969a12.447,12.447,0,0,0-1.95-2.3,8.393,8.393,0,0,0-1.366-1.086c-.2-.105-.438-.245-.66-.123a2.448,2.448,0,0,0-.683.66c-.479.584-.9,1.2-1.325,1.827a6.5,6.5,0,0,0-1.2-.631,16.575,16.575,0,0,0-2.382-.549c-.006-.14-.018-.28-.018-.426l.058-.012a10.019,10.019,0,0,1,3.375.952c.415-.561.847-1.109,1.308-1.629A4.361,4.361,0,0,1,22.285,4.493Z" style="fill:#b2b3b7"/><path d="M4.857,21.927A12.423,12.423,0,0,1,6.9,20.5c.076.158.146.321.222.479C6.5,21.4,5.884,21.8,5.3,22.266a1.356,1.356,0,0,0-.415.572,2.777,2.777,0,0,0-.134.525,1.452,1.452,0,0,1-.193-1.051A1.182,1.182,0,0,1,4.857,21.927Z" style="fill:#b2b3b7"/><path d="M15.284,7.512c.473-.064.952-.018,1.425-.035.415.041.829.1,1.244.181a8.518,8.518,0,0,1,3.059,1.325,8.615,8.615,0,0,1,1.46,1.267,9.657,9.657,0,0,1,1,1.331,8.73,8.73,0,0,1,.8,1.7c.047.14.093.286.134.432.076.3.14.607.193.917.023.152.047.3.076.455.029.426.041.852.029,1.279-.006.082-.006.169-.006.257a9.329,9.329,0,0,1-.175,1.2A8.416,8.416,0,0,1,24,19.457a8.633,8.633,0,0,1-3.24,3.778,8.721,8.721,0,0,1-2.079.958,8.847,8.847,0,0,1-1.7.339,9.829,9.829,0,0,1-1.244.029c-.222-.012-.438-.029-.654-.058s-.432-.064-.648-.105c-.158-.035-.315-.076-.473-.117-.134-.035-.269-.076-.4-.117a8.588,8.588,0,0,1-1.769-.794A9.205,9.205,0,0,1,10.356,22.3,8.853,8.853,0,0,1,8.885,20.5a8.516,8.516,0,0,1-1.063-2.627,8.309,8.309,0,0,1-.163-1.08,9.118,9.118,0,0,1,.362-3.416,10,10,0,0,1,.771-1.687,7.876,7.876,0,0,1,1.232-1.606,7.546,7.546,0,0,1,1.15-1,8.492,8.492,0,0,1,2.435-1.214,7.318,7.318,0,0,1,1.676-.356M10.351,10.25a7.712,7.712,0,0,0-2.225,4.379.979.979,0,0,0-.047.432l-.012-.053a6.96,6.96,0,0,0,0,1.635l.006-.041a6.431,6.431,0,0,0,.333,1.717,1.519,1.519,0,0,0,.029.228,8.024,8.024,0,0,0,5.173,5.208,8.324,8.324,0,0,0,3.842.315,8.165,8.165,0,0,0,4.934-2.715,7.809,7.809,0,0,0,1.886-4.472,8.707,8.707,0,0,0-.023-1.46,3.866,3.866,0,0,0-.076-.636c-.012-.035-.029-.111-.041-.146l.023.035c-.012-.1-.023-.2-.041-.3H20.381a.564.564,0,0,0-.257.053c-1.168.543-2.347,1.063-3.509,1.629a1.6,1.6,0,0,0-.234.088,3.545,3.545,0,0,0,.333.251l-.263.123a2.981,2.981,0,0,0,.87.566,4.96,4.96,0,0,0,2.8.368c.234-.029.455-.111.689-.123a4.9,4.9,0,0,1-3.024,3.048,5.025,5.025,0,0,1-3.836-.222,4.878,4.878,0,0,1-2.312-2.37,4.723,4.723,0,0,1-.409-2.044l.053.053A4.866,4.866,0,0,1,13.2,12.4a4.976,4.976,0,0,1,3.725-.946,4.883,4.883,0,0,1,2.7,1.325,1.632,1.632,0,0,0,2.1.029,1.587,1.587,0,0,0,.572-1.355,1.927,1.927,0,0,0-.105.187.889.889,0,0,0,.064-.35,1.585,1.585,0,0,0-.385-1.08A8.141,8.141,0,0,0,17,7.932a2.231,2.231,0,0,0-.485-.023,4.01,4.01,0,0,0-.794,0,8.064,8.064,0,0,0-5.366,2.341M16.586,13.2a1.653,1.653,0,0,0,.263.829.943.943,0,0,0,.251.4.424.424,0,0,0,.642-.222.46.46,0,0,0-.053-.339c.058-.309-.146-.561-.251-.835-.088-.2-.2-.467-.455-.473A.426.426,0,0,0,16.586,13.2Z"/><path d="M10.351,10.25A8.07,8.07,0,0,1,15.716,7.9a1.413,1.413,0,0,0,.794,0A2.249,2.249,0,0,1,17,7.926,8.141,8.141,0,0,1,21.864,10.2a1.585,1.585,0,0,1,.385,1.08.8.8,0,0,1-.064.35,1.672,1.672,0,0,1-.642.876,1.616,1.616,0,0,1-1.991-.128,4.919,4.919,0,0,0-2.446-1.267,4.968,4.968,0,0,0-3.573.631,4.829,4.829,0,0,0-2.26,3.316c-.134-.047-.269-.093-.4-.134a25.747,25.747,0,0,1-2.592-.911,1.934,1.934,0,0,1-.158.619A7.754,7.754,0,0,1,10.351,10.25Z" style="fill:#d0e27f"/><path d="M16.61,16.048c1.156-.566,2.335-1.086,3.509-1.629,1.29.018,2.587-.012,3.877.018.041.07.093.128.128.2.012.035.029.111.041.146s-.006.093-.006.123a7.673,7.673,0,0,0-1.022.251,20.936,20.936,0,0,1-4.169.648,14.217,14.217,0,0,1-1.576.047A4.266,4.266,0,0,0,16.61,16.048Z" style="fill:#d0e27f"/><path d="M13.533,11.745a4.978,4.978,0,0,1,6.014.636,1.608,1.608,0,0,0,1.991.128,1.672,1.672,0,0,0,.642-.876,1.506,1.506,0,0,1,.105-.187,1.572,1.572,0,0,1-.572,1.355,1.625,1.625,0,0,1-2.1-.029,4.9,4.9,0,0,0-2.7-1.325,4.969,4.969,0,0,0-3.725.946,4.875,4.875,0,0,0-1.915,3.392l-.053-.053a3.224,3.224,0,0,1,.053-.671A4.8,4.8,0,0,1,13.533,11.745Z" style="fill:#28663a"/><path d="M24.241,15.423a8.129,8.129,0,0,1,.023,1.46,7.77,7.77,0,0,1-1.886,4.472,8.136,8.136,0,0,1-4.934,2.715,8.318,8.318,0,0,1-3.842-.315A8.036,8.036,0,0,1,8.43,18.547c-.012-.076-.023-.152-.029-.228.134.315.251.642.409.952a7.929,7.929,0,0,0,1.933,2.5,8.142,8.142,0,0,0,4.893,1.985c.193.011.387.019.58.019.219,0,.431-.017.646-.036a8.122,8.122,0,0,0,6.7-4.723,8,8,0,0,0,.677-3.6" style="fill:#28663a"/><path d="M16.586,13.2a.426.426,0,0,1,.4-.642c.257.006.374.269.455.473.105.269.315.525.251.835a.452.452,0,0,1-.724.111A7.348,7.348,0,0,1,16.586,13.2Z" style="fill:#cfe280"/><path d="M16.586,13.2a6.856,6.856,0,0,0,.385.777.452.452,0,0,0,.724-.111.46.46,0,0,1,.053.339.421.421,0,0,1-.642.222.943.943,0,0,1-.251-.4A1.588,1.588,0,0,1,16.586,13.2Z" style="fill:#27653a"/><path d="M8.12,14.629c.029-.222.07-.42.117-.636a25.171,25.171,0,0,0,2.633.928c.134.041.269.088.4.134a3.256,3.256,0,0,0-.053.671,4.64,4.64,0,0,0,.409,2.044,4.878,4.878,0,0,0,2.312,2.37,5,5,0,0,0,3.836.222A4.913,4.913,0,0,0,20.8,17.315a4.246,4.246,0,0,0,.128-.467,4.964,4.964,0,0,1-4.227-.467,3.545,3.545,0,0,1-.333-.251,1.6,1.6,0,0,1,.234-.088,3.975,3.975,0,0,1,.777-.193,14.175,14.175,0,0,0,1.576-.047,21.368,21.368,0,0,0,4.169-.648,6.214,6.214,0,0,1,1.022-.251c0-.029.006-.093.006-.123a3.866,3.866,0,0,1,.076.636,7.924,7.924,0,0,1-4.286,7.421,8.126,8.126,0,0,1-3.094.9c-.216.021-.412.031-.646.036-.2-.007-.389,0-.58-.019a8.142,8.142,0,0,1-4.893-1.985,7.929,7.929,0,0,1-1.933-2.5c-.152-.309-.274-.631-.409-.952a6.417,6.417,0,0,1-.35-1.711c-.018-.286-.029-.631-.035-.952" style="fill:#b2d33c"/><path d="M16.709,16.386a4.964,4.964,0,0,0,4.227.467c-.041.158-.082.315-.128.467-.234.012-.455.093-.689.123a4.967,4.967,0,0,1-2.8-.368,2.981,2.981,0,0,1-.87-.566l.263-.123" style="fill:#28653a"/></svg>