<svg xmlns="http://www.w3.org/2000/svg" xmlns:xlink="http://www.w3.org/1999/xlink" viewBox="0 0 32 32"><defs><linearGradient id="a" x1="15.699" y1="102.24" x2="15.469" y2="106.745" gradientTransform="matrix(0.994, 0.114, -0.114, 0.994, 21.345, -80.478)" gradientUnits="userSpaceOnUse"><stop offset="0.365" stop-color="#961b1e"/><stop offset="0.697" stop-color="#961b1e"/></linearGradient><linearGradient id="b" x1="15.297" y1="103.82" x2="15.297" y2="105.61" gradientTransform="matrix(0.994, 0.114, -0.114, 0.994, 21.345, -80.478)" gradientUnits="userSpaceOnUse"><stop offset="0.326" stop-color="#c0272d"/><stop offset="0.82" stop-color="#c0272d"/></linearGradient><linearGradient id="c" x1="-3310.623" y1="803.906" x2="-3310.854" y2="808.435" gradientTransform="matrix(-1.071, 0.315, 0.248, 0.986, -3724.367, 274.118)" xlink:href="#a"/><linearGradient id="d" x1="-3311.013" y1="805.472" x2="-3311.013" y2="807.262" gradientTransform="matrix(-1.071, 0.315, 0.248, 0.986, -3724.367, 274.118)" xlink:href="#b"/><linearGradient id="e" x1="22.94" y1="23.821" x2="22.874" y2="14.932" gradientUnits="userSpaceOnUse"><stop offset="0" stop-color="#651116"/><stop offset="0.053" stop-color="#6a1217"/><stop offset="0.463" stop-color="#901b20"/><stop offset="0.793" stop-color="#a72126"/><stop offset="1" stop-color="#b02328"/></linearGradient><radialGradient id="f" cx="131.214" cy="24.534" r="172.942" gradientTransform="translate(19.08 18.916) scale(0.028 0.028)" gradientUnits="userSpaceOnUse"><stop offset="0.478" stop-color="#ec1c24"/><stop offset="0.775" stop-color="#961b1e"/><stop offset="1" stop-color="#d9383c"/></radialGradient><linearGradient id="g" x1="24.269" y1="22.368" x2="21.317" y2="16.316" gradientUnits="userSpaceOnUse"><stop offset="0.006" stop-color="#ca4849"/><stop offset="0.421" stop-color="#c0272d"/><stop offset="1" stop-color="#730b0d"/></linearGradient><radialGradient id="h" cx="137.714" cy="50.972" r="170.148" gradientTransform="translate(19.021 18.917) scale(0.027 0.027)" gradientUnits="userSpaceOnUse"><stop offset="0.618" stop-color="#6c0607"/><stop offset="0.994" stop-color="#b12328"/></radialGradient><radialGradient id="i" cx="-127.767" cy="14.566" r="120.907" gradientTransform="translate(19.287 19.73) rotate(180) scale(0.027 0.027)" gradientUnits="userSpaceOnUse"><stop offset="0.876" stop-color="#c0272d"/><stop offset="1" stop-color="#831416"/></radialGradient><linearGradient id="j" x1="24.103" y1="22.049" x2="21.475" y2="16.617" gradientUnits="userSpaceOnUse"><stop offset="0.006" stop-color="#ca4849"/><stop offset="0.421" stop-color="#c0272d"/><stop offset="1" stop-color="#651116"/></linearGradient><radialGradient id="k" cx="-95.684" cy="89.934" r="191.556" gradientTransform="translate(19.287 19.73) rotate(180) scale(0.027 0.027)" gradientUnits="userSpaceOnUse"><stop offset="0" stop-color="#c5263b"/><stop offset="1" stop-color="#910d10"/></radialGradient><linearGradient id="l" x1="24.273" y1="22.551" x2="21.218" y2="16.168" gradientUnits="userSpaceOnUse"><stop offset="0.017" stop-color="#b12328"/><stop offset="0.096" stop-color="#d9383c"/><stop offset="0.994" stop-color="#651116"/></linearGradient><linearGradient id="m" x1="382.633" y1="-41.131" x2="382.575" y2="-64.593" gradientTransform="matrix(1, 0, 0, -1, -366.615, -37.7)" gradientUnits="userSpaceOnUse"><stop offset="0" stop-color="#ffe800"/><stop offset="1" stop-color="#dfb300"/></linearGradient><linearGradient id="n" x1="383.31" y1="-58.563" x2="382.426" y2="-58.563" gradientTransform="matrix(1, 0, 0, -1, -366.615, -37.7)" gradientUnits="userSpaceOnUse"><stop offset="0" stop-color="#ffe800" stop-opacity="0.392"/><stop offset="1" stop-color="#dfb300" stop-opacity="0.392"/></linearGradient><linearGradient id="o" x1="206.294" y1="-130.964" x2="197.914" y2="-122.585" gradientTransform="matrix(0.707, 0.707, 0.707, -0.707, -37.241, -222.037)" gradientUnits="userSpaceOnUse"><stop offset="0" stop-color="#dfb300"/><stop offset="0.5" stop-color="#dfb300"/><stop offset="1" stop-color="#dfb300"/></linearGradient><linearGradient id="p" x1="-722.753" y1="-709.665" x2="-727.648" y2="-709.665" gradientTransform="translate(859.396 -852.482) rotate(-90) scale(1.188)" gradientUnits="userSpaceOnUse"><stop offset="0" stop-color="#fff"/><stop offset="1" stop-color="#fff" stop-opacity="0"/></linearGradient></defs><title>file_type_key</title><path d="M6.354,3.748v24.5H25.619V8.115h-4.8V3.748ZM22.549,4.832l.011,1.544h1.669l-1.68-1.547Z" style="fill:gray"/><path d="M22.037,2H6.374A1.755,1.755,0,0,0,4.625,3.751v24.5A1.755,1.755,0,0,0,6.374,30H25.625a1.755,1.755,0,0,0,1.751-1.749V6.856Zm.525,2.844,1.663,1.531H22.562ZM6.374,28.251V3.751H20.811V8.125h4.812V28.251Z" style="fill:#c5c5c5"/><path d="M27.047,28.749c-.062-.115-.089-.173-.126-.249-.015-.05-.032-.1-.048-.15a7.9,7.9,0,0,0-.342-.889l-.048-.144-.186-.555-.007-.018-.06-.179c-.054-.177-.112-.341-.171-.508l-.151-.449-.013-.041-.069-.2-1.391-4.139-.152.063v0l-1.877.809-.017,0v0l-.044.019,0,.018.006.04c.016.107.054.356.1.694l-1.771-.4v0l-.174-.037s-.8,3.7-1.105,5.176c-.037.161-.071.326-.1.49-.007.039-.013.067-.015.085-.015.07-.029.139-.044.207l-.127.6c-.011.052-.022.1-.033.154a8.02,8.02,0,0,0-.249.965c-.016.081-.04.2-.062.315a4.718,4.718,0,0,0-.182.451c-.013.031-.026.063-.042.094l.01-.006-.01.026c.081-.059.162-.121.243-.182.165-.119.323-.244.5-.353l.013-.009.122-.1.031-.024a8.134,8.134,0,0,1,.9-.59l.1-.083.33-.263.143.115.159.127a9.578,9.578,0,0,1,.875.564,3,3,0,0,1,.229.2c.207.176.452.337.654.538-.022-.2-.045-.422-.082-.62,0-.1.006-.2.007-.307,0-.306-.011-.609-.013-.914,0-.053,0-.108,0-.162.012-.459.025-.964.037-1.481l.006-.222v0c.009-.367.025-1.051.028-1.106.005-.211.011-.418.016-.62.036.24.072.475.105.7h0l.014.1c.024.159.047.311.069.454.055.361.108.712.157,1.04l.007.042c.008.053.016.1.024.156.035.293.062.587.1.882.013.1.027.2.044.294.013.183.013.384.013.565.134-.161.291-.341.43-.51h0a.4.4,0,0,0,.1-.105,7.506,7.506,0,0,1,.877-.87l.126-.148.114-.133.328.2.1.063c.2.083.4.171.593.27.048.025.1.056.163.091.022.013.087.048.15.081.286.157.6.3.89.458C27.176,29.009,27.131,28.868,27.047,28.749Z" style="fill:#d7d8da"/><path d="M22.534,21.04s.21,1.544.448,3.306c.013.077.024.154.041.232a3.188,3.188,0,0,1,.117.934c.011.078.021.156.032.234.074.544.146,1.075.211,1.558.007.058.015.115.023.171.035.322.06.644.1.967.013.108.027.215.043.323.013.2.013.421.013.62.132-.176.286-.374.424-.56a.431.431,0,0,0,.1-.116,7.866,7.866,0,0,1,.863-.954l.124-.162.112-.146.323.221.1.069c.2.091.394.188.584.3.047.027.1.062.161.1.022.014.085.052.148.089.281.172.59.327.876.5-.088-.132-.132-.286-.215-.417-.061-.126-.088-.19-.124-.273-.015-.055-.031-.11-.047-.165a9.435,9.435,0,0,0-.337-.976l-.047-.158-.184-.609c-.021-.07-.044-.14-.064-.212-.1-.38-.225-.711-.331-1.1l-.068-.224-1.369-4.541Z" style="fill:url(#a)"/><path d="M24.588,20.053l1.369,4.541c.023.075.442,1.465.463,1.535l.184.609.047.158a9.435,9.435,0,0,1,.337.976c.016.055.031.11.047.165.036.083.063.147.124.273s.127.263.193.395c-.286-.154-.573-.331-.854-.481-.062-.037-.126-.075-.148-.089-.058-.039-.113-.073-.161-.1-.19-.108-.385-.2-.584-.3l-.1-.069-.323-.221-.112.146-.124.162a7.866,7.866,0,0,0-.863.954.427.427,0,0,1-.1.116c-.137.185-.292.383-.424.56,0-.2,0-.418-.013-.62-.016-.108-.031-.215-.043-.323-.039-.323-.065-.645-.1-.967-.008-.056-.015-.113-.023-.171-.066-.483-.85-6.265-.85-6.265l.139-.065s.242,1.526.51,3.21c.013.076.244,1.537.256,1.612l.229,1.443c.008.05.016.1.023.146a8.56,8.56,0,0,0,.093,1.131c.211-.414.594-.626.867-.974l.084-.112.335-.448.549.339.114.071c.3.174.657.268.965.443-.107-.281-.234-.564-.338-.849-.012-.042-.024-.085-.037-.128l-.253-.907c-.018-.066-.335-1.2-.356-1.274L24.44,20.122Z" style="fill:#961b1e"/><path d="M22.576,21.015l.507,3.184c.013.076.242,1.524.255,1.6l.228,1.432.023.144a13.248,13.248,0,0,0,.136,1.356c.2-.526.663-.75.985-1.139l.084-.11.338-.442-.11.021.539.341.113.071a7.905,7.905,0,0,1,1.137.579,11.365,11.365,0,0,0-.393-1.1c-.023-.083-.047-.17-.072-.262l-.163-.589-.443-1.6-1.211-4.38-.172.061,1.21,4.38c.023.08.423,1.532.443,1.6l.163.59c.025.091.049.179.073.262.1.289.226.573.334.853l.126-.116c-.271-.17-.573-.212-.834-.393-.039-.023-.077-.047-.116-.071l-.651-.412-.063-.039L25,26.893l-.338.442-.084.11a10.4,10.4,0,0,0-.877.971.289.289,0,0,0,.13.04c-.043-.36.014-.751-.06-1.116-.008-.047-.015-.1-.023-.144l-.228-1.432c-.012-.074-.2-1.293-.218-1.37-.28-1.758-.543-3.413-.543-3.413Z" style="fill:url(#b)"/><path d="M23.1,21.977s-.036,1.61-.077,3.448c0,.081-.007.161-.016.244a3.1,3.1,0,0,0-.012.973c0,.081,0,.163-.005.244-.013.567-.025,1.121-.037,1.625l0,.178c0,.334.014.667.012,1,0,.112,0,.224-.007.337.037.217.059.459.081.68-.2-.22-.441-.4-.644-.59a3.015,3.015,0,0,0-.225-.218,9.252,9.252,0,0,0-.862-.619l-.156-.14-.141-.126-.324.289-.1.091a7.961,7.961,0,0,0-.886.648c-.035.03-.091.081-.15.134-.255.178-.5.4-.74.6.066-.2.132-.419.221-.621.022-.125.045-.257.061-.346a9.57,9.57,0,0,1,.246-1.058c.01-.056.021-.113.032-.17.04-.21.082-.429.125-.655.015-.075.029-.151.043-.228.056-.4.156-.819.225-1.182l.046-.242c.46-2.417.929-4.886.929-4.886Z" style="fill:url(#c)"/><path d="M20.732,21.386s-1.144,5.907-1.2,6.31c-.015.076-.029.153-.043.228-.043.226-.085.445-.125.655-.011.057-.022.114-.032.17a9.57,9.57,0,0,0-.246,1.058c-.016.089-.039.22-.061.346-.089.2-.133.4-.221.6.264-.176.485-.4.739-.575.059-.053.115-.1.15-.134a7.961,7.961,0,0,1,.886-.648l.1-.091.324-.289.141.126.156.14a9.252,9.252,0,0,1,.862.619,3.015,3.015,0,0,1,.225.218c.2.193.445.369.644.59-.022-.22-.044-.463-.081-.68,0-.113.007-.225.007-.337,0-.335-.01-.669-.012-1l0-.178c.011-.5.024-1.058.037-1.625,0-.081.029-1.38.033-1.46.041-1.838.077-3.448.077-3.448l-.16-.038s-.074,1.6-.156,3.362c0,.08-.075,1.61-.078,1.688-.025.549-.049,1.068-.07,1.512l-.007.152a8.276,8.276,0,0,1,.039,1.167c-.282-.378-.727-.517-1.068-.816l-.105-.1-.422-.388-.556.454-.116.095c-.308.237-.684.4-1,.644.083-.307.185-.62.263-.93.008-.045.016-.09.024-.138.048-.288.1-.617.164-.972.012-.071.216-1.285.23-1.365.388-2.3.823-4.882.823-4.882Z" style="fill:#961b1e"/><path d="M23.049,21.961s-.075,1.586-.157,3.335c0,.08-.075,1.6-.078,1.675-.026.544-.05,1.06-.07,1.5,0,.052,0,.1-.007.151a12.939,12.939,0,0,1,.02,1.405c-.286-.493-.818-.628-1.218-.96l-.106-.095-.424-.381h.122l-.546.454-.114.094a9.727,9.727,0,0,0-1.17.816,11.9,11.9,0,0,1,.292-1.2c.015-.089.03-.183.046-.28l.1-.631.038-.228a6.69,6.69,0,0,1,.246-1.488c.371-2.244.776-4.691.776-4.691l.2.028s-.405,2.447-.776,4.691c-.015.087-.221,1.051-.246,1.488l-.038.228-.1.631q-.024.147-.046.281c-.074.314-.176.627-.259.934l-.151-.092c.274-.228.6-.331.861-.567.04-.031.079-.064.117-.1l.66-.549.064-.053.059.053.424.381.106.1a10.05,10.05,0,0,1,1.078.81.359.359,0,0,1-.137.067c0-.375-.108-.761-.074-1.146,0-.049,0-.1.008-.151.021-.44.045-.955.07-1.5l.011-.235a8.828,8.828,0,0,1,.056-1.2c.086-1.842.168-3.575.168-3.575Z" style="fill:url(#d)"/><path d="M21.841,23.424a1.793,1.793,0,0,0,1.857.318c.77-.182.86-.681,1.4-1.043.453-.272.951-.045,1.178-.59.136-.408-.181-.907.09-1.315.317-.59.86-.59.906-1.36.045-.816-.589-.907-.815-1.451-.271-.5.09-.816-.317-1.315a6.014,6.014,0,0,0-2.168-1.652c-.679-.136-1.228.518-1.953.473s-1.323-.641-2.048-.369c-1.313.544-.624,2.138-1.031,3.181a2.393,2.393,0,0,0,.043,2.724,11.381,11.381,0,0,0,.727,1.494c.453.725.951.408,1.63.589A1.238,1.238,0,0,1,21.841,23.424Z" style="fill:url(#e)"/><path d="M21.827,23.3a1.75,1.75,0,0,0,1.815.311c.753-.178.841-.666,1.373-1.022.443-.266.93-.044,1.151-.577.133-.4-.177-.888.088-1.288.31-.577.842-.577.886-1.333.045-.8-.575-.888-.8-1.421-.265-.488.089-.8-.31-1.288a5.9,5.9,0,0,0-2.17-1.555c-.664-.133-1.151.444-1.86.4s-1.24-.578-1.948-.311c-1.284.533-.664,2.043-1.063,3.065a2.346,2.346,0,0,0,.133,2.665,11.232,11.232,0,0,0,.62,1.466c.443.71.93.4,1.594.577A1.205,1.205,0,0,1,21.827,23.3Z" style="fill:url(#f)"/><circle cx="22.787" cy="19.331" r="3.379" style="fill:url(#g)"/><path d="M26.327,18.292c-.048-.159-.048-.335-.1-.51a1.514,1.514,0,0,0-.354-.542,2.344,2.344,0,0,0-.531-.59c-.209-.16-.354-.415-.579-.51a3.867,3.867,0,0,1-.531-.239,4.4,4.4,0,0,0-.531-.351,3.888,3.888,0,0,0-1.421.027c-.933.143-2.043.143-2.557.908a9.276,9.276,0,0,0-.525,1.457,4.456,4.456,0,0,0-.225,1.116h0a4.613,4.613,0,0,0,.065,1.483c.161.638.74.989,1.158,1.467a4.4,4.4,0,0,0,1.03.845c.386.255.86.685,1.31.685a4.8,4.8,0,0,0,1.173-.255,3.2,3.2,0,0,0,1.2-.72c.384-.269.782-.2,1.008-.576s-.077-.554.444-1.654a2.247,2.247,0,0,0,.257-.957A2.861,2.861,0,0,0,26.327,18.292Zm-3.539,4.576a3.5,3.5,0,1,1,3.531-3.5A3.516,3.516,0,0,1,22.788,22.868Z" style="fill:url(#h)"/><circle cx="22.787" cy="19.331" r="3.313" style="fill:url(#i)"/><circle cx="22.787" cy="19.331" r="3.011" style="fill:url(#j)"/><circle cx="22.787" cy="19.331" r="2.951" style="fill:url(#k)"/><path d="M26.065,18.324c-.045-.149-.045-.313-.09-.477a1.414,1.414,0,0,0-.328-.506,2.167,2.167,0,0,0-.491-.551c-.194-.149-.328-.387-.536-.477a3.611,3.611,0,0,1-.491-.223,4.033,4.033,0,0,0-.492-.328,3.506,3.506,0,0,0-1.31-.03A3.1,3.1,0,0,0,20.182,17a6.5,6.5,0,0,0-.715,1,4.2,4.2,0,0,0-.209,1.043h0a4.33,4.33,0,0,0,.06,1.385c.149.6.685.924,1.073,1.37a4.085,4.085,0,0,0,.953.789,2.054,2.054,0,0,0,1.126.448,5.647,5.647,0,0,0,1.24-.133,2.959,2.959,0,0,0,1.122-.65c.348-.247.73-.161,1.225-1.52a6.414,6.414,0,0,0,.277-1.392A2.689,2.689,0,0,0,26.065,18.324ZM22.787,22.6a3.27,3.27,0,1,1,3.27-3.27A3.27,3.27,0,0,1,22.787,22.6Z" style="fill:url(#l)"/><path d="M20.074,15.251s.326-.222,1.037.055a2.127,2.127,0,0,0,.576.177.8.8,0,0,1-.716-.019A2.124,2.124,0,0,0,20.074,15.251Z" style="fill:#f48e84"/><path d="M22.749,15.428s.8-.436,1.211-.214a1.13,1.13,0,0,0-.657.037A2.216,2.216,0,0,1,22.749,15.428Z" style="fill:#fadae8"/><path d="M19.478,17.281a1.834,1.834,0,0,1,.385-.889,1.924,1.924,0,0,1,1.209-.588,5.586,5.586,0,0,0-1.034.515,1.437,1.437,0,0,0-.363.481C19.664,16.828,19.583,17,19.478,17.281Z" style="fill:#9b1d20"/><path d="M21.487,15.99a3.746,3.746,0,0,1,2.156-.192s.376.207.008.133a2.388,2.388,0,0,0-1.019-.14,3.6,3.6,0,0,0-1.115.251S21.428,16.049,21.487,15.99Z" style="fill:#54000d"/><path d="M26.189,21.5s.111.605-.258.819-.413.111-.413.111a.659.659,0,0,0,.509-.273A1.1,1.1,0,0,0,26.189,21.5Z" style="fill:#ca4849"/><path d="M18.782,19.012a2.11,2.11,0,0,0,.207,1.668s-.155-.546-.2-.7A2.1,2.1,0,0,1,18.782,19.012Z" style="fill:#f8cce0"/><path d="M19.794,22.4a1.009,1.009,0,0,0,.833.472A.72.72,0,0,1,19.794,22.4Z" style="fill:#f9d0e2"/><path d="M25.056,22.175s.109.023.341-.173a3.376,3.376,0,0,0,.422-.536,5.072,5.072,0,0,1-.4.57C25.346,22.1,25.167,22.23,25.056,22.175Z" style="fill:#651116"/><path d="M26.6,18.4a1.036,1.036,0,0,1,.5.841,1.333,1.333,0,0,0-.393-.7S26.475,18.383,26.6,18.4Z" style="fill:#fadae8"/><path d="M26.182,17.359a.824.824,0,0,0-.3-.753A1.04,1.04,0,0,1,26.182,17.359Z" style="fill:#fadae8"/><path d="M26.536,19.591c-.033.25-.122.594-.122.594a1.934,1.934,0,0,0,.168-.859C26.547,19.169,26.57,19.332,26.536,19.591Z" style="fill:#b12328"/><path d="M23.244,23.643a1.979,1.979,0,0,0,.923-.34,3.408,3.408,0,0,1-.524.229C23.546,23.54,23.259,23.6,23.244,23.643Z" style="fill:#db726f"/><path d="M22.971,22.927a2.591,2.591,0,0,0,1.285-.339A2.964,2.964,0,0,1,22.971,22.927Z" style="fill:#f8c9dd"/><path d="M23.607,23.153a3.013,3.013,0,0,1-.767.107c-.161,0-.635-.148-.025-.145a7.377,7.377,0,0,0,.993-.139s.341-.131.346-.13C24.345,22.887,23.993,23.048,23.607,23.153Z" style="fill:#651116"/><path d="M16,5.5a5.1,5.1,0,0,0-2.6,9.482v1.345l1.05,1.343L13.4,19.017l1.05,1.343L13.4,21.7l1.05,1.346L13.4,24.394l2.305,1.949.185.157.4-.336,2.093-1.754V15.1A5.1,5.1,0,0,0,16,5.5Zm0,1.464A2.122,2.122,0,0,1,18.34,8.751,2.123,2.123,0,0,1,16,10.54,2.121,2.121,0,0,1,13.66,8.751,2.12,2.12,0,0,1,16,6.964Z" style="fill:url(#m)"/><path d="M16,15.228a.712.712,0,0,0-.662.439.729.729,0,0,0-.057.28V25.983l.151.128.185.157.275.232.276-.231.4-.336.152-.128v-9.86a.729.729,0,0,0-.057-.28.692.692,0,0,0-.381-.381A.729.729,0,0,0,16,15.228Z" style="fill:url(#n)"/><path d="M15.915,6.325c-.142,0-.282.015-.42.032a4.234,4.234,0,0,1,.528-.032Zm.217,0a4.2,4.2,0,0,1,.737.084A4.214,4.214,0,0,0,16.133,6.326Zm-.748.047c-.066.01-.131.022-.2.035Q15.286,6.388,15.385,6.373Zm-.207.037c-.068.014-.136.03-.2.047C15.043,6.44,15.11,6.424,15.178,6.41Zm-.2.047c-.135.035-.266.075-.395.123Q14.774,6.509,14.976,6.457Zm-.395.123c-.129.047-.255.1-.377.16C14.326,6.681,14.453,6.627,14.581,6.58Zm-.377.16c-.122.059-.242.123-.357.193C13.962,6.863,14.082,6.8,14.2,6.74Zm-.357.193c-.047.029-.094.059-.14.089C13.753,6.992,13.8,6.962,13.847,6.933Zm3.126-.5c.068.016.135.033.2.052Q17.074,6.457,16.972,6.433Zm.4.113c.065.022.128.046.192.071C17.5,6.592,17.436,6.568,17.371,6.546Zm.744.336c.058.034.115.069.172.105C18.23,6.951,18.173,6.916,18.115,6.882Zm.173.105c.056.036.112.074.167.113C18.4,7.062,18.345,7.024,18.288,6.988Zm-4.611.055-.084.059Zm-.084.059-.081.059Zm-.161.12-.079.064Zm-.156.129-.075.067Zm5.572.067c.037.034.074.069.111.1C18.922,7.485,18.885,7.451,18.848,7.417Zm.145.139.071.072Zm-6.143.221c-.044.051-.088.1-.129.156C12.762,7.88,12.806,7.827,12.85,7.777Zm6.478.156c.042.053.082.106.121.161C19.41,8.039,19.369,7.986,19.328,7.933ZM12.6,8.094l-.059.084Zm-.059.084c-.019.028-.037.056-.055.084C12.505,8.233,12.523,8.206,12.542,8.178Zm-.16.257c-.017.03-.034.059-.051.089C12.347,8.495,12.365,8.464,12.382,8.435Zm-.1.179c-.015.03-.031.06-.045.091C12.254,8.674,12.269,8.644,12.285,8.614Zm-.045.091c-.014.029-.028.058-.041.088Zm-.084.187c-.013.031-.026.063-.039.095C12.129,8.954,12.142,8.922,12.155,8.891Zm-.039.095c-.013.032-.026.064-.037.1C12.091,9.049,12.1,9.017,12.117,8.986Zm-.037.1c-.012.032-.022.065-.033.1C12.057,9.146,12.068,9.114,12.079,9.082Zm-.065.195c-.01.033-.02.066-.029.1C11.994,9.343,12,9.309,12.014,9.276ZM20.07,9.4c.015.053.029.106.041.16C20.1,9.5,20.085,9.45,20.07,9.4Zm-8.137.18c-.007.03-.014.06-.02.091C11.919,9.638,11.926,9.608,11.933,9.577Zm-.027.121c-.006.031-.012.063-.017.095C11.894,9.762,11.9,9.73,11.906,9.7Zm-.035.2c-.01.068-.018.136-.025.205C11.853,10.034,11.861,9.965,11.871,9.9Zm8.319.093c.009.07.017.14.023.211C20.207,10.13,20.2,10.061,20.19,9.991Zm-8.36.75a4.2,4.2,0,0,0,8.389,0c-.118,2.013-1.954.717-4.2.717S11.948,12.754,11.83,10.741Z" style="fill:url(#o)"/><path d="M15.915,6.326a4.2,4.2,0,0,0-4.09,4.2c0,2.318,1.881.934,4.2.934s4.2,1.384,4.2-.934a4.2,4.2,0,0,0-4.2-4.2ZM16,6.964a2.121,2.121,0,0,1,2.339,1.788A2.121,2.121,0,0,1,16,10.54a2.121,2.121,0,0,1-2.339-1.788A2.121,2.121,0,0,1,16,6.964Z" style="fill:url(#p)"/></svg>