<svg xmlns="http://www.w3.org/2000/svg" viewBox="0 0 32 32"><title>file_type_silverstripe</title><path d="M13.4,20.7a4.808,4.808,0,0,0,1.251-6.683l-3.963,2.712h0a2.4,2.4,0,0,1-2.712-3.971h0l3.621-2.479,2.324-1.593A4.808,4.808,0,0,0,15.168,2L11.2,4.72,5.259,8.784l-.008.008A7.212,7.212,0,0,0,13.4,20.7Z" style="fill:#005a92"/><path d="M18.61,11.3h0a.107.107,0,0,0-.031.023l.031-.023a4.808,4.808,0,0,0-1.251,6.683l3.963-2.712h0a2.407,2.407,0,0,1,2.72,3.971l-3.621,2.479L18.09,23.317A4.808,4.808,0,0,0,16.838,30L20.8,27.288l5.945-4.072A7.213,7.213,0,0,0,18.61,11.3" style="fill:#005a92"/></svg>