<svg xmlns="http://www.w3.org/2000/svg" viewBox="0 0 32 32"><title>file_type_xib</title><polygon points="20.197 14.474 17.369 11.656 23.719 5.329 26.514 8.114 20.197 14.474" style="fill:#fdcd31"/><path d="M20.2,14.773,17.07,11.656l6.649-6.625,3.093,3.082Zm-2.53-3.116L20.2,14.175l6.02-6.061-2.5-2.487Z" style="fill:#e9ad0f"/><rect x="6.264" y="18.687" width="9.762" height="3.995" transform="translate(-11.362 13.939) rotate(-45)" style="fill:#fdcd31"/><path d="M9.106,25.846,5.984,22.724l7.2-7.2,3.124,3.124ZM6.581,22.724,9.106,25.25l6.6-6.6-2.527-2.527Z" style="fill:#e9ad0f"/><path d="M5.592,23.415l2.81,2.8L2.232,29.6a.014.014,0,0,1-.019-.019Z" style="fill:#fdcd31"/><path d="M2.225,29.815a.225.225,0,0,1-.2-.333l3.514-6.414,3.209,3.2L2.334,29.787A.227.227,0,0,1,2.225,29.815Zm3.417-6.052L2.723,29.092l5.33-2.925Z" style="fill:#e9ad0f"/><path d="M29.094,5.588,27.155,7.526,24.321,4.692l1.854-1.857a1.3,1.3,0,0,1,1.707.016l1.2,1.23A1.19,1.19,0,0,1,29.094,5.588Z" style="fill:#fdcd31"/><path d="M27.155,7.825,24.022,4.692l2-2.006a1.515,1.515,0,0,1,2.006.016l1.2,1.232a1.412,1.412,0,0,1,.023,1.792l-.011.011ZM24.619,4.692l2.536,2.536,1.784-1.784a.974.974,0,0,0-.019-1.225L27.731,3a1.1,1.1,0,0,0-1.407-.014Z" style="fill:#e9ad0f"/><rect x="20.124" y="18.597" width="4.006" height="3.913" transform="translate(-8.052 21.666) rotate(-45)" style="fill:#fdcd31"/><path d="M22.094,23.651l-3.065-3.065,3.131-3.131,3.065,3.065Zm-2.468-3.065,2.468,2.469,2.534-2.534L22.16,18.052Z" style="fill:#e9ad0f"/><path d="M21.253,17.4l-2.3,2.3a.38.38,0,0,1-.538,0L4.426,5.7a1.407,1.407,0,0,1,0-1.99l.943-.943a1.266,1.266,0,0,1,1.791,0L21.253,16.861A.38.38,0,0,1,21.253,17.4Z" style="fill:#fdcd31"/><path d="M18.689,20.016a.59.59,0,0,1-.418-.173L4.277,5.848a1.618,1.618,0,0,1,0-2.288l.943-.943a1.479,1.479,0,0,1,2.089,0L21.4,16.711a.591.591,0,0,1,0,.836l-2.295,2.295A.589.589,0,0,1,18.689,20.016ZM6.264,2.607a1.052,1.052,0,0,0-.746.309l-.943.943a1.2,1.2,0,0,0,0,1.691L18.57,19.544a.17.17,0,0,0,.239,0L21.1,17.249a.169.169,0,0,0,0-.239L7.01,2.916A1.052,1.052,0,0,0,6.264,2.607Z" style="fill:#e9ad0f"/><path d="M23.364,23.439l1.617-1.628a1.042,1.042,0,0,1,1.345-.113,14.368,14.368,0,0,1,1.932,1.572c2.144,2.368,1.454,5.722,1.313,6.312a.014.014,0,0,1-.025,0A5.077,5.077,0,0,0,28.121,28c-1.024-.731-1.821-.675-2.761-1.115A4.73,4.73,0,0,1,23.2,24.7.99.99,0,0,1,23.364,23.439Z" style="fill:#fdcd31"/><path d="M29.557,29.8a.223.223,0,0,1-.193-.112A4.846,4.846,0,0,0,28,28.17a4.728,4.728,0,0,0-1.648-.721,6.673,6.673,0,0,1-1.08-.374A4.989,4.989,0,0,1,23.015,24.8a1.2,1.2,0,0,1,.2-1.512l1.618-1.628a1.25,1.25,0,0,1,1.617-.136,14.442,14.442,0,0,1,1.966,1.6c2.2,2.43,1.52,5.843,1.361,6.5a.225.225,0,0,1-.187.171Zm-3.837-8.09a.827.827,0,0,0-.589.246l-1.618,1.628a.783.783,0,0,0-.126,1.016,4.579,4.579,0,0,0,2.061,2.088,6.267,6.267,0,0,0,1.015.35,4.9,4.9,0,0,1,3,2.02,6.828,6.828,0,0,0-1.358-5.65,14.107,14.107,0,0,0-1.9-1.542A.833.833,0,0,0,25.72,21.714Z" style="fill:#e9ad0f"/></svg>