<svg xmlns="http://www.w3.org/2000/svg" xmlns:xlink="http://www.w3.org/1999/xlink" viewBox="0 0 32 32"><defs><linearGradient id="a" x1="-73.299" y1="-36.757" x2="-69.112" y2="-40.601" gradientTransform="matrix(7.886, 0, 0, -8.589, 578.084, -327.095)" gradientUnits="userSpaceOnUse"><stop offset="0" stop-color="#c06fbb"/><stop offset="1" stop-color="#6e4d9b"/></linearGradient><linearGradient id="b" x1="-75.72" y1="-29.976" x2="-76.857" y2="-28.423" gradientTransform="matrix(15.701, 0, 0, -16.956, 1213.064, -480.525)" gradientUnits="userSpaceOnUse"><stop offset="0" stop-color="#6e4d9b"/><stop offset="0.14" stop-color="#77327a"/><stop offset="0.29" stop-color="#b31777"/><stop offset="0.84" stop-color="#cd0f7e"/><stop offset="1" stop-color="#ed2c89"/></linearGradient><linearGradient id="c" x1="-74.781" y1="-34.695" x2="-70.958" y2="-40.015" gradientTransform="matrix(8.637, 0, 0, -7.94, 632.817, -284.546)" xlink:href="#a"/><linearGradient id="d" x1="-3.96" y1="41.901" x2="31.012" y2="13.213" gradientTransform="matrix(1, 0, 0, 1, 0, 0)" xlink:href="#a"/><linearGradient id="e" x1="-72.241" y1="-41.388" x2="-69.334" y2="-43.773" gradientTransform="matrix(6.504, 0, 0, -6.517, 478.263, -265.393)" xlink:href="#a"/><linearGradient id="f" x1="-74.154" y1="-34.519" x2="-70.411" y2="-37.816" gradientTransform="matrix(10.02, 0, 0, -10.013, 732.69, -346.247)" xlink:href="#a"/><linearGradient id="g" x1="-74.562" y1="-31.575" x2="-75.704" y2="-30.013" gradientTransform="matrix(15.678, 0, 0, -16.922, 1195.287, -503.63)" xlink:href="#b"/><linearGradient id="h" x1="-73.124" y1="-36.529" x2="-68.938" y2="-41.164" gradientTransform="matrix(7.887, 0, 0, -8.589, 578.148, -327.094)" xlink:href="#a"/><linearGradient id="i" x1="-78.108" y1="-25.063" x2="-77.58" y2="-24.54" gradientTransform="matrix(37.627, 7.508, 7.477, -37.474, 3130.474, -328.745)" gradientUnits="userSpaceOnUse"><stop offset="0" stop-color="#6e4d9b"/><stop offset="0.14" stop-color="#77327a"/><stop offset="0.53" stop-color="#b31777"/><stop offset="0.79" stop-color="#cd0f7e"/><stop offset="1" stop-color="#ed2c89"/></linearGradient></defs><title>file_type_aurelia</title><path d="M20.336,7.408l-2.6,1.734L15.06,5.131l2.6-1.734,2.677,4.012Z" style="fill:url(#a)"/><path d="M22.449,19.461l4.44,6.654L21.6,29.644l-4.44-6.654-.775-1.161,5.289-3.53.775,1.161Z" style="fill:url(#b)"/><path d="M15.787,23.907l.978,1.465-4.026,2.687-1.752-2.626.88-.587,3.147-2.1.775,1.161Z" style="fill:url(#c)"/><polygon points="24.648 16.316 25.777 15.562 27.529 18.188 24.93 19.922 23.953 18.457 25.423 17.476 24.648 16.316 24.648 16.316" style="fill:url(#d)"/><polygon points="23.953 18.457 23.178 17.296 24.648 16.316 25.423 17.476 23.953 18.457 23.953 18.457" style="fill:url(#e)"/><path d="M6.424,16.692l-.879.587L2.868,13.267,6.894,10.58,8.77,13.393l-3.146,2.1,3.146-2.1.8,1.2-3.147,2.1Z" style="fill:url(#f)"/><path d="M15.432,8.947l.8,1.2-5.289,3.53-.8-1.2-4.4-6.591,5.289-3.53,4.4,6.591Z" style="fill:url(#g)"/><path d="M19.207,8.162l-1.47.981-.8-1.2L15.06,5.131l2.6-1.734,2.677,4.012-1.129.754Z" style="fill:url(#h)"/><path d="M12.64,26.006l-.775-1.161,3.147-2.1.775,1.161-3.146,2.1Z" style="fill:#714896"/><path d="M23.953,18.457,23.178,17.3l1.47-.981.775,1.161-1.47.981Z" style="fill:#6f4795"/><path d="M6.424,16.692l-.8-1.2,3.146-2.1.8,1.2-3.147,2.1Z" style="fill:#88519f"/><path d="M17.737,9.143l-.8-1.2,1.47-.981.8,1.2-1.47.981Z" style="fill:#85509e"/><path d="M22.449,19.461l-5.289,3.53-.775-1.161,5.289-3.53.775,1.161Z" style="fill:#8d166a"/><path d="M15.432,8.947l.8,1.2-5.289,3.53-.8-1.2,5.289-3.53Z" style="fill:#a70d6f"/><rect x="3.776" y="8.336" width="1.799" height="1.799" transform="translate(-4.34 4.149) rotate(-33.716)" style="fill:#9e61ad"/><rect x="9.168" y="26.271" width="1.799" height="1.799" transform="translate(-13.388 10.158) rotate(-33.716)" style="fill:#8053a3"/><path d="M6.38,27.43,2,20.813,25.407,5.157,30,11.668,6.38,27.43Z" style="fill:url(#i)"/></svg>