<svg xmlns="http://www.w3.org/2000/svg" viewBox="0 0 32 32"><title>file_type_polymer</title><path d="M7.575,16l-2.8,4.849,2.8,4.849,2.8-4.849Z" style="fill:#303f9f"/><path d="M24.374,6.3l-2.8,4.849L24.374,16l2.8-4.849Z" style="fill:#3f51b5"/><path d="M27.174,11.151,18.775,25.7h5.6l5.6-9.7Z" style="fill:#7986cb"/><path d="M18.775,6.3,7.574,25.7h5.6l11.2-19.4Z" style="fill:#ff4081"/><path d="M7.575,6.3,1.975,16l2.8,4.849L13.176,6.3Z" style="fill:#536dfe"/><path d="M18.775,6.3l2.8,4.849,2.8-4.849Z" style="fill:#fff;fill-opacity:0.200000002980232"/><path d="M15.975,11.151l2.8-4.849,2.8,4.849Z" style="fill:#fff;fill-opacity:0.100000001490116"/><path d="M15.975,11.151,18.775,16l2.8-4.849Z" style="fill:#fff;fill-opacity:0"/><path d="M13.175,16l2.8-4.849L18.775,16Z" style="fill-opacity:0.100000001490116"/><path d="M13.175,16l2.8,4.849L18.775,16Z" style="fill-opacity:0.200000002980232"/><path d="M10.376,20.849,13.176,16l2.8,4.849Z" style="fill-opacity:0.300000011920929"/><path d="M10.376,20.849l2.8,4.849,2.8-4.849Z" style="fill-opacity:0.400000005960465"/><path d="M7.575,25.7l2.8-4.849,2.8,4.849Z" style="fill-opacity:0.5"/><path d="M7.575,6.3l2.8,4.849,2.8-4.849Z" style="fill:#fff;fill-opacity:0.200000002980232"/><path d="M4.776,11.151,7.576,6.3l2.8,4.849Z" style="fill:#fff;fill-opacity:0.100000001490116"/><path d="M4.776,11.151,7.576,16l2.8-4.849Z" style="fill:#fff;fill-opacity:0"/><path d="M1.976,16l2.8-4.849L7.576,16Z" style="fill-opacity:0.100000001490116"/><path d="M1.976,16l2.8,4.849L7.576,16Z" style="fill-opacity:0.200000002980232"/><path d="M10.376,20.849,7.575,16l-2.8,4.849Z" style="fill:#fff;fill-opacity:0"/><path d="M10.376,20.849,7.575,25.7l-2.8-4.849Zm16.8-9.7L24.374,6.3l-2.8,4.849Z" style="fill-opacity:0.200000002980232"/><path d="M27.174,11.151,24.374,16l-2.8-4.849Z" style="fill:#fff;fill-opacity:0"/><path d="M24.374,16l2.8-4.849L29.975,16Z" style="fill:#fff;fill-opacity:0.200000002980232"/><path d="M24.374,16l2.8,4.849L29.975,16Z" style="fill:#fff;fill-opacity:0.100000001490116"/><path d="M21.574,20.849,24.374,16l2.8,4.849Z" style="fill:#fff;fill-opacity:0"/><path d="M21.574,20.849l2.8,4.849,2.8-4.849Z" style="fill-opacity:0.100000001490116"/><path d="M18.775,25.7l2.8-4.849,2.8,4.849Z" style="fill-opacity:0.200000002980232"/></svg>