<svg xmlns="http://www.w3.org/2000/svg" viewBox="0 0 32 32"><title>file_type_graphviz</title><polygon points="23.942 30 12.679 30 1.417 30 1.417 16 1.417 2 12.679 2 23.942 2 23.942 16 23.942 30" style="fill:#e6e6e6"/><rect x="2.132" y="3.202" width="21.135" height="0.264" style="fill:#4ed1f8"/><rect x="2.132" y="7.42" width="21.135" height="0.264" style="fill:#4ed1f8"/><rect x="2.132" y="11.638" width="21.135" height="0.264" style="fill:#4ed1f8"/><rect x="2.132" y="15.856" width="21.135" height="0.264" style="fill:#4ed1f8"/><rect x="2.132" y="20.074" width="21.135" height="0.264" style="fill:#4ed1f8"/><rect x="2.132" y="24.293" width="21.135" height="0.264" style="fill:#4ed1f8"/><rect x="2.132" y="28.511" width="21.135" height="0.264" style="fill:#4ed1f8"/><rect x="2" y="3.202" width="0.264" height="25.573" style="fill:#4ed1f8"/><rect x="6.218" y="3.333" width="0.264" height="25.331" style="fill:#4ed1f8"/><rect x="10.436" y="3.333" width="0.264" height="25.331" style="fill:#4ed1f8"/><rect x="14.655" y="3.333" width="0.264" height="25.331" style="fill:#4ed1f8"/><rect x="18.873" y="3.333" width="0.264" height="25.331" style="fill:#4ed1f8"/><rect x="23.091" y="3.202" width="0.264" height="25.573" style="fill:#4ed1f8"/><g style="opacity:0.5"><rect x="2.132" y="27.456" width="21.135" height="0.264" style="fill:#4ed1f8"/><rect x="2.132" y="26.402" width="21.135" height="0.264" style="fill:#4ed1f8"/><rect x="2.132" y="25.347" width="21.135" height="0.264" style="fill:#4ed1f8"/><rect x="2.132" y="23.238" width="21.135" height="0.264" style="fill:#4ed1f8"/><rect x="2.132" y="22.184" width="21.135" height="0.264" style="fill:#4ed1f8"/><rect x="2.132" y="21.129" width="21.135" height="0.264" style="fill:#4ed1f8"/><rect x="2.132" y="19.02" width="21.135" height="0.264" style="fill:#4ed1f8"/><rect x="2.132" y="17.965" width="21.135" height="0.264" style="fill:#4ed1f8"/><rect x="2.132" y="16.911" width="21.135" height="0.264" style="fill:#4ed1f8"/><rect x="2.132" y="14.802" width="21.135" height="0.264" style="fill:#4ed1f8"/><rect x="2.132" y="13.747" width="21.135" height="0.264" style="fill:#4ed1f8"/><rect x="2.132" y="12.693" width="21.135" height="0.264" style="fill:#4ed1f8"/><rect x="2.132" y="10.583" width="21.135" height="0.264" style="fill:#4ed1f8"/><rect x="2.132" y="9.529" width="21.135" height="0.264" style="fill:#4ed1f8"/><rect x="2.132" y="8.474" width="21.135" height="0.264" style="fill:#4ed1f8"/><rect x="2.132" y="6.365" width="21.135" height="0.264" style="fill:#4ed1f8"/><rect x="2.132" y="5.311" width="21.135" height="0.264" style="fill:#4ed1f8"/><rect x="2.132" y="4.256" width="21.135" height="0.264" style="fill:#4ed1f8"/></g><g style="opacity:0.5"><rect x="22.036" y="3.333" width="0.264" height="25.331" style="fill:#4ed1f8"/><rect x="20.982" y="3.333" width="0.264" height="25.331" style="fill:#4ed1f8"/><rect x="19.927" y="3.333" width="0.264" height="25.331" style="fill:#4ed1f8"/><rect x="17.818" y="3.333" width="0.264" height="25.331" style="fill:#4ed1f8"/><rect x="16.764" y="3.333" width="0.264" height="25.331" style="fill:#4ed1f8"/><rect x="15.709" y="3.333" width="0.264" height="25.331" style="fill:#4ed1f8"/><rect x="13.6" y="3.333" width="0.264" height="25.331" style="fill:#4ed1f8"/><rect x="12.545" y="3.333" width="0.264" height="25.331" style="fill:#4ed1f8"/><rect x="11.491" y="3.333" width="0.264" height="25.331" style="fill:#4ed1f8"/><rect x="9.382" y="3.333" width="0.264" height="25.331" style="fill:#4ed1f8"/><rect x="8.327" y="3.333" width="0.264" height="25.331" style="fill:#4ed1f8"/><rect x="7.273" y="3.333" width="0.264" height="25.331" style="fill:#4ed1f8"/><rect x="5.164" y="3.333" width="0.264" height="25.331" style="fill:#4ed1f8"/><rect x="4.109" y="3.333" width="0.264" height="25.331" style="fill:#4ed1f8"/><rect x="3.055" y="3.333" width="0.264" height="25.331" style="fill:#4ed1f8"/></g><path d="M13,8.976c-2.308,0-4.131-1.274-4.193-2.969h0a2.775,2.775,0,0,1,1.253-2.32,5.3,5.3,0,0,1,2.943-.963,5.294,5.294,0,0,1,3.006.743,2.775,2.775,0,0,1,1.421,2.221c.065,1.752-1.779,3.194-4.2,3.283C13.158,8.974,13.08,8.976,13,8.976Zm.232-5.2q-.095,0-.19,0a4.238,4.238,0,0,0-2.354.756,1.761,1.761,0,0,0-.828,1.435C9.9,7.09,11.428,7.978,13.2,7.917s3.223-1.069,3.181-2.191a1.761,1.761,0,0,0-.932-1.369A4.165,4.165,0,0,0,13.234,3.773Z" style="fill:#656565"/><path d="M6.4,29.281A5.238,5.238,0,0,1,3.6,28.519a2.775,2.775,0,0,1-1.41-2.229c-.056-1.752,1.8-3.185,4.213-3.262s4.356,1.236,4.412,2.988A2.775,2.775,0,0,1,9.548,28.33a5.3,5.3,0,0,1-2.948.948Q6.5,29.281,6.4,29.281Zm.186-5.2-.156,0c-1.766.056-3.229,1.052-3.193,2.174a1.761,1.761,0,0,0,.924,1.374,4.235,4.235,0,0,0,2.4.593,4.235,4.235,0,0,0,2.357-.744,1.761,1.761,0,0,0,.835-1.43C9.724,24.961,8.29,24.08,6.591,24.08Z" style="fill:#656565"/><path d="M19.261,29.26a5.238,5.238,0,0,1-2.807-.762,2.775,2.775,0,0,1-1.41-2.229h0c-.055-1.752,1.8-3.185,4.213-3.262a5.3,5.3,0,0,1,3,.759A2.6,2.6,0,0,1,22.4,28.31a5.3,5.3,0,0,1-2.948.948Q19.358,29.26,19.261,29.26ZM16.1,26.236a1.761,1.761,0,0,0,.924,1.374,4.57,4.57,0,0,0,4.757-.151,1.558,1.558,0,0,0-.089-2.8,4.226,4.226,0,0,0-2.4-.593c-1.766.056-3.228,1.052-3.193,2.174Z" style="fill:#656565"/><path d="M6.2,23.477A27.4,27.4,0,0,1,9.769,8.986l.687.391A26.609,26.609,0,0,0,6.986,23.45Z" style="fill:#656565"/><path d="M10.853,7.957a7.171,7.171,0,0,0-.075,2.32l-.758-.93-1.178-.23A7.165,7.165,0,0,0,10.853,7.957Z" style="fill:#656565"/><path d="M19.854,23.477l-.79-.027a26.59,26.59,0,0,0-.915-7.884,26.624,26.624,0,0,0-2.554-6.189l.687-.391a27.423,27.423,0,0,1,2.63,6.373A27.372,27.372,0,0,1,19.854,23.477Z" style="fill:#656565"/><path d="M15.2,7.957a7.171,7.171,0,0,0,2.011,1.159l-1.178.23-.758.93A7.165,7.165,0,0,0,15.2,7.957Z" style="fill:#656565"/><rect x="11.348" y="9.945" width="3.515" height="0.791" transform="matrix(0.016, -1, 1, 0.016, 2.557, 23.279)" style="fill:#656565"/><path d="M13.054,13.529a7.171,7.171,0,0,0-1.1-2.046l1.122.426,1.135-.39A7.165,7.165,0,0,0,13.054,13.529Z" style="fill:#656565"/><rect x="7.809" y="20.081" width="4.757" height="0.791" transform="translate(-12.56 18.108) rotate(-57.603)" style="fill:#656565"/><path d="M8.147,23.694a7.171,7.171,0,0,0,.133-2.317l.734.949,1.171.26A7.165,7.165,0,0,0,8.147,23.694Z" style="fill:#656565"/><rect x="15.418" y="18.051" width="0.791" height="4.919" transform="translate(-8.257 10.951) rotate(-30.708)" style="fill:#656565"/><path d="M17.8,23.856a7.171,7.171,0,0,0-2.006-1.168l1.179-.225.762-.927A7.165,7.165,0,0,0,17.8,23.856Z" style="fill:#656565"/><path d="M13.024,19.125a5.238,5.238,0,0,1-2.807-.762,2.775,2.775,0,0,1-1.41-2.229,2.775,2.775,0,0,1,1.266-2.314,5.3,5.3,0,0,1,2.948-.948,6.712,6.712,0,0,1,2.134.313l-.331,1a5.668,5.668,0,0,0-1.769-.261,4.238,4.238,0,0,0-2.358.744,1.761,1.761,0,0,0-.835,1.43,1.761,1.761,0,0,0,.924,1.374,4.242,4.242,0,0,0,2.4.593,5.7,5.7,0,0,0,1.678-.378l.378.985a6.844,6.844,0,0,1-2.022.448Q13.121,19.125,13.024,19.125Z" style="fill:#656565"/><path d="M15.435,12.876a4.338,4.338,0,0,0-.984,1.622,2.064,2.064,0,0,1-.016,2.806,4.4,4.4,0,0,0,.982,1.6,3.932,3.932,0,0,0,.078-5.986C15.476,12.9,15.454,12.893,15.435,12.876Z" style="fill:#656565"/><path d="M19.525,15.278a27.931,27.931,0,0,0-1.263-3.742,4.376,4.376,0,0,0-1.777.517,26.063,26.063,0,0,1,1.253,3.685,26.038,26.038,0,0,1,.734,4.534,4.347,4.347,0,0,0,1.825-.351A27.9,27.9,0,0,0,19.525,15.278Z" style="fill:#656565"/><path d="M16.153,12.229A4.437,4.437,0,1,0,22.3,13.5,4.437,4.437,0,0,0,16.153,12.229Zm4.812,7.332a4.346,4.346,0,1,1,1.249-6.018A4.346,4.346,0,0,1,20.965,19.561Z" style="fill:#2c2928"/><path d="M22.015,19.186a.822.822,0,0,0-.192-.209,4.347,4.347,0,0,1-.333.319,4.522,4.522,0,0,1-.446.337,4.73,4.73,0,0,1-.94.477.669.669,0,0,0,.031.1.64.64,0,0,0,.047.094l.487.8L22.5,19.984Z" style="fill:#282828"/><rect x="20.793" y="20.784" width="2.147" height="0.44" transform="translate(-7.74 14.465) rotate(-31.394)" style="fill:#282828"/><rect x="22.868" y="20.96" width="2.147" height="6.887" transform="translate(-9.207 16.044) rotate(-31.394)" style="fill:#282828"/><path d="M27.054,27.443l-.236-.387-1.833,1.119.236.387a.924.924,0,0,0,1.279.159l.11-.067A.924.924,0,0,0,27.054,27.443Z" style="fill:#282828"/><path d="M20.68,14.845a.315.315,0,0,1,.338.027,1.078,1.078,0,0,1,.294.578,1.1,1.1,0,0,1,.029.654.327.327,0,0,1-.278.2.468.468,0,0,1-.37-.1.922.922,0,0,1-.262-.5.955.955,0,0,1-.01-.585A.466.466,0,0,1,20.68,14.845Zm.06.227a.149.149,0,0,0-.074.063.247.247,0,0,0-.027.132,1.626,1.626,0,0,0,.064.355,1.592,1.592,0,0,0,.112.329.268.268,0,0,0,.094.11.142.142,0,0,0,.094.015.121.121,0,0,0,.078-.048.211.211,0,0,0,.028-.128,2.643,2.643,0,0,0-.186-.722.235.235,0,0,0-.093-.107A.116.116,0,0,0,20.739,15.072Z" style="fill:#00ff80"/><path d="M21.694,14.4a.3.3,0,0,1,.346.057,1.493,1.493,0,0,1,.325.7,1.521,1.521,0,0,1,.06.771.31.31,0,0,1-.27.228.446.446,0,0,1-.379-.137,1.31,1.31,0,0,1-.292-.617,1.341,1.341,0,0,1-.041-.7A.441.441,0,0,1,21.694,14.4Zm.072.273a.136.136,0,0,0-.072.069.315.315,0,0,0-.021.155,2.351,2.351,0,0,0,.084.427,2.31,2.31,0,0,0,.131.4.347.347,0,0,0,.1.135.13.13,0,0,0,.1.021.11.11,0,0,0,.076-.054.275.275,0,0,0,.022-.15,3.773,3.773,0,0,0-.224-.862.311.311,0,0,0-.1-.132A.1.1,0,0,0,21.766,14.674Z" style="fill:#00ff80"/><path d="M23.472,15.934l-.269.038-.379-1.439a.955.955,0,0,1-.257.392l-.087-.331a.841.841,0,0,0,.169-.26.874.874,0,0,0,.075-.383l.2-.089Z" style="fill:#00ff80"/><path d="M24.455,15.794l-.269.038-.429-1.625a1,1,0,0,1-.247.429l-.1-.376a.874.874,0,0,0,.162-.284,1.028,1.028,0,0,0,.064-.424l.2-.089Z" style="fill:#00ff80"/><path d="M24.636,13.117c.127-.055.249-.008.369.144a3.11,3.11,0,0,1,.416,1.034,3.143,3.143,0,0,1,.151,1.11c-.029.19-.111.294-.247.312s-.272-.059-.4-.231a2.855,2.855,0,0,1-.381-.95,2.871,2.871,0,0,1-.132-1.039A.437.437,0,0,1,24.636,13.117Zm.107.4a.124.124,0,0,0-.067.088.584.584,0,0,0,0,.221,5.218,5.218,0,0,0,.139.635,5.153,5.153,0,0,0,.184.6.66.66,0,0,0,.12.208.118.118,0,0,0,.1.04.1.1,0,0,0,.071-.072.528.528,0,0,0,0-.216,5.442,5.442,0,0,0-.144-.653,5.447,5.447,0,0,0-.189-.619.612.612,0,0,0-.119-.205A.093.093,0,0,0,24.743,13.522Z" style="fill:#00ff80"/><path d="M26.638,15.488l-.269.038-.54-2.039A1.151,1.151,0,0,1,25.6,14l-.126-.475a.99.99,0,0,0,.148-.337,1.436,1.436,0,0,0,.039-.515l.2-.088Z" style="fill:#00ff80"/><path d="M26.666,12.236c.127-.055.255.012.385.2a4.584,4.584,0,0,1,.478,1.268,4.62,4.62,0,0,1,.213,1.343c-.018.229-.1.352-.232.37s-.278-.081-.421-.3a4.284,4.284,0,0,1-.443-1.179,4.283,4.283,0,0,1-.194-1.272C26.468,12.438,26.539,12.291,26.666,12.236Zm.131.5q-.046.018-.064.1a.829.829,0,0,0,.009.266,7.856,7.856,0,0,0,.178.779q.143.541.221.738a.947.947,0,0,0,.134.258.119.119,0,0,0,.1.052q.048-.009.068-.085a.762.762,0,0,0-.008-.262,8.117,8.117,0,0,0-.182-.8q-.148-.557-.227-.757a.892.892,0,0,0-.133-.256Q26.843,12.714,26.8,12.732Z" style="fill:#00ff80"/><path d="M27.681,11.8c.127-.055.257.023.393.234a5.431,5.431,0,0,1,.509,1.385,5.467,5.467,0,0,1,.244,1.46c-.013.249-.088.381-.224.4s-.281-.092-.43-.328a5.11,5.11,0,0,1-.473-1.294,5.1,5.1,0,0,1-.225-1.388C27.486,12.008,27.555,11.851,27.681,11.8Zm.144.542q-.046.018-.062.106a.97.97,0,0,0,.015.289q.04.259.2.851t.24.807a1.112,1.112,0,0,0,.14.284q.057.067.106.059t.066-.091a.9.9,0,0,0-.014-.284q-.04-.26-.2-.867t-.245-.827a1.053,1.053,0,0,0-.14-.281Q27.871,12.32,27.825,12.338Z" style="fill:#00ff80"/><path d="M29.915,15.034l-.27.037-.706-2.661a1.478,1.478,0,0,1-.192.636l-.166-.625A1.248,1.248,0,0,0,28.708,12a2.214,2.214,0,0,0,0-.653l.2-.088Z" style="fill:#00ff80"/><path d="M29.712,10.921c.127-.054.263.043.409.294a7.345,7.345,0,0,1,.572,1.619A7.382,7.382,0,0,1,31,14.527c0,.288-.072.44-.209.458s-.286-.114-.447-.393a6.984,6.984,0,0,1-.535-1.524,6.944,6.944,0,0,1-.287-1.621C29.523,11.151,29.586,10.975,29.712,10.921Zm.168.633q-.046.018-.059.119a1.287,1.287,0,0,0,.027.334q.051.3.235.994t.277.946a1.484,1.484,0,0,0,.154.334q.06.08.109.071t.063-.1a1.2,1.2,0,0,0-.026-.33q-.051-.3-.239-1.011t-.282-.965a1.42,1.42,0,0,0-.153-.332Q29.926,11.536,29.88,11.553Z" style="fill:#00ff80"/><path d="M21.167,16.362a.422.422,0,0,1,.318.185,1.005,1.005,0,0,1-.277,1.03.42.42,0,0,1-.366,0,.59.59,0,0,1-.311-.261.808.808,0,0,1,.254-.893A.561.561,0,0,1,21.167,16.362Zm-.051.189a.175.175,0,0,0-.192.087,1.487,1.487,0,0,0-.155.567.216.216,0,0,0,.039.124.191.191,0,0,0,.084.058.145.145,0,0,0,.188-.069,1.666,1.666,0,0,0,.164-.6.189.189,0,0,0-.04-.121A.163.163,0,0,0,21.117,16.551Z" style="fill:#00ff80"/><path d="M22.376,16.548a.382.382,0,0,1,.311.212,1.024,1.024,0,0,1-.019.66,1.022,1.022,0,0,1-.315.581.38.38,0,0,1-.373.025.533.533,0,0,1-.3-.29,1.189,1.189,0,0,1,.309-1.1A.5.5,0,0,1,22.376,16.548Zm-.062.23a.167.167,0,0,0-.1.013.235.235,0,0,0-.1.1,2.219,2.219,0,0,0-.189.694.269.269,0,0,0,.033.147.167.167,0,0,0,.083.064.143.143,0,0,0,.1,0,.206.206,0,0,0,.094-.1,2.436,2.436,0,0,0,.2-.727.24.24,0,0,0-.034-.144A.141.141,0,0,0,22.314,16.778Z" style="fill:#00ff80"/><path d="M23.37,18.541l-.281-.11.328-1.225a1,1,0,0,1-.442.152l.075-.281a.881.881,0,0,0,.292-.1.68.68,0,0,0,.259-.238l.242.037Z" style="fill:#00ff80"/><path d="M24.793,16.919a.348.348,0,0,1,.3.266,1.751,1.751,0,0,1-.075.87,1.749,1.749,0,0,1-.371.791.345.345,0,0,1-.388.078.488.488,0,0,1-.288-.348,1.587,1.587,0,0,1,.067-.79,1.577,1.577,0,0,1,.354-.727A.457.457,0,0,1,24.793,16.919Zm-.084.312a.143.143,0,0,0-.107.025.353.353,0,0,0-.106.141,4.126,4.126,0,0,0-.257.948.408.408,0,0,0,.021.192.143.143,0,0,0,.08.075.12.12,0,0,0,.1-.011.318.318,0,0,0,.105-.137,4.418,4.418,0,0,0,.266-.981.374.374,0,0,0-.022-.189A.119.119,0,0,0,24.71,17.231Z" style="fill:#00ff80"/><path d="M25.649,19.43l-.281-.11.428-1.6a1.033,1.033,0,0,1-.462.227l.1-.371a.9.9,0,0,0,.3-.151.93.93,0,0,0,.281-.321l.242.037Z" style="fill:#00ff80"/><path d="M27.211,17.291a.344.344,0,0,1,.282.319,2.692,2.692,0,0,1-.131,1.08,2.69,2.69,0,0,1-.427,1,.34.34,0,0,1-.4.13.487.487,0,0,1-.273-.405,2.494,2.494,0,0,1,.122-1,2.47,2.47,0,0,1,.41-.937A.451.451,0,0,1,27.211,17.291Zm-.106.394a.133.133,0,0,0-.11.036.509.509,0,0,0-.117.182,6.622,6.622,0,0,0-.325,1.2.591.591,0,0,0,.009.237.133.133,0,0,0,.077.086.11.11,0,0,0,.107-.023.465.465,0,0,0,.116-.178,4.639,4.639,0,0,0,.2-.619,4.658,4.658,0,0,0,.136-.615.552.552,0,0,0-.01-.235A.11.11,0,0,0,27.105,17.685Z" style="fill:#00ff80"/><path d="M27.927,20.32l-.281-.11.528-1.971a1.134,1.134,0,0,1-.482.3l.123-.46a.972.972,0,0,0,.317-.2,1.248,1.248,0,0,0,.3-.4l.242.037Z" style="fill:#00ff80"/><path d="M28.953,20.721l-.281-.11.573-2.139a1.2,1.2,0,0,1-.491.336l.134-.5a1.02,1.02,0,0,0,.323-.22,1.413,1.413,0,0,0,.314-.44l.242.037Z" style="fill:#00ff80"/><path d="M30.717,17.83c.151.023.238.155.262.4a4.436,4.436,0,0,1-.213,1.385,4.434,4.434,0,0,1-.509,1.307c-.14.195-.28.263-.422.207s-.226-.22-.25-.489a4.194,4.194,0,0,1,.2-1.3,4.143,4.143,0,0,1,.492-1.241C30.42,17.9,30.566,17.807,30.717,17.83Zm-.137.513a.132.132,0,0,0-.115.053.8.8,0,0,0-.133.241,7.587,7.587,0,0,0-.244.791,7.539,7.539,0,0,0-.18.779.93.93,0,0,0-.009.3.131.131,0,0,0,.073.1.108.108,0,0,0,.111-.039.742.742,0,0,0,.132-.237,7.8,7.8,0,0,0,.248-.806,7.835,7.835,0,0,0,.185-.8.884.884,0,0,0,.008-.3Q30.633,18.353,30.58,18.343Z" style="fill:#00ff80"/></svg>