<svg xmlns="http://www.w3.org/2000/svg" viewBox="0 0 32 32"><title>file_type_floobits</title><path d="M6.151,6.8h5.337q3.2,7.236,6.394,14.471c.09.2.175.4.269.6-1.777.012-3.554,0-5.331.005Q9.485,14.343,6.151,6.8Z" style="fill:#737373"/><path d="M14.156,10.114c1.685,0,3.371,0,5.056,0a2.553,2.553,0,0,1,.28.006c.968,2.21,1.949,4.414,2.922,6.622q1.869,4.225,3.736,8.452c-1.779,0-3.558,0-5.337,0-.857-1.957-1.728-3.909-2.59-5.864l-3.807-8.609C14.33,10.517,14.23,10.321,14.156,10.114Z" style="fill:#737373"/><path d="M4.4,11.51a2.753,2.753,0,0,1,2.888,1.662,2.726,2.726,0,0,1-1.124,3.4,2.764,2.764,0,0,1-3.357-.407A2.724,2.724,0,0,1,2.4,12.8,2.756,2.756,0,0,1,4.4,11.51Z" style="fill:#737373"/><path d="M27.057,14.809a2.762,2.762,0,0,1,2.33,1.008,2.727,2.727,0,0,1-1,4.209A2.781,2.781,0,0,1,25.87,19.9a2.733,2.733,0,0,1,1.187-5.094Z" style="fill:#737373"/></svg>