<svg xmlns="http://www.w3.org/2000/svg" viewBox="0 0 32 32"><title>file_type_plsql_package</title><path d="M7.61,3.093c2.078-.019,4.159,0,6.238-.008-.493,2.123-.966,4.252-1.457,6.376H2.9c-.3,0-.6.01-.9-.012C3.864,7.325,5.749,5.219,7.61,3.093Z" style="fill:#f2e6c9"/><path d="M18.163,3.086h6.22C26.251,5.212,28.137,7.32,30,9.449c-1.2.025-2.4,0-3.6.011H19.6C19.133,7.333,18.629,5.214,18.163,3.086Z" style="fill:#f2e6c9"/><path d="M13.848,3.086h4.315c.466,2.128.969,4.247,1.444,6.373H12.391C12.882,7.337,13.355,5.209,13.848,3.086Z" style="fill:#efc75e"/><path d="M2,9.448c.3.022.6.011.9.012h9.491q0,3.367.007,6.735a2.44,2.44,0,0,0,.256.018H19.4a1.9,1.9,0,0,0,.2-.014c.019-2.247,0-4.494.009-6.741h6.8c1.2-.006,2.4.014,3.6-.011V28.913H2Q2,19.181,2,9.448Z" style="fill:#e7bf55"/><path d="M12.391,9.462h7.216c-.008,2.247.011,4.494-.009,6.741-.067.007-.134.012-.2.014H12.655A2.44,2.44,0,0,1,12.4,16.2C12.386,13.952,12.4,11.706,12.391,9.462Z" style="fill:#dbb551"/><rect x="4.044" y="22.581" width="9.37" height="3.608" style="fill:#f2f2f2"/><path d="M17.922,19.942a15.869,15.869,0,0,0,5.578.895,15.869,15.869,0,0,0,5.578-.9c1.4-.545,1.894-1.151,1.894-1.5V15.775a7.768,7.768,0,0,1-1.563.807,16.72,16.72,0,0,1-5.909.977,16.77,16.77,0,0,1-5.909-.975,7.71,7.71,0,0,1-1.563-.809v2.663C16.028,18.793,16.525,19.4,17.922,19.942Z" style="fill:red"/><path d="M17.922,24.971a11.708,11.708,0,0,0,1.95.556,19.567,19.567,0,0,0,7.257,0,11.711,11.711,0,0,0,1.95-.556c1.4-.545,1.894-1.151,1.894-1.5V20.929a8.029,8.029,0,0,1-1.269.619,17.617,17.617,0,0,1-6.2,1.007,17.618,17.618,0,0,1-6.2-1.011,8.122,8.122,0,0,1-1.269-.619V23.47C16.028,23.82,16.525,24.423,17.922,24.971Z" style="fill:red"/><path d="M23.5,31c4.125,0,7.472-1.308,7.472-2.921V25.952a7.875,7.875,0,0,1-1.151.571l-.118.047a17.615,17.615,0,0,1-6.2,1.013,17.566,17.566,0,0,1-6.2-1.013c-.04-.015-.079-.032-.118-.047a7.875,7.875,0,0,1-1.151-.571V28.08C16.028,29.692,19.375,31,23.5,31Z" style="fill:red"/><ellipse cx="23.5" cy="12.921" rx="7.472" ry="2.921" style="fill:red"/></svg>