<svg xmlns="http://www.w3.org/2000/svg" viewBox="0 0 32 32"><title>file_type_nuget</title><path d="M23.376,30H14.311a6.721,6.721,0,0,1-6.623-6.8V14.133a6.722,6.722,0,0,1,6.623-6.8h9.065A6.722,6.722,0,0,1,30,14.133V23.2A6.722,6.722,0,0,1,23.376,30Z" style="fill:#004880"/><path d="M27.331,22.813a4.691,4.691,0,1,1-4.69-4.782A4.726,4.726,0,0,1,27.331,22.813Z" style="fill:#fff"/><path d="M13.353,10.733A2.987,2.987,0,1,1,10.4,13.716a2.965,2.965,0,0,1,2.957-2.983Z" style="fill:#fff"/><path d="M2,4.444A2.407,2.407,0,1,0,4.406,2,2.426,2.426,0,0,0,2,4.444" style="fill:#004880"/></svg>