<svg xmlns="http://www.w3.org/2000/svg" viewBox="0 0 32 32"><title>file_type_galen2</title><path d="M29.635,10.884l-3.9-3.909a.506.506,0,0,0-.717,0l-3.857,3.868a.506.506,0,0,0,0,.715L25.581,16s3.916-3.635,4.15-4.823A.325.325,0,0,0,29.635,10.884Z" style="fill:#59a5d2"/><path d="M25.574,16.341l-4.589-4.61a.753.753,0,0,1,0-1.061L24.842,6.8a.746.746,0,0,1,.532-.221h0a.747.747,0,0,1,.532.221l3.9,3.909a.573.573,0,0,1,.162.513c-.242,1.231-3.817,4.579-4.224,4.956Zm-.2-9.269h0a.259.259,0,0,0-.184.077l-3.857,3.868a.261.261,0,0,0,0,.368l4.254,4.274c1.548-1.454,3.748-3.745,3.9-4.529a.085.085,0,0,0-.028-.072l-3.9-3.909A.259.259,0,0,0,25.374,7.072Z" style="fill:#337db8"/><path d="M29.74,11.07c0,1.086-4.159,4.93-4.159,4.93L16,25.583s-4.683,4.508-5.418,3.755l.184.188a.875.875,0,0,0,.678.228h9.14a1.012,1.012,0,0,0,.716-.3L29.461,21.3a.935.935,0,0,0,.3-.716Z" style="fill:#71c4f7"/><path d="M20.584,30h-9.14a1.115,1.115,0,0,1-.839-.288l-.2-.2h0l.349-.345,0,0h0s.366.257,2.652-1.612c1.241-1.015,2.409-2.137,2.42-2.148l9.577-9.579c1.585-1.465,4.088-4.044,4.087-4.756h.491L30,20.581a1.168,1.168,0,0,1-.362.883l-8.168,8.168A1.251,1.251,0,0,1,20.584,30Zm-9.2-.492h9.2a.762.762,0,0,0,.542-.225l8.161-8.161a.684.684,0,0,0,.225-.542l-.016-8.43a31.454,31.454,0,0,1-3.749,4.029l-9.574,9.576A21.351,21.351,0,0,1,11.387,29.508Z" style="fill:#337db8"/><path d="M16,25.583,6.413,16c-1.844,1.739-4.569,4.6-3.8,5.37l7.966,7.972C11.327,30.091,16,25.583,16,25.583Z" style="fill:#59a5d2"/><path d="M10.793,29.652a.519.519,0,0,1-.386-.142L2.442,21.54a.739.739,0,0,1-.206-.548c.018-1.23,2.52-3.769,4.009-5.174l.174-.164,9.932,9.932-.18.174C14.579,27.295,11.947,29.652,10.793,29.652ZM6.409,16.339C4.11,18.528,2.738,20.262,2.727,21a.244.244,0,0,0,.062.194l7.967,7.972c.265.269,2.4-1.2,4.893-3.585Z" style="fill:#337db8"/><path d="M6.413,16,19.993,2.418a.1.1,0,0,0-.072-.173H11.407a1.012,1.012,0,0,0-.716.3L2.539,10.7a1.012,1.012,0,0,0-.3.716v9.343a.447.447,0,0,0,.167.392l.206.219C1.827,20.544,4.712,17.708,6.413,16Z" style="fill:#71c4f7"/><path d="M2.438,21.536l-.009-.009-.2-.211A.675.675,0,0,1,2,20.755V11.412a1.25,1.25,0,0,1,.368-.889l8.153-8.154A1.25,1.25,0,0,1,11.407,2h8.514a.347.347,0,0,1,.245.592L6.4,16.362c-1.253,1.259-4.185,4.2-3.608,4.83l.005.006ZM11.407,2.491a.762.762,0,0,0-.542.225L2.712,10.87a.762.762,0,0,0-.225.542V20.17a21.8,21.8,0,0,1,3.56-4.155l.191-.192L19.573,2.491Z" style="fill:#337db8"/></svg>