<svg xmlns="http://www.w3.org/2000/svg" viewBox="0 0 32 32"><title>file_type_jpm</title><path d="M15.842,2h.021c1.378,3.321,2.7,6.664,4.073,9.986,3.356.113,6.709.3,10.065.407v.6q-3.759,3.209-7.556,6.373c1.014,3.45,1.956,6.92,2.94,10.378-3.062-1.893-6.112-3.8-9.176-5.694-2.96,1.994-5.939,3.961-8.9,5.949H7.239c.869-3.475,1.746-6.951,2.583-10.434Q5.907,16.477,2,13.378v-.531c3.374-.287,6.756-.456,10.129-.741C13.36,8.735,14.635,5.38,15.842,2M12.759,12.93c-3.046.179-6.086.462-9.132.648,2.394,1.876,4.76,3.787,7.165,5.646-.69,2.96-1.481,5.9-2.192,8.852.3-.172.6-.347.882-.543q3.347-2.26,6.72-4.483c2.272,1.376,4.509,2.8,6.777,4.186l.973.6q-1.231-4.383-2.489-8.756c2.327-1.973,4.672-3.927,7-5.9-3.039-.125-6.079-.214-9.118-.353-1.13-2.836-2.285-5.66-3.434-8.488C14.848,7.2,13.768,10.053,12.759,12.93Z" style="fill:#ff1f29"/><path d="M15.409,14.856c.539-.384,1.27-.554,1.639-1.137-.871.487-1.779.916-2.607,1.48C14.807,15.366,15.1,14.995,15.409,14.856Z" style="fill:none"/><path d="M16.781,15.734a4,4,0,0,1,.406.178c.259.315.132.764.321,1.11s.382.651.566.98c.336-.19.666-.388,1-.585-.657-1.134-1.316-2.267-1.963-3.406-.316.207-.634.412-.958.609A10.036,10.036,0,0,0,16.781,15.734Z" style="fill:none"/><path d="M11.834,13.771a.946.946,0,0,0-.864.955,5.438,5.438,0,0,0,.434,1.949c.809-.477,1.628-.935,2.432-1.424A3.536,3.536,0,0,0,11.834,13.771Z" style="fill:none"/><path d="M16.83,13.535a4.074,4.074,0,0,0-1.814-1.469A.827.827,0,0,0,14,12.783a4.537,4.537,0,0,0,.351,2.145C15.2,14.5,16.007,14,16.83,13.535Z" style="fill:none"/><path d="M15.019,22.474c-.406-.223-.115.455,0,0Z" style="fill:none"/><path d="M17.016,16.092c-.2-.062-.367.116-.545.167a1.5,1.5,0,0,0,.49.665c-.035-.139-.106-.417-.143-.557.157.13.315.259.479.381A1.032,1.032,0,0,0,17.016,16.092Z" style="fill:none"/><path d="M18.576,21.373a.857.857,0,0,0-.375.431,23.833,23.833,0,0,0,2.636-1.537.778.778,0,0,0-.566.115C19.7,20.708,19.144,21.048,18.576,21.373Z" style="fill:none"/><path d="M20.6,20.7c-.158.119-.319.238-.475.361l.287.155a2.127,2.127,0,0,0-.049,1.191c-.377-.287-.756-.568-1.12-.871l-.4.286a4.187,4.187,0,0,0,1.285,1.267c.379.218.713.505,1.074.752-.032-.472-.1-.939-.167-1.406l.294.314C21.107,22.062,20.878,21.373,20.6,20.7Z" style="fill:none"/><path d="M20.353,19.636l-.5.293a2.985,2.985,0,0,0,.433-.585c-.2.077-.392.16-.585.246l.461-.517-.7.14c.16-.094.319-.185.48-.274-.277-.47-.536-.953-.818-1.421-.328.2-.658.388-.987.58.417.749.889,1.471,1.25,2.25l-.3.153c-.489-.7-.858-1.477-1.316-2.2l-.413.293.056-.28.323-.077c-.252-.413-.473-.841-.738-1.245a.978.978,0,0,1-.559-.305c-.221-.218-.1-.531-.063-.794-.179-.326-.367-.65-.549-.974l-.336.045c-.287.168-.581.326-.874.484.316.178.722.27.909.615.3.514.752,1.068.491,1.694.214.365.428.729.647,1.092l.434-.374.223.172q-.321.124-.636.26c.27.47.547.938.825,1.4.193-.088.385-.176.578-.263-.186.181-.371.363-.546.556l.692-.228a1.549,1.549,0,0,0-.489.55c.22-.071.438-.146.657-.224-.162.122-.325.242-.489.363l.227.423c.826-.465,1.628-.973,2.457-1.435C20.516,19.914,20.435,19.774,20.353,19.636Z" style="fill:none"/><path d="M14.347,16.539a5.338,5.338,0,0,0,.741,1.2c.385.258.739-.111.848-.465a10.531,10.531,0,0,0-.773-1.292C14.816,15.584,14.118,16.088,14.347,16.539Z" style="fill:none"/><path d="M26.731,13.768c-2.612-.085-5.222-.23-7.836-.266-1.011-2.416-1.954-4.859-2.979-7.27-.871,2.461-1.788,4.906-2.7,7.35l-1.45.035s-.956.118-1.232.13c-1.688.157-3.381.26-5.072.379,1.975,1.683,4.082,3.206,6.086,4.858q-.9,3.814-1.863,7.61c1.763-1.173,3.514-2.362,5.289-3.514l.088-.305c.137-.127.274-.255.41-.384l-.451.081c-.115.455-.406-.223,0,0l.231-.372c-.245.091-.489.182-.735.267.19-.2.395-.381.6-.567-.213.074-.423.151-.631.23-.265-.466-.511-.941-.783-1.4.228-.1.456-.2.687-.29-.07-.06-.139-.119-.21-.176-.167.139-.339.273-.512.4-.654-1.123-1.319-2.239-1.946-3.377.111-.1.225-.2.333-.305-.2.024-.4.074-.6.106a16.391,16.391,0,0,1,2.618-1.56c-.024.056-.074.168-.1.224-.524.416-1.166.654-1.705,1.051,0,.025-.013.077-.018.1.2.017.358-.136.521-.23.188.374.392.739.6,1.1a3.43,3.43,0,0,0-.038.655l.395.118c-.08-.178-.153-.358-.22-.539.228-.035.542-.224.616.118l.332.146a1.031,1.031,0,0,0-.746-.741c-.207-.364-.416-.728-.634-1.085a12.138,12.138,0,0,1,1.134-.615c-.049.322-.234.68-.042.993.323.539.557,1.3,1.295,1.355.206.342.4.692.6,1.035-.112.077-.336.23-.447.307.2.052.368-.08.536-.167.258.452.531.9.769,1.359-.153.132-.305.263-.456.4q.355-.128.713-.241c-.16.2-.34.381-.515.567.232-.092.466-.182.706-.26a6.741,6.741,0,0,1-.573.61c.2-.1.4-.2.595-.307.069.146.136.293.206.438a3.928,3.928,0,0,0-1.088.708,9.459,9.459,0,0,0,1.242-.669c.07.5-.638.531-.942.77.069.041.2.122.272.161.175-.09.353-.176.533-.258q.155.389.3.78c1.641,1.026,3.275,2.065,4.935,3.058-.753-2.509-1.4-5.047-2.136-7.563C22.747,17.168,24.732,15.46,26.731,13.768Zm-7.659,3.648c-.332.2-.662.395-1,.585-.183-.329-.388-.648-.566-.98s-.062-.8-.321-1.11a4,4,0,0,0-.406-.178,10.036,10.036,0,0,1-.63-1.114c.323-.2.641-.4.958-.609C17.756,15.15,18.415,16.283,19.072,17.417Zm-2.11-.493a1.5,1.5,0,0,1-.49-.665c.178-.05.349-.228.545-.167a1.032,1.032,0,0,1,.281.655c-.164-.122-.322-.251-.479-.381C16.855,16.507,16.927,16.785,16.962,16.924Zm-1.553-2.068c-.307.139-.6.51-.967.343.827-.564,1.736-.993,2.607-1.48C16.679,14.3,15.948,14.473,15.409,14.856ZM11.4,16.675a5.438,5.438,0,0,1-.434-1.949.946.946,0,0,1,.864-.955,3.536,3.536,0,0,1,2,1.48C13.032,15.74,12.213,16.2,11.4,16.675ZM14,12.783a.827.827,0,0,1,1.012-.717,4.074,4.074,0,0,1,1.814,1.469c-.823.468-1.631.965-2.475,1.393A4.537,4.537,0,0,1,14,12.783Zm1.084,4.955a5.338,5.338,0,0,1-.741-1.2c-.228-.451.469-.955.816-.559a10.531,10.531,0,0,1,.773,1.292C15.826,17.627,15.472,17.995,15.087,17.737Zm2.827,3.328c.164-.12.326-.241.489-.363-.218.078-.437.153-.657.224a1.549,1.549,0,0,1,.489-.55l-.692.228c.175-.193.36-.375.546-.556-.193.087-.385.175-.578.263-.277-.466-.554-.934-.825-1.4q.315-.137.636-.26l-.223-.172-.434.374c-.218-.363-.433-.727-.647-1.092.26-.626-.19-1.18-.491-1.694-.186-.344-.592-.437-.909-.615.293-.158.587-.316.874-.484l.336-.045c.182.325.37.648.549.974-.035.263-.158.575.063.794a.978.978,0,0,0,.559.305c.265.4.486.832.738,1.245l-.323.077-.056.28.413-.293c.458.721.827,1.5,1.316,2.2l.3-.153c-.361-.778-.833-1.5-1.25-2.25.329-.192.659-.384.987-.58.281.468.54.951.818,1.421-.161.09-.321.181-.48.274l.7-.14-.461.517c.193-.087.388-.169.585-.246a2.985,2.985,0,0,1-.433.585l.5-.293c.083.139.164.279.245.417-.829.462-1.631.97-2.457,1.435ZM21.2,23.844c-.361-.246-.694-.533-1.074-.752a4.187,4.187,0,0,1-1.285-1.267l.4-.286c.364.3.743.584,1.12.871a2.127,2.127,0,0,1,.049-1.191l-.287-.155c.155-.123.316-.242.475-.361.276.671.505,1.359.725,2.05l-.294-.314C21.1,22.9,21.167,23.372,21.2,23.844Zm-.363-3.577A23.833,23.833,0,0,1,18.2,21.8a.857.857,0,0,1,.375-.431c.568-.325,1.128-.665,1.7-.991A.778.778,0,0,1,20.837,20.267Z" style="fill:#ff1f29"/><path d="M15.922,13.521c.182.085.181.179,0,.281C15.735,13.714,15.737,13.62,15.922,13.521Z" style="fill:#ff1f29"/><path d="M15.331,13.844c.227-.081.309-.01.248.217Q15.236,14.185,15.331,13.844Z" style="fill:#ff1f29"/><path d="M13.257,15.031q.336-.1.224.244Q13.145,15.376,13.257,15.031Z" style="fill:#ff1f29"/><path d="M12.818,15.283q.342-.111.235.23C12.825,15.586,12.746,15.51,12.818,15.283Z" style="fill:#ff1f29"/><path d="M12.354,15.574c.2-.059.263.008.2.2C12.354,15.836,12.289,15.769,12.354,15.574Z" style="fill:#ff1f29"/><path d="M11.846,15.836q.34-.111.238.231C11.857,16.14,11.779,16.063,11.846,15.836Z" style="fill:#ff1f29"/><path d="M14.671,16.367c.165-.179.307-.151.423.087A.216.216,0,0,1,14.671,16.367Z" style="fill:#ff1f29"/><path d="M14.2,18.3c.3.462.55.958.829,1.435l.462-.293c.01.038.028.115.038.153a2.874,2.874,0,0,0-.547.559c.354-.14.444.287.694.431l-.172.238.347-.045c-.027.05-.078.154-.105.2a4.516,4.516,0,0,1,.577,1.063c-.02.183-.213.19-.344.251a5.344,5.344,0,0,0-.6-.994.424.424,0,0,1,.074-.6l-.276.182q-.216-.42-.44-.837l-.365.213a2.512,2.512,0,0,1,.272-.358c-.235-.391-.435-.8-.678-1.186l-.447-.074c.224-.12.455-.227.68-.346m.433,1.236h0m1.126,1.95Z" style="fill:#ff1f29"/><path d="M12.552,15.779c.066-.2,0-.263-.2-.2C12.289,15.769,12.354,15.836,12.552,15.779Z" style="fill:none"/><path d="M11.433,16.147c.006.469.426-.2,0,0Z" style="fill:none"/><path d="M12.818,15.283c-.071.227.007.3.235.23C13.124,15.286,13.046,15.209,12.818,15.283Z" style="fill:none"/><path d="M15.85,20.778l-.347.045.172-.238c-.251-.144-.34-.571-.694-.431a2.875,2.875,0,0,1,.547-.559c-.01-.038-.028-.115-.038-.153l-.462.293c-.279-.477-.525-.973-.829-1.435-.225.119-.456.225-.68.346.112.018.335.055.447.074.242.385.442.8.678,1.186a2.51,2.51,0,0,0-.272.358l.365-.213q.223.418.44.837l.276-.182a.424.424,0,0,0-.074.595,5.345,5.345,0,0,1,.6.994c.132-.06.325-.067.344-.251a4.515,4.515,0,0,0-.577-1.063C15.772,20.932,15.824,20.829,15.85,20.778Z" style="fill:none"/><path d="M11.846,15.836c-.067.227.011.3.238.231Q12.187,15.725,11.846,15.836Z" style="fill:none"/><path d="M13.481,15.275q.111-.347-.224-.244C13.183,15.261,13.257,15.342,13.481,15.275Z" style="fill:none"/><path d="M26.731,13.768c-2.612-.085-5.222-.23-7.836-.266-1.011-2.416-1.954-4.859-2.979-7.27-.871,2.461-1.788,4.906-2.7,7.35l-1.45.035s-.949.118-1.232.13c-1.688.157-3.381.26-5.072.379,1.975,1.683,4.082,3.206,6.086,4.858q-.9,3.814-1.863,7.61c1.763-1.173,3.514-2.362,5.289-3.514l.088-.305c.137-.127.274-.255.41-.384l-.451.081.231-.372c-.245.091-.489.182-.735.267.19-.2.395-.381.6-.567-.213.074-.423.151-.631.23-.265-.466-.511-.941-.783-1.4.228-.1.456-.2.687-.29-.07-.06-.139-.119-.21-.176-.167.139-.339.273-.512.4-.654-1.123-1.319-2.239-1.946-3.377.111-.1.225-.2.333-.305-.2.024-.4.074-.6.106a16.391,16.391,0,0,1,2.618-1.56c-.024.056-.074.168-.1.224-.524.416-1.166.654-1.705,1.051,0,.025-.013.077-.018.1.2.017.358-.136.521-.23.188.374.392.739.6,1.1a3.43,3.43,0,0,0-.038.655l.395.118c-.08-.178-.153-.358-.22-.539.228-.035.542-.224.616.118l.332.146a1.031,1.031,0,0,0-.746-.741c-.207-.364-.416-.728-.634-1.085a12.138,12.138,0,0,1,1.134-.615c-.049.322-.234.68-.042.993.323.539.557,1.3,1.295,1.355.206.342.4.692.6,1.035-.112.077-.336.23-.447.307.2.052.368-.08.536-.167.258.452.531.9.769,1.359-.153.132-.305.263-.456.4q.355-.128.713-.241c-.16.2-.34.381-.515.567.232-.092.466-.182.706-.26a6.741,6.741,0,0,1-.573.61c.2-.1.4-.2.595-.307.069.146.136.293.206.438a3.928,3.928,0,0,0-1.088.708,9.459,9.459,0,0,0,1.242-.669c.07.5-.638.531-.942.77.069.041.2.122.272.161.175-.09.353-.176.533-.258q.155.389.3.78c1.641,1.026,3.275,2.065,4.935,3.058-.753-2.509-1.4-5.047-2.136-7.563C22.747,17.168,24.732,15.46,26.731,13.768ZM11.4,16.675a5.438,5.438,0,0,1-.434-1.949.946.946,0,0,1,.864-.955,3.536,3.536,0,0,1,2,1.48C13.032,15.74,12.213,16.2,11.4,16.675Z" style="fill:none"/><path d="M28.459,13.18c-3.039-.125-6.079-.214-9.118-.353-1.13-2.836-2.285-5.66-3.434-8.488-1.058,2.86-2.138,5.713-3.147,8.59-3.046.179-6.086.462-9.132.648,2.394,1.876,4.76,3.787,7.165,5.646-.69,2.96-1.481,5.9-2.192,8.852.3-.172.6-.347.882-.543q3.347-2.26,6.72-4.483c2.272,1.376,7.435,4.595,7.75,4.789q-1.231-4.383-2.489-8.756C23.79,17.112,26.135,15.157,28.459,13.18ZM15.978,22.3a5.345,5.345,0,0,0-.6-.994.424.424,0,0,1,.074-.595l-.276.182q-.216-.42-.44-.837l-.365.213a2.51,2.51,0,0,1,.272-.358c-.235-.391-.435-.8-.678-1.186-.112-.02-.335-.056-.447-.074.224-.12.455-.227.68-.346.3.462.55.958.829,1.435l.462-.293c.01.038.028.115.038.153a2.875,2.875,0,0,0-.547.559c.354-.14.444.287.694.431l-.172.238.347-.045c-.027.05-.078.154-.105.2a4.515,4.515,0,0,1,.577,1.063C16.3,22.229,16.109,22.236,15.978,22.3Zm6.87,4.082c-1.66-.993-3.294-2.031-4.935-3.058q-.147-.391-.3-.78c-.181.081-.358.168-.533.258-.069-.039-.2-.12-.272-.161.3-.239,1.012-.27.942-.77a9.459,9.459,0,0,1-1.242.669,3.928,3.928,0,0,1,1.088-.708c-.07-.146-.137-.293-.206-.438-.2.1-.395.207-.595.307a6.741,6.741,0,0,0,.573-.61c-.239.078-.473.168-.706.26.175-.186.356-.368.515-.567q-.357.113-.713.241c.151-.134.3-.266.456-.4-.238-.463-.511-.907-.769-1.359-.168.087-.336.218-.536.167.111-.077.335-.23.447-.307-.2-.343-.4-.693-.6-1.035-.738-.05-.972-.816-1.295-1.355-.192-.312-.007-.671.042-.993a12.138,12.138,0,0,0-1.134.615c.218.357.427.721.634,1.085a1.031,1.031,0,0,1,.746.741l-.332-.146c-.074-.342-.388-.153-.616-.118.067.181.14.361.22.539l-.395-.118a3.43,3.43,0,0,1,.038-.655c-.206-.364-.41-.729-.6-1.1-.162.094-.319.246-.521.23.006-.027.014-.078.018-.1.539-.4,1.182-.636,1.705-1.051.025-.056.076-.168.1-.224a16.391,16.391,0,0,0-2.618,1.56c.2-.032.4-.083.6-.106-.108.105-.223.2-.333.305.627,1.138,1.292,2.254,1.946,3.377.174-.132.346-.266.512-.4.071.057.14.116.21.176-.231.092-.459.193-.687.29.272.462.518.937.783,1.4.209-.078.419-.155.631-.23-.2.186-.4.37-.6.567.246-.085.49-.176.735-.267l-.231.372.451-.081c-.136.129-.273.256-.41.384l-.088.305C13.2,24.233,11.444,25.422,9.682,26.6q.962-3.8,1.863-7.61c-2-1.652-4.11-3.175-6.086-4.858,1.691-.119,3.384-.223,5.072-.379.283-.012,1.232-.13,1.232-.13l1.45-.035c.914-2.444,1.831-4.889,2.7-7.35,1.025,2.411,1.968,4.854,2.979,7.27,2.614.036,5.223.181,7.836.266-2,1.691-3.984,3.4-6.02,5.047C21.443,21.331,22.094,23.869,22.847,26.378Z" style="fill:#fffdb9"/><path d="M11.834,13.771a.946.946,0,0,0-.864.955,5.438,5.438,0,0,0,.434,1.949c.809-.477,1.628-.935,2.432-1.424A3.536,3.536,0,0,0,11.834,13.771Zm-.4,2.376c.426-.2.006.469,0,0Zm.413-.311q.34-.111.238.231C11.857,16.14,11.779,16.063,11.846,15.836Zm.706-.057c-.2.057-.263-.01-.2-.2C12.552,15.516,12.618,15.583,12.552,15.779Zm.266-.5c.228-.074.307,0,.235.23C12.825,15.586,12.746,15.51,12.818,15.283Zm.664-.008c-.224.067-.3-.014-.224-.244Q13.593,14.928,13.481,15.275Z" style="fill:#fffdb9"/><path d="M14,12.783a.827.827,0,0,1,1.012-.717,4.074,4.074,0,0,1,1.814,1.469c-.823.468-1.631.965-2.475,1.393A4.537,4.537,0,0,1,14,12.783m2.03.445h0m.3.167h0m-.413.126c-.185.1-.186.193,0,.281.183-.1.185-.2,0-.281m-.591.323q-.095.34.248.217c.062-.227-.021-.3-.248-.217m-.434.276c-.193.426.473-.008,0,0m-.428.253C14.257,14.795,14.937,14.386,14.468,14.373Z" style="fill:#fffdb9"/><path d="M14.442,15.2c.827-.564,1.736-.993,2.607-1.48-.37.582-1.1.753-1.639,1.137C15.1,14.995,14.807,15.366,14.442,15.2Z" style="fill:#fffdb9"/><path d="M16.151,14.62c.323-.2.641-.4.958-.609.647,1.14,1.306,2.272,1.963,3.406-.332.2-.662.395-1,.585-.183-.329-.388-.648-.566-.98s-.062-.8-.321-1.11a4.007,4.007,0,0,0-.406-.178,10.028,10.028,0,0,1-.63-1.114m.318.02Z" style="fill:#fffdb9"/><path d="M14.618,15.448c.293-.158.587-.316.874-.484l.336-.045c.182.325.37.648.549.974-.035.263-.158.575.063.794a.978.978,0,0,0,.559.305c.265.4.486.832.738,1.245l-.323.077-.056.28.413-.293c.458.721.827,1.5,1.316,2.2l.3-.153c-.361-.778-.833-1.5-1.25-2.25.329-.192.659-.384.987-.58.281.468.54.951.818,1.421-.161.09-.321.181-.48.274l.7-.14-.461.517c.193-.087.388-.169.585-.246a2.984,2.984,0,0,1-.433.585l.5-.293c.083.139.164.279.245.417-.829.462-1.631.97-2.457,1.435l-.227-.423q.246-.181.489-.363-.328.118-.657.224a1.549,1.549,0,0,1,.489-.55l-.692.228c.175-.193.36-.375.546-.556-.193.087-.385.175-.578.263-.277-.466-.554-.934-.825-1.4q.315-.136.636-.26l-.223-.172-.434.374c-.218-.363-.433-.727-.647-1.092.26-.626-.19-1.18-.491-1.694C15.341,15.719,14.935,15.626,14.618,15.448Z" style="fill:#fffdb9"/><path d="M14.347,16.539c-.228-.451.469-.955.816-.559a10.54,10.54,0,0,1,.773,1.292c-.109.354-.463.722-.848.465a5.338,5.338,0,0,1-.741-1.2m.325-.172a.216.216,0,0,0,.423.087C14.978,16.216,14.837,16.188,14.671,16.367Z" style="fill:#fffdb9"/><path d="M16.472,16.259c.178-.05.349-.228.545-.167a1.033,1.033,0,0,1,.281.655c-.164-.122-.322-.251-.479-.381.036.14.108.419.143.557A1.5,1.5,0,0,1,16.472,16.259Z" style="fill:#fffdb9"/><path d="M20.271,20.382a.778.778,0,0,1,.566-.115A23.829,23.829,0,0,1,18.2,21.8a.857.857,0,0,1,.375-.431C19.144,21.048,19.7,20.708,20.271,20.382Z" style="fill:#fffdb9"/><path d="M20.127,21.064c.155-.123.316-.242.475-.361.276.671.505,1.359.725,2.05l-.294-.314c.071.466.134.934.167,1.406-.361-.246-.694-.533-1.074-.752a4.186,4.186,0,0,1-1.285-1.267l.4-.286c.364.3.743.584,1.12.871a2.127,2.127,0,0,1,.049-1.191Z" style="fill:#fffdb9"/></svg>