<svg xmlns="http://www.w3.org/2000/svg" viewBox="0 0 32 32"><title>file_type_ng_component_sass</title><defs><clipPath id="a"><path d="m0 0h223v236h-223z" fill="#fff" /></clipPath><linearGradient id="b"><stop offset="0" stop-color="#de3641" /><stop offset="1" stop-color="#b13138" /></linearGradient></defs><g transform="matrix(.11923 0 0 .11923 2.7608 1.986)" clip-path="url(#a)"><path d="m222.08 39.192-8.019 125.92-76.671-165.12zm-53.105 162.82-57.933 33.056-57.934-33.056 11.783-28.556h92.301zm-57.933-139.34 30.357 73.803h-60.715zm-103.1 102.44-7.937-125.92 84.69-39.192z" fill="url(#b)" /></g><ellipse cx="20.76" cy="23.75" rx="11.51" ry="7.75" transform="translate(-4.682 5.103) rotate(-12.605)" style="fill:#fff" /><path d="M27.7,24.32a3.49,3.49,0,0,0-1.53.35,3.22,3.22,0,0,1-.34-.79,2.13,2.13,0,0,1,0-.66,5.91,5.91,0,0,1,.2-.72s0-.18-.38-.18-.63.06-.66.15a3.71,3.71,0,0,0-.14.5,11.85,11.85,0,0,1-1,2,1.92,1.92,0,0,1-.26-1.24,5.91,5.91,0,0,1,.2-.72s0-.18-.38-.18-.63.06-.66.15-.07.3-.14.5-.89,2-1.11,2.51c-.11.24-.21.44-.27.57h0l-.09.18h0a.213.213,0,0,1-.12.16,1,1,0,0,1,0-.52c.12-.64.42-1.63.41-1.66s.06-.19-.19-.28a.31.31,0,0,0-.35.06v.05s.27-1.11-.51-1.11a2.32,2.32,0,0,0-1.49,1l-1.13.62-.55.3h0c-.95-1-2.69-1.72-2.61-3.07,0-.49.2-1.78,3.35-3.36,2.59-1.28,4.66-.92,5-.14.51,1.12-1.1,3.2-3.78,3.5a2,2,0,0,1-1.69-.43c-.14-.15-.16-.16-.22-.13s0,.18,0,.26a1.58,1.58,0,0,0,1,.76,5.15,5.15,0,0,0,3.14-.31c1.63-.63,2.89-2.37,2.52-3.83s-2.84-2-5.17-1.14a11.74,11.74,0,0,0-4,2.28c-1.28,1.2-1.49,2.24-1.4,2.68.3,1.55,2.44,2.56,3.29,3.31l-.12.06a6.07,6.07,0,0,0-2.47,2,1.324,1.324,0,0,0,.4,1.83l.033.02a2.63,2.63,0,0,0,2.84-1.15,2.84,2.84,0,0,0,.25-2.62h0l.33-.2.62-.35a4.06,4.06,0,0,0-.22,1.12,2.34,2.34,0,0,0,.5,1.63.55.55,0,0,0,.41.13c.36,0,.53-.3.71-.66s.42-.94.42-.94-.25,1.37.43,1.37c.25,0,.5-.32.61-.48h0v-.06h0c.1-.17.32-.56.65-1.21.42-.84.83-1.88.83-1.88a5.35,5.35,0,0,0,.16.68,6.41,6.41,0,0,0,.35.79l-.16.22h0c-.08.1-.17.22-.26.33a9.81,9.81,0,0,0-.79,1,.27.27,0,0,0,.07.36.67.67,0,0,0,.41.07,1.89,1.89,0,0,0,.62-.14,2.08,2.08,0,0,0,.53-.28,1.19,1.19,0,0,0,.51-1,2.12,2.12,0,0,0-.19-.74l.09-.13a14.1,14.1,0,0,0,.8-1.77,5.35,5.35,0,0,0,.16.68,4.56,4.56,0,0,0,.3.68,2.93,2.93,0,0,0-.9,1.16c-.19.56,0,.81.24.87a.86.86,0,0,0,.45-.09,2,2,0,0,0,.57-.29,1.28,1.28,0,0,0,.63-1,2,2,0,0,0-.14-.62A3.22,3.22,0,0,1,28,24.9c1.47.17,1.75,1.09,1.7,1.47a1,1,0,0,1-.47.66c-.1.06-.14.09-.13.13s.06.06.15.05a1.14,1.14,0,0,0,.8-1,2.089,2.089,0,0,0-2.273-1.887l-.067.007ZM16.4,28.13c-.49.53-1.16.73-1.46.56s-.19-1,.41-1.52a7.76,7.76,0,0,1,1.14-.85l.3-.18h.07a2.1,2.1,0,0,1-.51,2.06Zm3.54-2.41c-.17.41-.52,1.47-.74,1.41s-.3-.85,0-1.64a3.73,3.73,0,0,1,.58-1.06c.26-.3.56-.39.63-.27a5.46,5.46,0,0,1-.43,1.56Zm2.92,1.4c-.07,0-.14.06-.17,0s0-.06,0-.06.37-.39.51-.57l.29-.37h0c0,.47-.46.79-.66.92Zm2.25-.51c-.05,0,0-.16.13-.55a2.05,2.05,0,0,1,.5-.65.87.87,0,0,1,0,.28.93.93,0,0,1-.68.91Z" style="fill:#cd6799" /></svg>
