<svg xmlns="http://www.w3.org/2000/svg" xmlns:xlink="http://www.w3.org/1999/xlink" viewBox="0 0 32 32"><defs><linearGradient id="a" x1="-232.591" y1="266.35" x2="-232.527" y2="266.35" gradientTransform="matrix(-64.529, 234.42, 234.42, 64.529, -77418.234, 37349.041)" gradientUnits="userSpaceOnUse"><stop offset="0" stop-color="#58d09e"/><stop offset="1"/></linearGradient><linearGradient id="b" x1="-232.579" y1="267.655" x2="-232.515" y2="267.655" gradientTransform="matrix(190.987, 150.5, 150.5, -190.987, 4142.028, 86141.279)" gradientUnits="userSpaceOnUse"><stop offset="0" stop-color="#58d09e"/><stop offset="1" stop-color="#d2d2d2"/></linearGradient></defs><title>file_type_cypress</title><path d="M15.5,2.012A14,14,0,1,1,2.017,16.5,14.009,14.009,0,0,1,15.5,2.012Z"/><path d="M23.5,11.561l-2.635,6.612-2.651-6.612h-2.17l3.719,9.025L17.12,26.95l1.9.375,6.536-15.764H23.5Z" style="fill:#d2d2d2"/><path d="M11.924,13.233a2.611,2.611,0,0,1,2.458,1.6l.036.079,1.849-.623-.04-.094a4.552,4.552,0,0,0-4.3-2.8,4.624,4.624,0,0,0-3.387,1.323A4.441,4.441,0,0,0,7.166,16.02a4.419,4.419,0,0,0,1.371,3.289,4.624,4.624,0,0,0,3.387,1.324,4.554,4.554,0,0,0,4.3-2.8l.04-.094-1.852-.624-.035.083a2.563,2.563,0,0,1-2.456,1.595A2.6,2.6,0,0,1,10,18a2.728,2.728,0,0,1-.781-1.978,2.774,2.774,0,0,1,.781-2,2.588,2.588,0,0,1,1.928-.792Z" style="fill:#d2d2d2"/><path d="M22.251,25.8a11.617,11.617,0,0,0,4.106-15.214l1.682-.869a13.483,13.483,0,0,1-4.768,17.671L22.251,25.8Z" style="fill:url(#a)"/><path d="M2.905,19.562a13.406,13.406,0,0,1-.484-3.574A13.582,13.582,0,0,1,11.14,3.4l.684,1.755a11.689,11.689,0,0,0-7.5,10.832,11.539,11.539,0,0,0,.416,3.075Z" style="fill:#58d09e"/><path d="M11.049,3.444A13.669,13.669,0,0,1,28.114,9.877l-1.688.858A11.765,11.765,0,0,0,11.74,5.2l-.691-1.753Z" style="fill:#58d09e"/><path d="M17.488,26.06l-.462,1.11a.614.614,0,0,1-.538.378c-.156.007-.314.011-.473.011A11.786,11.786,0,0,1,4.571,18.51l-1.852.415a13.522,13.522,0,0,0,4.73,7.514,13.751,13.751,0,0,0,8.546,3h.028c.182,0,.364,0,.544-.011a2.519,2.519,0,0,0,2.217-1.543l.6-1.45-1.9-.375Z" style="fill:url(#b)"/></svg>