<svg xmlns="http://www.w3.org/2000/svg" viewBox="0 0 32 32"><title>file_type_mlang</title><path d="M30,25.583H25.757V15.378a8.271,8.271,0,0,0-.832-4.261A3.061,3.061,0,0,0,22.118,9.8a3.383,3.383,0,0,0-2.826,1.664,6.791,6.791,0,0,0-1.161,3.987V25.583H13.869V15.031q0-5.231-3.694-5.231a3.332,3.332,0,0,0-2.826,1.573,6.935,6.935,0,0,0-1.106,4.078V25.583H2V6.856H6.243V9.818h.073a6.488,6.488,0,0,1,5.907-3.4,5.569,5.569,0,0,1,3.393,1.07A5.328,5.328,0,0,1,17.6,10.294a6.683,6.683,0,0,1,6.218-3.877Q30,6.417,30,14.043Z" style="fill:#cfcfcf"/></svg>