<svg xmlns="http://www.w3.org/2000/svg" viewBox="0 0 32 32"><title>file_type_groovy</title><path d="M7.453,22.855c0-.037.494-.849,1.1-1.805A6.891,6.891,0,0,0,9.5,19.261a1.454,1.454,0,0,0-.6.111c-.764.266-.92.2-1.491-.67-.617-.937-.639-1.034-.317-1.389.21-.232.2-.286-.147-.631a1.422,1.422,0,0,1-.377-.516,17.664,17.664,0,0,0-3.647-1.5A4.173,4.173,0,0,1,2,14.267a21.111,21.111,0,0,1,2.378-.019l2.378.048.232-.366c.981-1.547,2.463-2.945,3.122-2.945a1.333,1.333,0,0,1,.619.291c.331.26.376.422.435,1.545a5.759,5.759,0,0,0,.165,1.354c.055.055.228-.017.385-.159a.723.723,0,0,1,.71-.165.567.567,0,0,0,.646-.17,23.472,23.472,0,0,0,1.455-2.332,9.3,9.3,0,0,1,.534-.913l.751-1.2c.213-.34.246-.3,1.524,1.842,1.32,2.212,2.03,3.028,2.385,2.741a3.154,3.154,0,0,1,1.914-.017c.207.111.338.109.453,0a.694.694,0,0,1,.953.069c.117.209.147.209.32,0a1.037,1.037,0,0,1,.692-.23c.389,0,.538.081.666.363l.165.363,2.558-.091A23.245,23.245,0,0,1,30,14.254a24.182,24.182,0,0,1-2.321.934c-1.277.475-2.342.877-2.368.895a4.39,4.39,0,0,0,.128.923,2.837,2.837,0,0,1-1.565,3.561,1.262,1.262,0,0,0-.506.24,11.264,11.264,0,0,0,.66,1.094c.363.561.606,1.021.539,1.021-.109,0-2.757-1.023-6.876-2.657a14.6,14.6,0,0,0-1.643-.586c-.171,0-1.649.56-5.984,2.268-2.514.99-2.612,1.025-2.612.907Zm5.158-2.337c1.337-.52,2.664-1.027,2.947-1.128.488-.174.651-.13,3.021.806,1.378.545,2.737,1.075,3.021,1.179s.868.329,1.3.5c.491.2.742.243.674.127-.77-1.3-.793-1.324-1.327-1.224-.644.121-1.043,0-1.249-.387-.133-.249-.093-.371.24-.717.495-.516.417-.991-.221-1.35a1.992,1.992,0,0,1-.686-.756l-.241-.506-.517.351a1.866,1.866,0,0,1-2.059.059l-.477-.291-.554.377a1.831,1.831,0,0,1-1.844.141c-.179-.079-.258-.048-.258.1,0,.117-.169.29-.375.384a1.4,1.4,0,0,1-1.633-.2L12,17.606l-.3.383a4.042,4.042,0,0,1-.853.731,5.944,5.944,0,0,0-1.455,1.811c-.5.8-.9,1.5-.9,1.554a2.252,2.252,0,0,0,.847-.266c.466-.2,1.942-.782,3.279-1.3Zm11.343-.559c1.015-.57,1.25-1.625.8-3.6-.375-1.646-.562-2.185-.784-2.257-.154-.05-.177,0-.091.21.562,1.334.593,2,.1,2.192-.337.129-.695-.355-.976-1.322-.218-.749-.445-1.087-.617-.915-.041.041.031.279.16.529a6.987,6.987,0,0,1,.394,1.672,5.719,5.719,0,0,0,.375,1.558c.309.487.8.37,1.118-.267s.35-.21.044.521c-.317.76-1.26.987-2.352.568-.175-.067-.234,0-.234.275a1.453,1.453,0,0,1-.3.743l-.3.378.408.069A3.856,3.856,0,0,0,23.954,19.959ZM9.346,18.7c2.118-.609,2.5-1.319,1.793-3.365a5.764,5.764,0,0,1-.3-1.135c0-.509-.256-.274-.448.411-.254.906-1.016,1.676-1.657,1.673-.557,0-.738-.1-.968-.541-.413-.784.037-1.987,1.184-3.167.84-.865,1.3-.943,1.3-.222,0,1.125-.776,2.781-1.184,2.529-.2-.123-.167-.669.065-1.088.2-.356.157-.9-.066-.9-.259,0-.773.944-.841,1.546-.06.532-.022.661.231.8.888.475,2.052-.976,2.111-2.632.031-.87-.138-1.114-.674-.98-.781.2-2.883,2.909-2.883,3.72a1.173,1.173,0,0,0,.88,1.232,2.266,2.266,0,0,0,2.529-1.251l.275-.442v.6c0,.87-.567,1.328-2.357,1.9-.446.143-.829.276-.852.295a3.723,3.723,0,0,0,.892,1.253,8.436,8.436,0,0,0,.969-.239Zm12.764-1.08c.213-.235.25-.49.2-1.393-.05-.982-.1-1.155-.486-1.554-.691-.721-1.544-.537-1.045.225.265.405.589.336.475-.1-.091-.348.079-.358.375-.02.556.633.416,1.511-.242,1.511-.45,0-.59-.193-.883-1.216a2.062,2.062,0,0,0-.362-.847.208.208,0,0,0-.179.355A7.764,7.764,0,0,1,20.42,16c.441,1.734,1.057,2.327,1.69,1.628Zm-8.38.028c.091-.061.132-.349.095-.658-.06-.5-.094-.535-.364-.39-.387.207-.8-.185-.944-.891-.107-.535-.14-.525.64-.205.1.04.346-.1.553-.3.377-.377.5-.83.228-.83a.148.148,0,0,0-.147.147c0,.212-.4.182-.494-.037-.053-.128-.166-.082-.367.147a1,1,0,0,1-.434.332c-.079,0-.185-.149-.237-.332-.09-.32-.1-.322-.3-.056-.178.233-.18.307-.01.477a5.055,5.055,0,0,1,.521,1.874.892.892,0,0,0,1.267.723Zm2.688-.769a1.925,1.925,0,0,0,.416-2.106.949.949,0,0,0-1.222-.631c-.429.108-1.082,1.358-1.084,2.075,0,1.118,1.06,1.491,1.89.661ZM15.411,16a1.124,1.124,0,0,1-.29-.7c0-.368.022-.382.2-.147.22.29.611.34.761.1a.283.283,0,0,0-.065-.324c-.232-.232-.2-.547.049-.547.28,0,.672.571.672.98a1.427,1.427,0,0,1-.9.936A1.052,1.052,0,0,1,15.411,16Zm3.937.847a1.764,1.764,0,0,0-.141-2.432,1.175,1.175,0,0,0-1.479-.123,3.109,3.109,0,0,0-.489,1.926A1.276,1.276,0,0,0,19.348,16.843ZM18.1,15.766a.785.785,0,0,1-.318-.774c.008-.45.031-.49.135-.233.153.378.473.52.753.336.174-.114.166-.169-.05-.334-.288-.221-.344-.534-.1-.534a2.37,2.37,0,0,1,1.017,1.112c0,.237-.564.656-.884.656A1.258,1.258,0,0,1,18.1,15.766Zm8.662-.652,1.547-.581-1.658-.006c-1.484-.005-1.658.021-1.656.252a3,3,0,0,0,.2.918c.011,0,.716-.264,1.567-.583Zm-20.222-.1.158-.469L5.3,14.495a5.409,5.409,0,0,0-1.389.044,17.027,17.027,0,0,0,2.447.956C6.371,15.486,6.448,15.269,6.535,15.011Zm9.526-1.454a2.01,2.01,0,0,1,.819.3c.192.173.276.161.573-.081a1.236,1.236,0,0,1,.553-.283c.113,0,.2-.033.2-.072a41.654,41.654,0,0,0-2.2-3.607,43.984,43.984,0,0,0-2.337,3.918c-.028.112.06.153.231.108a.5.5,0,0,1,.468.158c.17.205.24.189.644-.151a1.013,1.013,0,0,1,1.048-.286Z" style="fill:#333"/><path d="M14.5,14.109a.5.5,0,0,1-.115-.1.511.511,0,0,0-.49-.174.335.335,0,0,1-.15.012c-.065-.013-.089-.052-.07-.12a9.59,9.59,0,0,1,.548-1.016c.711-1.235,1.666-2.792,1.772-2.887.012-.011.012-.011.024,0,.063.056.432.626.937,1.444.682,1.107,1.25,2.081,1.25,2.145,0,.039-.06.063-.186.073a1.193,1.193,0,0,0-.587.3,1.243,1.243,0,0,1-.226.153.166.166,0,0,1-.1.024.15.15,0,0,1-.1-.021.684.684,0,0,1-.1-.071,1.215,1.215,0,0,0-.414-.208,2.631,2.631,0,0,0-.738-.139.712.712,0,0,0-.4.077,1.932,1.932,0,0,0-.416.3c-.257.21-.348.254-.441.211Z" style="fill:#6398aa"/><path d="M6.252,15.47a22.778,22.778,0,0,1-2.3-.909c-.031-.019-.034-.022-.025-.028a5.357,5.357,0,0,1,1.14-.042c.23.006,1.619.052,1.621.054s-.3.88-.321.93C6.357,15.5,6.337,15.5,6.252,15.47Z" style="fill:#6398aa"/><path d="M25.177,15.679A3.659,3.659,0,0,1,25,14.794c0-.079.009-.111.044-.143.081-.075.245-.1.7-.114.228-.006,1.281-.007,2.025,0l.521,0-1.255.47c-1.144.429-1.81.677-1.834.683-.006,0-.012,0-.018-.014h0Z" style="fill:#6398aa"/><path d="M8.506,22.072a8.284,8.284,0,0,1,.527-.929,7.528,7.528,0,0,1,1.827-2.419,4.138,4.138,0,0,0,.969-.886L12,17.627l.225.221a1.325,1.325,0,0,0,1.062.5c.526,0,1.1-.291,1.1-.562,0-.061.044-.124.086-.124a1.609,1.609,0,0,1,.226.069,2.089,2.089,0,0,0,.666.147,1.628,1.628,0,0,0,.609-.073,2.357,2.357,0,0,0,.711-.378c.187-.125.347-.227.354-.227s.143.078.3.174a4.62,4.62,0,0,0,.422.231,1.854,1.854,0,0,0,1.549-.04,5.023,5.023,0,0,0,.467-.283c.168-.113.307-.2.31-.2s.066.133.141.289a4.224,4.224,0,0,0,.209.39,2.014,2.014,0,0,0,.642.61.873.873,0,0,1,.466.616c.017.218-.078.411-.352.715-.214.237-.268.33-.267.462a.643.643,0,0,0,.213.421,1.163,1.163,0,0,0,1.069.2,2.6,2.6,0,0,1,.316-.034c.2,0,.315.1.542.435.157.235.5.81.5.838s-.016.025-.039.025a2.269,2.269,0,0,1-.407-.111c-.2-.071-2.612-1-3.408-1.317-2.128-.837-2.828-1.1-3.171-1.209a1.538,1.538,0,0,0-.827-.088c-.254.066-3.726,1.408-5.751,2.223a13.565,13.565,0,0,1-1.312.5c-.149.041-.143.04-.143.015Z" style="fill:#6398aa"/></svg>