<svg xmlns="http://www.w3.org/2000/svg" viewBox="0 0 32 32"><title>file_type_riot</title><path d="M2,2.914A.414.414,0,0,1,2.415,2.5H21a9,9,0,0,1,9,9v1.587a.414.414,0,0,1-.415.414h-5.17A.414.414,0,0,1,24,13.091V11.5a3,3,0,0,0-3-3H8.415A.414.414,0,0,0,8,8.917V29.1a.394.394,0,0,1-.416.4A6,6,0,0,1,2,23.51Z" style="fill:#ed1846"/><path d="M13.415,14.506a.394.394,0,0,0-.4.414A6,6,0,0,0,19,20.509h4a1,1,0,0,1,1,1V29.1a.394.394,0,0,0,.416.4A6,6,0,0,0,30,23.51v-2a7,7,0,0,0-7-7Z" style="fill:#ed1846"/></svg>