<svg xmlns="http://www.w3.org/2000/svg" xmlns:xlink="http://www.w3.org/1999/xlink" viewBox="0 0 32 32"><defs><linearGradient id="a" x1="4.416" y1="-1909.341" x2="13.909" y2="-1892.9" gradientTransform="translate(0 1917.121)" gradientUnits="userSpaceOnUse"><stop offset="0" stop-color="#b72c3f"/><stop offset="0.5" stop-color="#b12334"/><stop offset="1" stop-color="#9d1623"/></linearGradient></defs><title>file_type_access</title><path d="M8.512,20v6.667c0,1.84,4.81,3.333,10.744,3.333S30,28.507,30,26.667V20Z" style="fill:#881421"/><path d="M8.512,12.667V20c0,1.841,4.81,3.333,10.744,3.333S30,21.841,30,20V12.667Z" style="fill:#af2031"/><path d="M8.512,5.333v7.334c0,1.84,4.81,3.333,10.744,3.333S30,14.507,30,12.667V5.333Z" style="fill:#c94f60"/><ellipse cx="19.256" cy="5.333" rx="10.744" ry="3.333" style="fill:#e08095"/><path d="M16.434,8H8.512V24.667h7.922a1.212,1.212,0,0,0,1.194-1.222V9.222A1.212,1.212,0,0,0,16.434,8Z" style="opacity:0.10000000149011612;isolation:isolate"/><path d="M15.783,8.667H8.512V25.333h7.271a1.212,1.212,0,0,0,1.194-1.222V9.889A1.212,1.212,0,0,0,15.783,8.667Z" style="opacity:0.20000000298023224;isolation:isolate"/><path d="M15.783,8.667H8.512V24h7.271a1.212,1.212,0,0,0,1.194-1.222V9.889A1.212,1.212,0,0,0,15.783,8.667Z" style="opacity:0.20000000298023224;isolation:isolate"/><path d="M15.132,8.667H8.512V24h6.62a1.213,1.213,0,0,0,1.194-1.222V9.889A1.213,1.213,0,0,0,15.132,8.667Z" style="opacity:0.20000000298023224;isolation:isolate"/><path d="M3.194,8.667H15.132a1.208,1.208,0,0,1,1.194,1.222V22.111a1.208,1.208,0,0,1-1.194,1.222H3.194A1.208,1.208,0,0,1,2,22.111V9.889A1.208,1.208,0,0,1,3.194,8.667Z" style="fill:url(#a)"/><path d="M8.305,12.027h1.758l2.825,7.945h-1.66l-.623-1.895H7.7l-.611,1.895H5.437Zm1.926,4.826-.9-2.875a3.812,3.812,0,0,1-.165-.649H9.13A3.729,3.729,0,0,1,8.968,14l-.912,2.859Z" style="fill:#fff"/></svg>