<svg xmlns="http://www.w3.org/2000/svg" xmlns:xlink="http://www.w3.org/1999/xlink" viewBox="0 0 32 32"><defs><symbol id="a" viewBox="0 0 45.72 26.28"><rect width="45.72" height="26.28" style="fill:none"/><polygon points="0 16.309 22.926 16.309 22.926 26.28 45.72 13.139 22.926 0 22.926 9.97 0 9.97 0 16.309" style="fill:#231f20"/></symbol></defs><title>file_type_cargo</title><path d="M14.261,29.519l-.007-.457L27.18,23.551l2.038.288-.012.385L16.264,30.558Z" style="fill:#977753"/><path d="M14.268,29.067,27.18,23.19l2.05.663L16.264,30.117Z" style="fill:#7a552c"/><path d="M14.258,27.63l2.01,1.086v1.416l-2.01-1.086Z" style="fill:#886947"/><path d="M29.139,22.465l-1.521.766v1.416l1.521-.766Z" style="fill:#9a7246"/><path d="M20.178,24.751l2.01,1.086v1.416l-2.01-1.086V24.751Z" style="fill:#694a27"/><path d="M23.708,25.072l-1.521.766v1.416l1.521-.766V25.072Z" style="fill:#9a7246"/><path d="M8.722,26.749l-.007-.4L21.64,20.835l2.038.288-.012.385-12.942,6.28Z" style="fill:#715a40"/><path d="M8.719,24.914,10.728,26v1.416l-2.01-1.086V24.914Z" style="fill:#886947"/><path d="M12.249,25.234,10.728,26v1.416l1.521-.766V25.234Z" style="fill:#6d471e"/><path d="M3.454,24.088l-.007-.349,12.926-5.511,2.038.288L18.4,18.9,5.456,25.127Z" style="fill:#7a5f41"/><path d="M3.451,22.308l2.01,1.086V24.81l-2.01-1.086Z" style="fill:#886947"/><path d="M6.981,22.628l-1.521.766V24.81l1.521-.766Z" style="fill:#6d471e"/><path d="M3.345,22.622l-.007-.282s2.539-.09,1.689.115C6.08,21.792,16.182,17.9,16.182,17.9l12.961,4.44.062.279-12.942,6.09Z" style="fill:#977753"/><path d="M3.3,22.36l12.966-4.519L29.229,22.36,16.264,28.379Z" style="fill:#c69c6d"/><path d="M16.372,6.64l-6.2-2.481v8.123l6.2,2.522Z" style="fill:#e5ac3d;stroke:#73561f;stroke-miterlimit:10;stroke-width:0.05430921534373718px"/><path d="M16.331,6.674l6.115-2.435L16.3,1.708,10.159,4.175Z" style="fill:#e3b04e;stroke:#73561f;stroke-miterlimit:10;stroke-width:0.054070758972961416px"/><use width="45.72" height="26.28" transform="matrix(0, -0.029, 0.022, 0.013, 10.56, 6.25)" xlink:href="#a"/><path d="M22.509,17.109l6.2-2.481v7.311l-6.2,2.878Z" style="fill:#e5ac3d;stroke:#73561f;stroke-miterlimit:10;stroke-width:0.05430921534373718px"/><path d="M22.5,9.134l6.2-2.415v7.906l-6.2,2.509Z" style="fill:#e5ac3d;stroke:#73561f;stroke-miterlimit:10;stroke-width:0.05430921534373718px"/><path d="M22.433,9.119,16.4,6.557l6.062-2.274,6.2,2.4Z" style="fill:#e3b04e;stroke:#73561f;stroke-miterlimit:10;stroke-width:0.05430921534373718px"/><path d="M10.072,17.092,3.872,14.7v7.375l6.2,2.847Z" style="fill:#e5ac3d;stroke:#73561f;stroke-miterlimit:10;stroke-width:0.05430921534373718px"/><path d="M10.056,17.144l6.2-2.417-6.2-2.465-6.2,2.4Z" style="fill:#e3b04e;stroke:#73561f;stroke-miterlimit:10;stroke-width:0.05430921534373718px"/><line x1="6.952" y1="15.883" x2="13.148" y2="13.416" style="fill:none;stroke:#73561f;stroke-miterlimit:10;stroke-width:0.05430921534373718px"/><path d="M16.3,19.658l-6.2-2.464v7.715l6.2,2.957Z" style="fill:#e5ac3d;stroke:#73561f;stroke-miterlimit:10;stroke-width:0.05430921534373718px"/><path d="M16.25,19.729l6.255-2.481v7.661L16.25,27.866Z" style="fill:#e5ac3d;stroke:#73561f;stroke-miterlimit:10;stroke-width:0.05430921534373718px"/><path d="M16.264,11.547l6.2-2.446v8.16l-6.2,2.485Z" style="fill:#e5ac3d;stroke:#73561f;stroke-miterlimit:10;stroke-width:0.05430921534373718px"/><path d="M16.264,11.528l-6.2-2.481V17.17l6.2,2.522Z" style="fill:#e5ac3d;stroke:#73561f;stroke-miterlimit:10;stroke-width:0.05430921534373718px"/><path d="M16.277,11.508l6.169-2.435-6.2-2.531-6.2,2.467Z" style="fill:#e3b04e;stroke:#73561f;stroke-miterlimit:10;stroke-width:0.05430921534373718px"/><line x1="12.82" y1="10.149" x2="19.016" y2="7.682" style="fill:none;stroke:#73561f;stroke-miterlimit:10;stroke-width:0.05430921534373718px"/><line x1="13.037" y1="5.37" x2="19.233" y2="2.903" style="fill:none;stroke:#73561f;stroke-miterlimit:10;stroke-width:0.05430921534373718px"/><line x1="19.811" y1="5.286" x2="26.127" y2="7.733" style="fill:none;stroke:#73561f;stroke-miterlimit:10;stroke-width:0.05430921534373718px"/><polygon points="18.301 7.395 12.061 9.879 13.543 10.472 19.739 8.006 18.301 7.395" style="fill:#fff;stroke:#73561f;stroke-miterlimit:10;stroke-width:0.04741218643894885px;opacity:0.3"/><polygon points="18.573 2.616 12.333 5.1 13.815 5.693 20.01 3.227 18.573 2.616" style="fill:#fff;stroke:#73561f;stroke-miterlimit:10;stroke-width:0.04741218643894885px;opacity:0.3"/><polygon points="6.266 15.628 7.747 16.22 10.089 15.288 10.063 14.116 6.266 15.628" style="fill:#fff;stroke:#73561f;stroke-miterlimit:10;stroke-width:0.04741218643894885px;opacity:0.3"/><polygon points="20.495 5.029 19.156 5.554 25.383 7.967 26.725 7.443 20.495 5.029" style="fill:#fff;stroke:#73561f;stroke-miterlimit:10;stroke-width:0.041861926921599964px;opacity:0.3"/><polygon points="6.7 17.509 6.751 17.465 6.647 17.424 6.7 17.509" style="fill:none"/><polygon points="7.09 17.679 7.155 17.622 7.026 17.571 7.09 17.679" style="fill:none"/><polygon points="7.719 16.195 6.266 15.63 6.266 17.275 6.467 17.139 6.647 17.424 6.751 17.465 6.889 17.343 7.026 17.571 7.155 17.622 7.344 17.456 7.582 17.788 7.719 17.841 7.719 16.195" style="fill:#fff;stroke:#73561f;stroke-miterlimit:10;stroke-width:0.06661495224335688px;opacity:0.3"/><polygon points="12.783 6.973 12.833 6.929 12.729 6.888 12.783 6.973" style="fill:none"/><polygon points="13.173 7.143 13.238 7.086 13.108 7.035 13.173 7.143" style="fill:none"/><polygon points="13.802 5.659 12.348 5.094 12.348 6.739 12.55 6.603 12.729 6.888 12.833 6.929 12.971 6.807 13.108 7.035 13.238 7.086 13.426 6.92 13.665 7.252 13.802 7.305 13.802 5.659" style="fill:#fff;stroke:#73561f;stroke-miterlimit:10;stroke-width:0.06661495224335688px;opacity:0.3"/><polygon points="12.544 11.783 12.594 11.739 12.49 11.699 12.544 11.783" style="fill:none"/><polygon points="12.933 11.953 12.998 11.896 12.869 11.846 12.933 11.953" style="fill:none"/><polygon points="13.562 10.47 12.109 9.905 12.109 11.55 12.31 11.414 12.49 11.699 12.594 11.739 12.732 11.618 12.869 11.846 12.998 11.896 13.187 11.73 13.425 12.062 13.562 12.115 13.562 10.47" style="fill:#fff;stroke:#73561f;stroke-miterlimit:10;stroke-width:0.06661495224335688px;opacity:0.3"/><polygon points="13.139 16.719 13.089 16.764 13.193 16.803 13.139 16.719" style="fill:none"/><polygon points="12.747 16.554 12.682 16.612 12.813 16.661 12.747 16.554" style="fill:none"/><polygon points="12.139 18.046 13.6 18.591 13.577 16.946 13.377 17.085 13.193 16.803 13.089 16.764 12.953 16.887 12.813 16.661 12.682 16.612 12.496 16.781 12.253 16.452 12.116 16.401 12.139 18.046" style="fill:#fff;stroke:#73561f;stroke-miterlimit:10;stroke-width:0.06661495224335688px;opacity:0.3"/><polygon points="7.328 21.878 7.278 21.923 7.382 21.962 7.328 21.878" style="fill:none"/><polygon points="6.936 21.714 6.871 21.772 7.001 21.82 6.936 21.714" style="fill:none"/><polygon points="6.327 23.206 7.719 23.845 7.766 22.105 7.566 22.244 7.382 21.962 7.278 21.923 7.141 22.046 7.001 21.82 6.871 21.772 6.685 21.94 6.442 21.612 6.304 21.56 6.327 23.206" style="fill:#fff;stroke:#73561f;stroke-miterlimit:10;stroke-width:0.06661495224335688px;opacity:0.3"/><polygon points="25.761 14.093 25.812 14.138 25.708 14.178 25.761 14.093" style="fill:none"/><polygon points="26.151 13.923 26.216 13.98 26.087 14.031 26.151 13.923" style="fill:none"/><polygon points="26.78 15.407 25.327 15.972 25.327 14.327 25.528 14.463 25.708 14.178 25.812 14.138 25.95 14.259 26.087 14.031 26.216 13.98 26.405 14.146 26.643 13.814 26.78 13.761 26.78 15.407" style="fill:#fff;stroke:#73561f;stroke-miterlimit:10;stroke-width:0.06661495224335688px;opacity:0.3"/><polygon points="26.356 9.321 26.307 9.276 26.411 9.237 26.356 9.321" style="fill:none"/><polygon points="25.964 9.485 25.9 9.427 26.03 9.379 25.964 9.485" style="fill:none"/><polygon points="25.356 7.993 26.817 7.448 26.794 9.093 26.595 8.955 26.411 9.237 26.307 9.276 26.17 9.152 26.03 9.379 25.9 9.427 25.714 9.259 25.471 9.587 25.333 9.639 25.356 7.993" style="fill:#fff;stroke:#73561f;stroke-miterlimit:10;stroke-width:0.06661495224335688px;opacity:0.3"/><polygon points="19.428 24.558 19.478 24.602 19.375 24.642 19.428 24.558" style="fill:none"/><polygon points="19.818 24.388 19.883 24.445 19.753 24.495 19.818 24.388" style="fill:none"/><polygon points="20.447 25.871 18.993 26.545 18.993 24.791 19.195 24.927 19.375 24.642 19.478 24.602 19.617 24.723 19.753 24.495 19.883 24.445 20.072 24.611 20.31 24.279 20.447 24.226 20.447 25.871" style="fill:#fff;stroke:#73561f;stroke-miterlimit:10;stroke-width:0.06661495224335688px;opacity:0.3"/><polygon points="20.023 19.948 19.973 19.903 20.078 19.864 20.023 19.948" style="fill:none"/><polygon points="19.631 20.113 19.567 20.055 19.697 20.006 19.631 20.113" style="fill:none"/><polygon points="19.023 18.62 20.484 18.076 20.461 19.721 20.262 19.582 20.078 19.864 19.973 19.903 19.837 19.78 19.697 20.006 19.567 20.055 19.38 19.886 19.138 20.215 19 20.266 19.023 18.62" style="fill:#fff;stroke:#73561f;stroke-miterlimit:10;stroke-width:0.06661495224335688px;opacity:0.3"/><path d="M21.426,13.49l-.172-.039,0-.051.148-.208a.087.087,0,0,0,.018-.065.035.035,0,0,0-.037-.03l-.189.006-.015-.045.118-.222a.073.073,0,0,0,.007-.063.037.037,0,0,0-.045-.018l-.2.051-.024-.037.084-.229a.058.058,0,0,0,0-.058.042.042,0,0,0-.051-.006l-.2.094-.032-.027.047-.227a.047.047,0,0,0-.016-.052.052.052,0,0,0-.056.007l-.2.133-.039-.017.007-.215a.039.039,0,0,0-.026-.043.065.065,0,0,0-.058.02l-.184.166-.045-.006-.033-.2a.036.036,0,0,0-.036-.032.08.08,0,0,0-.057.031l-.164.194-.049.005-.071-.168a.036.036,0,0,0-.044-.021.094.094,0,0,0-.055.042l-.138.214-.05.016-.107-.135a.041.041,0,0,0-.05-.008.1.1,0,0,0-.05.051l-.107.226-.05.026-.138-.1a.05.05,0,0,0-.055,0,.109.109,0,0,0-.044.058l-.071.228-.049.036-.164-.054a.062.062,0,0,0-.057.017.107.107,0,0,0-.036.063l-.033.223-.045.044-.184-.01a.077.077,0,0,0-.058.029.1.1,0,0,0-.026.065l.007.209-.039.05-.2.035a.092.092,0,0,0-.056.04.085.085,0,0,0-.016.065l.046.187-.032.054-.2.079a.1.1,0,0,0-.051.049.07.07,0,0,0,0,.062l.084.157-.024.057-.2.119a.109.109,0,0,0-.045.057.056.056,0,0,0,.007.057l.118.122-.015.058-.189.155a.107.107,0,0,0-.037.062.045.045,0,0,0,.018.05l.148.082,0,.055-.172.185a.1.1,0,0,0-.028.065.038.038,0,0,0,.028.041l.172.039,0,.051-.148.208a.088.088,0,0,0-.018.065.035.035,0,0,0,.037.03l.189-.006.015.045-.118.222a.073.073,0,0,0-.007.063.037.037,0,0,0,.045.018l.2-.051.024.037-.084.229a.058.058,0,0,0,0,.058.042.042,0,0,0,.051.006l.2-.094.032.027-.046.227a.047.047,0,0,0,.016.051.052.052,0,0,0,.056-.007l.2-.133.039.017-.007.215a.039.039,0,0,0,.026.043.065.065,0,0,0,.058-.02l.184-.166.045.006.033.2a.035.035,0,0,0,.036.032.08.08,0,0,0,.057-.031l.164-.194.049-.005.071.168a.036.036,0,0,0,.044.02.093.093,0,0,0,.055-.042l.138-.214.05-.016.107.135a.041.041,0,0,0,.05.008.1.1,0,0,0,.05-.051l.107-.226.05-.027.138.1a.05.05,0,0,0,.055,0,.109.109,0,0,0,.044-.058l.071-.228.049-.036.164.054a.063.063,0,0,0,.057-.017.107.107,0,0,0,.036-.063l.033-.223.045-.044.184.01a.077.077,0,0,0,.058-.029.1.1,0,0,0,.026-.065l-.007-.209.039-.05.2-.035a.091.091,0,0,0,.056-.04.085.085,0,0,0,.016-.065l-.046-.187L20.854,15l.2-.079a.1.1,0,0,0,.051-.049.07.07,0,0,0,0-.062l-.084-.157.024-.057.2-.119a.108.108,0,0,0,.045-.057.056.056,0,0,0-.007-.057l-.118-.122.015-.058.189-.155a.107.107,0,0,0,.037-.062.045.045,0,0,0-.018-.05l-.148-.082,0-.055.172-.185a.1.1,0,0,0,.028-.065A.038.038,0,0,0,21.426,13.49Zm-1.153,1.988c-.066.013-.108-.037-.094-.112a.208.208,0,0,1,.145-.16c.066-.013.108.037.094.112A.209.209,0,0,1,20.273,15.478Zm-.059-.39a.19.19,0,0,0-.132.146l-.061.325a2.252,2.252,0,0,1-.619.4,1.4,1.4,0,0,1-.632.123l-.061-.273c-.013-.057-.072-.072-.132-.033l-.252.164a.825.825,0,0,1-.13-.106l1.226-.521c.014-.006.023-.012.023-.026v-.455c0-.013-.009-.012-.023-.006l-.359.152v-.288l.388-.165a.161.161,0,0,1,.239.115c.015.057.049.249.072.3s.117.172.217.13l.611-.26.022-.012c-.042.078-.089.155-.139.23Zm-1.7,1.13c-.066.043-.131.026-.145-.037a.2.2,0,0,1,.094-.192c.066-.043.131-.026.145.037A.2.2,0,0,1,18.518,16.218Zm-.465-1.779a.18.18,0,0,1-.062.2c-.062.055-.134.056-.161,0a.18.18,0,0,1,.062-.2C17.954,14.388,18.026,14.386,18.053,14.439Zm-.143.416.263-.234a.164.164,0,0,0,.057-.178l-.054-.105.213-.09v1l-.429.182a1.386,1.386,0,0,1-.057-.407C17.9,14.971,17.9,14.913,17.91,14.855Zm1.152-.587v-.3l.506-.215c.026-.011.185-.047.185.077,0,.1-.122.192-.222.234l-.47.2Zm1.84-.516q0,.059,0,.118l-.154.065a.036.036,0,0,0-.022.036v.074a.31.31,0,0,1-.176.3c-.078.043-.165.036-.176-.01-.046-.253-.123-.278-.245-.327a.984.984,0,0,0,.308-.578.3.3,0,0,0-.235-.315.568.568,0,0,0-.322.026l-1.592.677a2.7,2.7,0,0,1,.84-.853l.188.127c.042.029.113,0,.157-.063l.21-.3a.938.938,0,0,1,1.027.33l-.144.4c-.025.069,0,.128.057.13l.277.011Q20.9,13.673,20.9,13.752Zm-1.591-1.044c.049-.069.126-.1.172-.069s.045.113,0,.183-.126.1-.172.069S19.263,12.777,19.312,12.707Zm1.427.6a.191.191,0,0,1,.161-.133c.062,0,.089.066.062.142a.191.191,0,0,1-.161.133C20.739,13.444,20.711,13.38,20.738,13.3Z" style="opacity:0.55"/><path d="M15.314,23.421l-.19-.195-.005-.057.163-.085a.046.046,0,0,0,.02-.052.112.112,0,0,0-.041-.065l-.208-.163-.016-.06.13-.127a.057.057,0,0,0,.007-.06.116.116,0,0,0-.05-.06l-.22-.126-.026-.06.092-.165a.07.07,0,0,0-.005-.065.111.111,0,0,0-.057-.052l-.223-.083-.035-.057.051-.2a.086.086,0,0,0-.017-.068.1.1,0,0,0-.061-.042l-.217-.038-.043-.053.008-.22a.1.1,0,0,0-.029-.068.087.087,0,0,0-.063-.031l-.2.01-.049-.047-.036-.234a.111.111,0,0,0-.039-.066.071.071,0,0,0-.063-.018l-.181.056-.054-.038-.078-.24a.115.115,0,0,0-.048-.061.057.057,0,0,0-.06-.005l-.152.1L13.26,20.6l-.117-.238a.113.113,0,0,0-.055-.054.046.046,0,0,0-.055.008l-.117.142-.055-.017-.152-.225a.1.1,0,0,0-.06-.044.04.04,0,0,0-.048.021l-.078.176-.054-.006-.181-.2a.089.089,0,0,0-.063-.033.038.038,0,0,0-.039.034l-.036.205-.049.006-.2-.175a.074.074,0,0,0-.063-.021.041.041,0,0,0-.029.045l.008.226-.043.018-.217-.14a.06.06,0,0,0-.061-.008.048.048,0,0,0-.017.054l.051.238-.035.028-.223-.1a.048.048,0,0,0-.057.006.059.059,0,0,0-.005.061l.092.24-.026.039-.22-.054a.041.041,0,0,0-.05.019.074.074,0,0,0,.007.066l.13.234-.016.047-.208-.007a.038.038,0,0,0-.041.032.089.089,0,0,0,.02.068l.163.219-.005.053-.19.04a.04.04,0,0,0-.031.043.1.1,0,0,0,.031.068l.19.195.005.057-.163.085a.046.046,0,0,0-.02.052.113.113,0,0,0,.041.065l.208.163.016.06-.13.127a.057.057,0,0,0-.007.06.116.116,0,0,0,.05.06l.22.126.026.06-.092.165a.071.071,0,0,0,.005.065.111.111,0,0,0,.057.052l.223.083.035.057-.051.2a.086.086,0,0,0,.017.068.1.1,0,0,0,.061.042l.217.038.043.053-.008.22a.1.1,0,0,0,.029.068.087.087,0,0,0,.063.031l.2-.009.049.047.036.234a.111.111,0,0,0,.039.066.071.071,0,0,0,.063.019l.18-.056.054.038.078.24a.115.115,0,0,0,.048.061.057.057,0,0,0,.06.005l.152-.1.055.028.117.238a.113.113,0,0,0,.055.054.047.047,0,0,0,.055-.008l.117-.142.055.017.152.225a.1.1,0,0,0,.06.044.04.04,0,0,0,.048-.021l.078-.176.054.006.181.2a.09.09,0,0,0,.063.033.038.038,0,0,0,.039-.034l.036-.2.049-.006.2.175a.074.074,0,0,0,.063.021.041.041,0,0,0,.029-.045l-.008-.226.043-.018.217.14a.059.059,0,0,0,.061.008.048.048,0,0,0,.017-.054l-.051-.238.035-.028.223.1a.048.048,0,0,0,.057-.006.059.059,0,0,0,.005-.061l-.092-.24.026-.039.22.054a.041.041,0,0,0,.05-.019.073.073,0,0,0-.007-.066l-.13-.234.016-.047.208.007a.038.038,0,0,0,.041-.032.089.089,0,0,0-.02-.068l-.163-.219.005-.053.19-.04a.04.04,0,0,0,.031-.043A.1.1,0,0,0,15.314,23.421Zm-1.269,1.054a.21.21,0,0,1-.1-.2c.015-.066.087-.083.159-.038a.21.21,0,0,1,.1.2C14.189,24.5,14.118,24.52,14.045,24.475Zm-.064-.462c-.066-.041-.131-.026-.145.035l-.067.287a1.619,1.619,0,0,1-.681-.132,2.516,2.516,0,0,1-.7-.438l-.067-.342a.2.2,0,0,0-.145-.153l-.277-.054q-.077-.111-.143-.228l1.35.552c.015.006.025.008.025-.006v-.477c0-.014-.01-.021-.025-.027l-.395-.161v-.3l.427.175a.459.459,0,0,1,.263.335c.017.074.054.305.08.385a.608.608,0,0,0,.239.331l.672.275.024.008a.9.9,0,0,1-.153.117Zm-1.867-.334a.224.224,0,0,1-.159-.168c-.015-.079.031-.132.1-.118a.225.225,0,0,1,.159.168C12.233,23.64,12.187,23.693,12.114,23.679ZM11.6,21.393c.03.08,0,.147-.068.149a.209.209,0,0,1-.177-.141c-.03-.08,0-.147.068-.149A.209.209,0,0,1,11.6,21.393Zm-.157.309.289-.01c.062,0,.09-.063.062-.136l-.06-.159.234.1v1.055l-.472-.193a1.944,1.944,0,0,1-.063-.479A1.565,1.565,0,0,1,11.445,21.7Zm1.268.416v-.311l.557.228c.029.012.2.116.2.247,0,.108-.134.092-.244.047l-.517-.211Zm2.025,1.108q0,.062,0,.121l-.169-.069c-.017-.007-.024,0-.024.018v.078c0,.183-.1.181-.194.154a.311.311,0,0,1-.194-.168.953.953,0,0,0-.269-.563c.166-.038.339-.122.339-.331a.862.862,0,0,0-.259-.542,1.183,1.183,0,0,0-.355-.262l-1.752-.717a1.144,1.144,0,0,1,.924-.144l.207.3c.047.068.124.1.173.075l.231-.127a2.951,2.951,0,0,1,1.13,1.267l-.158.293a.169.169,0,0,0,.062.187l.3.26Q14.738,23.143,14.738,23.226ZM12.987,20.7c.054-.029.138.007.19.082s.049.159,0,.188-.138-.007-.19-.082S12.934,20.732,12.987,20.7Zm1.57,1.905c.03-.056.109-.054.177,0a.185.185,0,0,1,.068.205c-.03.056-.109.054-.177,0A.185.185,0,0,1,14.557,22.608Z" style="opacity:0.56"/><path d="M27.838,18.724l-.172-.039,0-.051.148-.208a.087.087,0,0,0,.018-.065.035.035,0,0,0-.037-.03l-.189.006-.015-.045.118-.222a.073.073,0,0,0,.007-.063.037.037,0,0,0-.045-.018l-.2.051L27.441,18l.084-.229a.058.058,0,0,0,0-.058.042.042,0,0,0-.051-.006l-.2.094-.032-.027.047-.227a.047.047,0,0,0-.016-.052.052.052,0,0,0-.056.007l-.2.133-.039-.017.007-.215a.039.039,0,0,0-.026-.043.065.065,0,0,0-.058.02l-.184.166-.045-.006-.033-.2a.036.036,0,0,0-.036-.032.08.08,0,0,0-.057.031l-.164.194-.049.005-.071-.168a.036.036,0,0,0-.044-.021.094.094,0,0,0-.055.042l-.138.214-.05.016-.107-.135a.041.041,0,0,0-.05-.008.1.1,0,0,0-.05.051l-.107.226-.05.026-.138-.1a.05.05,0,0,0-.055,0,.109.109,0,0,0-.044.058l-.071.228-.049.036-.164-.054a.062.062,0,0,0-.057.017.107.107,0,0,0-.036.063l-.033.223-.045.044-.184-.01a.077.077,0,0,0-.058.029.1.1,0,0,0-.026.065l.007.209-.039.05-.2.035a.092.092,0,0,0-.056.04.085.085,0,0,0-.016.065l.046.187-.032.054-.2.079a.1.1,0,0,0-.051.049.07.07,0,0,0,0,.062l.084.157-.024.057-.2.119a.109.109,0,0,0-.045.057.056.056,0,0,0,.007.057l.118.122-.015.058-.189.155a.107.107,0,0,0-.037.062.045.045,0,0,0,.018.05l.148.082,0,.055-.172.185a.1.1,0,0,0-.028.065.038.038,0,0,0,.028.041l.172.039,0,.051-.148.208a.088.088,0,0,0-.018.065.035.035,0,0,0,.037.03l.189-.006.015.045-.118.222a.073.073,0,0,0-.007.063.037.037,0,0,0,.045.018l.2-.051.024.037L24.1,21.5a.058.058,0,0,0,0,.058.042.042,0,0,0,.051.006l.2-.094.032.027-.046.227a.047.047,0,0,0,.016.051.052.052,0,0,0,.056-.007l.2-.133.039.017-.007.215a.039.039,0,0,0,.026.043.065.065,0,0,0,.058-.02l.184-.166.045.006.033.2a.035.035,0,0,0,.036.032.08.08,0,0,0,.057-.031l.164-.194.049-.005.071.168a.036.036,0,0,0,.044.02.093.093,0,0,0,.055-.042l.138-.214.05-.016.107.135a.041.041,0,0,0,.05.008.1.1,0,0,0,.05-.051l.107-.226.05-.027.138.1a.05.05,0,0,0,.055,0,.109.109,0,0,0,.044-.058l.071-.228.049-.036.164.054a.063.063,0,0,0,.057-.017.107.107,0,0,0,.036-.063L26.667,21l.045-.044.184.01a.077.077,0,0,0,.058-.029.1.1,0,0,0,.026-.065l-.007-.209.039-.05.2-.035a.091.091,0,0,0,.056-.04.085.085,0,0,0,.016-.065l-.046-.187.032-.054.2-.079a.1.1,0,0,0,.051-.049.07.07,0,0,0,0-.062l-.084-.157.024-.057.2-.119a.108.108,0,0,0,.045-.057A.056.056,0,0,0,27.7,19.6l-.118-.122.015-.058.189-.155a.107.107,0,0,0,.037-.062.045.045,0,0,0-.018-.05l-.148-.082,0-.055.172-.185a.1.1,0,0,0,.028-.065A.038.038,0,0,0,27.838,18.724Zm-1.153,1.988c-.066.013-.108-.037-.094-.112a.208.208,0,0,1,.145-.16c.066-.013.108.037.094.112A.209.209,0,0,1,26.684,20.713Zm-.059-.39a.19.19,0,0,0-.132.146l-.061.325a2.252,2.252,0,0,1-.619.4,1.4,1.4,0,0,1-.632.123l-.061-.273c-.013-.057-.072-.072-.132-.033l-.252.164a.825.825,0,0,1-.13-.106l1.226-.521c.014-.006.023-.012.023-.026v-.455c0-.013-.009-.012-.023-.006l-.359.152v-.288l.388-.165a.161.161,0,0,1,.239.115c.015.057.049.249.072.3s.117.172.217.13l.611-.26.022-.012c-.042.078-.089.155-.139.23Zm-1.7,1.13c-.066.043-.131.026-.145-.037a.2.2,0,0,1,.094-.192c.066-.043.131-.026.145.037A.2.2,0,0,1,24.93,21.452Zm-.465-1.779a.18.18,0,0,1-.062.2c-.062.055-.134.056-.161,0a.18.18,0,0,1,.062-.2C24.365,19.622,24.437,19.62,24.465,19.673Zm-.143.416.263-.234a.164.164,0,0,0,.057-.178l-.054-.105.213-.09v1l-.429.182a1.386,1.386,0,0,1-.057-.407C24.313,20.2,24.316,20.147,24.322,20.089Zm1.152-.587v-.3l.506-.215c.026-.011.185-.047.185.077,0,.1-.122.192-.222.234l-.47.2Zm1.84-.516q0,.059,0,.118l-.154.065a.036.036,0,0,0-.022.036v.074a.31.31,0,0,1-.176.3c-.078.043-.165.036-.176-.01-.046-.253-.123-.278-.245-.327a.984.984,0,0,0,.308-.578.3.3,0,0,0-.235-.315.568.568,0,0,0-.322.026L24.7,19.05a2.7,2.7,0,0,1,.84-.853l.188.127c.042.029.113,0,.157-.063l.21-.3a.938.938,0,0,1,1.027.33l-.144.4c-.025.069,0,.128.057.13l.277.011Q27.314,18.907,27.314,18.986Zm-1.591-1.044c.049-.069.126-.1.172-.069s.045.113,0,.183-.126.1-.172.069S25.674,18.011,25.723,17.941Zm1.427.6a.191.191,0,0,1,.161-.133c.062,0,.089.066.062.142a.191.191,0,0,1-.161.133C27.15,18.678,27.122,18.614,27.15,18.538Z" style="opacity:0.55"/><use width="45.72" height="26.28" transform="matrix(0, -0.029, 0.022, 0.013, 4.314, 16.786)" xlink:href="#a"/><use width="45.72" height="26.28" transform="matrix(0, -0.029, 0.022, 0.013, 8.876, 18.632)" xlink:href="#a"/><use width="45.72" height="26.28" transform="matrix(0, -0.029, 0.022, 0.013, 10.451, 11.138)" xlink:href="#a"/><use width="45.72" height="26.28" transform="matrix(0, -0.029, 0.022, 0.013, 15.013, 12.984)" xlink:href="#a"/><use width="45.72" height="26.28" transform="matrix(0, -0.029, 0.02, -0.012, 16.773, 21.54)" xlink:href="#a"/><use width="45.72" height="26.28" transform="matrix(0, -0.029, 0.02, -0.012, 21.389, 19.694)" xlink:href="#a"/><use width="45.72" height="26.28" transform="matrix(0, -0.029, 0.02, -0.012, 23.072, 11.167)" xlink:href="#a"/><use width="45.72" height="26.28" transform="matrix(0, -0.029, 0.02, -0.012, 27.689, 9.321)" xlink:href="#a"/></svg>