<svg xmlns="http://www.w3.org/2000/svg" viewBox="0 0 32 32"><title>file_type_cvs</title><path d="M21.74,12.734A7.637,7.637,0,0,1,27.134,8.4a8.15,8.15,0,0,1,2.747-.129,5.828,5.828,0,0,1,.071,1.917c-.5,3.81-4.748,5.758-5.305,6,.971.562,4.273,2.624,4.631,5.995a5.706,5.706,0,0,1,.007,1.125,4.935,4.935,0,0,1-.817.228c-3.167.6-6.026-2.119-6.862-2.971a15.222,15.222,0,0,1-5.56,2.741c-5.77,1.475-10.947-.913-10.9-1.227.015-.1.55-.014,1.715-.339a5.831,5.831,0,0,0,1.468-.595,2.463,2.463,0,0,0,1.124-1.1,1.792,1.792,0,0,0,.123-.458,7.269,7.269,0,0,1-2.9,1.265,8.863,8.863,0,0,1-1.421.124,2.524,2.524,0,0,1-.856-.076,2.412,2.412,0,0,1-.517-.221,3.607,3.607,0,0,1-.837-.635,3.4,3.4,0,0,1-.883-1.356,3.146,3.146,0,0,1-.085-1.689,8.769,8.769,0,0,1,.451-1.458,9.036,9.036,0,0,1,2.11-3.089A10.418,10.418,0,0,1,8.026,9.991a10.6,10.6,0,0,1,4.493-.924,12.616,12.616,0,0,1,5.094,1.123A15.087,15.087,0,0,1,21.74,12.734Z" style="fill:#f90"/><circle cx="6.903" cy="15.055" r="1.907" style="fill:#099"/><path d="M7.281,15.794a.948.948,0,0,1-.926-1.229,1.019,1.019,0,0,1,.206-.379.3.3,0,0,1,.488.07l.03.064a.238.238,0,0,1-.041.263.4.4,0,0,0-.088.157.342.342,0,0,0,.03.277.37.37,0,0,0,.366.15.24.24,0,0,1,.244.11l.038.062a.3.3,0,0,1-.206.446A1.02,1.02,0,0,1,7.281,15.794Z" style="fill:#67cbca"/></svg>