<svg xmlns="http://www.w3.org/2000/svg" viewBox="0 0 32 32"><title>file_type_playwright</title><path d="M15.735,12.971a2.667,2.667,0,0,1,1.732,1.538l1.068.3A3.021,3.021,0,0,0,16.508,12.2a2.78,2.78,0,0,0-2.975,1.169,2.5,2.5,0,0,1,2.2-.4Zm8.5,1.548a2.776,2.776,0,0,0-2.974,1.167,2.494,2.494,0,0,1,2.2-.395A2.671,2.671,0,0,1,25.2,16.829l1.07.3a3.027,3.027,0,0,0-2.028-2.615ZM23.176,20l-8.885-2.484a4,4,0,0,0,.465,1.119l7.481,2.091A3.988,3.988,0,0,0,23.176,20Zm-6.16,5.346c-7.035-1.886-6.185-10.85-5.046-15.1a25.458,25.458,0,0,1,1.35-3.924c-.238-.049-.436.077-.631.473A23.877,23.877,0,0,0,11.2,11.025c-1.138,4.247-1.989,13.211,5.046,15.1,3.316.888,5.9-.462,7.825-2.582a7.23,7.23,0,0,1-7.052,1.81Z" style="fill:#2d4552"/><path d="M13.129,20.608V18.8L8.1,20.224a4,4,0,0,1,2.992-2.9,4.349,4.349,0,0,1,2.033-.116V9.788h2.516a15.072,15.072,0,0,0-.762-1.951c-.368-.75-.746-.253-1.6.464a11.939,11.939,0,0,1-4.425,2.2,11.877,11.877,0,0,1-4.926.321c-1.1-.189-1.672-.43-1.618.4a18.314,18.314,0,0,0,.624,3.387c.869,3.266,3.743,9.559,9.173,8.1a5.455,5.455,0,0,0,3.114-2.1H13.129Zm-8.11-5.952L8.878,13.64a2.166,2.166,0,0,1-1.559,1.866A2.215,2.215,0,0,1,5.019,14.656Z" style="fill:#e2574c"/><path d="M27.653,9.874a15.366,15.366,0,0,1-6.384-.4,15.358,15.358,0,0,1-5.731-2.845c-1.109-.929-1.6-1.574-2.076-.6a23.9,23.9,0,0,0-1.492,4.224c-1.138,4.247-1.988,13.211,5.046,15.1s10.778-6.3,11.916-10.552a23.977,23.977,0,0,0,.819-4.4c.072-1.085-.673-.77-2.1-.52ZM13.519,13.388a2.8,2.8,0,0,1,2.989-1.19,3.021,3.021,0,0,1,2.027,2.614Zm4.59,7.737a5.163,5.163,0,0,1-3.817-3.606L23.176,20a4.887,4.887,0,0,1-5.067,1.122Zm3.141-5.42a2.8,2.8,0,0,1,2.987-1.187,3.027,3.027,0,0,1,2.028,2.615L21.25,15.705Z" style="fill:#2ead33"/><path d="M11.373,19.3,8.1,20.224A3.97,3.97,0,0,1,10.867,17.4L9.015,10.451l-.16.049a11.876,11.876,0,0,1-4.926.321c-1.1-.189-1.672-.43-1.618.4a18.315,18.315,0,0,0,.624,3.387c.869,3.266,3.743,9.559,9.173,8.1l.16-.05ZM5.019,14.656,8.878,13.64a2.166,2.166,0,0,1-1.559,1.866A2.215,2.215,0,0,1,5.019,14.656Z" style="fill:#d65348"/><path d="M18.258,21.162l-.15-.036a5.163,5.163,0,0,1-3.817-3.606L18.872,18.8,21.3,9.479l-.029-.008a15.359,15.359,0,0,1-5.731-2.845c-1.109-.929-1.6-1.574-2.076-.6a23.937,23.937,0,0,0-1.492,4.224c-1.138,4.247-1.988,13.211,5.046,15.1l.144.032Zm-4.739-7.773a2.8,2.8,0,0,1,2.989-1.19,3.021,3.021,0,0,1,2.027,2.614ZM.094-.542" style="fill:#1d8d22"/></svg>