<svg xmlns="http://www.w3.org/2000/svg" viewBox="0 0 32 32"><title>file_type_nunjucks</title><path d="M2,2H30V30H2V2M5.609,5.434q0,10.126,0,20.253H9.088q0-4.407,0-8.815,1.268,4.408,2.536,8.815,1.737,0,3.474,0,0-10.126,0-20.253c-1.168,0-2.336,0-3.5,0,0,2.759,0,5.518,0,8.278Q10.332,9.572,9.059,5.434q-1.725,0-3.45,0m17.255,4.8q0,5.97,0,11.94H20.336c0-1.225,0-2.45,0-3.675-1.17.274-2.342.542-3.513.814q0,1.844,0,3.688a4.19,4.19,0,0,0,.077,1.1,2.187,2.187,0,0,0,.863,1.219,2.077,2.077,0,0,0,1.193.371q2.381,0,4.763,0a4.058,4.058,0,0,0,1.08-.08,2.216,2.216,0,0,0,1.247-.931,2.136,2.136,0,0,0,.336-1.209q0-6.617,0-13.234Z" style="fill:#1c4913"/><path d="M5.609,5.434q1.725,0,3.45,0,1.271,4.139,2.538,8.279c-.007-2.759,0-5.518,0-8.278,1.168,0,2.336,0,3.5,0q0,10.126,0,20.253-1.737,0-3.474,0-1.27-4.407-2.536-8.815,0,4.408,0,8.815H5.609Q5.609,15.561,5.609,5.434Z" style="fill:#fefffc"/><path d="M22.865,10.233h3.514q0,6.617,0,13.234a2.136,2.136,0,0,1-.336,1.209,2.216,2.216,0,0,1-1.247.931,4.058,4.058,0,0,1-1.08.08q-2.382,0-4.763,0a2.077,2.077,0,0,1-1.193-.371A2.187,2.187,0,0,1,16.9,24.1a4.19,4.19,0,0,1-.077-1.1q0-1.844,0-3.688c1.171-.273,2.343-.541,3.513-.814,0,1.225,0,2.45,0,3.675h2.529Q22.865,16.2,22.865,10.233Z" style="fill:#fefffc"/></svg>