<svg xmlns="http://www.w3.org/2000/svg" xmlns:xlink="http://www.w3.org/1999/xlink" viewBox="0 0 32 32"><defs><radialGradient id="a" cx="-2.176" cy="-818.913" r="48.27" gradientTransform="matrix(0.36, 0.402, 0.222, -0.163, 197.796, -86.468)" gradientUnits="userSpaceOnUse"><stop offset="0" stop-color="#7ce1ff"/><stop offset="0.3" stop-color="#7ce1ff" stop-opacity="0"/></radialGradient><radialGradient id="b" cx="4199.973" cy="-1187.763" r="83.239" gradientTransform="matrix(0.031, 0.03, 0.075, -0.062, -28.337, -144.76)" gradientUnits="userSpaceOnUse"><stop offset="0" stop-color="#7ce1ff"/><stop offset="1" stop-color="#7ce1ff" stop-opacity="0"/></radialGradient><radialGradient id="c" cx="-264.938" cy="-509.943" r="27.886" gradientTransform="matrix(-1.048, -0.5, -1.117, 0.527, -829.648, 192.721)" gradientUnits="userSpaceOnUse"><stop offset="0" stop-color="#7ce1ff" stop-opacity="0.8"/><stop offset="0.15" stop-color="#7ce1ff" stop-opacity="0"/></radialGradient></defs><title>file_type_paket</title><path d="M2,9.033,16,2.077,30,9.033v.919L16,16.908,2,9.974Z" style="fill:#0a6ec9"/><path d="M2,9.033l14,6.956L30,9.033V22.967L15.956,29.923,2,22.967Z" style="fill:#0568c1"/><path d="M16,29.9V15.989L2.087,9.077H2V22.967l13.956,6.956Z" style="fill:#0663b4"/><path d="M7.709,6.211l13.978,6.956,2.844-1.4L10.509,4.811Z" style="fill:#add4f7"/><path d="M21.687,13.167l2.844-1.4v4.375l-.766-.131L22.956,17l-1.269-.087Z" style="fill:#99c7f2"/><path d="M13.112,21.545,8.387,19.183c-.262-.131-.481.022-.481.35V22.7a1,1,0,0,0,.481.831L13.134,25.9c.262.131.481-.022.481-.35V22.355A1.039,1.039,0,0,0,13.112,21.545Zm-1.072,2.6L9.022,22.639a.526.526,0,0,1-.241-.438c0-.175.109-.262.241-.2l3.019,1.509a.526.526,0,0,1,.241.438C12.281,24.127,12.172,24.214,12.041,24.148Zm.438-1.094L9.022,21.3a.526.526,0,0,1-.241-.438c0-.175.109-.262.241-.2l3.456,1.75a.526.526,0,0,1,.241.438C12.719,23.055,12.609,23.12,12.478,23.055Z" style="fill:#f2f2f2"/><path d="M18.558,49.816c.061-.183-7-7.561-7-7.561" style="fill:none;stroke-linecap:round;stroke-width:76.7170028686524px;stroke:url(#a)"/><path d="M8.558,56.835s9.942-6.825,10-7" style="fill:#2aa7c9;stroke-linecap:round;stroke-width:76.7170028686524px;stroke:url(#b)"/><path d="M8.73,57.121H9.854" style="fill:none;stroke-linecap:round;stroke-width:100px;stroke:url(#c)"/></svg>