<svg xmlns="http://www.w3.org/2000/svg" viewBox="0 0 32 32"><title>file_type_image</title><path d="M30,5.851Q30,16,30,26.149H2Q2,16,2,5.851H30" style="fill:#2dcc9f"/><path d="M24.232,8.541a2.2,2.2,0,1,0,1.127.623,2.212,2.212,0,0,0-1.127-.623" style="fill:#fff"/><path d="M18.111,20.1q-2.724-3.788-5.45-7.575Q8.619,18.147,4.579,23.766q5.449,0,10.9,0,1.316-1.832,2.634-3.663" style="fill:#fff"/><path d="M22.057,16q-2.793,3.882-5.584,7.765,5.584,0,11.169,0Q24.851,19.882,22.057,16Z" style="fill:#fff"/></svg>