<svg version="1.1" viewBox="0 0 32 32" xmlns="http://www.w3.org/2000/svg"><defs><clipPath id="a" _ngcontent-ng-c1846892879=""><path d="m0 0h223v236h-223z" fill="#fff" _ngcontent-ng-c1846892879=""/></clipPath><linearGradient id="b" x1="49.009" x2="225.83" y1="213.75" y2="129.72" _ngcontent-ng-c1846892879="" gradientUnits="userSpaceOnUse"><stop stop-color="#E40035" _ngcontent-ng-c1846892879="" offset="0"/><stop stop-color="#F60A48" _ngcontent-ng-c1846892879="" offset=".24"/><stop stop-color="#F20755" _ngcontent-ng-c1846892879="" offset=".352"/><stop stop-color="#DC087D" _ngcontent-ng-c1846892879="" offset=".494"/><stop stop-color="#9717E7" _ngcontent-ng-c1846892879="" offset=".745"/><stop stop-color="#6C00F5" _ngcontent-ng-c1846892879="" offset="1"/></linearGradient><linearGradient id="c" x1="41.025" x2="156.74" y1="28.344" y2="160.34" _ngcontent-ng-c1846892879="" gradientUnits="userSpaceOnUse"><stop stop-color="#FF31D9" _ngcontent-ng-c1846892879="" offset="0"/><stop stop-color="#FF5BE1" stop-opacity="0" _ngcontent-ng-c1846892879="" offset="1"/></linearGradient></defs><g transform="matrix(.11923 0 0 .11923 2.7608 1.986)" clip-path="url(#a)" _ngcontent-ng-c1846892879=""><path d="m222.08 39.192-8.019 125.92-76.671-165.12zm-53.105 162.82-57.933 33.056-57.934-33.056 11.783-28.556h92.301zm-57.933-139.34 30.357 73.803h-60.715zm-103.1 102.44-7.937-125.92 84.69-39.192z" fill="url(#b)" _ngcontent-ng-c1846892879=""/><path d="m222.08 39.192-8.019 125.92-76.671-165.12zm-53.105 162.82-57.933 33.056-57.934-33.056 11.783-28.556h92.301zm-57.933-139.34 30.357 73.803h-60.715zm-103.1 102.44-7.937-125.92 84.69-39.192z" fill="url(#c)" _ngcontent-ng-c1846892879=""/></g></svg>
