<svg xmlns="http://www.w3.org/2000/svg" viewBox="0 0 32 32"><title>file_type_nyc</title><rect x="2" y="2" width="28" height="28" style="fill:#f8de0f"/><path d="M27.837,8.715c.042.2.067.412.11.617.189.677.206,1.4.393,2.076.07.344.113.693.178,1.037.022.124.257.117.2.267l-.1.1c-.525-.036-1.051-.024-1.576-.009-.073-.109-.087-.3.1-.287.025-.146.049-.293.082-.438.187-.679.2-1.4.393-2.076C27.694,9.573,27.742,9.139,27.837,8.715Z"/><path d="M3.945,8.814c.043.09.076.184.113.277.1.6.2,1.2.3,1.806.142.536.2,1.088.3,1.634l.155-.007c.016.077.03.154.044.232a13.475,13.475,0,0,1-1.7.051l-.058-.161a1.14,1.14,0,0,0,.239-.327c.091-.6.193-1.189.292-1.783C3.771,9.97,3.82,9.385,3.945,8.814Z"/><path d="M27.078,12.834c.486-.024.974-.02,1.461,0v3.2c.126.018.287-.043.39.043a1,1,0,0,1-.265.875c-.009,2.468,0,4.935,0,7.4.093.032.185.068.276.106q0,.118,0,.237c-.072.041-.143.083-.214.124.105.917.192,1.835.287,2.753a1.031,1.031,0,0,0,.063.332c.051.413.083.827.132,1.24-.92.014-1.841,0-2.762.006a.524.524,0,0,0-.1-.217l-.022.217q-11.9,0-23.8,0a1.108,1.108,0,0,1,.065-.4c.118-1.052.214-2.106.331-3.158a4.664,4.664,0,0,0,.111-.783l-.2-.048a.457.457,0,0,1,0-.351l.23-.047q0-3.662,0-7.324c.007-.215-.229-.337-.265-.542a4.014,4.014,0,0,1-.011-.453c.132-.009.265-.013.4-.017,0-1.043,0-2.085,0-3.127.5-.006,1,0,1.493,0v3.132c.133,0,.266,0,.4.018,0,.107,0,.214,0,.321.009.27-.277.453-.245.727,0,2.415,0,4.831,0,7.247a.481.481,0,0,1,.262.229l-.079.193-.157.04c.076.791.152,1.583.25,2.371l.24-.006V24.8H6.17V20.141c0-.179-.144-.315-.178-.485-.009-.108-.007-.218-.007-.326.1-.007.205-.013.307-.018,0-.7,0-1.4,0-2.095a1.3,1.3,0,0,0-.111-.415l.164-.04c.106-.528.155-1.068.3-1.588.06-.375.128-.749.18-1.125l.071.083a1.324,1.324,0,0,0,.082.379c.141.665.191,1.352.364,2.008.015.071.029.142.044.214l.139.124a.315.315,0,0,1-.136.161c0,.765,0,1.529,0,2.294.092,0,.185.012.278.019a1.069,1.069,0,0,1-.173.685c-.028,1.05-.009,2.1-.009,3.154.471.009.942,0,1.413.006a3.494,3.494,0,0,1,.04-.422c.163,0,.327,0,.491,0V21.42l-.181-.012a.342.342,0,0,1,.178-.134,13.993,13.993,0,0,0,.033-1.5c.342,0,.684,0,1.025,0,.018-.069-.01-.16.055-.209.113-.01.226-.005.339-.006a5.5,5.5,0,0,1,2.723-2.6,4.191,4.191,0,0,1,.933-.344,5.736,5.736,0,0,1,1.286-.221c0-.127,0-.254,0-.38a2.019,2.019,0,0,0,.245-.418c-.15-.221.122-.457,0-.694.031-.126.068-.251.11-.374.007.094.014.187.021.281.071.071.035.158.01.237.024.081.041.164.059.247a.236.236,0,0,1-.013.281c.087.274.35.5.241.817a8.277,8.277,0,0,1,1.122.171,7.6,7.6,0,0,1,1.1.389,5.567,5.567,0,0,1,2.239,1.826,7.118,7.118,0,0,1,.494.785c.108,0,.216,0,.324,0,.061.051.035.14.053.209h1.013c.026.506.005,1.014.012,1.521l.152,0v.119l-.153,0c0,.446.008.891-.005,1.337.176,0,.352,0,.528,0a3.738,3.738,0,0,1,.04.421c.277,0,.554,0,.831,0q.021-1.574,0-3.15a1.124,1.124,0,0,1-.178-.7c.1-.007.205-.012.308-.016,0-.7,0-1.4,0-2.1.02-.122-.07-.209-.133-.3l.191-.137c.062-.474.144-.947.231-1.416.13-.445.152-.915.259-1.367.027.212.061.424.107.633.148.587.207,1.194.318,1.79.035.161.03.383.218.449-.009.088.012.2-.093.231-.007.74,0,1.48,0,2.221h.275a1.013,1.013,0,0,1-.052.472.9.9,0,0,0-.131.345q0,2.33,0,4.661c.264,0,.528,0,.792.012,0,.789.006,1.578-.006,2.367l.3-.016c.064-.782.137-1.566.257-2.34-.159-.015-.236-.156-.272-.3a1.776,1.776,0,0,1,.294-.181c0-2.436,0-4.873,0-7.308.013-.158-.136-.257-.192-.393a1.1,1.1,0,0,1-.083-.608c.142,0,.284,0,.427-.013q0-1.593,0-3.186M18.016,20.22c-.021.317,0,.636-.007.954h.639c-.006-.321.012-.642-.007-.962a.357.357,0,0,0-.271-.3.414.414,0,0,0-.354.3M10,19.974c-.2.113-.14.371-.149.561a3.263,3.263,0,0,1,.55-.033,1.453,1.453,0,0,0-.03-.433c-.093-.093-.247-.206-.371-.094m.713-.017c-.243.1-.184.4-.195.611a.868.868,0,0,1,.413.607l.17,0c-.007-.335.011-.67-.006-1-.06-.135-.224-.324-.382-.211m.605.013a.672.672,0,0,0-.1.289c0,.3,0,.61,0,.915H11.8c0-.341,0-.684,0-1.025a.357.357,0,0,0-.486-.179m.614.223c-.023.326,0,.654-.009.981h.609c-.005-.325.01-.65-.005-.975a.618.618,0,0,0-.294-.3c-.125.06-.291.13-.3.292m.721.063c0,.306,0,.612,0,.918h.609c0-.337,0-.674,0-1.01-.093-.106-.191-.263-.354-.239a.309.309,0,0,0-.254.332m.727-.109c.006.342,0,.685,0,1.027h.64c0-.284,0-.567,0-.85a.429.429,0,0,0-.215-.373c-.173-.086-.342.054-.427.2m.79-.063a4.848,4.848,0,0,0-.051,1.088h.663c-.007-.327.014-.655-.009-.981a.333.333,0,0,0-.6-.109m.805-.071a3.928,3.928,0,0,0-.071,1.161h.64c0-.323,0-.645,0-.967,0-.084-.057-.147-.095-.215l-.242-.074c-.077.033-.153.065-.23.1m.7.224c-.019.311,0,.624-.007.936h.7a4.476,4.476,0,0,0-.058-1.091.352.352,0,0,0-.635.155m.8-.052a9.736,9.736,0,0,0-.019.989c.223,0,.445,0,.668,0,0-.323.007-.645,0-.968-.011-.175-.191-.261-.338-.3-.123.067-.293.115-.311.279m.779-.016c-.019.334.006.67-.013,1h.646c-.007-.337.013-.674-.007-1.01-.024-.166-.189-.208-.318-.265-.11.076-.261.136-.308.27m1.546.087c0,.306,0,.612,0,.918h.578c0-.306,0-.611,0-.915A.317.317,0,0,0,19,19.929a.34.34,0,0,0-.2.327m.795-.248a4.381,4.381,0,0,0-.065,1.166h.579c-.011-.329.019-.659-.013-.986a.3.3,0,0,0-.5-.179m.659.183a3.7,3.7,0,0,0-.013.984h.568c-.006-.308.01-.616,0-.923a.357.357,0,0,0-.222-.327.3.3,0,0,0-.33.267m.673-.046c.006.343,0,.685,0,1.029h.418a1.624,1.624,0,0,0,.164-.669c0-.2,0-.489-.228-.561-.16-.074-.268.1-.357.2m.827-.153c-.217.152-.146.447-.153.671a.817.817,0,0,1,.568-.167.9.9,0,0,0-.03-.41c-.066-.136-.272-.233-.385-.094M11.087,21.416l-.17,0c0,.446,0,.892,0,1.338h.212c-.006-.5.013-.995-.012-1.491l-.032.151m10.087,0v1.339h.183V21.417h-.183m-11.012.821a3.069,3.069,0,0,0-.026.85l.073.1a2.581,2.581,0,0,0,0-.959l-.051,0m11.869,0c-.008.3-.012.591,0,.886l.112.039c0-.308.01-.616,0-.923h-.112M11.5,22.757v5.9h.183q0-2.952,0-5.9H11.5m9.133.179c0,1.869,0,3.739,0,5.607-.008.083.034.13.127.141.024-1.448,0-2.9.01-4.345-.043-.536.045-1.076-.025-1.611a.189.189,0,0,0-.113.209M15.6,24.341c0,.466,0,.932,0,1.4.314,0,.628,0,.943,0,0-.491.01-.982-.005-1.473-.047-.22-.227-.487-.484-.447a.493.493,0,0,0-.454.522m-1.027.441c-.019.318,0,.639-.007.957h.655c.011-.285.017-.57,0-.855-.018-.127-.033-.281-.155-.354a.324.324,0,0,0-.5.251m-4.451-.262c0,.163,0,.326.013.488l.111-.073c0-.136,0-.273,0-.408l-.122-.007m6.934.019a1.828,1.828,0,0,0-.114.195,6.065,6.065,0,0,0-.031,1c.22,0,.441,0,.661,0,.008-.288.015-.576,0-.864a.633.633,0,0,0-.184-.39.679.679,0,0,0-.335.058m4.967-.017v.456h.122v-.457h-.122m-11.9,1.745c0,.165,0,.33,0,.5l.122-.056c-.03-.144.079-.4-.124-.439m11.9.02c0,.147,0,.3,0,.443l.114.043c.007-.162.009-.324.009-.486h-.123m-9.793.508c-.02.337,0,.676-.007,1.014h.609c0-.326.006-.651,0-.977.01-.122-.1-.2-.169-.281-.181-.015-.392.037-.43.243m1.181.04c-.008.325,0,.649,0,.975h.639c-.006-.338.012-.676-.007-1.013-.049-.214-.285-.249-.47-.244-.066.085-.171.162-.161.283m1.136.01c.037.32.011.643.018.965h.654a6.893,6.893,0,0,0-.007-.958.31.31,0,0,0-.379-.29c-.158.012-.233.156-.286.284m1.2-.063c0,.343,0,.685,0,1.028H16.4c0-.306,0-.611,0-.916a.7.7,0,0,0-.1-.29,2.8,2.8,0,0,0-.348-.05q-.1.113-.2.228m1.3-.168a.541.541,0,0,0-.145.334c0,.286,0,.573,0,.859.221,0,.441.005.662,0,0-.3.015-.609,0-.913a.586.586,0,0,0-.185-.338c-.11.017-.239-.01-.333.061m1.075.215c-.009.327,0,.654,0,.981h.609c-.007-.338.013-.676-.007-1.013-.037-.205-.247-.261-.427-.244-.069.082-.181.154-.172.276m1.164,0c-.023.325-.008.651,0,.977q.328.013.657,0a8.084,8.084,0,0,0-.016-1.066l-.212-.181A.343.343,0,0,0,19.3,26.826Z"/></svg>