<svg xmlns="http://www.w3.org/2000/svg" viewBox="0 0 32 32"><title>file_type_yang</title><path d="M8.877,23.159c0-5.535,3.992-7.168,7.894-7.168,3.357,0,5.988-3.811,5.988-6.624,0-3.621-2.487-5.831-4.882-7.12A13.881,13.881,0,1,0,14.5,29.8C10.491,28.248,8.877,25.324,8.877,23.159Z" style="fill:#fff"/><path d="M14.482,29.917A14,14,0,0,1,16,2a14.154,14.154,0,0,1,1.893.131l.04.013c2.255,1.213,4.944,3.452,4.944,7.223,0,2.715-2.564,6.741-6.106,6.741-2.9,0-7.776.916-7.776,7.05,0,2.022,1.451,4.946,5.542,6.531ZM16,2.236A13.765,13.765,0,0,0,13.637,29.56c-3.581-1.684-4.877-4.447-4.877-6.4,0-6.576,5.6-7.286,8.012-7.286,3.406,0,5.87-3.886,5.87-6.506,0-3.645-2.606-5.82-4.8-7.006A13.928,13.928,0,0,0,16,2.236Z" style="fill:#231f20"/><path d="M29.882,16a13.882,13.882,0,0,0-12-13.752c2.4,1.289,4.882,3.5,4.882,7.12,0,2.813-2.631,6.624-5.988,6.624-3.9,0-7.894,1.633-7.894,7.168,0,2.166,1.613,5.089,5.618,6.641A13.875,13.875,0,0,0,29.882,16Z" style="fill:#231f20"/><path d="M16,30a14.2,14.2,0,0,1-1.518-.083l-.03-.007c-4.2-1.628-5.693-4.654-5.693-6.75,0-6.576,5.6-7.286,8.012-7.286,3.406,0,5.87-3.886,5.87-6.506,0-3.655-2.621-5.833-4.82-7.016l.072-.221A14,14,0,0,1,16,30Zm-1.477-.316A13.756,13.756,0,0,0,29.764,16,13.807,13.807,0,0,0,18.5,2.466c2.115,1.272,4.377,3.441,4.377,6.9,0,2.715-2.564,6.741-6.106,6.741-2.9,0-7.776.916-7.776,7.05C9,25.178,10.443,28.1,14.523,29.684Z" style="fill:#231f20"/><circle cx="15.943" cy="22.787" r="1.506" style="fill:#fff"/><circle cx="16.007" cy="9.142" r="1.506" style="fill:#231f20"/></svg>