<svg xmlns="http://www.w3.org/2000/svg" xmlns:xlink="http://www.w3.org/1999/xlink" viewBox="0 0 32 32"><defs><radialGradient id="a" cx="1341.25" cy="-3396.866" r="18.299" gradientTransform="translate(-1327.077 3405.935)" gradientUnits="userSpaceOnUse"><stop offset="0" stop-color="#fff"/><stop offset="0.181" stop-color="#fbfbfb"/><stop offset="0.365" stop-color="#efeff0"/><stop offset="0.552" stop-color="#dadbdc"/><stop offset="0.738" stop-color="#bebfc2"/><stop offset="0.824" stop-color="#aeb0b3"/></radialGradient><radialGradient id="b" cx="6.678" cy="84.74" r="15.554" gradientTransform="translate(-1.884 -86.154) scale(1.072 1.166)" gradientUnits="userSpaceOnUse"><stop offset="0" stop-color="#fafdff"/><stop offset="0.079" stop-color="#eef5fa"/><stop offset="0.22" stop-color="#cfdfec"/><stop offset="0.407" stop-color="#9dbbd5"/><stop offset="0.631" stop-color="#588ab5"/><stop offset="0.745" stop-color="#326fa4"/><stop offset="0.799" stop-color="#2b6698"/><stop offset="0.897" stop-color="#174e78"/><stop offset="0.994" stop-color="#003152"/></radialGradient><radialGradient id="c" cx="11.241" cy="-9.897" r="16.594" gradientTransform="translate(0 22.631) scale(1 1.062)" gradientUnits="userSpaceOnUse"><stop offset="0" stop-color="#ffd540"/><stop offset="0.667" stop-color="#ec1c24"/><stop offset="0.994" stop-color="#760000"/></radialGradient><radialGradient id="d" cx="12.286" cy="26.127" r="2.083" gradientUnits="userSpaceOnUse"><stop offset="0" stop-color="#dddfe0"/><stop offset="0.174" stop-color="#d9dbdc"/><stop offset="0.351" stop-color="#cdcfd0"/><stop offset="0.531" stop-color="#b8babb"/><stop offset="0.711" stop-color="#9c9e9f"/><stop offset="0.891" stop-color="#78797b"/><stop offset="1" stop-color="#5e5f61"/></radialGradient><radialGradient id="e" cx="19.064" cy="26.127" r="2.083" xlink:href="#d"/><radialGradient id="f" cx="15.434" cy="16.191" r="2.687" gradientTransform="translate(0 0.461)" xlink:href="#d"/></defs><title>file_type_prolog</title><g style="isolation:isolate"><circle cx="16" cy="16" r="14" transform="translate(-6.602 14.92) rotate(-42.265)" style="fill:url(#a)"/><path d="M19.938,6.309a9.785,9.785,0,0,0-6.5-2.339C8.564,3.97,3.774,7.7,3.405,14.961c-.4,7.8,4.75,12.862,12,12.862,10.733,0,16.672-9.78,10.027-20.388,4.671,10.6-.527,17.279-7.236,17.279-5.441,0-9.61-3.651-9.61-10.345C8.582,4.709,15.823,4.039,19.938,6.309Z" style="fill:url(#b)"/><path d="M22.7,10.415c-.293-.94-.645-2.788.634-3.86a3.729,3.729,0,0,0-3.844,1.534A9.165,9.165,0,0,0,12,8.1,3.729,3.729,0,0,0,8.152,6.555c1.309,1.1.91,3.005.614,3.923A10.517,10.517,0,0,0,6.1,17.524c0,2.174,1.4,4.645,1.675,7.955l1.768-1.532a11.743,11.743,0,0,0,6.212,1.433,11.741,11.741,0,0,0,6.212-1.433l1.769,1.532c.28-3.31,1.675-5.781,1.675-7.955A10.512,10.512,0,0,0,22.7,10.415Z" style="fill:url(#c)"/><path d="M10.722,27.867a1.621,1.621,0,1,1,3.24,0c0,.018,0,.035,0,.053a2.234,2.234,0,1,0-3.228.126C10.725,27.987,10.722,27.927,10.722,27.867Z" style="fill:url(#d)"/><path d="M20.629,27.867a1.621,1.621,0,1,0-3.24,0c0,.018,0,.035,0,.053a2.234,2.234,0,1,1,3.228.126A1.678,1.678,0,0,0,20.629,27.867Z" style="fill:url(#e)"/><g style="opacity:0.53;mix-blend-mode:multiply"><path d="M8.346,18.4c-.132.667-.971.877-.971.877A1.359,1.359,0,0,1,6.809,18.1a2.929,2.929,0,0,0,.443,1.793A2.927,2.927,0,0,0,8.346,18.4Z" style="fill:#231f20"/><path d="M10.008,18.737c-.132.667-.972.877-.972.877a1.36,1.36,0,0,1-.566-1.182,2.929,2.929,0,0,0,.444,1.793A2.926,2.926,0,0,0,10.008,18.737Z" style="fill:#231f20"/><path d="M8.833,20.249c-.132.667-.971.877-.971.877A1.359,1.359,0,0,1,7.3,19.944a2.929,2.929,0,0,0,.443,1.793A2.925,2.925,0,0,0,8.833,20.249Z" style="fill:#231f20"/><path d="M10.5,20.583c-.132.667-.971.877-.971.877a1.36,1.36,0,0,1-.566-1.182A2.929,2.929,0,0,0,9.4,22.072,2.927,2.927,0,0,0,10.5,20.583Z" style="fill:#231f20"/><path d="M9.328,22.121c-.132.667-.972.877-.972.877a1.36,1.36,0,0,1-.565-1.182,2.929,2.929,0,0,0,.443,1.793A2.926,2.926,0,0,0,9.328,22.121Z" style="fill:#231f20"/><path d="M11.664,19.07c-.132.667-.972.877-.972.877a1.359,1.359,0,0,1-.565-1.182,2.93,2.93,0,0,0,.443,1.793A2.927,2.927,0,0,0,11.664,19.07Z" style="fill:#231f20"/></g><g style="opacity:0.53;mix-blend-mode:multiply"><path d="M23.157,18.4c.132.667.971.877.971.877a1.359,1.359,0,0,0,.566-1.182,2.93,2.93,0,0,1-.443,1.793A2.927,2.927,0,0,1,23.157,18.4Z" style="fill:#231f20"/><path d="M21.495,18.737c.132.667.972.877.972.877a1.36,1.36,0,0,0,.565-1.182,2.931,2.931,0,0,1-.444,1.793A2.926,2.926,0,0,1,21.495,18.737Z" style="fill:#231f20"/><path d="M22.669,20.249c.132.667.971.877.971.877a1.36,1.36,0,0,0,.566-1.182,2.929,2.929,0,0,1-.443,1.793A2.926,2.926,0,0,1,22.669,20.249Z" style="fill:#231f20"/><path d="M21.008,20.583c.132.667.971.877.971.877a1.359,1.359,0,0,0,.565-1.182,2.928,2.928,0,0,1-.443,1.793A2.927,2.927,0,0,1,21.008,20.583Z" style="fill:#231f20"/><path d="M22.175,22.121c.132.667.972.877.972.877a1.36,1.36,0,0,0,.565-1.182,2.928,2.928,0,0,1-.444,1.793A2.927,2.927,0,0,1,22.175,22.121Z" style="fill:#231f20"/><path d="M19.838,19.07c.132.667.972.877.972.877a1.359,1.359,0,0,0,.565-1.182,2.928,2.928,0,0,1-.443,1.793A2.928,2.928,0,0,1,19.838,19.07Z" style="fill:#231f20"/></g><circle cx="11.339" cy="14.074" r="3.816" style="fill:#fff"/><circle cx="12.13" cy="14.446" r="1.861" style="fill:#bdbfc1"/><circle cx="12.13" cy="14.446" r="1.191" style="fill:#231f20"/><circle cx="11.603" cy="14.027" r="0.357" style="fill:#fff"/><circle cx="20.112" cy="14.074" r="3.816" style="fill:#fff"/><circle cx="20.903" cy="14.446" r="1.861" style="fill:#bdbfc1"/><circle cx="20.903" cy="14.446" r="1.191" style="fill:#231f20"/><circle cx="20.375" cy="14.027" r="0.357" style="fill:#fff"/><path d="M15.706,21.52c0-1.412,2.157-3.413,2.157-4.887a2.157,2.157,0,0,0-4.313,0C13.55,18.107,15.706,20.108,15.706,21.52Z" style="fill:url(#f)"/></g></svg>