<svg xmlns="http://www.w3.org/2000/svg" viewBox="0 0 32 32"><title>file_type_nx</title><path d="M15.985,18.494l-3.552-5.552-.006,4.665L6.306,7.3H2V24.7H6.258l.014-10.293,6.058,9.831Z" style="fill:#d2d2d2"/><path d="M12.434,11.773h4.253l.009-.049V7.3H12.438l-.005,4.423Z" style="fill:#d2d2d2"/><path d="M23.259,16.6a2.4,2.4,0,0,0-2.3,1.559,2.291,2.291,0,0,1,2.733-.863,2.472,2.472,0,0,0,1.552.33A2.444,2.444,0,0,0,23.259,16.6Z" style="fill:#96d8e9"/><path d="M28.085,18.69c0-.521-.284-.642-.873-.856a2.519,2.519,0,0,1-1.292-.794c-.071-.093-.136-.2-.206-.31a2.494,2.494,0,0,0-.622-.749,2.26,2.26,0,0,0-1.378-.375A2.894,2.894,0,0,0,21.039,17.4a2.715,2.715,0,0,1,4.669.453.87.87,0,0,0,.975.389c.574-.123.535.421,1.4.6Z" style="fill:#48c4e5"/><path d="M29.98,18.578v-.011a6.4,6.4,0,0,0-6.266-6.4,6.26,6.26,0,0,0-5.234,2.821l-.022-.038-1.773-2.783H12.434l4.04,6.327L12.531,24.7h4.13l1.8-2.76L20.29,24.7h4.13l-3.745-5.9a.827.827,0,0,1-.1-.373,3.138,3.138,0,0,1,3.139-3.139,2.467,2.467,0,0,1,2.4,1.526c.74.963,2.217.542,2.217,1.8a.824.824,0,1,0,1.648-.025h0v-.011Z" style="fill:#d2d2d2"/><path d="M29.984,19.467a1.569,1.569,0,0,1-.12.863c-.235.545-.628.363-.628.363a.319.319,0,0,1-.133-.48C29.331,19.861,29.782,19.9,29.984,19.467Z" style="fill:#d2d2d2"/></svg>