<svg xmlns="http://www.w3.org/2000/svg" viewBox="0 0 32 32"><title>file_type_light_vash</title><path d="M23.844,27.692a16.332,16.332,0,0,1-6.645,1.3q-6.364,0-10.013-3.243a11.3,11.3,0,0,1-3.649-8.9A13.716,13.716,0,0,1,7.322,6.951,12.716,12.716,0,0,1,16.9,3.008a11.676,11.676,0,0,1,8.425,3.006,9.994,9.994,0,0,1,3.142,7.533,10.187,10.187,0,0,1-2.318,7.114,7.532,7.532,0,0,1-5.817,2.547,2.613,2.613,0,0,1-1.845-.642,2.323,2.323,0,0,1-.764-1.6,4.9,4.9,0,0,1-4.148,2.243,4.6,4.6,0,0,1-3.507-1.479,5.706,5.706,0,0,1-1.384-4.063,9.913,9.913,0,0,1,2.2-6.357q2.2-2.763,4.8-2.763a5.063,5.063,0,0,1,4.256,1.716l.311-1.338h2.405l-2.081,9.08a10.716,10.716,0,0,0-.352,2.243q0,.972.744.972a4.819,4.819,0,0,0,3.877-2.047,8.93,8.93,0,0,0,1.621-5.681,7.98,7.98,0,0,0-2.675-6.175,9.887,9.887,0,0,0-6.919-2.432A10.6,10.6,0,0,0,8.713,8.352a12.066,12.066,0,0,0-3.2,8.495,9.561,9.561,0,0,0,3.06,7.573q3.06,2.7,8.586,2.7a13.757,13.757,0,0,0,5.675-1.054ZM19.466,12.25a3.977,3.977,0,0,0-3.6-1.716q-1.824,0-3.263,2.23a8.726,8.726,0,0,0-1.439,4.824q0,3.635,2.905,3.635A3.771,3.771,0,0,0,16.72,20.04a6.309,6.309,0,0,0,1.7-3.2Z" style="fill:#fbc02d"/></svg>