<svg xmlns="http://www.w3.org/2000/svg" viewBox="0 0 32 32"><title>file_type_jbuilder</title><path d="M2.5,24.186V7.91H6.809V9.824H4.8V22.271H6.809v1.915Z" style="fill:#735a00;stroke:#735a00"/><path d="M12.84,7.814h2.585v8.043a7.731,7.731,0,0,1-.287,2.394,3.645,3.645,0,0,1-1.34,1.819,4.334,4.334,0,0,1-2.585.67A3.908,3.908,0,0,1,8.34,19.686a4.233,4.233,0,0,1-1.053-3.064l2.394-.287a2.857,2.857,0,0,0,.287,1.532,1.3,1.3,0,0,0,1.245.67,1.654,1.654,0,0,0,1.245-.479,4.288,4.288,0,0,0,.383-2.011Z" style="fill:#735a00;stroke:#735a00"/><path d="M15.521,20.644V7.814h2.394v4.6A3.394,3.394,0,0,1,20.6,11.165a3.45,3.45,0,0,1,2.777,1.245,5.088,5.088,0,0,1,1.149,3.543,5.349,5.349,0,0,1-1.149,3.638A3.45,3.45,0,0,1,20.6,20.835a2.81,2.81,0,0,1-1.532-.383,5.039,5.039,0,0,1-1.34-1.149v1.34Zm2.394-4.883a4.024,4.024,0,0,0,.479,2.106,1.823,1.823,0,0,0,1.723.957,1.553,1.553,0,0,0,1.34-.67,3.373,3.373,0,0,0,.574-2.2,3.681,3.681,0,0,0-.574-2.3,1.874,1.874,0,0,0-2.872,0A3.453,3.453,0,0,0,17.915,15.761Z" style="fill:#735a00;stroke:#735a00"/><path d="M29.5,7.814V24.09H25.191V22.176H27.2V9.729H25.191V7.814Z" style="fill:#735a00;stroke:#735a00"/></svg>