<svg xmlns="http://www.w3.org/2000/svg" viewBox="0 0 32 32"><title>file_type_map</title><path d="M16,30A14,14,0,1,1,30,16,14,14,0,0,1,16,30ZM16,3.18A12.82,12.82,0,1,0,28.82,16,12.82,12.82,0,0,0,16,3.18Z" style="fill:#45d339"/><rect x="2.78" y="15.41" width="26.43" height="1.18" style="fill:#45d339"/><path d="M16.32,10.47A44.78,44.78,0,0,1,4.42,8.92l.34-1.13c.11,0,11.28,3.32,22.43,0l.33,1.13A39.37,39.37,0,0,1,16.32,10.47Z" style="fill:#45d339"/><path d="M4.79,23.91l-.34-1.13c11.5-3.42,22.63-.14,23.1,0l-.34,1.13C27.1,23.87,15.94,20.59,4.79,23.91Z" style="fill:#45d339"/><path d="M11.47,28.76a35.45,35.45,0,0,1-.74-25.71l1.08.46a34.23,34.23,0,0,0,.74,24.79Z" style="fill:#45d339"/><path d="M20.44,28.76l-1.08-.46A34.23,34.23,0,0,0,20.1,3.52l1.08-.46A35.46,35.46,0,0,1,20.44,28.76Z" style="fill:#45d339"/><rect x="15.41" y="2.78" width="1.18" height="26.92" style="fill:#45d339"/></svg>