<svg xmlns="http://www.w3.org/2000/svg" viewBox="0 0 32 32"><title>file_type_doxygen</title><path d="M2,2.028H8.787a10.093,10.093,0,0,1,3.884.575,6.507,6.507,0,0,1,2.413,1.94,9.978,9.978,0,0,1,1.731,3.543,19.836,19.836,0,0,1,.628,5.414,17.408,17.408,0,0,1-.659,5.069,10.164,10.164,0,0,1-1.67,3.412,6.469,6.469,0,0,1-2.444,1.894,9.136,9.136,0,0,1-3.685.636H2Zm3.711,3.8V20.708H8.5a7.263,7.263,0,0,0,2.6-.337,3.137,3.137,0,0,0,1.319-1.019,5.835,5.835,0,0,0,.851-2.153,17.968,17.968,0,0,0,.337-3.876,17.672,17.672,0,0,0-.345-3.937,5.219,5.219,0,0,0-1.074-2.267A3.417,3.417,0,0,0,10.42,6.031a14.727,14.727,0,0,0-3.021-.2Z" style="fill:#25b76a"/><path d="M9.54,18.1a13.9,13.9,0,0,1,1.034-5.759,7.8,7.8,0,0,1,2.7-3.37A7.146,7.146,0,0,1,17.322,7.86a6.939,6.939,0,0,1,5.613,2.629q2.169,2.63,2.169,7.488,0,4.912-2.3,7.675a6.72,6.72,0,0,1-5.472,2.443,6.782,6.782,0,0,1-5.5-2.416A11.511,11.511,0,0,1,9.54,18.1Zm3.337-.133a8.314,8.314,0,0,0,1.283,5.065,3.863,3.863,0,0,0,3.181,1.688,3.815,3.815,0,0,0,3.168-1.675A8.574,8.574,0,0,0,21.767,17.9a8.389,8.389,0,0,0-1.223-5.032,3.82,3.82,0,0,0-3.2-1.628,3.863,3.863,0,0,0-3.222,1.642A8.43,8.43,0,0,0,12.877,17.964Z" style="fill:#26abb5"/><path d="M30,28.2v1.773H24.511a5.283,5.283,0,0,1,.54-1.911,12.224,12.224,0,0,1,1.756-2.379,13.177,13.177,0,0,0,1.27-1.588,2.387,2.387,0,0,0,.353-1.215,1.452,1.452,0,0,0-.292-.984.972.972,0,0,0-.768-.333q-1.039,0-1.121,1.556l-1.556-.19a3.58,3.58,0,0,1,.846-2.235,2.509,2.509,0,0,1,1.871-.713,2.306,2.306,0,0,1,1.936.835A3.024,3.024,0,0,1,30,22.728a4.228,4.228,0,0,1-.166,1.184,4.944,4.944,0,0,1-.513,1.154,10.42,10.42,0,0,1-1.155,1.483q-.754.848-.954,1.12a3.233,3.233,0,0,0-.323.529Z" style="fill:#26abb5"/></svg>