<svg xmlns="http://www.w3.org/2000/svg" viewBox="0 0 32 32"><title>file_type_avro</title><path d="M2,11.649h.025a4.785,4.785,0,0,0,2.911,1.336c2.308.221,4.59-.485,6.9-.326a7.03,7.03,0,0,1,2.68.664c.5-.319.989-.662,1.486-.989.5.327.984.674,1.488.989a6.834,6.834,0,0,1,2.487-.65c1.995-.167,3.967.308,5.957.359a5.2,5.2,0,0,0,4.026-1.383H30v.236c-.178.747-.882,1.176-1.284,1.79a4.948,4.948,0,0,1-.731.791,3.8,3.8,0,0,1-.565.748,2.551,2.551,0,0,0-.594.541,2.181,2.181,0,0,1-.96.749,1.149,1.149,0,0,1-.565.56,6.69,6.69,0,0,1-1.94.184c.723.548,1.5,1.02,2.246,1.535.782.513,1.54,1.061,2.326,1.568H4.089c1.5-1.058,3.057-2.035,4.55-3.1A6.8,6.8,0,0,1,6.7,17.065a1.155,1.155,0,0,1-.569-.562,2.28,2.28,0,0,1-1.043-.86c-.268-.3-.67-.466-.853-.843-.2-.436-.658-.664-.909-1.067-.4-.642-1.137-1.076-1.327-1.846v-.239m2.939,8.528q11.059.009,22.12,0c-3.668-2.51-7.376-4.961-11.059-7.448-3.684,2.487-7.392,4.941-11.061,7.449M4.167,13.2a7.842,7.842,0,0,0,2.84.731c1.163.123,2.341.046,3.5.236a2.7,2.7,0,0,1,1.607.781c.659-.452,1.332-.885,1.987-1.342l.012-.064a5.294,5.294,0,0,0-1.877-.5c-2.693-.316-5.387.712-8.067.16m13.652.356c.688.466,1.382.925,2.07,1.392a2.488,2.488,0,0,1,1.3-.719,19.859,19.859,0,0,1,3.137-.248,9.105,9.105,0,0,0,3.5-.768c-2.582.5-5.168-.409-7.761-.2a6.256,6.256,0,0,0-2.245.545M3.339,13.166a7.264,7.264,0,0,0,2.723,1.3c-.219-.153-.376-.416-.657-.457a7.955,7.955,0,0,1-2.066-.844m23.333.825c-.317.023-.5.3-.733.473a7.232,7.232,0,0,0,2.724-1.3,8.106,8.106,0,0,1-1.991.824m-22.5.126a5.121,5.121,0,0,0,2.589,1.1c-.115-.128-.209-.312-.4-.334a10.459,10.459,0,0,1-2.19-.771m21.467.768c-.189.022-.284.2-.394.336a5.187,5.187,0,0,0,2.6-1.109,10.477,10.477,0,0,1-2.2.773M6.3,14.206a3.243,3.243,0,0,0,2.445.352c-.1-.08-.181-.215-.325-.206q-1.063-.04-2.12-.146m17.351.139c-.171-.019-.291.1-.406.211a3.108,3.108,0,0,0,2.42-.352q-1,.112-2.014.141m-16.741.538a3.669,3.669,0,0,0,2.482.319,1.107,1.107,0,0,0-.281-.376,5.158,5.158,0,0,1-2.2.057m15.7.318a3.678,3.678,0,0,0,2.487-.319,5.127,5.127,0,0,1-2.2-.057,1.1,1.1,0,0,0-.283.376M4.838,14.977a4.11,4.11,0,0,0,2.133.841c-.057-.084-.114-.168-.171-.254a6.948,6.948,0,0,1-1.962-.587m20.361.589-.169.253a4.141,4.141,0,0,0,2.136-.843,7.015,7.015,0,0,1-1.967.59m-18.1-.13a.8.8,0,0,0,.534.31,7.579,7.579,0,0,0,2.037-.073c-.009-.03-.027-.09-.036-.12-.457-.051-.923.074-1.385.047A7.054,7.054,0,0,1,7.1,15.437m16.191.151a6.28,6.28,0,0,0-.913-.041l-.042.126a7.416,7.416,0,0,0,2.045.072.7.7,0,0,0,.522-.331,4.349,4.349,0,0,1-1.613.174m-17.52.327a3.12,3.12,0,0,0,1.754.481c-.065-.24-.334-.2-.523-.236-.419-.041-.816-.186-1.231-.246M25,16.163c-.188.041-.452-.006-.521.232a2.874,2.874,0,0,0,1.732-.482c-.4.079-.8.207-1.211.251M7.735,16.119a1,1,0,0,0,.789.275,9.331,9.331,0,0,0,1.325-.158c-.021-.093-.009-.278-.163-.228a9.983,9.983,0,0,1-1.951.111m14.415.118a8.157,8.157,0,0,0,1.412.154.9.9,0,0,0,.7-.274,9.387,9.387,0,0,1-1.934-.11c-.16-.06-.155.132-.176.23m-15.438.44a1.962,1.962,0,0,0,1.3.181l-.091-.126c-.4.006-.807-.022-1.209-.055m1.615.043a1.03,1.03,0,0,0,.716.294c.179-.125.358-.252.531-.386a5.747,5.747,0,0,1-1.247.092m14.1-.093c.237.144.467.477.782.345.166-.05.369-.089.461-.257a5.271,5.271,0,0,1-1.243-.088m1.713.263a2.007,2.007,0,0,0,1.145-.213,10.269,10.269,0,0,1-1.144.049C23.993,16.667,23.984,16.961,24.138,16.89Z" style="fill:#0040ff"/><path d="M7.435,18.886Q11.719,16.013,16,13.137l9.3,6.244c.221.147.439.3.648.464q-9.947-.01-19.894,0c.443-.344.92-.64,1.383-.958m8.255-5.066c-.457,1.859-.907,3.719-1.375,5.576.52.015,1.041.012,1.562,0q-.013-2.841,0-5.68l-.184.1m-2.5,1.684c.255.859.48,1.728.763,2.579.289-1.238.6-2.471.9-3.707-.55.386-1.114.75-1.668,1.129m3.357-.873c-.006.682,0,1.364,0,2.046a2.1,2.1,0,0,0,1.014-.254c.193-.145.1-.409.011-.586a4.276,4.276,0,0,0-1.024-1.207M18.327,16.4c-.1.544-.666.792-1.151.9.474.7.96,1.389,1.416,2.1.469.024.94.011,1.411.009a1.631,1.631,0,0,1,.16-2.976c-.834-.6-1.7-1.14-2.544-1.727.349.5.831,1.037.708,1.7m-6.822.242c.267.921.529,1.845.794,2.767.44,0,.88.008,1.321-.007-.339-1.161-.685-2.319-1.009-3.484-.385.215-.737.482-1.1.724m8.8.452a.946.946,0,0,0,.057,1.7c.533.09.855-.533.779-.99-.026-.4-.4-.861-.836-.714M7.4,19.4q1.324.018,2.65,0c.256-.7.413-1.468.629-2.2-1.1.715-2.187,1.461-3.279,2.194m14.377-1.9a1.616,1.616,0,0,1-.876,1.9c1.233.018,2.465.015,3.7,0-.934-.644-1.883-1.266-2.822-1.9m-5.223.115c-.01.6,0,1.2,0,1.8.415,0,.831,0,1.248,0-.419-.6-.8-1.219-1.243-1.794m-5.546.941h.346c-.055-.187-.108-.376-.166-.562a3.751,3.751,0,0,0-.181.563m-.18.693c-.015.04-.045.119-.061.159.275-.026.59.071.842-.05C11.453,19.112,11.074,19.275,10.826,19.244Z" style="fill:#0040ff"/></svg>