<svg xmlns="http://www.w3.org/2000/svg" viewBox="0 0 32 32"><title>file_type_livescript</title><polygon points="5.504 2.007 8.986 2 8.986 21.746 10.759 19.987 10.759 3.755 12.497 3.755 12.497 18.24 14.253 16.487 14.253 3.755 15.997 3.755 15.997 14.729 17.735 12.962 17.735 3.755 19.461 3.755 19.461 11.225 21.245 9.461 21.245 3.755 22.972 3.755 22.972 7.723 24.738 5.975 24.739 3.755 26.483 3.755 26.483 5.482 28.209 5.482 28.209 7.267 25.911 7.268 24.184 8.993 28.209 8.993 28.209 10.719 22.438 10.719 20.698 12.504 28.209 12.504 28.209 14.23 18.961 14.23 17.205 16.014 28.209 16.014 28.209 17.741 15.455 17.741 13.715 19.496 28.209 19.496 28.209 21.252 11.98 21.252 10.242 22.978 29.982 22.978 29.989 26.489 8.986 26.489 8.986 30 5.504 30 5.504 26.489 2.011 26.489 2.011 22.978 5.504 22.978 5.503 2 5.504 2.007" style="fill:#317eac"/></svg>