<svg xmlns="http://www.w3.org/2000/svg" viewBox="0 0 32 32"><title>file_type_galen</title><path d="M29.879,10.793,25.906,6.814a.515.515,0,0,0-.729,0l-3.926,3.937a.515.515,0,0,0,0,.727L25.752,16s3.986-3.7,4.224-4.91A.331.331,0,0,0,29.879,10.793Z" style="fill:#338abd"/><path d="M29.985,10.982c0,1.105-4.233,5.018-4.233,5.018L16,25.754s-4.766,4.588-5.515,3.822l.187.192a.89.89,0,0,0,.69.232h9.3a1.03,1.03,0,0,0,.729-.3L29.7,21.391a.951.951,0,0,0,.3-.729Z" style="fill:#97d4f9"/><path d="M16,25.754,6.242,16c-1.877,1.77-4.65,4.68-3.866,5.465l8.109,8.114C11.244,30.343,16,25.754,16,25.754Z" style="fill:#338abd"/><path d="M6.242,16,20.064,2.176A.1.1,0,0,0,19.991,2H11.325a1.03,1.03,0,0,0-.729.3L2.3,10.6a1.03,1.03,0,0,0-.3.729v9.51a.455.455,0,0,0,.17.4l.21.223C1.573,20.626,4.51,17.739,6.242,16Z" style="fill:#97d4f9"/></svg>