<svg xmlns="http://www.w3.org/2000/svg" viewBox="0 0 32 32"><title>file_type_ng_controller_ts</title><polygon points="3.927 24.707 16.173 31.438 28.482 24.615 30.777 5.584 16.158 0.563 1.631 5.675 3.927 24.707" style="fill:#b3b3b3"/><polygon points="16.124 29.829 27.19 23.705 29.328 6.684 16.124 2.181 16.124 29.829" style="fill:#a6120d"/><polygon points="16.123 29.829 16.123 2.181 3.261 6.765 5.228 23.786 16.123 29.829" style="fill:#dd1b16"/><path d="M19.758,16.9l-3.635,1.7H12.293l-1.8,4.5-3.35.062,8.981-19.98Zm-.351-.856L16.148,9.592l-2.673,6.341h2.649Z" style="fill:#f2f2f2"/><polygon points="19.181 15.938 16.13 15.938 16.123 18.595 20.342 18.599 22.314 23.166 25.519 23.226 16.123 3.185 16.148 9.592 19.181 15.938" style="fill:#b3b3b3"/><path d="M27.41,19.65a2.81,2.81,0,0,1,1.41.81,3.72,3.72,0,0,1,.54.72s-1,.69-1.57,1.06a.5.5,0,0,1-.2-.22,1.28,1.28,0,0,0-1.06-.64.92.92,0,0,0-1.12.91.83.83,0,0,0,.1.42,2.23,2.23,0,0,0,1.31.88c1.62.7,2.31,1.16,2.74,1.81a3.28,3.28,0,0,1,.26,2.76A3,3,0,0,1,27.31,30a6.93,6.93,0,0,1-1.72,0,4.15,4.15,0,0,1-2.3-1.2,4,4,0,0,1-.59-.87l.21-.13.84-.48.65-.38.14.2a3,3,0,0,0,.86.82,2.1,2.1,0,0,0,2.2-.11,1,1,0,0,0,.13-1.25,3.72,3.72,0,0,0-1.55-.9A5.6,5.6,0,0,1,24,24.32a3,3,0,0,1-.62-1.13,4.53,4.53,0,0,1,0-1.44A2.76,2.76,0,0,1,25.7,19.6,5.73,5.73,0,0,1,27.41,19.65Zm-5.31.94v.93H19.16v8.36H17.08V21.52H14.14v-.91a8.9,8.9,0,0,1,0-.93h8v.92Z" style="fill:#007acc"/></svg>