<svg xmlns="http://www.w3.org/2000/svg" viewBox="0 0 32 32"><title>file_type_mson</title><polygon points="7.62 19.85 7.62 12.15 9.884 12.15 12.15 14.981 14.414 12.15 16.679 12.15 16.679 19.85 14.414 19.85 14.414 15.434 12.15 18.265 9.884 15.434 9.884 19.85 7.62 19.85" style="fill:#755838"/><polygon points="21.775 19.85 18.378 16.113 20.642 16.113 20.642 12.15 22.907 12.15 22.907 16.113 25.171 16.113 21.775 19.85" style="fill:#755838"/><path d="M2,15.042a2.345,2.345,0,0,0,1.464-.484,2.221,2.221,0,0,0,.752-1.269,14.257,14.257,0,0,0,.2-2.75q.011-1.948.07-2.566A4.891,4.891,0,0,1,4.876,6.4a2.826,2.826,0,0,1,.705-.951,2.846,2.846,0,0,1,1.076-.542A6.317,6.317,0,0,1,8.1,4.789h.654V6.62H8.392a2.184,2.184,0,0,0-1.61.437,3.176,3.176,0,0,0-.4,1.954,33.682,33.682,0,0,1-.128,3.861A4.423,4.423,0,0,1,5.54,14.8,4.267,4.267,0,0,1,3.948,16a3.558,3.558,0,0,1,1.861,1.639,8.278,8.278,0,0,1,.577,3.611q0,2.275.047,2.709a1.64,1.64,0,0,0,.471,1.1,2.465,2.465,0,0,0,1.487.315h.362v1.834H8.1a5.283,5.283,0,0,1-1.656-.187,2.775,2.775,0,0,1-1.237-.869,3.132,3.132,0,0,1-.636-1.523,22.584,22.584,0,0,1-.154-3.021,15.385,15.385,0,0,0-.2-2.9,2.25,2.25,0,0,0-.752-1.271A2.325,2.325,0,0,0,2,16.947Z" style="fill:#fbc02d"/><path d="M30,16.944a2.325,2.325,0,0,0-1.464.49,2.25,2.25,0,0,0-.752,1.271,15.386,15.386,0,0,0-.2,2.9,22.585,22.585,0,0,1-.158,3.021,3.132,3.132,0,0,1-.636,1.523,2.775,2.775,0,0,1-1.237.869,5.283,5.283,0,0,1-1.656.187h-.654v-1.83h.362a2.465,2.465,0,0,0,1.487-.315,1.64,1.64,0,0,0,.473-1.108q.047-.432.047-2.709a8.278,8.278,0,0,1,.577-3.611A3.558,3.558,0,0,1,28.051,16a4.267,4.267,0,0,1-1.588-1.2,4.423,4.423,0,0,1-.717-1.924,33.682,33.682,0,0,1-.128-3.861,3.176,3.176,0,0,0-.4-1.954,2.184,2.184,0,0,0-1.61-.437h-.362V4.789H23.9a6.317,6.317,0,0,1,1.439.117,2.846,2.846,0,0,1,1.073.543,2.826,2.826,0,0,1,.705.951,4.891,4.891,0,0,1,.39,1.575q.058.618.07,2.566a14.257,14.257,0,0,0,.2,2.753,2.221,2.221,0,0,0,.752,1.266,2.345,2.345,0,0,0,1.464.484Z" style="fill:#fbc02d"/></svg>