<svg xmlns="http://www.w3.org/2000/svg" viewBox="0 0 32 32"><title>file_type_liquid</title><path d="M29.988,22.372l-.748.048a5.209,5.209,0,0,1-2.99-.671,7.8,7.8,0,0,0-7.8,0,5.275,5.275,0,0,1-5.3.01A7.262,7.262,0,0,0,9.263,20.7a7.229,7.229,0,0,0-3.94,1.06,4.751,4.751,0,0,1-2.47.7l-.838,0c0,.889-.009,1.739-.015,2.515l.861,0a7.237,7.237,0,0,0,3.75-1.052,4.763,4.763,0,0,1,2.659-.7,4.835,4.835,0,0,1,2.634.718,7.794,7.794,0,0,0,7.8,0,5.287,5.287,0,0,1,5.319,0,7.709,7.709,0,0,0,4.4.989L30,24.888C29.995,24.1,29.991,23.249,29.988,22.372Z" style="fill:#004999"/><path d="M29.983,15.581l-.743.047a5.226,5.226,0,0,1-2.99-.671,7.8,7.8,0,0,0-7.8,0,5.278,5.278,0,0,1-5.3.01A7.312,7.312,0,0,0,9.263,13.91a7.3,7.3,0,0,0-3.941,1.06,4.742,4.742,0,0,1-2.469.7l-.828,0c0,.849,0,1.693,0,2.515l.84,0a7.237,7.237,0,0,0,3.75-1.052,4.7,4.7,0,0,1,2.659-.7,4.8,4.8,0,0,1,2.634.718,7.794,7.794,0,0,0,7.8,0,5.287,5.287,0,0,1,5.319,0,7.709,7.709,0,0,0,4.4.989l.568-.037C29.983,17.269,29.983,16.424,29.983,15.581Z" style="fill:#004999"/><path d="M29.24,9.137a5.254,5.254,0,0,1-2.99-.671,7.8,7.8,0,0,0-7.8,0,5.275,5.275,0,0,1-5.3.009A7.16,7.16,0,0,0,9.263,7.42a7.159,7.159,0,0,0-3.94,1.059,4.738,4.738,0,0,1-2.469.7l-.834,0c0,.82,0,1.664,0,2.517l.836,0a7.237,7.237,0,0,0,3.75-1.052,4.738,4.738,0,0,1,2.659-.706,4.814,4.814,0,0,1,2.634.719,7.791,7.791,0,0,0,7.8,0,5.293,5.293,0,0,1,5.319,0,7.732,7.732,0,0,0,4.4.988l.568-.037c0-.859,0-1.7.007-2.516Z" style="fill:#004999"/></svg>