<svg xmlns="http://www.w3.org/2000/svg" viewBox="0 0 32 32"><title>file_type_audio</title><path d="M17.229,4a.9.9,0,0,0-.569.232l-7.6,6.32a1.158,1.158,0,0,1-.955.328H3.208A1.2,1.2,0,0,0,2,12.088v7.826A1.2,1.2,0,0,0,3.208,21.12H8.1a1.158,1.158,0,0,1,.955.328l7.6,6.32c.521.433,1.081.224,1.081-.289V4.522A.494.494,0,0,0,17.229,4ZM27,6.3,25.209,8.093a14.708,14.708,0,0,1,0,15.844l1.785,1.776A17.19,17.19,0,0,0,27,6.3Zm-4.333,4.323L20.905,12.4a6.035,6.035,0,0,1,0,7.237l1.756,1.756a8.554,8.554,0,0,0,.01-10.769Z" style="fill:#00007f"/></svg>