<svg version="1.1" viewBox="0 0 32 32" xml:space="preserve" xmlns="http://www.w3.org/2000/svg"><title>file_type_nsjsproj</title><g transform="matrix(1.1549 0 0 1.1549 6.6699 14.758)"><path d="m0.41 9.37-4.01-3.01a1 1 0 0 1-0.4-0.8v-9.04a1 1 0 0 1 0.4-0.8l4.01-3.01a0.9 0.9 0 0 0-0.27 0.8v15.06a0.91 0.91 0 0 0 0.27 0.8z" fill="#5e438f"/><path d="m19.64-6.82a1 1 0 0 0-1.25 0.11l-0.07 0.07-16.54 15.86-0.07 0.07a1 1 0 0 1-1.3 0.08l-4.01-3.01a1 1 0 0 0 1.36-0.15c4.85-5.61 9.68-11.24 14.52-16.86 0.2-0.23 0.47-0.35 0.77-0.35 0.2 0 0.39 0.05 0.55 0.16z" fill="#7252aa"/><path d="m19.65 8.9-6.03 4.02c-0.42 0.28-0.99 0.2-1.32-0.18l-14.53-16.87a1 1 0 0 0-1.37-0.15l4.02-3.01a1 1 0 0 1 0.6-0.2c0.26 0 0.51 0.1 0.7 0.28l0.06 0.07 16.54 15.86 0.07 0.07a1 1 0 0 0 1.25 0.11z" fill="#ae7fe2"/><path d="m20.09-5.99v14.05a1 1 0 0 1-0.45 0.84l-6.02 4.02a1 1 0 0 0 0.44-0.84v-22.08a1.02 1.02 0 0 0-0.46-0.84l6.04 4.02a1.01 1.01 0 0 1 0.45 0.83z" fill="#d59dff"/></g><g transform="translate(-.10665 -.55173)"><path d="m25.9 32.029a6.842 6.842 0 0 1-6.4-3.658l-0.6-1.189 3.826-2.223a5.233 5.233 0 0 1-2.526-4.654c0-2.976 2.329-5.135 5.539-5.135a5.568 5.568 0 0 1 5.236 2.971l0.661 1.163-3.277 2.105c1.895 0.938 3.628 2.324 3.628 5.28-4e-3 3.195-2.449 5.34-6.087 5.34zm-1.549-6.216a1.587 1.587 0 0 0 1.484 0.891 1.52 1.52 0 0 0 0.374-0.041 11.343 11.343 0 0 0-1.078-0.515l-0.7-0.3zm-9.319 6.21a5.77 5.77 0 0 1-5.505-3.383l-0.544-1.15 4.629-2.8 0.716 1.268c0.413 0.732 0.477 0.732 0.584 0.732h0.075a2.385 2.385 0 0 0 0.023-0.358v-11h5.642v11.033c0 3.49-2.152 5.659-5.62 5.659z" fill="#efeef0"/><path d="m13.1 26.649c0.443 0.786 0.846 1.45 1.814 1.45 0.926 0 1.51-0.362 1.51-1.771v-9.585h2.818v9.622c0 2.918-1.711 4.247-4.209 4.247a4.375 4.375 0 0 1-4.233-2.574z" fill="#83cd29"/><path d="m23.055 26.4a3.07 3.07 0 0 0 2.78 1.712c1.168 0 1.914-0.584 1.914-1.39 0-0.966-0.767-1.309-2.052-1.871l-0.7-0.3c-2.034-0.866-3.385-1.952-3.385-4.247 0-2.114 1.611-3.723 4.128-3.723a4.166 4.166 0 0 1 4.009 2.257l-2.195 1.409a1.917 1.917 0 0 0-1.814-1.208 1.226 1.226 0 0 0-1.349 1.208c0 0.846 0.524 1.188 1.733 1.712l0.7 0.3c2.395 1.027 3.747 2.074 3.747 4.428 0 2.538-1.993 3.928-4.671 3.928a5.415 5.415 0 0 1-5.136-2.882z" fill="#83cd29"/></g></svg>
