<svg xmlns="http://www.w3.org/2000/svg" viewBox="0 0 32 32"><title>file_type_dependencies</title><path d="M11.247,2.042c2.164-.067,4.772-.275,6.284,1.614,2.506,2.9.625,7.061,1.517,10.445a3.394,3.394,0,0,0,3.721,1.809,3.21,3.21,0,0,1,4.191-1.73,3.075,3.075,0,0,1,.262,5.437,3.239,3.239,0,0,1-4.479-1.605,41.57,41.57,0,0,0-5.854.142c-1.787.514-2.24,2.541-2.053,4.169.089,2.173.226,4.759-1.605,6.315-2,1.876-4.941,1.229-7.42,1.339-.173-.705-.346-1.406-.523-2.107,2.39-.235,5.792.9,7.176-1.743.812-2.643-.466-5.681,1.158-8.147-1.947.04-3.9.013-5.845.027C7.61,17.3,7.442,16.6,7.255,15.9c3.437,0,6.874-.018,10.311.013-1.109-1.53-.408-3.756-1.836-5.078a4.191,4.191,0,0,0-3.06-.82c-2.963.013-5.925,0-8.888.013-.164-.705-.333-1.41-.519-2.111,3.446.018,6.9-.04,10.343.022a7.743,7.743,0,0,1,3.171.887c-.093-1.317.173-2.94-.971-3.9-1.06-1.087-2.683-.75-4.04-.776C11.606,3.443,11.438,2.738,11.247,2.042Z" style="fill:#36a3ec"/></svg>