<svg xmlns="http://www.w3.org/2000/svg" viewBox="0 0 32 32"><title>file_type_aspx</title><polygon points="22.75 2 6.35 2 6.35 30 29.65 30 29.65 9 22.75 2" style="fill:#c5c5c5"/><polygon points="27.35 27.7 8.75 27.7 8.75 4.3 20.45 4.3 20.45 11.3 27.45 11.3 27.45 27.7 27.35 27.7" style="fill:#f5f5f5"/><path d="M12.1,30.994A11.094,11.094,0,1,1,23.194,19.9,11.106,11.106,0,0,1,12.1,30.994Zm0-20.3A9.2,9.2,0,1,0,21.3,19.9,9.216,9.216,0,0,0,12.1,10.7Z" style="fill:#33a9dc"/><rect x="2.099" y="19.455" width="20.003" height="0.89" style="fill:#33a9dc;stroke:#33a9dc;stroke-miterlimit:10"/><path d="M12.325,15.763a31.93,31.93,0,0,1-8.484-1.11l.242-.807a31.374,31.374,0,0,0,15.992,0l.239.807A28.076,28.076,0,0,1,12.325,15.763Z" style="fill:#33a9dc;stroke:#33a9dc;stroke-miterlimit:10"/><path d="M4.1,25.724l-.239-.807a31.652,31.652,0,0,1,16.472,0l-.242.807A31.38,31.38,0,0,0,4.1,25.724Z" style="fill:#33a9dc;stroke:#33a9dc;stroke-miterlimit:10"/><path d="M8.536,29.055A25.438,25.438,0,0,1,8,10.608l.776.331a24.558,24.558,0,0,0,.533,17.783Z" style="fill:#33a9dc;stroke:#33a9dc;stroke-miterlimit:10"/><path d="M15.6,29.055l-.776-.333a24.559,24.559,0,0,0,.531-17.783l.776-.331A25.443,25.443,0,0,1,15.6,29.055Z" style="fill:#33a9dc;stroke:#33a9dc;stroke-miterlimit:10"/><rect x="11.655" y="9.898" width="0.889" height="20.371" style="fill:#33a9dc;stroke:#33a9dc;stroke-miterlimit:10"/></svg>