<svg xmlns="http://www.w3.org/2000/svg" viewBox="0 0 32 32"><path fill="#E05C43" d="M16 2c7.732 0 14 6.268 14 14s-6.268 14-14 14S2 23.732 2 16 8.268 2 16 2Z"/><path fill="#fff" fill-rule="evenodd" d="M16.277 7.278c1.803-.036 3.078.453 4.175 2.01 2.392 5.93-6.157 8.99-6.5 9.111l-.01.004s-.259 1.61 2.193 1.549c3.017 0 6.19-2.34 7.396-3.328a.72.72 0 0 1 .977.058l.904.939a.72.72 0 0 1 .018.982 15.465 15.465 0 0 1-5.402 3.83s-4.629 2.142-7.748.113c-1.86-1.21-2.372-2.658-2.58-4.165.001 0-2.258-.114-3.71-.68-1.45-.568.012-2.278.012-2.278s.446-.707 1.295 0c.849.706 2.434.387 2.434.387.142-1.115.377-2.587 1.069-4.14 1.45-3.257 3.672-4.357 5.477-4.392Zm1.061 3.263c-.955-.921-3.715.919-3.822 5.13 0 0 .815.247 2.619-.992 1.805-1.238 2.159-3.22 1.203-4.138Z" clip-rule="evenodd"/></svg>