<svg xmlns="http://www.w3.org/2000/svg" viewBox="0 0 32 32"><title>file_type_drools</title><path d="M10.347,3.206a14.472,14.472,0,0,1,8.067-1.074,8.9,8.9,0,0,1,6.049,2.939,9.767,9.767,0,0,1,1.889,4.959,35.924,35.924,0,0,1-.166,8.138,23.461,23.461,0,0,1-1.823,7.565,7.967,7.967,0,0,1-3.17,3.691,4.632,4.632,0,0,1-4.71-.139c-.918-.545-1.458-1.5-2.281-2.163a4.759,4.759,0,0,0-2.839-1.336.671.671,0,0,1-.2-.829c.288-.41.842-.236,1.246-.15a8.543,8.543,0,0,1,3.935,2.9,3.463,3.463,0,0,0,3.57,1.036,5.638,5.638,0,0,0,3.07-2.829,22.1,22.1,0,0,0,2.152-8.548,27.021,27.021,0,0,0-.147-8.548,6.743,6.743,0,0,0-2.655-4.179,11.224,11.224,0,0,0-6.5-1.511A9.8,9.8,0,0,0,9.118,5.38a8.515,8.515,0,0,0-2.346,7.851,5.639,5.639,0,0,0,1.89,3.5c.338.277.953.29,1.039.8a.565.565,0,0,1-.724.593,4.476,4.476,0,0,1-2.522-2.364,10.138,10.138,0,0,1-.281-8.051A8.437,8.437,0,0,1,10.347,3.206Z" style="fill:#db0012"/><path d="M10.469,10.227c.332-.306,1-.069.945.422a92.384,92.384,0,0,1-.3,9.9,15.587,15.587,0,0,1-.485,2.8c-.169.561-1.167.346-1.057-.25.835-4.085.708-8.285.732-12.434A.653.653,0,0,1,10.469,10.227Z" style="fill:#0095dd"/><path d="M24.04,12.342a.608.608,0,0,1,1.02.4c0,.443-.469.571-.775.765a4.683,4.683,0,0,0-2.2,1.952c-.532,1.825.8,3.577.435,5.408a1.609,1.609,0,0,1-1.267,1.218,9.458,9.458,0,0,1-2.845.022.571.571,0,0,1-.019-1.063,14.479,14.479,0,0,0,2.643-.072c.545-.134.448-.81.4-1.232-.265-1.546-.929-3.148-.387-4.711C21.56,13.714,22.87,13,24.04,12.342Z" style="fill:#ff8a12"/><path d="M15.847,15.464c.657-.062,1.238.427,1.908.383a3.717,3.717,0,0,0,1.736-.5.583.583,0,0,1,.316,1.028,3.939,3.939,0,0,1-3.934.139A.579.579,0,0,1,15.847,15.464Z" style="fill:#7658b1"/></svg>