<svg xmlns="http://www.w3.org/2000/svg" viewBox="0 0 32 32"><title>file_type_bazaar</title><path d="M23.418,8.449C17.727,2.634,16.918,2,16.17,2s-1.576.659-7.416,6.706c-6.364,6.59-7.034,7.359-6.18,8.7.235.37,6.168,6.374,6.228,6.435C14.477,29.586,15.2,30,15.72,30c.219,0,.492,0,2.8-2.155,1.276-1.192,2.922-2.812,4.636-4.563s3.3-3.433,4.466-4.736c2.1-2.352,2.1-2.625,2.1-2.845C29.725,15.245,29.26,14.42,23.418,8.449Z" style="fill:#fce94f"/><path d="M19.315,18.638c-1.455-2.081-2.193-4.1-1.969-4.683.084-.219.516-.344,1.184-.344.126,0,1.237-.01,1.237-.375,0-.6-3.321-5.565-3.78-5.656-.324-.061-1.03.759-2.1,2.446l-.036.057c-1.44,2.271-1.875,2.957-1.685,3.3.122.222.447.225.984.225h1.085v4.877a40.929,40.929,0,0,0,.219,5.251h0a3.532,3.532,0,0,0,1.475.219H17.25v-1.88a7.71,7.71,0,0,1,.152-1.87,3.448,3.448,0,0,1,1.1.822c.833.813,1.166,1.063,1.632.677C20.9,21.074,20.659,20.56,19.315,18.638Z" style="fill:#c4a000"/><path d="M14.093,23.224a38.676,38.676,0,0,1-.186-5.173V13.064H12.759c-1.391,0-1.4.019.783-3.417.985-1.554,1.727-2.449,1.986-2.4.4.08,3.692,5.021,3.692,5.549,0,.146-.507.266-1.127.266-.738,0-1.182.143-1.286.414-.264.688.635,2.858,1.982,4.785,1.38,1.975,1.5,2.375.839,2.92-.365.3-.6.2-1.486-.671-.58-.566-1.14-.943-1.246-.837a6.159,6.159,0,0,0-.192,1.963V23.41H15.492A3.487,3.487,0,0,1,14.093,23.224Z" style="fill:#555753"/><path d="M16.813,23.52H15.492a3.533,3.533,0,0,1-1.475-.219h0a40.93,40.93,0,0,1-.218-5.251V13.173H12.735c-.56,0-.883,0-1.007-.225-.19-.345.245-1.031,1.685-3.3l.036-.057c1.07-1.687,1.776-2.507,2.1-2.446.459.091,3.78,5.06,3.78,5.656,0,.365-1.11.375-1.237.375-.669,0-1.1.125-1.184.344-.223.582.515,2.6,1.969,4.683,1.343,1.922,1.58,2.435.819,3.067-.466.387-.8.137-1.632-.677a3.447,3.447,0,0,0-1.1-.822,7.708,7.708,0,0,0-.152,1.87Zm-2.633-.367a4.035,4.035,0,0,0,1.311.149h1.1V21.639a6.117,6.117,0,0,1,.224-2.04c.25-.25,1.134.577,1.4.836.939.917,1.069.889,1.339.665.563-.467.55-.757-.859-2.773-1.377-1.971-2.272-4.163-1.994-4.887.123-.322.59-.485,1.389-.485a1.938,1.938,0,0,0,1.023-.176A26.993,26.993,0,0,0,15.5,7.355c-.121-.022-.667.456-1.868,2.35l-.036.057c-1.2,1.9-1.805,2.848-1.678,3.08.062.112.4.11.815.112h1.281v5.1A46.7,46.7,0,0,0,14.18,23.153Z" style="fill:#2e3436"/><path d="M9.113,23.535c-3.276-3.315-6.053-6.178-6.17-6.362C2.3,16.166,2.8,15.5,9.069,9.01c5.2-5.382,6.484-6.572,7.1-6.572s1.9,1.171,6.936,6.318c4.346,4.442,6.182,6.5,6.182,6.946,0,.918-12.668,13.861-13.567,13.861C15.244,29.562,13.475,27.949,9.113,23.535Zm13.3-.74c4.256-4.371,6.316-6.683,6.316-7.087,0-.691-11.907-13.017-12.56-13-.447.011-12.282,12.035-12.811,13.016-.439.814-.157,1.174,5.376,6.867,6.036,6.21,6.539,6.692,6.972,6.692A82.622,82.622,0,0,0,22.412,22.8Z" style="fill:#555753"/><path d="M15.72,29.781c-.492,0-1.673-.942-6.763-6.092h0c-2.9-2.93-6.052-6.168-6.2-6.4-.731-1.15-.271-1.781,6.153-8.433C14.3,3.274,15.457,2.219,16.17,2.219s1.9,1.074,7.092,6.384c5.222,5.337,6.244,6.645,6.244,7.1,0,.722-4.982,5.868-6.509,7.428S16.431,29.781,15.72,29.781Zm.462-26.836C15.039,3.707,4.047,14.907,3.55,15.828c-.362.671-.012,1.1,5.341,6.61,5.285,5.438,6.4,6.555,6.778,6.623.425-.267,3.113-2.85,6.586-6.418h0C27.457,17.3,28.418,16,28.5,15.719,28.07,14.7,17.353,3.6,16.182,2.945ZM3,16.307a.846.846,0,0,0,.124.75c.076.106.833.9,2.059,2.164C3.636,17.566,3.081,16.831,3,16.307ZM23.677,9.654c2.655,2.77,5.269,5.627,5.269,6.054,0,.1,0,.234-.447.816a3.384,3.384,0,0,0,.57-.839C29.01,15.172,25.562,11.588,23.677,9.654ZM15.03,3.379c-.724.623-1.8,1.681-3.387,3.3C13.328,4.987,14.375,3.979,15.03,3.379Zm1.1-.457Zm.1-.007Z" style="fill:#2e3436"/></svg>