<svg xmlns="http://www.w3.org/2000/svg" viewBox="0 0 32 32"><title>file_type_layout</title><rect x="8.533" y="12.742" width="3.733" height="3.734" style="fill:#ff931e"/><rect x="14.133" y="12.742" width="3.733" height="3.734" style="fill:#ff931e"/><rect x="19.733" y="12.742" width="3.733" height="3.734" style="fill:#ff931e"/><rect x="8.533" y="18.342" width="3.733" height="3.734" style="fill:#ff931e"/><rect x="14.133" y="18.342" width="3.733" height="3.734" style="fill:#ff931e"/><rect x="19.733" y="18.342" width="3.733" height="3.734" style="fill:#ff931e"/><path d="M27.367,4.92H4.632A2.637,2.637,0,0,0,2,7.552v16.9A2.637,2.637,0,0,0,4.632,27.08H27.367A2.637,2.637,0,0,0,30,24.448V7.552A2.638,2.638,0,0,0,27.367,4.92Zm1.2,19.528a1.207,1.207,0,0,1-1.2,1.2H4.632a1.207,1.207,0,0,1-1.2-1.2V9.24H28.565V24.448Z" style="fill:#675f58"/></svg>