<svg xmlns="http://www.w3.org/2000/svg" viewBox="0 0 32 32"><title>file_type_plsql_package_header</title><path d="M7.123,2.051c2.078-.019,4.159,0,6.238-.008C12.868,4.166,12.4,6.295,11.9,8.419H2.413c-.3,0-.6.01-.9-.012C3.377,6.283,5.262,4.177,7.123,2.051Z" style="fill:#f2e6c9"/><path d="M17.676,2.044H23.9c1.868,2.126,3.754,4.234,5.617,6.363-1.2.025-2.4,0-3.6.011h-6.8C18.646,6.291,18.142,4.172,17.676,2.044Z" style="fill:#f2e6c9"/><path d="M13.361,2.044h4.315c.466,2.128.969,4.247,1.444,6.373H11.9C12.4,6.295,12.868,4.167,13.361,2.044Z" style="fill:#efc75e"/><path d="M1.513,8.406c.3.022.6.011.9.012H11.9q0,3.367.007,6.735a2.44,2.44,0,0,0,.256.018h6.746a1.9,1.9,0,0,0,.2-.014c.019-2.247,0-4.494.009-6.741h6.8c1.2-.006,2.4.014,3.6-.011V27.871H1.513Z" style="fill:#e7bf55"/><path d="M11.9,8.42H19.12c-.008,2.247.011,4.494-.009,6.741-.067.007-.134.012-.2.014H12.168a2.44,2.44,0,0,1-.255-.017C11.9,12.91,11.913,10.664,11.9,8.42Z" style="fill:#dbb551"/><rect x="3.557" y="21.539" width="9.37" height="3.608" style="fill:#f2f2f2"/><path d="M23.013,29.958c4.125,0,7.472-1.308,7.472-2.921V24.91a7.875,7.875,0,0,1-1.151.571l-.118.047a17.615,17.615,0,0,1-6.2,1.013,17.566,17.566,0,0,1-6.2-1.013l-.118-.047a7.875,7.875,0,0,1-1.151-.571v2.128C15.541,28.65,18.888,29.958,23.013,29.958Z" style="fill:#ffda44"/><path d="M17.435,23.929a11.708,11.708,0,0,0,1.95.556,19.567,19.567,0,0,0,7.257,0,11.711,11.711,0,0,0,1.95-.556c1.4-.545,1.894-1.151,1.894-1.5V19.887a8.029,8.029,0,0,1-1.269.619,17.617,17.617,0,0,1-6.2,1.007,17.618,17.618,0,0,1-6.2-1.011,8.122,8.122,0,0,1-1.269-.619v2.545C15.541,22.778,16.038,23.381,17.435,23.929Z" style="fill:#ffda44"/><path d="M17.435,18.9a15.869,15.869,0,0,0,5.578.9,15.869,15.869,0,0,0,5.578-.9c1.4-.545,1.894-1.151,1.894-1.5V14.733a7.768,7.768,0,0,1-1.563.807,16.72,16.72,0,0,1-5.909.977,16.77,16.77,0,0,1-5.909-.975,7.71,7.71,0,0,1-1.563-.809V17.4C15.541,17.751,16.038,18.358,17.435,18.9Z" style="fill:red"/><ellipse cx="23.013" cy="11.879" rx="7.472" ry="2.921" style="fill:red"/></svg>