<svg xmlns="http://www.w3.org/2000/svg" viewBox="0 0 32 32"><title>file_type_ai2</title><path d="M24.037,2.072h0l5.564,5.8V29.928H8.814V30H29.67V7.945L24.037,2.072" style="fill:#909090"/><path d="M23.965,2H8.742V29.928H29.6V7.873L23.965,2" style="fill:#231612"/><path d="M23.893,2.072V7.946h5.633L23.893,2.072" style="fill:#4c4442"/><path d="M23.965,2V7.873H29.6L23.965,2Z" style="fill:#f36617"/><path d="M2.384,10.264H8.743V3.432H2.384v6.832Z" style="fill:#909090"/><path d="M8.743,10.264H22.461V3.432H8.743v6.832Z" style="fill:#4c4442"/><path d="M22.407,10.211H2.33V3.379H22.407v6.832" style="fill:#f36617"/><path d="M18.1,20.619c-.275-1.07-.948-3.226-1.223-4.344h-.014c-.206,1.054-.769,2.859-1.181,4.344H18.1Zm-2.775,1.566-.838,2.779c-.014.1-.055.128-.137.128h-1.4c-.1,0-.124-.048-.1-.16.742-2.444,1.992-6.516,2.871-9.279a3.686,3.686,0,0,0,.11-.878.086.086,0,0,1,.082-.1h1.9c.069,0,.082.016.11.08,1.016,3.274,2.129,6.884,3.173,10.19q.041.144-.082.144H19.472c-.069,0-.1-.032-.124-.1l-.879-2.811H15.323" style="fill:#f46c25"/><path d="M22.29,17.547c0-.1.027-.128.094-.128h1.431c.081,0,.108.016.108.128v7.506c0,.08-.027.128-.108.128h-1.4c-.081,0-.121-.032-.121-.144v-7.49ZM22.2,15.374a.918.918,0,0,1,.918-.99.884.884,0,0,1,.891.99.908.908,0,1,1-1.809,0" style="fill:#f46c25"/><path d="M11.238,5.279h-.013L10.9,7.352h.652ZM9.5,9.3,10.56,4.44h1.355L12.948,9.3H11.81l-.15-1.133h-.882L10.634,9.3H9.5" style="fill:#231612"/><path d="M13.438,9.3V4.44h1.086V9.3H13.438" style="fill:#231612"/></svg>