<svg xmlns="http://www.w3.org/2000/svg" viewBox="0 0 128 128"><title>file_type_markdownlint</title><path d="M9.4,0H118.63A15.4,15.4,0,0,1,128,9.34V118.65a14.49,14.49,0,0,1-9.35,9.35H9.35A15.4,15.4,0,0,1,0,118.64V9.42A16.094,16.094,0,0,1,9.4,0m.96,8.45c-2.06,1.02-2.48,3.4-2.37,5.48.03,33.72-.02,67.43.03,101.15A4.33,4.33,0,0,0,12.93,120c34.37-.03,68.74.05,103.1-.04,2.64.21,4.36-2.49,3.97-4.89-.03-34.37.06-68.73-.04-103.1.15-2.59-2.55-4.17-4.88-3.94-33.37-.08-66.74.02-100.12-.05A15.167,15.167,0,0,0,10.36,8.45Z" style="fill:#755838"/><path d="M80,16c5.33-.01,10.66,0,16,0,.01,8-.01,16,0,24,5.82.04,11.64-.08,17.46.06-8.18,8.8-16.89,17.12-25.41,25.6-8.52-8.48-17.21-16.82-25.42-25.6,5.79-.13,11.58-.02,17.37-.06C80.01,32,79.99,24,80,16Z" style="fill:#755838"/><path d="M16.04,24.9c-.38-3.11,3.26-6.14,6.03-4.08C27.04,24.94,31.16,30.01,36,34.3c4.63-4.16,8.68-8.91,13.34-13.03,2.26-2.39,6.63-.56,6.58,2.69.19,13.34.02,26.7.08,40.04H48c-.04-10.05.07-20.09-.05-30.14-3.37,2.99-6.25,6.49-9.69,9.4a3.84,3.84,0,0,1-5.07-.47c-3.18-2.83-5.96-6.08-9.13-8.93C23.92,43.91,24.04,53.95,24,64H16C16.03,50.97,15.94,37.93,16.04,24.9Z" style="fill:#755838"/><path d="M16,72h8c.01,10.67-.01,21.33,0,32,2.67-.01,5.33.01,8,0v8H16Z" style="fill:#c1272d"/><path d="M40,72h8v8H40Z" style="fill:#c1272d"/><path d="M96,76h8c-.02,4,.02,8,0,11.99,2.66,0,5.33.02,8,.01v7.99c-2.67,0-5.33.02-8,.02-.01,5.33,0,10.66,0,15.99H96V96.01c-2.67,0-5.33-.02-8-.02V88c2.67.01,5.33-.01,8-.01C95.98,84,96.02,80,96,76Z" style="fill:#c1272d"/><path d="M40,88h8v24H40Z" style="fill:#c1272d"/><path d="M56,88H80v24H72V96H64v16H56Z" style="fill:#c1272d"/></svg>