<svg xmlns="http://www.w3.org/2000/svg" viewBox="0 0 32 32"><title>file_type_babel</title><path d="M26.881,11.231a1.512,1.512,0,0,1-.352.744l-.114-.073a2.473,2.473,0,0,0,.178-.543l-.032-.05c-.041,0-.1.114-.164.333l-.059,0a.258.258,0,0,0-.032-.105l-.027,0c-.539,1.5-.781,2.2-1.279,3.357-.091.3-.169.461-.237.493a.048.048,0,0,0,.059.046.736.736,0,0,1-.1.429,4.451,4.451,0,0,1-.461,1.092l.05.315a.045.045,0,0,1-.05.055l-.055,0q-.014-.13-.1-.123l-.027,0a1.328,1.328,0,0,0-.16.384l.055,0a.178.178,0,0,0,.1-.169l.11-.009.059.023a.324.324,0,0,0-.069.187l.027.05-.069.164,0,.027a.34.34,0,0,1,.206.059.394.394,0,0,0,.164-.064c.064,0,.292-.009.694-.009l.2-.069c.247,0,.283,0,.5-.014l.087-.009.046-.032,0,.027a1.309,1.309,0,0,1,.411.018l0,.027-.123.009,0,.05a.177.177,0,0,0,.1-.037c.032,0,.05.014.055.05a.946.946,0,0,0-.169.037l-.055-.018a.537.537,0,0,1-.123.032l-.087-.018a.025.025,0,0,1-.018.027c0,.032.018.05.05.046l.105-.009-.046-.018c0,.014.009.023.027.023l.452-.041L26.8,17.9a.022.022,0,0,0,.023.023l.082-.032.155-.014c.123-.009.119-.018.379-.059,0-.014,0-.023.018-.023v.023a2.32,2.32,0,0,0,.557-.114l-.023-.055a.915.915,0,0,1-.21.023l-.379.018,0-.027.21-.027.078,0,.041-.032,0,.027a7.333,7.333,0,0,0,1.786-.242c.073,0,.069-.069.114-.2a.134.134,0,0,1-.073-.018,2.052,2.052,0,0,1-.393.059c-.018,0-.032-.014-.041-.05v-.023l.21.009a.524.524,0,0,0,.228-.073c.023.014-.018.027,0,.023l.037,0c.023,0,.032-.018.032-.055l-.023-.05a.683.683,0,0,0-.324.082l0-.027-.174.018c0-.055-.018-.078-.041-.078l-.091.009c-.105.009-.155,0-.206.046,0-.018-.009-.027-.018-.027l-.1.009-.059.032c0-.018-.009-.027-.018-.027l-.037.032,0-.027L28.4,17.04l-.032,0,0,.05.073.018.064,0a.15.15,0,0,0,.078.018l.059-.027v.023a4.743,4.743,0,0,1-.548.105.111.111,0,0,0-.055-.023c-.023.023.027,0,.014,0a.048.048,0,0,1-.059-.046l.114-.014a.684.684,0,0,0,.078.023c.091-.046.1-.064.146-.069l0-.05a2.986,2.986,0,0,1-.594.055h-.018l0-.05c.516-.064.343-.027.516-.078,0,.018.009.027.018.027a.108.108,0,0,1,.073-.032l.037,0a1.83,1.83,0,0,0,.6-.078v.023l.059-.027.055,0c0-.055.078-.059.1-.064l0-.055c-.626.128-.79.091-.964.142v-.023a.72.72,0,0,1-.21.018.091.091,0,0,0-.05.032c0-.018-.009-.027-.023-.027s-.014.009-.037.032l.037-.032-.543.087a.022.022,0,0,0-.023-.023,2.542,2.542,0,0,1-.571.1.133.133,0,0,0-.069.027c0-.014-.009-.023-.027-.023l-.228.018-.151.037c0-.014-.009-.023-.027-.023a1.274,1.274,0,0,1-.219.041h0c-.037,0,.018-.009-.009-.023L26,17.154c-.069,0-.032,0-.26,0-.4.05-.356.055-.4.059l-.151-.009c0,.014,0,.023-.023.027q-.253-.034-.26-.082c.023-.16.059-.242.119-.251l.027,0-.027.055.027,0c.055-.027.078-.055.078-.082l0-.055-.055,0,0-.05a.2.2,0,0,1,.014-.105l.123-.2,0,.05.059,0,0-.05-.032-.05a.192.192,0,0,1,.105-.059l0-.027-.078,0,0-.078a2.393,2.393,0,0,0,.228-.571l.055.023c.037,0,.055-.023.05-.059l-.055,0V15.62a.214.214,0,0,1,.018-.11.335.335,0,0,0,.114-.274.024.024,0,0,1,.027.027c.073-.041.128-.151.169-.333a10.563,10.563,0,0,0,.548-1.393,7.884,7.884,0,0,0,.5-1.649l-.055,0a.17.17,0,0,1-.023.105.3.3,0,0,0-.087-.023v-.023a.633.633,0,0,1,.137-.384H26.9l.046.178.055,0c0-.014.014-.082.041-.215,0-.027-.023-.041-.064-.046l-.05.032c0-.037,0-.132,0-.292l-.05.009Zm-.658.79.027,0c-.041.073-.073.114-.105.119l0-.078A.207.207,0,0,0,26.223,12.021Zm-.228.548c.055-.224.11-.352.16-.384l0,.027c-.027.21-.073.315-.137.324l.009.132a.262.262,0,0,0-.069.164l-.027,0-.014-.183c.027,0,.055-.032.073-.087Zm-.087.3a.653.653,0,0,1-.059.215l-.027,0,0-.078C25.848,12.916,25.88,12.87,25.908,12.866Zm-1.5,3.32.027.05q.062-.007.055-.055l0-.027-.027,0-.05.027Zm.722.6v.023c.041,0,.082-.078.119-.219l-.055-.018a.963.963,0,0,0-.064.215Zm4.622.16v.023l-.046.055.087-.032H29.8l0-.05h-.018l-.032.027c0-.014.1-.041.023-.055C29.753,16.935,29.79,16.939,29.749,16.944Zm.178.164.123-.009c0-.032-.082-.041-.11-.041h-.018l0,.05Zm-2.183.046.037.046c0-.014,0-.023.018-.023l.027.05-.114-.014C27.7,17.177,27.716,17.159,27.744,17.154Zm-.374.041a.058.058,0,0,1,.069.059H27.31v-.023A.147.147,0,0,0,27.369,17.2Zm.292-.014,0,.027-.105.009,0-.027Zm-1.06.11c0,.014.009.023.027.023.169-.032.151-.037.233-.046.027,0,.041.014.046.046l-.47.041.046.023,0-.027-.178.014,0-.027.16-.014.146-.032Zm.484-.041v.023c-.014,0,.046,0,.018.027a.909.909,0,0,0-.178-.014v-.023Zm.119-.014v.023l-.087.009v-.023Zm-2.923.466,0,.078c-.027,0-.05-.014-.059-.05v-.023l.055,0Zm3.909-.069,0,.05.091-.009-.037-.023,0,.027.091-.037c.626-.069.7-.041.69-.114v-.023a3.757,3.757,0,0,1-.845.128Zm.977-.087.091.018,0-.05-.091-.018Zm-2.7.178c.027.014-.032.027,0,.023l.32-.027,0,.027a.357.357,0,0,0-.169.041.024.024,0,0,0-.027-.027l-.137.014,0-.027c.037,0-.018,0,.009-.023Zm1.48-.037.027.05c.105-.023.046-.018.073-.041,0,.018.009.027.018.027l.073,0,0-.055-.192,0,0,.027Zm-1.809.2h-.018l0-.05h.018Zm-1.429.174,0,.027.84-.069,0-.05-.671.055L24.734,18Zm.936-.05h.009l0-.05h-.009ZM12.855,13.6a10.257,10.257,0,0,0-.923,1.174c-.242.251-.361.4-.347.452-.064.041-.091.082-.082.128a.028.028,0,0,1-.037-.023.713.713,0,0,1-.461.324l-.215.05c-.027,0-.041.027-.041.064l0,.027.082-.018,0,.023-.183.069-.324.073-.169.009c-.023.023.132,0,.073.014l-.21.05c-.128.032-.2.018-.21-.032l-.023,0c.014.05,0,.082-.037.091l.041-.009-.018-.078-.384.091.041.018c0-.018-.023-.023-.059-.014l-.05.041-.059-.014a.447.447,0,0,1-.1.05l-.059-.014c-.16.091-.041.091-.05.091l.014.05.091-.023.142-.009-.014.059c-.521.137-.142.059-.283.091l-.027,0,.014.05.082-.018,0,.027a.383.383,0,0,0-.183.069l0-.027a.793.793,0,0,0-.411.311c.023.1-.274.224,1.123-.1.1,0,.151,0,.164-.009,0-.018,0-.027.023-.032.155-.018.082.009.178-.014l.3-.069-.064.037c0-.014,0-.023.018-.027a.244.244,0,0,0,.114,0l.018.078L9.17,18.574,8.9,18.9l-.128.434.023,0,.128-.055-.041.169.014.05.037.046c-.018,0-.023.014-.018.032l0,.027.055-.014c.078-.069.11-.132.1-.187a.666.666,0,0,0,.169.014l0,.027q-.075.021-.082.123l0,.027.027,0c.434-.47,1.489-2.083,2.338-3.179q-.041-.178,1.329-.493l.027,0a2.85,2.85,0,0,1-.21,1.041,3.159,3.159,0,0,0-.16.543,4.04,4.04,0,0,0-.206.717L12,19.273a9.418,9.418,0,0,0-.48,1.717A.213.213,0,0,1,11.6,21l.046-.041c0,.018.014.023.037.023l-.018-.078.142,0c.041-.009.078-.064.105-.16,0-.142.023-.219.087-.237a2.292,2.292,0,0,1,.16-.516,2.3,2.3,0,0,1,.183-.58c.123-.438.21-.667.269-.68l.014.055-.087.233a11.35,11.35,0,0,1-.475,1.64l.046.2.027,0a42.59,42.59,0,0,0,1.667-4.932.647.647,0,0,1,.311-.5l-.041-.041,0-.023a.277.277,0,0,0,.174-.1q-.007-.027-.219-.082l.429-1.836a12.323,12.323,0,0,0,.26-1.448l0-.027a.99.99,0,0,1-.251-.233v-.11l0-.023-.023,0c-.265.4-.795,1.1-1.576,2.1Zm.607.416a1.169,1.169,0,0,1-.105.534c-.027.329-.146.516-.352.566l0-.027-.183.069-.082.018a.193.193,0,0,1-.114,0l-.018-.073A10.6,10.6,0,0,1,13.4,14l.064.009Zm-.42,1.142.059-.014.014.05c-.288.087-.448.132-.48.142a.207.207,0,0,0-.078.046c0-.018-.041-.018-.114,0-.014-.05.187-.123.6-.219Zm-2.836.767.064-.014-.014-.055-.064.014Zm.836-.219.014.05-.137.009,0-.027.128-.032Zm-1.6.525,0,.027-.087.018,0-.027Zm-.16.333,0,.023-.105.023-.014-.05.114,0Zm.251-.055,0,.023-.192.046,0-.023Zm.333-.055,0,.027-.5.114-.014-.05c.292-.05.26-.032.511-.091Zm2.516-.585.041.046a.28.28,0,0,0-.128.055l-.059-.009a1.565,1.565,0,0,1-.237.078l-.055.014a.053.053,0,0,1-.069-.037l.379-.087.128-.059Zm.269-.059.269-.064,0,.027a1.513,1.513,0,0,0-.343.11l0-.027A.189.189,0,0,0,12.654,15.807Zm-2.832.767.128-.027.014.05c-.055.014-.014.014-.082.046a1.305,1.305,0,0,0-.315.046l0-.027Zm.347-.059c.037-.009.059,0,.064.041l-.078.018q-.048.014-.069-.041l.082-.018ZM8.741,19.4l0,.027c.037-.009.05-.027.041-.064l0-.027A.051.051,0,0,0,8.741,19.4Zm.11.457a.046.046,0,0,0,.064.037c.037-.009.05-.027.041-.064l0-.027-.055.014-.046.041Zm15.294-7.9.206-.058c.082.009.123.027.123.05a1,1,0,0,1,.26-.055l0-.032-.21-.009-.411.069h0l-.178-.014q0,.021.054.057Zm-12.38,8.683a.046.046,0,0,1,.064.037l0,.027-.105.023a.176.176,0,0,0,0-.082l.032,0Zm4.229-8.449a8.912,8.912,0,0,1-.808.511l0,.05a.194.194,0,0,0,.082-.037.048.048,0,0,1,.059.046l.05-.027H15.4v.023a2.885,2.885,0,0,1-.562.438l.027.055h-.023l-.059-.023c0,.018-.023.032-.078.037v.023l.059.073a.2.2,0,0,1-.087-.023.536.536,0,0,0-.361.265l.027.05a.74.74,0,0,1,.183-.146l0,.078a.194.194,0,0,0-.082.037l.069.1a2.075,2.075,0,0,1,.406-.347c.073.023.114.046.114.069l.055,0a4.427,4.427,0,0,1,1.21-.649l0,.05c-.073.11-.123.164-.151.169a.259.259,0,0,0,.032.1,9.748,9.748,0,0,1-.539,1.37,37.954,37.954,0,0,1-2.1,4.352.162.162,0,0,0,.037.078.678.678,0,0,0,.265-.1h.023l0,.05.059,0,.05-.027c0,.014.018.023.055.018l0,.055a.517.517,0,0,1-.087.237,1.165,1.165,0,0,0-.187.406l0,.027.055,0a3.247,3.247,0,0,0,.516-.749,8.532,8.532,0,0,0,1.516-.571,1.442,1.442,0,0,0,.8-.274l0-.027-.137.041-.027,0,0-.027a1.146,1.146,0,0,0,.534-.174c.5-.388.881-.662,1.142-.822.795-.585,1.169-1.142,1.123-1.681a3.132,3.132,0,0,0-.525-.658q-.007-.11.356-.315l.694-.6a1.736,1.736,0,0,0,.274-.959l-.009-.1c-.027-.306-.251-.553-.671-.744a2.7,2.7,0,0,0-1.343-.279,7.608,7.608,0,0,0-2.083.566Zm3.718.037-.027.055-.767-.324c.516.023.781.11.795.269ZM16.6,14.368c.055-.288.114-.448.178-.484l.58-1.3c0-.078.114-.142.365-.187l.082-.009,0,.078c.247-.041.4-.064.461-.069.457-.041.694.055.712.274l.055,0-.009-.123.055,0a.345.345,0,0,1,.21.265.463.463,0,0,1-.11.274c-.037,0-.055-.023-.059-.073l-.055,0-.018.155c-.233.352-.4.53-.5.539q-.137.192-.178.192a3.082,3.082,0,0,1-.594.443,7.621,7.621,0,0,0-1.2.466.221.221,0,0,0-.11-.014l0-.05a.66.66,0,0,1,.132-.374Zm3.188-1.6,0,.055c-.027,0-.078-.082-.16-.247l0-.05C19.674,12.523,19.729,12.605,19.783,12.77Zm-5.06.621,0,.027a.241.241,0,0,0-.082.032h-.023l0-.05ZM16.4,13.35l0,.078c-.027,0-.059.041-.1.11l0-.05a.266.266,0,0,0,.069-.137Zm-.26.539.009.1-.027,0-.009-.1Zm-.064.187q-.007.13-.069.137l-.027,0a.248.248,0,0,0,.041-.137l.055,0Zm-.119.269,0,.027-.046.082-.055,0,0-.027c.055,0,.082-.032.078-.087Zm-.114.242-.018.132H15.8l-.009-.132Zm2.813.1.114.069a.045.045,0,0,1-.05.055.182.182,0,0,0-.114-.041v-.078l.05,0Zm-2.2.292,0,.05-.11.009,0-.05Zm1.777.187c.078.037.114.069.119.1v.023a.242.242,0,0,1-.206-.114Zm-2.288.562a6.072,6.072,0,0,0,1.471-.438l.169-.014a.946.946,0,0,1,.758.2l.009.1q-.185.534-.411.63l-.69.557a6.493,6.493,0,0,1-.84.511,6.267,6.267,0,0,1-1.534.7l-.027,0q.027-.144,1.1-2.252Zm.744-.3,0,.027-.11.009,0-.027Zm2.489-.114.018.21c-.027.05-.05.078-.078.082l-.032-.356C19.144,15.268,19.176,15.291,19.176,15.314ZM14.961,17.1c-.037.174-.073.265-.11.265v-.023A.267.267,0,0,1,14.961,17.1Zm.69.977a8.4,8.4,0,0,0,1.658-.868l0,.05c0,.023-.073.091-.233.2a5,5,0,0,0-.813.457c-.5.174-.744.283-.74.324a7.544,7.544,0,0,0-.872.384.26.26,0,0,1-.142-.041.216.216,0,0,1,.119-.215.5.5,0,0,1,.219.032,2.557,2.557,0,0,1,.429-.142l0-.05-.169.014A1.9,1.9,0,0,1,15.582,18l.082-.009v.023c-.142.014-.219.055-.237.128a.048.048,0,0,0,.059.046c.114-.055.164-.1.164-.11Zm-.854-.626v.023a.047.047,0,0,1-.05.059l0-.027c0-.023.018-.046.055-.055Zm1.3.356a1.232,1.232,0,0,0-.37.16l-.027,0,0-.05a.554.554,0,0,0,.343-.155c.037,0,.055.009.059.041Zm-1.343.374.082-.009,0,.027a.241.241,0,0,0-.082.032l-.055,0c0-.027.014-.046.05-.055Zm-.553.306.055.023c-.018.16-.069.242-.142.247a.354.354,0,0,0-.169-.037l0-.078c0-.027.014-.046.05-.055s.055.023.059.073A1.092,1.092,0,0,1,14.2,18.492ZM5.242,11.966a9.761,9.761,0,0,1-1.064.671l0,.069a.285.285,0,0,0,.105-.041c.046,0,.073.014.073.059l.073-.041.037,0,0,.032a4.1,4.1,0,0,1-.744.58l.041.064-.037,0-.078-.027c0,.023-.032.037-.105.041l0,.037.082.091a.292.292,0,0,1-.11-.023.711.711,0,0,0-.475.352l.041.064a.976.976,0,0,1,.237-.187l.009.1a.318.318,0,0,0-.105.041l.087.128a2.556,2.556,0,0,1,.543-.452c.1.027.151.055.151.091l.073,0a5.792,5.792,0,0,1,1.589-.859l0,.069c-.1.146-.164.219-.2.224a.277.277,0,0,0,.05.132,12.236,12.236,0,0,1-.712,1.8A50.859,50.859,0,0,1,2.05,20.716a.271.271,0,0,0,.041.1.956.956,0,0,0,.352-.132l.041,0,0,.069.069,0L2.63,20.7c0,.023.027.032.073.027l0,.069a.614.614,0,0,1-.119.315,1.643,1.643,0,0,0-.242.534l0,.032.069,0a4.388,4.388,0,0,0,.68-.982,10.922,10.922,0,0,0,2-.754,1.874,1.874,0,0,0,1.055-.361l0-.037-.174.05-.041,0,0-.037a1.584,1.584,0,0,0,.7-.228c.662-.511,1.16-.872,1.5-1.087,1.046-.767,1.539-1.507,1.48-2.21a4.134,4.134,0,0,0-.69-.863c-.009-.1.151-.233.47-.416l.909-.8a2.361,2.361,0,0,0,.365-1.26l-.014-.137c-.037-.406-.329-.735-.886-.986A3.438,3.438,0,0,0,8,11.217a10.815,10.815,0,0,0-2.754.749Zm4.9.059-.027.069L9.1,11.669q1.014.041,1.041.356Zm-4.1,2.813c.069-.374.146-.589.233-.639l.758-1.7c-.009-.105.151-.187.484-.242l.11-.009.009.1c.329-.05.53-.078.607-.087.6-.05.913.069.941.365l.069,0-.014-.174.073,0a.455.455,0,0,1,.283.356.533.533,0,0,1-.155.356c-.046,0-.073-.027-.078-.1l-.073,0-.018.206c-.306.457-.525.69-.662.7q-.185.253-.233.26a4.18,4.18,0,0,1-.786.585,10.239,10.239,0,0,0-1.576.612.261.261,0,0,0-.146-.023l0-.064a.846.846,0,0,1,.178-.5Zm4.2-2.1,0,.064c-.037,0-.105-.105-.206-.324l0-.064C10.092,12.4,10.161,12.514,10.234,12.738Zm-6.668.813,0,.032a.318.318,0,0,0-.105.041l-.037,0,0-.064ZM5.772,13.5l.009.1c-.032,0-.078.05-.132.146l0-.069a.339.339,0,0,0,.1-.178Zm-.338.712.014.137-.037,0L5.4,14.213Zm-.087.247c-.009.114-.037.174-.1.178l-.037,0a.349.349,0,0,0,.059-.174Zm-.151.356,0,.032-.064.11-.069,0,0-.032a.091.091,0,0,0,.1-.11l.037,0Zm-.155.32-.018.169-.037,0-.014-.169Zm3.7.123.151.091a.064.064,0,0,1-.064.078.3.3,0,0,0-.151-.059l-.009-.1Zm-2.9.388,0,.064-.142.014,0-.064Zm2.338.237c.1.046.151.091.155.128l0,.032a.3.3,0,0,1-.265-.151Zm-3.014.74a8.029,8.029,0,0,0,1.941-.575l.215-.018a1.243,1.243,0,0,1,1,.256l.014.137c-.164.475-.347.749-.543.836l-.913.726a8.928,8.928,0,0,1-1.1.676,8.172,8.172,0,0,1-2.019.927l-.041,0c.037-.128.516-1.114,1.448-2.969Zm.986-.388,0,.032-.146.014,0-.032Zm3.279-.146.023.269c-.032.073-.064.11-.1.11l-.041-.475C9.394,16.021,9.43,16.053,9.435,16.085ZM3.877,18.442c-.046.233-.1.352-.146.356l0-.032a.389.389,0,0,1,.151-.324ZM4.79,19.73a11.7,11.7,0,0,0,2.183-1.142l0,.064c0,.027-.1.114-.306.265a5.55,5.55,0,0,0-1.069.607c-.658.228-.982.37-.977.425a11,11,0,0,0-1.151.507.421.421,0,0,1-.187-.05.3.3,0,0,1,.16-.292.581.581,0,0,1,.292.046,2.82,2.82,0,0,1,.566-.183l0-.069-.215.018a3.074,3.074,0,0,1,.626-.292l.11-.009,0,.032c-.183.014-.288.073-.311.169a.06.06,0,0,0,.073.059.883.883,0,0,0,.2-.155ZM3.667,18.9l0,.032a.064.064,0,0,1-.064.078l0-.032A.068.068,0,0,1,3.667,18.9Zm1.708.466a1.621,1.621,0,0,0-.489.215l-.037,0,0-.069a.693.693,0,0,0,.448-.206C5.343,19.305,5.37,19.328,5.375,19.369ZM3.6,19.862l.11-.009,0,.037a.285.285,0,0,0-.105.041l-.069,0C3.539,19.9,3.557,19.876,3.6,19.862Zm-.726.406.078.032c-.027.206-.087.311-.192.32a.468.468,0,0,0-.224-.046l-.009-.1c0-.041.018-.064.069-.078s.073.027.078.1a1.5,1.5,0,0,1,.2-.224Zm20.259-8.974-.059-.023-.973.151a.246.246,0,0,0-.132-.023,1.782,1.782,0,0,0-.26.055l-.47.2.037.059a.232.232,0,0,0,.1-.037l.164.014-.023.155a.413.413,0,0,0-.265.3q-.343.151-.343.219l0,.027.037,0,.064-.032.073.087.009.119q.007.055-1.16,2.448-1.007,2.3-1.06,2.526c-.228.064-.365.16-.4.283,0,.041.073.064.206.078l0,.059-.059.1.009.119c0,.064.174.11.5.146,0-.023.009-.032.032-.037a1.85,1.85,0,0,1-.064.438l.037,0a.791.791,0,0,0,.2-.388l.027,0c.032,0,.069.037.11.119a4.958,4.958,0,0,0-.434.991l.037.059.037,0a7.626,7.626,0,0,1,.575-1.283c.4-.037,1.092-.105,2.078-.21l.059-.037c0,.023.014.032.037.027l.064,0,.059-.037c0,.023.014.032.037.027l.744-.064c.2-.018.292-.078.283-.178,0-.027.114-.059.352-.091a.359.359,0,0,1,.1.018c0-.018.114-.037.352-.059,0-.123.046-.192.119-.2l0-.059a1.043,1.043,0,0,0-.228.05,1.2,1.2,0,0,1-.3-.037.232.232,0,0,1-.1.037l-.521.018-.064.032c0-.018-.014-.027-.037-.023l-.027,0-.069.032c0-.018-.055-.032-.164-.046l-.064.037-.128.009,0-.032c.667-.073,1-.164.991-.274.041,0,.064.018.069.059l.2-.05,0-.059-1.6.046c0,.023-.009.032-.032.037l-.2-.018a.212.212,0,0,0-.123.046l-.073-.027a2.312,2.312,0,0,0-.452.073,3.084,3.084,0,0,0-.457,0l-.361.032-.164-.018a8.135,8.135,0,0,1,.621-1.562,1.374,1.374,0,0,1,.343-.585.27.27,0,0,1,.1.023l.256-.087.132.023a3.094,3.094,0,0,0,.767-.187.421.421,0,0,1,.164.014l.2-.046.58-.05a4.125,4.125,0,0,0,.8-.164l0-.059c-.11.009-.164-.009-.169-.05-.009-.082-.087-.114-.237-.1l0-.059.16-.046.42-.037,0-.059c-.018,0-.1,0-.26,0l0-.064.164-.014c.041,0,.064-.027.059-.064-.219,0-.329,0-.329-.032a14.318,14.318,0,0,1-2.283.041.2.2,0,0,0-.1.041L21.4,14.08a4.964,4.964,0,0,1,.708-1.292.335.335,0,0,1-.05.16l0,.027.064,0c.16-.384.292-.58.406-.589.475-.041-.069-.073.954-.233a.173.173,0,0,0,.091.023c.4-.082.959-.164,1.676-.251l0-.059-.384.037,0-.059a.2.2,0,0,0,.114-.046l0,.032a.161.161,0,0,0,.087-.041.3.3,0,0,1,.151.018,2.052,2.052,0,0,1,.32-.064l.237-.023c.059-.037.087-.069.082-.1v-.027a.879.879,0,0,1-.21-.014c0-.032.014-.055.055-.064l.443-.041.206-.05c0,.023.014.032.027.032a.161.161,0,0,0,.087-.041.845.845,0,0,0,.183.014.887.887,0,0,1,.283-.183.223.223,0,0,1-.073-.114l-.3.027a.272.272,0,0,0-.032-.091c0-.027.064-.055.2-.082l.059.023.055-.032a.023.023,0,0,0,.032.023l.055-.032a.023.023,0,0,0,.032.023l.027,0,0-.059c-.041,0-.151,0-.324,0l-.055.037,0-.032c-1.393.114-2.183.178-2.37.2-.023,0-.123,0-.292,0,0,.023-.018.037-.059.037l-.059-.027-.206.05a1.683,1.683,0,0,1-.242-.009.232.232,0,0,1-.114.046c-.046,0,1.105-.064,1.069-.082l-.178.05-.027,0a1.458,1.458,0,0,1-.274-.009.276.276,0,0,1-.146.046.2.2,0,0,1-.119-.023c-.05.014-.2.05-.443.1Zm.073.183c0,.023.023.032.059.027l0,.059-.059,0a.2.2,0,0,1-.119-.023.21.21,0,0,1-.114.046H23l-.164-.018,0-.027a1.449,1.449,0,0,0,.379-.069Zm.151-.014.032,0,0,.059-.091.009A.06.06,0,0,1,23.359,11.464Zm.352-.037,0,.032a1.21,1.21,0,0,0-.26.055l-.032,0,.027-.064.26-.027Zm-2.594.3.1-.009,0-.059-.1.009Zm.717-.064.037,0,.069.027a.053.053,0,0,1-.059.064l-.1.009,0-.032C21.77,11.692,21.793,11.674,21.834,11.66Zm2.3.132v.027l-.206.018v-.027Zm-.589.087,0,.032-.119.009,0-.032Zm.16.137c.041,0,.059.014.064.055l-.174.018,0-.059.114-.014Zm.442-.056-.118.033-.042-.026-.643.03,0,.032,1.069-.05,0-.032Zm-.739.12v.027l-.233.023V12.1Zm-1.53,1.21,0,.032.069,0a.235.235,0,0,1,.023-.1l0-.059c-.037,0-.069.046-.091.128Zm-2.352,3.416,0,.027c0,.041-.018.064-.064.069l0-.027C19.455,16.738,19.477,16.72,19.523,16.706Zm-.059.128a1.68,1.68,0,0,1-.119.443l-.1.009a1.943,1.943,0,0,1,.155-.443l.064-.009Zm1.1.954c0,.032-.05.069-.155.105l-.2-.014-.064,0,0-.059.425-.037Zm.2.018,0,.027-.164.014,0-.027Z" style="fill:#f4d44b"/></svg>