<svg xmlns="http://www.w3.org/2000/svg" xmlns:xlink="http://www.w3.org/1999/xlink" viewBox="0 0 32 32"><defs><linearGradient id="a"><stop offset="0.15" stop-color="#2a4f84" /><stop offset="0.39" stop-color="#294e82" /><stop offset="1" stop-color="#172e4e" /></linearGradient><clipPath id="b"><path d="m0 0h223v236h-223z" fill="#fff" /></clipPath><linearGradient id="c"><stop offset="0" stop-color="#de3641" /><stop offset="1" stop-color="#b13138" /></linearGradient><linearGradient id="d"><stop offset="0" stop-color="#de3641" /><stop offset="1" stop-color="#de3641" stop-opacity="0" /></linearGradient></defs><title>file_type_ng_component_less</title><g transform="matrix(.11923 0 0 .11923 2.7608 1.986)" clip-path="url(#b)"><path d="m222.08 39.192-8.019 125.92-76.671-165.12zm-53.105 162.82-57.933 33.056-57.934-33.056 11.783-28.556h92.301zm-57.933-139.34 30.357 73.803h-60.715zm-103.1 102.44-7.937-125.92 84.69-39.192z" fill="url(#c)" /><path d="m222.08 39.192-8.019 125.92-76.671-165.12zm-53.105 162.82-57.933 33.056-57.934-33.056 11.783-28.556h92.301zm-57.933-139.34 30.357 73.803h-60.715zm-103.1 102.44-7.937-125.92 84.69-39.192z" fill="url(#d)" /></g><path d="M28.93,27.94a1.9,1.9,0,0,1-1.9,1.9H11.1a1.9,1.9,0,0,1-1.9-1.9v-6A1.9,1.9,0,0,1,11.06,20H27a1.9,1.9,0,0,1,1.9,1.9Z" style="fill:url(#a)" /><path d="M25.6,24.79a1.56,1.56,0,0,1,1.25,1.5,1.34,1.34,0,0,1-.52,1.11,2.32,2.32,0,0,1-1.47.44,3.61,3.61,0,0,1-1.77-.49,1.57,1.57,0,0,1,.13-.53,1.45,1.45,0,0,1,.28-.46,2.93,2.93,0,0,0,1.31.39.76.76,0,0,0,.4-.09.27.27,0,0,0,.14-.24q0-.28-.43-.42l-.52-.2q-1.17-.43-1.17-1.39a1.39,1.39,0,0,1,.49-1.12A2,2,0,0,1,25,22.78a4,4,0,0,1,.91.12,3.61,3.61,0,0,1,.82.37,1.32,1.32,0,0,1-.1.57,1,1,0,0,1-.3.44A3.37,3.37,0,0,0,25,23.93a.43.43,0,0,0-.29.08.27.27,0,0,0-.1.21q0,.22.36.35l.58.21Z" style="fill:#f6f6f6" /><path d="M21.44,24.79a1.56,1.56,0,0,1,1.25,1.5,1.34,1.34,0,0,1-.52,1.11,2.33,2.33,0,0,1-1.47.44,3.61,3.61,0,0,1-1.77-.49,1.57,1.57,0,0,1,.13-.53,1.44,1.44,0,0,1,.28-.46,2.93,2.93,0,0,0,1.31.39.76.76,0,0,0,.4-.09.27.27,0,0,0,.14-.24q0-.28-.43-.42l-.52-.2q-1.17-.43-1.17-1.39a1.39,1.39,0,0,1,.49-1.12,2,2,0,0,1,1.33-.51,4,4,0,0,1,.91.12,3.6,3.6,0,0,1,.82.37,1.32,1.32,0,0,1-.1.57,1,1,0,0,1-.3.44,3.37,3.37,0,0,0-1.31-.35.43.43,0,0,0-.29.08.27.27,0,0,0-.1.21q0,.22.36.35Z" style="fill:#f6f6f6" /><path d="M18.4,24.85a2.23,2.23,0,0,0-.14-.79,1.77,1.77,0,0,0-.39-.62,1.81,1.81,0,0,0-.62-.41,2.17,2.17,0,0,0-.81-.25,2.22,2.22,0,0,0-.93.29,1.79,1.79,0,0,0-.66.51,2.19,2.19,0,0,0-.39.77,3.48,3.48,0,0,0-.13,1,4.5,4.5,0,0,0,.1,1,2.08,2.08,0,0,0,.35.79,1.67,1.67,0,0,0,.65.52,2.32,2.32,0,0,0,1,.22,3.13,3.13,0,0,0,1.84-.56,1.48,1.48,0,0,0-.38-.86,4.9,4.9,0,0,1-.68.21,2.54,2.54,0,0,1-.52.06.81.81,0,0,1-.65-.23.94.94,0,0,1-.21-.61h2.44A3.52,3.52,0,0,0,18.4,24.85Zm-2.57.06a1.93,1.93,0,0,1,.17-.79.5.5,0,0,1,.44-.21.52.52,0,0,1,.46.22,1.38,1.38,0,0,1,.15.68v.1Z" style="fill:#f6f6f6" /><path d="M29.42,25.54a1.27,1.27,0,0,0-.42,1v1.62a1.43,1.43,0,0,1-.54,1.23,2.22,2.22,0,0,1-1.31.43h-.3V29a1,1,0,0,0,.47-.26,1.08,1.08,0,0,0,.33-.83v-1.3a2,2,0,0,1,.2-1,2,2,0,0,1,1-.66,2,2,0,0,1-1-.93,2.34,2.34,0,0,1-.11-.92V21.9a1.15,1.15,0,0,0-.29-.83.91.91,0,0,0-.51-.25V20h.73a1.33,1.33,0,0,1,.81.35,1.58,1.58,0,0,1,.53.8,1.84,1.84,0,0,1,.07.55v1.4a1.46,1.46,0,0,0,.4,1.09,1.67,1.67,0,0,0,.68.38v.63a1.54,1.54,0,0,0-.65.34Z" style="fill:#f6f6f6;stroke:#404040;stroke-miterlimit:10;stroke-width:0.25px" /><path d="M10.75,20h-.26a1.32,1.32,0,0,0-.81.35,1.35,1.35,0,0,0-.53.8,2.8,2.8,0,0,0,0,.55v1.4a1.48,1.48,0,0,1-.43,1.1,2.25,2.25,0,0,1-.78.38v.63a2,2,0,0,1,.75.34,1.3,1.3,0,0,1,.46,1v1.62a1.41,1.41,0,0,0,.5,1.23,2.22,2.22,0,0,0,1.31.44h.33V29a1.16,1.16,0,0,1-.51-.26,1.07,1.07,0,0,1-.29-.83V26.62a2,2,0,0,0-.24-1,2,2,0,0,0-1-.66,2,2,0,0,0,1-.93,2.26,2.26,0,0,0,.14-.92v-1.2A1.16,1.16,0,0,1,10.7,21a1,1,0,0,1,.46-.21h.34V20Z" style="fill:#f6f6f6;stroke:#404040;stroke-miterlimit:10;stroke-width:0.25px" /><path d="M13.87,26.59h-.25c-.28,0-.38-.14-.38-.44V20.81a1,1,0,0,0-.21-.68C12.91,20,12.7,20,12.4,20h-.64v6.42a1.48,1.48,0,0,0,.28,1,1.14,1.14,0,0,0,.91.31,6.22,6.22,0,0,0,1-.09,1.77,1.77,0,0,0,0-.4,1.8,1.8,0,0,0-.11-.62Z" style="fill:#f6f6f6" /></svg>
