<svg xmlns="http://www.w3.org/2000/svg" xmlns:xlink="http://www.w3.org/1999/xlink" viewBox="0 0 32 32"><defs><linearGradient id="linear-gradient" x1="-2.413" y1="32.987" x2="-2.401" y2="32.984" gradientTransform="matrix(561.015, 0, 0, -1011.593, 1365.643, 33384.042)" gradientUnits="userSpaceOnUse"><stop offset="0" stop-color="#919191"/><stop offset="1" stop-color="#fff"/></linearGradient><linearGradient id="linear-gradient-2" x1="-4.202" y1="33.569" x2="-4.191" y2="33.566" gradientTransform="matrix(373.691, 0, 0, -614.108, 1582.079, 20634.253)" gradientUnits="userSpaceOnUse"><stop offset="0" stop-color="#900"/><stop offset="1" stop-color="#e80000"/></linearGradient></defs><title>file_type_jekyll</title><path d="M16.884,2.57a.326.326,0,0,0,0,.161,4.485,4.485,0,0,1-.027,1.648L8.6,25.857a3.077,3.077,0,0,0,5.748,2.2L22.605,6.576A5.661,5.661,0,0,1,23.69,5.344a.863.863,0,0,0,.107-.121V5.21c0-.013.013-.013.013-.027.214-.549-1.166-1.594-3.068-2.331S17.112,1.967,16.9,2.53A.059.059,0,0,0,16.884,2.57Z" style="opacity:0.5;isolation:isolate"/><path d="M16.643,2.383a.326.326,0,0,0,0,.161,4.482,4.482,0,0,1-.027,1.648L8.362,25.669a3.077,3.077,0,0,0,5.748,2.2L22.364,6.389a5.665,5.665,0,0,1,1.085-1.233.865.865,0,0,0,.107-.121V5.022c0-.013.013-.013.013-.027C23.784,4.446,22.4,3.4,20.5,2.664s-3.631-.884-3.845-.322a.049.049,0,0,1-.013.04Z" style="fill:url(#linear-gradient)"/><path d="M19.242,12.1,13.28,27.585a2.217,2.217,0,0,1-2.854,1.246A2.268,2.268,0,0,1,9.1,25.977l3.805-9.9a4.356,4.356,0,0,1,1.407-1.313c.938-.549,1.7-.429,2.733-.884a8.088,8.088,0,0,0,2.2-1.782Z" style="fill:url(#linear-gradient-2)"/><path d="M22.133,4.547c.119-.31-.736-.928-1.909-1.381S18,2.6,17.885,2.907s.736.928,1.909,1.381,2.221.569,2.339.259Z" style="fill:#333"/><path d="M16.587,2.542a4.487,4.487,0,0,1-.027,1.643L8.361,25.6a3.059,3.059,0,0,0,1.77,3.928,2.555,2.555,0,0,0,.825.187A3.092,3.092,0,0,1,9.932,26.19L17.972,5.2a5.141,5.141,0,0,1-1.384-2.659Z" style="fill:#fff;opacity:0.30000001192092896;isolation:isolate"/><g style="opacity:0.5"><circle cx="13.952" cy="16.357" r="0.24" style="fill:#fff"/><circle cx="15.509" cy="18.08" r="0.359" style="fill:#fff"/><circle cx="13.126" cy="20.138" r="0.679" style="fill:#fff"/><circle cx="12.035" cy="21.394" r="0.359" style="fill:#fff"/><circle cx="13.459" cy="24.066" r="0.24" style="fill:#fff"/></g></svg>