<svg xmlns="http://www.w3.org/2000/svg" viewBox="0 0 32 32"><title>file_type_manifest_skip</title><path d="M20.75,2H4.35V30h23.3V9Zm4.6,25.7H6.75V4.3h11.7v7h7V27.7Z" style="fill:#c5c5c5"/><path d="M25.535,26.266l.587-.583c2.715.089,2.756-.007,2.876-.286l.746-1.816.055-.171-.061-.151c-.032-.08-.13-.317-1.825-1.933v-.85c1.956-1.884,1.914-1.981,1.8-2.256l-.743-1.835c-.111-.275-.154-.383-2.849-.309l-.587-.606a13.147,13.147,0,0,0-.092-2.677l-.076-.171-1.939-.848c-.286-.13-.386-.177-2.217,1.816l-.823-.012c-1.88-2.012-1.97-1.978-2.252-1.862l-1.8.729c-.282.114-.382.155-.273,2.893l-.582.58c-2.713-.089-2.755.008-2.873.286l-.749,1.816-.059.174.061.151c.032.078.126.313,1.825,1.931v.848c-1.956,1.884-1.913,1.981-1.8,2.257l.742,1.837c.113.281.154.381,2.848.31l.587.61a13.2,13.2,0,0,0,.089,2.673l.076.173,1.951.853c.284.119.382.161,2.207-1.825l.823.01c1.887,2.014,1.984,1.975,2.26,1.864l1.8-.727C25.55,29.045,25.649,29,25.535,26.266ZM17.8,22.013a3.232,3.232,0,1,1,4.23,1.841A3.269,3.269,0,0,1,17.8,22.012Z" style="fill:#40535b"/><path d="M11,31,25.182,21,11,11ZM27.655,11V31H31V11Z" style="fill:#99b8c4"/></svg>