<svg xmlns="http://www.w3.org/2000/svg" viewBox="0 0 32 32"><path d="M29,17c0,5.65-5.82,10.23-13,10.23S3,22.61,3,17c0-3.5,2.24-6.6,5.66-8.44S14.21,4.81,16,4.81s3.32,1.54,7.34,3.71C26.76,10.36,29,13.46,29,17Z" style="fill:#fbf0df"/><path d="M16,27.65C23.32,27.65,29.46,23,29.46,17c0-3.72-2.37-7-5.89-8.85-1.39-.75-2.46-1.41-3.37-2l-1.13-.69A6.14,6.14,0,0,0,16,4.35a6.88,6.88,0,0,0-3.3,1.23c-.42.24-.86.51-1.32.8-.87.54-1.83,1.13-3,1.73C4.91,10,2.54,13.24,2.54,17,2.54,23,8.68,27.65,16,27.65Z" style="fill:none;stroke:#000"/><ellipse cx="21.65" cy="18.62" rx="2.17" ry="1.28" style="fill:#febbd0"/><ellipse cx="10.41" cy="18.62" rx="2.17" ry="1.28" style="fill:#febbd0"/><path d="M11.43,18.11a2,2,0,1,0-2-2.05A2.05,2.05,0,0,0,11.43,18.11Zm9.2,0a2,2,0,1,0-2-2.05A2,2,0,0,0,20.63,18.11Z" style="fill-rule:evenodd"/><path d="M10.79,16.19a.77.77,0,1,0-.76-.77A.76.76,0,0,0,10.79,16.19Zm9.2,0a.77.77,0,1,0,0-1.53.77.77,0,0,0,0,1.53Z" style="fill:#fff;fill-rule:evenodd"/><path d="M18.62,19.67a3.3,3.3,0,0,1-1.09,1.75,2.48,2.48,0,0,1-1.5.69,2.53,2.53,0,0,1-1.5-.69,3.28,3.28,0,0,1-1.08-1.75.26.26,0,0,1,.29-.3h4.58A.27.27,0,0,1,18.62,19.67Z" style="fill:#b71422;stroke:#000;stroke-width:0.75px"/><path d="M14.93,5.75a6.09,6.09,0,0,1-2.09,4.62c-.1.09,0,.27.11.22,1.25-.49,2.94-1.94,2.23-4.88C15.15,5.56,14.93,5.6,14.93,5.75Zm.85,0a6,6,0,0,1,.57,5c0,.13.12.24.21.13.83-1,1.54-3.11-.59-5.31C15.87,5.46,15.7,5.61,15.78,5.74Zm1-.06a6.09,6.09,0,0,1,2.53,4.38c0,.14.21.17.24,0,.34-1.3.15-3.51-2.66-4.66C16.77,5.39,16.68,5.59,16.8,5.68ZM9.94,9.55a6.27,6.27,0,0,0,3.89-3.33c.07-.13.28-.08.25.07-.64,3-2.79,3.59-4.13,3.51C9.81,9.79,9.81,9.59,9.94,9.55Z" style="fill:#ccbea7;fill-rule:evenodd"/></svg>