<svg xmlns="http://www.w3.org/2000/svg" viewBox="0 0 32 32"><title>file_type_fusebox</title><polygon points="16.51 2.383 29.499 6.746 28.152 22.106 16.705 29.571 4.492 21.884 3.494 6.811 16.51 2.383" style="fill:#fff"/><path d="M16.708,30,4.14,22.092,3.113,6.55,16.509,2,29.888,6.492,28.5,22.312ZM4.842,21.675,16.7,29.141l11.1-7.243L29.112,7l-12.6-4.232L3.876,7.066Z" style="fill:#515151"/><polygon points="16.483 28.04 16.483 12.794 28.195 7.576 27.147 21.36 16.483 28.04" style="fill:#1d79bf"/><polygon points="16.483 28.04 5.921 21.497 4.798 7.565 16.483 12.794 16.483 28.04" style="fill:#383838"/><path d="M7.589,11.228l.095,2.788L14.22,17.2l.021,2.571L7.766,16.581l.287,6.492L5.5,21.5,4.621,7.4,16.484,12.8V15.5Z" style="fill:#fff"/><path d="M26.9,17.885a6.977,6.977,0,0,1-2.935,5.8l-7.49,4.888V12.8l7.4-3.3a1.546,1.546,0,0,1,2.17.544,3.983,3.983,0,0,1,.5,2.137,6.246,6.246,0,0,1-.793,3.117C26.5,15.65,26.913,16.446,26.9,17.885Zm-2.259-4.727c0-.812-.35-1.213-.861-.954L18.7,14.738l-.014,3.012,5.152-2.728A2.23,2.23,0,0,0,24.638,13.158Zm.376,5.642c0-1-.423-1.442-1.146-1.038l-5.18,2.9v3.427l5.134-3.055A2.5,2.5,0,0,0,25.014,18.8Z" style="fill:#fff"/><polygon points="15.263 10.936 23.974 9.455 28.195 7.576 16.483 3.543 4.812 7.56 24.022 7.976 9.318 9.588 16.483 12.794 20.116 11.175 15.263 10.936" style="fill:#383838"/></svg>