<svg xmlns="http://www.w3.org/2000/svg" viewBox="0 0 32 32"><title>file_type_reason</title><polyline points="2 2 30 2 30 30 2 30 2 2" style="fill:#dd4b39"/><path d="M9.051,17.527q2.537,0,5.072,0A4.947,4.947,0,0,1,17.1,18.5a3.29,3.29,0,0,1,1.128,2.267,4.117,4.117,0,0,1-.778,3.022,3.6,3.6,0,0,1-1.137.905l2.247,3.549-3.061,0-1.6-3.043-2.154,0,0,3.032H9.051V17.527m2.69,2.128,0,3.438,1.989,0a2.184,2.184,0,0,0,1.468-.452,1.814,1.814,0,0,0,.482-1.544,1.469,1.469,0,0,0-.705-1.18,2.768,2.768,0,0,0-1.437-.269C12.94,19.654,11.741,19.655,11.741,19.655Zm8.384-2.13h8.35v2.13h-5.66V21.8l5.11,0v2.119H22.82V26.1h5.824v2.142H20.125V17.525Z" style="fill:#fff"/></svg>