<svg xmlns="http://www.w3.org/2000/svg" viewBox="0 0 32 32"><title>file_type_asp</title><path d="M12.786,23.5H9.852L9.01,20.342H5.676l-.8,3.158H2L6.053,8.49H8.619ZM6.555,16.891H8.1L7.32,13.867Z" style="fill:#0088b6"/><path d="M16.742,23.749a3.706,3.706,0,0,1-3.05-1.349,7.1,7.1,0,0,1-1.3-3.909l-.046-.566,2.622-.368.062.5a3.409,3.409,0,0,0,.565,1.693,1.425,1.425,0,0,0,1.169.515,1.454,1.454,0,0,0,1.179-.448,1.36,1.36,0,0,0,.338-.911.919.919,0,0,0-.11-.478,1.251,1.251,0,0,0-.537-.438c-.147-.074-.534-.238-1.524-.592a5.006,5.006,0,0,1-2.355-1.5,5.121,5.121,0,0,1-1.016-3.216,5.536,5.536,0,0,1,.481-2.3,3.553,3.553,0,0,1,1.368-1.6,3.834,3.834,0,0,1,2.042-.527A3.6,3.6,0,0,1,19.6,9.532,5.645,5.645,0,0,1,20.7,13l.014.552-2.651.168L18,13.238a2.26,2.26,0,0,0-.395-1.2,1.274,1.274,0,0,0-1-.353,1.47,1.47,0,0,0-1.11.4.535.535,0,0,0-.15.409.612.612,0,0,0,.152.415,3.877,3.877,0,0,0,1.634.817,7.9,7.9,0,0,1,2.188,1.048,3.917,3.917,0,0,1,1.211,1.61,6.386,6.386,0,0,1,.443,2.517,6.254,6.254,0,0,1-.521,2.542A3.757,3.757,0,0,1,18.98,23.2,4.286,4.286,0,0,1,16.742,23.749Z" style="fill:#0088b6"/><path d="M24.56,23.5h-2.7V8.49h3.5a7.985,7.985,0,0,1,2.41.227,3.122,3.122,0,0,1,1.587,1.555A6.479,6.479,0,0,1,30,13.322a7.047,7.047,0,0,1-.368,2.419A4.29,4.29,0,0,1,28.69,17.3a2.854,2.854,0,0,1-1.142.743,7.929,7.929,0,0,1-2.1.211h-.892Zm0-8.717h.688a3.214,3.214,0,0,0,1.4-.182,1.038,1.038,0,0,0,.434-.482,1.752,1.752,0,0,0,.152-.762,1.616,1.616,0,0,0-.209-.875.946.946,0,0,0-.571-.446,6.032,6.032,0,0,0-1.335-.086h-.563Z" style="fill:#0088b6"/></svg>