<svg version="1.1" viewBox="0 0 32 32" xmlns="http://www.w3.org/2000/svg" xmlns:xlink="http://www.w3.org/1999/xlink"><defs><linearGradient id="b" x2="1" gradientTransform="matrix(25,-25,25,25,0,25)" gradientUnits="userSpaceOnUse"><stop stop-color="#0a00b2" stop-opacity=".65" offset="0"/><stop stop-color="#f00" stop-opacity=".65" offset=".5"/><stop stop-color="#fffc00" stop-opacity=".65" offset="1"/></linearGradient><linearGradient id="a" x2="1" gradientTransform="matrix(25,-25,25,25,0,25)" gradientUnits="userSpaceOnUse" xlink:href="#b"/></defs><title>file_type_mediawiki</title><g transform="matrix(1.1248 0 0 1.1248 2.0293 2.0259)" clip-rule="evenodd" fill="url(#a)" stroke-linejoin="round" stroke-miterlimit="2"><path d="m7.068 4.359c0.018 1.001 0.424 1.957 1.132 2.665 0.539 0.495 1.241 0.775 1.973 0.787 0.238-9e-3 0.463-0.11 0.628-0.281 0.722-0.768 0.988-1.862 0.7-2.876-0.531-1.839-2.001-2.854-3.801-3.739-0.462 1.087-0.677 2.264-0.632 3.444z"/><path d="m4.4 7.031c0.399 0.918 1.142 1.645 2.068 2.025 0.687 0.25 1.443 0.239 2.122-0.031 0.216-0.099 0.386-0.279 0.473-0.5 0.375-0.984 0.206-2.097-0.446-2.925-1.197-1.5-2.939-1.872-4.941-1.993-0.014 1.181 0.234 2.35 0.724 3.424z"/><path d="m2.959 10.524c0.718 0.694 1.68 1.08 2.679 1.076 0.731-0.033 1.425-0.334 1.949-0.844 0.162-0.175 0.25-0.406 0.246-0.645-0.029-1.052-0.61-2.015-1.527-2.531-1.675-0.919-3.428-0.6-5.324 0.06 0.438 1.095 1.113 2.08 1.977 2.884z"/><path d="m2.956 14.307c0.929 0.365 1.965 0.353 2.885-0.035 0.663-0.312 1.189-0.856 1.479-1.529 0.082-0.224 0.075-0.472-0.02-0.691-0.426-0.961-1.33-1.628-2.374-1.752-1.9-0.2-3.394 0.766-4.9 2.1 0.823 0.845 1.824 1.497 2.93 1.907z"/><path d="m4.394 17.8c0.999-0.02 1.952-0.429 2.653-1.141 0.493-0.543 0.772-1.247 0.784-1.981-9e-3 -0.238-0.109-0.465-0.28-0.631-0.761-0.725-1.852-0.994-2.863-0.706-1.831 0.54-2.844 2.013-3.722 3.824 1.081 0.463 2.252 0.68 3.428 0.635z"/><path d="m7.054 20.479c0.917-0.404 1.64-1.15 2.016-2.079 0.249-0.691 0.238-1.449-0.031-2.132-0.099-0.217-0.278-0.388-0.5-0.476-0.981-0.377-2.092-0.205-2.914 0.449-1.486 1.2-1.86 2.953-1.982 4.964 1.177 0.014 2.342-0.234 3.411-0.726z"/><path d="m10.531 21.93c0.691-0.725 1.075-1.69 1.069-2.692-0.033-0.733-0.332-1.43-0.841-1.958-0.174-0.163-0.404-0.252-0.642-0.248-1.05 0.032-2.008 0.616-2.517 1.535-0.914 1.683-0.594 3.443 0.06 5.348 1.092-0.441 2.073-1.119 2.871-1.985z"/><path d="m14.3 21.933c0.364-0.934 0.352-1.975-0.035-2.9-0.309-0.664-0.85-1.193-1.522-1.486-0.223-0.083-0.469-0.077-0.687 0.018-0.96 0.432-1.625 1.341-1.745 2.387-0.2 1.906 0.763 3.409 2.093 4.918 0.841-0.827 1.488-1.83 1.896-2.937z"/><path d="m17.776 20.489c-0.019-1.002-0.426-1.958-1.136-2.665-0.539-0.495-1.241-0.776-1.973-0.788-0.238 9e-3 -0.463 0.11-0.628 0.281-0.722 0.768-0.988 1.862-0.7 2.876 0.538 1.839 2 2.857 3.807 3.739 0.461-1.087 0.676-2.263 0.63-3.443z"/><path d="m20.441 17.817c-0.399-0.918-1.14-1.644-2.065-2.025-0.687-0.25-1.443-0.239-2.122 0.031-0.216 0.099-0.386 0.279-0.473 0.5-0.376 0.985-0.206 2.099 0.447 2.927 1.2 1.493 2.94 1.869 4.942 1.991 0.012-1.181-0.237-2.35-0.729-3.424z"/><path d="m21.885 14.324c-0.718-0.694-1.68-1.081-2.679-1.077-0.731 0.033-1.425 0.334-1.949 0.844-0.162 0.175-0.25 0.406-0.246 0.645 0.029 1.053 0.61 2.017 1.528 2.533 1.675 0.919 3.428 0.6 5.324-0.06-0.438-1.096-1.114-2.081-1.978-2.885z"/><path d="m21.888 10.541c-0.93-0.366-1.967-0.354-2.888 0.035-0.663 0.312-1.189 0.856-1.479 1.529-0.083 0.224-0.077 0.472 0.018 0.691 0.426 0.962 1.331 1.63 2.376 1.753 1.9 0.2 3.394-0.767 4.9-2.1-0.822-0.845-1.822-1.497-2.927-1.908z"/><path d="m20.451 7.046c-0.998 0.02-1.95 0.43-2.651 1.141-0.494 0.543-0.773 1.248-0.784 1.982 9e-3 0.238 0.109 0.465 0.28 0.631 0.761 0.725 1.852 0.994 2.863 0.706 1.831-0.54 2.844-2.013 3.722-3.824-1.082-0.464-2.254-0.681-3.43-0.636z"/><path d="m17.791 4.369c-0.916 0.403-1.639 1.147-2.016 2.074-0.249 0.691-0.238 1.449 0.031 2.132 0.099 0.217 0.278 0.388 0.5 0.476 0.981 0.376 2.091 0.204 2.912-0.451 1.482-1.2 1.861-2.951 1.982-4.962-1.176-0.012-2.341 0.237-3.409 0.731z"/><path d="m14.313 2.918c-0.692 0.724-1.077 1.69-1.072 2.692 0.032 0.733 0.331 1.429 0.84 1.958 0.174 0.163 0.404 0.252 0.642 0.248 1.052-0.03 2.013-0.615 2.522-1.536 0.914-1.683 0.594-3.443-0.06-5.348-1.093 0.441-2.074 1.12-2.872 1.986z"/><path d="m10.548 2.915c-0.364 0.934-0.352 1.975 0.035 2.9 0.309 0.664 0.851 1.193 1.522 1.485 0.223 0.083 0.469 0.077 0.687-0.018 0.96-0.432 1.625-1.341 1.745-2.387 0.2-1.906-0.763-3.409-2.093-4.918-0.841 0.828-1.488 1.831-1.896 2.938z"/></g></svg>
