<svg xmlns="http://www.w3.org/2000/svg" viewBox="0 0 32 32"><title>file_type_codekit</title><circle cx="16" cy="16" r="14"/><path d="M14.651,7.525l-.011-.011a1.556,1.556,0,0,0-2.2,0l-7.38,7.38a1.556,1.556,0,0,0,0,2.2l7.38,7.38a1.556,1.556,0,0,0,2.2,0l.011-.011a1.556,1.556,0,0,0,0-2.2L9.04,16.654a.933.933,0,0,1,0-1.32L14.65,9.725A1.556,1.556,0,0,0,14.651,7.525Z" style="fill:#fff"/><path d="M17.221,7.519l.011-.011a1.556,1.556,0,0,1,2.2,0l7.38,7.38a1.556,1.556,0,0,1,0,2.2l-7.38,7.38a1.556,1.556,0,0,1-2.2,0l-.011-.011a1.556,1.556,0,0,1,0-2.2l5.611-5.609a.933.933,0,0,0,0-1.32L17.221,9.719A1.556,1.556,0,0,1,17.221,7.519Z" style="fill:#fff"/></svg>