<svg xmlns="http://www.w3.org/2000/svg" viewBox="0 0 32 32"><title>file_type_tex</title><path d="M11.333,13.122c-.128-1.562-.241-2.756-2.287-2.756H7.91v8.4h2.145v.611l-3.083-.029-3.082.029v-.611H6.034v-8.4H4.884c-2.046,0-2.159,1.208-2.287,2.756H2l.284-3.367h9.362l.284,3.367h-.6Z" style="fill:#cfcfcf"/><path d="M19.289,22.53H10.41V21.92h1.506V13.467H10.41v-.611h8.637l.412,3.367h-.6c-.213-1.833-.682-2.756-2.855-2.756H13.791V17.2h.838c1.364,0,1.505-.6,1.505-1.662h.6v3.935h-.6c0-1.08-.142-1.662-1.505-1.662h-.838v4.106h2.216c2.472,0,3-1.108,3.3-3.225h.6Z" style="fill:#cfcfcf"/><path d="M27.727,19.186c-.54,0-1.96,0-2.415.029V18.6h1.179l-2.557-3.552-2.529,3.381A4.1,4.1,0,0,0,22.7,18.6v.611c-.355-.029-1.576-.029-2.017-.029-.4,0-1.548,0-1.875.029V18.6h.383a7.459,7.459,0,0,0,.824-.043c.5-.043.54-.085.667-.256L23.536,14.5l-3.153-4.418H19V9.47c.384.028,1.79.028,2.273.028.582,0,1.918,0,2.429-.028v.611H22.528l2.117,2.955,2.074-2.784a4.1,4.1,0,0,0-1.293-.17V9.47c.356.028,1.591.028,2.032.028.4,0,1.534,0,1.861-.028v.611h-.369a5.264,5.264,0,0,0-.838.043c-.469.043-.526.071-.667.256l-2.4,3.21L28.636,18.6H30v.611C29.645,19.186,28.182,19.186,27.727,19.186Z" style="fill:#cfcfcf"/></svg>