<svg xmlns="http://www.w3.org/2000/svg" viewBox="0 0 32 32"><title>file_type_husky</title><path d="M26.4,20c-.025.939-1.839,1.591-1.1,2.524,1.63.229.889,1.309,1.782,1.677-1.579,2.57-4.126,2.891-6.549,1.282a2.888,2.888,0,0,0-2.149-.423c-.37.593.181.662.533.748,1.7.339,3.421,2.972,9.185.464.769-.323.652-1.274.319-2.022.639-.272.678-.982.772-1.895C29.821,20.3,27.762,20.475,26.4,20Zm-9.063-4.467a7.737,7.737,0,0,0-2.422,1.013c.965.567,1.348,1.243,2.422,1.032s1.054-.9.631-1.706a.635.635,0,0,0-.631-.339ZM21.874,2c-1.312.06-2.44,3.574-3.778,6.065-3.846,1.6-4.809-.475-6.065-.134C9.892,3.572,6.716-.8,5.858,4.4c.189,3.926-1.378,4.25-1.239,9.853,0,0-2.8,5.626-1.655,10.605A6.646,6.646,0,0,0,8.492,30c.2-1.435,2.449-4.671,1.833-5.426-1.538-1.884-1.055-6.5,2.84-6.976.533-3.883,3.174-3.152,2.9-4.275-.847-3.518,2.806-1.876,3.419-.723,1.1,1.828,1.877,3.625,2.777,4.476a9.313,9.313,0,0,0,2.79,1.709c-.327-.2-3.127-2.573-3.947-4.476a12.545,12.545,0,0,1-.443-3.723c1.421-.223,1.994,2.168,3.537,4.337a.442.442,0,0,1,0,.386c-.212-.112-.286-.394-.542-.428-.233,0-.421.33-.421.737s.307.553.73.743a3.555,3.555,0,0,0,1.792,1.679l-1.9-5.559c-.07-3.482.3-6.963-1.719-10.445A.763.763,0,0,0,21.874,2Zm.018,1.11c.105,0,.2.069.289.231,1.053,1.979,1.092,6.625,1.084,8.268-.5-1.138-1.249-3.052-3.611-3.635,0,0,1.38-4.849,2.238-4.864ZM7.743,3.552c.48,0,1.026.28,1.658,1.434C10.414,6.832,11.14,8.06,11.493,8.7c.722,1.3-.316.272-.641,3.611a1.58,1.58,0,0,1-.8,1.311A10.85,10.85,0,0,1,7.735,8.552c-1.008,1.5.653,3.813.682,5.794a4.259,4.259,0,0,1-2.261.028c-.52-.26-.691-3.43.273-5.891.8-2.05.421-4.656.778-4.77C7.453,3.635,7.455,3.554,7.743,3.552Z" style="fill:#7f7f7f"/></svg>