<svg xmlns="http://www.w3.org/2000/svg" viewBox="0 0 32 32"><title>file_type_wercker</title><path d="M16.014,2,5.127,8.169v8.347h2.01V9.286L16,4.219l8.863,5.067v9.157a5.82,5.82,0,0,1-1.424,3.7c-2.205,2.875-6.2,5.039-7.44,5.639a24.061,24.061,0,0,1-7.258-5.234H20.425a12.372,12.372,0,0,0,1.815-2.01H5.392C7.025,26.148,15.986,30,15.986,30s8.975-3.825,10.608-9.464a8.057,8.057,0,0,0,.279-2.094V8.169Z" style="fill:#23b0e8"/><rect x="10.794" y="11.282" width="10.441" height="1.745" style="fill:#23b0e8"/><rect x="9.928" y="14.339" width="12.185" height="1.745" style="fill:#23b0e8"/><rect x="9.928" y="17.382" width="12.185" height="1.745" style="fill:#23b0e8"/><rect x="13.627" y="8.239" width="4.788" height="1.745" style="fill:#23b0e8"/></svg>