<svg xmlns="http://www.w3.org/2000/svg" viewBox="0 0 32 32"><title>file_type_purescript</title><rect width="32" height="32" style="fill:#16171b"/><polygon points="21.892 22.136 19.706 20.095 10.107 20.095 12.293 22.136 21.892 22.136" style="fill:#fff"/><polygon points="12.293 14.98 10.107 17.021 19.706 17.021 21.892 14.98 12.293 14.98" style="fill:#fff"/><polygon points="21.891 11.906 19.706 9.864 10.107 9.864 12.293 11.906 21.891 11.906" style="fill:#fff"/><path d="M9.1,13.926,7.652,12.482,2.3,17.836a1.023,1.023,0,0,0,0,1.443l5.354,5.354L9.1,23.19,4.464,18.558Z" style="fill:#fff"/><path d="M29.7,12.721,24.348,7.366,22.9,8.81l4.63,4.632L22.9,18.075l1.443,1.443L29.7,14.165a1.021,1.021,0,0,0,0-1.444Z" style="fill:#fff"/></svg>