<svg xmlns="http://www.w3.org/2000/svg" viewBox="0 0 32 32"><title>file_type_jsconfig</title><path d="M18.774,19.7a3.727,3.727,0,0,0,3.376,2.078c1.418,0,2.324-.709,2.324-1.688,0-1.173-.931-1.589-2.491-2.272l-.856-.367c-2.469-1.052-4.11-2.37-4.11-5.156,0-2.567,1.956-4.52,5.012-4.52A5.058,5.058,0,0,1,26.9,10.52l-2.665,1.711a2.327,2.327,0,0,0-2.2-1.467A1.489,1.489,0,0,0,20.4,12.1q-.007.067-.007.135c0,1.027.636,1.442,2.1,2.078l.856.366c2.908,1.247,4.549,2.518,4.549,5.376,0,3.081-2.42,4.769-5.671,4.769A6.575,6.575,0,0,1,16,21.32ZM6.686,20c.538.954,1.027,1.76,2.2,1.76,1.124,0,1.834-.44,1.834-2.15V7.975h3.422V19.658c0,3.543-2.078,5.156-5.11,5.156A5.312,5.312,0,0,1,3.9,21.688Z" style="fill:#f5de19"/><path d="M27.2,25.482l.363-.361c1.68.055,1.706,0,1.78-.177l.462-1.124.034-.107L29.8,23.62c-.02-.049-.081-.2-1.13-1.2v-.526c1.211-1.166,1.185-1.226,1.116-1.4l-.46-1.136c-.069-.17-.1-.237-1.763-.191L27.2,18.8a8.138,8.138,0,0,0-.057-1.657l-.047-.106-1.2-.525c-.177-.081-.239-.11-1.372,1.124l-.509-.008c-1.167-1.245-1.222-1.223-1.4-1.152l-1.115.452c-.175.071-.236.1-.169,1.79l-.36.359c-1.68-.055-1.7,0-1.778.177l-.462,1.124-.036.108.038.094c.02.048.078.194,1.13,1.2V22.3c-1.211,1.166-1.184,1.226-1.115,1.4l.459,1.137c.07.174.1.236,1.763.192l.363.377a8.169,8.169,0,0,0,.055,1.654l.047.107,1.208.528c.176.073.236.1,1.366-1.13l.509.006c1.168,1.247,1.228,1.223,1.4,1.154l1.113-.45C27.207,27.2,27.268,27.178,27.2,25.482ZM22.412,22.85a2,2,0,1,1,2.618,1.14A2.023,2.023,0,0,1,22.412,22.85Z" style="fill:#99b8c4"/></svg>