<svg xmlns="http://www.w3.org/2000/svg" viewBox="0 0 32 32"><title>file_type_iodine</title><polygon points="30 2 2 2 2 30 30 30 30 2 30 2"/><polyline points="29 3 29 29 3 29 3 3 29 3" style="fill:#70f"/><path d="M12.5,8.813h7V10.8h-.637a1.786,1.786,0,0,0-.735.1.6.6,0,0,0-.267.309,2.459,2.459,0,0,0-.087.809v7.955a2.93,2.93,0,0,0,.072.835.474.474,0,0,0,.247.268,1.336,1.336,0,0,0,.648.124H19.5v1.989h-7V21.2h.569a2.258,2.258,0,0,0,.8-.088.552.552,0,0,0,.274-.278,2.1,2.1,0,0,0,.088-.757V12.09a2.759,2.759,0,0,0-.088-.881.642.642,0,0,0-.295-.325,1.792,1.792,0,0,0-.7-.082H12.5Z"/><path d="M21.845,6.542l.842-.087a.722.722,0,0,0,.213.452.579.579,0,0,0,.409.167.568.568,0,0,0,.448-.215.978.978,0,0,0,.183-.648.887.887,0,0,0-.182-.609.606.606,0,0,0-.473-.2.86.86,0,0,0-.652.322l-.685-.1.433-2.294h2.233v.791H23.021l-.132.748a1.291,1.291,0,0,1,1.53.268A1.472,1.472,0,0,1,24.809,6.2a1.591,1.591,0,0,1-.316.971A1.4,1.4,0,0,1,23.3,7.75a1.481,1.481,0,0,1-.995-.328A1.349,1.349,0,0,1,21.845,6.542Z"/><path d="M25.227,6.506l.818-.1a.774.774,0,0,0,.21.478.576.576,0,0,0,.415.165.57.57,0,0,0,.44-.2.769.769,0,0,0,.179-.535.717.717,0,0,0-.171-.505.546.546,0,0,0-.418-.186,1.474,1.474,0,0,0-.388.063L26.405,5a.74.74,0,0,0,.523-.149.53.53,0,0,0,.18-.419.455.455,0,0,0-.484-.487.509.509,0,0,0-.37.15.706.706,0,0,0-.186.439L25.29,4.4a1.74,1.74,0,0,1,.245-.639,1.106,1.106,0,0,1,.457-.376,1.535,1.535,0,0,1,.657-.137,1.31,1.31,0,0,1,1,.4,1,1,0,0,1-.325,1.659,1.026,1.026,0,0,1,.606.364,1.055,1.055,0,0,1,.227.682,1.324,1.324,0,0,1-.424.989,1.583,1.583,0,0,1-2.047.065A1.353,1.353,0,0,1,25.227,6.506Z"/><path d="M10.628,28.364H9.774V25.147a2.944,2.944,0,0,1-1.1.647V25.02A2.458,2.458,0,0,0,9.4,24.6a1.57,1.57,0,0,0,.538-.712h.693Z"/><path d="M14.786,27.571v.793H11.794a2.061,2.061,0,0,1,.292-.852,5.663,5.663,0,0,1,.96-1.068,6.037,6.037,0,0,0,.708-.729.939.939,0,0,0,.176-.522.593.593,0,0,0-.153-.439.651.651,0,0,0-.849.007.826.826,0,0,0-.182.535l-.85-.085a1.4,1.4,0,0,1,.477-1.011,1.6,1.6,0,0,1,1-.307,1.449,1.449,0,0,1,1.036.355,1.166,1.166,0,0,1,.377.884,1.54,1.54,0,0,1-.108.572,2.334,2.334,0,0,1-.342.57,5.457,5.457,0,0,1-.559.568q-.4.371-.512.492a1.456,1.456,0,0,0-.175.237Z"/><path d="M18.254,25l-.826.091a.6.6,0,0,0-.158-.377.462.462,0,0,0-.331-.121.557.557,0,0,0-.457.243,2.038,2.038,0,0,0-.236,1.011,1,1,0,0,1,.793-.377,1.209,1.209,0,0,1,.915.407,1.474,1.474,0,0,1,.381,1.051,1.507,1.507,0,0,1-.4,1.1,1.46,1.46,0,0,1-2.138-.111,2.692,2.692,0,0,1-.434-1.717,2.745,2.745,0,0,1,.453-1.765,1.462,1.462,0,0,1,1.175-.541,1.249,1.249,0,0,1,.84.284A1.332,1.332,0,0,1,18.254,25ZM16.32,26.864a.969.969,0,0,0,.191.643.563.563,0,0,0,.437.226.5.5,0,0,0,.395-.185.935.935,0,0,0,.158-.607.975.975,0,0,0-.17-.636.547.547,0,0,0-.841-.01A.838.838,0,0,0,16.32,26.864Z"/><rect x="19.005" y="27.51" width="0.854" height="0.854"/><path d="M20.569,27.334l.826-.091a.6.6,0,0,0,.158.374.469.469,0,0,0,.337.121.549.549,0,0,0,.45-.243,2.075,2.075,0,0,0,.237-1.008,1.019,1.019,0,0,1-.8.374,1.206,1.206,0,0,1-.907-.405,1.481,1.481,0,0,1-.381-1.056,1.5,1.5,0,0,1,.4-1.092,1.457,1.457,0,0,1,2.136.109,2.708,2.708,0,0,1,.434,1.724A2.739,2.739,0,0,1,23,27.9a1.465,1.465,0,0,1-1.179.541,1.244,1.244,0,0,1-.844-.278A1.34,1.34,0,0,1,20.569,27.334ZM22.5,25.469a.972.972,0,0,0-.19-.641.56.56,0,0,0-.439-.228.494.494,0,0,0-.394.186.957.957,0,0,0-.156.612.97.97,0,0,0,.17.633.544.544,0,0,0,.84.008A.852.852,0,0,0,22.5,25.469Z"/></svg>