<svg xmlns="http://www.w3.org/2000/svg" viewBox="0 0 32 32"><title>file_type_robotframework</title><circle cx="16" cy="16" r="14" style="fill:#fff"/><path d="M10.387,14.6a2.727,2.727,0,0,1,5.453,0,.99.99,0,1,1-1.98,0,.746.746,0,0,0-1.492,0,.99.99,0,1,1-1.98,0m11.3,4.586a.991.991,0,0,1-.992.992H11.508a.992.992,0,0,1,0-1.984h9.184a.994.994,0,0,1,.992.992M17.391,15.16a.992.992,0,0,1,.27-1.375l2.293-1.551a.989.989,0,1,1,1.109,1.637l-2.3,1.551a.965.965,0,0,1-.551.172.994.994,0,0,1-.824-.434m6.289,6.094a.707.707,0,0,1-.207.5l-1.707,1.707a.707.707,0,0,1-.5.207H10.8a.707.707,0,0,1-.5-.207L8.6,21.754a.707.707,0,0,1-.207-.5V10.8a.707.707,0,0,1,.207-.5L10.3,8.594a.707.707,0,0,1,.5-.207H21.266a.707.707,0,0,1,.5.207L23.473,10.3a.707.707,0,0,1,.207.5ZM25.129,9.16,22.9,6.93A1.807,1.807,0,0,0,21.629,6.4H10.438a1.807,1.807,0,0,0-1.273.527L6.938,9.16a1.8,1.8,0,0,0-.527,1.27V21.621a1.8,1.8,0,0,0,.527,1.273l2.227,2.23a1.81,1.81,0,0,0,1.273.523H21.629a1.8,1.8,0,0,0,1.273-.523l2.227-2.23a1.784,1.784,0,0,0,.527-1.273V10.434a1.784,1.784,0,0,0-.527-1.273"/></svg>