<svg xmlns="http://www.w3.org/2000/svg" viewBox="0 0 32 32"><title>file_type_racket</title><circle cx="16" cy="16" r="14" style="fill:#fff"/><path d="M27.016,24.641a14,14,0,0,0-15.8-21.8C16.9,5.822,24.413,15.549,27.016,24.641Z" style="fill:#3e5ba9"/><path d="M13.995,10.93a24.3,24.3,0,0,0-7.22-5.46A14,14,0,0,0,5.463,25.217,39.56,39.56,0,0,1,13.995,10.93Z" style="fill:#9f1d20"/><path d="M16.575,14.1A32.645,32.645,0,0,0,9.43,28.365a14.016,14.016,0,0,0,13.3-.089A38.642,38.642,0,0,0,16.575,14.1Z" style="fill:#9f1d20"/></svg>