<?xml version="1.0" encoding="UTF-8"?><svg id="Capa_1" xmlns="http://www.w3.org/2000/svg" viewBox="0 0 32 32"><path d="m11.84,29.2c1.17.47,2.44.75,3.78.8,1.81.06,3.52-.31,5.06-1.02-1.84-.72-3.51-1.78-4.93-3.1-.92,1.48-2.29,2.64-3.9,3.32Z" style="fill:#ff9100;"/><path d="m15.74,25.88c-3.25-3-5.22-7.35-5.05-12.12,0-.15.01-.31.02-.46-.58-.15-1.19-.24-1.81-.26-.89-.03-1.76.08-2.58.31-.87,1.52-1.39,3.26-1.46,5.13-.17,4.82,2.75,9.03,6.98,10.73,1.62-.67,2.98-1.84,3.9-3.32Z" style="fill:#ffc400;"/><path d="m15.74,25.88c.76-1.21,1.21-2.63,1.27-4.15.14-4.02-2.56-7.47-6.3-8.44,0,.15-.02.31-.02.46-.17,4.77,1.8,9.12,5.05,12.12Z" style="fill:#ff9100;"/><path d="m16.59,2c-2.13,1.7-3.81,3.95-4.83,6.54-.58,1.48-.95,3.08-1.05,4.75,3.74.96,6.44,4.42,6.3,8.44-.05,1.53-.51,2.94-1.27,4.15,1.42,1.32,3.09,2.37,4.93,3.1,3.7-1.71,6.32-5.38,6.47-9.73.1-2.82-.98-5.33-2.51-7.45-1.62-2.24-8.04-9.79-8.04-9.79Z" style="fill:#dd2c00;"/></svg>