<svg xmlns="http://www.w3.org/2000/svg" viewBox="0 0 32 32"><title>file_type_ng_module_ts2</title><defs><clipPath id="a"><path d="m0 0h223v236h-223z" fill="#fff" /></clipPath><linearGradient id="b"><stop offset="0" stop-color="#a300d8" /><stop offset="1" stop-color="#6f0099" /></linearGradient><linearGradient id="c"><stop offset="0" stop-color="#a300d8" /><stop offset="1" stop-color="#a300d8" stop-opacity="0" /></linearGradient></defs><g transform="matrix(.11923 0 0 .11923 2.7608 1.986)" clip-path="url(#a)"><path d="m222.08 39.192-8.019 125.92-76.671-165.12zm-53.105 162.82-57.933 33.056-57.934-33.056 11.783-28.556h92.301zm-57.933-139.34 30.357 73.803h-60.715zm-103.1 102.44-7.937-125.92 84.69-39.192z" fill="url(#b)" /><path d="m222.08 39.192-8.019 125.92-76.671-165.12zm-53.105 162.82-57.933 33.056-57.934-33.056 11.783-28.556h92.301zm-57.933-139.34 30.357 73.803h-60.715zm-103.1 102.44-7.937-125.92 84.69-39.192z" fill="url(#c)" /></g><path d="M28.385,20.525a2.839,2.839,0,0,1,1.426.822,3.756,3.756,0,0,1,.547.731c.007.029-.985.7-1.586,1.068-.022.014-.109-.08-.206-.224a1.293,1.293,0,0,0-1.072-.644c-.692-.047-1.137.315-1.133.92a.836.836,0,0,0,.1.427c.152.315.434.5,1.321.887,1.633.7,2.332,1.166,2.766,1.825a3.31,3.31,0,0,1,.264,2.781,3.058,3.058,0,0,1-2.523,1.807,6.993,6.993,0,0,1-1.738-.018A4.191,4.191,0,0,1,24.229,29.7a4.03,4.03,0,0,1-.594-.88,1.7,1.7,0,0,1,.21-.134c.1-.058.485-.279.847-.489l.655-.38.138.2a3.062,3.062,0,0,0,.865.829,2.118,2.118,0,0,0,2.219-.112.991.991,0,0,0,.127-1.264c-.177-.253-.539-.467-1.568-.912a5.645,5.645,0,0,1-2.147-1.321,3.008,3.008,0,0,1-.626-1.14,4.567,4.567,0,0,1-.04-1.455,2.78,2.78,0,0,1,2.339-2.165A5.778,5.778,0,0,1,28.385,20.525Zm-5.355.952.007.934H20.069v8.436h-2.1V22.411H15V21.5a8.976,8.976,0,0,1,.025-.941c.011-.014,1.817-.022,4.008-.018l3.986.011Z" style="fill:#007acc" /></svg>
