<svg height="218" preserveAspectRatio="xMidYMid" viewBox="0 0 256 218" width="256" xmlns="http://www.w3.org/2000/svg"><path d="m126.030769 45.948718h110.276923v44.635897h-110.276923z" fill="#fff"/><g fill="#3ecc5f"><path d="m26.2564103 191.671795c-9.7122462 0-18.1733744-5.286728-22.71573338-13.128205-2.23835897 3.864943-3.54067692 8.340348-3.54067692 13.128205 0 14.501415 11.7549949 26.25641 26.2564103 26.25641h26.2564102v-26.25641z"/><path d="m144.384656 53.006441 91.923693-5.7449025v-13.1282052c0-14.5014154-11.756308-26.25641022-26.256411-26.25641022h-118.1538457l-3.2820513-5.68451282c-1.4598564-2.52717949-5.1055589-2.52717949-6.5641025 0l-3.2820513 5.68451282-3.2820513-5.68451282c-1.4598564-2.52717949-5.105559-2.52717949-6.5641026 0l-3.2820512 5.68451282-3.2820513-5.68451282c-1.4598564-2.52717949-5.105559-2.52717949-6.5641026 0l-3.2820513 5.68451282c-.028882 0-.0564513.00393846-.0853333.00393846l-5.4377026-5.43638975c-2.062441-2.06244102-5.5834256-1.11983589-6.3396102 1.69878975l-1.7959385 6.70063586-6.8174769-1.82744612c-2.8186257-.75487179-5.3970051 1.82350772-4.6408205 4.64213332l1.8261333 6.8174769-6.6993231 1.7946257c-2.8186256.7561846-3.7625436 4.278482-1.7001025 6.3409231l5.4363897 5.4377025c0 .0275693-.0026256.0551385-.0026256.0840205l-5.6858257 3.2820513c-2.5258666 1.4585436-2.5258666 5.105559 0 6.5641026l5.6858257 3.2820513-5.6858257 3.2820512c-2.5258666 1.4585436-2.5258666 5.105559 0 6.5641026l5.6858257 3.2820513-5.6858257 3.2820513c-2.5258666 1.4585436-2.5258666 5.1055589 0 6.5641025l5.6858257 3.2820513-5.6858257 3.2820513c-2.5258666 1.4585436-2.5258666 5.105559 0 6.5641026l5.6858257 3.2820512-5.6858257 3.2820513c-2.5258666 1.4585436-2.5258666 5.105559 0 6.5641026l5.6858257 3.2820513-5.6858257 3.282051c-2.5258666 1.458544-2.5258666 5.105559 0 6.564103l5.6858257 3.282051-5.6858257 3.282051c-2.5258666 1.458544-2.5258666 5.105559 0 6.564103l5.6858257 3.282051-5.6858257 3.282052c-2.5258666 1.458543-2.5258666 5.105558 0 6.564102l5.6858257 3.282051-5.6858257 3.282052c-2.5258666 1.458543-2.5258666 5.105559 0 6.564102l5.6858257 3.282051-5.6858257 3.282052c-2.5258666 1.458543-2.5258666 5.105559 0 6.564102l5.6858257 3.282052-5.6858257 3.282051c-2.5258666 1.458543-2.5258666 5.105559 0 6.564102l5.6858257 3.282052-5.6858257 3.282051c-2.5258666 1.458544-2.5258666 5.105559 0 6.564103l5.6858257 3.282051c0 14.501415 11.7549948 26.25641 26.2564102 26.25641h157.5384611c14.500103 0 26.256411-11.754995 26.256411-26.25641v-105.0256412l-91.923693-5.7449025c-7.364923-.4608-13.101948-6.568041-13.101948-13.9474051s5.737025-13.4866052 13.101948-13.9474052"/><path d="m183.794872 217.928205h39.384615v-52.51282h-39.384615z"/></g><path d="m249.435897 185.107692c-.287507 0-.561887.048575-.838892.084021-.049887-.196923-.097149-.395159-.152287-.592082 2.370954-.989867 4.036923-3.326687 4.036923-6.056041 0-3.626011-2.938092-6.564103-6.564103-6.564103-1.493989 0-2.855384.519877-3.959466 1.360082-.145723-.148348-.291446-.295384-.439795-.441107.823138-1.097518 1.327261-2.444472 1.327261-3.921395 0-3.626011-2.938092-6.564103-6.564102-6.564103-2.710974 0-5.037292 1.644964-6.037662 3.992287-.194297-.055138-.389907-.101087-.584205-.150974.035446-.277005.084021-.551385.084021-.838892 0-3.626011-2.938093-6.564103-6.564103-6.564103s-6.564102 2.938092-6.564102 6.564103c0 .287507.048574.561887.08402.838892-.194297.049887-.389908.095836-.584205.150974-1.000369-2.347323-3.326687-3.992287-6.037662-3.992287-3.62601 0-6.564102 2.938092-6.564102 6.564103 0 1.476923.504123 2.823877 1.327261 3.921395-4.879753 4.768164-7.91762 11.412348-7.91762 18.773333 0 14.501415 11.754995 26.25641 26.25641 26.25641 12.260431 0 22.528-8.415179 25.417518-19.776328.277005.035446.551385.08402.838892.08402 3.626011 0 6.564103-2.938092 6.564103-6.564102s-2.938092-6.564103-6.564103-6.564103" fill="#44d860"/><path d="m196.923077 139.158974h39.384615v-26.25641h-39.384615z" fill="#3ecc5f"/><path d="m249.435897 129.312821c1.813006 0 3.282052-1.469047 3.282052-3.282052s-1.469046-3.282051-3.282052-3.282051c-.143097 0-.280943.024944-.418789.04201-.026257-.098461-.048575-.196923-.076144-.295384 1.184164-.494934 2.017805-1.664657 2.017805-3.028677 0-1.813005-1.469046-3.282052-3.282051-3.282052-.746995 0-1.428349.258626-1.979733.680041-.072206-.07483-.145723-.148348-.220554-.220553.412225-.547447.664287-1.222236.664287-1.961354 0-1.811693-1.469046-3.282052-3.282051-3.282052-1.356144 0-2.519303.823139-3.019488 1.9968-1.125087-.313764-2.305312-.494933-3.531487-.494933-7.249395 0-13.128205 5.87881-13.128205 13.128205s5.87881 13.128205 13.128205 13.128205c1.226175 0 2.4064-.181169 3.531487-.494933.500185 1.173662 1.663344 1.9968 3.019488 1.9968 1.813005 0 3.282051-1.470359 3.282051-3.282051 0-.739118-.252062-1.413908-.664287-1.961354.074831-.072205.148348-.145723.220554-.220554.551384.421415 1.232738.680041 1.979733.680041 1.813005 0 3.282051-1.469046 3.282051-3.282051 0-1.364021-.833641-2.533744-2.017805-3.028677.027569-.097149.049887-.196923.076144-.295385.137846.017067.275692.042011.418789.042011" fill="#44d860"/><path d="m78.7692308 50.5435897c-1.8130052 0-3.2820513-1.4690461-3.2820513-3.2820512 0-5.4298257-4.4163282-9.8461539-9.8461539-9.8461539-5.4298256 0-9.8461538 4.4163282-9.8461538 9.8461539 0 1.8130051-1.4690462 3.2820512-3.2820513 3.2820512s-3.2820513-1.4690461-3.2820513-3.2820512c0-9.0492718 7.3609846-16.4102564 16.4102564-16.4102564s16.4102565 7.3609846 16.4102565 16.4102564c0 1.8130051-1.4690462 3.2820512-3.2820513 3.2820512"/><path d="m131.282051 217.928205h78.769231c14.501415 0 26.25641-11.754995 26.25641-26.25641v-91.897436h-78.76923c-14.501416 0-26.256411 11.754995-26.256411 26.25641z" fill="#ffff50"/><path d="m216.640985 140.471795h-65.692226c-.72599 0-1.312821-.586831-1.312821-1.312821 0-.725989.586831-1.31282 1.312821-1.31282h65.692226c.725989 0 1.31282.586831 1.31282 1.31282 0 .72599-.586831 1.312821-1.31282 1.312821"/><path d="m216.640985 166.728205h-65.692226c-.72599 0-1.312821-.586831-1.312821-1.31282 0-.72599.586831-1.312821 1.312821-1.312821h65.692226c.725989 0 1.31282.586831 1.31282 1.312821 0 .725989-.586831 1.31282-1.31282 1.31282"/><path d="m216.640985 192.984615h-65.692226c-.72599 0-1.312821-.58683-1.312821-1.31282s.586831-1.312821 1.312821-1.312821h65.692226c.725989 0 1.31282.586831 1.31282 1.312821s-.586831 1.31282-1.31282 1.31282"/><path d="m216.640985 127.587118h-65.692226c-.72599 0-1.312821-.588144-1.312821-1.312821 0-.725989.586831-1.31282 1.312821-1.31282h65.692226c.725989 0 1.31282.586831 1.31282 1.31282 0 .724677-.586831 1.312821-1.31282 1.312821"/><path d="m216.640985 153.6h-65.692226c-.72599 0-1.312821-.586831-1.312821-1.312821 0-.725989.586831-1.31282 1.312821-1.31282h65.692226c.725989 0 1.31282.586831 1.31282 1.31282 0 .72599-.586831 1.312821-1.31282 1.312821"/><path d="m216.640985 179.85641h-65.692226c-.72599 0-1.312821-.586831-1.312821-1.31282 0-.72599.586831-1.312821 1.312821-1.312821h65.692226c.725989 0 1.31282.586831 1.31282 1.312821 0 .725989-.586831 1.31282-1.31282 1.31282"/><path d="m236.307692 58.5666297c-.015754 0-.028882-.0078769-.044636-.0065641-4.056615.1378462-5.975959 4.1957744-7.669497 7.7758359-1.767056 3.7402257-3.133703 6.1741949-5.373374 6.100677-2.479918-.0892718-3.897764-2.8908308-5.399631-5.8564923-1.725046-3.4041436-3.694277-7.2664616-7.828349-7.1220513-3.998851.1365333-5.924759 3.6680205-7.623549 6.7833436-1.807753 3.3188102-3.037866 5.3366153-5.410133 5.2434051-2.529805-.0918974-3.874133-2.369641-5.429826-5.0057846-1.734235-2.9354667-3.738912-6.2358975-7.792902-6.1229949-3.930585.1352205-5.861744 3.1310769-7.565785 5.7764103-1.802502 2.7963077-3.065436 4.5003487-5.467897 4.3992615-2.590195-.0932103-3.927959-1.982359-5.475775-4.1708308-1.738174-2.4589128-3.696902-5.2420923-7.739076-5.1068718-3.843939.1312821-5.775098 2.5849436-7.477826 4.7497846-1.617395 2.0532513-2.880328 3.6785231-5.551918 3.5761231-.724677-.028882-1.332513.5395693-1.358769 1.265559-.02757.7233641.539569 1.3325128 1.264246 1.3600821 3.960779.1325948 5.966769-2.3643898 7.708882-4.5778052 1.54519-1.9639795 2.879015-3.6588307 5.504656-3.7481025 2.528493-.1076513 3.71397 1.4637948 5.507282 3.9975384 1.702729 2.4077128 3.6352 5.1383795 7.523775 5.2788513 4.073682.1365333 6.033723-2.9078974 7.769272-5.6018051 1.551753-2.4077128 2.89083-4.4859077 5.448205-4.5738667 2.353887-.087959 3.6352 1.7723077 5.441641 4.8324923 1.702728 2.8842667 3.631261 6.1518769 7.597292 6.2962872 4.102564.1417846 6.08361-3.4409026 7.809969-6.6100513 1.495303-2.7411692 2.906585-5.3313641 5.407508-5.4166974 2.353887-.0551385 3.581374 2.0939487 5.397005 5.6845128 1.696164 3.3516308 3.619446 7.1483077 7.64718 7.2940308.07483.0026256.148348.0039384.221866.0039384 4.022482 0 5.931323-4.036923 7.620923-7.606482 1.495303-3.1638975 2.910523-6.1453128 5.339241-6.2660923z"/><path d="m105.025641 217.928205h52.512821v-52.51282h-52.512821z" fill="#3ecc5f"/><path d="m183.794872 185.107692c-.287508 0-.561887.048575-.838893.084021-.049887-.196923-.097148-.395159-.152287-.592082 2.370954-.989867 4.036923-3.326687 4.036923-6.056041 0-3.626011-2.938092-6.564103-6.564102-6.564103-1.49399 0-2.855385.519877-3.959467 1.360082-.145723-.148348-.291446-.295384-.439795-.441107.823139-1.097518 1.327262-2.444472 1.327262-3.921395 0-3.626011-2.938092-6.564103-6.564103-6.564103-2.710974 0-5.037292 1.644964-6.037661 3.992287-.194298-.055138-.389908-.101087-.584205-.150974.035446-.277005.08402-.551385.08402-.838892 0-3.626011-2.938092-6.564103-6.564102-6.564103-3.626011 0-6.564103 2.938092-6.564103 6.564103 0 .287507.048574.561887.08402.838892-.194297.049887-.389907.095836-.584205.150974-1.000369-2.347323-3.326687-3.992287-6.037661-3.992287-3.62601 0-6.564103 2.938092-6.564103 6.564103 0 1.476923.504123 2.823877 1.327262 3.921395-4.879754 4.768164-7.917621 11.412348-7.917621 18.773333 0 14.501415 11.754995 26.25641 26.256411 26.25641 12.26043 0 22.528-8.415179 25.417517-19.776328.277006.035446.551385.08402.838893.08402 3.62601 0 6.564102-2.938092 6.564102-6.564102s-2.938092-6.564103-6.564102-6.564103" fill="#44d860"/><path d="m105.025641 139.158974h52.512821v-26.25641h-52.512821z" fill="#3ecc5f"/><path d="m170.666667 129.312821c1.813005 0 3.282051-1.469047 3.282051-3.282052s-1.469046-3.282051-3.282051-3.282051c-.143098 0-.280944.024944-.41879.04201-.026256-.098461-.048574-.196923-.076144-.295384 1.184164-.494934 2.017805-1.664657 2.017805-3.028677 0-1.813005-1.469046-3.282052-3.282051-3.282052-.746995 0-1.428349.258626-1.979733.680041-.072205-.07483-.145723-.148348-.220554-.220553.412226-.547447.664287-1.222236.664287-1.961354 0-1.811693-1.469046-3.282052-3.282051-3.282052-1.356144 0-2.519303.823139-3.019487 1.9968-1.125087-.313764-2.305313-.494933-3.531487-.494933-7.249395 0-13.128206 5.87881-13.128206 13.128205s5.878811 13.128205 13.128206 13.128205c1.226174 0 2.4064-.181169 3.531487-.494933.500184 1.173662 1.663343 1.9968 3.019487 1.9968 1.813005 0 3.282051-1.470359 3.282051-3.282051 0-.739118-.252061-1.413908-.664287-1.961354.074831-.072205.148349-.145723.220554-.220554.551384.421415 1.232738.680041 1.979733.680041 1.813005 0 3.282051-1.469046 3.282051-3.282051 0-1.364021-.833641-2.533744-2.017805-3.028677.02757-.097149.049888-.196923.076144-.295385.137846.017067.275692.042011.41879.042011" fill="#44d860"/><path d="m183.794872 32.4923077c-.210051 0-.433231-.0262564-.643282-.065641-.210052-.0393846-.421416-.1050257-.617026-.1837949-.196923-.0787692-.380718-.1837949-.565826-.3019487-.170666-.1181539-.34002-.2625641-.498871-.4069744-.143098-.1575384-.287508-.3150769-.405662-.4988718-.118154-.1837948-.223179-.3675897-.303261-.5645128-.077457-.1969231-.143098-.4069744-.182482-.6170256-.039385-.2100513-.065641-.4332308-.065641-.6432821s.026256-.4332308.065641-.643282c.039384-.2100513.105025-.4069744.182482-.6170257.080082-.1969231.185107-.3807179.303261-.5645128.118154-.1706667.262564-.3413333.405662-.4988718.158851-.1444103.328205-.2888205.498871-.4069744.185108-.1181538.368903-.2231794.565826-.3019487.19561-.0787692.406974-.1444102.617026-.1837948.420102-.0918975.853333-.0918975 1.286564 0 .208738.0393846.420102.1050256.617025.1837948.195611.0787693.380718.1837949.564513.3019487.170667.1181539.340021.2625641.498872.4069744.14441.1575385.288821.3282051.406974.4988718.118154.1837949.22318.3675897.301949.5645128.078769.2100513.14441.4069744.183795.6170257.038072.2100512.065641.4332307.065641.643282 0 .8664615-.355774 1.7197949-.958359 2.3236923-.158851.1444103-.328205.2888205-.498872.4069744-.183795.1181538-.368902.2231795-.564513.3019487-.196923.0787692-.408287.1444103-.617025.1837949-.210051.0393846-.433231.065641-.643282.065641"/><path d="m210.051282 30.8512821c-.866461 0-1.706667-.3544616-2.325005-.958359-.143098-.1575385-.287508-.3282052-.405662-.4988718-.118153-.1837949-.223179-.3675898-.303261-.5645128-.077457-.1969231-.143098-.4069744-.182482-.6170257-.039385-.2100513-.065641-.4332307-.065641-.643282 0-.8664616.354461-1.7066667.957046-2.3236923.158851-.1444103.328205-.2888206.498872-.4069744.185107-.1181538.368902-.2231795.565825-.3019487.195611-.0787692.406975-.1444103.617026-.1837949.420103-.0918974.866462-.0918974 1.286564 0 .208739.0393846.420103.1050257.617026.1837949.19561.0787692.380718.1837949.564513.3019487.170666.1181538.34002.2625641.498871.4069744.602585.6170256.958359 1.4572307.958359 2.3236923 0 .2100513-.027569.4332307-.065641.643282-.039384.2100513-.105025.4201026-.183795.6170257-.091897.196923-.183794.3807179-.301948.5645128-.118154.1706666-.262564.3413333-.406975.4988718-.158851.1444102-.328205.2888205-.498871.4069743-.183795.1181539-.368903.2231795-.564513.3019488-.196923.0787692-.408287.1444102-.617026.1837948-.210051.0393846-.433231.0656411-.643282.0656411"/></svg>