<svg xmlns="http://www.w3.org/2000/svg" fill="none" viewBox="0 0 60 80" height="80" width="60">
<path fill="#794CFF" d="M11.4061 32.0726C7.99479 32.0726 4.68666 30.2939 2.87361 27.1233C0.184126 22.4146 1.81672 16.4169 6.52546 13.7274L27.0791 1.97273C31.7877 -0.716751 37.7853 0.91584 40.4748 5.62458C43.1644 10.3333 41.5317 16.331 36.8231 19.029L16.2781 30.775C14.74 31.6515 13.0644 32.0726 11.4061 32.0726Z"></path>
<path fill="#3885D0" d="M11.4061 60.1542C7.99479 60.1542 4.68666 58.3755 2.87361 55.2049C0.184126 50.4962 1.81672 44.4986 6.52546 41.8091L27.0704 30.0631C31.7791 27.3735 37.7766 29.0062 40.4662 33.7149C43.1642 38.4151 41.5317 44.4213 36.8228 47.1107L16.2781 58.8569C14.74 59.7418 13.0644 60.1542 11.4061 60.1542Z"></path>
<path fill="url(#paint0_linear_3348_1423)" d="M28.2986 79.0607C24.8873 79.0607 21.5792 77.282 19.7662 74.1113C17.0767 69.4025 18.7093 63.4049 23.4179 60.7153L43.9628 48.9693C48.6717 46.2798 54.6693 47.9125 57.3588 52.6211C60.0482 57.33 58.4157 63.3276 53.7068 66.0171L33.1619 77.7631C31.6239 78.6396 29.9484 79.0607 28.2986 79.0607Z"></path>
<defs>
<linearGradient gradientUnits="userSpaceOnUse" y2="63.3627" x2="58.6566" y1="63.3627" x1="18.4649" id="paint0_linear_3348_1423">
<stop stop-color="#28AEB9"></stop>
<stop stop-color="#18D6A3" offset="1"></stop>
</linearGradient>
</defs>
</svg>
