<svg xmlns="http://www.w3.org/2000/svg" fill="none" viewBox="0 0 83 80" height="80" width="83">
<path fill="#0051FF" d="M37.1813 57.8124H37.0723C31.5387 57.8124 26.2318 55.6142 22.3189 51.7013C18.4061 47.7885 16.2079 42.4815 16.2079 36.9479C16.2079 31.4143 18.4061 26.1074 22.3189 22.1945C26.2318 18.2817 31.5387 16.0835 37.0723 16.0835C41.0544 16.0833 44.9537 17.2223 48.3089 19.3668C51.6642 21.5112 54.3353 24.5717 56.0074 28.1856L72.5403 28.2986C70.5943 20.3563 66.0431 13.2951 59.613 8.24319C53.183 3.19128 45.245 0.440002 37.0677 0.428833C27.3862 0.439461 18.1046 4.29025 11.2588 11.1361C4.41293 17.9819 0.562141 27.2641 0.551514 36.9456C0.562141 46.6271 4.41293 55.9087 11.2588 62.7546C18.1046 69.6004 27.3862 73.4512 37.0677 73.4618H37.1767L37.1813 57.8124Z"></path>
<path fill="#05D8FF" d="M70.3391 57.9518L68.2962 55.8569C71.7627 50.1645 73.5939 43.6271 73.589 36.9622C73.5857 35.4421 73.4878 33.9235 73.296 32.4156L57.4104 32.3066C57.7596 33.8329 57.9363 35.3941 57.9372 36.9599C57.9367 41.7631 56.2794 46.4186 53.2452 50.142C50.211 53.8655 45.9857 56.4286 41.2815 57.3988V73.2236C46.9647 72.566 52.4119 70.574 57.1789 67.4106L68.8488 79.7255H70.1595C71.7101 79.6695 73.2263 79.2527 74.588 78.5089C76.0757 77.6795 77.376 76.5522 78.4075 75.1968C79.439 73.8413 80.1794 72.2872 80.5822 70.6322L81.0784 68.9225L70.3391 57.9518Z"></path>
</svg>
