<svg xmlns="http://www.w3.org/2000/svg" fill="none" viewBox="0 0 81 80" height="80" width="81">
<path fill="#1C2940" d="M17.2005 29.4824H0.358398V44.2193H17.2005L17.2005 80.0087H31.9373L31.9373 44.2193H50.8847V29.4824H31.9373H17.2005Z" clip-rule="evenodd" fill-rule="evenodd"></path>
<path fill="#FC501E" d="M34.043 5.27097C34.043 2.36421 36.3994 0.0078125 39.3061 0.0078125C42.2129 0.0078125 44.5693 2.36421 44.5693 5.27097V15.7973C44.5693 18.704 42.2129 21.0604 39.3061 21.0604C36.3994 21.0604 34.043 18.704 34.043 15.7973V5.27097ZM64.1558 7.94037C66.2112 5.88498 69.5437 5.88497 71.5991 7.94036C73.6544 9.99576 73.6544 13.3282 71.5991 15.3836L64.1558 22.8268C62.1004 24.8822 58.768 24.8822 56.7126 22.8268C54.6572 20.7714 54.6572 17.439 56.7126 15.3836L64.1558 7.94037ZM80.998 38.9546C80.998 36.0478 78.6416 33.6914 75.7349 33.6914H65.2086C62.3018 33.6914 59.9454 36.0478 59.9454 38.9546C59.9454 41.8613 62.3018 44.2177 65.2086 44.2177H75.7349C78.6416 44.2177 80.998 41.8613 80.998 38.9546Z" clip-rule="evenodd" fill-rule="evenodd"></path>
</svg>
